%TF.GenerationSoftware,Altium Limited,Altium Designer,23.9.2 (47)*%
G04 Layer_Color=0*
%FSLAX45Y45*%
%MOMM*%
%TF.SameCoordinates,AD479AB8-1AF9-481E-9C01-A3E3F564F201*%
%TF.FilePolarity,Positive*%
%TF.FileFunction,Plated,1,2,PTH,Drill*%
%TF.Part,CustomerPanel*%
G01*
G75*
%TA.AperFunction,ComponentDrill*%
%ADD57C,1.75000*%
%ADD58C,0.90000*%
%TA.AperFunction,ViaDrill,NotFilled*%
%ADD59C,0.25000*%
D57*
X8080400Y9434145D02*
D03*
Y10523846D02*
D03*
X14650999Y9434145D02*
D03*
Y10523846D02*
D03*
X8080400Y13934645D02*
D03*
Y15024345D02*
D03*
X14650999Y13934645D02*
D03*
Y15024345D02*
D03*
X8080400Y18435146D02*
D03*
Y19524846D02*
D03*
X14650999Y18435146D02*
D03*
Y19524846D02*
D03*
X8080400Y22935646D02*
D03*
Y24025346D02*
D03*
X14650999Y22935646D02*
D03*
Y24025346D02*
D03*
X8080400Y27436145D02*
D03*
Y28525845D02*
D03*
X14650999Y27436145D02*
D03*
Y28525845D02*
D03*
D58*
X11277600Y12293600D02*
D03*
X11531600D02*
D03*
X9028100D02*
D03*
X9282100D02*
D03*
X17848199D02*
D03*
X18102200D02*
D03*
X15598700D02*
D03*
X15852699D02*
D03*
X11277600Y16794099D02*
D03*
X11531600D02*
D03*
X9028100D02*
D03*
X9282100D02*
D03*
X17848199D02*
D03*
X18102200D02*
D03*
X15598700D02*
D03*
X15852699D02*
D03*
X11277600Y21294600D02*
D03*
X11531600D02*
D03*
X9028100D02*
D03*
X9282100D02*
D03*
X17848199D02*
D03*
X18102200D02*
D03*
X15598700D02*
D03*
X15852699D02*
D03*
X11277600Y25795099D02*
D03*
X11531600D02*
D03*
X9028100D02*
D03*
X9282100D02*
D03*
X17848199D02*
D03*
X18102200D02*
D03*
X15598700D02*
D03*
X15852699D02*
D03*
X11277600Y30295599D02*
D03*
X11531600D02*
D03*
X9028100D02*
D03*
X9282100D02*
D03*
X17848199D02*
D03*
X18102200D02*
D03*
X15598700D02*
D03*
X15852699D02*
D03*
D59*
X12901700Y12188400D02*
D03*
Y11438400D02*
D03*
Y11188400D02*
D03*
Y10938400D02*
D03*
Y10688400D02*
D03*
Y10438400D02*
D03*
Y10188400D02*
D03*
Y9938400D02*
D03*
Y9688400D02*
D03*
Y9438400D02*
D03*
Y9188400D02*
D03*
Y8938400D02*
D03*
Y8688400D02*
D03*
X12651700Y12188400D02*
D03*
Y11938400D02*
D03*
Y11688400D02*
D03*
Y11438400D02*
D03*
Y11188400D02*
D03*
Y10938400D02*
D03*
Y10688400D02*
D03*
Y10438400D02*
D03*
Y10188400D02*
D03*
Y9938400D02*
D03*
Y9688400D02*
D03*
Y9438400D02*
D03*
Y9188400D02*
D03*
Y8688400D02*
D03*
X12401700Y12188400D02*
D03*
Y11938400D02*
D03*
Y11688400D02*
D03*
Y11438400D02*
D03*
Y10688400D02*
D03*
Y10438400D02*
D03*
Y8688400D02*
D03*
X12151700Y11938400D02*
D03*
Y11688400D02*
D03*
Y11438400D02*
D03*
Y10688400D02*
D03*
Y10438400D02*
D03*
Y9688400D02*
D03*
Y9438400D02*
D03*
Y9188400D02*
D03*
Y8688400D02*
D03*
X11901700Y11938400D02*
D03*
Y11688400D02*
D03*
Y11438400D02*
D03*
Y11188400D02*
D03*
Y10938400D02*
D03*
Y10688400D02*
D03*
Y10438400D02*
D03*
Y10188400D02*
D03*
Y9938400D02*
D03*
Y9688400D02*
D03*
Y9438400D02*
D03*
Y9188400D02*
D03*
Y8688400D02*
D03*
X11651700Y10938400D02*
D03*
Y10438400D02*
D03*
Y9938400D02*
D03*
Y9688400D02*
D03*
Y9438400D02*
D03*
Y9188400D02*
D03*
Y8688400D02*
D03*
X11401700Y9688400D02*
D03*
Y9188400D02*
D03*
Y8938400D02*
D03*
Y8688400D02*
D03*
X11151700Y11688400D02*
D03*
Y9938400D02*
D03*
Y9688400D02*
D03*
Y8938400D02*
D03*
Y8688400D02*
D03*
X10901700Y12188400D02*
D03*
Y10688400D02*
D03*
Y10438400D02*
D03*
Y9938400D02*
D03*
Y9688400D02*
D03*
Y8938400D02*
D03*
X10651700Y12188400D02*
D03*
Y11938400D02*
D03*
Y10688400D02*
D03*
Y10438400D02*
D03*
Y9938400D02*
D03*
Y9688400D02*
D03*
Y9188400D02*
D03*
X10401700Y12188400D02*
D03*
Y11938400D02*
D03*
Y10938400D02*
D03*
Y10688400D02*
D03*
Y10438400D02*
D03*
Y9688400D02*
D03*
Y9188400D02*
D03*
X10151700Y12188400D02*
D03*
Y10938400D02*
D03*
Y10688400D02*
D03*
Y10438400D02*
D03*
Y9438400D02*
D03*
Y9188400D02*
D03*
X9901700Y12188400D02*
D03*
Y11938400D02*
D03*
Y10938400D02*
D03*
Y10688400D02*
D03*
Y10438400D02*
D03*
Y9688400D02*
D03*
Y9438400D02*
D03*
Y9188400D02*
D03*
Y8938400D02*
D03*
X9651700Y12188400D02*
D03*
Y11938400D02*
D03*
Y10938400D02*
D03*
Y10688400D02*
D03*
Y10438400D02*
D03*
Y9688400D02*
D03*
Y9438400D02*
D03*
Y9188400D02*
D03*
Y8938400D02*
D03*
Y8688400D02*
D03*
X9401700Y11938400D02*
D03*
Y11188400D02*
D03*
Y10938400D02*
D03*
Y10688400D02*
D03*
Y10188400D02*
D03*
Y9938400D02*
D03*
Y9688400D02*
D03*
Y9438400D02*
D03*
Y9188400D02*
D03*
Y8938400D02*
D03*
Y8688400D02*
D03*
X9151700Y10938400D02*
D03*
Y10688400D02*
D03*
Y10188400D02*
D03*
Y9938400D02*
D03*
Y9688400D02*
D03*
Y9438400D02*
D03*
Y9188400D02*
D03*
Y8938400D02*
D03*
Y8688400D02*
D03*
X8901700Y11938400D02*
D03*
Y11688400D02*
D03*
Y11438400D02*
D03*
Y11188400D02*
D03*
Y10938400D02*
D03*
Y10688400D02*
D03*
Y10438400D02*
D03*
Y9688400D02*
D03*
Y9438400D02*
D03*
Y9188400D02*
D03*
Y8938400D02*
D03*
Y8688400D02*
D03*
X8651700Y12188400D02*
D03*
Y11938400D02*
D03*
Y11688400D02*
D03*
Y11438400D02*
D03*
Y11188400D02*
D03*
Y10938400D02*
D03*
Y10688400D02*
D03*
Y10438400D02*
D03*
Y9688400D02*
D03*
Y9438400D02*
D03*
Y9188400D02*
D03*
Y8938400D02*
D03*
Y8688400D02*
D03*
X8401700Y12188400D02*
D03*
Y11938400D02*
D03*
Y11688400D02*
D03*
Y11438400D02*
D03*
Y11188400D02*
D03*
Y10938400D02*
D03*
Y10438400D02*
D03*
Y9188400D02*
D03*
Y8938400D02*
D03*
Y8688400D02*
D03*
X8151700Y12188400D02*
D03*
Y11938400D02*
D03*
Y11688400D02*
D03*
Y11438400D02*
D03*
Y11188400D02*
D03*
Y10938400D02*
D03*
Y9688400D02*
D03*
Y8938400D02*
D03*
Y8688400D02*
D03*
X7901700Y12188400D02*
D03*
Y11938400D02*
D03*
Y11688400D02*
D03*
Y11438400D02*
D03*
Y11188400D02*
D03*
Y10938400D02*
D03*
Y10438400D02*
D03*
Y10188400D02*
D03*
Y9938400D02*
D03*
Y9688400D02*
D03*
Y9188400D02*
D03*
Y8938400D02*
D03*
Y8688400D02*
D03*
X8826500Y10033000D02*
D03*
X10344709Y9411536D02*
D03*
X10442997Y9509824D02*
D03*
X8128000Y10170100D02*
D03*
X8661400D02*
D03*
X8128000Y9969500D02*
D03*
X8585200D02*
D03*
X19472301Y12188400D02*
D03*
Y11438400D02*
D03*
Y11188400D02*
D03*
Y10938400D02*
D03*
Y10688400D02*
D03*
Y10438400D02*
D03*
Y10188400D02*
D03*
Y9938400D02*
D03*
Y9688400D02*
D03*
Y9438400D02*
D03*
Y9188400D02*
D03*
Y8938400D02*
D03*
Y8688400D02*
D03*
X19222301Y12188400D02*
D03*
Y11938400D02*
D03*
Y11688400D02*
D03*
Y11438400D02*
D03*
Y11188400D02*
D03*
Y10938400D02*
D03*
Y10688400D02*
D03*
Y10438400D02*
D03*
Y10188400D02*
D03*
Y9938400D02*
D03*
Y9688400D02*
D03*
Y9438400D02*
D03*
Y9188400D02*
D03*
Y8688400D02*
D03*
X18972301Y12188400D02*
D03*
Y11938400D02*
D03*
Y11688400D02*
D03*
Y11438400D02*
D03*
Y10688400D02*
D03*
Y10438400D02*
D03*
Y8688400D02*
D03*
X18722301Y11938400D02*
D03*
Y11688400D02*
D03*
Y11438400D02*
D03*
Y10688400D02*
D03*
Y10438400D02*
D03*
Y9688400D02*
D03*
Y9438400D02*
D03*
Y9188400D02*
D03*
Y8688400D02*
D03*
X18472301Y11938400D02*
D03*
Y11688400D02*
D03*
Y11438400D02*
D03*
Y11188400D02*
D03*
Y10938400D02*
D03*
Y10688400D02*
D03*
Y10438400D02*
D03*
Y10188400D02*
D03*
Y9938400D02*
D03*
Y9688400D02*
D03*
Y9438400D02*
D03*
Y9188400D02*
D03*
Y8688400D02*
D03*
X18222301Y10938400D02*
D03*
Y10438400D02*
D03*
Y9938400D02*
D03*
Y9688400D02*
D03*
Y9438400D02*
D03*
Y9188400D02*
D03*
Y8688400D02*
D03*
X17972301Y9688400D02*
D03*
Y9188400D02*
D03*
Y8938400D02*
D03*
Y8688400D02*
D03*
X17722301Y11688400D02*
D03*
Y9938400D02*
D03*
Y9688400D02*
D03*
Y8938400D02*
D03*
Y8688400D02*
D03*
X17472301Y12188400D02*
D03*
Y10688400D02*
D03*
Y10438400D02*
D03*
Y9938400D02*
D03*
Y9688400D02*
D03*
Y8938400D02*
D03*
X17222301Y12188400D02*
D03*
Y11938400D02*
D03*
Y10688400D02*
D03*
Y10438400D02*
D03*
Y9938400D02*
D03*
Y9688400D02*
D03*
Y9188400D02*
D03*
X16972301Y12188400D02*
D03*
Y11938400D02*
D03*
Y10938400D02*
D03*
Y10688400D02*
D03*
Y10438400D02*
D03*
Y9688400D02*
D03*
Y9188400D02*
D03*
X16722301Y12188400D02*
D03*
Y10938400D02*
D03*
Y10688400D02*
D03*
Y10438400D02*
D03*
Y9438400D02*
D03*
Y9188400D02*
D03*
X16472301Y12188400D02*
D03*
Y11938400D02*
D03*
Y10938400D02*
D03*
Y10688400D02*
D03*
Y10438400D02*
D03*
Y9688400D02*
D03*
Y9438400D02*
D03*
Y9188400D02*
D03*
Y8938400D02*
D03*
X16222301Y12188400D02*
D03*
Y11938400D02*
D03*
Y10938400D02*
D03*
Y10688400D02*
D03*
Y10438400D02*
D03*
Y9688400D02*
D03*
Y9438400D02*
D03*
Y9188400D02*
D03*
Y8938400D02*
D03*
Y8688400D02*
D03*
X15972301Y11938400D02*
D03*
Y11188400D02*
D03*
Y10938400D02*
D03*
Y10688400D02*
D03*
Y10188400D02*
D03*
Y9938400D02*
D03*
Y9688400D02*
D03*
Y9438400D02*
D03*
Y9188400D02*
D03*
Y8938400D02*
D03*
Y8688400D02*
D03*
X15722301Y10938400D02*
D03*
Y10688400D02*
D03*
Y10188400D02*
D03*
Y9938400D02*
D03*
Y9688400D02*
D03*
Y9438400D02*
D03*
Y9188400D02*
D03*
Y8938400D02*
D03*
Y8688400D02*
D03*
X15472301Y11938400D02*
D03*
Y11688400D02*
D03*
Y11438400D02*
D03*
Y11188400D02*
D03*
Y10938400D02*
D03*
Y10688400D02*
D03*
Y10438400D02*
D03*
Y9688400D02*
D03*
Y9438400D02*
D03*
Y9188400D02*
D03*
Y8938400D02*
D03*
Y8688400D02*
D03*
X15222301Y12188400D02*
D03*
Y11938400D02*
D03*
Y11688400D02*
D03*
Y11438400D02*
D03*
Y11188400D02*
D03*
Y10938400D02*
D03*
Y10688400D02*
D03*
Y10438400D02*
D03*
Y9688400D02*
D03*
Y9438400D02*
D03*
Y9188400D02*
D03*
Y8938400D02*
D03*
Y8688400D02*
D03*
X14972301Y12188400D02*
D03*
Y11938400D02*
D03*
Y11688400D02*
D03*
Y11438400D02*
D03*
Y11188400D02*
D03*
Y10938400D02*
D03*
Y10438400D02*
D03*
Y9188400D02*
D03*
Y8938400D02*
D03*
Y8688400D02*
D03*
X14722301Y12188400D02*
D03*
Y11938400D02*
D03*
Y11688400D02*
D03*
Y11438400D02*
D03*
Y11188400D02*
D03*
Y10938400D02*
D03*
Y9688400D02*
D03*
Y8938400D02*
D03*
Y8688400D02*
D03*
X14472301Y12188400D02*
D03*
Y11938400D02*
D03*
Y11688400D02*
D03*
Y11438400D02*
D03*
Y11188400D02*
D03*
Y10938400D02*
D03*
Y10438400D02*
D03*
Y10188400D02*
D03*
Y9938400D02*
D03*
Y9688400D02*
D03*
Y9188400D02*
D03*
Y8938400D02*
D03*
Y8688400D02*
D03*
X15397099Y10033000D02*
D03*
X16915309Y9411536D02*
D03*
X17013597Y9509824D02*
D03*
X14698599Y10170100D02*
D03*
X15232001D02*
D03*
X14698599Y9969500D02*
D03*
X15155800D02*
D03*
X12901700Y16688901D02*
D03*
Y15938901D02*
D03*
Y15688901D02*
D03*
Y15438901D02*
D03*
Y15188901D02*
D03*
Y14938901D02*
D03*
Y14688901D02*
D03*
Y14438901D02*
D03*
Y14188901D02*
D03*
Y13938901D02*
D03*
Y13688901D02*
D03*
Y13438901D02*
D03*
Y13188901D02*
D03*
X12651700Y16688901D02*
D03*
Y16438901D02*
D03*
Y16188901D02*
D03*
Y15938901D02*
D03*
Y15688901D02*
D03*
Y15438901D02*
D03*
Y15188901D02*
D03*
Y14938901D02*
D03*
Y14688901D02*
D03*
Y14438901D02*
D03*
Y14188901D02*
D03*
Y13938901D02*
D03*
Y13688901D02*
D03*
Y13188901D02*
D03*
X12401700Y16688901D02*
D03*
Y16438901D02*
D03*
Y16188901D02*
D03*
Y15938901D02*
D03*
Y15188901D02*
D03*
Y14938901D02*
D03*
Y13188901D02*
D03*
X12151700Y16438901D02*
D03*
Y16188901D02*
D03*
Y15938901D02*
D03*
Y15188901D02*
D03*
Y14938901D02*
D03*
Y14188901D02*
D03*
Y13938901D02*
D03*
Y13688901D02*
D03*
Y13188901D02*
D03*
X11901700Y16438901D02*
D03*
Y16188901D02*
D03*
Y15938901D02*
D03*
Y15688901D02*
D03*
Y15438901D02*
D03*
Y15188901D02*
D03*
Y14938901D02*
D03*
Y14688901D02*
D03*
Y14438901D02*
D03*
Y14188901D02*
D03*
Y13938901D02*
D03*
Y13688901D02*
D03*
Y13188901D02*
D03*
X11651700Y15438901D02*
D03*
Y14938901D02*
D03*
Y14438901D02*
D03*
Y14188901D02*
D03*
Y13938901D02*
D03*
Y13688901D02*
D03*
Y13188901D02*
D03*
X11401700Y14188901D02*
D03*
Y13688901D02*
D03*
Y13438901D02*
D03*
Y13188901D02*
D03*
X11151700Y16188901D02*
D03*
Y14438901D02*
D03*
Y14188901D02*
D03*
Y13438901D02*
D03*
Y13188901D02*
D03*
X10901700Y16688901D02*
D03*
Y15188901D02*
D03*
Y14938901D02*
D03*
Y14438901D02*
D03*
Y14188901D02*
D03*
Y13438901D02*
D03*
X10651700Y16688901D02*
D03*
Y16438901D02*
D03*
Y15188901D02*
D03*
Y14938901D02*
D03*
Y14438901D02*
D03*
Y14188901D02*
D03*
Y13688901D02*
D03*
X10401700Y16688901D02*
D03*
Y16438901D02*
D03*
Y15438901D02*
D03*
Y15188901D02*
D03*
Y14938901D02*
D03*
Y14188901D02*
D03*
Y13688901D02*
D03*
X10151700Y16688901D02*
D03*
Y15438901D02*
D03*
Y15188901D02*
D03*
Y14938901D02*
D03*
Y13938901D02*
D03*
Y13688901D02*
D03*
X9901700Y16688901D02*
D03*
Y16438901D02*
D03*
Y15438901D02*
D03*
Y15188901D02*
D03*
Y14938901D02*
D03*
Y14188901D02*
D03*
Y13938901D02*
D03*
Y13688901D02*
D03*
Y13438901D02*
D03*
X9651700Y16688901D02*
D03*
Y16438901D02*
D03*
Y15438901D02*
D03*
Y15188901D02*
D03*
Y14938901D02*
D03*
Y14188901D02*
D03*
Y13938901D02*
D03*
Y13688901D02*
D03*
Y13438901D02*
D03*
Y13188901D02*
D03*
X9401700Y16438901D02*
D03*
Y15688901D02*
D03*
Y15438901D02*
D03*
Y15188901D02*
D03*
Y14688901D02*
D03*
Y14438901D02*
D03*
Y14188901D02*
D03*
Y13938901D02*
D03*
Y13688901D02*
D03*
Y13438901D02*
D03*
Y13188901D02*
D03*
X9151700Y15438901D02*
D03*
Y15188901D02*
D03*
Y14688901D02*
D03*
Y14438901D02*
D03*
Y14188901D02*
D03*
Y13938901D02*
D03*
Y13688901D02*
D03*
Y13438901D02*
D03*
Y13188901D02*
D03*
X8901700Y16438901D02*
D03*
Y16188901D02*
D03*
Y15938901D02*
D03*
Y15688901D02*
D03*
Y15438901D02*
D03*
Y15188901D02*
D03*
Y14938901D02*
D03*
Y14188901D02*
D03*
Y13938901D02*
D03*
Y13688901D02*
D03*
Y13438901D02*
D03*
Y13188901D02*
D03*
X8651700Y16688901D02*
D03*
Y16438901D02*
D03*
Y16188901D02*
D03*
Y15938901D02*
D03*
Y15688901D02*
D03*
Y15438901D02*
D03*
Y15188901D02*
D03*
Y14938901D02*
D03*
Y14188901D02*
D03*
Y13938901D02*
D03*
Y13688901D02*
D03*
Y13438901D02*
D03*
Y13188901D02*
D03*
X8401700Y16688901D02*
D03*
Y16438901D02*
D03*
Y16188901D02*
D03*
Y15938901D02*
D03*
Y15688901D02*
D03*
Y15438901D02*
D03*
Y14938901D02*
D03*
Y13688901D02*
D03*
Y13438901D02*
D03*
Y13188901D02*
D03*
X8151700Y16688901D02*
D03*
Y16438901D02*
D03*
Y16188901D02*
D03*
Y15938901D02*
D03*
Y15688901D02*
D03*
Y15438901D02*
D03*
Y14188901D02*
D03*
Y13438901D02*
D03*
Y13188901D02*
D03*
X7901700Y16688901D02*
D03*
Y16438901D02*
D03*
Y16188901D02*
D03*
Y15938901D02*
D03*
Y15688901D02*
D03*
Y15438901D02*
D03*
Y14938901D02*
D03*
Y14688901D02*
D03*
Y14438901D02*
D03*
Y14188901D02*
D03*
Y13688901D02*
D03*
Y13438901D02*
D03*
Y13188901D02*
D03*
X8826500Y14533501D02*
D03*
X10344709Y13912036D02*
D03*
X10442997Y14010324D02*
D03*
X8128000Y14670599D02*
D03*
X8661400D02*
D03*
X8128000Y14470000D02*
D03*
X8585200D02*
D03*
X19472301Y16688901D02*
D03*
Y15938901D02*
D03*
Y15688901D02*
D03*
Y15438901D02*
D03*
Y15188901D02*
D03*
Y14938901D02*
D03*
Y14688901D02*
D03*
Y14438901D02*
D03*
Y14188901D02*
D03*
Y13938901D02*
D03*
Y13688901D02*
D03*
Y13438901D02*
D03*
Y13188901D02*
D03*
X19222301Y16688901D02*
D03*
Y16438901D02*
D03*
Y16188901D02*
D03*
Y15938901D02*
D03*
Y15688901D02*
D03*
Y15438901D02*
D03*
Y15188901D02*
D03*
Y14938901D02*
D03*
Y14688901D02*
D03*
Y14438901D02*
D03*
Y14188901D02*
D03*
Y13938901D02*
D03*
Y13688901D02*
D03*
Y13188901D02*
D03*
X18972301Y16688901D02*
D03*
Y16438901D02*
D03*
Y16188901D02*
D03*
Y15938901D02*
D03*
Y15188901D02*
D03*
Y14938901D02*
D03*
Y13188901D02*
D03*
X18722301Y16438901D02*
D03*
Y16188901D02*
D03*
Y15938901D02*
D03*
Y15188901D02*
D03*
Y14938901D02*
D03*
Y14188901D02*
D03*
Y13938901D02*
D03*
Y13688901D02*
D03*
Y13188901D02*
D03*
X18472301Y16438901D02*
D03*
Y16188901D02*
D03*
Y15938901D02*
D03*
Y15688901D02*
D03*
Y15438901D02*
D03*
Y15188901D02*
D03*
Y14938901D02*
D03*
Y14688901D02*
D03*
Y14438901D02*
D03*
Y14188901D02*
D03*
Y13938901D02*
D03*
Y13688901D02*
D03*
Y13188901D02*
D03*
X18222301Y15438901D02*
D03*
Y14938901D02*
D03*
Y14438901D02*
D03*
Y14188901D02*
D03*
Y13938901D02*
D03*
Y13688901D02*
D03*
Y13188901D02*
D03*
X17972301Y14188901D02*
D03*
Y13688901D02*
D03*
Y13438901D02*
D03*
Y13188901D02*
D03*
X17722301Y16188901D02*
D03*
Y14438901D02*
D03*
Y14188901D02*
D03*
Y13438901D02*
D03*
Y13188901D02*
D03*
X17472301Y16688901D02*
D03*
Y15188901D02*
D03*
Y14938901D02*
D03*
Y14438901D02*
D03*
Y14188901D02*
D03*
Y13438901D02*
D03*
X17222301Y16688901D02*
D03*
Y16438901D02*
D03*
Y15188901D02*
D03*
Y14938901D02*
D03*
Y14438901D02*
D03*
Y14188901D02*
D03*
Y13688901D02*
D03*
X16972301Y16688901D02*
D03*
Y16438901D02*
D03*
Y15438901D02*
D03*
Y15188901D02*
D03*
Y14938901D02*
D03*
Y14188901D02*
D03*
Y13688901D02*
D03*
X16722301Y16688901D02*
D03*
Y15438901D02*
D03*
Y15188901D02*
D03*
Y14938901D02*
D03*
Y13938901D02*
D03*
Y13688901D02*
D03*
X16472301Y16688901D02*
D03*
Y16438901D02*
D03*
Y15438901D02*
D03*
Y15188901D02*
D03*
Y14938901D02*
D03*
Y14188901D02*
D03*
Y13938901D02*
D03*
Y13688901D02*
D03*
Y13438901D02*
D03*
X16222301Y16688901D02*
D03*
Y16438901D02*
D03*
Y15438901D02*
D03*
Y15188901D02*
D03*
Y14938901D02*
D03*
Y14188901D02*
D03*
Y13938901D02*
D03*
Y13688901D02*
D03*
Y13438901D02*
D03*
Y13188901D02*
D03*
X15972301Y16438901D02*
D03*
Y15688901D02*
D03*
Y15438901D02*
D03*
Y15188901D02*
D03*
Y14688901D02*
D03*
Y14438901D02*
D03*
Y14188901D02*
D03*
Y13938901D02*
D03*
Y13688901D02*
D03*
Y13438901D02*
D03*
Y13188901D02*
D03*
X15722301Y15438901D02*
D03*
Y15188901D02*
D03*
Y14688901D02*
D03*
Y14438901D02*
D03*
Y14188901D02*
D03*
Y13938901D02*
D03*
Y13688901D02*
D03*
Y13438901D02*
D03*
Y13188901D02*
D03*
X15472301Y16438901D02*
D03*
Y16188901D02*
D03*
Y15938901D02*
D03*
Y15688901D02*
D03*
Y15438901D02*
D03*
Y15188901D02*
D03*
Y14938901D02*
D03*
Y14188901D02*
D03*
Y13938901D02*
D03*
Y13688901D02*
D03*
Y13438901D02*
D03*
Y13188901D02*
D03*
X15222301Y16688901D02*
D03*
Y16438901D02*
D03*
Y16188901D02*
D03*
Y15938901D02*
D03*
Y15688901D02*
D03*
Y15438901D02*
D03*
Y15188901D02*
D03*
Y14938901D02*
D03*
Y14188901D02*
D03*
Y13938901D02*
D03*
Y13688901D02*
D03*
Y13438901D02*
D03*
Y13188901D02*
D03*
X14972301Y16688901D02*
D03*
Y16438901D02*
D03*
Y16188901D02*
D03*
Y15938901D02*
D03*
Y15688901D02*
D03*
Y15438901D02*
D03*
Y14938901D02*
D03*
Y13688901D02*
D03*
Y13438901D02*
D03*
Y13188901D02*
D03*
X14722301Y16688901D02*
D03*
Y16438901D02*
D03*
Y16188901D02*
D03*
Y15938901D02*
D03*
Y15688901D02*
D03*
Y15438901D02*
D03*
Y14188901D02*
D03*
Y13438901D02*
D03*
Y13188901D02*
D03*
X14472301Y16688901D02*
D03*
Y16438901D02*
D03*
Y16188901D02*
D03*
Y15938901D02*
D03*
Y15688901D02*
D03*
Y15438901D02*
D03*
Y14938901D02*
D03*
Y14688901D02*
D03*
Y14438901D02*
D03*
Y14188901D02*
D03*
Y13688901D02*
D03*
Y13438901D02*
D03*
Y13188901D02*
D03*
X15397099Y14533501D02*
D03*
X16915309Y13912036D02*
D03*
X17013597Y14010324D02*
D03*
X14698599Y14670599D02*
D03*
X15232001D02*
D03*
X14698599Y14470000D02*
D03*
X15155800D02*
D03*
X12901700Y21189400D02*
D03*
Y20439400D02*
D03*
Y20189400D02*
D03*
Y19939400D02*
D03*
Y19689400D02*
D03*
Y19439400D02*
D03*
Y19189400D02*
D03*
Y18939400D02*
D03*
Y18689400D02*
D03*
Y18439400D02*
D03*
Y18189400D02*
D03*
Y17939400D02*
D03*
Y17689400D02*
D03*
X12651700Y21189400D02*
D03*
Y20939400D02*
D03*
Y20689400D02*
D03*
Y20439400D02*
D03*
Y20189400D02*
D03*
Y19939400D02*
D03*
Y19689400D02*
D03*
Y19439400D02*
D03*
Y19189400D02*
D03*
Y18939400D02*
D03*
Y18689400D02*
D03*
Y18439400D02*
D03*
Y18189400D02*
D03*
Y17689400D02*
D03*
X12401700Y21189400D02*
D03*
Y20939400D02*
D03*
Y20689400D02*
D03*
Y20439400D02*
D03*
Y19689400D02*
D03*
Y19439400D02*
D03*
Y17689400D02*
D03*
X12151700Y20939400D02*
D03*
Y20689400D02*
D03*
Y20439400D02*
D03*
Y19689400D02*
D03*
Y19439400D02*
D03*
Y18689400D02*
D03*
Y18439400D02*
D03*
Y18189400D02*
D03*
Y17689400D02*
D03*
X11901700Y20939400D02*
D03*
Y20689400D02*
D03*
Y20439400D02*
D03*
Y20189400D02*
D03*
Y19939400D02*
D03*
Y19689400D02*
D03*
Y19439400D02*
D03*
Y19189400D02*
D03*
Y18939400D02*
D03*
Y18689400D02*
D03*
Y18439400D02*
D03*
Y18189400D02*
D03*
Y17689400D02*
D03*
X11651700Y19939400D02*
D03*
Y19439400D02*
D03*
Y18939400D02*
D03*
Y18689400D02*
D03*
Y18439400D02*
D03*
Y18189400D02*
D03*
Y17689400D02*
D03*
X11401700Y18689400D02*
D03*
Y18189400D02*
D03*
Y17939400D02*
D03*
Y17689400D02*
D03*
X11151700Y20689400D02*
D03*
Y18939400D02*
D03*
Y18689400D02*
D03*
Y17939400D02*
D03*
Y17689400D02*
D03*
X10901700Y21189400D02*
D03*
Y19689400D02*
D03*
Y19439400D02*
D03*
Y18939400D02*
D03*
Y18689400D02*
D03*
Y17939400D02*
D03*
X10651700Y21189400D02*
D03*
Y20939400D02*
D03*
Y19689400D02*
D03*
Y19439400D02*
D03*
Y18939400D02*
D03*
Y18689400D02*
D03*
Y18189400D02*
D03*
X10401700Y21189400D02*
D03*
Y20939400D02*
D03*
Y19939400D02*
D03*
Y19689400D02*
D03*
Y19439400D02*
D03*
Y18689400D02*
D03*
Y18189400D02*
D03*
X10151700Y21189400D02*
D03*
Y19939400D02*
D03*
Y19689400D02*
D03*
Y19439400D02*
D03*
Y18439400D02*
D03*
Y18189400D02*
D03*
X9901700Y21189400D02*
D03*
Y20939400D02*
D03*
Y19939400D02*
D03*
Y19689400D02*
D03*
Y19439400D02*
D03*
Y18689400D02*
D03*
Y18439400D02*
D03*
Y18189400D02*
D03*
Y17939400D02*
D03*
X9651700Y21189400D02*
D03*
Y20939400D02*
D03*
Y19939400D02*
D03*
Y19689400D02*
D03*
Y19439400D02*
D03*
Y18689400D02*
D03*
Y18439400D02*
D03*
Y18189400D02*
D03*
Y17939400D02*
D03*
Y17689400D02*
D03*
X9401700Y20939400D02*
D03*
Y20189400D02*
D03*
Y19939400D02*
D03*
Y19689400D02*
D03*
Y19189400D02*
D03*
Y18939400D02*
D03*
Y18689400D02*
D03*
Y18439400D02*
D03*
Y18189400D02*
D03*
Y17939400D02*
D03*
Y17689400D02*
D03*
X9151700Y19939400D02*
D03*
Y19689400D02*
D03*
Y19189400D02*
D03*
Y18939400D02*
D03*
Y18689400D02*
D03*
Y18439400D02*
D03*
Y18189400D02*
D03*
Y17939400D02*
D03*
Y17689400D02*
D03*
X8901700Y20939400D02*
D03*
Y20689400D02*
D03*
Y20439400D02*
D03*
Y20189400D02*
D03*
Y19939400D02*
D03*
Y19689400D02*
D03*
Y19439400D02*
D03*
Y18689400D02*
D03*
Y18439400D02*
D03*
Y18189400D02*
D03*
Y17939400D02*
D03*
Y17689400D02*
D03*
X8651700Y21189400D02*
D03*
Y20939400D02*
D03*
Y20689400D02*
D03*
Y20439400D02*
D03*
Y20189400D02*
D03*
Y19939400D02*
D03*
Y19689400D02*
D03*
Y19439400D02*
D03*
Y18689400D02*
D03*
Y18439400D02*
D03*
Y18189400D02*
D03*
Y17939400D02*
D03*
Y17689400D02*
D03*
X8401700Y21189400D02*
D03*
Y20939400D02*
D03*
Y20689400D02*
D03*
Y20439400D02*
D03*
Y20189400D02*
D03*
Y19939400D02*
D03*
Y19439400D02*
D03*
Y18189400D02*
D03*
Y17939400D02*
D03*
Y17689400D02*
D03*
X8151700Y21189400D02*
D03*
Y20939400D02*
D03*
Y20689400D02*
D03*
Y20439400D02*
D03*
Y20189400D02*
D03*
Y19939400D02*
D03*
Y18689400D02*
D03*
Y17939400D02*
D03*
Y17689400D02*
D03*
X7901700Y21189400D02*
D03*
Y20939400D02*
D03*
Y20689400D02*
D03*
Y20439400D02*
D03*
Y20189400D02*
D03*
Y19939400D02*
D03*
Y19439400D02*
D03*
Y19189400D02*
D03*
Y18939400D02*
D03*
Y18689400D02*
D03*
Y18189400D02*
D03*
Y17939400D02*
D03*
Y17689400D02*
D03*
X8826500Y19034000D02*
D03*
X10344709Y18412537D02*
D03*
X10442997Y18510825D02*
D03*
X8128000Y19171100D02*
D03*
X8661400D02*
D03*
X8128000Y18970500D02*
D03*
X8585200D02*
D03*
X19472301Y21189400D02*
D03*
Y20439400D02*
D03*
Y20189400D02*
D03*
Y19939400D02*
D03*
Y19689400D02*
D03*
Y19439400D02*
D03*
Y19189400D02*
D03*
Y18939400D02*
D03*
Y18689400D02*
D03*
Y18439400D02*
D03*
Y18189400D02*
D03*
Y17939400D02*
D03*
Y17689400D02*
D03*
X19222301Y21189400D02*
D03*
Y20939400D02*
D03*
Y20689400D02*
D03*
Y20439400D02*
D03*
Y20189400D02*
D03*
Y19939400D02*
D03*
Y19689400D02*
D03*
Y19439400D02*
D03*
Y19189400D02*
D03*
Y18939400D02*
D03*
Y18689400D02*
D03*
Y18439400D02*
D03*
Y18189400D02*
D03*
Y17689400D02*
D03*
X18972301Y21189400D02*
D03*
Y20939400D02*
D03*
Y20689400D02*
D03*
Y20439400D02*
D03*
Y19689400D02*
D03*
Y19439400D02*
D03*
Y17689400D02*
D03*
X18722301Y20939400D02*
D03*
Y20689400D02*
D03*
Y20439400D02*
D03*
Y19689400D02*
D03*
Y19439400D02*
D03*
Y18689400D02*
D03*
Y18439400D02*
D03*
Y18189400D02*
D03*
Y17689400D02*
D03*
X18472301Y20939400D02*
D03*
Y20689400D02*
D03*
Y20439400D02*
D03*
Y20189400D02*
D03*
Y19939400D02*
D03*
Y19689400D02*
D03*
Y19439400D02*
D03*
Y19189400D02*
D03*
Y18939400D02*
D03*
Y18689400D02*
D03*
Y18439400D02*
D03*
Y18189400D02*
D03*
Y17689400D02*
D03*
X18222301Y19939400D02*
D03*
Y19439400D02*
D03*
Y18939400D02*
D03*
Y18689400D02*
D03*
Y18439400D02*
D03*
Y18189400D02*
D03*
Y17689400D02*
D03*
X17972301Y18689400D02*
D03*
Y18189400D02*
D03*
Y17939400D02*
D03*
Y17689400D02*
D03*
X17722301Y20689400D02*
D03*
Y18939400D02*
D03*
Y18689400D02*
D03*
Y17939400D02*
D03*
Y17689400D02*
D03*
X17472301Y21189400D02*
D03*
Y19689400D02*
D03*
Y19439400D02*
D03*
Y18939400D02*
D03*
Y18689400D02*
D03*
Y17939400D02*
D03*
X17222301Y21189400D02*
D03*
Y20939400D02*
D03*
Y19689400D02*
D03*
Y19439400D02*
D03*
Y18939400D02*
D03*
Y18689400D02*
D03*
Y18189400D02*
D03*
X16972301Y21189400D02*
D03*
Y20939400D02*
D03*
Y19939400D02*
D03*
Y19689400D02*
D03*
Y19439400D02*
D03*
Y18689400D02*
D03*
Y18189400D02*
D03*
X16722301Y21189400D02*
D03*
Y19939400D02*
D03*
Y19689400D02*
D03*
Y19439400D02*
D03*
Y18439400D02*
D03*
Y18189400D02*
D03*
X16472301Y21189400D02*
D03*
Y20939400D02*
D03*
Y19939400D02*
D03*
Y19689400D02*
D03*
Y19439400D02*
D03*
Y18689400D02*
D03*
Y18439400D02*
D03*
Y18189400D02*
D03*
Y17939400D02*
D03*
X16222301Y21189400D02*
D03*
Y20939400D02*
D03*
Y19939400D02*
D03*
Y19689400D02*
D03*
Y19439400D02*
D03*
Y18689400D02*
D03*
Y18439400D02*
D03*
Y18189400D02*
D03*
Y17939400D02*
D03*
Y17689400D02*
D03*
X15972301Y20939400D02*
D03*
Y20189400D02*
D03*
Y19939400D02*
D03*
Y19689400D02*
D03*
Y19189400D02*
D03*
Y18939400D02*
D03*
Y18689400D02*
D03*
Y18439400D02*
D03*
Y18189400D02*
D03*
Y17939400D02*
D03*
Y17689400D02*
D03*
X15722301Y19939400D02*
D03*
Y19689400D02*
D03*
Y19189400D02*
D03*
Y18939400D02*
D03*
Y18689400D02*
D03*
Y18439400D02*
D03*
Y18189400D02*
D03*
Y17939400D02*
D03*
Y17689400D02*
D03*
X15472301Y20939400D02*
D03*
Y20689400D02*
D03*
Y20439400D02*
D03*
Y20189400D02*
D03*
Y19939400D02*
D03*
Y19689400D02*
D03*
Y19439400D02*
D03*
Y18689400D02*
D03*
Y18439400D02*
D03*
Y18189400D02*
D03*
Y17939400D02*
D03*
Y17689400D02*
D03*
X15222301Y21189400D02*
D03*
Y20939400D02*
D03*
Y20689400D02*
D03*
Y20439400D02*
D03*
Y20189400D02*
D03*
Y19939400D02*
D03*
Y19689400D02*
D03*
Y19439400D02*
D03*
Y18689400D02*
D03*
Y18439400D02*
D03*
Y18189400D02*
D03*
Y17939400D02*
D03*
Y17689400D02*
D03*
X14972301Y21189400D02*
D03*
Y20939400D02*
D03*
Y20689400D02*
D03*
Y20439400D02*
D03*
Y20189400D02*
D03*
Y19939400D02*
D03*
Y19439400D02*
D03*
Y18189400D02*
D03*
Y17939400D02*
D03*
Y17689400D02*
D03*
X14722301Y21189400D02*
D03*
Y20939400D02*
D03*
Y20689400D02*
D03*
Y20439400D02*
D03*
Y20189400D02*
D03*
Y19939400D02*
D03*
Y18689400D02*
D03*
Y17939400D02*
D03*
Y17689400D02*
D03*
X14472301Y21189400D02*
D03*
Y20939400D02*
D03*
Y20689400D02*
D03*
Y20439400D02*
D03*
Y20189400D02*
D03*
Y19939400D02*
D03*
Y19439400D02*
D03*
Y19189400D02*
D03*
Y18939400D02*
D03*
Y18689400D02*
D03*
Y18189400D02*
D03*
Y17939400D02*
D03*
Y17689400D02*
D03*
X15397099Y19034000D02*
D03*
X16915309Y18412537D02*
D03*
X17013597Y18510825D02*
D03*
X14698599Y19171100D02*
D03*
X15232001D02*
D03*
X14698599Y18970500D02*
D03*
X15155800D02*
D03*
X12901700Y25689899D02*
D03*
Y24939900D02*
D03*
Y24689900D02*
D03*
Y24439900D02*
D03*
Y24189900D02*
D03*
Y23939900D02*
D03*
Y23689900D02*
D03*
Y23439900D02*
D03*
Y23189900D02*
D03*
Y22939900D02*
D03*
Y22689900D02*
D03*
Y22439900D02*
D03*
Y22189900D02*
D03*
X12651700Y25689899D02*
D03*
Y25439900D02*
D03*
Y25189900D02*
D03*
Y24939900D02*
D03*
Y24689900D02*
D03*
Y24439900D02*
D03*
Y24189900D02*
D03*
Y23939900D02*
D03*
Y23689900D02*
D03*
Y23439900D02*
D03*
Y23189900D02*
D03*
Y22939900D02*
D03*
Y22689900D02*
D03*
Y22189900D02*
D03*
X12401700Y25689899D02*
D03*
Y25439900D02*
D03*
Y25189900D02*
D03*
Y24939900D02*
D03*
Y24189900D02*
D03*
Y23939900D02*
D03*
Y22189900D02*
D03*
X12151700Y25439900D02*
D03*
Y25189900D02*
D03*
Y24939900D02*
D03*
Y24189900D02*
D03*
Y23939900D02*
D03*
Y23189900D02*
D03*
Y22939900D02*
D03*
Y22689900D02*
D03*
Y22189900D02*
D03*
X11901700Y25439900D02*
D03*
Y25189900D02*
D03*
Y24939900D02*
D03*
Y24689900D02*
D03*
Y24439900D02*
D03*
Y24189900D02*
D03*
Y23939900D02*
D03*
Y23689900D02*
D03*
Y23439900D02*
D03*
Y23189900D02*
D03*
Y22939900D02*
D03*
Y22689900D02*
D03*
Y22189900D02*
D03*
X11651700Y24439900D02*
D03*
Y23939900D02*
D03*
Y23439900D02*
D03*
Y23189900D02*
D03*
Y22939900D02*
D03*
Y22689900D02*
D03*
Y22189900D02*
D03*
X11401700Y23189900D02*
D03*
Y22689900D02*
D03*
Y22439900D02*
D03*
Y22189900D02*
D03*
X11151700Y25189900D02*
D03*
Y23439900D02*
D03*
Y23189900D02*
D03*
Y22439900D02*
D03*
Y22189900D02*
D03*
X10901700Y25689899D02*
D03*
Y24189900D02*
D03*
Y23939900D02*
D03*
Y23439900D02*
D03*
Y23189900D02*
D03*
Y22439900D02*
D03*
X10651700Y25689899D02*
D03*
Y25439900D02*
D03*
Y24189900D02*
D03*
Y23939900D02*
D03*
Y23439900D02*
D03*
Y23189900D02*
D03*
Y22689900D02*
D03*
X10401700Y25689899D02*
D03*
Y25439900D02*
D03*
Y24439900D02*
D03*
Y24189900D02*
D03*
Y23939900D02*
D03*
Y23189900D02*
D03*
Y22689900D02*
D03*
X10151700Y25689899D02*
D03*
Y24439900D02*
D03*
Y24189900D02*
D03*
Y23939900D02*
D03*
Y22939900D02*
D03*
Y22689900D02*
D03*
X9901700Y25689899D02*
D03*
Y25439900D02*
D03*
Y24439900D02*
D03*
Y24189900D02*
D03*
Y23939900D02*
D03*
Y23189900D02*
D03*
Y22939900D02*
D03*
Y22689900D02*
D03*
Y22439900D02*
D03*
X9651700Y25689899D02*
D03*
Y25439900D02*
D03*
Y24439900D02*
D03*
Y24189900D02*
D03*
Y23939900D02*
D03*
Y23189900D02*
D03*
Y22939900D02*
D03*
Y22689900D02*
D03*
Y22439900D02*
D03*
Y22189900D02*
D03*
X9401700Y25439900D02*
D03*
Y24689900D02*
D03*
Y24439900D02*
D03*
Y24189900D02*
D03*
Y23689900D02*
D03*
Y23439900D02*
D03*
Y23189900D02*
D03*
Y22939900D02*
D03*
Y22689900D02*
D03*
Y22439900D02*
D03*
Y22189900D02*
D03*
X9151700Y24439900D02*
D03*
Y24189900D02*
D03*
Y23689900D02*
D03*
Y23439900D02*
D03*
Y23189900D02*
D03*
Y22939900D02*
D03*
Y22689900D02*
D03*
Y22439900D02*
D03*
Y22189900D02*
D03*
X8901700Y25439900D02*
D03*
Y25189900D02*
D03*
Y24939900D02*
D03*
Y24689900D02*
D03*
Y24439900D02*
D03*
Y24189900D02*
D03*
Y23939900D02*
D03*
Y23189900D02*
D03*
Y22939900D02*
D03*
Y22689900D02*
D03*
Y22439900D02*
D03*
Y22189900D02*
D03*
X8651700Y25689899D02*
D03*
Y25439900D02*
D03*
Y25189900D02*
D03*
Y24939900D02*
D03*
Y24689900D02*
D03*
Y24439900D02*
D03*
Y24189900D02*
D03*
Y23939900D02*
D03*
Y23189900D02*
D03*
Y22939900D02*
D03*
Y22689900D02*
D03*
Y22439900D02*
D03*
Y22189900D02*
D03*
X8401700Y25689899D02*
D03*
Y25439900D02*
D03*
Y25189900D02*
D03*
Y24939900D02*
D03*
Y24689900D02*
D03*
Y24439900D02*
D03*
Y23939900D02*
D03*
Y22689900D02*
D03*
Y22439900D02*
D03*
Y22189900D02*
D03*
X8151700Y25689899D02*
D03*
Y25439900D02*
D03*
Y25189900D02*
D03*
Y24939900D02*
D03*
Y24689900D02*
D03*
Y24439900D02*
D03*
Y23189900D02*
D03*
Y22439900D02*
D03*
Y22189900D02*
D03*
X7901700Y25689899D02*
D03*
Y25439900D02*
D03*
Y25189900D02*
D03*
Y24939900D02*
D03*
Y24689900D02*
D03*
Y24439900D02*
D03*
Y23939900D02*
D03*
Y23689900D02*
D03*
Y23439900D02*
D03*
Y23189900D02*
D03*
Y22689900D02*
D03*
Y22439900D02*
D03*
Y22189900D02*
D03*
X8826500Y23534500D02*
D03*
X10344709Y22913036D02*
D03*
X10442997Y23011324D02*
D03*
X8128000Y23671600D02*
D03*
X8661400D02*
D03*
X8128000Y23471001D02*
D03*
X8585200D02*
D03*
X19472301Y25689899D02*
D03*
Y24939900D02*
D03*
Y24689900D02*
D03*
Y24439900D02*
D03*
Y24189900D02*
D03*
Y23939900D02*
D03*
Y23689900D02*
D03*
Y23439900D02*
D03*
Y23189900D02*
D03*
Y22939900D02*
D03*
Y22689900D02*
D03*
Y22439900D02*
D03*
Y22189900D02*
D03*
X19222301Y25689899D02*
D03*
Y25439900D02*
D03*
Y25189900D02*
D03*
Y24939900D02*
D03*
Y24689900D02*
D03*
Y24439900D02*
D03*
Y24189900D02*
D03*
Y23939900D02*
D03*
Y23689900D02*
D03*
Y23439900D02*
D03*
Y23189900D02*
D03*
Y22939900D02*
D03*
Y22689900D02*
D03*
Y22189900D02*
D03*
X18972301Y25689899D02*
D03*
Y25439900D02*
D03*
Y25189900D02*
D03*
Y24939900D02*
D03*
Y24189900D02*
D03*
Y23939900D02*
D03*
Y22189900D02*
D03*
X18722301Y25439900D02*
D03*
Y25189900D02*
D03*
Y24939900D02*
D03*
Y24189900D02*
D03*
Y23939900D02*
D03*
Y23189900D02*
D03*
Y22939900D02*
D03*
Y22689900D02*
D03*
Y22189900D02*
D03*
X18472301Y25439900D02*
D03*
Y25189900D02*
D03*
Y24939900D02*
D03*
Y24689900D02*
D03*
Y24439900D02*
D03*
Y24189900D02*
D03*
Y23939900D02*
D03*
Y23689900D02*
D03*
Y23439900D02*
D03*
Y23189900D02*
D03*
Y22939900D02*
D03*
Y22689900D02*
D03*
Y22189900D02*
D03*
X18222301Y24439900D02*
D03*
Y23939900D02*
D03*
Y23439900D02*
D03*
Y23189900D02*
D03*
Y22939900D02*
D03*
Y22689900D02*
D03*
Y22189900D02*
D03*
X17972301Y23189900D02*
D03*
Y22689900D02*
D03*
Y22439900D02*
D03*
Y22189900D02*
D03*
X17722301Y25189900D02*
D03*
Y23439900D02*
D03*
Y23189900D02*
D03*
Y22439900D02*
D03*
Y22189900D02*
D03*
X17472301Y25689899D02*
D03*
Y24189900D02*
D03*
Y23939900D02*
D03*
Y23439900D02*
D03*
Y23189900D02*
D03*
Y22439900D02*
D03*
X17222301Y25689899D02*
D03*
Y25439900D02*
D03*
Y24189900D02*
D03*
Y23939900D02*
D03*
Y23439900D02*
D03*
Y23189900D02*
D03*
Y22689900D02*
D03*
X16972301Y25689899D02*
D03*
Y25439900D02*
D03*
Y24439900D02*
D03*
Y24189900D02*
D03*
Y23939900D02*
D03*
Y23189900D02*
D03*
Y22689900D02*
D03*
X16722301Y25689899D02*
D03*
Y24439900D02*
D03*
Y24189900D02*
D03*
Y23939900D02*
D03*
Y22939900D02*
D03*
Y22689900D02*
D03*
X16472301Y25689899D02*
D03*
Y25439900D02*
D03*
Y24439900D02*
D03*
Y24189900D02*
D03*
Y23939900D02*
D03*
Y23189900D02*
D03*
Y22939900D02*
D03*
Y22689900D02*
D03*
Y22439900D02*
D03*
X16222301Y25689899D02*
D03*
Y25439900D02*
D03*
Y24439900D02*
D03*
Y24189900D02*
D03*
Y23939900D02*
D03*
Y23189900D02*
D03*
Y22939900D02*
D03*
Y22689900D02*
D03*
Y22439900D02*
D03*
Y22189900D02*
D03*
X15972301Y25439900D02*
D03*
Y24689900D02*
D03*
Y24439900D02*
D03*
Y24189900D02*
D03*
Y23689900D02*
D03*
Y23439900D02*
D03*
Y23189900D02*
D03*
Y22939900D02*
D03*
Y22689900D02*
D03*
Y22439900D02*
D03*
Y22189900D02*
D03*
X15722301Y24439900D02*
D03*
Y24189900D02*
D03*
Y23689900D02*
D03*
Y23439900D02*
D03*
Y23189900D02*
D03*
Y22939900D02*
D03*
Y22689900D02*
D03*
Y22439900D02*
D03*
Y22189900D02*
D03*
X15472301Y25439900D02*
D03*
Y25189900D02*
D03*
Y24939900D02*
D03*
Y24689900D02*
D03*
Y24439900D02*
D03*
Y24189900D02*
D03*
Y23939900D02*
D03*
Y23189900D02*
D03*
Y22939900D02*
D03*
Y22689900D02*
D03*
Y22439900D02*
D03*
Y22189900D02*
D03*
X15222301Y25689899D02*
D03*
Y25439900D02*
D03*
Y25189900D02*
D03*
Y24939900D02*
D03*
Y24689900D02*
D03*
Y24439900D02*
D03*
Y24189900D02*
D03*
Y23939900D02*
D03*
Y23189900D02*
D03*
Y22939900D02*
D03*
Y22689900D02*
D03*
Y22439900D02*
D03*
Y22189900D02*
D03*
X14972301Y25689899D02*
D03*
Y25439900D02*
D03*
Y25189900D02*
D03*
Y24939900D02*
D03*
Y24689900D02*
D03*
Y24439900D02*
D03*
Y23939900D02*
D03*
Y22689900D02*
D03*
Y22439900D02*
D03*
Y22189900D02*
D03*
X14722301Y25689899D02*
D03*
Y25439900D02*
D03*
Y25189900D02*
D03*
Y24939900D02*
D03*
Y24689900D02*
D03*
Y24439900D02*
D03*
Y23189900D02*
D03*
Y22439900D02*
D03*
Y22189900D02*
D03*
X14472301Y25689899D02*
D03*
Y25439900D02*
D03*
Y25189900D02*
D03*
Y24939900D02*
D03*
Y24689900D02*
D03*
Y24439900D02*
D03*
Y23939900D02*
D03*
Y23689900D02*
D03*
Y23439900D02*
D03*
Y23189900D02*
D03*
Y22689900D02*
D03*
Y22439900D02*
D03*
Y22189900D02*
D03*
X15397099Y23534500D02*
D03*
X16915309Y22913036D02*
D03*
X17013597Y23011324D02*
D03*
X14698599Y23671600D02*
D03*
X15232001D02*
D03*
X14698599Y23471001D02*
D03*
X15155800D02*
D03*
X12901700Y30190399D02*
D03*
Y29440399D02*
D03*
Y29190399D02*
D03*
Y28940399D02*
D03*
Y28690399D02*
D03*
Y28440399D02*
D03*
Y28190399D02*
D03*
Y27940399D02*
D03*
Y27690399D02*
D03*
Y27440399D02*
D03*
Y27190399D02*
D03*
Y26940399D02*
D03*
Y26690399D02*
D03*
X12651700Y30190399D02*
D03*
Y29940399D02*
D03*
Y29690399D02*
D03*
Y29440399D02*
D03*
Y29190399D02*
D03*
Y28940399D02*
D03*
Y28690399D02*
D03*
Y28440399D02*
D03*
Y28190399D02*
D03*
Y27940399D02*
D03*
Y27690399D02*
D03*
Y27440399D02*
D03*
Y27190399D02*
D03*
Y26690399D02*
D03*
X12401700Y30190399D02*
D03*
Y29940399D02*
D03*
Y29690399D02*
D03*
Y29440399D02*
D03*
Y28690399D02*
D03*
Y28440399D02*
D03*
Y26690399D02*
D03*
X12151700Y29940399D02*
D03*
Y29690399D02*
D03*
Y29440399D02*
D03*
Y28690399D02*
D03*
Y28440399D02*
D03*
Y27690399D02*
D03*
Y27440399D02*
D03*
Y27190399D02*
D03*
Y26690399D02*
D03*
X11901700Y29940399D02*
D03*
Y29690399D02*
D03*
Y29440399D02*
D03*
Y29190399D02*
D03*
Y28940399D02*
D03*
Y28690399D02*
D03*
Y28440399D02*
D03*
Y28190399D02*
D03*
Y27940399D02*
D03*
Y27690399D02*
D03*
Y27440399D02*
D03*
Y27190399D02*
D03*
Y26690399D02*
D03*
X11651700Y28940399D02*
D03*
Y28440399D02*
D03*
Y27940399D02*
D03*
Y27690399D02*
D03*
Y27440399D02*
D03*
Y27190399D02*
D03*
Y26690399D02*
D03*
X11401700Y27690399D02*
D03*
Y27190399D02*
D03*
Y26940399D02*
D03*
Y26690399D02*
D03*
X11151700Y29690399D02*
D03*
Y27940399D02*
D03*
Y27690399D02*
D03*
Y26940399D02*
D03*
Y26690399D02*
D03*
X10901700Y30190399D02*
D03*
Y28690399D02*
D03*
Y28440399D02*
D03*
Y27940399D02*
D03*
Y27690399D02*
D03*
Y26940399D02*
D03*
X10651700Y30190399D02*
D03*
Y29940399D02*
D03*
Y28690399D02*
D03*
Y28440399D02*
D03*
Y27940399D02*
D03*
Y27690399D02*
D03*
Y27190399D02*
D03*
X10401700Y30190399D02*
D03*
Y29940399D02*
D03*
Y28940399D02*
D03*
Y28690399D02*
D03*
Y28440399D02*
D03*
Y27690399D02*
D03*
Y27190399D02*
D03*
X10151700Y30190399D02*
D03*
Y28940399D02*
D03*
Y28690399D02*
D03*
Y28440399D02*
D03*
Y27440399D02*
D03*
Y27190399D02*
D03*
X9901700Y30190399D02*
D03*
Y29940399D02*
D03*
Y28940399D02*
D03*
Y28690399D02*
D03*
Y28440399D02*
D03*
Y27690399D02*
D03*
Y27440399D02*
D03*
Y27190399D02*
D03*
Y26940399D02*
D03*
X9651700Y30190399D02*
D03*
Y29940399D02*
D03*
Y28940399D02*
D03*
Y28690399D02*
D03*
Y28440399D02*
D03*
Y27690399D02*
D03*
Y27440399D02*
D03*
Y27190399D02*
D03*
Y26940399D02*
D03*
Y26690399D02*
D03*
X9401700Y29940399D02*
D03*
Y29190399D02*
D03*
Y28940399D02*
D03*
Y28690399D02*
D03*
Y28190399D02*
D03*
Y27940399D02*
D03*
Y27690399D02*
D03*
Y27440399D02*
D03*
Y27190399D02*
D03*
Y26940399D02*
D03*
Y26690399D02*
D03*
X9151700Y28940399D02*
D03*
Y28690399D02*
D03*
Y28190399D02*
D03*
Y27940399D02*
D03*
Y27690399D02*
D03*
Y27440399D02*
D03*
Y27190399D02*
D03*
Y26940399D02*
D03*
Y26690399D02*
D03*
X8901700Y29940399D02*
D03*
Y29690399D02*
D03*
Y29440399D02*
D03*
Y29190399D02*
D03*
Y28940399D02*
D03*
Y28690399D02*
D03*
Y28440399D02*
D03*
Y27690399D02*
D03*
Y27440399D02*
D03*
Y27190399D02*
D03*
Y26940399D02*
D03*
Y26690399D02*
D03*
X8651700Y30190399D02*
D03*
Y29940399D02*
D03*
Y29690399D02*
D03*
Y29440399D02*
D03*
Y29190399D02*
D03*
Y28940399D02*
D03*
Y28690399D02*
D03*
Y28440399D02*
D03*
Y27690399D02*
D03*
Y27440399D02*
D03*
Y27190399D02*
D03*
Y26940399D02*
D03*
Y26690399D02*
D03*
X8401700Y30190399D02*
D03*
Y29940399D02*
D03*
Y29690399D02*
D03*
Y29440399D02*
D03*
Y29190399D02*
D03*
Y28940399D02*
D03*
Y28440399D02*
D03*
Y27190399D02*
D03*
Y26940399D02*
D03*
Y26690399D02*
D03*
X8151700Y30190399D02*
D03*
Y29940399D02*
D03*
Y29690399D02*
D03*
Y29440399D02*
D03*
Y29190399D02*
D03*
Y28940399D02*
D03*
Y27690399D02*
D03*
Y26940399D02*
D03*
Y26690399D02*
D03*
X7901700Y30190399D02*
D03*
Y29940399D02*
D03*
Y29690399D02*
D03*
Y29440399D02*
D03*
Y29190399D02*
D03*
Y28940399D02*
D03*
Y28440399D02*
D03*
Y28190399D02*
D03*
Y27940399D02*
D03*
Y27690399D02*
D03*
Y27190399D02*
D03*
Y26940399D02*
D03*
Y26690399D02*
D03*
X8826500Y28035001D02*
D03*
X10344709Y27413535D02*
D03*
X10442997Y27511823D02*
D03*
X8128000Y28172101D02*
D03*
X8661400D02*
D03*
X8128000Y27971500D02*
D03*
X8585200D02*
D03*
X19472301Y30190399D02*
D03*
Y29440399D02*
D03*
Y29190399D02*
D03*
Y28940399D02*
D03*
Y28690399D02*
D03*
Y28440399D02*
D03*
Y28190399D02*
D03*
Y27940399D02*
D03*
Y27690399D02*
D03*
Y27440399D02*
D03*
Y27190399D02*
D03*
Y26940399D02*
D03*
Y26690399D02*
D03*
X19222301Y30190399D02*
D03*
Y29940399D02*
D03*
Y29690399D02*
D03*
Y29440399D02*
D03*
Y29190399D02*
D03*
Y28940399D02*
D03*
Y28690399D02*
D03*
Y28440399D02*
D03*
Y28190399D02*
D03*
Y27940399D02*
D03*
Y27690399D02*
D03*
Y27440399D02*
D03*
Y27190399D02*
D03*
Y26690399D02*
D03*
X18972301Y30190399D02*
D03*
Y29940399D02*
D03*
Y29690399D02*
D03*
Y29440399D02*
D03*
Y28690399D02*
D03*
Y28440399D02*
D03*
Y26690399D02*
D03*
X18722301Y29940399D02*
D03*
Y29690399D02*
D03*
Y29440399D02*
D03*
Y28690399D02*
D03*
Y28440399D02*
D03*
Y27690399D02*
D03*
Y27440399D02*
D03*
Y27190399D02*
D03*
Y26690399D02*
D03*
X18472301Y29940399D02*
D03*
Y29690399D02*
D03*
Y29440399D02*
D03*
Y29190399D02*
D03*
Y28940399D02*
D03*
Y28690399D02*
D03*
Y28440399D02*
D03*
Y28190399D02*
D03*
Y27940399D02*
D03*
Y27690399D02*
D03*
Y27440399D02*
D03*
Y27190399D02*
D03*
Y26690399D02*
D03*
X18222301Y28940399D02*
D03*
Y28440399D02*
D03*
Y27940399D02*
D03*
Y27690399D02*
D03*
Y27440399D02*
D03*
Y27190399D02*
D03*
Y26690399D02*
D03*
X17972301Y27690399D02*
D03*
Y27190399D02*
D03*
Y26940399D02*
D03*
Y26690399D02*
D03*
X17722301Y29690399D02*
D03*
Y27940399D02*
D03*
Y27690399D02*
D03*
Y26940399D02*
D03*
Y26690399D02*
D03*
X17472301Y30190399D02*
D03*
Y28690399D02*
D03*
Y28440399D02*
D03*
Y27940399D02*
D03*
Y27690399D02*
D03*
Y26940399D02*
D03*
X17222301Y30190399D02*
D03*
Y29940399D02*
D03*
Y28690399D02*
D03*
Y28440399D02*
D03*
Y27940399D02*
D03*
Y27690399D02*
D03*
Y27190399D02*
D03*
X16972301Y30190399D02*
D03*
Y29940399D02*
D03*
Y28940399D02*
D03*
Y28690399D02*
D03*
Y28440399D02*
D03*
Y27690399D02*
D03*
Y27190399D02*
D03*
X16722301Y30190399D02*
D03*
Y28940399D02*
D03*
Y28690399D02*
D03*
Y28440399D02*
D03*
Y27440399D02*
D03*
Y27190399D02*
D03*
X16472301Y30190399D02*
D03*
Y29940399D02*
D03*
Y28940399D02*
D03*
Y28690399D02*
D03*
Y28440399D02*
D03*
Y27690399D02*
D03*
Y27440399D02*
D03*
Y27190399D02*
D03*
Y26940399D02*
D03*
X16222301Y30190399D02*
D03*
Y29940399D02*
D03*
Y28940399D02*
D03*
Y28690399D02*
D03*
Y28440399D02*
D03*
Y27690399D02*
D03*
Y27440399D02*
D03*
Y27190399D02*
D03*
Y26940399D02*
D03*
Y26690399D02*
D03*
X15972301Y29940399D02*
D03*
Y29190399D02*
D03*
Y28940399D02*
D03*
Y28690399D02*
D03*
Y28190399D02*
D03*
Y27940399D02*
D03*
Y27690399D02*
D03*
Y27440399D02*
D03*
Y27190399D02*
D03*
Y26940399D02*
D03*
Y26690399D02*
D03*
X15722301Y28940399D02*
D03*
Y28690399D02*
D03*
Y28190399D02*
D03*
Y27940399D02*
D03*
Y27690399D02*
D03*
Y27440399D02*
D03*
Y27190399D02*
D03*
Y26940399D02*
D03*
Y26690399D02*
D03*
X15472301Y29940399D02*
D03*
Y29690399D02*
D03*
Y29440399D02*
D03*
Y29190399D02*
D03*
Y28940399D02*
D03*
Y28690399D02*
D03*
Y28440399D02*
D03*
Y27690399D02*
D03*
Y27440399D02*
D03*
Y27190399D02*
D03*
Y26940399D02*
D03*
Y26690399D02*
D03*
X15222301Y30190399D02*
D03*
Y29940399D02*
D03*
Y29690399D02*
D03*
Y29440399D02*
D03*
Y29190399D02*
D03*
Y28940399D02*
D03*
Y28690399D02*
D03*
Y28440399D02*
D03*
Y27690399D02*
D03*
Y27440399D02*
D03*
Y27190399D02*
D03*
Y26940399D02*
D03*
Y26690399D02*
D03*
X14972301Y30190399D02*
D03*
Y29940399D02*
D03*
Y29690399D02*
D03*
Y29440399D02*
D03*
Y29190399D02*
D03*
Y28940399D02*
D03*
Y28440399D02*
D03*
Y27190399D02*
D03*
Y26940399D02*
D03*
Y26690399D02*
D03*
X14722301Y30190399D02*
D03*
Y29940399D02*
D03*
Y29690399D02*
D03*
Y29440399D02*
D03*
Y29190399D02*
D03*
Y28940399D02*
D03*
Y27690399D02*
D03*
Y26940399D02*
D03*
Y26690399D02*
D03*
X14472301Y30190399D02*
D03*
Y29940399D02*
D03*
Y29690399D02*
D03*
Y29440399D02*
D03*
Y29190399D02*
D03*
Y28940399D02*
D03*
Y28440399D02*
D03*
Y28190399D02*
D03*
Y27940399D02*
D03*
Y27690399D02*
D03*
Y27190399D02*
D03*
Y26940399D02*
D03*
Y26690399D02*
D03*
X15397099Y28035001D02*
D03*
X16915309Y27413535D02*
D03*
X17013597Y27511823D02*
D03*
X14698599Y28172101D02*
D03*
X15232001D02*
D03*
X14698599Y27971500D02*
D03*
X15155800D02*
D03*
%TF.MD5,95ef12181ac44e0fb5beefe02b978521*%
M02*
