%TF.GenerationSoftware,Altium Limited,Altium Designer,23.9.2 (47)*%
G04 Layer_Color=128*
%FSLAX45Y45*%
%MOMM*%
%TF.SameCoordinates,AD479AB8-1AF9-481E-9C01-A3E3F564F201*%
%TF.FilePolarity,Positive*%
%TF.FileFunction,Paste,Bot*%
%TF.Part,CustomerPanel*%
G01*
G75*
%TA.AperFunction,SMDPad,CuDef*%
%ADD10C,3.00000*%
%ADD11R,6.00000X1.00000*%
%ADD16R,1.50000X1.40000*%
D10*
X20948286Y30797501D02*
D03*
Y7696200D02*
D03*
X7213600D02*
D03*
D11*
X13271500Y10160000D02*
D03*
Y9906000D02*
D03*
Y9652000D02*
D03*
Y9398000D02*
D03*
Y9144000D02*
D03*
Y8890000D02*
D03*
Y11176000D02*
D03*
Y10922000D02*
D03*
Y10668000D02*
D03*
Y10414000D02*
D03*
X19842101Y10160000D02*
D03*
Y9906000D02*
D03*
Y9652000D02*
D03*
Y9398000D02*
D03*
Y9144000D02*
D03*
Y8890000D02*
D03*
Y11176000D02*
D03*
Y10922000D02*
D03*
Y10668000D02*
D03*
Y10414000D02*
D03*
X13271500Y14660500D02*
D03*
Y14406500D02*
D03*
Y14152499D02*
D03*
Y13898500D02*
D03*
Y13644501D02*
D03*
Y13390500D02*
D03*
Y15676500D02*
D03*
Y15422501D02*
D03*
Y15168500D02*
D03*
Y14914500D02*
D03*
X19842101Y14660500D02*
D03*
Y14406500D02*
D03*
Y14152499D02*
D03*
Y13898500D02*
D03*
Y13644501D02*
D03*
Y13390500D02*
D03*
Y15676500D02*
D03*
Y15422501D02*
D03*
Y15168500D02*
D03*
Y14914500D02*
D03*
X13271500Y19161000D02*
D03*
Y18907001D02*
D03*
Y18653000D02*
D03*
Y18399001D02*
D03*
Y18145000D02*
D03*
Y17891000D02*
D03*
Y20177000D02*
D03*
Y19923000D02*
D03*
Y19669000D02*
D03*
Y19414999D02*
D03*
X19842101Y19161000D02*
D03*
Y18907001D02*
D03*
Y18653000D02*
D03*
Y18399001D02*
D03*
Y18145000D02*
D03*
Y17891000D02*
D03*
Y20177000D02*
D03*
Y19923000D02*
D03*
Y19669000D02*
D03*
Y19414999D02*
D03*
X13271500Y23661501D02*
D03*
Y23407500D02*
D03*
Y23153500D02*
D03*
Y22899500D02*
D03*
Y22645500D02*
D03*
Y22391499D02*
D03*
Y24677499D02*
D03*
Y24423500D02*
D03*
Y24169501D02*
D03*
Y23915500D02*
D03*
X19842101Y23661501D02*
D03*
Y23407500D02*
D03*
Y23153500D02*
D03*
Y22899500D02*
D03*
Y22645500D02*
D03*
Y22391499D02*
D03*
Y24677499D02*
D03*
Y24423500D02*
D03*
Y24169501D02*
D03*
Y23915500D02*
D03*
X13271500Y28162000D02*
D03*
Y27907999D02*
D03*
Y27654001D02*
D03*
Y27400000D02*
D03*
Y27145999D02*
D03*
Y26892001D02*
D03*
Y29178000D02*
D03*
Y28923999D02*
D03*
Y28670001D02*
D03*
Y28416000D02*
D03*
X19842101Y28162000D02*
D03*
Y27907999D02*
D03*
Y27654001D02*
D03*
Y27400000D02*
D03*
Y27145999D02*
D03*
Y26892001D02*
D03*
Y29178000D02*
D03*
Y28923999D02*
D03*
Y28670001D02*
D03*
Y28416000D02*
D03*
D16*
X12446000Y9637700D02*
D03*
Y9437700D02*
D03*
X19016600Y9637700D02*
D03*
Y9437700D02*
D03*
X12446000Y14138200D02*
D03*
Y13938200D02*
D03*
X19016600Y14138200D02*
D03*
Y13938200D02*
D03*
X12446000Y18638699D02*
D03*
Y18438699D02*
D03*
X19016600Y18638699D02*
D03*
Y18438699D02*
D03*
X12446000Y23139200D02*
D03*
Y22939200D02*
D03*
X19016600Y23139200D02*
D03*
Y22939200D02*
D03*
X12446000Y27639700D02*
D03*
Y27439700D02*
D03*
X19016600Y27639700D02*
D03*
Y27439700D02*
D03*
%TF.MD5,d989e8301b6930197ab4b3c4c5877253*%
M02*
