%TF.GenerationSoftware,Altium Limited,Altium Designer,23.9.2 (47)*%
G04 Layer_Color=128*
%FSLAX45Y45*%
%MOMM*%
%TF.SameCoordinates,AD479AB8-1AF9-481E-9C01-A3E3F564F201*%
%TF.FilePolarity,Negative*%
%TF.FileFunction,Copper,Plane*%
%TF.Part,CustomerPanel*%
G01*
G75*
%TA.AperFunction,NonConductor*%
%ADD29C,1.00000*%
%TA.AperFunction,ComponentPad*%
%ADD30C,2.76600*%
%ADD31C,1.91600*%
%TA.AperFunction,ViaPad*%
%ADD32C,1.26600*%
%TA.AperFunction,NonConductor*%
%ADD33C,0.75000*%
D29*
X10896600Y8534400D02*
G03*
X9896600Y8534400I-500000J0D01*
G01*
X7632700Y8559800D02*
X7658100Y8534400D01*
X7632700Y8559800D02*
Y12534900D01*
X13004800D01*
Y11353800D02*
Y12534900D01*
Y11353800D02*
X13589000D01*
X13703300Y11239500D01*
Y8826500D02*
Y11239500D01*
X13582651Y8705850D02*
X13703300Y8826500D01*
X13011150Y8705850D02*
X13582651D01*
X13004800Y8699500D02*
X13011150Y8705850D01*
X13004800Y8559800D02*
Y8699500D01*
X12979401Y8534400D02*
X13004800Y8559800D01*
X10896600Y8534400D02*
X12979401D01*
X7658100D02*
X9896600D01*
X17467200D02*
G03*
X16467200Y8534400I-500000J0D01*
G01*
X14203300Y8559800D02*
X14228700Y8534400D01*
X14203300Y8559800D02*
Y12534900D01*
X19575400D01*
Y11353800D02*
Y12534900D01*
Y11353800D02*
X20159599D01*
X20273900Y11239500D01*
Y8826500D02*
Y11239500D01*
X20153250Y8705850D02*
X20273900Y8826500D01*
X19581750Y8705850D02*
X20153250D01*
X19575400Y8699500D02*
X19581750Y8705850D01*
X19575400Y8559800D02*
Y8699500D01*
X19550000Y8534400D02*
X19575400Y8559800D01*
X17467200Y8534400D02*
X19550000D01*
X14228700D02*
X16467200D01*
X10896600Y13034900D02*
G03*
X9896600Y13034900I-500000J0D01*
G01*
X7632700Y13060300D02*
X7658100Y13034900D01*
X7632700Y13060300D02*
Y17035400D01*
X13004800D01*
Y15854300D02*
Y17035400D01*
Y15854300D02*
X13589000D01*
X13703300Y15739999D01*
Y13327000D02*
Y15739999D01*
X13582651Y13206351D02*
X13703300Y13327000D01*
X13011150Y13206351D02*
X13582651D01*
X13004800Y13200000D02*
X13011150Y13206351D01*
X13004800Y13060300D02*
Y13200000D01*
X12979401Y13034900D02*
X13004800Y13060300D01*
X10896600Y13034900D02*
X12979401D01*
X7658100D02*
X9896600D01*
X17467200D02*
G03*
X16467200Y13034900I-500000J0D01*
G01*
X14203300Y13060300D02*
X14228700Y13034900D01*
X14203300Y13060300D02*
Y17035400D01*
X19575400D01*
Y15854300D02*
Y17035400D01*
Y15854300D02*
X20159599D01*
X20273900Y15739999D01*
Y13327000D02*
Y15739999D01*
X20153250Y13206351D02*
X20273900Y13327000D01*
X19581750Y13206351D02*
X20153250D01*
X19575400Y13200000D02*
X19581750Y13206351D01*
X19575400Y13060300D02*
Y13200000D01*
X19550000Y13034900D02*
X19575400Y13060300D01*
X17467200Y13034900D02*
X19550000D01*
X14228700D02*
X16467200D01*
X10896600Y17535400D02*
G03*
X9896600Y17535400I-500000J0D01*
G01*
X7632700Y17560800D02*
X7658100Y17535400D01*
X7632700Y17560800D02*
Y21535899D01*
X13004800D01*
Y20354800D02*
Y21535899D01*
Y20354800D02*
X13589000D01*
X13703300Y20240500D01*
Y17827499D02*
Y20240500D01*
X13582651Y17706850D02*
X13703300Y17827499D01*
X13011150Y17706850D02*
X13582651D01*
X13004800Y17700500D02*
X13011150Y17706850D01*
X13004800Y17560800D02*
Y17700500D01*
X12979401Y17535400D02*
X13004800Y17560800D01*
X10896600Y17535400D02*
X12979401D01*
X7658100D02*
X9896600D01*
X17467200D02*
G03*
X16467200Y17535400I-500000J0D01*
G01*
X14203300Y17560800D02*
X14228700Y17535400D01*
X14203300Y17560800D02*
Y21535899D01*
X19575400D01*
Y20354800D02*
Y21535899D01*
Y20354800D02*
X20159599D01*
X20273900Y20240500D01*
Y17827499D02*
Y20240500D01*
X20153250Y17706850D02*
X20273900Y17827499D01*
X19581750Y17706850D02*
X20153250D01*
X19575400Y17700500D02*
X19581750Y17706850D01*
X19575400Y17560800D02*
Y17700500D01*
X19550000Y17535400D02*
X19575400Y17560800D01*
X17467200Y17535400D02*
X19550000D01*
X14228700D02*
X16467200D01*
X10896600Y22035899D02*
G03*
X9896600Y22035899I-500000J0D01*
G01*
X7632700Y22061301D02*
X7658100Y22035899D01*
X7632700Y22061301D02*
Y26036401D01*
X13004800D01*
Y24855299D02*
Y26036401D01*
Y24855299D02*
X13589000D01*
X13703300Y24741000D01*
Y22328000D02*
Y24741000D01*
X13582651Y22207350D02*
X13703300Y22328000D01*
X13011150Y22207350D02*
X13582651D01*
X13004800Y22200999D02*
X13011150Y22207350D01*
X13004800Y22061301D02*
Y22200999D01*
X12979401Y22035899D02*
X13004800Y22061301D01*
X10896600Y22035899D02*
X12979401D01*
X7658100D02*
X9896600D01*
X17467200D02*
G03*
X16467200Y22035899I-500000J0D01*
G01*
X14203300Y22061301D02*
X14228700Y22035899D01*
X14203300Y22061301D02*
Y26036401D01*
X19575400D01*
Y24855299D02*
Y26036401D01*
Y24855299D02*
X20159599D01*
X20273900Y24741000D01*
Y22328000D02*
Y24741000D01*
X20153250Y22207350D02*
X20273900Y22328000D01*
X19581750Y22207350D02*
X20153250D01*
X19575400Y22200999D02*
X19581750Y22207350D01*
X19575400Y22061301D02*
Y22200999D01*
X19550000Y22035899D02*
X19575400Y22061301D01*
X17467200Y22035899D02*
X19550000D01*
X14228700D02*
X16467200D01*
X10896600Y26536401D02*
G03*
X9896600Y26536401I-500000J0D01*
G01*
X7632700Y26561801D02*
X7658100Y26536401D01*
X7632700Y26561801D02*
Y30536899D01*
X13004800D01*
Y29355801D02*
Y30536899D01*
Y29355801D02*
X13589000D01*
X13703300Y29241501D01*
Y26828500D02*
Y29241501D01*
X13582651Y26707849D02*
X13703300Y26828500D01*
X13011150Y26707849D02*
X13582651D01*
X13004800Y26701501D02*
X13011150Y26707849D01*
X13004800Y26561801D02*
Y26701501D01*
X12979401Y26536401D02*
X13004800Y26561801D01*
X10896600Y26536401D02*
X12979401D01*
X7658100D02*
X9896600D01*
X17467200D02*
G03*
X16467200Y26536401I-500000J0D01*
G01*
X14203300Y26561801D02*
X14228700Y26536401D01*
X14203300Y26561801D02*
Y30536899D01*
X19575400D01*
Y29355801D02*
Y30536899D01*
Y29355801D02*
X20159599D01*
X20273900Y29241501D01*
Y26828500D02*
Y29241501D01*
X20153250Y26707849D02*
X20273900Y26828500D01*
X19581750Y26707849D02*
X20153250D01*
X19575400Y26701501D02*
X19581750Y26707849D01*
X19575400Y26561801D02*
Y26701501D01*
X19550000Y26536401D02*
X19575400Y26561801D01*
X17467200Y26536401D02*
X19550000D01*
X14228700D02*
X16467200D01*
D30*
X8080400Y9434145D02*
D03*
Y10523846D02*
D03*
X14650999Y9434145D02*
D03*
Y10523846D02*
D03*
X8080400Y13934645D02*
D03*
Y15024345D02*
D03*
X14650999Y13934645D02*
D03*
Y15024345D02*
D03*
X8080400Y18435146D02*
D03*
Y19524846D02*
D03*
X14650999Y18435146D02*
D03*
Y19524846D02*
D03*
X8080400Y22935646D02*
D03*
Y24025346D02*
D03*
X14650999Y22935646D02*
D03*
Y24025346D02*
D03*
X8080400Y27436145D02*
D03*
Y28525845D02*
D03*
X14650999Y27436145D02*
D03*
Y28525845D02*
D03*
D31*
X11531600Y12293600D02*
D03*
X9028100D02*
D03*
X18102200D02*
D03*
X15598700D02*
D03*
X11531600Y16794099D02*
D03*
X9028100D02*
D03*
X18102200D02*
D03*
X15598700D02*
D03*
X11531600Y21294600D02*
D03*
X9028100D02*
D03*
X18102200D02*
D03*
X15598700D02*
D03*
X11531600Y25795099D02*
D03*
X9028100D02*
D03*
X18102200D02*
D03*
X15598700D02*
D03*
X11531600Y30295599D02*
D03*
X9028100D02*
D03*
X18102200D02*
D03*
X15598700D02*
D03*
D32*
X12901700Y12188400D02*
D03*
Y11438400D02*
D03*
Y11188400D02*
D03*
Y10938400D02*
D03*
Y10688400D02*
D03*
Y10438400D02*
D03*
Y10188400D02*
D03*
Y9938400D02*
D03*
Y9688400D02*
D03*
Y9438400D02*
D03*
Y9188400D02*
D03*
Y8938400D02*
D03*
Y8688400D02*
D03*
X12651700Y12188400D02*
D03*
Y11938400D02*
D03*
Y11688400D02*
D03*
Y11438400D02*
D03*
Y11188400D02*
D03*
Y10938400D02*
D03*
Y10688400D02*
D03*
Y10438400D02*
D03*
Y10188400D02*
D03*
Y9938400D02*
D03*
Y9688400D02*
D03*
Y9438400D02*
D03*
Y9188400D02*
D03*
Y8688400D02*
D03*
X12401700Y12188400D02*
D03*
Y11938400D02*
D03*
Y11688400D02*
D03*
Y11438400D02*
D03*
Y10688400D02*
D03*
Y10438400D02*
D03*
Y8688400D02*
D03*
X12151700Y11938400D02*
D03*
Y11688400D02*
D03*
Y11438400D02*
D03*
Y10688400D02*
D03*
Y10438400D02*
D03*
Y9688400D02*
D03*
Y9438400D02*
D03*
Y9188400D02*
D03*
Y8688400D02*
D03*
X11901700Y11938400D02*
D03*
Y11688400D02*
D03*
Y11438400D02*
D03*
Y11188400D02*
D03*
Y10938400D02*
D03*
Y10688400D02*
D03*
Y10438400D02*
D03*
Y10188400D02*
D03*
Y9938400D02*
D03*
Y9688400D02*
D03*
Y9438400D02*
D03*
Y9188400D02*
D03*
Y8688400D02*
D03*
X11651700Y10938400D02*
D03*
Y10438400D02*
D03*
Y9938400D02*
D03*
Y9688400D02*
D03*
Y9438400D02*
D03*
Y9188400D02*
D03*
Y8688400D02*
D03*
X11401700Y9688400D02*
D03*
Y9188400D02*
D03*
Y8938400D02*
D03*
Y8688400D02*
D03*
X11151700Y11688400D02*
D03*
Y9938400D02*
D03*
Y9688400D02*
D03*
Y8938400D02*
D03*
Y8688400D02*
D03*
X10901700Y12188400D02*
D03*
Y10688400D02*
D03*
Y10438400D02*
D03*
Y9938400D02*
D03*
Y9688400D02*
D03*
Y8938400D02*
D03*
X10651700Y12188400D02*
D03*
Y11938400D02*
D03*
Y10688400D02*
D03*
Y10438400D02*
D03*
Y9938400D02*
D03*
Y9688400D02*
D03*
Y9188400D02*
D03*
X10401700Y12188400D02*
D03*
Y11938400D02*
D03*
Y10938400D02*
D03*
Y10688400D02*
D03*
Y10438400D02*
D03*
Y9688400D02*
D03*
Y9188400D02*
D03*
X10151700Y12188400D02*
D03*
Y10938400D02*
D03*
Y10688400D02*
D03*
Y10438400D02*
D03*
Y9438400D02*
D03*
Y9188400D02*
D03*
X9901700Y12188400D02*
D03*
Y11938400D02*
D03*
Y10938400D02*
D03*
Y10688400D02*
D03*
Y10438400D02*
D03*
Y9688400D02*
D03*
Y9438400D02*
D03*
Y9188400D02*
D03*
Y8938400D02*
D03*
X9651700Y12188400D02*
D03*
Y11938400D02*
D03*
Y10938400D02*
D03*
Y10688400D02*
D03*
Y10438400D02*
D03*
Y9688400D02*
D03*
Y9438400D02*
D03*
Y9188400D02*
D03*
Y8938400D02*
D03*
Y8688400D02*
D03*
X9401700Y11938400D02*
D03*
Y11188400D02*
D03*
Y10938400D02*
D03*
Y10688400D02*
D03*
Y10188400D02*
D03*
Y9938400D02*
D03*
Y9688400D02*
D03*
Y9438400D02*
D03*
Y9188400D02*
D03*
Y8938400D02*
D03*
Y8688400D02*
D03*
X9151700Y10938400D02*
D03*
Y10688400D02*
D03*
Y10188400D02*
D03*
Y9938400D02*
D03*
Y9688400D02*
D03*
Y9438400D02*
D03*
Y9188400D02*
D03*
Y8938400D02*
D03*
Y8688400D02*
D03*
X8901700Y11938400D02*
D03*
Y11688400D02*
D03*
Y11438400D02*
D03*
Y11188400D02*
D03*
Y10938400D02*
D03*
Y10688400D02*
D03*
Y10438400D02*
D03*
Y9688400D02*
D03*
Y9438400D02*
D03*
Y9188400D02*
D03*
Y8938400D02*
D03*
Y8688400D02*
D03*
X8651700Y12188400D02*
D03*
Y11938400D02*
D03*
Y11688400D02*
D03*
Y11438400D02*
D03*
Y11188400D02*
D03*
Y10938400D02*
D03*
Y10688400D02*
D03*
Y10438400D02*
D03*
Y9688400D02*
D03*
Y9438400D02*
D03*
Y9188400D02*
D03*
Y8938400D02*
D03*
Y8688400D02*
D03*
X8401700Y12188400D02*
D03*
Y11938400D02*
D03*
Y11688400D02*
D03*
Y11438400D02*
D03*
Y11188400D02*
D03*
Y10938400D02*
D03*
Y10438400D02*
D03*
Y9188400D02*
D03*
Y8938400D02*
D03*
Y8688400D02*
D03*
X8151700Y12188400D02*
D03*
Y11938400D02*
D03*
Y11688400D02*
D03*
Y11438400D02*
D03*
Y11188400D02*
D03*
Y10938400D02*
D03*
Y9688400D02*
D03*
Y8938400D02*
D03*
Y8688400D02*
D03*
X7901700Y12188400D02*
D03*
Y11938400D02*
D03*
Y11688400D02*
D03*
Y11438400D02*
D03*
Y11188400D02*
D03*
Y10938400D02*
D03*
Y10438400D02*
D03*
Y10188400D02*
D03*
Y9938400D02*
D03*
Y9688400D02*
D03*
Y9188400D02*
D03*
Y8938400D02*
D03*
Y8688400D02*
D03*
X10344709Y9411536D02*
D03*
X10442997Y9509824D02*
D03*
X8128000Y10170100D02*
D03*
X8661400D02*
D03*
X8128000Y9969500D02*
D03*
X8585200D02*
D03*
X19472301Y12188400D02*
D03*
Y11438400D02*
D03*
Y11188400D02*
D03*
Y10938400D02*
D03*
Y10688400D02*
D03*
Y10438400D02*
D03*
Y10188400D02*
D03*
Y9938400D02*
D03*
Y9688400D02*
D03*
Y9438400D02*
D03*
Y9188400D02*
D03*
Y8938400D02*
D03*
Y8688400D02*
D03*
X19222301Y12188400D02*
D03*
Y11938400D02*
D03*
Y11688400D02*
D03*
Y11438400D02*
D03*
Y11188400D02*
D03*
Y10938400D02*
D03*
Y10688400D02*
D03*
Y10438400D02*
D03*
Y10188400D02*
D03*
Y9938400D02*
D03*
Y9688400D02*
D03*
Y9438400D02*
D03*
Y9188400D02*
D03*
Y8688400D02*
D03*
X18972301Y12188400D02*
D03*
Y11938400D02*
D03*
Y11688400D02*
D03*
Y11438400D02*
D03*
Y10688400D02*
D03*
Y10438400D02*
D03*
Y8688400D02*
D03*
X18722301Y11938400D02*
D03*
Y11688400D02*
D03*
Y11438400D02*
D03*
Y10688400D02*
D03*
Y10438400D02*
D03*
Y9688400D02*
D03*
Y9438400D02*
D03*
Y9188400D02*
D03*
Y8688400D02*
D03*
X18472301Y11938400D02*
D03*
Y11688400D02*
D03*
Y11438400D02*
D03*
Y11188400D02*
D03*
Y10938400D02*
D03*
Y10688400D02*
D03*
Y10438400D02*
D03*
Y10188400D02*
D03*
Y9938400D02*
D03*
Y9688400D02*
D03*
Y9438400D02*
D03*
Y9188400D02*
D03*
Y8688400D02*
D03*
X18222301Y10938400D02*
D03*
Y10438400D02*
D03*
Y9938400D02*
D03*
Y9688400D02*
D03*
Y9438400D02*
D03*
Y9188400D02*
D03*
Y8688400D02*
D03*
X17972301Y9688400D02*
D03*
Y9188400D02*
D03*
Y8938400D02*
D03*
Y8688400D02*
D03*
X17722301Y11688400D02*
D03*
Y9938400D02*
D03*
Y9688400D02*
D03*
Y8938400D02*
D03*
Y8688400D02*
D03*
X17472301Y12188400D02*
D03*
Y10688400D02*
D03*
Y10438400D02*
D03*
Y9938400D02*
D03*
Y9688400D02*
D03*
Y8938400D02*
D03*
X17222301Y12188400D02*
D03*
Y11938400D02*
D03*
Y10688400D02*
D03*
Y10438400D02*
D03*
Y9938400D02*
D03*
Y9688400D02*
D03*
Y9188400D02*
D03*
X16972301Y12188400D02*
D03*
Y11938400D02*
D03*
Y10938400D02*
D03*
Y10688400D02*
D03*
Y10438400D02*
D03*
Y9688400D02*
D03*
Y9188400D02*
D03*
X16722301Y12188400D02*
D03*
Y10938400D02*
D03*
Y10688400D02*
D03*
Y10438400D02*
D03*
Y9438400D02*
D03*
Y9188400D02*
D03*
X16472301Y12188400D02*
D03*
Y11938400D02*
D03*
Y10938400D02*
D03*
Y10688400D02*
D03*
Y10438400D02*
D03*
Y9688400D02*
D03*
Y9438400D02*
D03*
Y9188400D02*
D03*
Y8938400D02*
D03*
X16222301Y12188400D02*
D03*
Y11938400D02*
D03*
Y10938400D02*
D03*
Y10688400D02*
D03*
Y10438400D02*
D03*
Y9688400D02*
D03*
Y9438400D02*
D03*
Y9188400D02*
D03*
Y8938400D02*
D03*
Y8688400D02*
D03*
X15972301Y11938400D02*
D03*
Y11188400D02*
D03*
Y10938400D02*
D03*
Y10688400D02*
D03*
Y10188400D02*
D03*
Y9938400D02*
D03*
Y9688400D02*
D03*
Y9438400D02*
D03*
Y9188400D02*
D03*
Y8938400D02*
D03*
Y8688400D02*
D03*
X15722301Y10938400D02*
D03*
Y10688400D02*
D03*
Y10188400D02*
D03*
Y9938400D02*
D03*
Y9688400D02*
D03*
Y9438400D02*
D03*
Y9188400D02*
D03*
Y8938400D02*
D03*
Y8688400D02*
D03*
X15472301Y11938400D02*
D03*
Y11688400D02*
D03*
Y11438400D02*
D03*
Y11188400D02*
D03*
Y10938400D02*
D03*
Y10688400D02*
D03*
Y10438400D02*
D03*
Y9688400D02*
D03*
Y9438400D02*
D03*
Y9188400D02*
D03*
Y8938400D02*
D03*
Y8688400D02*
D03*
X15222301Y12188400D02*
D03*
Y11938400D02*
D03*
Y11688400D02*
D03*
Y11438400D02*
D03*
Y11188400D02*
D03*
Y10938400D02*
D03*
Y10688400D02*
D03*
Y10438400D02*
D03*
Y9688400D02*
D03*
Y9438400D02*
D03*
Y9188400D02*
D03*
Y8938400D02*
D03*
Y8688400D02*
D03*
X14972301Y12188400D02*
D03*
Y11938400D02*
D03*
Y11688400D02*
D03*
Y11438400D02*
D03*
Y11188400D02*
D03*
Y10938400D02*
D03*
Y10438400D02*
D03*
Y9188400D02*
D03*
Y8938400D02*
D03*
Y8688400D02*
D03*
X14722301Y12188400D02*
D03*
Y11938400D02*
D03*
Y11688400D02*
D03*
Y11438400D02*
D03*
Y11188400D02*
D03*
Y10938400D02*
D03*
Y9688400D02*
D03*
Y8938400D02*
D03*
Y8688400D02*
D03*
X14472301Y12188400D02*
D03*
Y11938400D02*
D03*
Y11688400D02*
D03*
Y11438400D02*
D03*
Y11188400D02*
D03*
Y10938400D02*
D03*
Y10438400D02*
D03*
Y10188400D02*
D03*
Y9938400D02*
D03*
Y9688400D02*
D03*
Y9188400D02*
D03*
Y8938400D02*
D03*
Y8688400D02*
D03*
X16915309Y9411536D02*
D03*
X17013597Y9509824D02*
D03*
X14698599Y10170100D02*
D03*
X15232001D02*
D03*
X14698599Y9969500D02*
D03*
X15155800D02*
D03*
X12901700Y16688901D02*
D03*
Y15938901D02*
D03*
Y15688901D02*
D03*
Y15438901D02*
D03*
Y15188901D02*
D03*
Y14938901D02*
D03*
Y14688901D02*
D03*
Y14438901D02*
D03*
Y14188901D02*
D03*
Y13938901D02*
D03*
Y13688901D02*
D03*
Y13438901D02*
D03*
Y13188901D02*
D03*
X12651700Y16688901D02*
D03*
Y16438901D02*
D03*
Y16188901D02*
D03*
Y15938901D02*
D03*
Y15688901D02*
D03*
Y15438901D02*
D03*
Y15188901D02*
D03*
Y14938901D02*
D03*
Y14688901D02*
D03*
Y14438901D02*
D03*
Y14188901D02*
D03*
Y13938901D02*
D03*
Y13688901D02*
D03*
Y13188901D02*
D03*
X12401700Y16688901D02*
D03*
Y16438901D02*
D03*
Y16188901D02*
D03*
Y15938901D02*
D03*
Y15188901D02*
D03*
Y14938901D02*
D03*
Y13188901D02*
D03*
X12151700Y16438901D02*
D03*
Y16188901D02*
D03*
Y15938901D02*
D03*
Y15188901D02*
D03*
Y14938901D02*
D03*
Y14188901D02*
D03*
Y13938901D02*
D03*
Y13688901D02*
D03*
Y13188901D02*
D03*
X11901700Y16438901D02*
D03*
Y16188901D02*
D03*
Y15938901D02*
D03*
Y15688901D02*
D03*
Y15438901D02*
D03*
Y15188901D02*
D03*
Y14938901D02*
D03*
Y14688901D02*
D03*
Y14438901D02*
D03*
Y14188901D02*
D03*
Y13938901D02*
D03*
Y13688901D02*
D03*
Y13188901D02*
D03*
X11651700Y15438901D02*
D03*
Y14938901D02*
D03*
Y14438901D02*
D03*
Y14188901D02*
D03*
Y13938901D02*
D03*
Y13688901D02*
D03*
Y13188901D02*
D03*
X11401700Y14188901D02*
D03*
Y13688901D02*
D03*
Y13438901D02*
D03*
Y13188901D02*
D03*
X11151700Y16188901D02*
D03*
Y14438901D02*
D03*
Y14188901D02*
D03*
Y13438901D02*
D03*
Y13188901D02*
D03*
X10901700Y16688901D02*
D03*
Y15188901D02*
D03*
Y14938901D02*
D03*
Y14438901D02*
D03*
Y14188901D02*
D03*
Y13438901D02*
D03*
X10651700Y16688901D02*
D03*
Y16438901D02*
D03*
Y15188901D02*
D03*
Y14938901D02*
D03*
Y14438901D02*
D03*
Y14188901D02*
D03*
Y13688901D02*
D03*
X10401700Y16688901D02*
D03*
Y16438901D02*
D03*
Y15438901D02*
D03*
Y15188901D02*
D03*
Y14938901D02*
D03*
Y14188901D02*
D03*
Y13688901D02*
D03*
X10151700Y16688901D02*
D03*
Y15438901D02*
D03*
Y15188901D02*
D03*
Y14938901D02*
D03*
Y13938901D02*
D03*
Y13688901D02*
D03*
X9901700Y16688901D02*
D03*
Y16438901D02*
D03*
Y15438901D02*
D03*
Y15188901D02*
D03*
Y14938901D02*
D03*
Y14188901D02*
D03*
Y13938901D02*
D03*
Y13688901D02*
D03*
Y13438901D02*
D03*
X9651700Y16688901D02*
D03*
Y16438901D02*
D03*
Y15438901D02*
D03*
Y15188901D02*
D03*
Y14938901D02*
D03*
Y14188901D02*
D03*
Y13938901D02*
D03*
Y13688901D02*
D03*
Y13438901D02*
D03*
Y13188901D02*
D03*
X9401700Y16438901D02*
D03*
Y15688901D02*
D03*
Y15438901D02*
D03*
Y15188901D02*
D03*
Y14688901D02*
D03*
Y14438901D02*
D03*
Y14188901D02*
D03*
Y13938901D02*
D03*
Y13688901D02*
D03*
Y13438901D02*
D03*
Y13188901D02*
D03*
X9151700Y15438901D02*
D03*
Y15188901D02*
D03*
Y14688901D02*
D03*
Y14438901D02*
D03*
Y14188901D02*
D03*
Y13938901D02*
D03*
Y13688901D02*
D03*
Y13438901D02*
D03*
Y13188901D02*
D03*
X8901700Y16438901D02*
D03*
Y16188901D02*
D03*
Y15938901D02*
D03*
Y15688901D02*
D03*
Y15438901D02*
D03*
Y15188901D02*
D03*
Y14938901D02*
D03*
Y14188901D02*
D03*
Y13938901D02*
D03*
Y13688901D02*
D03*
Y13438901D02*
D03*
Y13188901D02*
D03*
X8651700Y16688901D02*
D03*
Y16438901D02*
D03*
Y16188901D02*
D03*
Y15938901D02*
D03*
Y15688901D02*
D03*
Y15438901D02*
D03*
Y15188901D02*
D03*
Y14938901D02*
D03*
Y14188901D02*
D03*
Y13938901D02*
D03*
Y13688901D02*
D03*
Y13438901D02*
D03*
Y13188901D02*
D03*
X8401700Y16688901D02*
D03*
Y16438901D02*
D03*
Y16188901D02*
D03*
Y15938901D02*
D03*
Y15688901D02*
D03*
Y15438901D02*
D03*
Y14938901D02*
D03*
Y13688901D02*
D03*
Y13438901D02*
D03*
Y13188901D02*
D03*
X8151700Y16688901D02*
D03*
Y16438901D02*
D03*
Y16188901D02*
D03*
Y15938901D02*
D03*
Y15688901D02*
D03*
Y15438901D02*
D03*
Y14188901D02*
D03*
Y13438901D02*
D03*
Y13188901D02*
D03*
X7901700Y16688901D02*
D03*
Y16438901D02*
D03*
Y16188901D02*
D03*
Y15938901D02*
D03*
Y15688901D02*
D03*
Y15438901D02*
D03*
Y14938901D02*
D03*
Y14688901D02*
D03*
Y14438901D02*
D03*
Y14188901D02*
D03*
Y13688901D02*
D03*
Y13438901D02*
D03*
Y13188901D02*
D03*
X10344709Y13912036D02*
D03*
X10442997Y14010324D02*
D03*
X8128000Y14670599D02*
D03*
X8661400D02*
D03*
X8128000Y14470000D02*
D03*
X8585200D02*
D03*
X19472301Y16688901D02*
D03*
Y15938901D02*
D03*
Y15688901D02*
D03*
Y15438901D02*
D03*
Y15188901D02*
D03*
Y14938901D02*
D03*
Y14688901D02*
D03*
Y14438901D02*
D03*
Y14188901D02*
D03*
Y13938901D02*
D03*
Y13688901D02*
D03*
Y13438901D02*
D03*
Y13188901D02*
D03*
X19222301Y16688901D02*
D03*
Y16438901D02*
D03*
Y16188901D02*
D03*
Y15938901D02*
D03*
Y15688901D02*
D03*
Y15438901D02*
D03*
Y15188901D02*
D03*
Y14938901D02*
D03*
Y14688901D02*
D03*
Y14438901D02*
D03*
Y14188901D02*
D03*
Y13938901D02*
D03*
Y13688901D02*
D03*
Y13188901D02*
D03*
X18972301Y16688901D02*
D03*
Y16438901D02*
D03*
Y16188901D02*
D03*
Y15938901D02*
D03*
Y15188901D02*
D03*
Y14938901D02*
D03*
Y13188901D02*
D03*
X18722301Y16438901D02*
D03*
Y16188901D02*
D03*
Y15938901D02*
D03*
Y15188901D02*
D03*
Y14938901D02*
D03*
Y14188901D02*
D03*
Y13938901D02*
D03*
Y13688901D02*
D03*
Y13188901D02*
D03*
X18472301Y16438901D02*
D03*
Y16188901D02*
D03*
Y15938901D02*
D03*
Y15688901D02*
D03*
Y15438901D02*
D03*
Y15188901D02*
D03*
Y14938901D02*
D03*
Y14688901D02*
D03*
Y14438901D02*
D03*
Y14188901D02*
D03*
Y13938901D02*
D03*
Y13688901D02*
D03*
Y13188901D02*
D03*
X18222301Y15438901D02*
D03*
Y14938901D02*
D03*
Y14438901D02*
D03*
Y14188901D02*
D03*
Y13938901D02*
D03*
Y13688901D02*
D03*
Y13188901D02*
D03*
X17972301Y14188901D02*
D03*
Y13688901D02*
D03*
Y13438901D02*
D03*
Y13188901D02*
D03*
X17722301Y16188901D02*
D03*
Y14438901D02*
D03*
Y14188901D02*
D03*
Y13438901D02*
D03*
Y13188901D02*
D03*
X17472301Y16688901D02*
D03*
Y15188901D02*
D03*
Y14938901D02*
D03*
Y14438901D02*
D03*
Y14188901D02*
D03*
Y13438901D02*
D03*
X17222301Y16688901D02*
D03*
Y16438901D02*
D03*
Y15188901D02*
D03*
Y14938901D02*
D03*
Y14438901D02*
D03*
Y14188901D02*
D03*
Y13688901D02*
D03*
X16972301Y16688901D02*
D03*
Y16438901D02*
D03*
Y15438901D02*
D03*
Y15188901D02*
D03*
Y14938901D02*
D03*
Y14188901D02*
D03*
Y13688901D02*
D03*
X16722301Y16688901D02*
D03*
Y15438901D02*
D03*
Y15188901D02*
D03*
Y14938901D02*
D03*
Y13938901D02*
D03*
Y13688901D02*
D03*
X16472301Y16688901D02*
D03*
Y16438901D02*
D03*
Y15438901D02*
D03*
Y15188901D02*
D03*
Y14938901D02*
D03*
Y14188901D02*
D03*
Y13938901D02*
D03*
Y13688901D02*
D03*
Y13438901D02*
D03*
X16222301Y16688901D02*
D03*
Y16438901D02*
D03*
Y15438901D02*
D03*
Y15188901D02*
D03*
Y14938901D02*
D03*
Y14188901D02*
D03*
Y13938901D02*
D03*
Y13688901D02*
D03*
Y13438901D02*
D03*
Y13188901D02*
D03*
X15972301Y16438901D02*
D03*
Y15688901D02*
D03*
Y15438901D02*
D03*
Y15188901D02*
D03*
Y14688901D02*
D03*
Y14438901D02*
D03*
Y14188901D02*
D03*
Y13938901D02*
D03*
Y13688901D02*
D03*
Y13438901D02*
D03*
Y13188901D02*
D03*
X15722301Y15438901D02*
D03*
Y15188901D02*
D03*
Y14688901D02*
D03*
Y14438901D02*
D03*
Y14188901D02*
D03*
Y13938901D02*
D03*
Y13688901D02*
D03*
Y13438901D02*
D03*
Y13188901D02*
D03*
X15472301Y16438901D02*
D03*
Y16188901D02*
D03*
Y15938901D02*
D03*
Y15688901D02*
D03*
Y15438901D02*
D03*
Y15188901D02*
D03*
Y14938901D02*
D03*
Y14188901D02*
D03*
Y13938901D02*
D03*
Y13688901D02*
D03*
Y13438901D02*
D03*
Y13188901D02*
D03*
X15222301Y16688901D02*
D03*
Y16438901D02*
D03*
Y16188901D02*
D03*
Y15938901D02*
D03*
Y15688901D02*
D03*
Y15438901D02*
D03*
Y15188901D02*
D03*
Y14938901D02*
D03*
Y14188901D02*
D03*
Y13938901D02*
D03*
Y13688901D02*
D03*
Y13438901D02*
D03*
Y13188901D02*
D03*
X14972301Y16688901D02*
D03*
Y16438901D02*
D03*
Y16188901D02*
D03*
Y15938901D02*
D03*
Y15688901D02*
D03*
Y15438901D02*
D03*
Y14938901D02*
D03*
Y13688901D02*
D03*
Y13438901D02*
D03*
Y13188901D02*
D03*
X14722301Y16688901D02*
D03*
Y16438901D02*
D03*
Y16188901D02*
D03*
Y15938901D02*
D03*
Y15688901D02*
D03*
Y15438901D02*
D03*
Y14188901D02*
D03*
Y13438901D02*
D03*
Y13188901D02*
D03*
X14472301Y16688901D02*
D03*
Y16438901D02*
D03*
Y16188901D02*
D03*
Y15938901D02*
D03*
Y15688901D02*
D03*
Y15438901D02*
D03*
Y14938901D02*
D03*
Y14688901D02*
D03*
Y14438901D02*
D03*
Y14188901D02*
D03*
Y13688901D02*
D03*
Y13438901D02*
D03*
Y13188901D02*
D03*
X16915309Y13912036D02*
D03*
X17013597Y14010324D02*
D03*
X14698599Y14670599D02*
D03*
X15232001D02*
D03*
X14698599Y14470000D02*
D03*
X15155800D02*
D03*
X12901700Y21189400D02*
D03*
Y20439400D02*
D03*
Y20189400D02*
D03*
Y19939400D02*
D03*
Y19689400D02*
D03*
Y19439400D02*
D03*
Y19189400D02*
D03*
Y18939400D02*
D03*
Y18689400D02*
D03*
Y18439400D02*
D03*
Y18189400D02*
D03*
Y17939400D02*
D03*
Y17689400D02*
D03*
X12651700Y21189400D02*
D03*
Y20939400D02*
D03*
Y20689400D02*
D03*
Y20439400D02*
D03*
Y20189400D02*
D03*
Y19939400D02*
D03*
Y19689400D02*
D03*
Y19439400D02*
D03*
Y19189400D02*
D03*
Y18939400D02*
D03*
Y18689400D02*
D03*
Y18439400D02*
D03*
Y18189400D02*
D03*
Y17689400D02*
D03*
X12401700Y21189400D02*
D03*
Y20939400D02*
D03*
Y20689400D02*
D03*
Y20439400D02*
D03*
Y19689400D02*
D03*
Y19439400D02*
D03*
Y17689400D02*
D03*
X12151700Y20939400D02*
D03*
Y20689400D02*
D03*
Y20439400D02*
D03*
Y19689400D02*
D03*
Y19439400D02*
D03*
Y18689400D02*
D03*
Y18439400D02*
D03*
Y18189400D02*
D03*
Y17689400D02*
D03*
X11901700Y20939400D02*
D03*
Y20689400D02*
D03*
Y20439400D02*
D03*
Y20189400D02*
D03*
Y19939400D02*
D03*
Y19689400D02*
D03*
Y19439400D02*
D03*
Y19189400D02*
D03*
Y18939400D02*
D03*
Y18689400D02*
D03*
Y18439400D02*
D03*
Y18189400D02*
D03*
Y17689400D02*
D03*
X11651700Y19939400D02*
D03*
Y19439400D02*
D03*
Y18939400D02*
D03*
Y18689400D02*
D03*
Y18439400D02*
D03*
Y18189400D02*
D03*
Y17689400D02*
D03*
X11401700Y18689400D02*
D03*
Y18189400D02*
D03*
Y17939400D02*
D03*
Y17689400D02*
D03*
X11151700Y20689400D02*
D03*
Y18939400D02*
D03*
Y18689400D02*
D03*
Y17939400D02*
D03*
Y17689400D02*
D03*
X10901700Y21189400D02*
D03*
Y19689400D02*
D03*
Y19439400D02*
D03*
Y18939400D02*
D03*
Y18689400D02*
D03*
Y17939400D02*
D03*
X10651700Y21189400D02*
D03*
Y20939400D02*
D03*
Y19689400D02*
D03*
Y19439400D02*
D03*
Y18939400D02*
D03*
Y18689400D02*
D03*
Y18189400D02*
D03*
X10401700Y21189400D02*
D03*
Y20939400D02*
D03*
Y19939400D02*
D03*
Y19689400D02*
D03*
Y19439400D02*
D03*
Y18689400D02*
D03*
Y18189400D02*
D03*
X10151700Y21189400D02*
D03*
Y19939400D02*
D03*
Y19689400D02*
D03*
Y19439400D02*
D03*
Y18439400D02*
D03*
Y18189400D02*
D03*
X9901700Y21189400D02*
D03*
Y20939400D02*
D03*
Y19939400D02*
D03*
Y19689400D02*
D03*
Y19439400D02*
D03*
Y18689400D02*
D03*
Y18439400D02*
D03*
Y18189400D02*
D03*
Y17939400D02*
D03*
X9651700Y21189400D02*
D03*
Y20939400D02*
D03*
Y19939400D02*
D03*
Y19689400D02*
D03*
Y19439400D02*
D03*
Y18689400D02*
D03*
Y18439400D02*
D03*
Y18189400D02*
D03*
Y17939400D02*
D03*
Y17689400D02*
D03*
X9401700Y20939400D02*
D03*
Y20189400D02*
D03*
Y19939400D02*
D03*
Y19689400D02*
D03*
Y19189400D02*
D03*
Y18939400D02*
D03*
Y18689400D02*
D03*
Y18439400D02*
D03*
Y18189400D02*
D03*
Y17939400D02*
D03*
Y17689400D02*
D03*
X9151700Y19939400D02*
D03*
Y19689400D02*
D03*
Y19189400D02*
D03*
Y18939400D02*
D03*
Y18689400D02*
D03*
Y18439400D02*
D03*
Y18189400D02*
D03*
Y17939400D02*
D03*
Y17689400D02*
D03*
X8901700Y20939400D02*
D03*
Y20689400D02*
D03*
Y20439400D02*
D03*
Y20189400D02*
D03*
Y19939400D02*
D03*
Y19689400D02*
D03*
Y19439400D02*
D03*
Y18689400D02*
D03*
Y18439400D02*
D03*
Y18189400D02*
D03*
Y17939400D02*
D03*
Y17689400D02*
D03*
X8651700Y21189400D02*
D03*
Y20939400D02*
D03*
Y20689400D02*
D03*
Y20439400D02*
D03*
Y20189400D02*
D03*
Y19939400D02*
D03*
Y19689400D02*
D03*
Y19439400D02*
D03*
Y18689400D02*
D03*
Y18439400D02*
D03*
Y18189400D02*
D03*
Y17939400D02*
D03*
Y17689400D02*
D03*
X8401700Y21189400D02*
D03*
Y20939400D02*
D03*
Y20689400D02*
D03*
Y20439400D02*
D03*
Y20189400D02*
D03*
Y19939400D02*
D03*
Y19439400D02*
D03*
Y18189400D02*
D03*
Y17939400D02*
D03*
Y17689400D02*
D03*
X8151700Y21189400D02*
D03*
Y20939400D02*
D03*
Y20689400D02*
D03*
Y20439400D02*
D03*
Y20189400D02*
D03*
Y19939400D02*
D03*
Y18689400D02*
D03*
Y17939400D02*
D03*
Y17689400D02*
D03*
X7901700Y21189400D02*
D03*
Y20939400D02*
D03*
Y20689400D02*
D03*
Y20439400D02*
D03*
Y20189400D02*
D03*
Y19939400D02*
D03*
Y19439400D02*
D03*
Y19189400D02*
D03*
Y18939400D02*
D03*
Y18689400D02*
D03*
Y18189400D02*
D03*
Y17939400D02*
D03*
Y17689400D02*
D03*
X10344709Y18412537D02*
D03*
X10442997Y18510825D02*
D03*
X8128000Y19171100D02*
D03*
X8661400D02*
D03*
X8128000Y18970500D02*
D03*
X8585200D02*
D03*
X19472301Y21189400D02*
D03*
Y20439400D02*
D03*
Y20189400D02*
D03*
Y19939400D02*
D03*
Y19689400D02*
D03*
Y19439400D02*
D03*
Y19189400D02*
D03*
Y18939400D02*
D03*
Y18689400D02*
D03*
Y18439400D02*
D03*
Y18189400D02*
D03*
Y17939400D02*
D03*
Y17689400D02*
D03*
X19222301Y21189400D02*
D03*
Y20939400D02*
D03*
Y20689400D02*
D03*
Y20439400D02*
D03*
Y20189400D02*
D03*
Y19939400D02*
D03*
Y19689400D02*
D03*
Y19439400D02*
D03*
Y19189400D02*
D03*
Y18939400D02*
D03*
Y18689400D02*
D03*
Y18439400D02*
D03*
Y18189400D02*
D03*
Y17689400D02*
D03*
X18972301Y21189400D02*
D03*
Y20939400D02*
D03*
Y20689400D02*
D03*
Y20439400D02*
D03*
Y19689400D02*
D03*
Y19439400D02*
D03*
Y17689400D02*
D03*
X18722301Y20939400D02*
D03*
Y20689400D02*
D03*
Y20439400D02*
D03*
Y19689400D02*
D03*
Y19439400D02*
D03*
Y18689400D02*
D03*
Y18439400D02*
D03*
Y18189400D02*
D03*
Y17689400D02*
D03*
X18472301Y20939400D02*
D03*
Y20689400D02*
D03*
Y20439400D02*
D03*
Y20189400D02*
D03*
Y19939400D02*
D03*
Y19689400D02*
D03*
Y19439400D02*
D03*
Y19189400D02*
D03*
Y18939400D02*
D03*
Y18689400D02*
D03*
Y18439400D02*
D03*
Y18189400D02*
D03*
Y17689400D02*
D03*
X18222301Y19939400D02*
D03*
Y19439400D02*
D03*
Y18939400D02*
D03*
Y18689400D02*
D03*
Y18439400D02*
D03*
Y18189400D02*
D03*
Y17689400D02*
D03*
X17972301Y18689400D02*
D03*
Y18189400D02*
D03*
Y17939400D02*
D03*
Y17689400D02*
D03*
X17722301Y20689400D02*
D03*
Y18939400D02*
D03*
Y18689400D02*
D03*
Y17939400D02*
D03*
Y17689400D02*
D03*
X17472301Y21189400D02*
D03*
Y19689400D02*
D03*
Y19439400D02*
D03*
Y18939400D02*
D03*
Y18689400D02*
D03*
Y17939400D02*
D03*
X17222301Y21189400D02*
D03*
Y20939400D02*
D03*
Y19689400D02*
D03*
Y19439400D02*
D03*
Y18939400D02*
D03*
Y18689400D02*
D03*
Y18189400D02*
D03*
X16972301Y21189400D02*
D03*
Y20939400D02*
D03*
Y19939400D02*
D03*
Y19689400D02*
D03*
Y19439400D02*
D03*
Y18689400D02*
D03*
Y18189400D02*
D03*
X16722301Y21189400D02*
D03*
Y19939400D02*
D03*
Y19689400D02*
D03*
Y19439400D02*
D03*
Y18439400D02*
D03*
Y18189400D02*
D03*
X16472301Y21189400D02*
D03*
Y20939400D02*
D03*
Y19939400D02*
D03*
Y19689400D02*
D03*
Y19439400D02*
D03*
Y18689400D02*
D03*
Y18439400D02*
D03*
Y18189400D02*
D03*
Y17939400D02*
D03*
X16222301Y21189400D02*
D03*
Y20939400D02*
D03*
Y19939400D02*
D03*
Y19689400D02*
D03*
Y19439400D02*
D03*
Y18689400D02*
D03*
Y18439400D02*
D03*
Y18189400D02*
D03*
Y17939400D02*
D03*
Y17689400D02*
D03*
X15972301Y20939400D02*
D03*
Y20189400D02*
D03*
Y19939400D02*
D03*
Y19689400D02*
D03*
Y19189400D02*
D03*
Y18939400D02*
D03*
Y18689400D02*
D03*
Y18439400D02*
D03*
Y18189400D02*
D03*
Y17939400D02*
D03*
Y17689400D02*
D03*
X15722301Y19939400D02*
D03*
Y19689400D02*
D03*
Y19189400D02*
D03*
Y18939400D02*
D03*
Y18689400D02*
D03*
Y18439400D02*
D03*
Y18189400D02*
D03*
Y17939400D02*
D03*
Y17689400D02*
D03*
X15472301Y20939400D02*
D03*
Y20689400D02*
D03*
Y20439400D02*
D03*
Y20189400D02*
D03*
Y19939400D02*
D03*
Y19689400D02*
D03*
Y19439400D02*
D03*
Y18689400D02*
D03*
Y18439400D02*
D03*
Y18189400D02*
D03*
Y17939400D02*
D03*
Y17689400D02*
D03*
X15222301Y21189400D02*
D03*
Y20939400D02*
D03*
Y20689400D02*
D03*
Y20439400D02*
D03*
Y20189400D02*
D03*
Y19939400D02*
D03*
Y19689400D02*
D03*
Y19439400D02*
D03*
Y18689400D02*
D03*
Y18439400D02*
D03*
Y18189400D02*
D03*
Y17939400D02*
D03*
Y17689400D02*
D03*
X14972301Y21189400D02*
D03*
Y20939400D02*
D03*
Y20689400D02*
D03*
Y20439400D02*
D03*
Y20189400D02*
D03*
Y19939400D02*
D03*
Y19439400D02*
D03*
Y18189400D02*
D03*
Y17939400D02*
D03*
Y17689400D02*
D03*
X14722301Y21189400D02*
D03*
Y20939400D02*
D03*
Y20689400D02*
D03*
Y20439400D02*
D03*
Y20189400D02*
D03*
Y19939400D02*
D03*
Y18689400D02*
D03*
Y17939400D02*
D03*
Y17689400D02*
D03*
X14472301Y21189400D02*
D03*
Y20939400D02*
D03*
Y20689400D02*
D03*
Y20439400D02*
D03*
Y20189400D02*
D03*
Y19939400D02*
D03*
Y19439400D02*
D03*
Y19189400D02*
D03*
Y18939400D02*
D03*
Y18689400D02*
D03*
Y18189400D02*
D03*
Y17939400D02*
D03*
Y17689400D02*
D03*
X16915309Y18412537D02*
D03*
X17013597Y18510825D02*
D03*
X14698599Y19171100D02*
D03*
X15232001D02*
D03*
X14698599Y18970500D02*
D03*
X15155800D02*
D03*
X12901700Y25689899D02*
D03*
Y24939900D02*
D03*
Y24689900D02*
D03*
Y24439900D02*
D03*
Y24189900D02*
D03*
Y23939900D02*
D03*
Y23689900D02*
D03*
Y23439900D02*
D03*
Y23189900D02*
D03*
Y22939900D02*
D03*
Y22689900D02*
D03*
Y22439900D02*
D03*
Y22189900D02*
D03*
X12651700Y25689899D02*
D03*
Y25439900D02*
D03*
Y25189900D02*
D03*
Y24939900D02*
D03*
Y24689900D02*
D03*
Y24439900D02*
D03*
Y24189900D02*
D03*
Y23939900D02*
D03*
Y23689900D02*
D03*
Y23439900D02*
D03*
Y23189900D02*
D03*
Y22939900D02*
D03*
Y22689900D02*
D03*
Y22189900D02*
D03*
X12401700Y25689899D02*
D03*
Y25439900D02*
D03*
Y25189900D02*
D03*
Y24939900D02*
D03*
Y24189900D02*
D03*
Y23939900D02*
D03*
Y22189900D02*
D03*
X12151700Y25439900D02*
D03*
Y25189900D02*
D03*
Y24939900D02*
D03*
Y24189900D02*
D03*
Y23939900D02*
D03*
Y23189900D02*
D03*
Y22939900D02*
D03*
Y22689900D02*
D03*
Y22189900D02*
D03*
X11901700Y25439900D02*
D03*
Y25189900D02*
D03*
Y24939900D02*
D03*
Y24689900D02*
D03*
Y24439900D02*
D03*
Y24189900D02*
D03*
Y23939900D02*
D03*
Y23689900D02*
D03*
Y23439900D02*
D03*
Y23189900D02*
D03*
Y22939900D02*
D03*
Y22689900D02*
D03*
Y22189900D02*
D03*
X11651700Y24439900D02*
D03*
Y23939900D02*
D03*
Y23439900D02*
D03*
Y23189900D02*
D03*
Y22939900D02*
D03*
Y22689900D02*
D03*
Y22189900D02*
D03*
X11401700Y23189900D02*
D03*
Y22689900D02*
D03*
Y22439900D02*
D03*
Y22189900D02*
D03*
X11151700Y25189900D02*
D03*
Y23439900D02*
D03*
Y23189900D02*
D03*
Y22439900D02*
D03*
Y22189900D02*
D03*
X10901700Y25689899D02*
D03*
Y24189900D02*
D03*
Y23939900D02*
D03*
Y23439900D02*
D03*
Y23189900D02*
D03*
Y22439900D02*
D03*
X10651700Y25689899D02*
D03*
Y25439900D02*
D03*
Y24189900D02*
D03*
Y23939900D02*
D03*
Y23439900D02*
D03*
Y23189900D02*
D03*
Y22689900D02*
D03*
X10401700Y25689899D02*
D03*
Y25439900D02*
D03*
Y24439900D02*
D03*
Y24189900D02*
D03*
Y23939900D02*
D03*
Y23189900D02*
D03*
Y22689900D02*
D03*
X10151700Y25689899D02*
D03*
Y24439900D02*
D03*
Y24189900D02*
D03*
Y23939900D02*
D03*
Y22939900D02*
D03*
Y22689900D02*
D03*
X9901700Y25689899D02*
D03*
Y25439900D02*
D03*
Y24439900D02*
D03*
Y24189900D02*
D03*
Y23939900D02*
D03*
Y23189900D02*
D03*
Y22939900D02*
D03*
Y22689900D02*
D03*
Y22439900D02*
D03*
X9651700Y25689899D02*
D03*
Y25439900D02*
D03*
Y24439900D02*
D03*
Y24189900D02*
D03*
Y23939900D02*
D03*
Y23189900D02*
D03*
Y22939900D02*
D03*
Y22689900D02*
D03*
Y22439900D02*
D03*
Y22189900D02*
D03*
X9401700Y25439900D02*
D03*
Y24689900D02*
D03*
Y24439900D02*
D03*
Y24189900D02*
D03*
Y23689900D02*
D03*
Y23439900D02*
D03*
Y23189900D02*
D03*
Y22939900D02*
D03*
Y22689900D02*
D03*
Y22439900D02*
D03*
Y22189900D02*
D03*
X9151700Y24439900D02*
D03*
Y24189900D02*
D03*
Y23689900D02*
D03*
Y23439900D02*
D03*
Y23189900D02*
D03*
Y22939900D02*
D03*
Y22689900D02*
D03*
Y22439900D02*
D03*
Y22189900D02*
D03*
X8901700Y25439900D02*
D03*
Y25189900D02*
D03*
Y24939900D02*
D03*
Y24689900D02*
D03*
Y24439900D02*
D03*
Y24189900D02*
D03*
Y23939900D02*
D03*
Y23189900D02*
D03*
Y22939900D02*
D03*
Y22689900D02*
D03*
Y22439900D02*
D03*
Y22189900D02*
D03*
X8651700Y25689899D02*
D03*
Y25439900D02*
D03*
Y25189900D02*
D03*
Y24939900D02*
D03*
Y24689900D02*
D03*
Y24439900D02*
D03*
Y24189900D02*
D03*
Y23939900D02*
D03*
Y23189900D02*
D03*
Y22939900D02*
D03*
Y22689900D02*
D03*
Y22439900D02*
D03*
Y22189900D02*
D03*
X8401700Y25689899D02*
D03*
Y25439900D02*
D03*
Y25189900D02*
D03*
Y24939900D02*
D03*
Y24689900D02*
D03*
Y24439900D02*
D03*
Y23939900D02*
D03*
Y22689900D02*
D03*
Y22439900D02*
D03*
Y22189900D02*
D03*
X8151700Y25689899D02*
D03*
Y25439900D02*
D03*
Y25189900D02*
D03*
Y24939900D02*
D03*
Y24689900D02*
D03*
Y24439900D02*
D03*
Y23189900D02*
D03*
Y22439900D02*
D03*
Y22189900D02*
D03*
X7901700Y25689899D02*
D03*
Y25439900D02*
D03*
Y25189900D02*
D03*
Y24939900D02*
D03*
Y24689900D02*
D03*
Y24439900D02*
D03*
Y23939900D02*
D03*
Y23689900D02*
D03*
Y23439900D02*
D03*
Y23189900D02*
D03*
Y22689900D02*
D03*
Y22439900D02*
D03*
Y22189900D02*
D03*
X10344709Y22913036D02*
D03*
X10442997Y23011324D02*
D03*
X8128000Y23671600D02*
D03*
X8661400D02*
D03*
X8128000Y23471001D02*
D03*
X8585200D02*
D03*
X19472301Y25689899D02*
D03*
Y24939900D02*
D03*
Y24689900D02*
D03*
Y24439900D02*
D03*
Y24189900D02*
D03*
Y23939900D02*
D03*
Y23689900D02*
D03*
Y23439900D02*
D03*
Y23189900D02*
D03*
Y22939900D02*
D03*
Y22689900D02*
D03*
Y22439900D02*
D03*
Y22189900D02*
D03*
X19222301Y25689899D02*
D03*
Y25439900D02*
D03*
Y25189900D02*
D03*
Y24939900D02*
D03*
Y24689900D02*
D03*
Y24439900D02*
D03*
Y24189900D02*
D03*
Y23939900D02*
D03*
Y23689900D02*
D03*
Y23439900D02*
D03*
Y23189900D02*
D03*
Y22939900D02*
D03*
Y22689900D02*
D03*
Y22189900D02*
D03*
X18972301Y25689899D02*
D03*
Y25439900D02*
D03*
Y25189900D02*
D03*
Y24939900D02*
D03*
Y24189900D02*
D03*
Y23939900D02*
D03*
Y22189900D02*
D03*
X18722301Y25439900D02*
D03*
Y25189900D02*
D03*
Y24939900D02*
D03*
Y24189900D02*
D03*
Y23939900D02*
D03*
Y23189900D02*
D03*
Y22939900D02*
D03*
Y22689900D02*
D03*
Y22189900D02*
D03*
X18472301Y25439900D02*
D03*
Y25189900D02*
D03*
Y24939900D02*
D03*
Y24689900D02*
D03*
Y24439900D02*
D03*
Y24189900D02*
D03*
Y23939900D02*
D03*
Y23689900D02*
D03*
Y23439900D02*
D03*
Y23189900D02*
D03*
Y22939900D02*
D03*
Y22689900D02*
D03*
Y22189900D02*
D03*
X18222301Y24439900D02*
D03*
Y23939900D02*
D03*
Y23439900D02*
D03*
Y23189900D02*
D03*
Y22939900D02*
D03*
Y22689900D02*
D03*
Y22189900D02*
D03*
X17972301Y23189900D02*
D03*
Y22689900D02*
D03*
Y22439900D02*
D03*
Y22189900D02*
D03*
X17722301Y25189900D02*
D03*
Y23439900D02*
D03*
Y23189900D02*
D03*
Y22439900D02*
D03*
Y22189900D02*
D03*
X17472301Y25689899D02*
D03*
Y24189900D02*
D03*
Y23939900D02*
D03*
Y23439900D02*
D03*
Y23189900D02*
D03*
Y22439900D02*
D03*
X17222301Y25689899D02*
D03*
Y25439900D02*
D03*
Y24189900D02*
D03*
Y23939900D02*
D03*
Y23439900D02*
D03*
Y23189900D02*
D03*
Y22689900D02*
D03*
X16972301Y25689899D02*
D03*
Y25439900D02*
D03*
Y24439900D02*
D03*
Y24189900D02*
D03*
Y23939900D02*
D03*
Y23189900D02*
D03*
Y22689900D02*
D03*
X16722301Y25689899D02*
D03*
Y24439900D02*
D03*
Y24189900D02*
D03*
Y23939900D02*
D03*
Y22939900D02*
D03*
Y22689900D02*
D03*
X16472301Y25689899D02*
D03*
Y25439900D02*
D03*
Y24439900D02*
D03*
Y24189900D02*
D03*
Y23939900D02*
D03*
Y23189900D02*
D03*
Y22939900D02*
D03*
Y22689900D02*
D03*
Y22439900D02*
D03*
X16222301Y25689899D02*
D03*
Y25439900D02*
D03*
Y24439900D02*
D03*
Y24189900D02*
D03*
Y23939900D02*
D03*
Y23189900D02*
D03*
Y22939900D02*
D03*
Y22689900D02*
D03*
Y22439900D02*
D03*
Y22189900D02*
D03*
X15972301Y25439900D02*
D03*
Y24689900D02*
D03*
Y24439900D02*
D03*
Y24189900D02*
D03*
Y23689900D02*
D03*
Y23439900D02*
D03*
Y23189900D02*
D03*
Y22939900D02*
D03*
Y22689900D02*
D03*
Y22439900D02*
D03*
Y22189900D02*
D03*
X15722301Y24439900D02*
D03*
Y24189900D02*
D03*
Y23689900D02*
D03*
Y23439900D02*
D03*
Y23189900D02*
D03*
Y22939900D02*
D03*
Y22689900D02*
D03*
Y22439900D02*
D03*
Y22189900D02*
D03*
X15472301Y25439900D02*
D03*
Y25189900D02*
D03*
Y24939900D02*
D03*
Y24689900D02*
D03*
Y24439900D02*
D03*
Y24189900D02*
D03*
Y23939900D02*
D03*
Y23189900D02*
D03*
Y22939900D02*
D03*
Y22689900D02*
D03*
Y22439900D02*
D03*
Y22189900D02*
D03*
X15222301Y25689899D02*
D03*
Y25439900D02*
D03*
Y25189900D02*
D03*
Y24939900D02*
D03*
Y24689900D02*
D03*
Y24439900D02*
D03*
Y24189900D02*
D03*
Y23939900D02*
D03*
Y23189900D02*
D03*
Y22939900D02*
D03*
Y22689900D02*
D03*
Y22439900D02*
D03*
Y22189900D02*
D03*
X14972301Y25689899D02*
D03*
Y25439900D02*
D03*
Y25189900D02*
D03*
Y24939900D02*
D03*
Y24689900D02*
D03*
Y24439900D02*
D03*
Y23939900D02*
D03*
Y22689900D02*
D03*
Y22439900D02*
D03*
Y22189900D02*
D03*
X14722301Y25689899D02*
D03*
Y25439900D02*
D03*
Y25189900D02*
D03*
Y24939900D02*
D03*
Y24689900D02*
D03*
Y24439900D02*
D03*
Y23189900D02*
D03*
Y22439900D02*
D03*
Y22189900D02*
D03*
X14472301Y25689899D02*
D03*
Y25439900D02*
D03*
Y25189900D02*
D03*
Y24939900D02*
D03*
Y24689900D02*
D03*
Y24439900D02*
D03*
Y23939900D02*
D03*
Y23689900D02*
D03*
Y23439900D02*
D03*
Y23189900D02*
D03*
Y22689900D02*
D03*
Y22439900D02*
D03*
Y22189900D02*
D03*
X16915309Y22913036D02*
D03*
X17013597Y23011324D02*
D03*
X14698599Y23671600D02*
D03*
X15232001D02*
D03*
X14698599Y23471001D02*
D03*
X15155800D02*
D03*
X12901700Y30190399D02*
D03*
Y29440399D02*
D03*
Y29190399D02*
D03*
Y28940399D02*
D03*
Y28690399D02*
D03*
Y28440399D02*
D03*
Y28190399D02*
D03*
Y27940399D02*
D03*
Y27690399D02*
D03*
Y27440399D02*
D03*
Y27190399D02*
D03*
Y26940399D02*
D03*
Y26690399D02*
D03*
X12651700Y30190399D02*
D03*
Y29940399D02*
D03*
Y29690399D02*
D03*
Y29440399D02*
D03*
Y29190399D02*
D03*
Y28940399D02*
D03*
Y28690399D02*
D03*
Y28440399D02*
D03*
Y28190399D02*
D03*
Y27940399D02*
D03*
Y27690399D02*
D03*
Y27440399D02*
D03*
Y27190399D02*
D03*
Y26690399D02*
D03*
X12401700Y30190399D02*
D03*
Y29940399D02*
D03*
Y29690399D02*
D03*
Y29440399D02*
D03*
Y28690399D02*
D03*
Y28440399D02*
D03*
Y26690399D02*
D03*
X12151700Y29940399D02*
D03*
Y29690399D02*
D03*
Y29440399D02*
D03*
Y28690399D02*
D03*
Y28440399D02*
D03*
Y27690399D02*
D03*
Y27440399D02*
D03*
Y27190399D02*
D03*
Y26690399D02*
D03*
X11901700Y29940399D02*
D03*
Y29690399D02*
D03*
Y29440399D02*
D03*
Y29190399D02*
D03*
Y28940399D02*
D03*
Y28690399D02*
D03*
Y28440399D02*
D03*
Y28190399D02*
D03*
Y27940399D02*
D03*
Y27690399D02*
D03*
Y27440399D02*
D03*
Y27190399D02*
D03*
Y26690399D02*
D03*
X11651700Y28940399D02*
D03*
Y28440399D02*
D03*
Y27940399D02*
D03*
Y27690399D02*
D03*
Y27440399D02*
D03*
Y27190399D02*
D03*
Y26690399D02*
D03*
X11401700Y27690399D02*
D03*
Y27190399D02*
D03*
Y26940399D02*
D03*
Y26690399D02*
D03*
X11151700Y29690399D02*
D03*
Y27940399D02*
D03*
Y27690399D02*
D03*
Y26940399D02*
D03*
Y26690399D02*
D03*
X10901700Y30190399D02*
D03*
Y28690399D02*
D03*
Y28440399D02*
D03*
Y27940399D02*
D03*
Y27690399D02*
D03*
Y26940399D02*
D03*
X10651700Y30190399D02*
D03*
Y29940399D02*
D03*
Y28690399D02*
D03*
Y28440399D02*
D03*
Y27940399D02*
D03*
Y27690399D02*
D03*
Y27190399D02*
D03*
X10401700Y30190399D02*
D03*
Y29940399D02*
D03*
Y28940399D02*
D03*
Y28690399D02*
D03*
Y28440399D02*
D03*
Y27690399D02*
D03*
Y27190399D02*
D03*
X10151700Y30190399D02*
D03*
Y28940399D02*
D03*
Y28690399D02*
D03*
Y28440399D02*
D03*
Y27440399D02*
D03*
Y27190399D02*
D03*
X9901700Y30190399D02*
D03*
Y29940399D02*
D03*
Y28940399D02*
D03*
Y28690399D02*
D03*
Y28440399D02*
D03*
Y27690399D02*
D03*
Y27440399D02*
D03*
Y27190399D02*
D03*
Y26940399D02*
D03*
X9651700Y30190399D02*
D03*
Y29940399D02*
D03*
Y28940399D02*
D03*
Y28690399D02*
D03*
Y28440399D02*
D03*
Y27690399D02*
D03*
Y27440399D02*
D03*
Y27190399D02*
D03*
Y26940399D02*
D03*
Y26690399D02*
D03*
X9401700Y29940399D02*
D03*
Y29190399D02*
D03*
Y28940399D02*
D03*
Y28690399D02*
D03*
Y28190399D02*
D03*
Y27940399D02*
D03*
Y27690399D02*
D03*
Y27440399D02*
D03*
Y27190399D02*
D03*
Y26940399D02*
D03*
Y26690399D02*
D03*
X9151700Y28940399D02*
D03*
Y28690399D02*
D03*
Y28190399D02*
D03*
Y27940399D02*
D03*
Y27690399D02*
D03*
Y27440399D02*
D03*
Y27190399D02*
D03*
Y26940399D02*
D03*
Y26690399D02*
D03*
X8901700Y29940399D02*
D03*
Y29690399D02*
D03*
Y29440399D02*
D03*
Y29190399D02*
D03*
Y28940399D02*
D03*
Y28690399D02*
D03*
Y28440399D02*
D03*
Y27690399D02*
D03*
Y27440399D02*
D03*
Y27190399D02*
D03*
Y26940399D02*
D03*
Y26690399D02*
D03*
X8651700Y30190399D02*
D03*
Y29940399D02*
D03*
Y29690399D02*
D03*
Y29440399D02*
D03*
Y29190399D02*
D03*
Y28940399D02*
D03*
Y28690399D02*
D03*
Y28440399D02*
D03*
Y27690399D02*
D03*
Y27440399D02*
D03*
Y27190399D02*
D03*
Y26940399D02*
D03*
Y26690399D02*
D03*
X8401700Y30190399D02*
D03*
Y29940399D02*
D03*
Y29690399D02*
D03*
Y29440399D02*
D03*
Y29190399D02*
D03*
Y28940399D02*
D03*
Y28440399D02*
D03*
Y27190399D02*
D03*
Y26940399D02*
D03*
Y26690399D02*
D03*
X8151700Y30190399D02*
D03*
Y29940399D02*
D03*
Y29690399D02*
D03*
Y29440399D02*
D03*
Y29190399D02*
D03*
Y28940399D02*
D03*
Y27690399D02*
D03*
Y26940399D02*
D03*
Y26690399D02*
D03*
X7901700Y30190399D02*
D03*
Y29940399D02*
D03*
Y29690399D02*
D03*
Y29440399D02*
D03*
Y29190399D02*
D03*
Y28940399D02*
D03*
Y28440399D02*
D03*
Y28190399D02*
D03*
Y27940399D02*
D03*
Y27690399D02*
D03*
Y27190399D02*
D03*
Y26940399D02*
D03*
Y26690399D02*
D03*
X10344709Y27413535D02*
D03*
X10442997Y27511823D02*
D03*
X8128000Y28172101D02*
D03*
X8661400D02*
D03*
X8128000Y27971500D02*
D03*
X8585200D02*
D03*
X19472301Y30190399D02*
D03*
Y29440399D02*
D03*
Y29190399D02*
D03*
Y28940399D02*
D03*
Y28690399D02*
D03*
Y28440399D02*
D03*
Y28190399D02*
D03*
Y27940399D02*
D03*
Y27690399D02*
D03*
Y27440399D02*
D03*
Y27190399D02*
D03*
Y26940399D02*
D03*
Y26690399D02*
D03*
X19222301Y30190399D02*
D03*
Y29940399D02*
D03*
Y29690399D02*
D03*
Y29440399D02*
D03*
Y29190399D02*
D03*
Y28940399D02*
D03*
Y28690399D02*
D03*
Y28440399D02*
D03*
Y28190399D02*
D03*
Y27940399D02*
D03*
Y27690399D02*
D03*
Y27440399D02*
D03*
Y27190399D02*
D03*
Y26690399D02*
D03*
X18972301Y30190399D02*
D03*
Y29940399D02*
D03*
Y29690399D02*
D03*
Y29440399D02*
D03*
Y28690399D02*
D03*
Y28440399D02*
D03*
Y26690399D02*
D03*
X18722301Y29940399D02*
D03*
Y29690399D02*
D03*
Y29440399D02*
D03*
Y28690399D02*
D03*
Y28440399D02*
D03*
Y27690399D02*
D03*
Y27440399D02*
D03*
Y27190399D02*
D03*
Y26690399D02*
D03*
X18472301Y29940399D02*
D03*
Y29690399D02*
D03*
Y29440399D02*
D03*
Y29190399D02*
D03*
Y28940399D02*
D03*
Y28690399D02*
D03*
Y28440399D02*
D03*
Y28190399D02*
D03*
Y27940399D02*
D03*
Y27690399D02*
D03*
Y27440399D02*
D03*
Y27190399D02*
D03*
Y26690399D02*
D03*
X18222301Y28940399D02*
D03*
Y28440399D02*
D03*
Y27940399D02*
D03*
Y27690399D02*
D03*
Y27440399D02*
D03*
Y27190399D02*
D03*
Y26690399D02*
D03*
X17972301Y27690399D02*
D03*
Y27190399D02*
D03*
Y26940399D02*
D03*
Y26690399D02*
D03*
X17722301Y29690399D02*
D03*
Y27940399D02*
D03*
Y27690399D02*
D03*
Y26940399D02*
D03*
Y26690399D02*
D03*
X17472301Y30190399D02*
D03*
Y28690399D02*
D03*
Y28440399D02*
D03*
Y27940399D02*
D03*
Y27690399D02*
D03*
Y26940399D02*
D03*
X17222301Y30190399D02*
D03*
Y29940399D02*
D03*
Y28690399D02*
D03*
Y28440399D02*
D03*
Y27940399D02*
D03*
Y27690399D02*
D03*
Y27190399D02*
D03*
X16972301Y30190399D02*
D03*
Y29940399D02*
D03*
Y28940399D02*
D03*
Y28690399D02*
D03*
Y28440399D02*
D03*
Y27690399D02*
D03*
Y27190399D02*
D03*
X16722301Y30190399D02*
D03*
Y28940399D02*
D03*
Y28690399D02*
D03*
Y28440399D02*
D03*
Y27440399D02*
D03*
Y27190399D02*
D03*
X16472301Y30190399D02*
D03*
Y29940399D02*
D03*
Y28940399D02*
D03*
Y28690399D02*
D03*
Y28440399D02*
D03*
Y27690399D02*
D03*
Y27440399D02*
D03*
Y27190399D02*
D03*
Y26940399D02*
D03*
X16222301Y30190399D02*
D03*
Y29940399D02*
D03*
Y28940399D02*
D03*
Y28690399D02*
D03*
Y28440399D02*
D03*
Y27690399D02*
D03*
Y27440399D02*
D03*
Y27190399D02*
D03*
Y26940399D02*
D03*
Y26690399D02*
D03*
X15972301Y29940399D02*
D03*
Y29190399D02*
D03*
Y28940399D02*
D03*
Y28690399D02*
D03*
Y28190399D02*
D03*
Y27940399D02*
D03*
Y27690399D02*
D03*
Y27440399D02*
D03*
Y27190399D02*
D03*
Y26940399D02*
D03*
Y26690399D02*
D03*
X15722301Y28940399D02*
D03*
Y28690399D02*
D03*
Y28190399D02*
D03*
Y27940399D02*
D03*
Y27690399D02*
D03*
Y27440399D02*
D03*
Y27190399D02*
D03*
Y26940399D02*
D03*
Y26690399D02*
D03*
X15472301Y29940399D02*
D03*
Y29690399D02*
D03*
Y29440399D02*
D03*
Y29190399D02*
D03*
Y28940399D02*
D03*
Y28690399D02*
D03*
Y28440399D02*
D03*
Y27690399D02*
D03*
Y27440399D02*
D03*
Y27190399D02*
D03*
Y26940399D02*
D03*
Y26690399D02*
D03*
X15222301Y30190399D02*
D03*
Y29940399D02*
D03*
Y29690399D02*
D03*
Y29440399D02*
D03*
Y29190399D02*
D03*
Y28940399D02*
D03*
Y28690399D02*
D03*
Y28440399D02*
D03*
Y27690399D02*
D03*
Y27440399D02*
D03*
Y27190399D02*
D03*
Y26940399D02*
D03*
Y26690399D02*
D03*
X14972301Y30190399D02*
D03*
Y29940399D02*
D03*
Y29690399D02*
D03*
Y29440399D02*
D03*
Y29190399D02*
D03*
Y28940399D02*
D03*
Y28440399D02*
D03*
Y27190399D02*
D03*
Y26940399D02*
D03*
Y26690399D02*
D03*
X14722301Y30190399D02*
D03*
Y29940399D02*
D03*
Y29690399D02*
D03*
Y29440399D02*
D03*
Y29190399D02*
D03*
Y28940399D02*
D03*
Y27690399D02*
D03*
Y26940399D02*
D03*
Y26690399D02*
D03*
X14472301Y30190399D02*
D03*
Y29940399D02*
D03*
Y29690399D02*
D03*
Y29440399D02*
D03*
Y29190399D02*
D03*
Y28940399D02*
D03*
Y28440399D02*
D03*
Y28190399D02*
D03*
Y27940399D02*
D03*
Y27690399D02*
D03*
Y27190399D02*
D03*
Y26940399D02*
D03*
Y26690399D02*
D03*
X16915309Y27413535D02*
D03*
X17013597Y27511823D02*
D03*
X14698599Y28172101D02*
D03*
X15232001D02*
D03*
X14698599Y27971500D02*
D03*
X15155800D02*
D03*
D33*
X10388600Y9067800D02*
X10401300Y9080500D01*
Y10756900D01*
X10922000Y11277600D01*
Y12484100D01*
X16959200Y9067800D02*
X16971899Y9080500D01*
Y10756900D01*
X17492599Y11277600D01*
Y12484100D01*
X10388600Y13568300D02*
X10401300Y13581000D01*
Y15257401D01*
X10922000Y15778101D01*
Y16984599D01*
X16959200Y13568300D02*
X16971899Y13581000D01*
Y15257401D01*
X17492599Y15778101D01*
Y16984599D01*
X10388600Y18068800D02*
X10401300Y18081500D01*
Y19757899D01*
X10922000Y20278600D01*
Y21485100D01*
X16959200Y18068800D02*
X16971899Y18081500D01*
Y19757899D01*
X17492599Y20278600D01*
Y21485100D01*
X10388600Y22569299D02*
X10401300Y22582001D01*
Y24258400D01*
X10922000Y24779100D01*
Y25985599D01*
X16959200Y22569299D02*
X16971899Y22582001D01*
Y24258400D01*
X17492599Y24779100D01*
Y25985599D01*
X10388600Y27069800D02*
X10401300Y27082501D01*
Y28758899D01*
X10922000Y29279599D01*
Y30486099D01*
X16959200Y27069800D02*
X16971899Y27082501D01*
Y28758899D01*
X17492599Y29279599D01*
Y30486099D01*
%TF.MD5,26a9376fdd238cac51288b00f1dbf4e0*%
M02*
