%TF.GenerationSoftware,Altium Limited,Altium Designer,23.9.2 (47)*%
G04 Layer_Color=128*
%FSLAX45Y45*%
%MOMM*%
%TF.SameCoordinates,AD479AB8-1AF9-481E-9C01-A3E3F564F201*%
%TF.FilePolarity,Positive*%
%TF.FileFunction,Drillmap*%
%TF.Part,CustomerPanel*%
G01*
G75*
%TA.AperFunction,NonConductor*%
%ADD50C,0.12700*%
D50*
X7992900Y9434145D02*
X8167900D01*
X8080400Y9346646D02*
Y9521645D01*
X7992900Y10523846D02*
X8167900D01*
X8080400Y10436346D02*
Y10611346D01*
X11232600Y12293600D02*
X11322600D01*
X11277600Y12248600D02*
Y12338600D01*
X11486600Y12293600D02*
X11576600D01*
X11531600Y12248600D02*
Y12338600D01*
X8983100Y12293600D02*
X9073100D01*
X9028100Y12248600D02*
Y12338600D01*
X9237100Y12293600D02*
X9327100D01*
X9282100Y12248600D02*
Y12338600D01*
X12889201Y12188400D02*
X12914200D01*
X12901700Y12175900D02*
Y12200900D01*
X12889201Y11438400D02*
X12914200D01*
X12901700Y11425900D02*
Y11450900D01*
X12889201Y11188400D02*
X12914200D01*
X12901700Y11175900D02*
Y11200900D01*
X12889201Y10938400D02*
X12914200D01*
X12901700Y10925900D02*
Y10950900D01*
X12889201Y10688400D02*
X12914200D01*
X12901700Y10675900D02*
Y10700900D01*
X12889201Y10438400D02*
X12914200D01*
X12901700Y10425900D02*
Y10450900D01*
X12889201Y10188400D02*
X12914200D01*
X12901700Y10175900D02*
Y10200900D01*
X12889201Y9938400D02*
X12914200D01*
X12901700Y9925900D02*
Y9950900D01*
X12889201Y9688400D02*
X12914200D01*
X12901700Y9675900D02*
Y9700900D01*
X12889201Y9438400D02*
X12914200D01*
X12901700Y9425900D02*
Y9450900D01*
X12889201Y9188400D02*
X12914200D01*
X12901700Y9175900D02*
Y9200900D01*
X12889201Y8938400D02*
X12914200D01*
X12901700Y8925900D02*
Y8950900D01*
X12889201Y8688400D02*
X12914200D01*
X12901700Y8675900D02*
Y8700900D01*
X12639201Y12188400D02*
X12664200D01*
X12651700Y12175900D02*
Y12200900D01*
X12639201Y11938400D02*
X12664200D01*
X12651700Y11925900D02*
Y11950900D01*
X12639201Y11688400D02*
X12664200D01*
X12651700Y11675900D02*
Y11700900D01*
X12639201Y11438400D02*
X12664200D01*
X12651700Y11425900D02*
Y11450900D01*
X12639201Y11188400D02*
X12664200D01*
X12651700Y11175900D02*
Y11200900D01*
X12639201Y10938400D02*
X12664200D01*
X12651700Y10925900D02*
Y10950900D01*
X12639201Y10688400D02*
X12664200D01*
X12651700Y10675900D02*
Y10700900D01*
X12639201Y10438400D02*
X12664200D01*
X12651700Y10425900D02*
Y10450900D01*
X12639201Y10188400D02*
X12664200D01*
X12651700Y10175900D02*
Y10200900D01*
X12639201Y9938400D02*
X12664200D01*
X12651700Y9925900D02*
Y9950900D01*
X12639201Y9688400D02*
X12664200D01*
X12651700Y9675900D02*
Y9700900D01*
X12639201Y9438400D02*
X12664200D01*
X12651700Y9425900D02*
Y9450900D01*
X12639201Y9188400D02*
X12664200D01*
X12651700Y9175900D02*
Y9200900D01*
X12639201Y8688400D02*
X12664200D01*
X12651700Y8675900D02*
Y8700900D01*
X12389201Y12188400D02*
X12414200D01*
X12401700Y12175900D02*
Y12200900D01*
X12389201Y11938400D02*
X12414200D01*
X12401700Y11925900D02*
Y11950900D01*
X12389201Y11688400D02*
X12414200D01*
X12401700Y11675900D02*
Y11700900D01*
X12389201Y11438400D02*
X12414200D01*
X12401700Y11425900D02*
Y11450900D01*
X12389201Y10688400D02*
X12414200D01*
X12401700Y10675900D02*
Y10700900D01*
X12389201Y10438400D02*
X12414200D01*
X12401700Y10425900D02*
Y10450900D01*
X12389201Y8688400D02*
X12414200D01*
X12401700Y8675900D02*
Y8700900D01*
X12139201Y11938400D02*
X12164200D01*
X12151700Y11925900D02*
Y11950900D01*
X12139201Y11688400D02*
X12164200D01*
X12151700Y11675900D02*
Y11700900D01*
X12139201Y11438400D02*
X12164200D01*
X12151700Y11425900D02*
Y11450900D01*
X12139201Y10688400D02*
X12164200D01*
X12151700Y10675900D02*
Y10700900D01*
X12139201Y10438400D02*
X12164200D01*
X12151700Y10425900D02*
Y10450900D01*
X12139201Y9688400D02*
X12164200D01*
X12151700Y9675900D02*
Y9700900D01*
X12139201Y9438400D02*
X12164200D01*
X12151700Y9425900D02*
Y9450900D01*
X12139201Y9188400D02*
X12164200D01*
X12151700Y9175900D02*
Y9200900D01*
X12139201Y8688400D02*
X12164200D01*
X12151700Y8675900D02*
Y8700900D01*
X11889201Y11938400D02*
X11914200D01*
X11901700Y11925900D02*
Y11950900D01*
X11889201Y11688400D02*
X11914200D01*
X11901700Y11675900D02*
Y11700900D01*
X11889201Y11438400D02*
X11914200D01*
X11901700Y11425900D02*
Y11450900D01*
X11889201Y11188400D02*
X11914200D01*
X11901700Y11175900D02*
Y11200900D01*
X11889201Y10938400D02*
X11914200D01*
X11901700Y10925900D02*
Y10950900D01*
X11889201Y10688400D02*
X11914200D01*
X11901700Y10675900D02*
Y10700900D01*
X11889201Y10438400D02*
X11914200D01*
X11901700Y10425900D02*
Y10450900D01*
X11889201Y10188400D02*
X11914200D01*
X11901700Y10175900D02*
Y10200900D01*
X11889201Y9938400D02*
X11914200D01*
X11901700Y9925900D02*
Y9950900D01*
X11889201Y9688400D02*
X11914200D01*
X11901700Y9675900D02*
Y9700900D01*
X11889201Y9438400D02*
X11914200D01*
X11901700Y9425900D02*
Y9450900D01*
X11889201Y9188400D02*
X11914200D01*
X11901700Y9175900D02*
Y9200900D01*
X11889201Y8688400D02*
X11914200D01*
X11901700Y8675900D02*
Y8700900D01*
X11639200Y10938400D02*
X11664200D01*
X11651700Y10925900D02*
Y10950900D01*
X11639200Y10438400D02*
X11664200D01*
X11651700Y10425900D02*
Y10450900D01*
X11639200Y9938400D02*
X11664200D01*
X11651700Y9925900D02*
Y9950900D01*
X11639200Y9688400D02*
X11664200D01*
X11651700Y9675900D02*
Y9700900D01*
X11639200Y9438400D02*
X11664200D01*
X11651700Y9425900D02*
Y9450900D01*
X11639200Y9188400D02*
X11664200D01*
X11651700Y9175900D02*
Y9200900D01*
X11639200Y8688400D02*
X11664200D01*
X11651700Y8675900D02*
Y8700900D01*
X11389200Y9688400D02*
X11414200D01*
X11401700Y9675900D02*
Y9700900D01*
X11389200Y9188400D02*
X11414200D01*
X11401700Y9175900D02*
Y9200900D01*
X11389200Y8938400D02*
X11414200D01*
X11401700Y8925900D02*
Y8950900D01*
X11389200Y8688400D02*
X11414200D01*
X11401700Y8675900D02*
Y8700900D01*
X11139200Y11688400D02*
X11164200D01*
X11151700Y11675900D02*
Y11700900D01*
X11139200Y9938400D02*
X11164200D01*
X11151700Y9925900D02*
Y9950900D01*
X11139200Y9688400D02*
X11164200D01*
X11151700Y9675900D02*
Y9700900D01*
X11139200Y8938400D02*
X11164200D01*
X11151700Y8925900D02*
Y8950900D01*
X11139200Y8688400D02*
X11164200D01*
X11151700Y8675900D02*
Y8700900D01*
X10889200Y12188400D02*
X10914200D01*
X10901700Y12175900D02*
Y12200900D01*
X10889200Y10688400D02*
X10914200D01*
X10901700Y10675900D02*
Y10700900D01*
X10889200Y10438400D02*
X10914200D01*
X10901700Y10425900D02*
Y10450900D01*
X10889200Y9938400D02*
X10914200D01*
X10901700Y9925900D02*
Y9950900D01*
X10889200Y9688400D02*
X10914200D01*
X10901700Y9675900D02*
Y9700900D01*
X10889200Y8938400D02*
X10914200D01*
X10901700Y8925900D02*
Y8950900D01*
X10639200Y12188400D02*
X10664200D01*
X10651700Y12175900D02*
Y12200900D01*
X10639200Y11938400D02*
X10664200D01*
X10651700Y11925900D02*
Y11950900D01*
X10639200Y10688400D02*
X10664200D01*
X10651700Y10675900D02*
Y10700900D01*
X10639200Y10438400D02*
X10664200D01*
X10651700Y10425900D02*
Y10450900D01*
X10639200Y9938400D02*
X10664200D01*
X10651700Y9925900D02*
Y9950900D01*
X10639200Y9688400D02*
X10664200D01*
X10651700Y9675900D02*
Y9700900D01*
X10639200Y9188400D02*
X10664200D01*
X10651700Y9175900D02*
Y9200900D01*
X10389200Y12188400D02*
X10414200D01*
X10401700Y12175900D02*
Y12200900D01*
X10389200Y11938400D02*
X10414200D01*
X10401700Y11925900D02*
Y11950900D01*
X10389200Y10938400D02*
X10414200D01*
X10401700Y10925900D02*
Y10950900D01*
X10389200Y10688400D02*
X10414200D01*
X10401700Y10675900D02*
Y10700900D01*
X10389200Y10438400D02*
X10414200D01*
X10401700Y10425900D02*
Y10450900D01*
X10389200Y9688400D02*
X10414200D01*
X10401700Y9675900D02*
Y9700900D01*
X10389200Y9188400D02*
X10414200D01*
X10401700Y9175900D02*
Y9200900D01*
X10139200Y12188400D02*
X10164200D01*
X10151700Y12175900D02*
Y12200900D01*
X10139200Y10938400D02*
X10164200D01*
X10151700Y10925900D02*
Y10950900D01*
X10139200Y10688400D02*
X10164200D01*
X10151700Y10675900D02*
Y10700900D01*
X10139200Y10438400D02*
X10164200D01*
X10151700Y10425900D02*
Y10450900D01*
X10139200Y9438400D02*
X10164200D01*
X10151700Y9425900D02*
Y9450900D01*
X10139200Y9188400D02*
X10164200D01*
X10151700Y9175900D02*
Y9200900D01*
X9889200Y12188400D02*
X9914200D01*
X9901700Y12175900D02*
Y12200900D01*
X9889200Y11938400D02*
X9914200D01*
X9901700Y11925900D02*
Y11950900D01*
X9889200Y10938400D02*
X9914200D01*
X9901700Y10925900D02*
Y10950900D01*
X9889200Y10688400D02*
X9914200D01*
X9901700Y10675900D02*
Y10700900D01*
X9889200Y10438400D02*
X9914200D01*
X9901700Y10425900D02*
Y10450900D01*
X9889200Y9688400D02*
X9914200D01*
X9901700Y9675900D02*
Y9700900D01*
X9889200Y9438400D02*
X9914200D01*
X9901700Y9425900D02*
Y9450900D01*
X9889200Y9188400D02*
X9914200D01*
X9901700Y9175900D02*
Y9200900D01*
X9889200Y8938400D02*
X9914200D01*
X9901700Y8925900D02*
Y8950900D01*
X9639200Y12188400D02*
X9664200D01*
X9651700Y12175900D02*
Y12200900D01*
X9639200Y11938400D02*
X9664200D01*
X9651700Y11925900D02*
Y11950900D01*
X9639200Y10938400D02*
X9664200D01*
X9651700Y10925900D02*
Y10950900D01*
X9639200Y10688400D02*
X9664200D01*
X9651700Y10675900D02*
Y10700900D01*
X9639200Y10438400D02*
X9664200D01*
X9651700Y10425900D02*
Y10450900D01*
X9639200Y9688400D02*
X9664200D01*
X9651700Y9675900D02*
Y9700900D01*
X9639200Y9438400D02*
X9664200D01*
X9651700Y9425900D02*
Y9450900D01*
X9639200Y9188400D02*
X9664200D01*
X9651700Y9175900D02*
Y9200900D01*
X9639200Y8938400D02*
X9664200D01*
X9651700Y8925900D02*
Y8950900D01*
X9639200Y8688400D02*
X9664200D01*
X9651700Y8675900D02*
Y8700900D01*
X9389200Y11938400D02*
X9414200D01*
X9401700Y11925900D02*
Y11950900D01*
X9389200Y11188400D02*
X9414200D01*
X9401700Y11175900D02*
Y11200900D01*
X9389200Y10938400D02*
X9414200D01*
X9401700Y10925900D02*
Y10950900D01*
X9389200Y10688400D02*
X9414200D01*
X9401700Y10675900D02*
Y10700900D01*
X9389200Y10188400D02*
X9414200D01*
X9401700Y10175900D02*
Y10200900D01*
X9389200Y9938400D02*
X9414200D01*
X9401700Y9925900D02*
Y9950900D01*
X9389200Y9688400D02*
X9414200D01*
X9401700Y9675900D02*
Y9700900D01*
X9389200Y9438400D02*
X9414200D01*
X9401700Y9425900D02*
Y9450900D01*
X9389200Y9188400D02*
X9414200D01*
X9401700Y9175900D02*
Y9200900D01*
X9389200Y8938400D02*
X9414200D01*
X9401700Y8925900D02*
Y8950900D01*
X9389200Y8688400D02*
X9414200D01*
X9401700Y8675900D02*
Y8700900D01*
X9139200Y10938400D02*
X9164200D01*
X9151700Y10925900D02*
Y10950900D01*
X9139200Y10688400D02*
X9164200D01*
X9151700Y10675900D02*
Y10700900D01*
X9139200Y10188400D02*
X9164200D01*
X9151700Y10175900D02*
Y10200900D01*
X9139200Y9938400D02*
X9164200D01*
X9151700Y9925900D02*
Y9950900D01*
X9139200Y9688400D02*
X9164200D01*
X9151700Y9675900D02*
Y9700900D01*
X9139200Y9438400D02*
X9164200D01*
X9151700Y9425900D02*
Y9450900D01*
X9139200Y9188400D02*
X9164200D01*
X9151700Y9175900D02*
Y9200900D01*
X9139200Y8938400D02*
X9164200D01*
X9151700Y8925900D02*
Y8950900D01*
X9139200Y8688400D02*
X9164200D01*
X9151700Y8675900D02*
Y8700900D01*
X8889200Y11938400D02*
X8914200D01*
X8901700Y11925900D02*
Y11950900D01*
X8889200Y11688400D02*
X8914200D01*
X8901700Y11675900D02*
Y11700900D01*
X8889200Y11438400D02*
X8914200D01*
X8901700Y11425900D02*
Y11450900D01*
X8889200Y11188400D02*
X8914200D01*
X8901700Y11175900D02*
Y11200900D01*
X8889200Y10938400D02*
X8914200D01*
X8901700Y10925900D02*
Y10950900D01*
X8889200Y10688400D02*
X8914200D01*
X8901700Y10675900D02*
Y10700900D01*
X8889200Y10438400D02*
X8914200D01*
X8901700Y10425900D02*
Y10450900D01*
X8889200Y9688400D02*
X8914200D01*
X8901700Y9675900D02*
Y9700900D01*
X8889200Y9438400D02*
X8914200D01*
X8901700Y9425900D02*
Y9450900D01*
X8889200Y9188400D02*
X8914200D01*
X8901700Y9175900D02*
Y9200900D01*
X8889200Y8938400D02*
X8914200D01*
X8901700Y8925900D02*
Y8950900D01*
X8889200Y8688400D02*
X8914200D01*
X8901700Y8675900D02*
Y8700900D01*
X8639200Y12188400D02*
X8664200D01*
X8651700Y12175900D02*
Y12200900D01*
X8639200Y11938400D02*
X8664200D01*
X8651700Y11925900D02*
Y11950900D01*
X8639200Y11688400D02*
X8664200D01*
X8651700Y11675900D02*
Y11700900D01*
X8639200Y11438400D02*
X8664200D01*
X8651700Y11425900D02*
Y11450900D01*
X8639200Y11188400D02*
X8664200D01*
X8651700Y11175900D02*
Y11200900D01*
X8639200Y10938400D02*
X8664200D01*
X8651700Y10925900D02*
Y10950900D01*
X8639200Y10688400D02*
X8664200D01*
X8651700Y10675900D02*
Y10700900D01*
X8639200Y10438400D02*
X8664200D01*
X8651700Y10425900D02*
Y10450900D01*
X8639200Y9688400D02*
X8664200D01*
X8651700Y9675900D02*
Y9700900D01*
X8639200Y9438400D02*
X8664200D01*
X8651700Y9425900D02*
Y9450900D01*
X8639200Y9188400D02*
X8664200D01*
X8651700Y9175900D02*
Y9200900D01*
X8639200Y8938400D02*
X8664200D01*
X8651700Y8925900D02*
Y8950900D01*
X8639200Y8688400D02*
X8664200D01*
X8651700Y8675900D02*
Y8700900D01*
X8389200Y12188400D02*
X8414200D01*
X8401700Y12175900D02*
Y12200900D01*
X8389200Y11938400D02*
X8414200D01*
X8401700Y11925900D02*
Y11950900D01*
X8389200Y11688400D02*
X8414200D01*
X8401700Y11675900D02*
Y11700900D01*
X8389200Y11438400D02*
X8414200D01*
X8401700Y11425900D02*
Y11450900D01*
X8389200Y11188400D02*
X8414200D01*
X8401700Y11175900D02*
Y11200900D01*
X8389200Y10938400D02*
X8414200D01*
X8401700Y10925900D02*
Y10950900D01*
X8389200Y10438400D02*
X8414200D01*
X8401700Y10425900D02*
Y10450900D01*
X8389200Y9188400D02*
X8414200D01*
X8401700Y9175900D02*
Y9200900D01*
X8389200Y8938400D02*
X8414200D01*
X8401700Y8925900D02*
Y8950900D01*
X8389200Y8688400D02*
X8414200D01*
X8401700Y8675900D02*
Y8700900D01*
X8139200Y12188400D02*
X8164200D01*
X8151700Y12175900D02*
Y12200900D01*
X8139200Y11938400D02*
X8164200D01*
X8151700Y11925900D02*
Y11950900D01*
X8139200Y11688400D02*
X8164200D01*
X8151700Y11675900D02*
Y11700900D01*
X8139200Y11438400D02*
X8164200D01*
X8151700Y11425900D02*
Y11450900D01*
X8139200Y11188400D02*
X8164200D01*
X8151700Y11175900D02*
Y11200900D01*
X8139200Y10938400D02*
X8164200D01*
X8151700Y10925900D02*
Y10950900D01*
X8139200Y9688400D02*
X8164200D01*
X8151700Y9675900D02*
Y9700900D01*
X8139200Y8938400D02*
X8164200D01*
X8151700Y8925900D02*
Y8950900D01*
X8139200Y8688400D02*
X8164200D01*
X8151700Y8675900D02*
Y8700900D01*
X7889200Y12188400D02*
X7914200D01*
X7901700Y12175900D02*
Y12200900D01*
X7889200Y11938400D02*
X7914200D01*
X7901700Y11925900D02*
Y11950900D01*
X7889200Y11688400D02*
X7914200D01*
X7901700Y11675900D02*
Y11700900D01*
X7889200Y11438400D02*
X7914200D01*
X7901700Y11425900D02*
Y11450900D01*
X7889200Y11188400D02*
X7914200D01*
X7901700Y11175900D02*
Y11200900D01*
X7889200Y10938400D02*
X7914200D01*
X7901700Y10925900D02*
Y10950900D01*
X7889200Y10438400D02*
X7914200D01*
X7901700Y10425900D02*
Y10450900D01*
X7889200Y10188400D02*
X7914200D01*
X7901700Y10175900D02*
Y10200900D01*
X7889200Y9938400D02*
X7914200D01*
X7901700Y9925900D02*
Y9950900D01*
X7889200Y9688400D02*
X7914200D01*
X7901700Y9675900D02*
Y9700900D01*
X7889200Y9188400D02*
X7914200D01*
X7901700Y9175900D02*
Y9200900D01*
X7889200Y8938400D02*
X7914200D01*
X7901700Y8925900D02*
Y8950900D01*
X7889200Y8688400D02*
X7914200D01*
X7901700Y8675900D02*
Y8700900D01*
X8814000Y10033000D02*
X8839000D01*
X8826500Y10020500D02*
Y10045500D01*
X10332209Y9411536D02*
X10357209D01*
X10344709Y9399036D02*
Y9424036D01*
X10430497Y9509824D02*
X10455496D01*
X10442997Y9497324D02*
Y9522323D01*
X8115500Y10170100D02*
X8140500D01*
X8128000Y10157600D02*
Y10182600D01*
X8648900Y10170100D02*
X8673900D01*
X8661400Y10157600D02*
Y10182600D01*
X8115500Y9969500D02*
X8140500D01*
X8128000Y9957000D02*
Y9982000D01*
X8572700Y9969500D02*
X8597700D01*
X8585200Y9957000D02*
Y9982000D01*
X14563499Y9434145D02*
X14738499D01*
X14650999Y9346646D02*
Y9521645D01*
X14563499Y10523846D02*
X14738499D01*
X14650999Y10436346D02*
Y10611346D01*
X17803200Y12293600D02*
X17893201D01*
X17848199Y12248600D02*
Y12338600D01*
X18057201Y12293600D02*
X18147200D01*
X18102200Y12248600D02*
Y12338600D01*
X15553700Y12293600D02*
X15643700D01*
X15598700Y12248600D02*
Y12338600D01*
X15807700Y12293600D02*
X15897701D01*
X15852699Y12248600D02*
Y12338600D01*
X19459801Y12188400D02*
X19484801D01*
X19472301Y12175900D02*
Y12200900D01*
X19459801Y11438400D02*
X19484801D01*
X19472301Y11425900D02*
Y11450900D01*
X19459801Y11188400D02*
X19484801D01*
X19472301Y11175900D02*
Y11200900D01*
X19459801Y10938400D02*
X19484801D01*
X19472301Y10925900D02*
Y10950900D01*
X19459801Y10688400D02*
X19484801D01*
X19472301Y10675900D02*
Y10700900D01*
X19459801Y10438400D02*
X19484801D01*
X19472301Y10425900D02*
Y10450900D01*
X19459801Y10188400D02*
X19484801D01*
X19472301Y10175900D02*
Y10200900D01*
X19459801Y9938400D02*
X19484801D01*
X19472301Y9925900D02*
Y9950900D01*
X19459801Y9688400D02*
X19484801D01*
X19472301Y9675900D02*
Y9700900D01*
X19459801Y9438400D02*
X19484801D01*
X19472301Y9425900D02*
Y9450900D01*
X19459801Y9188400D02*
X19484801D01*
X19472301Y9175900D02*
Y9200900D01*
X19459801Y8938400D02*
X19484801D01*
X19472301Y8925900D02*
Y8950900D01*
X19459801Y8688400D02*
X19484801D01*
X19472301Y8675900D02*
Y8700900D01*
X19209801Y12188400D02*
X19234801D01*
X19222301Y12175900D02*
Y12200900D01*
X19209801Y11938400D02*
X19234801D01*
X19222301Y11925900D02*
Y11950900D01*
X19209801Y11688400D02*
X19234801D01*
X19222301Y11675900D02*
Y11700900D01*
X19209801Y11438400D02*
X19234801D01*
X19222301Y11425900D02*
Y11450900D01*
X19209801Y11188400D02*
X19234801D01*
X19222301Y11175900D02*
Y11200900D01*
X19209801Y10938400D02*
X19234801D01*
X19222301Y10925900D02*
Y10950900D01*
X19209801Y10688400D02*
X19234801D01*
X19222301Y10675900D02*
Y10700900D01*
X19209801Y10438400D02*
X19234801D01*
X19222301Y10425900D02*
Y10450900D01*
X19209801Y10188400D02*
X19234801D01*
X19222301Y10175900D02*
Y10200900D01*
X19209801Y9938400D02*
X19234801D01*
X19222301Y9925900D02*
Y9950900D01*
X19209801Y9688400D02*
X19234801D01*
X19222301Y9675900D02*
Y9700900D01*
X19209801Y9438400D02*
X19234801D01*
X19222301Y9425900D02*
Y9450900D01*
X19209801Y9188400D02*
X19234801D01*
X19222301Y9175900D02*
Y9200900D01*
X19209801Y8688400D02*
X19234801D01*
X19222301Y8675900D02*
Y8700900D01*
X18959801Y12188400D02*
X18984801D01*
X18972301Y12175900D02*
Y12200900D01*
X18959801Y11938400D02*
X18984801D01*
X18972301Y11925900D02*
Y11950900D01*
X18959801Y11688400D02*
X18984801D01*
X18972301Y11675900D02*
Y11700900D01*
X18959801Y11438400D02*
X18984801D01*
X18972301Y11425900D02*
Y11450900D01*
X18959801Y10688400D02*
X18984801D01*
X18972301Y10675900D02*
Y10700900D01*
X18959801Y10438400D02*
X18984801D01*
X18972301Y10425900D02*
Y10450900D01*
X18959801Y8688400D02*
X18984801D01*
X18972301Y8675900D02*
Y8700900D01*
X18709801Y11938400D02*
X18734801D01*
X18722301Y11925900D02*
Y11950900D01*
X18709801Y11688400D02*
X18734801D01*
X18722301Y11675900D02*
Y11700900D01*
X18709801Y11438400D02*
X18734801D01*
X18722301Y11425900D02*
Y11450900D01*
X18709801Y10688400D02*
X18734801D01*
X18722301Y10675900D02*
Y10700900D01*
X18709801Y10438400D02*
X18734801D01*
X18722301Y10425900D02*
Y10450900D01*
X18709801Y9688400D02*
X18734801D01*
X18722301Y9675900D02*
Y9700900D01*
X18709801Y9438400D02*
X18734801D01*
X18722301Y9425900D02*
Y9450900D01*
X18709801Y9188400D02*
X18734801D01*
X18722301Y9175900D02*
Y9200900D01*
X18709801Y8688400D02*
X18734801D01*
X18722301Y8675900D02*
Y8700900D01*
X18459801Y11938400D02*
X18484801D01*
X18472301Y11925900D02*
Y11950900D01*
X18459801Y11688400D02*
X18484801D01*
X18472301Y11675900D02*
Y11700900D01*
X18459801Y11438400D02*
X18484801D01*
X18472301Y11425900D02*
Y11450900D01*
X18459801Y11188400D02*
X18484801D01*
X18472301Y11175900D02*
Y11200900D01*
X18459801Y10938400D02*
X18484801D01*
X18472301Y10925900D02*
Y10950900D01*
X18459801Y10688400D02*
X18484801D01*
X18472301Y10675900D02*
Y10700900D01*
X18459801Y10438400D02*
X18484801D01*
X18472301Y10425900D02*
Y10450900D01*
X18459801Y10188400D02*
X18484801D01*
X18472301Y10175900D02*
Y10200900D01*
X18459801Y9938400D02*
X18484801D01*
X18472301Y9925900D02*
Y9950900D01*
X18459801Y9688400D02*
X18484801D01*
X18472301Y9675900D02*
Y9700900D01*
X18459801Y9438400D02*
X18484801D01*
X18472301Y9425900D02*
Y9450900D01*
X18459801Y9188400D02*
X18484801D01*
X18472301Y9175900D02*
Y9200900D01*
X18459801Y8688400D02*
X18484801D01*
X18472301Y8675900D02*
Y8700900D01*
X18209801Y10938400D02*
X18234801D01*
X18222301Y10925900D02*
Y10950900D01*
X18209801Y10438400D02*
X18234801D01*
X18222301Y10425900D02*
Y10450900D01*
X18209801Y9938400D02*
X18234801D01*
X18222301Y9925900D02*
Y9950900D01*
X18209801Y9688400D02*
X18234801D01*
X18222301Y9675900D02*
Y9700900D01*
X18209801Y9438400D02*
X18234801D01*
X18222301Y9425900D02*
Y9450900D01*
X18209801Y9188400D02*
X18234801D01*
X18222301Y9175900D02*
Y9200900D01*
X18209801Y8688400D02*
X18234801D01*
X18222301Y8675900D02*
Y8700900D01*
X17959801Y9688400D02*
X17984801D01*
X17972301Y9675900D02*
Y9700900D01*
X17959801Y9188400D02*
X17984801D01*
X17972301Y9175900D02*
Y9200900D01*
X17959801Y8938400D02*
X17984801D01*
X17972301Y8925900D02*
Y8950900D01*
X17959801Y8688400D02*
X17984801D01*
X17972301Y8675900D02*
Y8700900D01*
X17709801Y11688400D02*
X17734801D01*
X17722301Y11675900D02*
Y11700900D01*
X17709801Y9938400D02*
X17734801D01*
X17722301Y9925900D02*
Y9950900D01*
X17709801Y9688400D02*
X17734801D01*
X17722301Y9675900D02*
Y9700900D01*
X17709801Y8938400D02*
X17734801D01*
X17722301Y8925900D02*
Y8950900D01*
X17709801Y8688400D02*
X17734801D01*
X17722301Y8675900D02*
Y8700900D01*
X17459801Y12188400D02*
X17484801D01*
X17472301Y12175900D02*
Y12200900D01*
X17459801Y10688400D02*
X17484801D01*
X17472301Y10675900D02*
Y10700900D01*
X17459801Y10438400D02*
X17484801D01*
X17472301Y10425900D02*
Y10450900D01*
X17459801Y9938400D02*
X17484801D01*
X17472301Y9925900D02*
Y9950900D01*
X17459801Y9688400D02*
X17484801D01*
X17472301Y9675900D02*
Y9700900D01*
X17459801Y8938400D02*
X17484801D01*
X17472301Y8925900D02*
Y8950900D01*
X17209801Y12188400D02*
X17234801D01*
X17222301Y12175900D02*
Y12200900D01*
X17209801Y11938400D02*
X17234801D01*
X17222301Y11925900D02*
Y11950900D01*
X17209801Y10688400D02*
X17234801D01*
X17222301Y10675900D02*
Y10700900D01*
X17209801Y10438400D02*
X17234801D01*
X17222301Y10425900D02*
Y10450900D01*
X17209801Y9938400D02*
X17234801D01*
X17222301Y9925900D02*
Y9950900D01*
X17209801Y9688400D02*
X17234801D01*
X17222301Y9675900D02*
Y9700900D01*
X17209801Y9188400D02*
X17234801D01*
X17222301Y9175900D02*
Y9200900D01*
X16959801Y12188400D02*
X16984801D01*
X16972301Y12175900D02*
Y12200900D01*
X16959801Y11938400D02*
X16984801D01*
X16972301Y11925900D02*
Y11950900D01*
X16959801Y10938400D02*
X16984801D01*
X16972301Y10925900D02*
Y10950900D01*
X16959801Y10688400D02*
X16984801D01*
X16972301Y10675900D02*
Y10700900D01*
X16959801Y10438400D02*
X16984801D01*
X16972301Y10425900D02*
Y10450900D01*
X16959801Y9688400D02*
X16984801D01*
X16972301Y9675900D02*
Y9700900D01*
X16959801Y9188400D02*
X16984801D01*
X16972301Y9175900D02*
Y9200900D01*
X16709801Y12188400D02*
X16734801D01*
X16722301Y12175900D02*
Y12200900D01*
X16709801Y10938400D02*
X16734801D01*
X16722301Y10925900D02*
Y10950900D01*
X16709801Y10688400D02*
X16734801D01*
X16722301Y10675900D02*
Y10700900D01*
X16709801Y10438400D02*
X16734801D01*
X16722301Y10425900D02*
Y10450900D01*
X16709801Y9438400D02*
X16734801D01*
X16722301Y9425900D02*
Y9450900D01*
X16709801Y9188400D02*
X16734801D01*
X16722301Y9175900D02*
Y9200900D01*
X16459801Y12188400D02*
X16484801D01*
X16472301Y12175900D02*
Y12200900D01*
X16459801Y11938400D02*
X16484801D01*
X16472301Y11925900D02*
Y11950900D01*
X16459801Y10938400D02*
X16484801D01*
X16472301Y10925900D02*
Y10950900D01*
X16459801Y10688400D02*
X16484801D01*
X16472301Y10675900D02*
Y10700900D01*
X16459801Y10438400D02*
X16484801D01*
X16472301Y10425900D02*
Y10450900D01*
X16459801Y9688400D02*
X16484801D01*
X16472301Y9675900D02*
Y9700900D01*
X16459801Y9438400D02*
X16484801D01*
X16472301Y9425900D02*
Y9450900D01*
X16459801Y9188400D02*
X16484801D01*
X16472301Y9175900D02*
Y9200900D01*
X16459801Y8938400D02*
X16484801D01*
X16472301Y8925900D02*
Y8950900D01*
X16209801Y12188400D02*
X16234801D01*
X16222301Y12175900D02*
Y12200900D01*
X16209801Y11938400D02*
X16234801D01*
X16222301Y11925900D02*
Y11950900D01*
X16209801Y10938400D02*
X16234801D01*
X16222301Y10925900D02*
Y10950900D01*
X16209801Y10688400D02*
X16234801D01*
X16222301Y10675900D02*
Y10700900D01*
X16209801Y10438400D02*
X16234801D01*
X16222301Y10425900D02*
Y10450900D01*
X16209801Y9688400D02*
X16234801D01*
X16222301Y9675900D02*
Y9700900D01*
X16209801Y9438400D02*
X16234801D01*
X16222301Y9425900D02*
Y9450900D01*
X16209801Y9188400D02*
X16234801D01*
X16222301Y9175900D02*
Y9200900D01*
X16209801Y8938400D02*
X16234801D01*
X16222301Y8925900D02*
Y8950900D01*
X16209801Y8688400D02*
X16234801D01*
X16222301Y8675900D02*
Y8700900D01*
X15959801Y11938400D02*
X15984801D01*
X15972301Y11925900D02*
Y11950900D01*
X15959801Y11188400D02*
X15984801D01*
X15972301Y11175900D02*
Y11200900D01*
X15959801Y10938400D02*
X15984801D01*
X15972301Y10925900D02*
Y10950900D01*
X15959801Y10688400D02*
X15984801D01*
X15972301Y10675900D02*
Y10700900D01*
X15959801Y10188400D02*
X15984801D01*
X15972301Y10175900D02*
Y10200900D01*
X15959801Y9938400D02*
X15984801D01*
X15972301Y9925900D02*
Y9950900D01*
X15959801Y9688400D02*
X15984801D01*
X15972301Y9675900D02*
Y9700900D01*
X15959801Y9438400D02*
X15984801D01*
X15972301Y9425900D02*
Y9450900D01*
X15959801Y9188400D02*
X15984801D01*
X15972301Y9175900D02*
Y9200900D01*
X15959801Y8938400D02*
X15984801D01*
X15972301Y8925900D02*
Y8950900D01*
X15959801Y8688400D02*
X15984801D01*
X15972301Y8675900D02*
Y8700900D01*
X15709801Y10938400D02*
X15734801D01*
X15722301Y10925900D02*
Y10950900D01*
X15709801Y10688400D02*
X15734801D01*
X15722301Y10675900D02*
Y10700900D01*
X15709801Y10188400D02*
X15734801D01*
X15722301Y10175900D02*
Y10200900D01*
X15709801Y9938400D02*
X15734801D01*
X15722301Y9925900D02*
Y9950900D01*
X15709801Y9688400D02*
X15734801D01*
X15722301Y9675900D02*
Y9700900D01*
X15709801Y9438400D02*
X15734801D01*
X15722301Y9425900D02*
Y9450900D01*
X15709801Y9188400D02*
X15734801D01*
X15722301Y9175900D02*
Y9200900D01*
X15709801Y8938400D02*
X15734801D01*
X15722301Y8925900D02*
Y8950900D01*
X15709801Y8688400D02*
X15734801D01*
X15722301Y8675900D02*
Y8700900D01*
X15459801Y11938400D02*
X15484801D01*
X15472301Y11925900D02*
Y11950900D01*
X15459801Y11688400D02*
X15484801D01*
X15472301Y11675900D02*
Y11700900D01*
X15459801Y11438400D02*
X15484801D01*
X15472301Y11425900D02*
Y11450900D01*
X15459801Y11188400D02*
X15484801D01*
X15472301Y11175900D02*
Y11200900D01*
X15459801Y10938400D02*
X15484801D01*
X15472301Y10925900D02*
Y10950900D01*
X15459801Y10688400D02*
X15484801D01*
X15472301Y10675900D02*
Y10700900D01*
X15459801Y10438400D02*
X15484801D01*
X15472301Y10425900D02*
Y10450900D01*
X15459801Y9688400D02*
X15484801D01*
X15472301Y9675900D02*
Y9700900D01*
X15459801Y9438400D02*
X15484801D01*
X15472301Y9425900D02*
Y9450900D01*
X15459801Y9188400D02*
X15484801D01*
X15472301Y9175900D02*
Y9200900D01*
X15459801Y8938400D02*
X15484801D01*
X15472301Y8925900D02*
Y8950900D01*
X15459801Y8688400D02*
X15484801D01*
X15472301Y8675900D02*
Y8700900D01*
X15209801Y12188400D02*
X15234801D01*
X15222301Y12175900D02*
Y12200900D01*
X15209801Y11938400D02*
X15234801D01*
X15222301Y11925900D02*
Y11950900D01*
X15209801Y11688400D02*
X15234801D01*
X15222301Y11675900D02*
Y11700900D01*
X15209801Y11438400D02*
X15234801D01*
X15222301Y11425900D02*
Y11450900D01*
X15209801Y11188400D02*
X15234801D01*
X15222301Y11175900D02*
Y11200900D01*
X15209801Y10938400D02*
X15234801D01*
X15222301Y10925900D02*
Y10950900D01*
X15209801Y10688400D02*
X15234801D01*
X15222301Y10675900D02*
Y10700900D01*
X15209801Y10438400D02*
X15234801D01*
X15222301Y10425900D02*
Y10450900D01*
X15209801Y9688400D02*
X15234801D01*
X15222301Y9675900D02*
Y9700900D01*
X15209801Y9438400D02*
X15234801D01*
X15222301Y9425900D02*
Y9450900D01*
X15209801Y9188400D02*
X15234801D01*
X15222301Y9175900D02*
Y9200900D01*
X15209801Y8938400D02*
X15234801D01*
X15222301Y8925900D02*
Y8950900D01*
X15209801Y8688400D02*
X15234801D01*
X15222301Y8675900D02*
Y8700900D01*
X14959801Y12188400D02*
X14984801D01*
X14972301Y12175900D02*
Y12200900D01*
X14959801Y11938400D02*
X14984801D01*
X14972301Y11925900D02*
Y11950900D01*
X14959801Y11688400D02*
X14984801D01*
X14972301Y11675900D02*
Y11700900D01*
X14959801Y11438400D02*
X14984801D01*
X14972301Y11425900D02*
Y11450900D01*
X14959801Y11188400D02*
X14984801D01*
X14972301Y11175900D02*
Y11200900D01*
X14959801Y10938400D02*
X14984801D01*
X14972301Y10925900D02*
Y10950900D01*
X14959801Y10438400D02*
X14984801D01*
X14972301Y10425900D02*
Y10450900D01*
X14959801Y9188400D02*
X14984801D01*
X14972301Y9175900D02*
Y9200900D01*
X14959801Y8938400D02*
X14984801D01*
X14972301Y8925900D02*
Y8950900D01*
X14959801Y8688400D02*
X14984801D01*
X14972301Y8675900D02*
Y8700900D01*
X14709801Y12188400D02*
X14734801D01*
X14722301Y12175900D02*
Y12200900D01*
X14709801Y11938400D02*
X14734801D01*
X14722301Y11925900D02*
Y11950900D01*
X14709801Y11688400D02*
X14734801D01*
X14722301Y11675900D02*
Y11700900D01*
X14709801Y11438400D02*
X14734801D01*
X14722301Y11425900D02*
Y11450900D01*
X14709801Y11188400D02*
X14734801D01*
X14722301Y11175900D02*
Y11200900D01*
X14709801Y10938400D02*
X14734801D01*
X14722301Y10925900D02*
Y10950900D01*
X14709801Y9688400D02*
X14734801D01*
X14722301Y9675900D02*
Y9700900D01*
X14709801Y8938400D02*
X14734801D01*
X14722301Y8925900D02*
Y8950900D01*
X14709801Y8688400D02*
X14734801D01*
X14722301Y8675900D02*
Y8700900D01*
X14459801Y12188400D02*
X14484801D01*
X14472301Y12175900D02*
Y12200900D01*
X14459801Y11938400D02*
X14484801D01*
X14472301Y11925900D02*
Y11950900D01*
X14459801Y11688400D02*
X14484801D01*
X14472301Y11675900D02*
Y11700900D01*
X14459801Y11438400D02*
X14484801D01*
X14472301Y11425900D02*
Y11450900D01*
X14459801Y11188400D02*
X14484801D01*
X14472301Y11175900D02*
Y11200900D01*
X14459801Y10938400D02*
X14484801D01*
X14472301Y10925900D02*
Y10950900D01*
X14459801Y10438400D02*
X14484801D01*
X14472301Y10425900D02*
Y10450900D01*
X14459801Y10188400D02*
X14484801D01*
X14472301Y10175900D02*
Y10200900D01*
X14459801Y9938400D02*
X14484801D01*
X14472301Y9925900D02*
Y9950900D01*
X14459801Y9688400D02*
X14484801D01*
X14472301Y9675900D02*
Y9700900D01*
X14459801Y9188400D02*
X14484801D01*
X14472301Y9175900D02*
Y9200900D01*
X14459801Y8938400D02*
X14484801D01*
X14472301Y8925900D02*
Y8950900D01*
X14459801Y8688400D02*
X14484801D01*
X14472301Y8675900D02*
Y8700900D01*
X15384599Y10033000D02*
X15409599D01*
X15397099Y10020500D02*
Y10045500D01*
X16902809Y9411536D02*
X16927809D01*
X16915309Y9399036D02*
Y9424036D01*
X17001097Y9509824D02*
X17026097D01*
X17013597Y9497324D02*
Y9522323D01*
X14686099Y10170100D02*
X14711099D01*
X14698599Y10157600D02*
Y10182600D01*
X15219501Y10170100D02*
X15244501D01*
X15232001Y10157600D02*
Y10182600D01*
X14686099Y9969500D02*
X14711099D01*
X14698599Y9957000D02*
Y9982000D01*
X15143300Y9969500D02*
X15168300D01*
X15155800Y9957000D02*
Y9982000D01*
X7992900Y13934645D02*
X8167900D01*
X8080400Y13847147D02*
Y14022145D01*
X7992900Y15024345D02*
X8167900D01*
X8080400Y14936845D02*
Y15111845D01*
X11232600Y16794099D02*
X11322600D01*
X11277600Y16749100D02*
Y16839101D01*
X11486600Y16794099D02*
X11576600D01*
X11531600Y16749100D02*
Y16839101D01*
X8983100Y16794099D02*
X9073100D01*
X9028100Y16749100D02*
Y16839101D01*
X9237100Y16794099D02*
X9327100D01*
X9282100Y16749100D02*
Y16839101D01*
X12889201Y16688901D02*
X12914200D01*
X12901700Y16676401D02*
Y16701401D01*
X12889201Y15938901D02*
X12914200D01*
X12901700Y15926401D02*
Y15951401D01*
X12889201Y15688901D02*
X12914200D01*
X12901700Y15676401D02*
Y15701401D01*
X12889201Y15438901D02*
X12914200D01*
X12901700Y15426401D02*
Y15451401D01*
X12889201Y15188901D02*
X12914200D01*
X12901700Y15176401D02*
Y15201401D01*
X12889201Y14938901D02*
X12914200D01*
X12901700Y14926401D02*
Y14951401D01*
X12889201Y14688901D02*
X12914200D01*
X12901700Y14676401D02*
Y14701401D01*
X12889201Y14438901D02*
X12914200D01*
X12901700Y14426401D02*
Y14451401D01*
X12889201Y14188901D02*
X12914200D01*
X12901700Y14176401D02*
Y14201401D01*
X12889201Y13938901D02*
X12914200D01*
X12901700Y13926401D02*
Y13951401D01*
X12889201Y13688901D02*
X12914200D01*
X12901700Y13676401D02*
Y13701401D01*
X12889201Y13438901D02*
X12914200D01*
X12901700Y13426401D02*
Y13451401D01*
X12889201Y13188901D02*
X12914200D01*
X12901700Y13176401D02*
Y13201401D01*
X12639201Y16688901D02*
X12664200D01*
X12651700Y16676401D02*
Y16701401D01*
X12639201Y16438901D02*
X12664200D01*
X12651700Y16426401D02*
Y16451401D01*
X12639201Y16188901D02*
X12664200D01*
X12651700Y16176401D02*
Y16201401D01*
X12639201Y15938901D02*
X12664200D01*
X12651700Y15926401D02*
Y15951401D01*
X12639201Y15688901D02*
X12664200D01*
X12651700Y15676401D02*
Y15701401D01*
X12639201Y15438901D02*
X12664200D01*
X12651700Y15426401D02*
Y15451401D01*
X12639201Y15188901D02*
X12664200D01*
X12651700Y15176401D02*
Y15201401D01*
X12639201Y14938901D02*
X12664200D01*
X12651700Y14926401D02*
Y14951401D01*
X12639201Y14688901D02*
X12664200D01*
X12651700Y14676401D02*
Y14701401D01*
X12639201Y14438901D02*
X12664200D01*
X12651700Y14426401D02*
Y14451401D01*
X12639201Y14188901D02*
X12664200D01*
X12651700Y14176401D02*
Y14201401D01*
X12639201Y13938901D02*
X12664200D01*
X12651700Y13926401D02*
Y13951401D01*
X12639201Y13688901D02*
X12664200D01*
X12651700Y13676401D02*
Y13701401D01*
X12639201Y13188901D02*
X12664200D01*
X12651700Y13176401D02*
Y13201401D01*
X12389201Y16688901D02*
X12414200D01*
X12401700Y16676401D02*
Y16701401D01*
X12389201Y16438901D02*
X12414200D01*
X12401700Y16426401D02*
Y16451401D01*
X12389201Y16188901D02*
X12414200D01*
X12401700Y16176401D02*
Y16201401D01*
X12389201Y15938901D02*
X12414200D01*
X12401700Y15926401D02*
Y15951401D01*
X12389201Y15188901D02*
X12414200D01*
X12401700Y15176401D02*
Y15201401D01*
X12389201Y14938901D02*
X12414200D01*
X12401700Y14926401D02*
Y14951401D01*
X12389201Y13188901D02*
X12414200D01*
X12401700Y13176401D02*
Y13201401D01*
X12139201Y16438901D02*
X12164200D01*
X12151700Y16426401D02*
Y16451401D01*
X12139201Y16188901D02*
X12164200D01*
X12151700Y16176401D02*
Y16201401D01*
X12139201Y15938901D02*
X12164200D01*
X12151700Y15926401D02*
Y15951401D01*
X12139201Y15188901D02*
X12164200D01*
X12151700Y15176401D02*
Y15201401D01*
X12139201Y14938901D02*
X12164200D01*
X12151700Y14926401D02*
Y14951401D01*
X12139201Y14188901D02*
X12164200D01*
X12151700Y14176401D02*
Y14201401D01*
X12139201Y13938901D02*
X12164200D01*
X12151700Y13926401D02*
Y13951401D01*
X12139201Y13688901D02*
X12164200D01*
X12151700Y13676401D02*
Y13701401D01*
X12139201Y13188901D02*
X12164200D01*
X12151700Y13176401D02*
Y13201401D01*
X11889201Y16438901D02*
X11914200D01*
X11901700Y16426401D02*
Y16451401D01*
X11889201Y16188901D02*
X11914200D01*
X11901700Y16176401D02*
Y16201401D01*
X11889201Y15938901D02*
X11914200D01*
X11901700Y15926401D02*
Y15951401D01*
X11889201Y15688901D02*
X11914200D01*
X11901700Y15676401D02*
Y15701401D01*
X11889201Y15438901D02*
X11914200D01*
X11901700Y15426401D02*
Y15451401D01*
X11889201Y15188901D02*
X11914200D01*
X11901700Y15176401D02*
Y15201401D01*
X11889201Y14938901D02*
X11914200D01*
X11901700Y14926401D02*
Y14951401D01*
X11889201Y14688901D02*
X11914200D01*
X11901700Y14676401D02*
Y14701401D01*
X11889201Y14438901D02*
X11914200D01*
X11901700Y14426401D02*
Y14451401D01*
X11889201Y14188901D02*
X11914200D01*
X11901700Y14176401D02*
Y14201401D01*
X11889201Y13938901D02*
X11914200D01*
X11901700Y13926401D02*
Y13951401D01*
X11889201Y13688901D02*
X11914200D01*
X11901700Y13676401D02*
Y13701401D01*
X11889201Y13188901D02*
X11914200D01*
X11901700Y13176401D02*
Y13201401D01*
X11639200Y15438901D02*
X11664200D01*
X11651700Y15426401D02*
Y15451401D01*
X11639200Y14938901D02*
X11664200D01*
X11651700Y14926401D02*
Y14951401D01*
X11639200Y14438901D02*
X11664200D01*
X11651700Y14426401D02*
Y14451401D01*
X11639200Y14188901D02*
X11664200D01*
X11651700Y14176401D02*
Y14201401D01*
X11639200Y13938901D02*
X11664200D01*
X11651700Y13926401D02*
Y13951401D01*
X11639200Y13688901D02*
X11664200D01*
X11651700Y13676401D02*
Y13701401D01*
X11639200Y13188901D02*
X11664200D01*
X11651700Y13176401D02*
Y13201401D01*
X11389200Y14188901D02*
X11414200D01*
X11401700Y14176401D02*
Y14201401D01*
X11389200Y13688901D02*
X11414200D01*
X11401700Y13676401D02*
Y13701401D01*
X11389200Y13438901D02*
X11414200D01*
X11401700Y13426401D02*
Y13451401D01*
X11389200Y13188901D02*
X11414200D01*
X11401700Y13176401D02*
Y13201401D01*
X11139200Y16188901D02*
X11164200D01*
X11151700Y16176401D02*
Y16201401D01*
X11139200Y14438901D02*
X11164200D01*
X11151700Y14426401D02*
Y14451401D01*
X11139200Y14188901D02*
X11164200D01*
X11151700Y14176401D02*
Y14201401D01*
X11139200Y13438901D02*
X11164200D01*
X11151700Y13426401D02*
Y13451401D01*
X11139200Y13188901D02*
X11164200D01*
X11151700Y13176401D02*
Y13201401D01*
X10889200Y16688901D02*
X10914200D01*
X10901700Y16676401D02*
Y16701401D01*
X10889200Y15188901D02*
X10914200D01*
X10901700Y15176401D02*
Y15201401D01*
X10889200Y14938901D02*
X10914200D01*
X10901700Y14926401D02*
Y14951401D01*
X10889200Y14438901D02*
X10914200D01*
X10901700Y14426401D02*
Y14451401D01*
X10889200Y14188901D02*
X10914200D01*
X10901700Y14176401D02*
Y14201401D01*
X10889200Y13438901D02*
X10914200D01*
X10901700Y13426401D02*
Y13451401D01*
X10639200Y16688901D02*
X10664200D01*
X10651700Y16676401D02*
Y16701401D01*
X10639200Y16438901D02*
X10664200D01*
X10651700Y16426401D02*
Y16451401D01*
X10639200Y15188901D02*
X10664200D01*
X10651700Y15176401D02*
Y15201401D01*
X10639200Y14938901D02*
X10664200D01*
X10651700Y14926401D02*
Y14951401D01*
X10639200Y14438901D02*
X10664200D01*
X10651700Y14426401D02*
Y14451401D01*
X10639200Y14188901D02*
X10664200D01*
X10651700Y14176401D02*
Y14201401D01*
X10639200Y13688901D02*
X10664200D01*
X10651700Y13676401D02*
Y13701401D01*
X10389200Y16688901D02*
X10414200D01*
X10401700Y16676401D02*
Y16701401D01*
X10389200Y16438901D02*
X10414200D01*
X10401700Y16426401D02*
Y16451401D01*
X10389200Y15438901D02*
X10414200D01*
X10401700Y15426401D02*
Y15451401D01*
X10389200Y15188901D02*
X10414200D01*
X10401700Y15176401D02*
Y15201401D01*
X10389200Y14938901D02*
X10414200D01*
X10401700Y14926401D02*
Y14951401D01*
X10389200Y14188901D02*
X10414200D01*
X10401700Y14176401D02*
Y14201401D01*
X10389200Y13688901D02*
X10414200D01*
X10401700Y13676401D02*
Y13701401D01*
X10139200Y16688901D02*
X10164200D01*
X10151700Y16676401D02*
Y16701401D01*
X10139200Y15438901D02*
X10164200D01*
X10151700Y15426401D02*
Y15451401D01*
X10139200Y15188901D02*
X10164200D01*
X10151700Y15176401D02*
Y15201401D01*
X10139200Y14938901D02*
X10164200D01*
X10151700Y14926401D02*
Y14951401D01*
X10139200Y13938901D02*
X10164200D01*
X10151700Y13926401D02*
Y13951401D01*
X10139200Y13688901D02*
X10164200D01*
X10151700Y13676401D02*
Y13701401D01*
X9889200Y16688901D02*
X9914200D01*
X9901700Y16676401D02*
Y16701401D01*
X9889200Y16438901D02*
X9914200D01*
X9901700Y16426401D02*
Y16451401D01*
X9889200Y15438901D02*
X9914200D01*
X9901700Y15426401D02*
Y15451401D01*
X9889200Y15188901D02*
X9914200D01*
X9901700Y15176401D02*
Y15201401D01*
X9889200Y14938901D02*
X9914200D01*
X9901700Y14926401D02*
Y14951401D01*
X9889200Y14188901D02*
X9914200D01*
X9901700Y14176401D02*
Y14201401D01*
X9889200Y13938901D02*
X9914200D01*
X9901700Y13926401D02*
Y13951401D01*
X9889200Y13688901D02*
X9914200D01*
X9901700Y13676401D02*
Y13701401D01*
X9889200Y13438901D02*
X9914200D01*
X9901700Y13426401D02*
Y13451401D01*
X9639200Y16688901D02*
X9664200D01*
X9651700Y16676401D02*
Y16701401D01*
X9639200Y16438901D02*
X9664200D01*
X9651700Y16426401D02*
Y16451401D01*
X9639200Y15438901D02*
X9664200D01*
X9651700Y15426401D02*
Y15451401D01*
X9639200Y15188901D02*
X9664200D01*
X9651700Y15176401D02*
Y15201401D01*
X9639200Y14938901D02*
X9664200D01*
X9651700Y14926401D02*
Y14951401D01*
X9639200Y14188901D02*
X9664200D01*
X9651700Y14176401D02*
Y14201401D01*
X9639200Y13938901D02*
X9664200D01*
X9651700Y13926401D02*
Y13951401D01*
X9639200Y13688901D02*
X9664200D01*
X9651700Y13676401D02*
Y13701401D01*
X9639200Y13438901D02*
X9664200D01*
X9651700Y13426401D02*
Y13451401D01*
X9639200Y13188901D02*
X9664200D01*
X9651700Y13176401D02*
Y13201401D01*
X9389200Y16438901D02*
X9414200D01*
X9401700Y16426401D02*
Y16451401D01*
X9389200Y15688901D02*
X9414200D01*
X9401700Y15676401D02*
Y15701401D01*
X9389200Y15438901D02*
X9414200D01*
X9401700Y15426401D02*
Y15451401D01*
X9389200Y15188901D02*
X9414200D01*
X9401700Y15176401D02*
Y15201401D01*
X9389200Y14688901D02*
X9414200D01*
X9401700Y14676401D02*
Y14701401D01*
X9389200Y14438901D02*
X9414200D01*
X9401700Y14426401D02*
Y14451401D01*
X9389200Y14188901D02*
X9414200D01*
X9401700Y14176401D02*
Y14201401D01*
X9389200Y13938901D02*
X9414200D01*
X9401700Y13926401D02*
Y13951401D01*
X9389200Y13688901D02*
X9414200D01*
X9401700Y13676401D02*
Y13701401D01*
X9389200Y13438901D02*
X9414200D01*
X9401700Y13426401D02*
Y13451401D01*
X9389200Y13188901D02*
X9414200D01*
X9401700Y13176401D02*
Y13201401D01*
X9139200Y15438901D02*
X9164200D01*
X9151700Y15426401D02*
Y15451401D01*
X9139200Y15188901D02*
X9164200D01*
X9151700Y15176401D02*
Y15201401D01*
X9139200Y14688901D02*
X9164200D01*
X9151700Y14676401D02*
Y14701401D01*
X9139200Y14438901D02*
X9164200D01*
X9151700Y14426401D02*
Y14451401D01*
X9139200Y14188901D02*
X9164200D01*
X9151700Y14176401D02*
Y14201401D01*
X9139200Y13938901D02*
X9164200D01*
X9151700Y13926401D02*
Y13951401D01*
X9139200Y13688901D02*
X9164200D01*
X9151700Y13676401D02*
Y13701401D01*
X9139200Y13438901D02*
X9164200D01*
X9151700Y13426401D02*
Y13451401D01*
X9139200Y13188901D02*
X9164200D01*
X9151700Y13176401D02*
Y13201401D01*
X8889200Y16438901D02*
X8914200D01*
X8901700Y16426401D02*
Y16451401D01*
X8889200Y16188901D02*
X8914200D01*
X8901700Y16176401D02*
Y16201401D01*
X8889200Y15938901D02*
X8914200D01*
X8901700Y15926401D02*
Y15951401D01*
X8889200Y15688901D02*
X8914200D01*
X8901700Y15676401D02*
Y15701401D01*
X8889200Y15438901D02*
X8914200D01*
X8901700Y15426401D02*
Y15451401D01*
X8889200Y15188901D02*
X8914200D01*
X8901700Y15176401D02*
Y15201401D01*
X8889200Y14938901D02*
X8914200D01*
X8901700Y14926401D02*
Y14951401D01*
X8889200Y14188901D02*
X8914200D01*
X8901700Y14176401D02*
Y14201401D01*
X8889200Y13938901D02*
X8914200D01*
X8901700Y13926401D02*
Y13951401D01*
X8889200Y13688901D02*
X8914200D01*
X8901700Y13676401D02*
Y13701401D01*
X8889200Y13438901D02*
X8914200D01*
X8901700Y13426401D02*
Y13451401D01*
X8889200Y13188901D02*
X8914200D01*
X8901700Y13176401D02*
Y13201401D01*
X8639200Y16688901D02*
X8664200D01*
X8651700Y16676401D02*
Y16701401D01*
X8639200Y16438901D02*
X8664200D01*
X8651700Y16426401D02*
Y16451401D01*
X8639200Y16188901D02*
X8664200D01*
X8651700Y16176401D02*
Y16201401D01*
X8639200Y15938901D02*
X8664200D01*
X8651700Y15926401D02*
Y15951401D01*
X8639200Y15688901D02*
X8664200D01*
X8651700Y15676401D02*
Y15701401D01*
X8639200Y15438901D02*
X8664200D01*
X8651700Y15426401D02*
Y15451401D01*
X8639200Y15188901D02*
X8664200D01*
X8651700Y15176401D02*
Y15201401D01*
X8639200Y14938901D02*
X8664200D01*
X8651700Y14926401D02*
Y14951401D01*
X8639200Y14188901D02*
X8664200D01*
X8651700Y14176401D02*
Y14201401D01*
X8639200Y13938901D02*
X8664200D01*
X8651700Y13926401D02*
Y13951401D01*
X8639200Y13688901D02*
X8664200D01*
X8651700Y13676401D02*
Y13701401D01*
X8639200Y13438901D02*
X8664200D01*
X8651700Y13426401D02*
Y13451401D01*
X8639200Y13188901D02*
X8664200D01*
X8651700Y13176401D02*
Y13201401D01*
X8389200Y16688901D02*
X8414200D01*
X8401700Y16676401D02*
Y16701401D01*
X8389200Y16438901D02*
X8414200D01*
X8401700Y16426401D02*
Y16451401D01*
X8389200Y16188901D02*
X8414200D01*
X8401700Y16176401D02*
Y16201401D01*
X8389200Y15938901D02*
X8414200D01*
X8401700Y15926401D02*
Y15951401D01*
X8389200Y15688901D02*
X8414200D01*
X8401700Y15676401D02*
Y15701401D01*
X8389200Y15438901D02*
X8414200D01*
X8401700Y15426401D02*
Y15451401D01*
X8389200Y14938901D02*
X8414200D01*
X8401700Y14926401D02*
Y14951401D01*
X8389200Y13688901D02*
X8414200D01*
X8401700Y13676401D02*
Y13701401D01*
X8389200Y13438901D02*
X8414200D01*
X8401700Y13426401D02*
Y13451401D01*
X8389200Y13188901D02*
X8414200D01*
X8401700Y13176401D02*
Y13201401D01*
X8139200Y16688901D02*
X8164200D01*
X8151700Y16676401D02*
Y16701401D01*
X8139200Y16438901D02*
X8164200D01*
X8151700Y16426401D02*
Y16451401D01*
X8139200Y16188901D02*
X8164200D01*
X8151700Y16176401D02*
Y16201401D01*
X8139200Y15938901D02*
X8164200D01*
X8151700Y15926401D02*
Y15951401D01*
X8139200Y15688901D02*
X8164200D01*
X8151700Y15676401D02*
Y15701401D01*
X8139200Y15438901D02*
X8164200D01*
X8151700Y15426401D02*
Y15451401D01*
X8139200Y14188901D02*
X8164200D01*
X8151700Y14176401D02*
Y14201401D01*
X8139200Y13438901D02*
X8164200D01*
X8151700Y13426401D02*
Y13451401D01*
X8139200Y13188901D02*
X8164200D01*
X8151700Y13176401D02*
Y13201401D01*
X7889200Y16688901D02*
X7914200D01*
X7901700Y16676401D02*
Y16701401D01*
X7889200Y16438901D02*
X7914200D01*
X7901700Y16426401D02*
Y16451401D01*
X7889200Y16188901D02*
X7914200D01*
X7901700Y16176401D02*
Y16201401D01*
X7889200Y15938901D02*
X7914200D01*
X7901700Y15926401D02*
Y15951401D01*
X7889200Y15688901D02*
X7914200D01*
X7901700Y15676401D02*
Y15701401D01*
X7889200Y15438901D02*
X7914200D01*
X7901700Y15426401D02*
Y15451401D01*
X7889200Y14938901D02*
X7914200D01*
X7901700Y14926401D02*
Y14951401D01*
X7889200Y14688901D02*
X7914200D01*
X7901700Y14676401D02*
Y14701401D01*
X7889200Y14438901D02*
X7914200D01*
X7901700Y14426401D02*
Y14451401D01*
X7889200Y14188901D02*
X7914200D01*
X7901700Y14176401D02*
Y14201401D01*
X7889200Y13688901D02*
X7914200D01*
X7901700Y13676401D02*
Y13701401D01*
X7889200Y13438901D02*
X7914200D01*
X7901700Y13426401D02*
Y13451401D01*
X7889200Y13188901D02*
X7914200D01*
X7901700Y13176401D02*
Y13201401D01*
X8814000Y14533501D02*
X8839000D01*
X8826500Y14521001D02*
Y14546001D01*
X10332209Y13912036D02*
X10357209D01*
X10344709Y13899536D02*
Y13924536D01*
X10430497Y14010324D02*
X10455496D01*
X10442997Y13997824D02*
Y14022823D01*
X8115500Y14670599D02*
X8140500D01*
X8128000Y14658099D02*
Y14683099D01*
X8648900Y14670599D02*
X8673900D01*
X8661400Y14658099D02*
Y14683099D01*
X8115500Y14470000D02*
X8140500D01*
X8128000Y14457500D02*
Y14482500D01*
X8572700Y14470000D02*
X8597700D01*
X8585200Y14457500D02*
Y14482500D01*
X14563499Y13934645D02*
X14738499D01*
X14650999Y13847147D02*
Y14022145D01*
X14563499Y15024345D02*
X14738499D01*
X14650999Y14936845D02*
Y15111845D01*
X17803200Y16794099D02*
X17893201D01*
X17848199Y16749100D02*
Y16839101D01*
X18057201Y16794099D02*
X18147200D01*
X18102200Y16749100D02*
Y16839101D01*
X15553700Y16794099D02*
X15643700D01*
X15598700Y16749100D02*
Y16839101D01*
X15807700Y16794099D02*
X15897701D01*
X15852699Y16749100D02*
Y16839101D01*
X19459801Y16688901D02*
X19484801D01*
X19472301Y16676401D02*
Y16701401D01*
X19459801Y15938901D02*
X19484801D01*
X19472301Y15926401D02*
Y15951401D01*
X19459801Y15688901D02*
X19484801D01*
X19472301Y15676401D02*
Y15701401D01*
X19459801Y15438901D02*
X19484801D01*
X19472301Y15426401D02*
Y15451401D01*
X19459801Y15188901D02*
X19484801D01*
X19472301Y15176401D02*
Y15201401D01*
X19459801Y14938901D02*
X19484801D01*
X19472301Y14926401D02*
Y14951401D01*
X19459801Y14688901D02*
X19484801D01*
X19472301Y14676401D02*
Y14701401D01*
X19459801Y14438901D02*
X19484801D01*
X19472301Y14426401D02*
Y14451401D01*
X19459801Y14188901D02*
X19484801D01*
X19472301Y14176401D02*
Y14201401D01*
X19459801Y13938901D02*
X19484801D01*
X19472301Y13926401D02*
Y13951401D01*
X19459801Y13688901D02*
X19484801D01*
X19472301Y13676401D02*
Y13701401D01*
X19459801Y13438901D02*
X19484801D01*
X19472301Y13426401D02*
Y13451401D01*
X19459801Y13188901D02*
X19484801D01*
X19472301Y13176401D02*
Y13201401D01*
X19209801Y16688901D02*
X19234801D01*
X19222301Y16676401D02*
Y16701401D01*
X19209801Y16438901D02*
X19234801D01*
X19222301Y16426401D02*
Y16451401D01*
X19209801Y16188901D02*
X19234801D01*
X19222301Y16176401D02*
Y16201401D01*
X19209801Y15938901D02*
X19234801D01*
X19222301Y15926401D02*
Y15951401D01*
X19209801Y15688901D02*
X19234801D01*
X19222301Y15676401D02*
Y15701401D01*
X19209801Y15438901D02*
X19234801D01*
X19222301Y15426401D02*
Y15451401D01*
X19209801Y15188901D02*
X19234801D01*
X19222301Y15176401D02*
Y15201401D01*
X19209801Y14938901D02*
X19234801D01*
X19222301Y14926401D02*
Y14951401D01*
X19209801Y14688901D02*
X19234801D01*
X19222301Y14676401D02*
Y14701401D01*
X19209801Y14438901D02*
X19234801D01*
X19222301Y14426401D02*
Y14451401D01*
X19209801Y14188901D02*
X19234801D01*
X19222301Y14176401D02*
Y14201401D01*
X19209801Y13938901D02*
X19234801D01*
X19222301Y13926401D02*
Y13951401D01*
X19209801Y13688901D02*
X19234801D01*
X19222301Y13676401D02*
Y13701401D01*
X19209801Y13188901D02*
X19234801D01*
X19222301Y13176401D02*
Y13201401D01*
X18959801Y16688901D02*
X18984801D01*
X18972301Y16676401D02*
Y16701401D01*
X18959801Y16438901D02*
X18984801D01*
X18972301Y16426401D02*
Y16451401D01*
X18959801Y16188901D02*
X18984801D01*
X18972301Y16176401D02*
Y16201401D01*
X18959801Y15938901D02*
X18984801D01*
X18972301Y15926401D02*
Y15951401D01*
X18959801Y15188901D02*
X18984801D01*
X18972301Y15176401D02*
Y15201401D01*
X18959801Y14938901D02*
X18984801D01*
X18972301Y14926401D02*
Y14951401D01*
X18959801Y13188901D02*
X18984801D01*
X18972301Y13176401D02*
Y13201401D01*
X18709801Y16438901D02*
X18734801D01*
X18722301Y16426401D02*
Y16451401D01*
X18709801Y16188901D02*
X18734801D01*
X18722301Y16176401D02*
Y16201401D01*
X18709801Y15938901D02*
X18734801D01*
X18722301Y15926401D02*
Y15951401D01*
X18709801Y15188901D02*
X18734801D01*
X18722301Y15176401D02*
Y15201401D01*
X18709801Y14938901D02*
X18734801D01*
X18722301Y14926401D02*
Y14951401D01*
X18709801Y14188901D02*
X18734801D01*
X18722301Y14176401D02*
Y14201401D01*
X18709801Y13938901D02*
X18734801D01*
X18722301Y13926401D02*
Y13951401D01*
X18709801Y13688901D02*
X18734801D01*
X18722301Y13676401D02*
Y13701401D01*
X18709801Y13188901D02*
X18734801D01*
X18722301Y13176401D02*
Y13201401D01*
X18459801Y16438901D02*
X18484801D01*
X18472301Y16426401D02*
Y16451401D01*
X18459801Y16188901D02*
X18484801D01*
X18472301Y16176401D02*
Y16201401D01*
X18459801Y15938901D02*
X18484801D01*
X18472301Y15926401D02*
Y15951401D01*
X18459801Y15688901D02*
X18484801D01*
X18472301Y15676401D02*
Y15701401D01*
X18459801Y15438901D02*
X18484801D01*
X18472301Y15426401D02*
Y15451401D01*
X18459801Y15188901D02*
X18484801D01*
X18472301Y15176401D02*
Y15201401D01*
X18459801Y14938901D02*
X18484801D01*
X18472301Y14926401D02*
Y14951401D01*
X18459801Y14688901D02*
X18484801D01*
X18472301Y14676401D02*
Y14701401D01*
X18459801Y14438901D02*
X18484801D01*
X18472301Y14426401D02*
Y14451401D01*
X18459801Y14188901D02*
X18484801D01*
X18472301Y14176401D02*
Y14201401D01*
X18459801Y13938901D02*
X18484801D01*
X18472301Y13926401D02*
Y13951401D01*
X18459801Y13688901D02*
X18484801D01*
X18472301Y13676401D02*
Y13701401D01*
X18459801Y13188901D02*
X18484801D01*
X18472301Y13176401D02*
Y13201401D01*
X18209801Y15438901D02*
X18234801D01*
X18222301Y15426401D02*
Y15451401D01*
X18209801Y14938901D02*
X18234801D01*
X18222301Y14926401D02*
Y14951401D01*
X18209801Y14438901D02*
X18234801D01*
X18222301Y14426401D02*
Y14451401D01*
X18209801Y14188901D02*
X18234801D01*
X18222301Y14176401D02*
Y14201401D01*
X18209801Y13938901D02*
X18234801D01*
X18222301Y13926401D02*
Y13951401D01*
X18209801Y13688901D02*
X18234801D01*
X18222301Y13676401D02*
Y13701401D01*
X18209801Y13188901D02*
X18234801D01*
X18222301Y13176401D02*
Y13201401D01*
X17959801Y14188901D02*
X17984801D01*
X17972301Y14176401D02*
Y14201401D01*
X17959801Y13688901D02*
X17984801D01*
X17972301Y13676401D02*
Y13701401D01*
X17959801Y13438901D02*
X17984801D01*
X17972301Y13426401D02*
Y13451401D01*
X17959801Y13188901D02*
X17984801D01*
X17972301Y13176401D02*
Y13201401D01*
X17709801Y16188901D02*
X17734801D01*
X17722301Y16176401D02*
Y16201401D01*
X17709801Y14438901D02*
X17734801D01*
X17722301Y14426401D02*
Y14451401D01*
X17709801Y14188901D02*
X17734801D01*
X17722301Y14176401D02*
Y14201401D01*
X17709801Y13438901D02*
X17734801D01*
X17722301Y13426401D02*
Y13451401D01*
X17709801Y13188901D02*
X17734801D01*
X17722301Y13176401D02*
Y13201401D01*
X17459801Y16688901D02*
X17484801D01*
X17472301Y16676401D02*
Y16701401D01*
X17459801Y15188901D02*
X17484801D01*
X17472301Y15176401D02*
Y15201401D01*
X17459801Y14938901D02*
X17484801D01*
X17472301Y14926401D02*
Y14951401D01*
X17459801Y14438901D02*
X17484801D01*
X17472301Y14426401D02*
Y14451401D01*
X17459801Y14188901D02*
X17484801D01*
X17472301Y14176401D02*
Y14201401D01*
X17459801Y13438901D02*
X17484801D01*
X17472301Y13426401D02*
Y13451401D01*
X17209801Y16688901D02*
X17234801D01*
X17222301Y16676401D02*
Y16701401D01*
X17209801Y16438901D02*
X17234801D01*
X17222301Y16426401D02*
Y16451401D01*
X17209801Y15188901D02*
X17234801D01*
X17222301Y15176401D02*
Y15201401D01*
X17209801Y14938901D02*
X17234801D01*
X17222301Y14926401D02*
Y14951401D01*
X17209801Y14438901D02*
X17234801D01*
X17222301Y14426401D02*
Y14451401D01*
X17209801Y14188901D02*
X17234801D01*
X17222301Y14176401D02*
Y14201401D01*
X17209801Y13688901D02*
X17234801D01*
X17222301Y13676401D02*
Y13701401D01*
X16959801Y16688901D02*
X16984801D01*
X16972301Y16676401D02*
Y16701401D01*
X16959801Y16438901D02*
X16984801D01*
X16972301Y16426401D02*
Y16451401D01*
X16959801Y15438901D02*
X16984801D01*
X16972301Y15426401D02*
Y15451401D01*
X16959801Y15188901D02*
X16984801D01*
X16972301Y15176401D02*
Y15201401D01*
X16959801Y14938901D02*
X16984801D01*
X16972301Y14926401D02*
Y14951401D01*
X16959801Y14188901D02*
X16984801D01*
X16972301Y14176401D02*
Y14201401D01*
X16959801Y13688901D02*
X16984801D01*
X16972301Y13676401D02*
Y13701401D01*
X16709801Y16688901D02*
X16734801D01*
X16722301Y16676401D02*
Y16701401D01*
X16709801Y15438901D02*
X16734801D01*
X16722301Y15426401D02*
Y15451401D01*
X16709801Y15188901D02*
X16734801D01*
X16722301Y15176401D02*
Y15201401D01*
X16709801Y14938901D02*
X16734801D01*
X16722301Y14926401D02*
Y14951401D01*
X16709801Y13938901D02*
X16734801D01*
X16722301Y13926401D02*
Y13951401D01*
X16709801Y13688901D02*
X16734801D01*
X16722301Y13676401D02*
Y13701401D01*
X16459801Y16688901D02*
X16484801D01*
X16472301Y16676401D02*
Y16701401D01*
X16459801Y16438901D02*
X16484801D01*
X16472301Y16426401D02*
Y16451401D01*
X16459801Y15438901D02*
X16484801D01*
X16472301Y15426401D02*
Y15451401D01*
X16459801Y15188901D02*
X16484801D01*
X16472301Y15176401D02*
Y15201401D01*
X16459801Y14938901D02*
X16484801D01*
X16472301Y14926401D02*
Y14951401D01*
X16459801Y14188901D02*
X16484801D01*
X16472301Y14176401D02*
Y14201401D01*
X16459801Y13938901D02*
X16484801D01*
X16472301Y13926401D02*
Y13951401D01*
X16459801Y13688901D02*
X16484801D01*
X16472301Y13676401D02*
Y13701401D01*
X16459801Y13438901D02*
X16484801D01*
X16472301Y13426401D02*
Y13451401D01*
X16209801Y16688901D02*
X16234801D01*
X16222301Y16676401D02*
Y16701401D01*
X16209801Y16438901D02*
X16234801D01*
X16222301Y16426401D02*
Y16451401D01*
X16209801Y15438901D02*
X16234801D01*
X16222301Y15426401D02*
Y15451401D01*
X16209801Y15188901D02*
X16234801D01*
X16222301Y15176401D02*
Y15201401D01*
X16209801Y14938901D02*
X16234801D01*
X16222301Y14926401D02*
Y14951401D01*
X16209801Y14188901D02*
X16234801D01*
X16222301Y14176401D02*
Y14201401D01*
X16209801Y13938901D02*
X16234801D01*
X16222301Y13926401D02*
Y13951401D01*
X16209801Y13688901D02*
X16234801D01*
X16222301Y13676401D02*
Y13701401D01*
X16209801Y13438901D02*
X16234801D01*
X16222301Y13426401D02*
Y13451401D01*
X16209801Y13188901D02*
X16234801D01*
X16222301Y13176401D02*
Y13201401D01*
X15959801Y16438901D02*
X15984801D01*
X15972301Y16426401D02*
Y16451401D01*
X15959801Y15688901D02*
X15984801D01*
X15972301Y15676401D02*
Y15701401D01*
X15959801Y15438901D02*
X15984801D01*
X15972301Y15426401D02*
Y15451401D01*
X15959801Y15188901D02*
X15984801D01*
X15972301Y15176401D02*
Y15201401D01*
X15959801Y14688901D02*
X15984801D01*
X15972301Y14676401D02*
Y14701401D01*
X15959801Y14438901D02*
X15984801D01*
X15972301Y14426401D02*
Y14451401D01*
X15959801Y14188901D02*
X15984801D01*
X15972301Y14176401D02*
Y14201401D01*
X15959801Y13938901D02*
X15984801D01*
X15972301Y13926401D02*
Y13951401D01*
X15959801Y13688901D02*
X15984801D01*
X15972301Y13676401D02*
Y13701401D01*
X15959801Y13438901D02*
X15984801D01*
X15972301Y13426401D02*
Y13451401D01*
X15959801Y13188901D02*
X15984801D01*
X15972301Y13176401D02*
Y13201401D01*
X15709801Y15438901D02*
X15734801D01*
X15722301Y15426401D02*
Y15451401D01*
X15709801Y15188901D02*
X15734801D01*
X15722301Y15176401D02*
Y15201401D01*
X15709801Y14688901D02*
X15734801D01*
X15722301Y14676401D02*
Y14701401D01*
X15709801Y14438901D02*
X15734801D01*
X15722301Y14426401D02*
Y14451401D01*
X15709801Y14188901D02*
X15734801D01*
X15722301Y14176401D02*
Y14201401D01*
X15709801Y13938901D02*
X15734801D01*
X15722301Y13926401D02*
Y13951401D01*
X15709801Y13688901D02*
X15734801D01*
X15722301Y13676401D02*
Y13701401D01*
X15709801Y13438901D02*
X15734801D01*
X15722301Y13426401D02*
Y13451401D01*
X15709801Y13188901D02*
X15734801D01*
X15722301Y13176401D02*
Y13201401D01*
X15459801Y16438901D02*
X15484801D01*
X15472301Y16426401D02*
Y16451401D01*
X15459801Y16188901D02*
X15484801D01*
X15472301Y16176401D02*
Y16201401D01*
X15459801Y15938901D02*
X15484801D01*
X15472301Y15926401D02*
Y15951401D01*
X15459801Y15688901D02*
X15484801D01*
X15472301Y15676401D02*
Y15701401D01*
X15459801Y15438901D02*
X15484801D01*
X15472301Y15426401D02*
Y15451401D01*
X15459801Y15188901D02*
X15484801D01*
X15472301Y15176401D02*
Y15201401D01*
X15459801Y14938901D02*
X15484801D01*
X15472301Y14926401D02*
Y14951401D01*
X15459801Y14188901D02*
X15484801D01*
X15472301Y14176401D02*
Y14201401D01*
X15459801Y13938901D02*
X15484801D01*
X15472301Y13926401D02*
Y13951401D01*
X15459801Y13688901D02*
X15484801D01*
X15472301Y13676401D02*
Y13701401D01*
X15459801Y13438901D02*
X15484801D01*
X15472301Y13426401D02*
Y13451401D01*
X15459801Y13188901D02*
X15484801D01*
X15472301Y13176401D02*
Y13201401D01*
X15209801Y16688901D02*
X15234801D01*
X15222301Y16676401D02*
Y16701401D01*
X15209801Y16438901D02*
X15234801D01*
X15222301Y16426401D02*
Y16451401D01*
X15209801Y16188901D02*
X15234801D01*
X15222301Y16176401D02*
Y16201401D01*
X15209801Y15938901D02*
X15234801D01*
X15222301Y15926401D02*
Y15951401D01*
X15209801Y15688901D02*
X15234801D01*
X15222301Y15676401D02*
Y15701401D01*
X15209801Y15438901D02*
X15234801D01*
X15222301Y15426401D02*
Y15451401D01*
X15209801Y15188901D02*
X15234801D01*
X15222301Y15176401D02*
Y15201401D01*
X15209801Y14938901D02*
X15234801D01*
X15222301Y14926401D02*
Y14951401D01*
X15209801Y14188901D02*
X15234801D01*
X15222301Y14176401D02*
Y14201401D01*
X15209801Y13938901D02*
X15234801D01*
X15222301Y13926401D02*
Y13951401D01*
X15209801Y13688901D02*
X15234801D01*
X15222301Y13676401D02*
Y13701401D01*
X15209801Y13438901D02*
X15234801D01*
X15222301Y13426401D02*
Y13451401D01*
X15209801Y13188901D02*
X15234801D01*
X15222301Y13176401D02*
Y13201401D01*
X14959801Y16688901D02*
X14984801D01*
X14972301Y16676401D02*
Y16701401D01*
X14959801Y16438901D02*
X14984801D01*
X14972301Y16426401D02*
Y16451401D01*
X14959801Y16188901D02*
X14984801D01*
X14972301Y16176401D02*
Y16201401D01*
X14959801Y15938901D02*
X14984801D01*
X14972301Y15926401D02*
Y15951401D01*
X14959801Y15688901D02*
X14984801D01*
X14972301Y15676401D02*
Y15701401D01*
X14959801Y15438901D02*
X14984801D01*
X14972301Y15426401D02*
Y15451401D01*
X14959801Y14938901D02*
X14984801D01*
X14972301Y14926401D02*
Y14951401D01*
X14959801Y13688901D02*
X14984801D01*
X14972301Y13676401D02*
Y13701401D01*
X14959801Y13438901D02*
X14984801D01*
X14972301Y13426401D02*
Y13451401D01*
X14959801Y13188901D02*
X14984801D01*
X14972301Y13176401D02*
Y13201401D01*
X14709801Y16688901D02*
X14734801D01*
X14722301Y16676401D02*
Y16701401D01*
X14709801Y16438901D02*
X14734801D01*
X14722301Y16426401D02*
Y16451401D01*
X14709801Y16188901D02*
X14734801D01*
X14722301Y16176401D02*
Y16201401D01*
X14709801Y15938901D02*
X14734801D01*
X14722301Y15926401D02*
Y15951401D01*
X14709801Y15688901D02*
X14734801D01*
X14722301Y15676401D02*
Y15701401D01*
X14709801Y15438901D02*
X14734801D01*
X14722301Y15426401D02*
Y15451401D01*
X14709801Y14188901D02*
X14734801D01*
X14722301Y14176401D02*
Y14201401D01*
X14709801Y13438901D02*
X14734801D01*
X14722301Y13426401D02*
Y13451401D01*
X14709801Y13188901D02*
X14734801D01*
X14722301Y13176401D02*
Y13201401D01*
X14459801Y16688901D02*
X14484801D01*
X14472301Y16676401D02*
Y16701401D01*
X14459801Y16438901D02*
X14484801D01*
X14472301Y16426401D02*
Y16451401D01*
X14459801Y16188901D02*
X14484801D01*
X14472301Y16176401D02*
Y16201401D01*
X14459801Y15938901D02*
X14484801D01*
X14472301Y15926401D02*
Y15951401D01*
X14459801Y15688901D02*
X14484801D01*
X14472301Y15676401D02*
Y15701401D01*
X14459801Y15438901D02*
X14484801D01*
X14472301Y15426401D02*
Y15451401D01*
X14459801Y14938901D02*
X14484801D01*
X14472301Y14926401D02*
Y14951401D01*
X14459801Y14688901D02*
X14484801D01*
X14472301Y14676401D02*
Y14701401D01*
X14459801Y14438901D02*
X14484801D01*
X14472301Y14426401D02*
Y14451401D01*
X14459801Y14188901D02*
X14484801D01*
X14472301Y14176401D02*
Y14201401D01*
X14459801Y13688901D02*
X14484801D01*
X14472301Y13676401D02*
Y13701401D01*
X14459801Y13438901D02*
X14484801D01*
X14472301Y13426401D02*
Y13451401D01*
X14459801Y13188901D02*
X14484801D01*
X14472301Y13176401D02*
Y13201401D01*
X15384599Y14533501D02*
X15409599D01*
X15397099Y14521001D02*
Y14546001D01*
X16902809Y13912036D02*
X16927809D01*
X16915309Y13899536D02*
Y13924536D01*
X17001097Y14010324D02*
X17026097D01*
X17013597Y13997824D02*
Y14022823D01*
X14686099Y14670599D02*
X14711099D01*
X14698599Y14658099D02*
Y14683099D01*
X15219501Y14670599D02*
X15244501D01*
X15232001Y14658099D02*
Y14683099D01*
X14686099Y14470000D02*
X14711099D01*
X14698599Y14457500D02*
Y14482500D01*
X15143300Y14470000D02*
X15168300D01*
X15155800Y14457500D02*
Y14482500D01*
X7992900Y18435146D02*
X8167900D01*
X8080400Y18347646D02*
Y18522646D01*
X7992900Y19524846D02*
X8167900D01*
X8080400Y19437346D02*
Y19612346D01*
X11232600Y21294600D02*
X11322600D01*
X11277600Y21249600D02*
Y21339600D01*
X11486600Y21294600D02*
X11576600D01*
X11531600Y21249600D02*
Y21339600D01*
X8983100Y21294600D02*
X9073100D01*
X9028100Y21249600D02*
Y21339600D01*
X9237100Y21294600D02*
X9327100D01*
X9282100Y21249600D02*
Y21339600D01*
X12889201Y21189400D02*
X12914200D01*
X12901700Y21176900D02*
Y21201900D01*
X12889201Y20439400D02*
X12914200D01*
X12901700Y20426900D02*
Y20451900D01*
X12889201Y20189400D02*
X12914200D01*
X12901700Y20176900D02*
Y20201900D01*
X12889201Y19939400D02*
X12914200D01*
X12901700Y19926900D02*
Y19951900D01*
X12889201Y19689400D02*
X12914200D01*
X12901700Y19676900D02*
Y19701900D01*
X12889201Y19439400D02*
X12914200D01*
X12901700Y19426900D02*
Y19451900D01*
X12889201Y19189400D02*
X12914200D01*
X12901700Y19176900D02*
Y19201900D01*
X12889201Y18939400D02*
X12914200D01*
X12901700Y18926900D02*
Y18951900D01*
X12889201Y18689400D02*
X12914200D01*
X12901700Y18676900D02*
Y18701900D01*
X12889201Y18439400D02*
X12914200D01*
X12901700Y18426900D02*
Y18451900D01*
X12889201Y18189400D02*
X12914200D01*
X12901700Y18176900D02*
Y18201900D01*
X12889201Y17939400D02*
X12914200D01*
X12901700Y17926900D02*
Y17951900D01*
X12889201Y17689400D02*
X12914200D01*
X12901700Y17676900D02*
Y17701900D01*
X12639201Y21189400D02*
X12664200D01*
X12651700Y21176900D02*
Y21201900D01*
X12639201Y20939400D02*
X12664200D01*
X12651700Y20926900D02*
Y20951900D01*
X12639201Y20689400D02*
X12664200D01*
X12651700Y20676900D02*
Y20701900D01*
X12639201Y20439400D02*
X12664200D01*
X12651700Y20426900D02*
Y20451900D01*
X12639201Y20189400D02*
X12664200D01*
X12651700Y20176900D02*
Y20201900D01*
X12639201Y19939400D02*
X12664200D01*
X12651700Y19926900D02*
Y19951900D01*
X12639201Y19689400D02*
X12664200D01*
X12651700Y19676900D02*
Y19701900D01*
X12639201Y19439400D02*
X12664200D01*
X12651700Y19426900D02*
Y19451900D01*
X12639201Y19189400D02*
X12664200D01*
X12651700Y19176900D02*
Y19201900D01*
X12639201Y18939400D02*
X12664200D01*
X12651700Y18926900D02*
Y18951900D01*
X12639201Y18689400D02*
X12664200D01*
X12651700Y18676900D02*
Y18701900D01*
X12639201Y18439400D02*
X12664200D01*
X12651700Y18426900D02*
Y18451900D01*
X12639201Y18189400D02*
X12664200D01*
X12651700Y18176900D02*
Y18201900D01*
X12639201Y17689400D02*
X12664200D01*
X12651700Y17676900D02*
Y17701900D01*
X12389201Y21189400D02*
X12414200D01*
X12401700Y21176900D02*
Y21201900D01*
X12389201Y20939400D02*
X12414200D01*
X12401700Y20926900D02*
Y20951900D01*
X12389201Y20689400D02*
X12414200D01*
X12401700Y20676900D02*
Y20701900D01*
X12389201Y20439400D02*
X12414200D01*
X12401700Y20426900D02*
Y20451900D01*
X12389201Y19689400D02*
X12414200D01*
X12401700Y19676900D02*
Y19701900D01*
X12389201Y19439400D02*
X12414200D01*
X12401700Y19426900D02*
Y19451900D01*
X12389201Y17689400D02*
X12414200D01*
X12401700Y17676900D02*
Y17701900D01*
X12139201Y20939400D02*
X12164200D01*
X12151700Y20926900D02*
Y20951900D01*
X12139201Y20689400D02*
X12164200D01*
X12151700Y20676900D02*
Y20701900D01*
X12139201Y20439400D02*
X12164200D01*
X12151700Y20426900D02*
Y20451900D01*
X12139201Y19689400D02*
X12164200D01*
X12151700Y19676900D02*
Y19701900D01*
X12139201Y19439400D02*
X12164200D01*
X12151700Y19426900D02*
Y19451900D01*
X12139201Y18689400D02*
X12164200D01*
X12151700Y18676900D02*
Y18701900D01*
X12139201Y18439400D02*
X12164200D01*
X12151700Y18426900D02*
Y18451900D01*
X12139201Y18189400D02*
X12164200D01*
X12151700Y18176900D02*
Y18201900D01*
X12139201Y17689400D02*
X12164200D01*
X12151700Y17676900D02*
Y17701900D01*
X11889201Y20939400D02*
X11914200D01*
X11901700Y20926900D02*
Y20951900D01*
X11889201Y20689400D02*
X11914200D01*
X11901700Y20676900D02*
Y20701900D01*
X11889201Y20439400D02*
X11914200D01*
X11901700Y20426900D02*
Y20451900D01*
X11889201Y20189400D02*
X11914200D01*
X11901700Y20176900D02*
Y20201900D01*
X11889201Y19939400D02*
X11914200D01*
X11901700Y19926900D02*
Y19951900D01*
X11889201Y19689400D02*
X11914200D01*
X11901700Y19676900D02*
Y19701900D01*
X11889201Y19439400D02*
X11914200D01*
X11901700Y19426900D02*
Y19451900D01*
X11889201Y19189400D02*
X11914200D01*
X11901700Y19176900D02*
Y19201900D01*
X11889201Y18939400D02*
X11914200D01*
X11901700Y18926900D02*
Y18951900D01*
X11889201Y18689400D02*
X11914200D01*
X11901700Y18676900D02*
Y18701900D01*
X11889201Y18439400D02*
X11914200D01*
X11901700Y18426900D02*
Y18451900D01*
X11889201Y18189400D02*
X11914200D01*
X11901700Y18176900D02*
Y18201900D01*
X11889201Y17689400D02*
X11914200D01*
X11901700Y17676900D02*
Y17701900D01*
X11639200Y19939400D02*
X11664200D01*
X11651700Y19926900D02*
Y19951900D01*
X11639200Y19439400D02*
X11664200D01*
X11651700Y19426900D02*
Y19451900D01*
X11639200Y18939400D02*
X11664200D01*
X11651700Y18926900D02*
Y18951900D01*
X11639200Y18689400D02*
X11664200D01*
X11651700Y18676900D02*
Y18701900D01*
X11639200Y18439400D02*
X11664200D01*
X11651700Y18426900D02*
Y18451900D01*
X11639200Y18189400D02*
X11664200D01*
X11651700Y18176900D02*
Y18201900D01*
X11639200Y17689400D02*
X11664200D01*
X11651700Y17676900D02*
Y17701900D01*
X11389200Y18689400D02*
X11414200D01*
X11401700Y18676900D02*
Y18701900D01*
X11389200Y18189400D02*
X11414200D01*
X11401700Y18176900D02*
Y18201900D01*
X11389200Y17939400D02*
X11414200D01*
X11401700Y17926900D02*
Y17951900D01*
X11389200Y17689400D02*
X11414200D01*
X11401700Y17676900D02*
Y17701900D01*
X11139200Y20689400D02*
X11164200D01*
X11151700Y20676900D02*
Y20701900D01*
X11139200Y18939400D02*
X11164200D01*
X11151700Y18926900D02*
Y18951900D01*
X11139200Y18689400D02*
X11164200D01*
X11151700Y18676900D02*
Y18701900D01*
X11139200Y17939400D02*
X11164200D01*
X11151700Y17926900D02*
Y17951900D01*
X11139200Y17689400D02*
X11164200D01*
X11151700Y17676900D02*
Y17701900D01*
X10889200Y21189400D02*
X10914200D01*
X10901700Y21176900D02*
Y21201900D01*
X10889200Y19689400D02*
X10914200D01*
X10901700Y19676900D02*
Y19701900D01*
X10889200Y19439400D02*
X10914200D01*
X10901700Y19426900D02*
Y19451900D01*
X10889200Y18939400D02*
X10914200D01*
X10901700Y18926900D02*
Y18951900D01*
X10889200Y18689400D02*
X10914200D01*
X10901700Y18676900D02*
Y18701900D01*
X10889200Y17939400D02*
X10914200D01*
X10901700Y17926900D02*
Y17951900D01*
X10639200Y21189400D02*
X10664200D01*
X10651700Y21176900D02*
Y21201900D01*
X10639200Y20939400D02*
X10664200D01*
X10651700Y20926900D02*
Y20951900D01*
X10639200Y19689400D02*
X10664200D01*
X10651700Y19676900D02*
Y19701900D01*
X10639200Y19439400D02*
X10664200D01*
X10651700Y19426900D02*
Y19451900D01*
X10639200Y18939400D02*
X10664200D01*
X10651700Y18926900D02*
Y18951900D01*
X10639200Y18689400D02*
X10664200D01*
X10651700Y18676900D02*
Y18701900D01*
X10639200Y18189400D02*
X10664200D01*
X10651700Y18176900D02*
Y18201900D01*
X10389200Y21189400D02*
X10414200D01*
X10401700Y21176900D02*
Y21201900D01*
X10389200Y20939400D02*
X10414200D01*
X10401700Y20926900D02*
Y20951900D01*
X10389200Y19939400D02*
X10414200D01*
X10401700Y19926900D02*
Y19951900D01*
X10389200Y19689400D02*
X10414200D01*
X10401700Y19676900D02*
Y19701900D01*
X10389200Y19439400D02*
X10414200D01*
X10401700Y19426900D02*
Y19451900D01*
X10389200Y18689400D02*
X10414200D01*
X10401700Y18676900D02*
Y18701900D01*
X10389200Y18189400D02*
X10414200D01*
X10401700Y18176900D02*
Y18201900D01*
X10139200Y21189400D02*
X10164200D01*
X10151700Y21176900D02*
Y21201900D01*
X10139200Y19939400D02*
X10164200D01*
X10151700Y19926900D02*
Y19951900D01*
X10139200Y19689400D02*
X10164200D01*
X10151700Y19676900D02*
Y19701900D01*
X10139200Y19439400D02*
X10164200D01*
X10151700Y19426900D02*
Y19451900D01*
X10139200Y18439400D02*
X10164200D01*
X10151700Y18426900D02*
Y18451900D01*
X10139200Y18189400D02*
X10164200D01*
X10151700Y18176900D02*
Y18201900D01*
X9889200Y21189400D02*
X9914200D01*
X9901700Y21176900D02*
Y21201900D01*
X9889200Y20939400D02*
X9914200D01*
X9901700Y20926900D02*
Y20951900D01*
X9889200Y19939400D02*
X9914200D01*
X9901700Y19926900D02*
Y19951900D01*
X9889200Y19689400D02*
X9914200D01*
X9901700Y19676900D02*
Y19701900D01*
X9889200Y19439400D02*
X9914200D01*
X9901700Y19426900D02*
Y19451900D01*
X9889200Y18689400D02*
X9914200D01*
X9901700Y18676900D02*
Y18701900D01*
X9889200Y18439400D02*
X9914200D01*
X9901700Y18426900D02*
Y18451900D01*
X9889200Y18189400D02*
X9914200D01*
X9901700Y18176900D02*
Y18201900D01*
X9889200Y17939400D02*
X9914200D01*
X9901700Y17926900D02*
Y17951900D01*
X9639200Y21189400D02*
X9664200D01*
X9651700Y21176900D02*
Y21201900D01*
X9639200Y20939400D02*
X9664200D01*
X9651700Y20926900D02*
Y20951900D01*
X9639200Y19939400D02*
X9664200D01*
X9651700Y19926900D02*
Y19951900D01*
X9639200Y19689400D02*
X9664200D01*
X9651700Y19676900D02*
Y19701900D01*
X9639200Y19439400D02*
X9664200D01*
X9651700Y19426900D02*
Y19451900D01*
X9639200Y18689400D02*
X9664200D01*
X9651700Y18676900D02*
Y18701900D01*
X9639200Y18439400D02*
X9664200D01*
X9651700Y18426900D02*
Y18451900D01*
X9639200Y18189400D02*
X9664200D01*
X9651700Y18176900D02*
Y18201900D01*
X9639200Y17939400D02*
X9664200D01*
X9651700Y17926900D02*
Y17951900D01*
X9639200Y17689400D02*
X9664200D01*
X9651700Y17676900D02*
Y17701900D01*
X9389200Y20939400D02*
X9414200D01*
X9401700Y20926900D02*
Y20951900D01*
X9389200Y20189400D02*
X9414200D01*
X9401700Y20176900D02*
Y20201900D01*
X9389200Y19939400D02*
X9414200D01*
X9401700Y19926900D02*
Y19951900D01*
X9389200Y19689400D02*
X9414200D01*
X9401700Y19676900D02*
Y19701900D01*
X9389200Y19189400D02*
X9414200D01*
X9401700Y19176900D02*
Y19201900D01*
X9389200Y18939400D02*
X9414200D01*
X9401700Y18926900D02*
Y18951900D01*
X9389200Y18689400D02*
X9414200D01*
X9401700Y18676900D02*
Y18701900D01*
X9389200Y18439400D02*
X9414200D01*
X9401700Y18426900D02*
Y18451900D01*
X9389200Y18189400D02*
X9414200D01*
X9401700Y18176900D02*
Y18201900D01*
X9389200Y17939400D02*
X9414200D01*
X9401700Y17926900D02*
Y17951900D01*
X9389200Y17689400D02*
X9414200D01*
X9401700Y17676900D02*
Y17701900D01*
X9139200Y19939400D02*
X9164200D01*
X9151700Y19926900D02*
Y19951900D01*
X9139200Y19689400D02*
X9164200D01*
X9151700Y19676900D02*
Y19701900D01*
X9139200Y19189400D02*
X9164200D01*
X9151700Y19176900D02*
Y19201900D01*
X9139200Y18939400D02*
X9164200D01*
X9151700Y18926900D02*
Y18951900D01*
X9139200Y18689400D02*
X9164200D01*
X9151700Y18676900D02*
Y18701900D01*
X9139200Y18439400D02*
X9164200D01*
X9151700Y18426900D02*
Y18451900D01*
X9139200Y18189400D02*
X9164200D01*
X9151700Y18176900D02*
Y18201900D01*
X9139200Y17939400D02*
X9164200D01*
X9151700Y17926900D02*
Y17951900D01*
X9139200Y17689400D02*
X9164200D01*
X9151700Y17676900D02*
Y17701900D01*
X8889200Y20939400D02*
X8914200D01*
X8901700Y20926900D02*
Y20951900D01*
X8889200Y20689400D02*
X8914200D01*
X8901700Y20676900D02*
Y20701900D01*
X8889200Y20439400D02*
X8914200D01*
X8901700Y20426900D02*
Y20451900D01*
X8889200Y20189400D02*
X8914200D01*
X8901700Y20176900D02*
Y20201900D01*
X8889200Y19939400D02*
X8914200D01*
X8901700Y19926900D02*
Y19951900D01*
X8889200Y19689400D02*
X8914200D01*
X8901700Y19676900D02*
Y19701900D01*
X8889200Y19439400D02*
X8914200D01*
X8901700Y19426900D02*
Y19451900D01*
X8889200Y18689400D02*
X8914200D01*
X8901700Y18676900D02*
Y18701900D01*
X8889200Y18439400D02*
X8914200D01*
X8901700Y18426900D02*
Y18451900D01*
X8889200Y18189400D02*
X8914200D01*
X8901700Y18176900D02*
Y18201900D01*
X8889200Y17939400D02*
X8914200D01*
X8901700Y17926900D02*
Y17951900D01*
X8889200Y17689400D02*
X8914200D01*
X8901700Y17676900D02*
Y17701900D01*
X8639200Y21189400D02*
X8664200D01*
X8651700Y21176900D02*
Y21201900D01*
X8639200Y20939400D02*
X8664200D01*
X8651700Y20926900D02*
Y20951900D01*
X8639200Y20689400D02*
X8664200D01*
X8651700Y20676900D02*
Y20701900D01*
X8639200Y20439400D02*
X8664200D01*
X8651700Y20426900D02*
Y20451900D01*
X8639200Y20189400D02*
X8664200D01*
X8651700Y20176900D02*
Y20201900D01*
X8639200Y19939400D02*
X8664200D01*
X8651700Y19926900D02*
Y19951900D01*
X8639200Y19689400D02*
X8664200D01*
X8651700Y19676900D02*
Y19701900D01*
X8639200Y19439400D02*
X8664200D01*
X8651700Y19426900D02*
Y19451900D01*
X8639200Y18689400D02*
X8664200D01*
X8651700Y18676900D02*
Y18701900D01*
X8639200Y18439400D02*
X8664200D01*
X8651700Y18426900D02*
Y18451900D01*
X8639200Y18189400D02*
X8664200D01*
X8651700Y18176900D02*
Y18201900D01*
X8639200Y17939400D02*
X8664200D01*
X8651700Y17926900D02*
Y17951900D01*
X8639200Y17689400D02*
X8664200D01*
X8651700Y17676900D02*
Y17701900D01*
X8389200Y21189400D02*
X8414200D01*
X8401700Y21176900D02*
Y21201900D01*
X8389200Y20939400D02*
X8414200D01*
X8401700Y20926900D02*
Y20951900D01*
X8389200Y20689400D02*
X8414200D01*
X8401700Y20676900D02*
Y20701900D01*
X8389200Y20439400D02*
X8414200D01*
X8401700Y20426900D02*
Y20451900D01*
X8389200Y20189400D02*
X8414200D01*
X8401700Y20176900D02*
Y20201900D01*
X8389200Y19939400D02*
X8414200D01*
X8401700Y19926900D02*
Y19951900D01*
X8389200Y19439400D02*
X8414200D01*
X8401700Y19426900D02*
Y19451900D01*
X8389200Y18189400D02*
X8414200D01*
X8401700Y18176900D02*
Y18201900D01*
X8389200Y17939400D02*
X8414200D01*
X8401700Y17926900D02*
Y17951900D01*
X8389200Y17689400D02*
X8414200D01*
X8401700Y17676900D02*
Y17701900D01*
X8139200Y21189400D02*
X8164200D01*
X8151700Y21176900D02*
Y21201900D01*
X8139200Y20939400D02*
X8164200D01*
X8151700Y20926900D02*
Y20951900D01*
X8139200Y20689400D02*
X8164200D01*
X8151700Y20676900D02*
Y20701900D01*
X8139200Y20439400D02*
X8164200D01*
X8151700Y20426900D02*
Y20451900D01*
X8139200Y20189400D02*
X8164200D01*
X8151700Y20176900D02*
Y20201900D01*
X8139200Y19939400D02*
X8164200D01*
X8151700Y19926900D02*
Y19951900D01*
X8139200Y18689400D02*
X8164200D01*
X8151700Y18676900D02*
Y18701900D01*
X8139200Y17939400D02*
X8164200D01*
X8151700Y17926900D02*
Y17951900D01*
X8139200Y17689400D02*
X8164200D01*
X8151700Y17676900D02*
Y17701900D01*
X7889200Y21189400D02*
X7914200D01*
X7901700Y21176900D02*
Y21201900D01*
X7889200Y20939400D02*
X7914200D01*
X7901700Y20926900D02*
Y20951900D01*
X7889200Y20689400D02*
X7914200D01*
X7901700Y20676900D02*
Y20701900D01*
X7889200Y20439400D02*
X7914200D01*
X7901700Y20426900D02*
Y20451900D01*
X7889200Y20189400D02*
X7914200D01*
X7901700Y20176900D02*
Y20201900D01*
X7889200Y19939400D02*
X7914200D01*
X7901700Y19926900D02*
Y19951900D01*
X7889200Y19439400D02*
X7914200D01*
X7901700Y19426900D02*
Y19451900D01*
X7889200Y19189400D02*
X7914200D01*
X7901700Y19176900D02*
Y19201900D01*
X7889200Y18939400D02*
X7914200D01*
X7901700Y18926900D02*
Y18951900D01*
X7889200Y18689400D02*
X7914200D01*
X7901700Y18676900D02*
Y18701900D01*
X7889200Y18189400D02*
X7914200D01*
X7901700Y18176900D02*
Y18201900D01*
X7889200Y17939400D02*
X7914200D01*
X7901700Y17926900D02*
Y17951900D01*
X7889200Y17689400D02*
X7914200D01*
X7901700Y17676900D02*
Y17701900D01*
X8814000Y19034000D02*
X8839000D01*
X8826500Y19021500D02*
Y19046500D01*
X10332209Y18412537D02*
X10357209D01*
X10344709Y18400037D02*
Y18425037D01*
X10430497Y18510825D02*
X10455496D01*
X10442997Y18498325D02*
Y18523323D01*
X8115500Y19171100D02*
X8140500D01*
X8128000Y19158600D02*
Y19183600D01*
X8648900Y19171100D02*
X8673900D01*
X8661400Y19158600D02*
Y19183600D01*
X8115500Y18970500D02*
X8140500D01*
X8128000Y18958000D02*
Y18983000D01*
X8572700Y18970500D02*
X8597700D01*
X8585200Y18958000D02*
Y18983000D01*
X14563499Y18435146D02*
X14738499D01*
X14650999Y18347646D02*
Y18522646D01*
X14563499Y19524846D02*
X14738499D01*
X14650999Y19437346D02*
Y19612346D01*
X17803200Y21294600D02*
X17893201D01*
X17848199Y21249600D02*
Y21339600D01*
X18057201Y21294600D02*
X18147200D01*
X18102200Y21249600D02*
Y21339600D01*
X15553700Y21294600D02*
X15643700D01*
X15598700Y21249600D02*
Y21339600D01*
X15807700Y21294600D02*
X15897701D01*
X15852699Y21249600D02*
Y21339600D01*
X19459801Y21189400D02*
X19484801D01*
X19472301Y21176900D02*
Y21201900D01*
X19459801Y20439400D02*
X19484801D01*
X19472301Y20426900D02*
Y20451900D01*
X19459801Y20189400D02*
X19484801D01*
X19472301Y20176900D02*
Y20201900D01*
X19459801Y19939400D02*
X19484801D01*
X19472301Y19926900D02*
Y19951900D01*
X19459801Y19689400D02*
X19484801D01*
X19472301Y19676900D02*
Y19701900D01*
X19459801Y19439400D02*
X19484801D01*
X19472301Y19426900D02*
Y19451900D01*
X19459801Y19189400D02*
X19484801D01*
X19472301Y19176900D02*
Y19201900D01*
X19459801Y18939400D02*
X19484801D01*
X19472301Y18926900D02*
Y18951900D01*
X19459801Y18689400D02*
X19484801D01*
X19472301Y18676900D02*
Y18701900D01*
X19459801Y18439400D02*
X19484801D01*
X19472301Y18426900D02*
Y18451900D01*
X19459801Y18189400D02*
X19484801D01*
X19472301Y18176900D02*
Y18201900D01*
X19459801Y17939400D02*
X19484801D01*
X19472301Y17926900D02*
Y17951900D01*
X19459801Y17689400D02*
X19484801D01*
X19472301Y17676900D02*
Y17701900D01*
X19209801Y21189400D02*
X19234801D01*
X19222301Y21176900D02*
Y21201900D01*
X19209801Y20939400D02*
X19234801D01*
X19222301Y20926900D02*
Y20951900D01*
X19209801Y20689400D02*
X19234801D01*
X19222301Y20676900D02*
Y20701900D01*
X19209801Y20439400D02*
X19234801D01*
X19222301Y20426900D02*
Y20451900D01*
X19209801Y20189400D02*
X19234801D01*
X19222301Y20176900D02*
Y20201900D01*
X19209801Y19939400D02*
X19234801D01*
X19222301Y19926900D02*
Y19951900D01*
X19209801Y19689400D02*
X19234801D01*
X19222301Y19676900D02*
Y19701900D01*
X19209801Y19439400D02*
X19234801D01*
X19222301Y19426900D02*
Y19451900D01*
X19209801Y19189400D02*
X19234801D01*
X19222301Y19176900D02*
Y19201900D01*
X19209801Y18939400D02*
X19234801D01*
X19222301Y18926900D02*
Y18951900D01*
X19209801Y18689400D02*
X19234801D01*
X19222301Y18676900D02*
Y18701900D01*
X19209801Y18439400D02*
X19234801D01*
X19222301Y18426900D02*
Y18451900D01*
X19209801Y18189400D02*
X19234801D01*
X19222301Y18176900D02*
Y18201900D01*
X19209801Y17689400D02*
X19234801D01*
X19222301Y17676900D02*
Y17701900D01*
X18959801Y21189400D02*
X18984801D01*
X18972301Y21176900D02*
Y21201900D01*
X18959801Y20939400D02*
X18984801D01*
X18972301Y20926900D02*
Y20951900D01*
X18959801Y20689400D02*
X18984801D01*
X18972301Y20676900D02*
Y20701900D01*
X18959801Y20439400D02*
X18984801D01*
X18972301Y20426900D02*
Y20451900D01*
X18959801Y19689400D02*
X18984801D01*
X18972301Y19676900D02*
Y19701900D01*
X18959801Y19439400D02*
X18984801D01*
X18972301Y19426900D02*
Y19451900D01*
X18959801Y17689400D02*
X18984801D01*
X18972301Y17676900D02*
Y17701900D01*
X18709801Y20939400D02*
X18734801D01*
X18722301Y20926900D02*
Y20951900D01*
X18709801Y20689400D02*
X18734801D01*
X18722301Y20676900D02*
Y20701900D01*
X18709801Y20439400D02*
X18734801D01*
X18722301Y20426900D02*
Y20451900D01*
X18709801Y19689400D02*
X18734801D01*
X18722301Y19676900D02*
Y19701900D01*
X18709801Y19439400D02*
X18734801D01*
X18722301Y19426900D02*
Y19451900D01*
X18709801Y18689400D02*
X18734801D01*
X18722301Y18676900D02*
Y18701900D01*
X18709801Y18439400D02*
X18734801D01*
X18722301Y18426900D02*
Y18451900D01*
X18709801Y18189400D02*
X18734801D01*
X18722301Y18176900D02*
Y18201900D01*
X18709801Y17689400D02*
X18734801D01*
X18722301Y17676900D02*
Y17701900D01*
X18459801Y20939400D02*
X18484801D01*
X18472301Y20926900D02*
Y20951900D01*
X18459801Y20689400D02*
X18484801D01*
X18472301Y20676900D02*
Y20701900D01*
X18459801Y20439400D02*
X18484801D01*
X18472301Y20426900D02*
Y20451900D01*
X18459801Y20189400D02*
X18484801D01*
X18472301Y20176900D02*
Y20201900D01*
X18459801Y19939400D02*
X18484801D01*
X18472301Y19926900D02*
Y19951900D01*
X18459801Y19689400D02*
X18484801D01*
X18472301Y19676900D02*
Y19701900D01*
X18459801Y19439400D02*
X18484801D01*
X18472301Y19426900D02*
Y19451900D01*
X18459801Y19189400D02*
X18484801D01*
X18472301Y19176900D02*
Y19201900D01*
X18459801Y18939400D02*
X18484801D01*
X18472301Y18926900D02*
Y18951900D01*
X18459801Y18689400D02*
X18484801D01*
X18472301Y18676900D02*
Y18701900D01*
X18459801Y18439400D02*
X18484801D01*
X18472301Y18426900D02*
Y18451900D01*
X18459801Y18189400D02*
X18484801D01*
X18472301Y18176900D02*
Y18201900D01*
X18459801Y17689400D02*
X18484801D01*
X18472301Y17676900D02*
Y17701900D01*
X18209801Y19939400D02*
X18234801D01*
X18222301Y19926900D02*
Y19951900D01*
X18209801Y19439400D02*
X18234801D01*
X18222301Y19426900D02*
Y19451900D01*
X18209801Y18939400D02*
X18234801D01*
X18222301Y18926900D02*
Y18951900D01*
X18209801Y18689400D02*
X18234801D01*
X18222301Y18676900D02*
Y18701900D01*
X18209801Y18439400D02*
X18234801D01*
X18222301Y18426900D02*
Y18451900D01*
X18209801Y18189400D02*
X18234801D01*
X18222301Y18176900D02*
Y18201900D01*
X18209801Y17689400D02*
X18234801D01*
X18222301Y17676900D02*
Y17701900D01*
X17959801Y18689400D02*
X17984801D01*
X17972301Y18676900D02*
Y18701900D01*
X17959801Y18189400D02*
X17984801D01*
X17972301Y18176900D02*
Y18201900D01*
X17959801Y17939400D02*
X17984801D01*
X17972301Y17926900D02*
Y17951900D01*
X17959801Y17689400D02*
X17984801D01*
X17972301Y17676900D02*
Y17701900D01*
X17709801Y20689400D02*
X17734801D01*
X17722301Y20676900D02*
Y20701900D01*
X17709801Y18939400D02*
X17734801D01*
X17722301Y18926900D02*
Y18951900D01*
X17709801Y18689400D02*
X17734801D01*
X17722301Y18676900D02*
Y18701900D01*
X17709801Y17939400D02*
X17734801D01*
X17722301Y17926900D02*
Y17951900D01*
X17709801Y17689400D02*
X17734801D01*
X17722301Y17676900D02*
Y17701900D01*
X17459801Y21189400D02*
X17484801D01*
X17472301Y21176900D02*
Y21201900D01*
X17459801Y19689400D02*
X17484801D01*
X17472301Y19676900D02*
Y19701900D01*
X17459801Y19439400D02*
X17484801D01*
X17472301Y19426900D02*
Y19451900D01*
X17459801Y18939400D02*
X17484801D01*
X17472301Y18926900D02*
Y18951900D01*
X17459801Y18689400D02*
X17484801D01*
X17472301Y18676900D02*
Y18701900D01*
X17459801Y17939400D02*
X17484801D01*
X17472301Y17926900D02*
Y17951900D01*
X17209801Y21189400D02*
X17234801D01*
X17222301Y21176900D02*
Y21201900D01*
X17209801Y20939400D02*
X17234801D01*
X17222301Y20926900D02*
Y20951900D01*
X17209801Y19689400D02*
X17234801D01*
X17222301Y19676900D02*
Y19701900D01*
X17209801Y19439400D02*
X17234801D01*
X17222301Y19426900D02*
Y19451900D01*
X17209801Y18939400D02*
X17234801D01*
X17222301Y18926900D02*
Y18951900D01*
X17209801Y18689400D02*
X17234801D01*
X17222301Y18676900D02*
Y18701900D01*
X17209801Y18189400D02*
X17234801D01*
X17222301Y18176900D02*
Y18201900D01*
X16959801Y21189400D02*
X16984801D01*
X16972301Y21176900D02*
Y21201900D01*
X16959801Y20939400D02*
X16984801D01*
X16972301Y20926900D02*
Y20951900D01*
X16959801Y19939400D02*
X16984801D01*
X16972301Y19926900D02*
Y19951900D01*
X16959801Y19689400D02*
X16984801D01*
X16972301Y19676900D02*
Y19701900D01*
X16959801Y19439400D02*
X16984801D01*
X16972301Y19426900D02*
Y19451900D01*
X16959801Y18689400D02*
X16984801D01*
X16972301Y18676900D02*
Y18701900D01*
X16959801Y18189400D02*
X16984801D01*
X16972301Y18176900D02*
Y18201900D01*
X16709801Y21189400D02*
X16734801D01*
X16722301Y21176900D02*
Y21201900D01*
X16709801Y19939400D02*
X16734801D01*
X16722301Y19926900D02*
Y19951900D01*
X16709801Y19689400D02*
X16734801D01*
X16722301Y19676900D02*
Y19701900D01*
X16709801Y19439400D02*
X16734801D01*
X16722301Y19426900D02*
Y19451900D01*
X16709801Y18439400D02*
X16734801D01*
X16722301Y18426900D02*
Y18451900D01*
X16709801Y18189400D02*
X16734801D01*
X16722301Y18176900D02*
Y18201900D01*
X16459801Y21189400D02*
X16484801D01*
X16472301Y21176900D02*
Y21201900D01*
X16459801Y20939400D02*
X16484801D01*
X16472301Y20926900D02*
Y20951900D01*
X16459801Y19939400D02*
X16484801D01*
X16472301Y19926900D02*
Y19951900D01*
X16459801Y19689400D02*
X16484801D01*
X16472301Y19676900D02*
Y19701900D01*
X16459801Y19439400D02*
X16484801D01*
X16472301Y19426900D02*
Y19451900D01*
X16459801Y18689400D02*
X16484801D01*
X16472301Y18676900D02*
Y18701900D01*
X16459801Y18439400D02*
X16484801D01*
X16472301Y18426900D02*
Y18451900D01*
X16459801Y18189400D02*
X16484801D01*
X16472301Y18176900D02*
Y18201900D01*
X16459801Y17939400D02*
X16484801D01*
X16472301Y17926900D02*
Y17951900D01*
X16209801Y21189400D02*
X16234801D01*
X16222301Y21176900D02*
Y21201900D01*
X16209801Y20939400D02*
X16234801D01*
X16222301Y20926900D02*
Y20951900D01*
X16209801Y19939400D02*
X16234801D01*
X16222301Y19926900D02*
Y19951900D01*
X16209801Y19689400D02*
X16234801D01*
X16222301Y19676900D02*
Y19701900D01*
X16209801Y19439400D02*
X16234801D01*
X16222301Y19426900D02*
Y19451900D01*
X16209801Y18689400D02*
X16234801D01*
X16222301Y18676900D02*
Y18701900D01*
X16209801Y18439400D02*
X16234801D01*
X16222301Y18426900D02*
Y18451900D01*
X16209801Y18189400D02*
X16234801D01*
X16222301Y18176900D02*
Y18201900D01*
X16209801Y17939400D02*
X16234801D01*
X16222301Y17926900D02*
Y17951900D01*
X16209801Y17689400D02*
X16234801D01*
X16222301Y17676900D02*
Y17701900D01*
X15959801Y20939400D02*
X15984801D01*
X15972301Y20926900D02*
Y20951900D01*
X15959801Y20189400D02*
X15984801D01*
X15972301Y20176900D02*
Y20201900D01*
X15959801Y19939400D02*
X15984801D01*
X15972301Y19926900D02*
Y19951900D01*
X15959801Y19689400D02*
X15984801D01*
X15972301Y19676900D02*
Y19701900D01*
X15959801Y19189400D02*
X15984801D01*
X15972301Y19176900D02*
Y19201900D01*
X15959801Y18939400D02*
X15984801D01*
X15972301Y18926900D02*
Y18951900D01*
X15959801Y18689400D02*
X15984801D01*
X15972301Y18676900D02*
Y18701900D01*
X15959801Y18439400D02*
X15984801D01*
X15972301Y18426900D02*
Y18451900D01*
X15959801Y18189400D02*
X15984801D01*
X15972301Y18176900D02*
Y18201900D01*
X15959801Y17939400D02*
X15984801D01*
X15972301Y17926900D02*
Y17951900D01*
X15959801Y17689400D02*
X15984801D01*
X15972301Y17676900D02*
Y17701900D01*
X15709801Y19939400D02*
X15734801D01*
X15722301Y19926900D02*
Y19951900D01*
X15709801Y19689400D02*
X15734801D01*
X15722301Y19676900D02*
Y19701900D01*
X15709801Y19189400D02*
X15734801D01*
X15722301Y19176900D02*
Y19201900D01*
X15709801Y18939400D02*
X15734801D01*
X15722301Y18926900D02*
Y18951900D01*
X15709801Y18689400D02*
X15734801D01*
X15722301Y18676900D02*
Y18701900D01*
X15709801Y18439400D02*
X15734801D01*
X15722301Y18426900D02*
Y18451900D01*
X15709801Y18189400D02*
X15734801D01*
X15722301Y18176900D02*
Y18201900D01*
X15709801Y17939400D02*
X15734801D01*
X15722301Y17926900D02*
Y17951900D01*
X15709801Y17689400D02*
X15734801D01*
X15722301Y17676900D02*
Y17701900D01*
X15459801Y20939400D02*
X15484801D01*
X15472301Y20926900D02*
Y20951900D01*
X15459801Y20689400D02*
X15484801D01*
X15472301Y20676900D02*
Y20701900D01*
X15459801Y20439400D02*
X15484801D01*
X15472301Y20426900D02*
Y20451900D01*
X15459801Y20189400D02*
X15484801D01*
X15472301Y20176900D02*
Y20201900D01*
X15459801Y19939400D02*
X15484801D01*
X15472301Y19926900D02*
Y19951900D01*
X15459801Y19689400D02*
X15484801D01*
X15472301Y19676900D02*
Y19701900D01*
X15459801Y19439400D02*
X15484801D01*
X15472301Y19426900D02*
Y19451900D01*
X15459801Y18689400D02*
X15484801D01*
X15472301Y18676900D02*
Y18701900D01*
X15459801Y18439400D02*
X15484801D01*
X15472301Y18426900D02*
Y18451900D01*
X15459801Y18189400D02*
X15484801D01*
X15472301Y18176900D02*
Y18201900D01*
X15459801Y17939400D02*
X15484801D01*
X15472301Y17926900D02*
Y17951900D01*
X15459801Y17689400D02*
X15484801D01*
X15472301Y17676900D02*
Y17701900D01*
X15209801Y21189400D02*
X15234801D01*
X15222301Y21176900D02*
Y21201900D01*
X15209801Y20939400D02*
X15234801D01*
X15222301Y20926900D02*
Y20951900D01*
X15209801Y20689400D02*
X15234801D01*
X15222301Y20676900D02*
Y20701900D01*
X15209801Y20439400D02*
X15234801D01*
X15222301Y20426900D02*
Y20451900D01*
X15209801Y20189400D02*
X15234801D01*
X15222301Y20176900D02*
Y20201900D01*
X15209801Y19939400D02*
X15234801D01*
X15222301Y19926900D02*
Y19951900D01*
X15209801Y19689400D02*
X15234801D01*
X15222301Y19676900D02*
Y19701900D01*
X15209801Y19439400D02*
X15234801D01*
X15222301Y19426900D02*
Y19451900D01*
X15209801Y18689400D02*
X15234801D01*
X15222301Y18676900D02*
Y18701900D01*
X15209801Y18439400D02*
X15234801D01*
X15222301Y18426900D02*
Y18451900D01*
X15209801Y18189400D02*
X15234801D01*
X15222301Y18176900D02*
Y18201900D01*
X15209801Y17939400D02*
X15234801D01*
X15222301Y17926900D02*
Y17951900D01*
X15209801Y17689400D02*
X15234801D01*
X15222301Y17676900D02*
Y17701900D01*
X14959801Y21189400D02*
X14984801D01*
X14972301Y21176900D02*
Y21201900D01*
X14959801Y20939400D02*
X14984801D01*
X14972301Y20926900D02*
Y20951900D01*
X14959801Y20689400D02*
X14984801D01*
X14972301Y20676900D02*
Y20701900D01*
X14959801Y20439400D02*
X14984801D01*
X14972301Y20426900D02*
Y20451900D01*
X14959801Y20189400D02*
X14984801D01*
X14972301Y20176900D02*
Y20201900D01*
X14959801Y19939400D02*
X14984801D01*
X14972301Y19926900D02*
Y19951900D01*
X14959801Y19439400D02*
X14984801D01*
X14972301Y19426900D02*
Y19451900D01*
X14959801Y18189400D02*
X14984801D01*
X14972301Y18176900D02*
Y18201900D01*
X14959801Y17939400D02*
X14984801D01*
X14972301Y17926900D02*
Y17951900D01*
X14959801Y17689400D02*
X14984801D01*
X14972301Y17676900D02*
Y17701900D01*
X14709801Y21189400D02*
X14734801D01*
X14722301Y21176900D02*
Y21201900D01*
X14709801Y20939400D02*
X14734801D01*
X14722301Y20926900D02*
Y20951900D01*
X14709801Y20689400D02*
X14734801D01*
X14722301Y20676900D02*
Y20701900D01*
X14709801Y20439400D02*
X14734801D01*
X14722301Y20426900D02*
Y20451900D01*
X14709801Y20189400D02*
X14734801D01*
X14722301Y20176900D02*
Y20201900D01*
X14709801Y19939400D02*
X14734801D01*
X14722301Y19926900D02*
Y19951900D01*
X14709801Y18689400D02*
X14734801D01*
X14722301Y18676900D02*
Y18701900D01*
X14709801Y17939400D02*
X14734801D01*
X14722301Y17926900D02*
Y17951900D01*
X14709801Y17689400D02*
X14734801D01*
X14722301Y17676900D02*
Y17701900D01*
X14459801Y21189400D02*
X14484801D01*
X14472301Y21176900D02*
Y21201900D01*
X14459801Y20939400D02*
X14484801D01*
X14472301Y20926900D02*
Y20951900D01*
X14459801Y20689400D02*
X14484801D01*
X14472301Y20676900D02*
Y20701900D01*
X14459801Y20439400D02*
X14484801D01*
X14472301Y20426900D02*
Y20451900D01*
X14459801Y20189400D02*
X14484801D01*
X14472301Y20176900D02*
Y20201900D01*
X14459801Y19939400D02*
X14484801D01*
X14472301Y19926900D02*
Y19951900D01*
X14459801Y19439400D02*
X14484801D01*
X14472301Y19426900D02*
Y19451900D01*
X14459801Y19189400D02*
X14484801D01*
X14472301Y19176900D02*
Y19201900D01*
X14459801Y18939400D02*
X14484801D01*
X14472301Y18926900D02*
Y18951900D01*
X14459801Y18689400D02*
X14484801D01*
X14472301Y18676900D02*
Y18701900D01*
X14459801Y18189400D02*
X14484801D01*
X14472301Y18176900D02*
Y18201900D01*
X14459801Y17939400D02*
X14484801D01*
X14472301Y17926900D02*
Y17951900D01*
X14459801Y17689400D02*
X14484801D01*
X14472301Y17676900D02*
Y17701900D01*
X15384599Y19034000D02*
X15409599D01*
X15397099Y19021500D02*
Y19046500D01*
X16902809Y18412537D02*
X16927809D01*
X16915309Y18400037D02*
Y18425037D01*
X17001097Y18510825D02*
X17026097D01*
X17013597Y18498325D02*
Y18523323D01*
X14686099Y19171100D02*
X14711099D01*
X14698599Y19158600D02*
Y19183600D01*
X15219501Y19171100D02*
X15244501D01*
X15232001Y19158600D02*
Y19183600D01*
X14686099Y18970500D02*
X14711099D01*
X14698599Y18958000D02*
Y18983000D01*
X15143300Y18970500D02*
X15168300D01*
X15155800Y18958000D02*
Y18983000D01*
X7992900Y22935646D02*
X8167900D01*
X8080400Y22848146D02*
Y23023145D01*
X7992900Y24025346D02*
X8167900D01*
X8080400Y23937846D02*
Y24112846D01*
X11232600Y25795099D02*
X11322600D01*
X11277600Y25750101D02*
Y25840100D01*
X11486600Y25795099D02*
X11576600D01*
X11531600Y25750101D02*
Y25840100D01*
X8983100Y25795099D02*
X9073100D01*
X9028100Y25750101D02*
Y25840100D01*
X9237100Y25795099D02*
X9327100D01*
X9282100Y25750101D02*
Y25840100D01*
X12889201Y25689899D02*
X12914200D01*
X12901700Y25677402D02*
Y25702399D01*
X12889201Y24939900D02*
X12914200D01*
X12901700Y24927400D02*
Y24952400D01*
X12889201Y24689900D02*
X12914200D01*
X12901700Y24677400D02*
Y24702400D01*
X12889201Y24439900D02*
X12914200D01*
X12901700Y24427400D02*
Y24452400D01*
X12889201Y24189900D02*
X12914200D01*
X12901700Y24177400D02*
Y24202400D01*
X12889201Y23939900D02*
X12914200D01*
X12901700Y23927400D02*
Y23952400D01*
X12889201Y23689900D02*
X12914200D01*
X12901700Y23677400D02*
Y23702400D01*
X12889201Y23439900D02*
X12914200D01*
X12901700Y23427400D02*
Y23452400D01*
X12889201Y23189900D02*
X12914200D01*
X12901700Y23177400D02*
Y23202400D01*
X12889201Y22939900D02*
X12914200D01*
X12901700Y22927400D02*
Y22952400D01*
X12889201Y22689900D02*
X12914200D01*
X12901700Y22677400D02*
Y22702400D01*
X12889201Y22439900D02*
X12914200D01*
X12901700Y22427400D02*
Y22452400D01*
X12889201Y22189900D02*
X12914200D01*
X12901700Y22177400D02*
Y22202400D01*
X12639201Y25689899D02*
X12664200D01*
X12651700Y25677402D02*
Y25702399D01*
X12639201Y25439900D02*
X12664200D01*
X12651700Y25427402D02*
Y25452400D01*
X12639201Y25189900D02*
X12664200D01*
X12651700Y25177400D02*
Y25202400D01*
X12639201Y24939900D02*
X12664200D01*
X12651700Y24927400D02*
Y24952400D01*
X12639201Y24689900D02*
X12664200D01*
X12651700Y24677400D02*
Y24702400D01*
X12639201Y24439900D02*
X12664200D01*
X12651700Y24427400D02*
Y24452400D01*
X12639201Y24189900D02*
X12664200D01*
X12651700Y24177400D02*
Y24202400D01*
X12639201Y23939900D02*
X12664200D01*
X12651700Y23927400D02*
Y23952400D01*
X12639201Y23689900D02*
X12664200D01*
X12651700Y23677400D02*
Y23702400D01*
X12639201Y23439900D02*
X12664200D01*
X12651700Y23427400D02*
Y23452400D01*
X12639201Y23189900D02*
X12664200D01*
X12651700Y23177400D02*
Y23202400D01*
X12639201Y22939900D02*
X12664200D01*
X12651700Y22927400D02*
Y22952400D01*
X12639201Y22689900D02*
X12664200D01*
X12651700Y22677400D02*
Y22702400D01*
X12639201Y22189900D02*
X12664200D01*
X12651700Y22177400D02*
Y22202400D01*
X12389201Y25689899D02*
X12414200D01*
X12401700Y25677402D02*
Y25702399D01*
X12389201Y25439900D02*
X12414200D01*
X12401700Y25427402D02*
Y25452400D01*
X12389201Y25189900D02*
X12414200D01*
X12401700Y25177400D02*
Y25202400D01*
X12389201Y24939900D02*
X12414200D01*
X12401700Y24927400D02*
Y24952400D01*
X12389201Y24189900D02*
X12414200D01*
X12401700Y24177400D02*
Y24202400D01*
X12389201Y23939900D02*
X12414200D01*
X12401700Y23927400D02*
Y23952400D01*
X12389201Y22189900D02*
X12414200D01*
X12401700Y22177400D02*
Y22202400D01*
X12139201Y25439900D02*
X12164200D01*
X12151700Y25427402D02*
Y25452400D01*
X12139201Y25189900D02*
X12164200D01*
X12151700Y25177400D02*
Y25202400D01*
X12139201Y24939900D02*
X12164200D01*
X12151700Y24927400D02*
Y24952400D01*
X12139201Y24189900D02*
X12164200D01*
X12151700Y24177400D02*
Y24202400D01*
X12139201Y23939900D02*
X12164200D01*
X12151700Y23927400D02*
Y23952400D01*
X12139201Y23189900D02*
X12164200D01*
X12151700Y23177400D02*
Y23202400D01*
X12139201Y22939900D02*
X12164200D01*
X12151700Y22927400D02*
Y22952400D01*
X12139201Y22689900D02*
X12164200D01*
X12151700Y22677400D02*
Y22702400D01*
X12139201Y22189900D02*
X12164200D01*
X12151700Y22177400D02*
Y22202400D01*
X11889201Y25439900D02*
X11914200D01*
X11901700Y25427402D02*
Y25452400D01*
X11889201Y25189900D02*
X11914200D01*
X11901700Y25177400D02*
Y25202400D01*
X11889201Y24939900D02*
X11914200D01*
X11901700Y24927400D02*
Y24952400D01*
X11889201Y24689900D02*
X11914200D01*
X11901700Y24677400D02*
Y24702400D01*
X11889201Y24439900D02*
X11914200D01*
X11901700Y24427400D02*
Y24452400D01*
X11889201Y24189900D02*
X11914200D01*
X11901700Y24177400D02*
Y24202400D01*
X11889201Y23939900D02*
X11914200D01*
X11901700Y23927400D02*
Y23952400D01*
X11889201Y23689900D02*
X11914200D01*
X11901700Y23677400D02*
Y23702400D01*
X11889201Y23439900D02*
X11914200D01*
X11901700Y23427400D02*
Y23452400D01*
X11889201Y23189900D02*
X11914200D01*
X11901700Y23177400D02*
Y23202400D01*
X11889201Y22939900D02*
X11914200D01*
X11901700Y22927400D02*
Y22952400D01*
X11889201Y22689900D02*
X11914200D01*
X11901700Y22677400D02*
Y22702400D01*
X11889201Y22189900D02*
X11914200D01*
X11901700Y22177400D02*
Y22202400D01*
X11639200Y24439900D02*
X11664200D01*
X11651700Y24427400D02*
Y24452400D01*
X11639200Y23939900D02*
X11664200D01*
X11651700Y23927400D02*
Y23952400D01*
X11639200Y23439900D02*
X11664200D01*
X11651700Y23427400D02*
Y23452400D01*
X11639200Y23189900D02*
X11664200D01*
X11651700Y23177400D02*
Y23202400D01*
X11639200Y22939900D02*
X11664200D01*
X11651700Y22927400D02*
Y22952400D01*
X11639200Y22689900D02*
X11664200D01*
X11651700Y22677400D02*
Y22702400D01*
X11639200Y22189900D02*
X11664200D01*
X11651700Y22177400D02*
Y22202400D01*
X11389200Y23189900D02*
X11414200D01*
X11401700Y23177400D02*
Y23202400D01*
X11389200Y22689900D02*
X11414200D01*
X11401700Y22677400D02*
Y22702400D01*
X11389200Y22439900D02*
X11414200D01*
X11401700Y22427400D02*
Y22452400D01*
X11389200Y22189900D02*
X11414200D01*
X11401700Y22177400D02*
Y22202400D01*
X11139200Y25189900D02*
X11164200D01*
X11151700Y25177400D02*
Y25202400D01*
X11139200Y23439900D02*
X11164200D01*
X11151700Y23427400D02*
Y23452400D01*
X11139200Y23189900D02*
X11164200D01*
X11151700Y23177400D02*
Y23202400D01*
X11139200Y22439900D02*
X11164200D01*
X11151700Y22427400D02*
Y22452400D01*
X11139200Y22189900D02*
X11164200D01*
X11151700Y22177400D02*
Y22202400D01*
X10889200Y25689899D02*
X10914200D01*
X10901700Y25677402D02*
Y25702399D01*
X10889200Y24189900D02*
X10914200D01*
X10901700Y24177400D02*
Y24202400D01*
X10889200Y23939900D02*
X10914200D01*
X10901700Y23927400D02*
Y23952400D01*
X10889200Y23439900D02*
X10914200D01*
X10901700Y23427400D02*
Y23452400D01*
X10889200Y23189900D02*
X10914200D01*
X10901700Y23177400D02*
Y23202400D01*
X10889200Y22439900D02*
X10914200D01*
X10901700Y22427400D02*
Y22452400D01*
X10639200Y25689899D02*
X10664200D01*
X10651700Y25677402D02*
Y25702399D01*
X10639200Y25439900D02*
X10664200D01*
X10651700Y25427402D02*
Y25452400D01*
X10639200Y24189900D02*
X10664200D01*
X10651700Y24177400D02*
Y24202400D01*
X10639200Y23939900D02*
X10664200D01*
X10651700Y23927400D02*
Y23952400D01*
X10639200Y23439900D02*
X10664200D01*
X10651700Y23427400D02*
Y23452400D01*
X10639200Y23189900D02*
X10664200D01*
X10651700Y23177400D02*
Y23202400D01*
X10639200Y22689900D02*
X10664200D01*
X10651700Y22677400D02*
Y22702400D01*
X10389200Y25689899D02*
X10414200D01*
X10401700Y25677402D02*
Y25702399D01*
X10389200Y25439900D02*
X10414200D01*
X10401700Y25427402D02*
Y25452400D01*
X10389200Y24439900D02*
X10414200D01*
X10401700Y24427400D02*
Y24452400D01*
X10389200Y24189900D02*
X10414200D01*
X10401700Y24177400D02*
Y24202400D01*
X10389200Y23939900D02*
X10414200D01*
X10401700Y23927400D02*
Y23952400D01*
X10389200Y23189900D02*
X10414200D01*
X10401700Y23177400D02*
Y23202400D01*
X10389200Y22689900D02*
X10414200D01*
X10401700Y22677400D02*
Y22702400D01*
X10139200Y25689899D02*
X10164200D01*
X10151700Y25677402D02*
Y25702399D01*
X10139200Y24439900D02*
X10164200D01*
X10151700Y24427400D02*
Y24452400D01*
X10139200Y24189900D02*
X10164200D01*
X10151700Y24177400D02*
Y24202400D01*
X10139200Y23939900D02*
X10164200D01*
X10151700Y23927400D02*
Y23952400D01*
X10139200Y22939900D02*
X10164200D01*
X10151700Y22927400D02*
Y22952400D01*
X10139200Y22689900D02*
X10164200D01*
X10151700Y22677400D02*
Y22702400D01*
X9889200Y25689899D02*
X9914200D01*
X9901700Y25677402D02*
Y25702399D01*
X9889200Y25439900D02*
X9914200D01*
X9901700Y25427402D02*
Y25452400D01*
X9889200Y24439900D02*
X9914200D01*
X9901700Y24427400D02*
Y24452400D01*
X9889200Y24189900D02*
X9914200D01*
X9901700Y24177400D02*
Y24202400D01*
X9889200Y23939900D02*
X9914200D01*
X9901700Y23927400D02*
Y23952400D01*
X9889200Y23189900D02*
X9914200D01*
X9901700Y23177400D02*
Y23202400D01*
X9889200Y22939900D02*
X9914200D01*
X9901700Y22927400D02*
Y22952400D01*
X9889200Y22689900D02*
X9914200D01*
X9901700Y22677400D02*
Y22702400D01*
X9889200Y22439900D02*
X9914200D01*
X9901700Y22427400D02*
Y22452400D01*
X9639200Y25689899D02*
X9664200D01*
X9651700Y25677402D02*
Y25702399D01*
X9639200Y25439900D02*
X9664200D01*
X9651700Y25427402D02*
Y25452400D01*
X9639200Y24439900D02*
X9664200D01*
X9651700Y24427400D02*
Y24452400D01*
X9639200Y24189900D02*
X9664200D01*
X9651700Y24177400D02*
Y24202400D01*
X9639200Y23939900D02*
X9664200D01*
X9651700Y23927400D02*
Y23952400D01*
X9639200Y23189900D02*
X9664200D01*
X9651700Y23177400D02*
Y23202400D01*
X9639200Y22939900D02*
X9664200D01*
X9651700Y22927400D02*
Y22952400D01*
X9639200Y22689900D02*
X9664200D01*
X9651700Y22677400D02*
Y22702400D01*
X9639200Y22439900D02*
X9664200D01*
X9651700Y22427400D02*
Y22452400D01*
X9639200Y22189900D02*
X9664200D01*
X9651700Y22177400D02*
Y22202400D01*
X9389200Y25439900D02*
X9414200D01*
X9401700Y25427402D02*
Y25452400D01*
X9389200Y24689900D02*
X9414200D01*
X9401700Y24677400D02*
Y24702400D01*
X9389200Y24439900D02*
X9414200D01*
X9401700Y24427400D02*
Y24452400D01*
X9389200Y24189900D02*
X9414200D01*
X9401700Y24177400D02*
Y24202400D01*
X9389200Y23689900D02*
X9414200D01*
X9401700Y23677400D02*
Y23702400D01*
X9389200Y23439900D02*
X9414200D01*
X9401700Y23427400D02*
Y23452400D01*
X9389200Y23189900D02*
X9414200D01*
X9401700Y23177400D02*
Y23202400D01*
X9389200Y22939900D02*
X9414200D01*
X9401700Y22927400D02*
Y22952400D01*
X9389200Y22689900D02*
X9414200D01*
X9401700Y22677400D02*
Y22702400D01*
X9389200Y22439900D02*
X9414200D01*
X9401700Y22427400D02*
Y22452400D01*
X9389200Y22189900D02*
X9414200D01*
X9401700Y22177400D02*
Y22202400D01*
X9139200Y24439900D02*
X9164200D01*
X9151700Y24427400D02*
Y24452400D01*
X9139200Y24189900D02*
X9164200D01*
X9151700Y24177400D02*
Y24202400D01*
X9139200Y23689900D02*
X9164200D01*
X9151700Y23677400D02*
Y23702400D01*
X9139200Y23439900D02*
X9164200D01*
X9151700Y23427400D02*
Y23452400D01*
X9139200Y23189900D02*
X9164200D01*
X9151700Y23177400D02*
Y23202400D01*
X9139200Y22939900D02*
X9164200D01*
X9151700Y22927400D02*
Y22952400D01*
X9139200Y22689900D02*
X9164200D01*
X9151700Y22677400D02*
Y22702400D01*
X9139200Y22439900D02*
X9164200D01*
X9151700Y22427400D02*
Y22452400D01*
X9139200Y22189900D02*
X9164200D01*
X9151700Y22177400D02*
Y22202400D01*
X8889200Y25439900D02*
X8914200D01*
X8901700Y25427402D02*
Y25452400D01*
X8889200Y25189900D02*
X8914200D01*
X8901700Y25177400D02*
Y25202400D01*
X8889200Y24939900D02*
X8914200D01*
X8901700Y24927400D02*
Y24952400D01*
X8889200Y24689900D02*
X8914200D01*
X8901700Y24677400D02*
Y24702400D01*
X8889200Y24439900D02*
X8914200D01*
X8901700Y24427400D02*
Y24452400D01*
X8889200Y24189900D02*
X8914200D01*
X8901700Y24177400D02*
Y24202400D01*
X8889200Y23939900D02*
X8914200D01*
X8901700Y23927400D02*
Y23952400D01*
X8889200Y23189900D02*
X8914200D01*
X8901700Y23177400D02*
Y23202400D01*
X8889200Y22939900D02*
X8914200D01*
X8901700Y22927400D02*
Y22952400D01*
X8889200Y22689900D02*
X8914200D01*
X8901700Y22677400D02*
Y22702400D01*
X8889200Y22439900D02*
X8914200D01*
X8901700Y22427400D02*
Y22452400D01*
X8889200Y22189900D02*
X8914200D01*
X8901700Y22177400D02*
Y22202400D01*
X8639200Y25689899D02*
X8664200D01*
X8651700Y25677402D02*
Y25702399D01*
X8639200Y25439900D02*
X8664200D01*
X8651700Y25427402D02*
Y25452400D01*
X8639200Y25189900D02*
X8664200D01*
X8651700Y25177400D02*
Y25202400D01*
X8639200Y24939900D02*
X8664200D01*
X8651700Y24927400D02*
Y24952400D01*
X8639200Y24689900D02*
X8664200D01*
X8651700Y24677400D02*
Y24702400D01*
X8639200Y24439900D02*
X8664200D01*
X8651700Y24427400D02*
Y24452400D01*
X8639200Y24189900D02*
X8664200D01*
X8651700Y24177400D02*
Y24202400D01*
X8639200Y23939900D02*
X8664200D01*
X8651700Y23927400D02*
Y23952400D01*
X8639200Y23189900D02*
X8664200D01*
X8651700Y23177400D02*
Y23202400D01*
X8639200Y22939900D02*
X8664200D01*
X8651700Y22927400D02*
Y22952400D01*
X8639200Y22689900D02*
X8664200D01*
X8651700Y22677400D02*
Y22702400D01*
X8639200Y22439900D02*
X8664200D01*
X8651700Y22427400D02*
Y22452400D01*
X8639200Y22189900D02*
X8664200D01*
X8651700Y22177400D02*
Y22202400D01*
X8389200Y25689899D02*
X8414200D01*
X8401700Y25677402D02*
Y25702399D01*
X8389200Y25439900D02*
X8414200D01*
X8401700Y25427402D02*
Y25452400D01*
X8389200Y25189900D02*
X8414200D01*
X8401700Y25177400D02*
Y25202400D01*
X8389200Y24939900D02*
X8414200D01*
X8401700Y24927400D02*
Y24952400D01*
X8389200Y24689900D02*
X8414200D01*
X8401700Y24677400D02*
Y24702400D01*
X8389200Y24439900D02*
X8414200D01*
X8401700Y24427400D02*
Y24452400D01*
X8389200Y23939900D02*
X8414200D01*
X8401700Y23927400D02*
Y23952400D01*
X8389200Y22689900D02*
X8414200D01*
X8401700Y22677400D02*
Y22702400D01*
X8389200Y22439900D02*
X8414200D01*
X8401700Y22427400D02*
Y22452400D01*
X8389200Y22189900D02*
X8414200D01*
X8401700Y22177400D02*
Y22202400D01*
X8139200Y25689899D02*
X8164200D01*
X8151700Y25677402D02*
Y25702399D01*
X8139200Y25439900D02*
X8164200D01*
X8151700Y25427402D02*
Y25452400D01*
X8139200Y25189900D02*
X8164200D01*
X8151700Y25177400D02*
Y25202400D01*
X8139200Y24939900D02*
X8164200D01*
X8151700Y24927400D02*
Y24952400D01*
X8139200Y24689900D02*
X8164200D01*
X8151700Y24677400D02*
Y24702400D01*
X8139200Y24439900D02*
X8164200D01*
X8151700Y24427400D02*
Y24452400D01*
X8139200Y23189900D02*
X8164200D01*
X8151700Y23177400D02*
Y23202400D01*
X8139200Y22439900D02*
X8164200D01*
X8151700Y22427400D02*
Y22452400D01*
X8139200Y22189900D02*
X8164200D01*
X8151700Y22177400D02*
Y22202400D01*
X7889200Y25689899D02*
X7914200D01*
X7901700Y25677402D02*
Y25702399D01*
X7889200Y25439900D02*
X7914200D01*
X7901700Y25427402D02*
Y25452400D01*
X7889200Y25189900D02*
X7914200D01*
X7901700Y25177400D02*
Y25202400D01*
X7889200Y24939900D02*
X7914200D01*
X7901700Y24927400D02*
Y24952400D01*
X7889200Y24689900D02*
X7914200D01*
X7901700Y24677400D02*
Y24702400D01*
X7889200Y24439900D02*
X7914200D01*
X7901700Y24427400D02*
Y24452400D01*
X7889200Y23939900D02*
X7914200D01*
X7901700Y23927400D02*
Y23952400D01*
X7889200Y23689900D02*
X7914200D01*
X7901700Y23677400D02*
Y23702400D01*
X7889200Y23439900D02*
X7914200D01*
X7901700Y23427400D02*
Y23452400D01*
X7889200Y23189900D02*
X7914200D01*
X7901700Y23177400D02*
Y23202400D01*
X7889200Y22689900D02*
X7914200D01*
X7901700Y22677400D02*
Y22702400D01*
X7889200Y22439900D02*
X7914200D01*
X7901700Y22427400D02*
Y22452400D01*
X7889200Y22189900D02*
X7914200D01*
X7901700Y22177400D02*
Y22202400D01*
X8814000Y23534500D02*
X8839000D01*
X8826500Y23522000D02*
Y23547000D01*
X10332209Y22913036D02*
X10357209D01*
X10344709Y22900536D02*
Y22925536D01*
X10430497Y23011324D02*
X10455496D01*
X10442997Y22998824D02*
Y23023824D01*
X8115500Y23671600D02*
X8140500D01*
X8128000Y23659100D02*
Y23684100D01*
X8648900Y23671600D02*
X8673900D01*
X8661400Y23659100D02*
Y23684100D01*
X8115500Y23471001D02*
X8140500D01*
X8128000Y23458501D02*
Y23483501D01*
X8572700Y23471001D02*
X8597700D01*
X8585200Y23458501D02*
Y23483501D01*
X14563499Y22935646D02*
X14738499D01*
X14650999Y22848146D02*
Y23023145D01*
X14563499Y24025346D02*
X14738499D01*
X14650999Y23937846D02*
Y24112846D01*
X17803200Y25795099D02*
X17893201D01*
X17848199Y25750101D02*
Y25840100D01*
X18057201Y25795099D02*
X18147200D01*
X18102200Y25750101D02*
Y25840100D01*
X15553700Y25795099D02*
X15643700D01*
X15598700Y25750101D02*
Y25840100D01*
X15807700Y25795099D02*
X15897701D01*
X15852699Y25750101D02*
Y25840100D01*
X19459801Y25689899D02*
X19484801D01*
X19472301Y25677402D02*
Y25702399D01*
X19459801Y24939900D02*
X19484801D01*
X19472301Y24927400D02*
Y24952400D01*
X19459801Y24689900D02*
X19484801D01*
X19472301Y24677400D02*
Y24702400D01*
X19459801Y24439900D02*
X19484801D01*
X19472301Y24427400D02*
Y24452400D01*
X19459801Y24189900D02*
X19484801D01*
X19472301Y24177400D02*
Y24202400D01*
X19459801Y23939900D02*
X19484801D01*
X19472301Y23927400D02*
Y23952400D01*
X19459801Y23689900D02*
X19484801D01*
X19472301Y23677400D02*
Y23702400D01*
X19459801Y23439900D02*
X19484801D01*
X19472301Y23427400D02*
Y23452400D01*
X19459801Y23189900D02*
X19484801D01*
X19472301Y23177400D02*
Y23202400D01*
X19459801Y22939900D02*
X19484801D01*
X19472301Y22927400D02*
Y22952400D01*
X19459801Y22689900D02*
X19484801D01*
X19472301Y22677400D02*
Y22702400D01*
X19459801Y22439900D02*
X19484801D01*
X19472301Y22427400D02*
Y22452400D01*
X19459801Y22189900D02*
X19484801D01*
X19472301Y22177400D02*
Y22202400D01*
X19209801Y25689899D02*
X19234801D01*
X19222301Y25677402D02*
Y25702399D01*
X19209801Y25439900D02*
X19234801D01*
X19222301Y25427402D02*
Y25452400D01*
X19209801Y25189900D02*
X19234801D01*
X19222301Y25177400D02*
Y25202400D01*
X19209801Y24939900D02*
X19234801D01*
X19222301Y24927400D02*
Y24952400D01*
X19209801Y24689900D02*
X19234801D01*
X19222301Y24677400D02*
Y24702400D01*
X19209801Y24439900D02*
X19234801D01*
X19222301Y24427400D02*
Y24452400D01*
X19209801Y24189900D02*
X19234801D01*
X19222301Y24177400D02*
Y24202400D01*
X19209801Y23939900D02*
X19234801D01*
X19222301Y23927400D02*
Y23952400D01*
X19209801Y23689900D02*
X19234801D01*
X19222301Y23677400D02*
Y23702400D01*
X19209801Y23439900D02*
X19234801D01*
X19222301Y23427400D02*
Y23452400D01*
X19209801Y23189900D02*
X19234801D01*
X19222301Y23177400D02*
Y23202400D01*
X19209801Y22939900D02*
X19234801D01*
X19222301Y22927400D02*
Y22952400D01*
X19209801Y22689900D02*
X19234801D01*
X19222301Y22677400D02*
Y22702400D01*
X19209801Y22189900D02*
X19234801D01*
X19222301Y22177400D02*
Y22202400D01*
X18959801Y25689899D02*
X18984801D01*
X18972301Y25677402D02*
Y25702399D01*
X18959801Y25439900D02*
X18984801D01*
X18972301Y25427402D02*
Y25452400D01*
X18959801Y25189900D02*
X18984801D01*
X18972301Y25177400D02*
Y25202400D01*
X18959801Y24939900D02*
X18984801D01*
X18972301Y24927400D02*
Y24952400D01*
X18959801Y24189900D02*
X18984801D01*
X18972301Y24177400D02*
Y24202400D01*
X18959801Y23939900D02*
X18984801D01*
X18972301Y23927400D02*
Y23952400D01*
X18959801Y22189900D02*
X18984801D01*
X18972301Y22177400D02*
Y22202400D01*
X18709801Y25439900D02*
X18734801D01*
X18722301Y25427402D02*
Y25452400D01*
X18709801Y25189900D02*
X18734801D01*
X18722301Y25177400D02*
Y25202400D01*
X18709801Y24939900D02*
X18734801D01*
X18722301Y24927400D02*
Y24952400D01*
X18709801Y24189900D02*
X18734801D01*
X18722301Y24177400D02*
Y24202400D01*
X18709801Y23939900D02*
X18734801D01*
X18722301Y23927400D02*
Y23952400D01*
X18709801Y23189900D02*
X18734801D01*
X18722301Y23177400D02*
Y23202400D01*
X18709801Y22939900D02*
X18734801D01*
X18722301Y22927400D02*
Y22952400D01*
X18709801Y22689900D02*
X18734801D01*
X18722301Y22677400D02*
Y22702400D01*
X18709801Y22189900D02*
X18734801D01*
X18722301Y22177400D02*
Y22202400D01*
X18459801Y25439900D02*
X18484801D01*
X18472301Y25427402D02*
Y25452400D01*
X18459801Y25189900D02*
X18484801D01*
X18472301Y25177400D02*
Y25202400D01*
X18459801Y24939900D02*
X18484801D01*
X18472301Y24927400D02*
Y24952400D01*
X18459801Y24689900D02*
X18484801D01*
X18472301Y24677400D02*
Y24702400D01*
X18459801Y24439900D02*
X18484801D01*
X18472301Y24427400D02*
Y24452400D01*
X18459801Y24189900D02*
X18484801D01*
X18472301Y24177400D02*
Y24202400D01*
X18459801Y23939900D02*
X18484801D01*
X18472301Y23927400D02*
Y23952400D01*
X18459801Y23689900D02*
X18484801D01*
X18472301Y23677400D02*
Y23702400D01*
X18459801Y23439900D02*
X18484801D01*
X18472301Y23427400D02*
Y23452400D01*
X18459801Y23189900D02*
X18484801D01*
X18472301Y23177400D02*
Y23202400D01*
X18459801Y22939900D02*
X18484801D01*
X18472301Y22927400D02*
Y22952400D01*
X18459801Y22689900D02*
X18484801D01*
X18472301Y22677400D02*
Y22702400D01*
X18459801Y22189900D02*
X18484801D01*
X18472301Y22177400D02*
Y22202400D01*
X18209801Y24439900D02*
X18234801D01*
X18222301Y24427400D02*
Y24452400D01*
X18209801Y23939900D02*
X18234801D01*
X18222301Y23927400D02*
Y23952400D01*
X18209801Y23439900D02*
X18234801D01*
X18222301Y23427400D02*
Y23452400D01*
X18209801Y23189900D02*
X18234801D01*
X18222301Y23177400D02*
Y23202400D01*
X18209801Y22939900D02*
X18234801D01*
X18222301Y22927400D02*
Y22952400D01*
X18209801Y22689900D02*
X18234801D01*
X18222301Y22677400D02*
Y22702400D01*
X18209801Y22189900D02*
X18234801D01*
X18222301Y22177400D02*
Y22202400D01*
X17959801Y23189900D02*
X17984801D01*
X17972301Y23177400D02*
Y23202400D01*
X17959801Y22689900D02*
X17984801D01*
X17972301Y22677400D02*
Y22702400D01*
X17959801Y22439900D02*
X17984801D01*
X17972301Y22427400D02*
Y22452400D01*
X17959801Y22189900D02*
X17984801D01*
X17972301Y22177400D02*
Y22202400D01*
X17709801Y25189900D02*
X17734801D01*
X17722301Y25177400D02*
Y25202400D01*
X17709801Y23439900D02*
X17734801D01*
X17722301Y23427400D02*
Y23452400D01*
X17709801Y23189900D02*
X17734801D01*
X17722301Y23177400D02*
Y23202400D01*
X17709801Y22439900D02*
X17734801D01*
X17722301Y22427400D02*
Y22452400D01*
X17709801Y22189900D02*
X17734801D01*
X17722301Y22177400D02*
Y22202400D01*
X17459801Y25689899D02*
X17484801D01*
X17472301Y25677402D02*
Y25702399D01*
X17459801Y24189900D02*
X17484801D01*
X17472301Y24177400D02*
Y24202400D01*
X17459801Y23939900D02*
X17484801D01*
X17472301Y23927400D02*
Y23952400D01*
X17459801Y23439900D02*
X17484801D01*
X17472301Y23427400D02*
Y23452400D01*
X17459801Y23189900D02*
X17484801D01*
X17472301Y23177400D02*
Y23202400D01*
X17459801Y22439900D02*
X17484801D01*
X17472301Y22427400D02*
Y22452400D01*
X17209801Y25689899D02*
X17234801D01*
X17222301Y25677402D02*
Y25702399D01*
X17209801Y25439900D02*
X17234801D01*
X17222301Y25427402D02*
Y25452400D01*
X17209801Y24189900D02*
X17234801D01*
X17222301Y24177400D02*
Y24202400D01*
X17209801Y23939900D02*
X17234801D01*
X17222301Y23927400D02*
Y23952400D01*
X17209801Y23439900D02*
X17234801D01*
X17222301Y23427400D02*
Y23452400D01*
X17209801Y23189900D02*
X17234801D01*
X17222301Y23177400D02*
Y23202400D01*
X17209801Y22689900D02*
X17234801D01*
X17222301Y22677400D02*
Y22702400D01*
X16959801Y25689899D02*
X16984801D01*
X16972301Y25677402D02*
Y25702399D01*
X16959801Y25439900D02*
X16984801D01*
X16972301Y25427402D02*
Y25452400D01*
X16959801Y24439900D02*
X16984801D01*
X16972301Y24427400D02*
Y24452400D01*
X16959801Y24189900D02*
X16984801D01*
X16972301Y24177400D02*
Y24202400D01*
X16959801Y23939900D02*
X16984801D01*
X16972301Y23927400D02*
Y23952400D01*
X16959801Y23189900D02*
X16984801D01*
X16972301Y23177400D02*
Y23202400D01*
X16959801Y22689900D02*
X16984801D01*
X16972301Y22677400D02*
Y22702400D01*
X16709801Y25689899D02*
X16734801D01*
X16722301Y25677402D02*
Y25702399D01*
X16709801Y24439900D02*
X16734801D01*
X16722301Y24427400D02*
Y24452400D01*
X16709801Y24189900D02*
X16734801D01*
X16722301Y24177400D02*
Y24202400D01*
X16709801Y23939900D02*
X16734801D01*
X16722301Y23927400D02*
Y23952400D01*
X16709801Y22939900D02*
X16734801D01*
X16722301Y22927400D02*
Y22952400D01*
X16709801Y22689900D02*
X16734801D01*
X16722301Y22677400D02*
Y22702400D01*
X16459801Y25689899D02*
X16484801D01*
X16472301Y25677402D02*
Y25702399D01*
X16459801Y25439900D02*
X16484801D01*
X16472301Y25427402D02*
Y25452400D01*
X16459801Y24439900D02*
X16484801D01*
X16472301Y24427400D02*
Y24452400D01*
X16459801Y24189900D02*
X16484801D01*
X16472301Y24177400D02*
Y24202400D01*
X16459801Y23939900D02*
X16484801D01*
X16472301Y23927400D02*
Y23952400D01*
X16459801Y23189900D02*
X16484801D01*
X16472301Y23177400D02*
Y23202400D01*
X16459801Y22939900D02*
X16484801D01*
X16472301Y22927400D02*
Y22952400D01*
X16459801Y22689900D02*
X16484801D01*
X16472301Y22677400D02*
Y22702400D01*
X16459801Y22439900D02*
X16484801D01*
X16472301Y22427400D02*
Y22452400D01*
X16209801Y25689899D02*
X16234801D01*
X16222301Y25677402D02*
Y25702399D01*
X16209801Y25439900D02*
X16234801D01*
X16222301Y25427402D02*
Y25452400D01*
X16209801Y24439900D02*
X16234801D01*
X16222301Y24427400D02*
Y24452400D01*
X16209801Y24189900D02*
X16234801D01*
X16222301Y24177400D02*
Y24202400D01*
X16209801Y23939900D02*
X16234801D01*
X16222301Y23927400D02*
Y23952400D01*
X16209801Y23189900D02*
X16234801D01*
X16222301Y23177400D02*
Y23202400D01*
X16209801Y22939900D02*
X16234801D01*
X16222301Y22927400D02*
Y22952400D01*
X16209801Y22689900D02*
X16234801D01*
X16222301Y22677400D02*
Y22702400D01*
X16209801Y22439900D02*
X16234801D01*
X16222301Y22427400D02*
Y22452400D01*
X16209801Y22189900D02*
X16234801D01*
X16222301Y22177400D02*
Y22202400D01*
X15959801Y25439900D02*
X15984801D01*
X15972301Y25427402D02*
Y25452400D01*
X15959801Y24689900D02*
X15984801D01*
X15972301Y24677400D02*
Y24702400D01*
X15959801Y24439900D02*
X15984801D01*
X15972301Y24427400D02*
Y24452400D01*
X15959801Y24189900D02*
X15984801D01*
X15972301Y24177400D02*
Y24202400D01*
X15959801Y23689900D02*
X15984801D01*
X15972301Y23677400D02*
Y23702400D01*
X15959801Y23439900D02*
X15984801D01*
X15972301Y23427400D02*
Y23452400D01*
X15959801Y23189900D02*
X15984801D01*
X15972301Y23177400D02*
Y23202400D01*
X15959801Y22939900D02*
X15984801D01*
X15972301Y22927400D02*
Y22952400D01*
X15959801Y22689900D02*
X15984801D01*
X15972301Y22677400D02*
Y22702400D01*
X15959801Y22439900D02*
X15984801D01*
X15972301Y22427400D02*
Y22452400D01*
X15959801Y22189900D02*
X15984801D01*
X15972301Y22177400D02*
Y22202400D01*
X15709801Y24439900D02*
X15734801D01*
X15722301Y24427400D02*
Y24452400D01*
X15709801Y24189900D02*
X15734801D01*
X15722301Y24177400D02*
Y24202400D01*
X15709801Y23689900D02*
X15734801D01*
X15722301Y23677400D02*
Y23702400D01*
X15709801Y23439900D02*
X15734801D01*
X15722301Y23427400D02*
Y23452400D01*
X15709801Y23189900D02*
X15734801D01*
X15722301Y23177400D02*
Y23202400D01*
X15709801Y22939900D02*
X15734801D01*
X15722301Y22927400D02*
Y22952400D01*
X15709801Y22689900D02*
X15734801D01*
X15722301Y22677400D02*
Y22702400D01*
X15709801Y22439900D02*
X15734801D01*
X15722301Y22427400D02*
Y22452400D01*
X15709801Y22189900D02*
X15734801D01*
X15722301Y22177400D02*
Y22202400D01*
X15459801Y25439900D02*
X15484801D01*
X15472301Y25427402D02*
Y25452400D01*
X15459801Y25189900D02*
X15484801D01*
X15472301Y25177400D02*
Y25202400D01*
X15459801Y24939900D02*
X15484801D01*
X15472301Y24927400D02*
Y24952400D01*
X15459801Y24689900D02*
X15484801D01*
X15472301Y24677400D02*
Y24702400D01*
X15459801Y24439900D02*
X15484801D01*
X15472301Y24427400D02*
Y24452400D01*
X15459801Y24189900D02*
X15484801D01*
X15472301Y24177400D02*
Y24202400D01*
X15459801Y23939900D02*
X15484801D01*
X15472301Y23927400D02*
Y23952400D01*
X15459801Y23189900D02*
X15484801D01*
X15472301Y23177400D02*
Y23202400D01*
X15459801Y22939900D02*
X15484801D01*
X15472301Y22927400D02*
Y22952400D01*
X15459801Y22689900D02*
X15484801D01*
X15472301Y22677400D02*
Y22702400D01*
X15459801Y22439900D02*
X15484801D01*
X15472301Y22427400D02*
Y22452400D01*
X15459801Y22189900D02*
X15484801D01*
X15472301Y22177400D02*
Y22202400D01*
X15209801Y25689899D02*
X15234801D01*
X15222301Y25677402D02*
Y25702399D01*
X15209801Y25439900D02*
X15234801D01*
X15222301Y25427402D02*
Y25452400D01*
X15209801Y25189900D02*
X15234801D01*
X15222301Y25177400D02*
Y25202400D01*
X15209801Y24939900D02*
X15234801D01*
X15222301Y24927400D02*
Y24952400D01*
X15209801Y24689900D02*
X15234801D01*
X15222301Y24677400D02*
Y24702400D01*
X15209801Y24439900D02*
X15234801D01*
X15222301Y24427400D02*
Y24452400D01*
X15209801Y24189900D02*
X15234801D01*
X15222301Y24177400D02*
Y24202400D01*
X15209801Y23939900D02*
X15234801D01*
X15222301Y23927400D02*
Y23952400D01*
X15209801Y23189900D02*
X15234801D01*
X15222301Y23177400D02*
Y23202400D01*
X15209801Y22939900D02*
X15234801D01*
X15222301Y22927400D02*
Y22952400D01*
X15209801Y22689900D02*
X15234801D01*
X15222301Y22677400D02*
Y22702400D01*
X15209801Y22439900D02*
X15234801D01*
X15222301Y22427400D02*
Y22452400D01*
X15209801Y22189900D02*
X15234801D01*
X15222301Y22177400D02*
Y22202400D01*
X14959801Y25689899D02*
X14984801D01*
X14972301Y25677402D02*
Y25702399D01*
X14959801Y25439900D02*
X14984801D01*
X14972301Y25427402D02*
Y25452400D01*
X14959801Y25189900D02*
X14984801D01*
X14972301Y25177400D02*
Y25202400D01*
X14959801Y24939900D02*
X14984801D01*
X14972301Y24927400D02*
Y24952400D01*
X14959801Y24689900D02*
X14984801D01*
X14972301Y24677400D02*
Y24702400D01*
X14959801Y24439900D02*
X14984801D01*
X14972301Y24427400D02*
Y24452400D01*
X14959801Y23939900D02*
X14984801D01*
X14972301Y23927400D02*
Y23952400D01*
X14959801Y22689900D02*
X14984801D01*
X14972301Y22677400D02*
Y22702400D01*
X14959801Y22439900D02*
X14984801D01*
X14972301Y22427400D02*
Y22452400D01*
X14959801Y22189900D02*
X14984801D01*
X14972301Y22177400D02*
Y22202400D01*
X14709801Y25689899D02*
X14734801D01*
X14722301Y25677402D02*
Y25702399D01*
X14709801Y25439900D02*
X14734801D01*
X14722301Y25427402D02*
Y25452400D01*
X14709801Y25189900D02*
X14734801D01*
X14722301Y25177400D02*
Y25202400D01*
X14709801Y24939900D02*
X14734801D01*
X14722301Y24927400D02*
Y24952400D01*
X14709801Y24689900D02*
X14734801D01*
X14722301Y24677400D02*
Y24702400D01*
X14709801Y24439900D02*
X14734801D01*
X14722301Y24427400D02*
Y24452400D01*
X14709801Y23189900D02*
X14734801D01*
X14722301Y23177400D02*
Y23202400D01*
X14709801Y22439900D02*
X14734801D01*
X14722301Y22427400D02*
Y22452400D01*
X14709801Y22189900D02*
X14734801D01*
X14722301Y22177400D02*
Y22202400D01*
X14459801Y25689899D02*
X14484801D01*
X14472301Y25677402D02*
Y25702399D01*
X14459801Y25439900D02*
X14484801D01*
X14472301Y25427402D02*
Y25452400D01*
X14459801Y25189900D02*
X14484801D01*
X14472301Y25177400D02*
Y25202400D01*
X14459801Y24939900D02*
X14484801D01*
X14472301Y24927400D02*
Y24952400D01*
X14459801Y24689900D02*
X14484801D01*
X14472301Y24677400D02*
Y24702400D01*
X14459801Y24439900D02*
X14484801D01*
X14472301Y24427400D02*
Y24452400D01*
X14459801Y23939900D02*
X14484801D01*
X14472301Y23927400D02*
Y23952400D01*
X14459801Y23689900D02*
X14484801D01*
X14472301Y23677400D02*
Y23702400D01*
X14459801Y23439900D02*
X14484801D01*
X14472301Y23427400D02*
Y23452400D01*
X14459801Y23189900D02*
X14484801D01*
X14472301Y23177400D02*
Y23202400D01*
X14459801Y22689900D02*
X14484801D01*
X14472301Y22677400D02*
Y22702400D01*
X14459801Y22439900D02*
X14484801D01*
X14472301Y22427400D02*
Y22452400D01*
X14459801Y22189900D02*
X14484801D01*
X14472301Y22177400D02*
Y22202400D01*
X15384599Y23534500D02*
X15409599D01*
X15397099Y23522000D02*
Y23547000D01*
X16902809Y22913036D02*
X16927809D01*
X16915309Y22900536D02*
Y22925536D01*
X17001097Y23011324D02*
X17026097D01*
X17013597Y22998824D02*
Y23023824D01*
X14686099Y23671600D02*
X14711099D01*
X14698599Y23659100D02*
Y23684100D01*
X15219501Y23671600D02*
X15244501D01*
X15232001Y23659100D02*
Y23684100D01*
X14686099Y23471001D02*
X14711099D01*
X14698599Y23458501D02*
Y23483501D01*
X15143300Y23471001D02*
X15168300D01*
X15155800Y23458501D02*
Y23483501D01*
X7992900Y27436145D02*
X8167900D01*
X8080400Y27348645D02*
Y27523645D01*
X7992900Y28525845D02*
X8167900D01*
X8080400Y28438345D02*
Y28613345D01*
X11232600Y30295599D02*
X11322600D01*
X11277600Y30250601D02*
Y30340601D01*
X11486600Y30295599D02*
X11576600D01*
X11531600Y30250601D02*
Y30340601D01*
X8983100Y30295599D02*
X9073100D01*
X9028100Y30250601D02*
Y30340601D01*
X9237100Y30295599D02*
X9327100D01*
X9282100Y30250601D02*
Y30340601D01*
X12889201Y30190399D02*
X12914200D01*
X12901700Y30177902D02*
Y30202899D01*
X12889201Y29440399D02*
X12914200D01*
X12901700Y29427902D02*
Y29452899D01*
X12889201Y29190399D02*
X12914200D01*
X12901700Y29177899D02*
Y29202899D01*
X12889201Y28940399D02*
X12914200D01*
X12901700Y28927899D02*
Y28952899D01*
X12889201Y28690399D02*
X12914200D01*
X12901700Y28677899D02*
Y28702899D01*
X12889201Y28440399D02*
X12914200D01*
X12901700Y28427899D02*
Y28452899D01*
X12889201Y28190399D02*
X12914200D01*
X12901700Y28177899D02*
Y28202899D01*
X12889201Y27940399D02*
X12914200D01*
X12901700Y27927899D02*
Y27952899D01*
X12889201Y27690399D02*
X12914200D01*
X12901700Y27677899D02*
Y27702899D01*
X12889201Y27440399D02*
X12914200D01*
X12901700Y27427899D02*
Y27452899D01*
X12889201Y27190399D02*
X12914200D01*
X12901700Y27177899D02*
Y27202899D01*
X12889201Y26940399D02*
X12914200D01*
X12901700Y26927899D02*
Y26952899D01*
X12889201Y26690399D02*
X12914200D01*
X12901700Y26677899D02*
Y26702899D01*
X12639201Y30190399D02*
X12664200D01*
X12651700Y30177902D02*
Y30202899D01*
X12639201Y29940399D02*
X12664200D01*
X12651700Y29927902D02*
Y29952899D01*
X12639201Y29690399D02*
X12664200D01*
X12651700Y29677902D02*
Y29702899D01*
X12639201Y29440399D02*
X12664200D01*
X12651700Y29427902D02*
Y29452899D01*
X12639201Y29190399D02*
X12664200D01*
X12651700Y29177899D02*
Y29202899D01*
X12639201Y28940399D02*
X12664200D01*
X12651700Y28927899D02*
Y28952899D01*
X12639201Y28690399D02*
X12664200D01*
X12651700Y28677899D02*
Y28702899D01*
X12639201Y28440399D02*
X12664200D01*
X12651700Y28427899D02*
Y28452899D01*
X12639201Y28190399D02*
X12664200D01*
X12651700Y28177899D02*
Y28202899D01*
X12639201Y27940399D02*
X12664200D01*
X12651700Y27927899D02*
Y27952899D01*
X12639201Y27690399D02*
X12664200D01*
X12651700Y27677899D02*
Y27702899D01*
X12639201Y27440399D02*
X12664200D01*
X12651700Y27427899D02*
Y27452899D01*
X12639201Y27190399D02*
X12664200D01*
X12651700Y27177899D02*
Y27202899D01*
X12639201Y26690399D02*
X12664200D01*
X12651700Y26677899D02*
Y26702899D01*
X12389201Y30190399D02*
X12414200D01*
X12401700Y30177902D02*
Y30202899D01*
X12389201Y29940399D02*
X12414200D01*
X12401700Y29927902D02*
Y29952899D01*
X12389201Y29690399D02*
X12414200D01*
X12401700Y29677902D02*
Y29702899D01*
X12389201Y29440399D02*
X12414200D01*
X12401700Y29427902D02*
Y29452899D01*
X12389201Y28690399D02*
X12414200D01*
X12401700Y28677899D02*
Y28702899D01*
X12389201Y28440399D02*
X12414200D01*
X12401700Y28427899D02*
Y28452899D01*
X12389201Y26690399D02*
X12414200D01*
X12401700Y26677899D02*
Y26702899D01*
X12139201Y29940399D02*
X12164200D01*
X12151700Y29927902D02*
Y29952899D01*
X12139201Y29690399D02*
X12164200D01*
X12151700Y29677902D02*
Y29702899D01*
X12139201Y29440399D02*
X12164200D01*
X12151700Y29427902D02*
Y29452899D01*
X12139201Y28690399D02*
X12164200D01*
X12151700Y28677899D02*
Y28702899D01*
X12139201Y28440399D02*
X12164200D01*
X12151700Y28427899D02*
Y28452899D01*
X12139201Y27690399D02*
X12164200D01*
X12151700Y27677899D02*
Y27702899D01*
X12139201Y27440399D02*
X12164200D01*
X12151700Y27427899D02*
Y27452899D01*
X12139201Y27190399D02*
X12164200D01*
X12151700Y27177899D02*
Y27202899D01*
X12139201Y26690399D02*
X12164200D01*
X12151700Y26677899D02*
Y26702899D01*
X11889201Y29940399D02*
X11914200D01*
X11901700Y29927902D02*
Y29952899D01*
X11889201Y29690399D02*
X11914200D01*
X11901700Y29677902D02*
Y29702899D01*
X11889201Y29440399D02*
X11914200D01*
X11901700Y29427902D02*
Y29452899D01*
X11889201Y29190399D02*
X11914200D01*
X11901700Y29177899D02*
Y29202899D01*
X11889201Y28940399D02*
X11914200D01*
X11901700Y28927899D02*
Y28952899D01*
X11889201Y28690399D02*
X11914200D01*
X11901700Y28677899D02*
Y28702899D01*
X11889201Y28440399D02*
X11914200D01*
X11901700Y28427899D02*
Y28452899D01*
X11889201Y28190399D02*
X11914200D01*
X11901700Y28177899D02*
Y28202899D01*
X11889201Y27940399D02*
X11914200D01*
X11901700Y27927899D02*
Y27952899D01*
X11889201Y27690399D02*
X11914200D01*
X11901700Y27677899D02*
Y27702899D01*
X11889201Y27440399D02*
X11914200D01*
X11901700Y27427899D02*
Y27452899D01*
X11889201Y27190399D02*
X11914200D01*
X11901700Y27177899D02*
Y27202899D01*
X11889201Y26690399D02*
X11914200D01*
X11901700Y26677899D02*
Y26702899D01*
X11639200Y28940399D02*
X11664200D01*
X11651700Y28927899D02*
Y28952899D01*
X11639200Y28440399D02*
X11664200D01*
X11651700Y28427899D02*
Y28452899D01*
X11639200Y27940399D02*
X11664200D01*
X11651700Y27927899D02*
Y27952899D01*
X11639200Y27690399D02*
X11664200D01*
X11651700Y27677899D02*
Y27702899D01*
X11639200Y27440399D02*
X11664200D01*
X11651700Y27427899D02*
Y27452899D01*
X11639200Y27190399D02*
X11664200D01*
X11651700Y27177899D02*
Y27202899D01*
X11639200Y26690399D02*
X11664200D01*
X11651700Y26677899D02*
Y26702899D01*
X11389200Y27690399D02*
X11414200D01*
X11401700Y27677899D02*
Y27702899D01*
X11389200Y27190399D02*
X11414200D01*
X11401700Y27177899D02*
Y27202899D01*
X11389200Y26940399D02*
X11414200D01*
X11401700Y26927899D02*
Y26952899D01*
X11389200Y26690399D02*
X11414200D01*
X11401700Y26677899D02*
Y26702899D01*
X11139200Y29690399D02*
X11164200D01*
X11151700Y29677902D02*
Y29702899D01*
X11139200Y27940399D02*
X11164200D01*
X11151700Y27927899D02*
Y27952899D01*
X11139200Y27690399D02*
X11164200D01*
X11151700Y27677899D02*
Y27702899D01*
X11139200Y26940399D02*
X11164200D01*
X11151700Y26927899D02*
Y26952899D01*
X11139200Y26690399D02*
X11164200D01*
X11151700Y26677899D02*
Y26702899D01*
X10889200Y30190399D02*
X10914200D01*
X10901700Y30177902D02*
Y30202899D01*
X10889200Y28690399D02*
X10914200D01*
X10901700Y28677899D02*
Y28702899D01*
X10889200Y28440399D02*
X10914200D01*
X10901700Y28427899D02*
Y28452899D01*
X10889200Y27940399D02*
X10914200D01*
X10901700Y27927899D02*
Y27952899D01*
X10889200Y27690399D02*
X10914200D01*
X10901700Y27677899D02*
Y27702899D01*
X10889200Y26940399D02*
X10914200D01*
X10901700Y26927899D02*
Y26952899D01*
X10639200Y30190399D02*
X10664200D01*
X10651700Y30177902D02*
Y30202899D01*
X10639200Y29940399D02*
X10664200D01*
X10651700Y29927902D02*
Y29952899D01*
X10639200Y28690399D02*
X10664200D01*
X10651700Y28677899D02*
Y28702899D01*
X10639200Y28440399D02*
X10664200D01*
X10651700Y28427899D02*
Y28452899D01*
X10639200Y27940399D02*
X10664200D01*
X10651700Y27927899D02*
Y27952899D01*
X10639200Y27690399D02*
X10664200D01*
X10651700Y27677899D02*
Y27702899D01*
X10639200Y27190399D02*
X10664200D01*
X10651700Y27177899D02*
Y27202899D01*
X10389200Y30190399D02*
X10414200D01*
X10401700Y30177902D02*
Y30202899D01*
X10389200Y29940399D02*
X10414200D01*
X10401700Y29927902D02*
Y29952899D01*
X10389200Y28940399D02*
X10414200D01*
X10401700Y28927899D02*
Y28952899D01*
X10389200Y28690399D02*
X10414200D01*
X10401700Y28677899D02*
Y28702899D01*
X10389200Y28440399D02*
X10414200D01*
X10401700Y28427899D02*
Y28452899D01*
X10389200Y27690399D02*
X10414200D01*
X10401700Y27677899D02*
Y27702899D01*
X10389200Y27190399D02*
X10414200D01*
X10401700Y27177899D02*
Y27202899D01*
X10139200Y30190399D02*
X10164200D01*
X10151700Y30177902D02*
Y30202899D01*
X10139200Y28940399D02*
X10164200D01*
X10151700Y28927899D02*
Y28952899D01*
X10139200Y28690399D02*
X10164200D01*
X10151700Y28677899D02*
Y28702899D01*
X10139200Y28440399D02*
X10164200D01*
X10151700Y28427899D02*
Y28452899D01*
X10139200Y27440399D02*
X10164200D01*
X10151700Y27427899D02*
Y27452899D01*
X10139200Y27190399D02*
X10164200D01*
X10151700Y27177899D02*
Y27202899D01*
X9889200Y30190399D02*
X9914200D01*
X9901700Y30177902D02*
Y30202899D01*
X9889200Y29940399D02*
X9914200D01*
X9901700Y29927902D02*
Y29952899D01*
X9889200Y28940399D02*
X9914200D01*
X9901700Y28927899D02*
Y28952899D01*
X9889200Y28690399D02*
X9914200D01*
X9901700Y28677899D02*
Y28702899D01*
X9889200Y28440399D02*
X9914200D01*
X9901700Y28427899D02*
Y28452899D01*
X9889200Y27690399D02*
X9914200D01*
X9901700Y27677899D02*
Y27702899D01*
X9889200Y27440399D02*
X9914200D01*
X9901700Y27427899D02*
Y27452899D01*
X9889200Y27190399D02*
X9914200D01*
X9901700Y27177899D02*
Y27202899D01*
X9889200Y26940399D02*
X9914200D01*
X9901700Y26927899D02*
Y26952899D01*
X9639200Y30190399D02*
X9664200D01*
X9651700Y30177902D02*
Y30202899D01*
X9639200Y29940399D02*
X9664200D01*
X9651700Y29927902D02*
Y29952899D01*
X9639200Y28940399D02*
X9664200D01*
X9651700Y28927899D02*
Y28952899D01*
X9639200Y28690399D02*
X9664200D01*
X9651700Y28677899D02*
Y28702899D01*
X9639200Y28440399D02*
X9664200D01*
X9651700Y28427899D02*
Y28452899D01*
X9639200Y27690399D02*
X9664200D01*
X9651700Y27677899D02*
Y27702899D01*
X9639200Y27440399D02*
X9664200D01*
X9651700Y27427899D02*
Y27452899D01*
X9639200Y27190399D02*
X9664200D01*
X9651700Y27177899D02*
Y27202899D01*
X9639200Y26940399D02*
X9664200D01*
X9651700Y26927899D02*
Y26952899D01*
X9639200Y26690399D02*
X9664200D01*
X9651700Y26677899D02*
Y26702899D01*
X9389200Y29940399D02*
X9414200D01*
X9401700Y29927902D02*
Y29952899D01*
X9389200Y29190399D02*
X9414200D01*
X9401700Y29177899D02*
Y29202899D01*
X9389200Y28940399D02*
X9414200D01*
X9401700Y28927899D02*
Y28952899D01*
X9389200Y28690399D02*
X9414200D01*
X9401700Y28677899D02*
Y28702899D01*
X9389200Y28190399D02*
X9414200D01*
X9401700Y28177899D02*
Y28202899D01*
X9389200Y27940399D02*
X9414200D01*
X9401700Y27927899D02*
Y27952899D01*
X9389200Y27690399D02*
X9414200D01*
X9401700Y27677899D02*
Y27702899D01*
X9389200Y27440399D02*
X9414200D01*
X9401700Y27427899D02*
Y27452899D01*
X9389200Y27190399D02*
X9414200D01*
X9401700Y27177899D02*
Y27202899D01*
X9389200Y26940399D02*
X9414200D01*
X9401700Y26927899D02*
Y26952899D01*
X9389200Y26690399D02*
X9414200D01*
X9401700Y26677899D02*
Y26702899D01*
X9139200Y28940399D02*
X9164200D01*
X9151700Y28927899D02*
Y28952899D01*
X9139200Y28690399D02*
X9164200D01*
X9151700Y28677899D02*
Y28702899D01*
X9139200Y28190399D02*
X9164200D01*
X9151700Y28177899D02*
Y28202899D01*
X9139200Y27940399D02*
X9164200D01*
X9151700Y27927899D02*
Y27952899D01*
X9139200Y27690399D02*
X9164200D01*
X9151700Y27677899D02*
Y27702899D01*
X9139200Y27440399D02*
X9164200D01*
X9151700Y27427899D02*
Y27452899D01*
X9139200Y27190399D02*
X9164200D01*
X9151700Y27177899D02*
Y27202899D01*
X9139200Y26940399D02*
X9164200D01*
X9151700Y26927899D02*
Y26952899D01*
X9139200Y26690399D02*
X9164200D01*
X9151700Y26677899D02*
Y26702899D01*
X8889200Y29940399D02*
X8914200D01*
X8901700Y29927902D02*
Y29952899D01*
X8889200Y29690399D02*
X8914200D01*
X8901700Y29677902D02*
Y29702899D01*
X8889200Y29440399D02*
X8914200D01*
X8901700Y29427902D02*
Y29452899D01*
X8889200Y29190399D02*
X8914200D01*
X8901700Y29177899D02*
Y29202899D01*
X8889200Y28940399D02*
X8914200D01*
X8901700Y28927899D02*
Y28952899D01*
X8889200Y28690399D02*
X8914200D01*
X8901700Y28677899D02*
Y28702899D01*
X8889200Y28440399D02*
X8914200D01*
X8901700Y28427899D02*
Y28452899D01*
X8889200Y27690399D02*
X8914200D01*
X8901700Y27677899D02*
Y27702899D01*
X8889200Y27440399D02*
X8914200D01*
X8901700Y27427899D02*
Y27452899D01*
X8889200Y27190399D02*
X8914200D01*
X8901700Y27177899D02*
Y27202899D01*
X8889200Y26940399D02*
X8914200D01*
X8901700Y26927899D02*
Y26952899D01*
X8889200Y26690399D02*
X8914200D01*
X8901700Y26677899D02*
Y26702899D01*
X8639200Y30190399D02*
X8664200D01*
X8651700Y30177902D02*
Y30202899D01*
X8639200Y29940399D02*
X8664200D01*
X8651700Y29927902D02*
Y29952899D01*
X8639200Y29690399D02*
X8664200D01*
X8651700Y29677902D02*
Y29702899D01*
X8639200Y29440399D02*
X8664200D01*
X8651700Y29427902D02*
Y29452899D01*
X8639200Y29190399D02*
X8664200D01*
X8651700Y29177899D02*
Y29202899D01*
X8639200Y28940399D02*
X8664200D01*
X8651700Y28927899D02*
Y28952899D01*
X8639200Y28690399D02*
X8664200D01*
X8651700Y28677899D02*
Y28702899D01*
X8639200Y28440399D02*
X8664200D01*
X8651700Y28427899D02*
Y28452899D01*
X8639200Y27690399D02*
X8664200D01*
X8651700Y27677899D02*
Y27702899D01*
X8639200Y27440399D02*
X8664200D01*
X8651700Y27427899D02*
Y27452899D01*
X8639200Y27190399D02*
X8664200D01*
X8651700Y27177899D02*
Y27202899D01*
X8639200Y26940399D02*
X8664200D01*
X8651700Y26927899D02*
Y26952899D01*
X8639200Y26690399D02*
X8664200D01*
X8651700Y26677899D02*
Y26702899D01*
X8389200Y30190399D02*
X8414200D01*
X8401700Y30177902D02*
Y30202899D01*
X8389200Y29940399D02*
X8414200D01*
X8401700Y29927902D02*
Y29952899D01*
X8389200Y29690399D02*
X8414200D01*
X8401700Y29677902D02*
Y29702899D01*
X8389200Y29440399D02*
X8414200D01*
X8401700Y29427902D02*
Y29452899D01*
X8389200Y29190399D02*
X8414200D01*
X8401700Y29177899D02*
Y29202899D01*
X8389200Y28940399D02*
X8414200D01*
X8401700Y28927899D02*
Y28952899D01*
X8389200Y28440399D02*
X8414200D01*
X8401700Y28427899D02*
Y28452899D01*
X8389200Y27190399D02*
X8414200D01*
X8401700Y27177899D02*
Y27202899D01*
X8389200Y26940399D02*
X8414200D01*
X8401700Y26927899D02*
Y26952899D01*
X8389200Y26690399D02*
X8414200D01*
X8401700Y26677899D02*
Y26702899D01*
X8139200Y30190399D02*
X8164200D01*
X8151700Y30177902D02*
Y30202899D01*
X8139200Y29940399D02*
X8164200D01*
X8151700Y29927902D02*
Y29952899D01*
X8139200Y29690399D02*
X8164200D01*
X8151700Y29677902D02*
Y29702899D01*
X8139200Y29440399D02*
X8164200D01*
X8151700Y29427902D02*
Y29452899D01*
X8139200Y29190399D02*
X8164200D01*
X8151700Y29177899D02*
Y29202899D01*
X8139200Y28940399D02*
X8164200D01*
X8151700Y28927899D02*
Y28952899D01*
X8139200Y27690399D02*
X8164200D01*
X8151700Y27677899D02*
Y27702899D01*
X8139200Y26940399D02*
X8164200D01*
X8151700Y26927899D02*
Y26952899D01*
X8139200Y26690399D02*
X8164200D01*
X8151700Y26677899D02*
Y26702899D01*
X7889200Y30190399D02*
X7914200D01*
X7901700Y30177902D02*
Y30202899D01*
X7889200Y29940399D02*
X7914200D01*
X7901700Y29927902D02*
Y29952899D01*
X7889200Y29690399D02*
X7914200D01*
X7901700Y29677902D02*
Y29702899D01*
X7889200Y29440399D02*
X7914200D01*
X7901700Y29427902D02*
Y29452899D01*
X7889200Y29190399D02*
X7914200D01*
X7901700Y29177899D02*
Y29202899D01*
X7889200Y28940399D02*
X7914200D01*
X7901700Y28927899D02*
Y28952899D01*
X7889200Y28440399D02*
X7914200D01*
X7901700Y28427899D02*
Y28452899D01*
X7889200Y28190399D02*
X7914200D01*
X7901700Y28177899D02*
Y28202899D01*
X7889200Y27940399D02*
X7914200D01*
X7901700Y27927899D02*
Y27952899D01*
X7889200Y27690399D02*
X7914200D01*
X7901700Y27677899D02*
Y27702899D01*
X7889200Y27190399D02*
X7914200D01*
X7901700Y27177899D02*
Y27202899D01*
X7889200Y26940399D02*
X7914200D01*
X7901700Y26927899D02*
Y26952899D01*
X7889200Y26690399D02*
X7914200D01*
X7901700Y26677899D02*
Y26702899D01*
X8814000Y28035001D02*
X8839000D01*
X8826500Y28022501D02*
Y28047501D01*
X10332209Y27413535D02*
X10357209D01*
X10344709Y27401035D02*
Y27426035D01*
X10430497Y27511823D02*
X10455496D01*
X10442997Y27499323D02*
Y27524323D01*
X8115500Y28172101D02*
X8140500D01*
X8128000Y28159601D02*
Y28184601D01*
X8648900Y28172101D02*
X8673900D01*
X8661400Y28159601D02*
Y28184601D01*
X8115500Y27971500D02*
X8140500D01*
X8128000Y27959000D02*
Y27984000D01*
X8572700Y27971500D02*
X8597700D01*
X8585200Y27959000D02*
Y27984000D01*
X14563499Y27436145D02*
X14738499D01*
X14650999Y27348645D02*
Y27523645D01*
X14563499Y28525845D02*
X14738499D01*
X14650999Y28438345D02*
Y28613345D01*
X17803200Y30295599D02*
X17893201D01*
X17848199Y30250601D02*
Y30340601D01*
X18057201Y30295599D02*
X18147200D01*
X18102200Y30250601D02*
Y30340601D01*
X15553700Y30295599D02*
X15643700D01*
X15598700Y30250601D02*
Y30340601D01*
X15807700Y30295599D02*
X15897701D01*
X15852699Y30250601D02*
Y30340601D01*
X19459801Y30190399D02*
X19484801D01*
X19472301Y30177902D02*
Y30202899D01*
X19459801Y29440399D02*
X19484801D01*
X19472301Y29427902D02*
Y29452899D01*
X19459801Y29190399D02*
X19484801D01*
X19472301Y29177899D02*
Y29202899D01*
X19459801Y28940399D02*
X19484801D01*
X19472301Y28927899D02*
Y28952899D01*
X19459801Y28690399D02*
X19484801D01*
X19472301Y28677899D02*
Y28702899D01*
X19459801Y28440399D02*
X19484801D01*
X19472301Y28427899D02*
Y28452899D01*
X19459801Y28190399D02*
X19484801D01*
X19472301Y28177899D02*
Y28202899D01*
X19459801Y27940399D02*
X19484801D01*
X19472301Y27927899D02*
Y27952899D01*
X19459801Y27690399D02*
X19484801D01*
X19472301Y27677899D02*
Y27702899D01*
X19459801Y27440399D02*
X19484801D01*
X19472301Y27427899D02*
Y27452899D01*
X19459801Y27190399D02*
X19484801D01*
X19472301Y27177899D02*
Y27202899D01*
X19459801Y26940399D02*
X19484801D01*
X19472301Y26927899D02*
Y26952899D01*
X19459801Y26690399D02*
X19484801D01*
X19472301Y26677899D02*
Y26702899D01*
X19209801Y30190399D02*
X19234801D01*
X19222301Y30177902D02*
Y30202899D01*
X19209801Y29940399D02*
X19234801D01*
X19222301Y29927902D02*
Y29952899D01*
X19209801Y29690399D02*
X19234801D01*
X19222301Y29677902D02*
Y29702899D01*
X19209801Y29440399D02*
X19234801D01*
X19222301Y29427902D02*
Y29452899D01*
X19209801Y29190399D02*
X19234801D01*
X19222301Y29177899D02*
Y29202899D01*
X19209801Y28940399D02*
X19234801D01*
X19222301Y28927899D02*
Y28952899D01*
X19209801Y28690399D02*
X19234801D01*
X19222301Y28677899D02*
Y28702899D01*
X19209801Y28440399D02*
X19234801D01*
X19222301Y28427899D02*
Y28452899D01*
X19209801Y28190399D02*
X19234801D01*
X19222301Y28177899D02*
Y28202899D01*
X19209801Y27940399D02*
X19234801D01*
X19222301Y27927899D02*
Y27952899D01*
X19209801Y27690399D02*
X19234801D01*
X19222301Y27677899D02*
Y27702899D01*
X19209801Y27440399D02*
X19234801D01*
X19222301Y27427899D02*
Y27452899D01*
X19209801Y27190399D02*
X19234801D01*
X19222301Y27177899D02*
Y27202899D01*
X19209801Y26690399D02*
X19234801D01*
X19222301Y26677899D02*
Y26702899D01*
X18959801Y30190399D02*
X18984801D01*
X18972301Y30177902D02*
Y30202899D01*
X18959801Y29940399D02*
X18984801D01*
X18972301Y29927902D02*
Y29952899D01*
X18959801Y29690399D02*
X18984801D01*
X18972301Y29677902D02*
Y29702899D01*
X18959801Y29440399D02*
X18984801D01*
X18972301Y29427902D02*
Y29452899D01*
X18959801Y28690399D02*
X18984801D01*
X18972301Y28677899D02*
Y28702899D01*
X18959801Y28440399D02*
X18984801D01*
X18972301Y28427899D02*
Y28452899D01*
X18959801Y26690399D02*
X18984801D01*
X18972301Y26677899D02*
Y26702899D01*
X18709801Y29940399D02*
X18734801D01*
X18722301Y29927902D02*
Y29952899D01*
X18709801Y29690399D02*
X18734801D01*
X18722301Y29677902D02*
Y29702899D01*
X18709801Y29440399D02*
X18734801D01*
X18722301Y29427902D02*
Y29452899D01*
X18709801Y28690399D02*
X18734801D01*
X18722301Y28677899D02*
Y28702899D01*
X18709801Y28440399D02*
X18734801D01*
X18722301Y28427899D02*
Y28452899D01*
X18709801Y27690399D02*
X18734801D01*
X18722301Y27677899D02*
Y27702899D01*
X18709801Y27440399D02*
X18734801D01*
X18722301Y27427899D02*
Y27452899D01*
X18709801Y27190399D02*
X18734801D01*
X18722301Y27177899D02*
Y27202899D01*
X18709801Y26690399D02*
X18734801D01*
X18722301Y26677899D02*
Y26702899D01*
X18459801Y29940399D02*
X18484801D01*
X18472301Y29927902D02*
Y29952899D01*
X18459801Y29690399D02*
X18484801D01*
X18472301Y29677902D02*
Y29702899D01*
X18459801Y29440399D02*
X18484801D01*
X18472301Y29427902D02*
Y29452899D01*
X18459801Y29190399D02*
X18484801D01*
X18472301Y29177899D02*
Y29202899D01*
X18459801Y28940399D02*
X18484801D01*
X18472301Y28927899D02*
Y28952899D01*
X18459801Y28690399D02*
X18484801D01*
X18472301Y28677899D02*
Y28702899D01*
X18459801Y28440399D02*
X18484801D01*
X18472301Y28427899D02*
Y28452899D01*
X18459801Y28190399D02*
X18484801D01*
X18472301Y28177899D02*
Y28202899D01*
X18459801Y27940399D02*
X18484801D01*
X18472301Y27927899D02*
Y27952899D01*
X18459801Y27690399D02*
X18484801D01*
X18472301Y27677899D02*
Y27702899D01*
X18459801Y27440399D02*
X18484801D01*
X18472301Y27427899D02*
Y27452899D01*
X18459801Y27190399D02*
X18484801D01*
X18472301Y27177899D02*
Y27202899D01*
X18459801Y26690399D02*
X18484801D01*
X18472301Y26677899D02*
Y26702899D01*
X18209801Y28940399D02*
X18234801D01*
X18222301Y28927899D02*
Y28952899D01*
X18209801Y28440399D02*
X18234801D01*
X18222301Y28427899D02*
Y28452899D01*
X18209801Y27940399D02*
X18234801D01*
X18222301Y27927899D02*
Y27952899D01*
X18209801Y27690399D02*
X18234801D01*
X18222301Y27677899D02*
Y27702899D01*
X18209801Y27440399D02*
X18234801D01*
X18222301Y27427899D02*
Y27452899D01*
X18209801Y27190399D02*
X18234801D01*
X18222301Y27177899D02*
Y27202899D01*
X18209801Y26690399D02*
X18234801D01*
X18222301Y26677899D02*
Y26702899D01*
X17959801Y27690399D02*
X17984801D01*
X17972301Y27677899D02*
Y27702899D01*
X17959801Y27190399D02*
X17984801D01*
X17972301Y27177899D02*
Y27202899D01*
X17959801Y26940399D02*
X17984801D01*
X17972301Y26927899D02*
Y26952899D01*
X17959801Y26690399D02*
X17984801D01*
X17972301Y26677899D02*
Y26702899D01*
X17709801Y29690399D02*
X17734801D01*
X17722301Y29677902D02*
Y29702899D01*
X17709801Y27940399D02*
X17734801D01*
X17722301Y27927899D02*
Y27952899D01*
X17709801Y27690399D02*
X17734801D01*
X17722301Y27677899D02*
Y27702899D01*
X17709801Y26940399D02*
X17734801D01*
X17722301Y26927899D02*
Y26952899D01*
X17709801Y26690399D02*
X17734801D01*
X17722301Y26677899D02*
Y26702899D01*
X17459801Y30190399D02*
X17484801D01*
X17472301Y30177902D02*
Y30202899D01*
X17459801Y28690399D02*
X17484801D01*
X17472301Y28677899D02*
Y28702899D01*
X17459801Y28440399D02*
X17484801D01*
X17472301Y28427899D02*
Y28452899D01*
X17459801Y27940399D02*
X17484801D01*
X17472301Y27927899D02*
Y27952899D01*
X17459801Y27690399D02*
X17484801D01*
X17472301Y27677899D02*
Y27702899D01*
X17459801Y26940399D02*
X17484801D01*
X17472301Y26927899D02*
Y26952899D01*
X17209801Y30190399D02*
X17234801D01*
X17222301Y30177902D02*
Y30202899D01*
X17209801Y29940399D02*
X17234801D01*
X17222301Y29927902D02*
Y29952899D01*
X17209801Y28690399D02*
X17234801D01*
X17222301Y28677899D02*
Y28702899D01*
X17209801Y28440399D02*
X17234801D01*
X17222301Y28427899D02*
Y28452899D01*
X17209801Y27940399D02*
X17234801D01*
X17222301Y27927899D02*
Y27952899D01*
X17209801Y27690399D02*
X17234801D01*
X17222301Y27677899D02*
Y27702899D01*
X17209801Y27190399D02*
X17234801D01*
X17222301Y27177899D02*
Y27202899D01*
X16959801Y30190399D02*
X16984801D01*
X16972301Y30177902D02*
Y30202899D01*
X16959801Y29940399D02*
X16984801D01*
X16972301Y29927902D02*
Y29952899D01*
X16959801Y28940399D02*
X16984801D01*
X16972301Y28927899D02*
Y28952899D01*
X16959801Y28690399D02*
X16984801D01*
X16972301Y28677899D02*
Y28702899D01*
X16959801Y28440399D02*
X16984801D01*
X16972301Y28427899D02*
Y28452899D01*
X16959801Y27690399D02*
X16984801D01*
X16972301Y27677899D02*
Y27702899D01*
X16959801Y27190399D02*
X16984801D01*
X16972301Y27177899D02*
Y27202899D01*
X16709801Y30190399D02*
X16734801D01*
X16722301Y30177902D02*
Y30202899D01*
X16709801Y28940399D02*
X16734801D01*
X16722301Y28927899D02*
Y28952899D01*
X16709801Y28690399D02*
X16734801D01*
X16722301Y28677899D02*
Y28702899D01*
X16709801Y28440399D02*
X16734801D01*
X16722301Y28427899D02*
Y28452899D01*
X16709801Y27440399D02*
X16734801D01*
X16722301Y27427899D02*
Y27452899D01*
X16709801Y27190399D02*
X16734801D01*
X16722301Y27177899D02*
Y27202899D01*
X16459801Y30190399D02*
X16484801D01*
X16472301Y30177902D02*
Y30202899D01*
X16459801Y29940399D02*
X16484801D01*
X16472301Y29927902D02*
Y29952899D01*
X16459801Y28940399D02*
X16484801D01*
X16472301Y28927899D02*
Y28952899D01*
X16459801Y28690399D02*
X16484801D01*
X16472301Y28677899D02*
Y28702899D01*
X16459801Y28440399D02*
X16484801D01*
X16472301Y28427899D02*
Y28452899D01*
X16459801Y27690399D02*
X16484801D01*
X16472301Y27677899D02*
Y27702899D01*
X16459801Y27440399D02*
X16484801D01*
X16472301Y27427899D02*
Y27452899D01*
X16459801Y27190399D02*
X16484801D01*
X16472301Y27177899D02*
Y27202899D01*
X16459801Y26940399D02*
X16484801D01*
X16472301Y26927899D02*
Y26952899D01*
X16209801Y30190399D02*
X16234801D01*
X16222301Y30177902D02*
Y30202899D01*
X16209801Y29940399D02*
X16234801D01*
X16222301Y29927902D02*
Y29952899D01*
X16209801Y28940399D02*
X16234801D01*
X16222301Y28927899D02*
Y28952899D01*
X16209801Y28690399D02*
X16234801D01*
X16222301Y28677899D02*
Y28702899D01*
X16209801Y28440399D02*
X16234801D01*
X16222301Y28427899D02*
Y28452899D01*
X16209801Y27690399D02*
X16234801D01*
X16222301Y27677899D02*
Y27702899D01*
X16209801Y27440399D02*
X16234801D01*
X16222301Y27427899D02*
Y27452899D01*
X16209801Y27190399D02*
X16234801D01*
X16222301Y27177899D02*
Y27202899D01*
X16209801Y26940399D02*
X16234801D01*
X16222301Y26927899D02*
Y26952899D01*
X16209801Y26690399D02*
X16234801D01*
X16222301Y26677899D02*
Y26702899D01*
X15959801Y29940399D02*
X15984801D01*
X15972301Y29927902D02*
Y29952899D01*
X15959801Y29190399D02*
X15984801D01*
X15972301Y29177899D02*
Y29202899D01*
X15959801Y28940399D02*
X15984801D01*
X15972301Y28927899D02*
Y28952899D01*
X15959801Y28690399D02*
X15984801D01*
X15972301Y28677899D02*
Y28702899D01*
X15959801Y28190399D02*
X15984801D01*
X15972301Y28177899D02*
Y28202899D01*
X15959801Y27940399D02*
X15984801D01*
X15972301Y27927899D02*
Y27952899D01*
X15959801Y27690399D02*
X15984801D01*
X15972301Y27677899D02*
Y27702899D01*
X15959801Y27440399D02*
X15984801D01*
X15972301Y27427899D02*
Y27452899D01*
X15959801Y27190399D02*
X15984801D01*
X15972301Y27177899D02*
Y27202899D01*
X15959801Y26940399D02*
X15984801D01*
X15972301Y26927899D02*
Y26952899D01*
X15959801Y26690399D02*
X15984801D01*
X15972301Y26677899D02*
Y26702899D01*
X15709801Y28940399D02*
X15734801D01*
X15722301Y28927899D02*
Y28952899D01*
X15709801Y28690399D02*
X15734801D01*
X15722301Y28677899D02*
Y28702899D01*
X15709801Y28190399D02*
X15734801D01*
X15722301Y28177899D02*
Y28202899D01*
X15709801Y27940399D02*
X15734801D01*
X15722301Y27927899D02*
Y27952899D01*
X15709801Y27690399D02*
X15734801D01*
X15722301Y27677899D02*
Y27702899D01*
X15709801Y27440399D02*
X15734801D01*
X15722301Y27427899D02*
Y27452899D01*
X15709801Y27190399D02*
X15734801D01*
X15722301Y27177899D02*
Y27202899D01*
X15709801Y26940399D02*
X15734801D01*
X15722301Y26927899D02*
Y26952899D01*
X15709801Y26690399D02*
X15734801D01*
X15722301Y26677899D02*
Y26702899D01*
X15459801Y29940399D02*
X15484801D01*
X15472301Y29927902D02*
Y29952899D01*
X15459801Y29690399D02*
X15484801D01*
X15472301Y29677902D02*
Y29702899D01*
X15459801Y29440399D02*
X15484801D01*
X15472301Y29427902D02*
Y29452899D01*
X15459801Y29190399D02*
X15484801D01*
X15472301Y29177899D02*
Y29202899D01*
X15459801Y28940399D02*
X15484801D01*
X15472301Y28927899D02*
Y28952899D01*
X15459801Y28690399D02*
X15484801D01*
X15472301Y28677899D02*
Y28702899D01*
X15459801Y28440399D02*
X15484801D01*
X15472301Y28427899D02*
Y28452899D01*
X15459801Y27690399D02*
X15484801D01*
X15472301Y27677899D02*
Y27702899D01*
X15459801Y27440399D02*
X15484801D01*
X15472301Y27427899D02*
Y27452899D01*
X15459801Y27190399D02*
X15484801D01*
X15472301Y27177899D02*
Y27202899D01*
X15459801Y26940399D02*
X15484801D01*
X15472301Y26927899D02*
Y26952899D01*
X15459801Y26690399D02*
X15484801D01*
X15472301Y26677899D02*
Y26702899D01*
X15209801Y30190399D02*
X15234801D01*
X15222301Y30177902D02*
Y30202899D01*
X15209801Y29940399D02*
X15234801D01*
X15222301Y29927902D02*
Y29952899D01*
X15209801Y29690399D02*
X15234801D01*
X15222301Y29677902D02*
Y29702899D01*
X15209801Y29440399D02*
X15234801D01*
X15222301Y29427902D02*
Y29452899D01*
X15209801Y29190399D02*
X15234801D01*
X15222301Y29177899D02*
Y29202899D01*
X15209801Y28940399D02*
X15234801D01*
X15222301Y28927899D02*
Y28952899D01*
X15209801Y28690399D02*
X15234801D01*
X15222301Y28677899D02*
Y28702899D01*
X15209801Y28440399D02*
X15234801D01*
X15222301Y28427899D02*
Y28452899D01*
X15209801Y27690399D02*
X15234801D01*
X15222301Y27677899D02*
Y27702899D01*
X15209801Y27440399D02*
X15234801D01*
X15222301Y27427899D02*
Y27452899D01*
X15209801Y27190399D02*
X15234801D01*
X15222301Y27177899D02*
Y27202899D01*
X15209801Y26940399D02*
X15234801D01*
X15222301Y26927899D02*
Y26952899D01*
X15209801Y26690399D02*
X15234801D01*
X15222301Y26677899D02*
Y26702899D01*
X14959801Y30190399D02*
X14984801D01*
X14972301Y30177902D02*
Y30202899D01*
X14959801Y29940399D02*
X14984801D01*
X14972301Y29927902D02*
Y29952899D01*
X14959801Y29690399D02*
X14984801D01*
X14972301Y29677902D02*
Y29702899D01*
X14959801Y29440399D02*
X14984801D01*
X14972301Y29427902D02*
Y29452899D01*
X14959801Y29190399D02*
X14984801D01*
X14972301Y29177899D02*
Y29202899D01*
X14959801Y28940399D02*
X14984801D01*
X14972301Y28927899D02*
Y28952899D01*
X14959801Y28440399D02*
X14984801D01*
X14972301Y28427899D02*
Y28452899D01*
X14959801Y27190399D02*
X14984801D01*
X14972301Y27177899D02*
Y27202899D01*
X14959801Y26940399D02*
X14984801D01*
X14972301Y26927899D02*
Y26952899D01*
X14959801Y26690399D02*
X14984801D01*
X14972301Y26677899D02*
Y26702899D01*
X14709801Y30190399D02*
X14734801D01*
X14722301Y30177902D02*
Y30202899D01*
X14709801Y29940399D02*
X14734801D01*
X14722301Y29927902D02*
Y29952899D01*
X14709801Y29690399D02*
X14734801D01*
X14722301Y29677902D02*
Y29702899D01*
X14709801Y29440399D02*
X14734801D01*
X14722301Y29427902D02*
Y29452899D01*
X14709801Y29190399D02*
X14734801D01*
X14722301Y29177899D02*
Y29202899D01*
X14709801Y28940399D02*
X14734801D01*
X14722301Y28927899D02*
Y28952899D01*
X14709801Y27690399D02*
X14734801D01*
X14722301Y27677899D02*
Y27702899D01*
X14709801Y26940399D02*
X14734801D01*
X14722301Y26927899D02*
Y26952899D01*
X14709801Y26690399D02*
X14734801D01*
X14722301Y26677899D02*
Y26702899D01*
X14459801Y30190399D02*
X14484801D01*
X14472301Y30177902D02*
Y30202899D01*
X14459801Y29940399D02*
X14484801D01*
X14472301Y29927902D02*
Y29952899D01*
X14459801Y29690399D02*
X14484801D01*
X14472301Y29677902D02*
Y29702899D01*
X14459801Y29440399D02*
X14484801D01*
X14472301Y29427902D02*
Y29452899D01*
X14459801Y29190399D02*
X14484801D01*
X14472301Y29177899D02*
Y29202899D01*
X14459801Y28940399D02*
X14484801D01*
X14472301Y28927899D02*
Y28952899D01*
X14459801Y28440399D02*
X14484801D01*
X14472301Y28427899D02*
Y28452899D01*
X14459801Y28190399D02*
X14484801D01*
X14472301Y28177899D02*
Y28202899D01*
X14459801Y27940399D02*
X14484801D01*
X14472301Y27927899D02*
Y27952899D01*
X14459801Y27690399D02*
X14484801D01*
X14472301Y27677899D02*
Y27702899D01*
X14459801Y27190399D02*
X14484801D01*
X14472301Y27177899D02*
Y27202899D01*
X14459801Y26940399D02*
X14484801D01*
X14472301Y26927899D02*
Y26952899D01*
X14459801Y26690399D02*
X14484801D01*
X14472301Y26677899D02*
Y26702899D01*
X15384599Y28035001D02*
X15409599D01*
X15397099Y28022501D02*
Y28047501D01*
X16902809Y27413535D02*
X16927809D01*
X16915309Y27401035D02*
Y27426035D01*
X17001097Y27511823D02*
X17026097D01*
X17013597Y27499323D02*
Y27524323D01*
X14686099Y28172101D02*
X14711099D01*
X14698599Y28159601D02*
Y28184601D01*
X15219501Y28172101D02*
X15244501D01*
X15232001Y28159601D02*
Y28184601D01*
X14686099Y27971500D02*
X14711099D01*
X14698599Y27959000D02*
Y27984000D01*
X15143300Y27971500D02*
X15168300D01*
X15155800Y27959000D02*
Y27984000D01*
%TF.MD5,7abaf45e6f40d7d7679f4268329bf6fe*%
M02*
