%TF.GenerationSoftware,Altium Limited,Altium Designer,23.9.2 (47)*%
G04 Layer_Color=2752767*
%FSLAX45Y45*%
%MOMM*%
%TF.SameCoordinates,AD479AB8-1AF9-481E-9C01-A3E3F564F201*%
%TF.FilePolarity,Positive*%
%TF.FileFunction,Drawing*%
%TF.Part,CustomerPanel*%
G01*
G75*
%TA.AperFunction,NonConductor*%
%ADD50C,0.12700*%
%ADD61C,0.16933*%
D50*
X8029600Y9383345D02*
Y9484945D01*
X8131200D01*
Y9383345D01*
X8029600D01*
Y10473046D02*
Y10574646D01*
X8131200D01*
Y10473046D01*
X8029600D01*
X12901700Y12137600D02*
X12850900Y12239200D01*
X12952499D01*
X12901700Y12137600D01*
Y11387600D02*
X12850900Y11489200D01*
X12952499D01*
X12901700Y11387600D01*
Y11137600D02*
X12850900Y11239200D01*
X12952499D01*
X12901700Y11137600D01*
Y10887600D02*
X12850900Y10989200D01*
X12952499D01*
X12901700Y10887600D01*
Y10637600D02*
X12850900Y10739200D01*
X12952499D01*
X12901700Y10637600D01*
Y10387600D02*
X12850900Y10489200D01*
X12952499D01*
X12901700Y10387600D01*
Y10137600D02*
X12850900Y10239200D01*
X12952499D01*
X12901700Y10137600D01*
Y9887600D02*
X12850900Y9989200D01*
X12952499D01*
X12901700Y9887600D01*
Y9637600D02*
X12850900Y9739200D01*
X12952499D01*
X12901700Y9637600D01*
Y9387600D02*
X12850900Y9489200D01*
X12952499D01*
X12901700Y9387600D01*
Y9137600D02*
X12850900Y9239200D01*
X12952499D01*
X12901700Y9137600D01*
Y8887600D02*
X12850900Y8989200D01*
X12952499D01*
X12901700Y8887600D01*
Y8637600D02*
X12850900Y8739200D01*
X12952499D01*
X12901700Y8637600D01*
X12651700Y12137600D02*
X12600900Y12239200D01*
X12702500D01*
X12651700Y12137600D01*
Y11887600D02*
X12600900Y11989200D01*
X12702500D01*
X12651700Y11887600D01*
Y11637600D02*
X12600900Y11739200D01*
X12702500D01*
X12651700Y11637600D01*
Y11387600D02*
X12600900Y11489200D01*
X12702500D01*
X12651700Y11387600D01*
Y11137600D02*
X12600900Y11239200D01*
X12702500D01*
X12651700Y11137600D01*
Y10887600D02*
X12600900Y10989200D01*
X12702500D01*
X12651700Y10887600D01*
Y10637600D02*
X12600900Y10739200D01*
X12702500D01*
X12651700Y10637600D01*
Y10387600D02*
X12600900Y10489200D01*
X12702500D01*
X12651700Y10387600D01*
Y10137600D02*
X12600900Y10239200D01*
X12702500D01*
X12651700Y10137600D01*
Y9887600D02*
X12600900Y9989200D01*
X12702500D01*
X12651700Y9887600D01*
Y9637600D02*
X12600900Y9739200D01*
X12702500D01*
X12651700Y9637600D01*
Y9387600D02*
X12600900Y9489200D01*
X12702500D01*
X12651700Y9387600D01*
Y9137600D02*
X12600900Y9239200D01*
X12702500D01*
X12651700Y9137600D01*
Y8637600D02*
X12600900Y8739200D01*
X12702500D01*
X12651700Y8637600D01*
X12401700Y12137600D02*
X12350900Y12239200D01*
X12452500D01*
X12401700Y12137600D01*
Y11887600D02*
X12350900Y11989200D01*
X12452500D01*
X12401700Y11887600D01*
Y11637600D02*
X12350900Y11739200D01*
X12452500D01*
X12401700Y11637600D01*
Y11387600D02*
X12350900Y11489200D01*
X12452500D01*
X12401700Y11387600D01*
Y10637600D02*
X12350900Y10739200D01*
X12452500D01*
X12401700Y10637600D01*
Y10387600D02*
X12350900Y10489200D01*
X12452500D01*
X12401700Y10387600D01*
Y8637600D02*
X12350900Y8739200D01*
X12452500D01*
X12401700Y8637600D01*
X12151700Y11887600D02*
X12100900Y11989200D01*
X12202500D01*
X12151700Y11887600D01*
Y11637600D02*
X12100900Y11739200D01*
X12202500D01*
X12151700Y11637600D01*
Y11387600D02*
X12100900Y11489200D01*
X12202500D01*
X12151700Y11387600D01*
Y10637600D02*
X12100900Y10739200D01*
X12202500D01*
X12151700Y10637600D01*
Y10387600D02*
X12100900Y10489200D01*
X12202500D01*
X12151700Y10387600D01*
Y9637600D02*
X12100900Y9739200D01*
X12202500D01*
X12151700Y9637600D01*
Y9387600D02*
X12100900Y9489200D01*
X12202500D01*
X12151700Y9387600D01*
Y9137600D02*
X12100900Y9239200D01*
X12202500D01*
X12151700Y9137600D01*
Y8637600D02*
X12100900Y8739200D01*
X12202500D01*
X12151700Y8637600D01*
X11901700Y11887600D02*
X11850900Y11989200D01*
X11952500D01*
X11901700Y11887600D01*
Y11637600D02*
X11850900Y11739200D01*
X11952500D01*
X11901700Y11637600D01*
Y11387600D02*
X11850900Y11489200D01*
X11952500D01*
X11901700Y11387600D01*
Y11137600D02*
X11850900Y11239200D01*
X11952500D01*
X11901700Y11137600D01*
Y10887600D02*
X11850900Y10989200D01*
X11952500D01*
X11901700Y10887600D01*
Y10637600D02*
X11850900Y10739200D01*
X11952500D01*
X11901700Y10637600D01*
Y10387600D02*
X11850900Y10489200D01*
X11952500D01*
X11901700Y10387600D01*
Y10137600D02*
X11850900Y10239200D01*
X11952500D01*
X11901700Y10137600D01*
Y9887600D02*
X11850900Y9989200D01*
X11952500D01*
X11901700Y9887600D01*
Y9637600D02*
X11850900Y9739200D01*
X11952500D01*
X11901700Y9637600D01*
Y9387600D02*
X11850900Y9489200D01*
X11952500D01*
X11901700Y9387600D01*
Y9137600D02*
X11850900Y9239200D01*
X11952500D01*
X11901700Y9137600D01*
Y8637600D02*
X11850900Y8739200D01*
X11952500D01*
X11901700Y8637600D01*
X11651700Y10887600D02*
X11600900Y10989200D01*
X11702500D01*
X11651700Y10887600D01*
Y10387600D02*
X11600900Y10489200D01*
X11702500D01*
X11651700Y10387600D01*
Y9887600D02*
X11600900Y9989200D01*
X11702500D01*
X11651700Y9887600D01*
Y9637600D02*
X11600900Y9739200D01*
X11702500D01*
X11651700Y9637600D01*
Y9387600D02*
X11600900Y9489200D01*
X11702500D01*
X11651700Y9387600D01*
Y9137600D02*
X11600900Y9239200D01*
X11702500D01*
X11651700Y9137600D01*
Y8637600D02*
X11600900Y8739200D01*
X11702500D01*
X11651700Y8637600D01*
X11401700Y9637600D02*
X11350900Y9739200D01*
X11452500D01*
X11401700Y9637600D01*
Y9137600D02*
X11350900Y9239200D01*
X11452500D01*
X11401700Y9137600D01*
Y8887600D02*
X11350900Y8989200D01*
X11452500D01*
X11401700Y8887600D01*
Y8637600D02*
X11350900Y8739200D01*
X11452500D01*
X11401700Y8637600D01*
X11151700Y11637600D02*
X11100900Y11739200D01*
X11202500D01*
X11151700Y11637600D01*
Y9887600D02*
X11100900Y9989200D01*
X11202500D01*
X11151700Y9887600D01*
Y9637600D02*
X11100900Y9739200D01*
X11202500D01*
X11151700Y9637600D01*
Y8887600D02*
X11100900Y8989200D01*
X11202500D01*
X11151700Y8887600D01*
Y8637600D02*
X11100900Y8739200D01*
X11202500D01*
X11151700Y8637600D01*
X10901700Y12137600D02*
X10850900Y12239200D01*
X10952500D01*
X10901700Y12137600D01*
Y10637600D02*
X10850900Y10739200D01*
X10952500D01*
X10901700Y10637600D01*
Y10387600D02*
X10850900Y10489200D01*
X10952500D01*
X10901700Y10387600D01*
Y9887600D02*
X10850900Y9989200D01*
X10952500D01*
X10901700Y9887600D01*
Y9637600D02*
X10850900Y9739200D01*
X10952500D01*
X10901700Y9637600D01*
Y8887600D02*
X10850900Y8989200D01*
X10952500D01*
X10901700Y8887600D01*
X10651700Y12137600D02*
X10600900Y12239200D01*
X10702500D01*
X10651700Y12137600D01*
Y11887600D02*
X10600900Y11989200D01*
X10702500D01*
X10651700Y11887600D01*
Y10637600D02*
X10600900Y10739200D01*
X10702500D01*
X10651700Y10637600D01*
Y10387600D02*
X10600900Y10489200D01*
X10702500D01*
X10651700Y10387600D01*
Y9887600D02*
X10600900Y9989200D01*
X10702500D01*
X10651700Y9887600D01*
Y9637600D02*
X10600900Y9739200D01*
X10702500D01*
X10651700Y9637600D01*
Y9137600D02*
X10600900Y9239200D01*
X10702500D01*
X10651700Y9137600D01*
X10401700Y12137600D02*
X10350900Y12239200D01*
X10452500D01*
X10401700Y12137600D01*
Y11887600D02*
X10350900Y11989200D01*
X10452500D01*
X10401700Y11887600D01*
Y10887600D02*
X10350900Y10989200D01*
X10452500D01*
X10401700Y10887600D01*
Y10637600D02*
X10350900Y10739200D01*
X10452500D01*
X10401700Y10637600D01*
Y10387600D02*
X10350900Y10489200D01*
X10452500D01*
X10401700Y10387600D01*
Y9637600D02*
X10350900Y9739200D01*
X10452500D01*
X10401700Y9637600D01*
Y9137600D02*
X10350900Y9239200D01*
X10452500D01*
X10401700Y9137600D01*
X10151700Y12137600D02*
X10100900Y12239200D01*
X10202500D01*
X10151700Y12137600D01*
Y10887600D02*
X10100900Y10989200D01*
X10202500D01*
X10151700Y10887600D01*
Y10637600D02*
X10100900Y10739200D01*
X10202500D01*
X10151700Y10637600D01*
Y10387600D02*
X10100900Y10489200D01*
X10202500D01*
X10151700Y10387600D01*
Y9387600D02*
X10100900Y9489200D01*
X10202500D01*
X10151700Y9387600D01*
Y9137600D02*
X10100900Y9239200D01*
X10202500D01*
X10151700Y9137600D01*
X9901700Y12137600D02*
X9850900Y12239200D01*
X9952500D01*
X9901700Y12137600D01*
Y11887600D02*
X9850900Y11989200D01*
X9952500D01*
X9901700Y11887600D01*
Y10887600D02*
X9850900Y10989200D01*
X9952500D01*
X9901700Y10887600D01*
Y10637600D02*
X9850900Y10739200D01*
X9952500D01*
X9901700Y10637600D01*
Y10387600D02*
X9850900Y10489200D01*
X9952500D01*
X9901700Y10387600D01*
Y9637600D02*
X9850900Y9739200D01*
X9952500D01*
X9901700Y9637600D01*
Y9387600D02*
X9850900Y9489200D01*
X9952500D01*
X9901700Y9387600D01*
Y9137600D02*
X9850900Y9239200D01*
X9952500D01*
X9901700Y9137600D01*
Y8887600D02*
X9850900Y8989200D01*
X9952500D01*
X9901700Y8887600D01*
X9651700Y12137600D02*
X9600900Y12239200D01*
X9702500D01*
X9651700Y12137600D01*
Y11887600D02*
X9600900Y11989200D01*
X9702500D01*
X9651700Y11887600D01*
Y10887600D02*
X9600900Y10989200D01*
X9702500D01*
X9651700Y10887600D01*
Y10637600D02*
X9600900Y10739200D01*
X9702500D01*
X9651700Y10637600D01*
Y10387600D02*
X9600900Y10489200D01*
X9702500D01*
X9651700Y10387600D01*
Y9637600D02*
X9600900Y9739200D01*
X9702500D01*
X9651700Y9637600D01*
Y9387600D02*
X9600900Y9489200D01*
X9702500D01*
X9651700Y9387600D01*
Y9137600D02*
X9600900Y9239200D01*
X9702500D01*
X9651700Y9137600D01*
Y8887600D02*
X9600900Y8989200D01*
X9702500D01*
X9651700Y8887600D01*
Y8637600D02*
X9600900Y8739200D01*
X9702500D01*
X9651700Y8637600D01*
X9401700Y11887600D02*
X9350900Y11989200D01*
X9452500D01*
X9401700Y11887600D01*
Y11137600D02*
X9350900Y11239200D01*
X9452500D01*
X9401700Y11137600D01*
Y10887600D02*
X9350900Y10989200D01*
X9452500D01*
X9401700Y10887600D01*
Y10637600D02*
X9350900Y10739200D01*
X9452500D01*
X9401700Y10637600D01*
Y10137600D02*
X9350900Y10239200D01*
X9452500D01*
X9401700Y10137600D01*
Y9887600D02*
X9350900Y9989200D01*
X9452500D01*
X9401700Y9887600D01*
Y9637600D02*
X9350900Y9739200D01*
X9452500D01*
X9401700Y9637600D01*
Y9387600D02*
X9350900Y9489200D01*
X9452500D01*
X9401700Y9387600D01*
Y9137600D02*
X9350900Y9239200D01*
X9452500D01*
X9401700Y9137600D01*
Y8887600D02*
X9350900Y8989200D01*
X9452500D01*
X9401700Y8887600D01*
Y8637600D02*
X9350900Y8739200D01*
X9452500D01*
X9401700Y8637600D01*
X9151700Y10887600D02*
X9100900Y10989200D01*
X9202500D01*
X9151700Y10887600D01*
Y10637600D02*
X9100900Y10739200D01*
X9202500D01*
X9151700Y10637600D01*
Y10137600D02*
X9100900Y10239200D01*
X9202500D01*
X9151700Y10137600D01*
Y9887600D02*
X9100900Y9989200D01*
X9202500D01*
X9151700Y9887600D01*
Y9637600D02*
X9100900Y9739200D01*
X9202500D01*
X9151700Y9637600D01*
Y9387600D02*
X9100900Y9489200D01*
X9202500D01*
X9151700Y9387600D01*
Y9137600D02*
X9100900Y9239200D01*
X9202500D01*
X9151700Y9137600D01*
Y8887600D02*
X9100900Y8989200D01*
X9202500D01*
X9151700Y8887600D01*
Y8637600D02*
X9100900Y8739200D01*
X9202500D01*
X9151700Y8637600D01*
X8901700Y11887600D02*
X8850900Y11989200D01*
X8952500D01*
X8901700Y11887600D01*
Y11637600D02*
X8850900Y11739200D01*
X8952500D01*
X8901700Y11637600D01*
Y11387600D02*
X8850900Y11489200D01*
X8952500D01*
X8901700Y11387600D01*
Y11137600D02*
X8850900Y11239200D01*
X8952500D01*
X8901700Y11137600D01*
Y10887600D02*
X8850900Y10989200D01*
X8952500D01*
X8901700Y10887600D01*
Y10637600D02*
X8850900Y10739200D01*
X8952500D01*
X8901700Y10637600D01*
Y10387600D02*
X8850900Y10489200D01*
X8952500D01*
X8901700Y10387600D01*
Y9637600D02*
X8850900Y9739200D01*
X8952500D01*
X8901700Y9637600D01*
Y9387600D02*
X8850900Y9489200D01*
X8952500D01*
X8901700Y9387600D01*
Y9137600D02*
X8850900Y9239200D01*
X8952500D01*
X8901700Y9137600D01*
Y8887600D02*
X8850900Y8989200D01*
X8952500D01*
X8901700Y8887600D01*
Y8637600D02*
X8850900Y8739200D01*
X8952500D01*
X8901700Y8637600D01*
X8651700Y12137600D02*
X8600900Y12239200D01*
X8702500D01*
X8651700Y12137600D01*
Y11887600D02*
X8600900Y11989200D01*
X8702500D01*
X8651700Y11887600D01*
Y11637600D02*
X8600900Y11739200D01*
X8702500D01*
X8651700Y11637600D01*
Y11387600D02*
X8600900Y11489200D01*
X8702500D01*
X8651700Y11387600D01*
Y11137600D02*
X8600900Y11239200D01*
X8702500D01*
X8651700Y11137600D01*
Y10887600D02*
X8600900Y10989200D01*
X8702500D01*
X8651700Y10887600D01*
Y10637600D02*
X8600900Y10739200D01*
X8702500D01*
X8651700Y10637600D01*
Y10387600D02*
X8600900Y10489200D01*
X8702500D01*
X8651700Y10387600D01*
Y9637600D02*
X8600900Y9739200D01*
X8702500D01*
X8651700Y9637600D01*
Y9387600D02*
X8600900Y9489200D01*
X8702500D01*
X8651700Y9387600D01*
Y9137600D02*
X8600900Y9239200D01*
X8702500D01*
X8651700Y9137600D01*
Y8887600D02*
X8600900Y8989200D01*
X8702500D01*
X8651700Y8887600D01*
Y8637600D02*
X8600900Y8739200D01*
X8702500D01*
X8651700Y8637600D01*
X8401700Y12137600D02*
X8350900Y12239200D01*
X8452500D01*
X8401700Y12137600D01*
Y11887600D02*
X8350900Y11989200D01*
X8452500D01*
X8401700Y11887600D01*
Y11637600D02*
X8350900Y11739200D01*
X8452500D01*
X8401700Y11637600D01*
Y11387600D02*
X8350900Y11489200D01*
X8452500D01*
X8401700Y11387600D01*
Y11137600D02*
X8350900Y11239200D01*
X8452500D01*
X8401700Y11137600D01*
Y10887600D02*
X8350900Y10989200D01*
X8452500D01*
X8401700Y10887600D01*
Y10387600D02*
X8350900Y10489200D01*
X8452500D01*
X8401700Y10387600D01*
Y9137600D02*
X8350900Y9239200D01*
X8452500D01*
X8401700Y9137600D01*
Y8887600D02*
X8350900Y8989200D01*
X8452500D01*
X8401700Y8887600D01*
Y8637600D02*
X8350900Y8739200D01*
X8452500D01*
X8401700Y8637600D01*
X8151700Y12137600D02*
X8100900Y12239200D01*
X8202500D01*
X8151700Y12137600D01*
Y11887600D02*
X8100900Y11989200D01*
X8202500D01*
X8151700Y11887600D01*
Y11637600D02*
X8100900Y11739200D01*
X8202500D01*
X8151700Y11637600D01*
Y11387600D02*
X8100900Y11489200D01*
X8202500D01*
X8151700Y11387600D01*
Y11137600D02*
X8100900Y11239200D01*
X8202500D01*
X8151700Y11137600D01*
Y10887600D02*
X8100900Y10989200D01*
X8202500D01*
X8151700Y10887600D01*
Y9637600D02*
X8100900Y9739200D01*
X8202500D01*
X8151700Y9637600D01*
Y8887600D02*
X8100900Y8989200D01*
X8202500D01*
X8151700Y8887600D01*
Y8637600D02*
X8100900Y8739200D01*
X8202500D01*
X8151700Y8637600D01*
X7901700Y12137600D02*
X7850900Y12239200D01*
X7952500D01*
X7901700Y12137600D01*
Y11887600D02*
X7850900Y11989200D01*
X7952500D01*
X7901700Y11887600D01*
Y11637600D02*
X7850900Y11739200D01*
X7952500D01*
X7901700Y11637600D01*
Y11387600D02*
X7850900Y11489200D01*
X7952500D01*
X7901700Y11387600D01*
Y11137600D02*
X7850900Y11239200D01*
X7952500D01*
X7901700Y11137600D01*
Y10887600D02*
X7850900Y10989200D01*
X7952500D01*
X7901700Y10887600D01*
Y10387600D02*
X7850900Y10489200D01*
X7952500D01*
X7901700Y10387600D01*
Y10137600D02*
X7850900Y10239200D01*
X7952500D01*
X7901700Y10137600D01*
Y9887600D02*
X7850900Y9989200D01*
X7952500D01*
X7901700Y9887600D01*
Y9637600D02*
X7850900Y9739200D01*
X7952500D01*
X7901700Y9637600D01*
Y9137600D02*
X7850900Y9239200D01*
X7952500D01*
X7901700Y9137600D01*
Y8887600D02*
X7850900Y8989200D01*
X7952500D01*
X7901700Y8887600D01*
Y8637600D02*
X7850900Y8739200D01*
X7952500D01*
X7901700Y8637600D01*
X8826500Y9982200D02*
X8775700Y10083800D01*
X8877300D01*
X8826500Y9982200D01*
X10344709Y9360736D02*
X10293909Y9462336D01*
X10395509D01*
X10344709Y9360736D01*
X10442997Y9459023D02*
X10392197Y9560623D01*
X10493797D01*
X10442997Y9459023D01*
X8128000Y10119300D02*
X8077200Y10220900D01*
X8178800D01*
X8128000Y10119300D01*
X8661400D02*
X8610600Y10220900D01*
X8712200D01*
X8661400Y10119300D01*
X8128000Y9918700D02*
X8077200Y10020300D01*
X8178800D01*
X8128000Y9918700D01*
X8585200D02*
X8534400Y10020300D01*
X8636000D01*
X8585200Y9918700D01*
X14600200Y9383345D02*
Y9484945D01*
X14701801D01*
Y9383345D01*
X14600200D01*
Y10473046D02*
Y10574646D01*
X14701801D01*
Y10473046D01*
X14600200D01*
X19472301Y12137600D02*
X19421500Y12239200D01*
X19523100D01*
X19472301Y12137600D01*
Y11387600D02*
X19421500Y11489200D01*
X19523100D01*
X19472301Y11387600D01*
Y11137600D02*
X19421500Y11239200D01*
X19523100D01*
X19472301Y11137600D01*
Y10887600D02*
X19421500Y10989200D01*
X19523100D01*
X19472301Y10887600D01*
Y10637600D02*
X19421500Y10739200D01*
X19523100D01*
X19472301Y10637600D01*
Y10387600D02*
X19421500Y10489200D01*
X19523100D01*
X19472301Y10387600D01*
Y10137600D02*
X19421500Y10239200D01*
X19523100D01*
X19472301Y10137600D01*
Y9887600D02*
X19421500Y9989200D01*
X19523100D01*
X19472301Y9887600D01*
Y9637600D02*
X19421500Y9739200D01*
X19523100D01*
X19472301Y9637600D01*
Y9387600D02*
X19421500Y9489200D01*
X19523100D01*
X19472301Y9387600D01*
Y9137600D02*
X19421500Y9239200D01*
X19523100D01*
X19472301Y9137600D01*
Y8887600D02*
X19421500Y8989200D01*
X19523100D01*
X19472301Y8887600D01*
Y8637600D02*
X19421500Y8739200D01*
X19523100D01*
X19472301Y8637600D01*
X19222301Y12137600D02*
X19171500Y12239200D01*
X19273100D01*
X19222301Y12137600D01*
Y11887600D02*
X19171500Y11989200D01*
X19273100D01*
X19222301Y11887600D01*
Y11637600D02*
X19171500Y11739200D01*
X19273100D01*
X19222301Y11637600D01*
Y11387600D02*
X19171500Y11489200D01*
X19273100D01*
X19222301Y11387600D01*
Y11137600D02*
X19171500Y11239200D01*
X19273100D01*
X19222301Y11137600D01*
Y10887600D02*
X19171500Y10989200D01*
X19273100D01*
X19222301Y10887600D01*
Y10637600D02*
X19171500Y10739200D01*
X19273100D01*
X19222301Y10637600D01*
Y10387600D02*
X19171500Y10489200D01*
X19273100D01*
X19222301Y10387600D01*
Y10137600D02*
X19171500Y10239200D01*
X19273100D01*
X19222301Y10137600D01*
Y9887600D02*
X19171500Y9989200D01*
X19273100D01*
X19222301Y9887600D01*
Y9637600D02*
X19171500Y9739200D01*
X19273100D01*
X19222301Y9637600D01*
Y9387600D02*
X19171500Y9489200D01*
X19273100D01*
X19222301Y9387600D01*
Y9137600D02*
X19171500Y9239200D01*
X19273100D01*
X19222301Y9137600D01*
Y8637600D02*
X19171500Y8739200D01*
X19273100D01*
X19222301Y8637600D01*
X18972301Y12137600D02*
X18921500Y12239200D01*
X19023100D01*
X18972301Y12137600D01*
Y11887600D02*
X18921500Y11989200D01*
X19023100D01*
X18972301Y11887600D01*
Y11637600D02*
X18921500Y11739200D01*
X19023100D01*
X18972301Y11637600D01*
Y11387600D02*
X18921500Y11489200D01*
X19023100D01*
X18972301Y11387600D01*
Y10637600D02*
X18921500Y10739200D01*
X19023100D01*
X18972301Y10637600D01*
Y10387600D02*
X18921500Y10489200D01*
X19023100D01*
X18972301Y10387600D01*
Y8637600D02*
X18921500Y8739200D01*
X19023100D01*
X18972301Y8637600D01*
X18722301Y11887600D02*
X18671500Y11989200D01*
X18773100D01*
X18722301Y11887600D01*
Y11637600D02*
X18671500Y11739200D01*
X18773100D01*
X18722301Y11637600D01*
Y11387600D02*
X18671500Y11489200D01*
X18773100D01*
X18722301Y11387600D01*
Y10637600D02*
X18671500Y10739200D01*
X18773100D01*
X18722301Y10637600D01*
Y10387600D02*
X18671500Y10489200D01*
X18773100D01*
X18722301Y10387600D01*
Y9637600D02*
X18671500Y9739200D01*
X18773100D01*
X18722301Y9637600D01*
Y9387600D02*
X18671500Y9489200D01*
X18773100D01*
X18722301Y9387600D01*
Y9137600D02*
X18671500Y9239200D01*
X18773100D01*
X18722301Y9137600D01*
Y8637600D02*
X18671500Y8739200D01*
X18773100D01*
X18722301Y8637600D01*
X18472301Y11887600D02*
X18421500Y11989200D01*
X18523100D01*
X18472301Y11887600D01*
Y11637600D02*
X18421500Y11739200D01*
X18523100D01*
X18472301Y11637600D01*
Y11387600D02*
X18421500Y11489200D01*
X18523100D01*
X18472301Y11387600D01*
Y11137600D02*
X18421500Y11239200D01*
X18523100D01*
X18472301Y11137600D01*
Y10887600D02*
X18421500Y10989200D01*
X18523100D01*
X18472301Y10887600D01*
Y10637600D02*
X18421500Y10739200D01*
X18523100D01*
X18472301Y10637600D01*
Y10387600D02*
X18421500Y10489200D01*
X18523100D01*
X18472301Y10387600D01*
Y10137600D02*
X18421500Y10239200D01*
X18523100D01*
X18472301Y10137600D01*
Y9887600D02*
X18421500Y9989200D01*
X18523100D01*
X18472301Y9887600D01*
Y9637600D02*
X18421500Y9739200D01*
X18523100D01*
X18472301Y9637600D01*
Y9387600D02*
X18421500Y9489200D01*
X18523100D01*
X18472301Y9387600D01*
Y9137600D02*
X18421500Y9239200D01*
X18523100D01*
X18472301Y9137600D01*
Y8637600D02*
X18421500Y8739200D01*
X18523100D01*
X18472301Y8637600D01*
X18222301Y10887600D02*
X18171500Y10989200D01*
X18273100D01*
X18222301Y10887600D01*
Y10387600D02*
X18171500Y10489200D01*
X18273100D01*
X18222301Y10387600D01*
Y9887600D02*
X18171500Y9989200D01*
X18273100D01*
X18222301Y9887600D01*
Y9637600D02*
X18171500Y9739200D01*
X18273100D01*
X18222301Y9637600D01*
Y9387600D02*
X18171500Y9489200D01*
X18273100D01*
X18222301Y9387600D01*
Y9137600D02*
X18171500Y9239200D01*
X18273100D01*
X18222301Y9137600D01*
Y8637600D02*
X18171500Y8739200D01*
X18273100D01*
X18222301Y8637600D01*
X17972301Y9637600D02*
X17921500Y9739200D01*
X18023100D01*
X17972301Y9637600D01*
Y9137600D02*
X17921500Y9239200D01*
X18023100D01*
X17972301Y9137600D01*
Y8887600D02*
X17921500Y8989200D01*
X18023100D01*
X17972301Y8887600D01*
Y8637600D02*
X17921500Y8739200D01*
X18023100D01*
X17972301Y8637600D01*
X17722301Y11637600D02*
X17671500Y11739200D01*
X17773100D01*
X17722301Y11637600D01*
Y9887600D02*
X17671500Y9989200D01*
X17773100D01*
X17722301Y9887600D01*
Y9637600D02*
X17671500Y9739200D01*
X17773100D01*
X17722301Y9637600D01*
Y8887600D02*
X17671500Y8989200D01*
X17773100D01*
X17722301Y8887600D01*
Y8637600D02*
X17671500Y8739200D01*
X17773100D01*
X17722301Y8637600D01*
X17472301Y12137600D02*
X17421500Y12239200D01*
X17523100D01*
X17472301Y12137600D01*
Y10637600D02*
X17421500Y10739200D01*
X17523100D01*
X17472301Y10637600D01*
Y10387600D02*
X17421500Y10489200D01*
X17523100D01*
X17472301Y10387600D01*
Y9887600D02*
X17421500Y9989200D01*
X17523100D01*
X17472301Y9887600D01*
Y9637600D02*
X17421500Y9739200D01*
X17523100D01*
X17472301Y9637600D01*
Y8887600D02*
X17421500Y8989200D01*
X17523100D01*
X17472301Y8887600D01*
X17222301Y12137600D02*
X17171500Y12239200D01*
X17273100D01*
X17222301Y12137600D01*
Y11887600D02*
X17171500Y11989200D01*
X17273100D01*
X17222301Y11887600D01*
Y10637600D02*
X17171500Y10739200D01*
X17273100D01*
X17222301Y10637600D01*
Y10387600D02*
X17171500Y10489200D01*
X17273100D01*
X17222301Y10387600D01*
Y9887600D02*
X17171500Y9989200D01*
X17273100D01*
X17222301Y9887600D01*
Y9637600D02*
X17171500Y9739200D01*
X17273100D01*
X17222301Y9637600D01*
Y9137600D02*
X17171500Y9239200D01*
X17273100D01*
X17222301Y9137600D01*
X16972301Y12137600D02*
X16921500Y12239200D01*
X17023100D01*
X16972301Y12137600D01*
Y11887600D02*
X16921500Y11989200D01*
X17023100D01*
X16972301Y11887600D01*
Y10887600D02*
X16921500Y10989200D01*
X17023100D01*
X16972301Y10887600D01*
Y10637600D02*
X16921500Y10739200D01*
X17023100D01*
X16972301Y10637600D01*
Y10387600D02*
X16921500Y10489200D01*
X17023100D01*
X16972301Y10387600D01*
Y9637600D02*
X16921500Y9739200D01*
X17023100D01*
X16972301Y9637600D01*
Y9137600D02*
X16921500Y9239200D01*
X17023100D01*
X16972301Y9137600D01*
X16722301Y12137600D02*
X16671500Y12239200D01*
X16773100D01*
X16722301Y12137600D01*
Y10887600D02*
X16671500Y10989200D01*
X16773100D01*
X16722301Y10887600D01*
Y10637600D02*
X16671500Y10739200D01*
X16773100D01*
X16722301Y10637600D01*
Y10387600D02*
X16671500Y10489200D01*
X16773100D01*
X16722301Y10387600D01*
Y9387600D02*
X16671500Y9489200D01*
X16773100D01*
X16722301Y9387600D01*
Y9137600D02*
X16671500Y9239200D01*
X16773100D01*
X16722301Y9137600D01*
X16472301Y12137600D02*
X16421500Y12239200D01*
X16523100D01*
X16472301Y12137600D01*
Y11887600D02*
X16421500Y11989200D01*
X16523100D01*
X16472301Y11887600D01*
Y10887600D02*
X16421500Y10989200D01*
X16523100D01*
X16472301Y10887600D01*
Y10637600D02*
X16421500Y10739200D01*
X16523100D01*
X16472301Y10637600D01*
Y10387600D02*
X16421500Y10489200D01*
X16523100D01*
X16472301Y10387600D01*
Y9637600D02*
X16421500Y9739200D01*
X16523100D01*
X16472301Y9637600D01*
Y9387600D02*
X16421500Y9489200D01*
X16523100D01*
X16472301Y9387600D01*
Y9137600D02*
X16421500Y9239200D01*
X16523100D01*
X16472301Y9137600D01*
Y8887600D02*
X16421500Y8989200D01*
X16523100D01*
X16472301Y8887600D01*
X16222301Y12137600D02*
X16171500Y12239200D01*
X16273100D01*
X16222301Y12137600D01*
Y11887600D02*
X16171500Y11989200D01*
X16273100D01*
X16222301Y11887600D01*
Y10887600D02*
X16171500Y10989200D01*
X16273100D01*
X16222301Y10887600D01*
Y10637600D02*
X16171500Y10739200D01*
X16273100D01*
X16222301Y10637600D01*
Y10387600D02*
X16171500Y10489200D01*
X16273100D01*
X16222301Y10387600D01*
Y9637600D02*
X16171500Y9739200D01*
X16273100D01*
X16222301Y9637600D01*
Y9387600D02*
X16171500Y9489200D01*
X16273100D01*
X16222301Y9387600D01*
Y9137600D02*
X16171500Y9239200D01*
X16273100D01*
X16222301Y9137600D01*
Y8887600D02*
X16171500Y8989200D01*
X16273100D01*
X16222301Y8887600D01*
Y8637600D02*
X16171500Y8739200D01*
X16273100D01*
X16222301Y8637600D01*
X15972301Y11887600D02*
X15921500Y11989200D01*
X16023100D01*
X15972301Y11887600D01*
Y11137600D02*
X15921500Y11239200D01*
X16023100D01*
X15972301Y11137600D01*
Y10887600D02*
X15921500Y10989200D01*
X16023100D01*
X15972301Y10887600D01*
Y10637600D02*
X15921500Y10739200D01*
X16023100D01*
X15972301Y10637600D01*
Y10137600D02*
X15921500Y10239200D01*
X16023100D01*
X15972301Y10137600D01*
Y9887600D02*
X15921500Y9989200D01*
X16023100D01*
X15972301Y9887600D01*
Y9637600D02*
X15921500Y9739200D01*
X16023100D01*
X15972301Y9637600D01*
Y9387600D02*
X15921500Y9489200D01*
X16023100D01*
X15972301Y9387600D01*
Y9137600D02*
X15921500Y9239200D01*
X16023100D01*
X15972301Y9137600D01*
Y8887600D02*
X15921500Y8989200D01*
X16023100D01*
X15972301Y8887600D01*
Y8637600D02*
X15921500Y8739200D01*
X16023100D01*
X15972301Y8637600D01*
X15722301Y10887600D02*
X15671500Y10989200D01*
X15773100D01*
X15722301Y10887600D01*
Y10637600D02*
X15671500Y10739200D01*
X15773100D01*
X15722301Y10637600D01*
Y10137600D02*
X15671500Y10239200D01*
X15773100D01*
X15722301Y10137600D01*
Y9887600D02*
X15671500Y9989200D01*
X15773100D01*
X15722301Y9887600D01*
Y9637600D02*
X15671500Y9739200D01*
X15773100D01*
X15722301Y9637600D01*
Y9387600D02*
X15671500Y9489200D01*
X15773100D01*
X15722301Y9387600D01*
Y9137600D02*
X15671500Y9239200D01*
X15773100D01*
X15722301Y9137600D01*
Y8887600D02*
X15671500Y8989200D01*
X15773100D01*
X15722301Y8887600D01*
Y8637600D02*
X15671500Y8739200D01*
X15773100D01*
X15722301Y8637600D01*
X15472301Y11887600D02*
X15421500Y11989200D01*
X15523100D01*
X15472301Y11887600D01*
Y11637600D02*
X15421500Y11739200D01*
X15523100D01*
X15472301Y11637600D01*
Y11387600D02*
X15421500Y11489200D01*
X15523100D01*
X15472301Y11387600D01*
Y11137600D02*
X15421500Y11239200D01*
X15523100D01*
X15472301Y11137600D01*
Y10887600D02*
X15421500Y10989200D01*
X15523100D01*
X15472301Y10887600D01*
Y10637600D02*
X15421500Y10739200D01*
X15523100D01*
X15472301Y10637600D01*
Y10387600D02*
X15421500Y10489200D01*
X15523100D01*
X15472301Y10387600D01*
Y9637600D02*
X15421500Y9739200D01*
X15523100D01*
X15472301Y9637600D01*
Y9387600D02*
X15421500Y9489200D01*
X15523100D01*
X15472301Y9387600D01*
Y9137600D02*
X15421500Y9239200D01*
X15523100D01*
X15472301Y9137600D01*
Y8887600D02*
X15421500Y8989200D01*
X15523100D01*
X15472301Y8887600D01*
Y8637600D02*
X15421500Y8739200D01*
X15523100D01*
X15472301Y8637600D01*
X15222301Y12137600D02*
X15171500Y12239200D01*
X15273100D01*
X15222301Y12137600D01*
Y11887600D02*
X15171500Y11989200D01*
X15273100D01*
X15222301Y11887600D01*
Y11637600D02*
X15171500Y11739200D01*
X15273100D01*
X15222301Y11637600D01*
Y11387600D02*
X15171500Y11489200D01*
X15273100D01*
X15222301Y11387600D01*
Y11137600D02*
X15171500Y11239200D01*
X15273100D01*
X15222301Y11137600D01*
Y10887600D02*
X15171500Y10989200D01*
X15273100D01*
X15222301Y10887600D01*
Y10637600D02*
X15171500Y10739200D01*
X15273100D01*
X15222301Y10637600D01*
Y10387600D02*
X15171500Y10489200D01*
X15273100D01*
X15222301Y10387600D01*
Y9637600D02*
X15171500Y9739200D01*
X15273100D01*
X15222301Y9637600D01*
Y9387600D02*
X15171500Y9489200D01*
X15273100D01*
X15222301Y9387600D01*
Y9137600D02*
X15171500Y9239200D01*
X15273100D01*
X15222301Y9137600D01*
Y8887600D02*
X15171500Y8989200D01*
X15273100D01*
X15222301Y8887600D01*
Y8637600D02*
X15171500Y8739200D01*
X15273100D01*
X15222301Y8637600D01*
X14972301Y12137600D02*
X14921500Y12239200D01*
X15023100D01*
X14972301Y12137600D01*
Y11887600D02*
X14921500Y11989200D01*
X15023100D01*
X14972301Y11887600D01*
Y11637600D02*
X14921500Y11739200D01*
X15023100D01*
X14972301Y11637600D01*
Y11387600D02*
X14921500Y11489200D01*
X15023100D01*
X14972301Y11387600D01*
Y11137600D02*
X14921500Y11239200D01*
X15023100D01*
X14972301Y11137600D01*
Y10887600D02*
X14921500Y10989200D01*
X15023100D01*
X14972301Y10887600D01*
Y10387600D02*
X14921500Y10489200D01*
X15023100D01*
X14972301Y10387600D01*
Y9137600D02*
X14921500Y9239200D01*
X15023100D01*
X14972301Y9137600D01*
Y8887600D02*
X14921500Y8989200D01*
X15023100D01*
X14972301Y8887600D01*
Y8637600D02*
X14921500Y8739200D01*
X15023100D01*
X14972301Y8637600D01*
X14722301Y12137600D02*
X14671500Y12239200D01*
X14773100D01*
X14722301Y12137600D01*
Y11887600D02*
X14671500Y11989200D01*
X14773100D01*
X14722301Y11887600D01*
Y11637600D02*
X14671500Y11739200D01*
X14773100D01*
X14722301Y11637600D01*
Y11387600D02*
X14671500Y11489200D01*
X14773100D01*
X14722301Y11387600D01*
Y11137600D02*
X14671500Y11239200D01*
X14773100D01*
X14722301Y11137600D01*
Y10887600D02*
X14671500Y10989200D01*
X14773100D01*
X14722301Y10887600D01*
Y9637600D02*
X14671500Y9739200D01*
X14773100D01*
X14722301Y9637600D01*
Y8887600D02*
X14671500Y8989200D01*
X14773100D01*
X14722301Y8887600D01*
Y8637600D02*
X14671500Y8739200D01*
X14773100D01*
X14722301Y8637600D01*
X14472301Y12137600D02*
X14421500Y12239200D01*
X14523100D01*
X14472301Y12137600D01*
Y11887600D02*
X14421500Y11989200D01*
X14523100D01*
X14472301Y11887600D01*
Y11637600D02*
X14421500Y11739200D01*
X14523100D01*
X14472301Y11637600D01*
Y11387600D02*
X14421500Y11489200D01*
X14523100D01*
X14472301Y11387600D01*
Y11137600D02*
X14421500Y11239200D01*
X14523100D01*
X14472301Y11137600D01*
Y10887600D02*
X14421500Y10989200D01*
X14523100D01*
X14472301Y10887600D01*
Y10387600D02*
X14421500Y10489200D01*
X14523100D01*
X14472301Y10387600D01*
Y10137600D02*
X14421500Y10239200D01*
X14523100D01*
X14472301Y10137600D01*
Y9887600D02*
X14421500Y9989200D01*
X14523100D01*
X14472301Y9887600D01*
Y9637600D02*
X14421500Y9739200D01*
X14523100D01*
X14472301Y9637600D01*
Y9137600D02*
X14421500Y9239200D01*
X14523100D01*
X14472301Y9137600D01*
Y8887600D02*
X14421500Y8989200D01*
X14523100D01*
X14472301Y8887600D01*
Y8637600D02*
X14421500Y8739200D01*
X14523100D01*
X14472301Y8637600D01*
X15397099Y9982200D02*
X15346300Y10083800D01*
X15447900D01*
X15397099Y9982200D01*
X16915309Y9360736D02*
X16864510Y9462336D01*
X16966109D01*
X16915309Y9360736D01*
X17013597Y9459023D02*
X16962798Y9560623D01*
X17064397D01*
X17013597Y9459023D01*
X14698599Y10119300D02*
X14647800Y10220900D01*
X14749400D01*
X14698599Y10119300D01*
X15232001D02*
X15181200Y10220900D01*
X15282800D01*
X15232001Y10119300D01*
X14698599Y9918700D02*
X14647800Y10020300D01*
X14749400D01*
X14698599Y9918700D01*
X15155800D02*
X15105000Y10020300D01*
X15206599D01*
X15155800Y9918700D01*
X8029600Y13883846D02*
Y13985445D01*
X8131200D01*
Y13883846D01*
X8029600D01*
Y14973546D02*
Y15075146D01*
X8131200D01*
Y14973546D01*
X8029600D01*
X12901700Y16638100D02*
X12850900Y16739700D01*
X12952499D01*
X12901700Y16638100D01*
Y15888100D02*
X12850900Y15989700D01*
X12952499D01*
X12901700Y15888100D01*
Y15638100D02*
X12850900Y15739700D01*
X12952499D01*
X12901700Y15638100D01*
Y15388100D02*
X12850900Y15489700D01*
X12952499D01*
X12901700Y15388100D01*
Y15138100D02*
X12850900Y15239700D01*
X12952499D01*
X12901700Y15138100D01*
Y14888100D02*
X12850900Y14989700D01*
X12952499D01*
X12901700Y14888100D01*
Y14638100D02*
X12850900Y14739700D01*
X12952499D01*
X12901700Y14638100D01*
Y14388100D02*
X12850900Y14489700D01*
X12952499D01*
X12901700Y14388100D01*
Y14138100D02*
X12850900Y14239700D01*
X12952499D01*
X12901700Y14138100D01*
Y13888100D02*
X12850900Y13989700D01*
X12952499D01*
X12901700Y13888100D01*
Y13638100D02*
X12850900Y13739700D01*
X12952499D01*
X12901700Y13638100D01*
Y13388100D02*
X12850900Y13489700D01*
X12952499D01*
X12901700Y13388100D01*
Y13138100D02*
X12850900Y13239700D01*
X12952499D01*
X12901700Y13138100D01*
X12651700Y16638100D02*
X12600900Y16739700D01*
X12702500D01*
X12651700Y16638100D01*
Y16388100D02*
X12600900Y16489700D01*
X12702500D01*
X12651700Y16388100D01*
Y16138100D02*
X12600900Y16239700D01*
X12702500D01*
X12651700Y16138100D01*
Y15888100D02*
X12600900Y15989700D01*
X12702500D01*
X12651700Y15888100D01*
Y15638100D02*
X12600900Y15739700D01*
X12702500D01*
X12651700Y15638100D01*
Y15388100D02*
X12600900Y15489700D01*
X12702500D01*
X12651700Y15388100D01*
Y15138100D02*
X12600900Y15239700D01*
X12702500D01*
X12651700Y15138100D01*
Y14888100D02*
X12600900Y14989700D01*
X12702500D01*
X12651700Y14888100D01*
Y14638100D02*
X12600900Y14739700D01*
X12702500D01*
X12651700Y14638100D01*
Y14388100D02*
X12600900Y14489700D01*
X12702500D01*
X12651700Y14388100D01*
Y14138100D02*
X12600900Y14239700D01*
X12702500D01*
X12651700Y14138100D01*
Y13888100D02*
X12600900Y13989700D01*
X12702500D01*
X12651700Y13888100D01*
Y13638100D02*
X12600900Y13739700D01*
X12702500D01*
X12651700Y13638100D01*
Y13138100D02*
X12600900Y13239700D01*
X12702500D01*
X12651700Y13138100D01*
X12401700Y16638100D02*
X12350900Y16739700D01*
X12452500D01*
X12401700Y16638100D01*
Y16388100D02*
X12350900Y16489700D01*
X12452500D01*
X12401700Y16388100D01*
Y16138100D02*
X12350900Y16239700D01*
X12452500D01*
X12401700Y16138100D01*
Y15888100D02*
X12350900Y15989700D01*
X12452500D01*
X12401700Y15888100D01*
Y15138100D02*
X12350900Y15239700D01*
X12452500D01*
X12401700Y15138100D01*
Y14888100D02*
X12350900Y14989700D01*
X12452500D01*
X12401700Y14888100D01*
Y13138100D02*
X12350900Y13239700D01*
X12452500D01*
X12401700Y13138100D01*
X12151700Y16388100D02*
X12100900Y16489700D01*
X12202500D01*
X12151700Y16388100D01*
Y16138100D02*
X12100900Y16239700D01*
X12202500D01*
X12151700Y16138100D01*
Y15888100D02*
X12100900Y15989700D01*
X12202500D01*
X12151700Y15888100D01*
Y15138100D02*
X12100900Y15239700D01*
X12202500D01*
X12151700Y15138100D01*
Y14888100D02*
X12100900Y14989700D01*
X12202500D01*
X12151700Y14888100D01*
Y14138100D02*
X12100900Y14239700D01*
X12202500D01*
X12151700Y14138100D01*
Y13888100D02*
X12100900Y13989700D01*
X12202500D01*
X12151700Y13888100D01*
Y13638100D02*
X12100900Y13739700D01*
X12202500D01*
X12151700Y13638100D01*
Y13138100D02*
X12100900Y13239700D01*
X12202500D01*
X12151700Y13138100D01*
X11901700Y16388100D02*
X11850900Y16489700D01*
X11952500D01*
X11901700Y16388100D01*
Y16138100D02*
X11850900Y16239700D01*
X11952500D01*
X11901700Y16138100D01*
Y15888100D02*
X11850900Y15989700D01*
X11952500D01*
X11901700Y15888100D01*
Y15638100D02*
X11850900Y15739700D01*
X11952500D01*
X11901700Y15638100D01*
Y15388100D02*
X11850900Y15489700D01*
X11952500D01*
X11901700Y15388100D01*
Y15138100D02*
X11850900Y15239700D01*
X11952500D01*
X11901700Y15138100D01*
Y14888100D02*
X11850900Y14989700D01*
X11952500D01*
X11901700Y14888100D01*
Y14638100D02*
X11850900Y14739700D01*
X11952500D01*
X11901700Y14638100D01*
Y14388100D02*
X11850900Y14489700D01*
X11952500D01*
X11901700Y14388100D01*
Y14138100D02*
X11850900Y14239700D01*
X11952500D01*
X11901700Y14138100D01*
Y13888100D02*
X11850900Y13989700D01*
X11952500D01*
X11901700Y13888100D01*
Y13638100D02*
X11850900Y13739700D01*
X11952500D01*
X11901700Y13638100D01*
Y13138100D02*
X11850900Y13239700D01*
X11952500D01*
X11901700Y13138100D01*
X11651700Y15388100D02*
X11600900Y15489700D01*
X11702500D01*
X11651700Y15388100D01*
Y14888100D02*
X11600900Y14989700D01*
X11702500D01*
X11651700Y14888100D01*
Y14388100D02*
X11600900Y14489700D01*
X11702500D01*
X11651700Y14388100D01*
Y14138100D02*
X11600900Y14239700D01*
X11702500D01*
X11651700Y14138100D01*
Y13888100D02*
X11600900Y13989700D01*
X11702500D01*
X11651700Y13888100D01*
Y13638100D02*
X11600900Y13739700D01*
X11702500D01*
X11651700Y13638100D01*
Y13138100D02*
X11600900Y13239700D01*
X11702500D01*
X11651700Y13138100D01*
X11401700Y14138100D02*
X11350900Y14239700D01*
X11452500D01*
X11401700Y14138100D01*
Y13638100D02*
X11350900Y13739700D01*
X11452500D01*
X11401700Y13638100D01*
Y13388100D02*
X11350900Y13489700D01*
X11452500D01*
X11401700Y13388100D01*
Y13138100D02*
X11350900Y13239700D01*
X11452500D01*
X11401700Y13138100D01*
X11151700Y16138100D02*
X11100900Y16239700D01*
X11202500D01*
X11151700Y16138100D01*
Y14388100D02*
X11100900Y14489700D01*
X11202500D01*
X11151700Y14388100D01*
Y14138100D02*
X11100900Y14239700D01*
X11202500D01*
X11151700Y14138100D01*
Y13388100D02*
X11100900Y13489700D01*
X11202500D01*
X11151700Y13388100D01*
Y13138100D02*
X11100900Y13239700D01*
X11202500D01*
X11151700Y13138100D01*
X10901700Y16638100D02*
X10850900Y16739700D01*
X10952500D01*
X10901700Y16638100D01*
Y15138100D02*
X10850900Y15239700D01*
X10952500D01*
X10901700Y15138100D01*
Y14888100D02*
X10850900Y14989700D01*
X10952500D01*
X10901700Y14888100D01*
Y14388100D02*
X10850900Y14489700D01*
X10952500D01*
X10901700Y14388100D01*
Y14138100D02*
X10850900Y14239700D01*
X10952500D01*
X10901700Y14138100D01*
Y13388100D02*
X10850900Y13489700D01*
X10952500D01*
X10901700Y13388100D01*
X10651700Y16638100D02*
X10600900Y16739700D01*
X10702500D01*
X10651700Y16638100D01*
Y16388100D02*
X10600900Y16489700D01*
X10702500D01*
X10651700Y16388100D01*
Y15138100D02*
X10600900Y15239700D01*
X10702500D01*
X10651700Y15138100D01*
Y14888100D02*
X10600900Y14989700D01*
X10702500D01*
X10651700Y14888100D01*
Y14388100D02*
X10600900Y14489700D01*
X10702500D01*
X10651700Y14388100D01*
Y14138100D02*
X10600900Y14239700D01*
X10702500D01*
X10651700Y14138100D01*
Y13638100D02*
X10600900Y13739700D01*
X10702500D01*
X10651700Y13638100D01*
X10401700Y16638100D02*
X10350900Y16739700D01*
X10452500D01*
X10401700Y16638100D01*
Y16388100D02*
X10350900Y16489700D01*
X10452500D01*
X10401700Y16388100D01*
Y15388100D02*
X10350900Y15489700D01*
X10452500D01*
X10401700Y15388100D01*
Y15138100D02*
X10350900Y15239700D01*
X10452500D01*
X10401700Y15138100D01*
Y14888100D02*
X10350900Y14989700D01*
X10452500D01*
X10401700Y14888100D01*
Y14138100D02*
X10350900Y14239700D01*
X10452500D01*
X10401700Y14138100D01*
Y13638100D02*
X10350900Y13739700D01*
X10452500D01*
X10401700Y13638100D01*
X10151700Y16638100D02*
X10100900Y16739700D01*
X10202500D01*
X10151700Y16638100D01*
Y15388100D02*
X10100900Y15489700D01*
X10202500D01*
X10151700Y15388100D01*
Y15138100D02*
X10100900Y15239700D01*
X10202500D01*
X10151700Y15138100D01*
Y14888100D02*
X10100900Y14989700D01*
X10202500D01*
X10151700Y14888100D01*
Y13888100D02*
X10100900Y13989700D01*
X10202500D01*
X10151700Y13888100D01*
Y13638100D02*
X10100900Y13739700D01*
X10202500D01*
X10151700Y13638100D01*
X9901700Y16638100D02*
X9850900Y16739700D01*
X9952500D01*
X9901700Y16638100D01*
Y16388100D02*
X9850900Y16489700D01*
X9952500D01*
X9901700Y16388100D01*
Y15388100D02*
X9850900Y15489700D01*
X9952500D01*
X9901700Y15388100D01*
Y15138100D02*
X9850900Y15239700D01*
X9952500D01*
X9901700Y15138100D01*
Y14888100D02*
X9850900Y14989700D01*
X9952500D01*
X9901700Y14888100D01*
Y14138100D02*
X9850900Y14239700D01*
X9952500D01*
X9901700Y14138100D01*
Y13888100D02*
X9850900Y13989700D01*
X9952500D01*
X9901700Y13888100D01*
Y13638100D02*
X9850900Y13739700D01*
X9952500D01*
X9901700Y13638100D01*
Y13388100D02*
X9850900Y13489700D01*
X9952500D01*
X9901700Y13388100D01*
X9651700Y16638100D02*
X9600900Y16739700D01*
X9702500D01*
X9651700Y16638100D01*
Y16388100D02*
X9600900Y16489700D01*
X9702500D01*
X9651700Y16388100D01*
Y15388100D02*
X9600900Y15489700D01*
X9702500D01*
X9651700Y15388100D01*
Y15138100D02*
X9600900Y15239700D01*
X9702500D01*
X9651700Y15138100D01*
Y14888100D02*
X9600900Y14989700D01*
X9702500D01*
X9651700Y14888100D01*
Y14138100D02*
X9600900Y14239700D01*
X9702500D01*
X9651700Y14138100D01*
Y13888100D02*
X9600900Y13989700D01*
X9702500D01*
X9651700Y13888100D01*
Y13638100D02*
X9600900Y13739700D01*
X9702500D01*
X9651700Y13638100D01*
Y13388100D02*
X9600900Y13489700D01*
X9702500D01*
X9651700Y13388100D01*
Y13138100D02*
X9600900Y13239700D01*
X9702500D01*
X9651700Y13138100D01*
X9401700Y16388100D02*
X9350900Y16489700D01*
X9452500D01*
X9401700Y16388100D01*
Y15638100D02*
X9350900Y15739700D01*
X9452500D01*
X9401700Y15638100D01*
Y15388100D02*
X9350900Y15489700D01*
X9452500D01*
X9401700Y15388100D01*
Y15138100D02*
X9350900Y15239700D01*
X9452500D01*
X9401700Y15138100D01*
Y14638100D02*
X9350900Y14739700D01*
X9452500D01*
X9401700Y14638100D01*
Y14388100D02*
X9350900Y14489700D01*
X9452500D01*
X9401700Y14388100D01*
Y14138100D02*
X9350900Y14239700D01*
X9452500D01*
X9401700Y14138100D01*
Y13888100D02*
X9350900Y13989700D01*
X9452500D01*
X9401700Y13888100D01*
Y13638100D02*
X9350900Y13739700D01*
X9452500D01*
X9401700Y13638100D01*
Y13388100D02*
X9350900Y13489700D01*
X9452500D01*
X9401700Y13388100D01*
Y13138100D02*
X9350900Y13239700D01*
X9452500D01*
X9401700Y13138100D01*
X9151700Y15388100D02*
X9100900Y15489700D01*
X9202500D01*
X9151700Y15388100D01*
Y15138100D02*
X9100900Y15239700D01*
X9202500D01*
X9151700Y15138100D01*
Y14638100D02*
X9100900Y14739700D01*
X9202500D01*
X9151700Y14638100D01*
Y14388100D02*
X9100900Y14489700D01*
X9202500D01*
X9151700Y14388100D01*
Y14138100D02*
X9100900Y14239700D01*
X9202500D01*
X9151700Y14138100D01*
Y13888100D02*
X9100900Y13989700D01*
X9202500D01*
X9151700Y13888100D01*
Y13638100D02*
X9100900Y13739700D01*
X9202500D01*
X9151700Y13638100D01*
Y13388100D02*
X9100900Y13489700D01*
X9202500D01*
X9151700Y13388100D01*
Y13138100D02*
X9100900Y13239700D01*
X9202500D01*
X9151700Y13138100D01*
X8901700Y16388100D02*
X8850900Y16489700D01*
X8952500D01*
X8901700Y16388100D01*
Y16138100D02*
X8850900Y16239700D01*
X8952500D01*
X8901700Y16138100D01*
Y15888100D02*
X8850900Y15989700D01*
X8952500D01*
X8901700Y15888100D01*
Y15638100D02*
X8850900Y15739700D01*
X8952500D01*
X8901700Y15638100D01*
Y15388100D02*
X8850900Y15489700D01*
X8952500D01*
X8901700Y15388100D01*
Y15138100D02*
X8850900Y15239700D01*
X8952500D01*
X8901700Y15138100D01*
Y14888100D02*
X8850900Y14989700D01*
X8952500D01*
X8901700Y14888100D01*
Y14138100D02*
X8850900Y14239700D01*
X8952500D01*
X8901700Y14138100D01*
Y13888100D02*
X8850900Y13989700D01*
X8952500D01*
X8901700Y13888100D01*
Y13638100D02*
X8850900Y13739700D01*
X8952500D01*
X8901700Y13638100D01*
Y13388100D02*
X8850900Y13489700D01*
X8952500D01*
X8901700Y13388100D01*
Y13138100D02*
X8850900Y13239700D01*
X8952500D01*
X8901700Y13138100D01*
X8651700Y16638100D02*
X8600900Y16739700D01*
X8702500D01*
X8651700Y16638100D01*
Y16388100D02*
X8600900Y16489700D01*
X8702500D01*
X8651700Y16388100D01*
Y16138100D02*
X8600900Y16239700D01*
X8702500D01*
X8651700Y16138100D01*
Y15888100D02*
X8600900Y15989700D01*
X8702500D01*
X8651700Y15888100D01*
Y15638100D02*
X8600900Y15739700D01*
X8702500D01*
X8651700Y15638100D01*
Y15388100D02*
X8600900Y15489700D01*
X8702500D01*
X8651700Y15388100D01*
Y15138100D02*
X8600900Y15239700D01*
X8702500D01*
X8651700Y15138100D01*
Y14888100D02*
X8600900Y14989700D01*
X8702500D01*
X8651700Y14888100D01*
Y14138100D02*
X8600900Y14239700D01*
X8702500D01*
X8651700Y14138100D01*
Y13888100D02*
X8600900Y13989700D01*
X8702500D01*
X8651700Y13888100D01*
Y13638100D02*
X8600900Y13739700D01*
X8702500D01*
X8651700Y13638100D01*
Y13388100D02*
X8600900Y13489700D01*
X8702500D01*
X8651700Y13388100D01*
Y13138100D02*
X8600900Y13239700D01*
X8702500D01*
X8651700Y13138100D01*
X8401700Y16638100D02*
X8350900Y16739700D01*
X8452500D01*
X8401700Y16638100D01*
Y16388100D02*
X8350900Y16489700D01*
X8452500D01*
X8401700Y16388100D01*
Y16138100D02*
X8350900Y16239700D01*
X8452500D01*
X8401700Y16138100D01*
Y15888100D02*
X8350900Y15989700D01*
X8452500D01*
X8401700Y15888100D01*
Y15638100D02*
X8350900Y15739700D01*
X8452500D01*
X8401700Y15638100D01*
Y15388100D02*
X8350900Y15489700D01*
X8452500D01*
X8401700Y15388100D01*
Y14888100D02*
X8350900Y14989700D01*
X8452500D01*
X8401700Y14888100D01*
Y13638100D02*
X8350900Y13739700D01*
X8452500D01*
X8401700Y13638100D01*
Y13388100D02*
X8350900Y13489700D01*
X8452500D01*
X8401700Y13388100D01*
Y13138100D02*
X8350900Y13239700D01*
X8452500D01*
X8401700Y13138100D01*
X8151700Y16638100D02*
X8100900Y16739700D01*
X8202500D01*
X8151700Y16638100D01*
Y16388100D02*
X8100900Y16489700D01*
X8202500D01*
X8151700Y16388100D01*
Y16138100D02*
X8100900Y16239700D01*
X8202500D01*
X8151700Y16138100D01*
Y15888100D02*
X8100900Y15989700D01*
X8202500D01*
X8151700Y15888100D01*
Y15638100D02*
X8100900Y15739700D01*
X8202500D01*
X8151700Y15638100D01*
Y15388100D02*
X8100900Y15489700D01*
X8202500D01*
X8151700Y15388100D01*
Y14138100D02*
X8100900Y14239700D01*
X8202500D01*
X8151700Y14138100D01*
Y13388100D02*
X8100900Y13489700D01*
X8202500D01*
X8151700Y13388100D01*
Y13138100D02*
X8100900Y13239700D01*
X8202500D01*
X8151700Y13138100D01*
X7901700Y16638100D02*
X7850900Y16739700D01*
X7952500D01*
X7901700Y16638100D01*
Y16388100D02*
X7850900Y16489700D01*
X7952500D01*
X7901700Y16388100D01*
Y16138100D02*
X7850900Y16239700D01*
X7952500D01*
X7901700Y16138100D01*
Y15888100D02*
X7850900Y15989700D01*
X7952500D01*
X7901700Y15888100D01*
Y15638100D02*
X7850900Y15739700D01*
X7952500D01*
X7901700Y15638100D01*
Y15388100D02*
X7850900Y15489700D01*
X7952500D01*
X7901700Y15388100D01*
Y14888100D02*
X7850900Y14989700D01*
X7952500D01*
X7901700Y14888100D01*
Y14638100D02*
X7850900Y14739700D01*
X7952500D01*
X7901700Y14638100D01*
Y14388100D02*
X7850900Y14489700D01*
X7952500D01*
X7901700Y14388100D01*
Y14138100D02*
X7850900Y14239700D01*
X7952500D01*
X7901700Y14138100D01*
Y13638100D02*
X7850900Y13739700D01*
X7952500D01*
X7901700Y13638100D01*
Y13388100D02*
X7850900Y13489700D01*
X7952500D01*
X7901700Y13388100D01*
Y13138100D02*
X7850900Y13239700D01*
X7952500D01*
X7901700Y13138100D01*
X8826500Y14482700D02*
X8775700Y14584300D01*
X8877300D01*
X8826500Y14482700D01*
X10344709Y13861237D02*
X10293909Y13962836D01*
X10395509D01*
X10344709Y13861237D01*
X10442997Y13959525D02*
X10392197Y14061124D01*
X10493797D01*
X10442997Y13959525D01*
X8128000Y14619800D02*
X8077200Y14721400D01*
X8178800D01*
X8128000Y14619800D01*
X8661400D02*
X8610600Y14721400D01*
X8712200D01*
X8661400Y14619800D01*
X8128000Y14419200D02*
X8077200Y14520799D01*
X8178800D01*
X8128000Y14419200D01*
X8585200D02*
X8534400Y14520799D01*
X8636000D01*
X8585200Y14419200D01*
X14600200Y13883846D02*
Y13985445D01*
X14701801D01*
Y13883846D01*
X14600200D01*
Y14973546D02*
Y15075146D01*
X14701801D01*
Y14973546D01*
X14600200D01*
X19472301Y16638100D02*
X19421500Y16739700D01*
X19523100D01*
X19472301Y16638100D01*
Y15888100D02*
X19421500Y15989700D01*
X19523100D01*
X19472301Y15888100D01*
Y15638100D02*
X19421500Y15739700D01*
X19523100D01*
X19472301Y15638100D01*
Y15388100D02*
X19421500Y15489700D01*
X19523100D01*
X19472301Y15388100D01*
Y15138100D02*
X19421500Y15239700D01*
X19523100D01*
X19472301Y15138100D01*
Y14888100D02*
X19421500Y14989700D01*
X19523100D01*
X19472301Y14888100D01*
Y14638100D02*
X19421500Y14739700D01*
X19523100D01*
X19472301Y14638100D01*
Y14388100D02*
X19421500Y14489700D01*
X19523100D01*
X19472301Y14388100D01*
Y14138100D02*
X19421500Y14239700D01*
X19523100D01*
X19472301Y14138100D01*
Y13888100D02*
X19421500Y13989700D01*
X19523100D01*
X19472301Y13888100D01*
Y13638100D02*
X19421500Y13739700D01*
X19523100D01*
X19472301Y13638100D01*
Y13388100D02*
X19421500Y13489700D01*
X19523100D01*
X19472301Y13388100D01*
Y13138100D02*
X19421500Y13239700D01*
X19523100D01*
X19472301Y13138100D01*
X19222301Y16638100D02*
X19171500Y16739700D01*
X19273100D01*
X19222301Y16638100D01*
Y16388100D02*
X19171500Y16489700D01*
X19273100D01*
X19222301Y16388100D01*
Y16138100D02*
X19171500Y16239700D01*
X19273100D01*
X19222301Y16138100D01*
Y15888100D02*
X19171500Y15989700D01*
X19273100D01*
X19222301Y15888100D01*
Y15638100D02*
X19171500Y15739700D01*
X19273100D01*
X19222301Y15638100D01*
Y15388100D02*
X19171500Y15489700D01*
X19273100D01*
X19222301Y15388100D01*
Y15138100D02*
X19171500Y15239700D01*
X19273100D01*
X19222301Y15138100D01*
Y14888100D02*
X19171500Y14989700D01*
X19273100D01*
X19222301Y14888100D01*
Y14638100D02*
X19171500Y14739700D01*
X19273100D01*
X19222301Y14638100D01*
Y14388100D02*
X19171500Y14489700D01*
X19273100D01*
X19222301Y14388100D01*
Y14138100D02*
X19171500Y14239700D01*
X19273100D01*
X19222301Y14138100D01*
Y13888100D02*
X19171500Y13989700D01*
X19273100D01*
X19222301Y13888100D01*
Y13638100D02*
X19171500Y13739700D01*
X19273100D01*
X19222301Y13638100D01*
Y13138100D02*
X19171500Y13239700D01*
X19273100D01*
X19222301Y13138100D01*
X18972301Y16638100D02*
X18921500Y16739700D01*
X19023100D01*
X18972301Y16638100D01*
Y16388100D02*
X18921500Y16489700D01*
X19023100D01*
X18972301Y16388100D01*
Y16138100D02*
X18921500Y16239700D01*
X19023100D01*
X18972301Y16138100D01*
Y15888100D02*
X18921500Y15989700D01*
X19023100D01*
X18972301Y15888100D01*
Y15138100D02*
X18921500Y15239700D01*
X19023100D01*
X18972301Y15138100D01*
Y14888100D02*
X18921500Y14989700D01*
X19023100D01*
X18972301Y14888100D01*
Y13138100D02*
X18921500Y13239700D01*
X19023100D01*
X18972301Y13138100D01*
X18722301Y16388100D02*
X18671500Y16489700D01*
X18773100D01*
X18722301Y16388100D01*
Y16138100D02*
X18671500Y16239700D01*
X18773100D01*
X18722301Y16138100D01*
Y15888100D02*
X18671500Y15989700D01*
X18773100D01*
X18722301Y15888100D01*
Y15138100D02*
X18671500Y15239700D01*
X18773100D01*
X18722301Y15138100D01*
Y14888100D02*
X18671500Y14989700D01*
X18773100D01*
X18722301Y14888100D01*
Y14138100D02*
X18671500Y14239700D01*
X18773100D01*
X18722301Y14138100D01*
Y13888100D02*
X18671500Y13989700D01*
X18773100D01*
X18722301Y13888100D01*
Y13638100D02*
X18671500Y13739700D01*
X18773100D01*
X18722301Y13638100D01*
Y13138100D02*
X18671500Y13239700D01*
X18773100D01*
X18722301Y13138100D01*
X18472301Y16388100D02*
X18421500Y16489700D01*
X18523100D01*
X18472301Y16388100D01*
Y16138100D02*
X18421500Y16239700D01*
X18523100D01*
X18472301Y16138100D01*
Y15888100D02*
X18421500Y15989700D01*
X18523100D01*
X18472301Y15888100D01*
Y15638100D02*
X18421500Y15739700D01*
X18523100D01*
X18472301Y15638100D01*
Y15388100D02*
X18421500Y15489700D01*
X18523100D01*
X18472301Y15388100D01*
Y15138100D02*
X18421500Y15239700D01*
X18523100D01*
X18472301Y15138100D01*
Y14888100D02*
X18421500Y14989700D01*
X18523100D01*
X18472301Y14888100D01*
Y14638100D02*
X18421500Y14739700D01*
X18523100D01*
X18472301Y14638100D01*
Y14388100D02*
X18421500Y14489700D01*
X18523100D01*
X18472301Y14388100D01*
Y14138100D02*
X18421500Y14239700D01*
X18523100D01*
X18472301Y14138100D01*
Y13888100D02*
X18421500Y13989700D01*
X18523100D01*
X18472301Y13888100D01*
Y13638100D02*
X18421500Y13739700D01*
X18523100D01*
X18472301Y13638100D01*
Y13138100D02*
X18421500Y13239700D01*
X18523100D01*
X18472301Y13138100D01*
X18222301Y15388100D02*
X18171500Y15489700D01*
X18273100D01*
X18222301Y15388100D01*
Y14888100D02*
X18171500Y14989700D01*
X18273100D01*
X18222301Y14888100D01*
Y14388100D02*
X18171500Y14489700D01*
X18273100D01*
X18222301Y14388100D01*
Y14138100D02*
X18171500Y14239700D01*
X18273100D01*
X18222301Y14138100D01*
Y13888100D02*
X18171500Y13989700D01*
X18273100D01*
X18222301Y13888100D01*
Y13638100D02*
X18171500Y13739700D01*
X18273100D01*
X18222301Y13638100D01*
Y13138100D02*
X18171500Y13239700D01*
X18273100D01*
X18222301Y13138100D01*
X17972301Y14138100D02*
X17921500Y14239700D01*
X18023100D01*
X17972301Y14138100D01*
Y13638100D02*
X17921500Y13739700D01*
X18023100D01*
X17972301Y13638100D01*
Y13388100D02*
X17921500Y13489700D01*
X18023100D01*
X17972301Y13388100D01*
Y13138100D02*
X17921500Y13239700D01*
X18023100D01*
X17972301Y13138100D01*
X17722301Y16138100D02*
X17671500Y16239700D01*
X17773100D01*
X17722301Y16138100D01*
Y14388100D02*
X17671500Y14489700D01*
X17773100D01*
X17722301Y14388100D01*
Y14138100D02*
X17671500Y14239700D01*
X17773100D01*
X17722301Y14138100D01*
Y13388100D02*
X17671500Y13489700D01*
X17773100D01*
X17722301Y13388100D01*
Y13138100D02*
X17671500Y13239700D01*
X17773100D01*
X17722301Y13138100D01*
X17472301Y16638100D02*
X17421500Y16739700D01*
X17523100D01*
X17472301Y16638100D01*
Y15138100D02*
X17421500Y15239700D01*
X17523100D01*
X17472301Y15138100D01*
Y14888100D02*
X17421500Y14989700D01*
X17523100D01*
X17472301Y14888100D01*
Y14388100D02*
X17421500Y14489700D01*
X17523100D01*
X17472301Y14388100D01*
Y14138100D02*
X17421500Y14239700D01*
X17523100D01*
X17472301Y14138100D01*
Y13388100D02*
X17421500Y13489700D01*
X17523100D01*
X17472301Y13388100D01*
X17222301Y16638100D02*
X17171500Y16739700D01*
X17273100D01*
X17222301Y16638100D01*
Y16388100D02*
X17171500Y16489700D01*
X17273100D01*
X17222301Y16388100D01*
Y15138100D02*
X17171500Y15239700D01*
X17273100D01*
X17222301Y15138100D01*
Y14888100D02*
X17171500Y14989700D01*
X17273100D01*
X17222301Y14888100D01*
Y14388100D02*
X17171500Y14489700D01*
X17273100D01*
X17222301Y14388100D01*
Y14138100D02*
X17171500Y14239700D01*
X17273100D01*
X17222301Y14138100D01*
Y13638100D02*
X17171500Y13739700D01*
X17273100D01*
X17222301Y13638100D01*
X16972301Y16638100D02*
X16921500Y16739700D01*
X17023100D01*
X16972301Y16638100D01*
Y16388100D02*
X16921500Y16489700D01*
X17023100D01*
X16972301Y16388100D01*
Y15388100D02*
X16921500Y15489700D01*
X17023100D01*
X16972301Y15388100D01*
Y15138100D02*
X16921500Y15239700D01*
X17023100D01*
X16972301Y15138100D01*
Y14888100D02*
X16921500Y14989700D01*
X17023100D01*
X16972301Y14888100D01*
Y14138100D02*
X16921500Y14239700D01*
X17023100D01*
X16972301Y14138100D01*
Y13638100D02*
X16921500Y13739700D01*
X17023100D01*
X16972301Y13638100D01*
X16722301Y16638100D02*
X16671500Y16739700D01*
X16773100D01*
X16722301Y16638100D01*
Y15388100D02*
X16671500Y15489700D01*
X16773100D01*
X16722301Y15388100D01*
Y15138100D02*
X16671500Y15239700D01*
X16773100D01*
X16722301Y15138100D01*
Y14888100D02*
X16671500Y14989700D01*
X16773100D01*
X16722301Y14888100D01*
Y13888100D02*
X16671500Y13989700D01*
X16773100D01*
X16722301Y13888100D01*
Y13638100D02*
X16671500Y13739700D01*
X16773100D01*
X16722301Y13638100D01*
X16472301Y16638100D02*
X16421500Y16739700D01*
X16523100D01*
X16472301Y16638100D01*
Y16388100D02*
X16421500Y16489700D01*
X16523100D01*
X16472301Y16388100D01*
Y15388100D02*
X16421500Y15489700D01*
X16523100D01*
X16472301Y15388100D01*
Y15138100D02*
X16421500Y15239700D01*
X16523100D01*
X16472301Y15138100D01*
Y14888100D02*
X16421500Y14989700D01*
X16523100D01*
X16472301Y14888100D01*
Y14138100D02*
X16421500Y14239700D01*
X16523100D01*
X16472301Y14138100D01*
Y13888100D02*
X16421500Y13989700D01*
X16523100D01*
X16472301Y13888100D01*
Y13638100D02*
X16421500Y13739700D01*
X16523100D01*
X16472301Y13638100D01*
Y13388100D02*
X16421500Y13489700D01*
X16523100D01*
X16472301Y13388100D01*
X16222301Y16638100D02*
X16171500Y16739700D01*
X16273100D01*
X16222301Y16638100D01*
Y16388100D02*
X16171500Y16489700D01*
X16273100D01*
X16222301Y16388100D01*
Y15388100D02*
X16171500Y15489700D01*
X16273100D01*
X16222301Y15388100D01*
Y15138100D02*
X16171500Y15239700D01*
X16273100D01*
X16222301Y15138100D01*
Y14888100D02*
X16171500Y14989700D01*
X16273100D01*
X16222301Y14888100D01*
Y14138100D02*
X16171500Y14239700D01*
X16273100D01*
X16222301Y14138100D01*
Y13888100D02*
X16171500Y13989700D01*
X16273100D01*
X16222301Y13888100D01*
Y13638100D02*
X16171500Y13739700D01*
X16273100D01*
X16222301Y13638100D01*
Y13388100D02*
X16171500Y13489700D01*
X16273100D01*
X16222301Y13388100D01*
Y13138100D02*
X16171500Y13239700D01*
X16273100D01*
X16222301Y13138100D01*
X15972301Y16388100D02*
X15921500Y16489700D01*
X16023100D01*
X15972301Y16388100D01*
Y15638100D02*
X15921500Y15739700D01*
X16023100D01*
X15972301Y15638100D01*
Y15388100D02*
X15921500Y15489700D01*
X16023100D01*
X15972301Y15388100D01*
Y15138100D02*
X15921500Y15239700D01*
X16023100D01*
X15972301Y15138100D01*
Y14638100D02*
X15921500Y14739700D01*
X16023100D01*
X15972301Y14638100D01*
Y14388100D02*
X15921500Y14489700D01*
X16023100D01*
X15972301Y14388100D01*
Y14138100D02*
X15921500Y14239700D01*
X16023100D01*
X15972301Y14138100D01*
Y13888100D02*
X15921500Y13989700D01*
X16023100D01*
X15972301Y13888100D01*
Y13638100D02*
X15921500Y13739700D01*
X16023100D01*
X15972301Y13638100D01*
Y13388100D02*
X15921500Y13489700D01*
X16023100D01*
X15972301Y13388100D01*
Y13138100D02*
X15921500Y13239700D01*
X16023100D01*
X15972301Y13138100D01*
X15722301Y15388100D02*
X15671500Y15489700D01*
X15773100D01*
X15722301Y15388100D01*
Y15138100D02*
X15671500Y15239700D01*
X15773100D01*
X15722301Y15138100D01*
Y14638100D02*
X15671500Y14739700D01*
X15773100D01*
X15722301Y14638100D01*
Y14388100D02*
X15671500Y14489700D01*
X15773100D01*
X15722301Y14388100D01*
Y14138100D02*
X15671500Y14239700D01*
X15773100D01*
X15722301Y14138100D01*
Y13888100D02*
X15671500Y13989700D01*
X15773100D01*
X15722301Y13888100D01*
Y13638100D02*
X15671500Y13739700D01*
X15773100D01*
X15722301Y13638100D01*
Y13388100D02*
X15671500Y13489700D01*
X15773100D01*
X15722301Y13388100D01*
Y13138100D02*
X15671500Y13239700D01*
X15773100D01*
X15722301Y13138100D01*
X15472301Y16388100D02*
X15421500Y16489700D01*
X15523100D01*
X15472301Y16388100D01*
Y16138100D02*
X15421500Y16239700D01*
X15523100D01*
X15472301Y16138100D01*
Y15888100D02*
X15421500Y15989700D01*
X15523100D01*
X15472301Y15888100D01*
Y15638100D02*
X15421500Y15739700D01*
X15523100D01*
X15472301Y15638100D01*
Y15388100D02*
X15421500Y15489700D01*
X15523100D01*
X15472301Y15388100D01*
Y15138100D02*
X15421500Y15239700D01*
X15523100D01*
X15472301Y15138100D01*
Y14888100D02*
X15421500Y14989700D01*
X15523100D01*
X15472301Y14888100D01*
Y14138100D02*
X15421500Y14239700D01*
X15523100D01*
X15472301Y14138100D01*
Y13888100D02*
X15421500Y13989700D01*
X15523100D01*
X15472301Y13888100D01*
Y13638100D02*
X15421500Y13739700D01*
X15523100D01*
X15472301Y13638100D01*
Y13388100D02*
X15421500Y13489700D01*
X15523100D01*
X15472301Y13388100D01*
Y13138100D02*
X15421500Y13239700D01*
X15523100D01*
X15472301Y13138100D01*
X15222301Y16638100D02*
X15171500Y16739700D01*
X15273100D01*
X15222301Y16638100D01*
Y16388100D02*
X15171500Y16489700D01*
X15273100D01*
X15222301Y16388100D01*
Y16138100D02*
X15171500Y16239700D01*
X15273100D01*
X15222301Y16138100D01*
Y15888100D02*
X15171500Y15989700D01*
X15273100D01*
X15222301Y15888100D01*
Y15638100D02*
X15171500Y15739700D01*
X15273100D01*
X15222301Y15638100D01*
Y15388100D02*
X15171500Y15489700D01*
X15273100D01*
X15222301Y15388100D01*
Y15138100D02*
X15171500Y15239700D01*
X15273100D01*
X15222301Y15138100D01*
Y14888100D02*
X15171500Y14989700D01*
X15273100D01*
X15222301Y14888100D01*
Y14138100D02*
X15171500Y14239700D01*
X15273100D01*
X15222301Y14138100D01*
Y13888100D02*
X15171500Y13989700D01*
X15273100D01*
X15222301Y13888100D01*
Y13638100D02*
X15171500Y13739700D01*
X15273100D01*
X15222301Y13638100D01*
Y13388100D02*
X15171500Y13489700D01*
X15273100D01*
X15222301Y13388100D01*
Y13138100D02*
X15171500Y13239700D01*
X15273100D01*
X15222301Y13138100D01*
X14972301Y16638100D02*
X14921500Y16739700D01*
X15023100D01*
X14972301Y16638100D01*
Y16388100D02*
X14921500Y16489700D01*
X15023100D01*
X14972301Y16388100D01*
Y16138100D02*
X14921500Y16239700D01*
X15023100D01*
X14972301Y16138100D01*
Y15888100D02*
X14921500Y15989700D01*
X15023100D01*
X14972301Y15888100D01*
Y15638100D02*
X14921500Y15739700D01*
X15023100D01*
X14972301Y15638100D01*
Y15388100D02*
X14921500Y15489700D01*
X15023100D01*
X14972301Y15388100D01*
Y14888100D02*
X14921500Y14989700D01*
X15023100D01*
X14972301Y14888100D01*
Y13638100D02*
X14921500Y13739700D01*
X15023100D01*
X14972301Y13638100D01*
Y13388100D02*
X14921500Y13489700D01*
X15023100D01*
X14972301Y13388100D01*
Y13138100D02*
X14921500Y13239700D01*
X15023100D01*
X14972301Y13138100D01*
X14722301Y16638100D02*
X14671500Y16739700D01*
X14773100D01*
X14722301Y16638100D01*
Y16388100D02*
X14671500Y16489700D01*
X14773100D01*
X14722301Y16388100D01*
Y16138100D02*
X14671500Y16239700D01*
X14773100D01*
X14722301Y16138100D01*
Y15888100D02*
X14671500Y15989700D01*
X14773100D01*
X14722301Y15888100D01*
Y15638100D02*
X14671500Y15739700D01*
X14773100D01*
X14722301Y15638100D01*
Y15388100D02*
X14671500Y15489700D01*
X14773100D01*
X14722301Y15388100D01*
Y14138100D02*
X14671500Y14239700D01*
X14773100D01*
X14722301Y14138100D01*
Y13388100D02*
X14671500Y13489700D01*
X14773100D01*
X14722301Y13388100D01*
Y13138100D02*
X14671500Y13239700D01*
X14773100D01*
X14722301Y13138100D01*
X14472301Y16638100D02*
X14421500Y16739700D01*
X14523100D01*
X14472301Y16638100D01*
Y16388100D02*
X14421500Y16489700D01*
X14523100D01*
X14472301Y16388100D01*
Y16138100D02*
X14421500Y16239700D01*
X14523100D01*
X14472301Y16138100D01*
Y15888100D02*
X14421500Y15989700D01*
X14523100D01*
X14472301Y15888100D01*
Y15638100D02*
X14421500Y15739700D01*
X14523100D01*
X14472301Y15638100D01*
Y15388100D02*
X14421500Y15489700D01*
X14523100D01*
X14472301Y15388100D01*
Y14888100D02*
X14421500Y14989700D01*
X14523100D01*
X14472301Y14888100D01*
Y14638100D02*
X14421500Y14739700D01*
X14523100D01*
X14472301Y14638100D01*
Y14388100D02*
X14421500Y14489700D01*
X14523100D01*
X14472301Y14388100D01*
Y14138100D02*
X14421500Y14239700D01*
X14523100D01*
X14472301Y14138100D01*
Y13638100D02*
X14421500Y13739700D01*
X14523100D01*
X14472301Y13638100D01*
Y13388100D02*
X14421500Y13489700D01*
X14523100D01*
X14472301Y13388100D01*
Y13138100D02*
X14421500Y13239700D01*
X14523100D01*
X14472301Y13138100D01*
X15397099Y14482700D02*
X15346300Y14584300D01*
X15447900D01*
X15397099Y14482700D01*
X16915309Y13861237D02*
X16864510Y13962836D01*
X16966109D01*
X16915309Y13861237D01*
X17013597Y13959525D02*
X16962798Y14061124D01*
X17064397D01*
X17013597Y13959525D01*
X14698599Y14619800D02*
X14647800Y14721400D01*
X14749400D01*
X14698599Y14619800D01*
X15232001D02*
X15181200Y14721400D01*
X15282800D01*
X15232001Y14619800D01*
X14698599Y14419200D02*
X14647800Y14520799D01*
X14749400D01*
X14698599Y14419200D01*
X15155800D02*
X15105000Y14520799D01*
X15206599D01*
X15155800Y14419200D01*
X8029600Y18384346D02*
Y18485947D01*
X8131200D01*
Y18384346D01*
X8029600D01*
Y19474046D02*
Y19575645D01*
X8131200D01*
Y19474046D01*
X8029600D01*
X12901700Y21138600D02*
X12850900Y21240199D01*
X12952499D01*
X12901700Y21138600D01*
Y20388600D02*
X12850900Y20490199D01*
X12952499D01*
X12901700Y20388600D01*
Y20138600D02*
X12850900Y20240199D01*
X12952499D01*
X12901700Y20138600D01*
Y19888600D02*
X12850900Y19990199D01*
X12952499D01*
X12901700Y19888600D01*
Y19638600D02*
X12850900Y19740199D01*
X12952499D01*
X12901700Y19638600D01*
Y19388600D02*
X12850900Y19490199D01*
X12952499D01*
X12901700Y19388600D01*
Y19138600D02*
X12850900Y19240199D01*
X12952499D01*
X12901700Y19138600D01*
Y18888600D02*
X12850900Y18990199D01*
X12952499D01*
X12901700Y18888600D01*
Y18638600D02*
X12850900Y18740199D01*
X12952499D01*
X12901700Y18638600D01*
Y18388600D02*
X12850900Y18490199D01*
X12952499D01*
X12901700Y18388600D01*
Y18138600D02*
X12850900Y18240199D01*
X12952499D01*
X12901700Y18138600D01*
Y17888600D02*
X12850900Y17990199D01*
X12952499D01*
X12901700Y17888600D01*
Y17638600D02*
X12850900Y17740199D01*
X12952499D01*
X12901700Y17638600D01*
X12651700Y21138600D02*
X12600900Y21240199D01*
X12702500D01*
X12651700Y21138600D01*
Y20888600D02*
X12600900Y20990199D01*
X12702500D01*
X12651700Y20888600D01*
Y20638600D02*
X12600900Y20740199D01*
X12702500D01*
X12651700Y20638600D01*
Y20388600D02*
X12600900Y20490199D01*
X12702500D01*
X12651700Y20388600D01*
Y20138600D02*
X12600900Y20240199D01*
X12702500D01*
X12651700Y20138600D01*
Y19888600D02*
X12600900Y19990199D01*
X12702500D01*
X12651700Y19888600D01*
Y19638600D02*
X12600900Y19740199D01*
X12702500D01*
X12651700Y19638600D01*
Y19388600D02*
X12600900Y19490199D01*
X12702500D01*
X12651700Y19388600D01*
Y19138600D02*
X12600900Y19240199D01*
X12702500D01*
X12651700Y19138600D01*
Y18888600D02*
X12600900Y18990199D01*
X12702500D01*
X12651700Y18888600D01*
Y18638600D02*
X12600900Y18740199D01*
X12702500D01*
X12651700Y18638600D01*
Y18388600D02*
X12600900Y18490199D01*
X12702500D01*
X12651700Y18388600D01*
Y18138600D02*
X12600900Y18240199D01*
X12702500D01*
X12651700Y18138600D01*
Y17638600D02*
X12600900Y17740199D01*
X12702500D01*
X12651700Y17638600D01*
X12401700Y21138600D02*
X12350900Y21240199D01*
X12452500D01*
X12401700Y21138600D01*
Y20888600D02*
X12350900Y20990199D01*
X12452500D01*
X12401700Y20888600D01*
Y20638600D02*
X12350900Y20740199D01*
X12452500D01*
X12401700Y20638600D01*
Y20388600D02*
X12350900Y20490199D01*
X12452500D01*
X12401700Y20388600D01*
Y19638600D02*
X12350900Y19740199D01*
X12452500D01*
X12401700Y19638600D01*
Y19388600D02*
X12350900Y19490199D01*
X12452500D01*
X12401700Y19388600D01*
Y17638600D02*
X12350900Y17740199D01*
X12452500D01*
X12401700Y17638600D01*
X12151700Y20888600D02*
X12100900Y20990199D01*
X12202500D01*
X12151700Y20888600D01*
Y20638600D02*
X12100900Y20740199D01*
X12202500D01*
X12151700Y20638600D01*
Y20388600D02*
X12100900Y20490199D01*
X12202500D01*
X12151700Y20388600D01*
Y19638600D02*
X12100900Y19740199D01*
X12202500D01*
X12151700Y19638600D01*
Y19388600D02*
X12100900Y19490199D01*
X12202500D01*
X12151700Y19388600D01*
Y18638600D02*
X12100900Y18740199D01*
X12202500D01*
X12151700Y18638600D01*
Y18388600D02*
X12100900Y18490199D01*
X12202500D01*
X12151700Y18388600D01*
Y18138600D02*
X12100900Y18240199D01*
X12202500D01*
X12151700Y18138600D01*
Y17638600D02*
X12100900Y17740199D01*
X12202500D01*
X12151700Y17638600D01*
X11901700Y20888600D02*
X11850900Y20990199D01*
X11952500D01*
X11901700Y20888600D01*
Y20638600D02*
X11850900Y20740199D01*
X11952500D01*
X11901700Y20638600D01*
Y20388600D02*
X11850900Y20490199D01*
X11952500D01*
X11901700Y20388600D01*
Y20138600D02*
X11850900Y20240199D01*
X11952500D01*
X11901700Y20138600D01*
Y19888600D02*
X11850900Y19990199D01*
X11952500D01*
X11901700Y19888600D01*
Y19638600D02*
X11850900Y19740199D01*
X11952500D01*
X11901700Y19638600D01*
Y19388600D02*
X11850900Y19490199D01*
X11952500D01*
X11901700Y19388600D01*
Y19138600D02*
X11850900Y19240199D01*
X11952500D01*
X11901700Y19138600D01*
Y18888600D02*
X11850900Y18990199D01*
X11952500D01*
X11901700Y18888600D01*
Y18638600D02*
X11850900Y18740199D01*
X11952500D01*
X11901700Y18638600D01*
Y18388600D02*
X11850900Y18490199D01*
X11952500D01*
X11901700Y18388600D01*
Y18138600D02*
X11850900Y18240199D01*
X11952500D01*
X11901700Y18138600D01*
Y17638600D02*
X11850900Y17740199D01*
X11952500D01*
X11901700Y17638600D01*
X11651700Y19888600D02*
X11600900Y19990199D01*
X11702500D01*
X11651700Y19888600D01*
Y19388600D02*
X11600900Y19490199D01*
X11702500D01*
X11651700Y19388600D01*
Y18888600D02*
X11600900Y18990199D01*
X11702500D01*
X11651700Y18888600D01*
Y18638600D02*
X11600900Y18740199D01*
X11702500D01*
X11651700Y18638600D01*
Y18388600D02*
X11600900Y18490199D01*
X11702500D01*
X11651700Y18388600D01*
Y18138600D02*
X11600900Y18240199D01*
X11702500D01*
X11651700Y18138600D01*
Y17638600D02*
X11600900Y17740199D01*
X11702500D01*
X11651700Y17638600D01*
X11401700Y18638600D02*
X11350900Y18740199D01*
X11452500D01*
X11401700Y18638600D01*
Y18138600D02*
X11350900Y18240199D01*
X11452500D01*
X11401700Y18138600D01*
Y17888600D02*
X11350900Y17990199D01*
X11452500D01*
X11401700Y17888600D01*
Y17638600D02*
X11350900Y17740199D01*
X11452500D01*
X11401700Y17638600D01*
X11151700Y20638600D02*
X11100900Y20740199D01*
X11202500D01*
X11151700Y20638600D01*
Y18888600D02*
X11100900Y18990199D01*
X11202500D01*
X11151700Y18888600D01*
Y18638600D02*
X11100900Y18740199D01*
X11202500D01*
X11151700Y18638600D01*
Y17888600D02*
X11100900Y17990199D01*
X11202500D01*
X11151700Y17888600D01*
Y17638600D02*
X11100900Y17740199D01*
X11202500D01*
X11151700Y17638600D01*
X10901700Y21138600D02*
X10850900Y21240199D01*
X10952500D01*
X10901700Y21138600D01*
Y19638600D02*
X10850900Y19740199D01*
X10952500D01*
X10901700Y19638600D01*
Y19388600D02*
X10850900Y19490199D01*
X10952500D01*
X10901700Y19388600D01*
Y18888600D02*
X10850900Y18990199D01*
X10952500D01*
X10901700Y18888600D01*
Y18638600D02*
X10850900Y18740199D01*
X10952500D01*
X10901700Y18638600D01*
Y17888600D02*
X10850900Y17990199D01*
X10952500D01*
X10901700Y17888600D01*
X10651700Y21138600D02*
X10600900Y21240199D01*
X10702500D01*
X10651700Y21138600D01*
Y20888600D02*
X10600900Y20990199D01*
X10702500D01*
X10651700Y20888600D01*
Y19638600D02*
X10600900Y19740199D01*
X10702500D01*
X10651700Y19638600D01*
Y19388600D02*
X10600900Y19490199D01*
X10702500D01*
X10651700Y19388600D01*
Y18888600D02*
X10600900Y18990199D01*
X10702500D01*
X10651700Y18888600D01*
Y18638600D02*
X10600900Y18740199D01*
X10702500D01*
X10651700Y18638600D01*
Y18138600D02*
X10600900Y18240199D01*
X10702500D01*
X10651700Y18138600D01*
X10401700Y21138600D02*
X10350900Y21240199D01*
X10452500D01*
X10401700Y21138600D01*
Y20888600D02*
X10350900Y20990199D01*
X10452500D01*
X10401700Y20888600D01*
Y19888600D02*
X10350900Y19990199D01*
X10452500D01*
X10401700Y19888600D01*
Y19638600D02*
X10350900Y19740199D01*
X10452500D01*
X10401700Y19638600D01*
Y19388600D02*
X10350900Y19490199D01*
X10452500D01*
X10401700Y19388600D01*
Y18638600D02*
X10350900Y18740199D01*
X10452500D01*
X10401700Y18638600D01*
Y18138600D02*
X10350900Y18240199D01*
X10452500D01*
X10401700Y18138600D01*
X10151700Y21138600D02*
X10100900Y21240199D01*
X10202500D01*
X10151700Y21138600D01*
Y19888600D02*
X10100900Y19990199D01*
X10202500D01*
X10151700Y19888600D01*
Y19638600D02*
X10100900Y19740199D01*
X10202500D01*
X10151700Y19638600D01*
Y19388600D02*
X10100900Y19490199D01*
X10202500D01*
X10151700Y19388600D01*
Y18388600D02*
X10100900Y18490199D01*
X10202500D01*
X10151700Y18388600D01*
Y18138600D02*
X10100900Y18240199D01*
X10202500D01*
X10151700Y18138600D01*
X9901700Y21138600D02*
X9850900Y21240199D01*
X9952500D01*
X9901700Y21138600D01*
Y20888600D02*
X9850900Y20990199D01*
X9952500D01*
X9901700Y20888600D01*
Y19888600D02*
X9850900Y19990199D01*
X9952500D01*
X9901700Y19888600D01*
Y19638600D02*
X9850900Y19740199D01*
X9952500D01*
X9901700Y19638600D01*
Y19388600D02*
X9850900Y19490199D01*
X9952500D01*
X9901700Y19388600D01*
Y18638600D02*
X9850900Y18740199D01*
X9952500D01*
X9901700Y18638600D01*
Y18388600D02*
X9850900Y18490199D01*
X9952500D01*
X9901700Y18388600D01*
Y18138600D02*
X9850900Y18240199D01*
X9952500D01*
X9901700Y18138600D01*
Y17888600D02*
X9850900Y17990199D01*
X9952500D01*
X9901700Y17888600D01*
X9651700Y21138600D02*
X9600900Y21240199D01*
X9702500D01*
X9651700Y21138600D01*
Y20888600D02*
X9600900Y20990199D01*
X9702500D01*
X9651700Y20888600D01*
Y19888600D02*
X9600900Y19990199D01*
X9702500D01*
X9651700Y19888600D01*
Y19638600D02*
X9600900Y19740199D01*
X9702500D01*
X9651700Y19638600D01*
Y19388600D02*
X9600900Y19490199D01*
X9702500D01*
X9651700Y19388600D01*
Y18638600D02*
X9600900Y18740199D01*
X9702500D01*
X9651700Y18638600D01*
Y18388600D02*
X9600900Y18490199D01*
X9702500D01*
X9651700Y18388600D01*
Y18138600D02*
X9600900Y18240199D01*
X9702500D01*
X9651700Y18138600D01*
Y17888600D02*
X9600900Y17990199D01*
X9702500D01*
X9651700Y17888600D01*
Y17638600D02*
X9600900Y17740199D01*
X9702500D01*
X9651700Y17638600D01*
X9401700Y20888600D02*
X9350900Y20990199D01*
X9452500D01*
X9401700Y20888600D01*
Y20138600D02*
X9350900Y20240199D01*
X9452500D01*
X9401700Y20138600D01*
Y19888600D02*
X9350900Y19990199D01*
X9452500D01*
X9401700Y19888600D01*
Y19638600D02*
X9350900Y19740199D01*
X9452500D01*
X9401700Y19638600D01*
Y19138600D02*
X9350900Y19240199D01*
X9452500D01*
X9401700Y19138600D01*
Y18888600D02*
X9350900Y18990199D01*
X9452500D01*
X9401700Y18888600D01*
Y18638600D02*
X9350900Y18740199D01*
X9452500D01*
X9401700Y18638600D01*
Y18388600D02*
X9350900Y18490199D01*
X9452500D01*
X9401700Y18388600D01*
Y18138600D02*
X9350900Y18240199D01*
X9452500D01*
X9401700Y18138600D01*
Y17888600D02*
X9350900Y17990199D01*
X9452500D01*
X9401700Y17888600D01*
Y17638600D02*
X9350900Y17740199D01*
X9452500D01*
X9401700Y17638600D01*
X9151700Y19888600D02*
X9100900Y19990199D01*
X9202500D01*
X9151700Y19888600D01*
Y19638600D02*
X9100900Y19740199D01*
X9202500D01*
X9151700Y19638600D01*
Y19138600D02*
X9100900Y19240199D01*
X9202500D01*
X9151700Y19138600D01*
Y18888600D02*
X9100900Y18990199D01*
X9202500D01*
X9151700Y18888600D01*
Y18638600D02*
X9100900Y18740199D01*
X9202500D01*
X9151700Y18638600D01*
Y18388600D02*
X9100900Y18490199D01*
X9202500D01*
X9151700Y18388600D01*
Y18138600D02*
X9100900Y18240199D01*
X9202500D01*
X9151700Y18138600D01*
Y17888600D02*
X9100900Y17990199D01*
X9202500D01*
X9151700Y17888600D01*
Y17638600D02*
X9100900Y17740199D01*
X9202500D01*
X9151700Y17638600D01*
X8901700Y20888600D02*
X8850900Y20990199D01*
X8952500D01*
X8901700Y20888600D01*
Y20638600D02*
X8850900Y20740199D01*
X8952500D01*
X8901700Y20638600D01*
Y20388600D02*
X8850900Y20490199D01*
X8952500D01*
X8901700Y20388600D01*
Y20138600D02*
X8850900Y20240199D01*
X8952500D01*
X8901700Y20138600D01*
Y19888600D02*
X8850900Y19990199D01*
X8952500D01*
X8901700Y19888600D01*
Y19638600D02*
X8850900Y19740199D01*
X8952500D01*
X8901700Y19638600D01*
Y19388600D02*
X8850900Y19490199D01*
X8952500D01*
X8901700Y19388600D01*
Y18638600D02*
X8850900Y18740199D01*
X8952500D01*
X8901700Y18638600D01*
Y18388600D02*
X8850900Y18490199D01*
X8952500D01*
X8901700Y18388600D01*
Y18138600D02*
X8850900Y18240199D01*
X8952500D01*
X8901700Y18138600D01*
Y17888600D02*
X8850900Y17990199D01*
X8952500D01*
X8901700Y17888600D01*
Y17638600D02*
X8850900Y17740199D01*
X8952500D01*
X8901700Y17638600D01*
X8651700Y21138600D02*
X8600900Y21240199D01*
X8702500D01*
X8651700Y21138600D01*
Y20888600D02*
X8600900Y20990199D01*
X8702500D01*
X8651700Y20888600D01*
Y20638600D02*
X8600900Y20740199D01*
X8702500D01*
X8651700Y20638600D01*
Y20388600D02*
X8600900Y20490199D01*
X8702500D01*
X8651700Y20388600D01*
Y20138600D02*
X8600900Y20240199D01*
X8702500D01*
X8651700Y20138600D01*
Y19888600D02*
X8600900Y19990199D01*
X8702500D01*
X8651700Y19888600D01*
Y19638600D02*
X8600900Y19740199D01*
X8702500D01*
X8651700Y19638600D01*
Y19388600D02*
X8600900Y19490199D01*
X8702500D01*
X8651700Y19388600D01*
Y18638600D02*
X8600900Y18740199D01*
X8702500D01*
X8651700Y18638600D01*
Y18388600D02*
X8600900Y18490199D01*
X8702500D01*
X8651700Y18388600D01*
Y18138600D02*
X8600900Y18240199D01*
X8702500D01*
X8651700Y18138600D01*
Y17888600D02*
X8600900Y17990199D01*
X8702500D01*
X8651700Y17888600D01*
Y17638600D02*
X8600900Y17740199D01*
X8702500D01*
X8651700Y17638600D01*
X8401700Y21138600D02*
X8350900Y21240199D01*
X8452500D01*
X8401700Y21138600D01*
Y20888600D02*
X8350900Y20990199D01*
X8452500D01*
X8401700Y20888600D01*
Y20638600D02*
X8350900Y20740199D01*
X8452500D01*
X8401700Y20638600D01*
Y20388600D02*
X8350900Y20490199D01*
X8452500D01*
X8401700Y20388600D01*
Y20138600D02*
X8350900Y20240199D01*
X8452500D01*
X8401700Y20138600D01*
Y19888600D02*
X8350900Y19990199D01*
X8452500D01*
X8401700Y19888600D01*
Y19388600D02*
X8350900Y19490199D01*
X8452500D01*
X8401700Y19388600D01*
Y18138600D02*
X8350900Y18240199D01*
X8452500D01*
X8401700Y18138600D01*
Y17888600D02*
X8350900Y17990199D01*
X8452500D01*
X8401700Y17888600D01*
Y17638600D02*
X8350900Y17740199D01*
X8452500D01*
X8401700Y17638600D01*
X8151700Y21138600D02*
X8100900Y21240199D01*
X8202500D01*
X8151700Y21138600D01*
Y20888600D02*
X8100900Y20990199D01*
X8202500D01*
X8151700Y20888600D01*
Y20638600D02*
X8100900Y20740199D01*
X8202500D01*
X8151700Y20638600D01*
Y20388600D02*
X8100900Y20490199D01*
X8202500D01*
X8151700Y20388600D01*
Y20138600D02*
X8100900Y20240199D01*
X8202500D01*
X8151700Y20138600D01*
Y19888600D02*
X8100900Y19990199D01*
X8202500D01*
X8151700Y19888600D01*
Y18638600D02*
X8100900Y18740199D01*
X8202500D01*
X8151700Y18638600D01*
Y17888600D02*
X8100900Y17990199D01*
X8202500D01*
X8151700Y17888600D01*
Y17638600D02*
X8100900Y17740199D01*
X8202500D01*
X8151700Y17638600D01*
X7901700Y21138600D02*
X7850900Y21240199D01*
X7952500D01*
X7901700Y21138600D01*
Y20888600D02*
X7850900Y20990199D01*
X7952500D01*
X7901700Y20888600D01*
Y20638600D02*
X7850900Y20740199D01*
X7952500D01*
X7901700Y20638600D01*
Y20388600D02*
X7850900Y20490199D01*
X7952500D01*
X7901700Y20388600D01*
Y20138600D02*
X7850900Y20240199D01*
X7952500D01*
X7901700Y20138600D01*
Y19888600D02*
X7850900Y19990199D01*
X7952500D01*
X7901700Y19888600D01*
Y19388600D02*
X7850900Y19490199D01*
X7952500D01*
X7901700Y19388600D01*
Y19138600D02*
X7850900Y19240199D01*
X7952500D01*
X7901700Y19138600D01*
Y18888600D02*
X7850900Y18990199D01*
X7952500D01*
X7901700Y18888600D01*
Y18638600D02*
X7850900Y18740199D01*
X7952500D01*
X7901700Y18638600D01*
Y18138600D02*
X7850900Y18240199D01*
X7952500D01*
X7901700Y18138600D01*
Y17888600D02*
X7850900Y17990199D01*
X7952500D01*
X7901700Y17888600D01*
Y17638600D02*
X7850900Y17740199D01*
X7952500D01*
X7901700Y17638600D01*
X8826500Y18983200D02*
X8775700Y19084801D01*
X8877300D01*
X8826500Y18983200D01*
X10344709Y18361736D02*
X10293909Y18463336D01*
X10395509D01*
X10344709Y18361736D01*
X10442997Y18460023D02*
X10392197Y18561624D01*
X10493797D01*
X10442997Y18460023D01*
X8128000Y19120300D02*
X8077200Y19221899D01*
X8178800D01*
X8128000Y19120300D01*
X8661400D02*
X8610600Y19221899D01*
X8712200D01*
X8661400Y19120300D01*
X8128000Y18919701D02*
X8077200Y19021300D01*
X8178800D01*
X8128000Y18919701D01*
X8585200D02*
X8534400Y19021300D01*
X8636000D01*
X8585200Y18919701D01*
X14600200Y18384346D02*
Y18485947D01*
X14701801D01*
Y18384346D01*
X14600200D01*
Y19474046D02*
Y19575645D01*
X14701801D01*
Y19474046D01*
X14600200D01*
X19472301Y21138600D02*
X19421500Y21240199D01*
X19523100D01*
X19472301Y21138600D01*
Y20388600D02*
X19421500Y20490199D01*
X19523100D01*
X19472301Y20388600D01*
Y20138600D02*
X19421500Y20240199D01*
X19523100D01*
X19472301Y20138600D01*
Y19888600D02*
X19421500Y19990199D01*
X19523100D01*
X19472301Y19888600D01*
Y19638600D02*
X19421500Y19740199D01*
X19523100D01*
X19472301Y19638600D01*
Y19388600D02*
X19421500Y19490199D01*
X19523100D01*
X19472301Y19388600D01*
Y19138600D02*
X19421500Y19240199D01*
X19523100D01*
X19472301Y19138600D01*
Y18888600D02*
X19421500Y18990199D01*
X19523100D01*
X19472301Y18888600D01*
Y18638600D02*
X19421500Y18740199D01*
X19523100D01*
X19472301Y18638600D01*
Y18388600D02*
X19421500Y18490199D01*
X19523100D01*
X19472301Y18388600D01*
Y18138600D02*
X19421500Y18240199D01*
X19523100D01*
X19472301Y18138600D01*
Y17888600D02*
X19421500Y17990199D01*
X19523100D01*
X19472301Y17888600D01*
Y17638600D02*
X19421500Y17740199D01*
X19523100D01*
X19472301Y17638600D01*
X19222301Y21138600D02*
X19171500Y21240199D01*
X19273100D01*
X19222301Y21138600D01*
Y20888600D02*
X19171500Y20990199D01*
X19273100D01*
X19222301Y20888600D01*
Y20638600D02*
X19171500Y20740199D01*
X19273100D01*
X19222301Y20638600D01*
Y20388600D02*
X19171500Y20490199D01*
X19273100D01*
X19222301Y20388600D01*
Y20138600D02*
X19171500Y20240199D01*
X19273100D01*
X19222301Y20138600D01*
Y19888600D02*
X19171500Y19990199D01*
X19273100D01*
X19222301Y19888600D01*
Y19638600D02*
X19171500Y19740199D01*
X19273100D01*
X19222301Y19638600D01*
Y19388600D02*
X19171500Y19490199D01*
X19273100D01*
X19222301Y19388600D01*
Y19138600D02*
X19171500Y19240199D01*
X19273100D01*
X19222301Y19138600D01*
Y18888600D02*
X19171500Y18990199D01*
X19273100D01*
X19222301Y18888600D01*
Y18638600D02*
X19171500Y18740199D01*
X19273100D01*
X19222301Y18638600D01*
Y18388600D02*
X19171500Y18490199D01*
X19273100D01*
X19222301Y18388600D01*
Y18138600D02*
X19171500Y18240199D01*
X19273100D01*
X19222301Y18138600D01*
Y17638600D02*
X19171500Y17740199D01*
X19273100D01*
X19222301Y17638600D01*
X18972301Y21138600D02*
X18921500Y21240199D01*
X19023100D01*
X18972301Y21138600D01*
Y20888600D02*
X18921500Y20990199D01*
X19023100D01*
X18972301Y20888600D01*
Y20638600D02*
X18921500Y20740199D01*
X19023100D01*
X18972301Y20638600D01*
Y20388600D02*
X18921500Y20490199D01*
X19023100D01*
X18972301Y20388600D01*
Y19638600D02*
X18921500Y19740199D01*
X19023100D01*
X18972301Y19638600D01*
Y19388600D02*
X18921500Y19490199D01*
X19023100D01*
X18972301Y19388600D01*
Y17638600D02*
X18921500Y17740199D01*
X19023100D01*
X18972301Y17638600D01*
X18722301Y20888600D02*
X18671500Y20990199D01*
X18773100D01*
X18722301Y20888600D01*
Y20638600D02*
X18671500Y20740199D01*
X18773100D01*
X18722301Y20638600D01*
Y20388600D02*
X18671500Y20490199D01*
X18773100D01*
X18722301Y20388600D01*
Y19638600D02*
X18671500Y19740199D01*
X18773100D01*
X18722301Y19638600D01*
Y19388600D02*
X18671500Y19490199D01*
X18773100D01*
X18722301Y19388600D01*
Y18638600D02*
X18671500Y18740199D01*
X18773100D01*
X18722301Y18638600D01*
Y18388600D02*
X18671500Y18490199D01*
X18773100D01*
X18722301Y18388600D01*
Y18138600D02*
X18671500Y18240199D01*
X18773100D01*
X18722301Y18138600D01*
Y17638600D02*
X18671500Y17740199D01*
X18773100D01*
X18722301Y17638600D01*
X18472301Y20888600D02*
X18421500Y20990199D01*
X18523100D01*
X18472301Y20888600D01*
Y20638600D02*
X18421500Y20740199D01*
X18523100D01*
X18472301Y20638600D01*
Y20388600D02*
X18421500Y20490199D01*
X18523100D01*
X18472301Y20388600D01*
Y20138600D02*
X18421500Y20240199D01*
X18523100D01*
X18472301Y20138600D01*
Y19888600D02*
X18421500Y19990199D01*
X18523100D01*
X18472301Y19888600D01*
Y19638600D02*
X18421500Y19740199D01*
X18523100D01*
X18472301Y19638600D01*
Y19388600D02*
X18421500Y19490199D01*
X18523100D01*
X18472301Y19388600D01*
Y19138600D02*
X18421500Y19240199D01*
X18523100D01*
X18472301Y19138600D01*
Y18888600D02*
X18421500Y18990199D01*
X18523100D01*
X18472301Y18888600D01*
Y18638600D02*
X18421500Y18740199D01*
X18523100D01*
X18472301Y18638600D01*
Y18388600D02*
X18421500Y18490199D01*
X18523100D01*
X18472301Y18388600D01*
Y18138600D02*
X18421500Y18240199D01*
X18523100D01*
X18472301Y18138600D01*
Y17638600D02*
X18421500Y17740199D01*
X18523100D01*
X18472301Y17638600D01*
X18222301Y19888600D02*
X18171500Y19990199D01*
X18273100D01*
X18222301Y19888600D01*
Y19388600D02*
X18171500Y19490199D01*
X18273100D01*
X18222301Y19388600D01*
Y18888600D02*
X18171500Y18990199D01*
X18273100D01*
X18222301Y18888600D01*
Y18638600D02*
X18171500Y18740199D01*
X18273100D01*
X18222301Y18638600D01*
Y18388600D02*
X18171500Y18490199D01*
X18273100D01*
X18222301Y18388600D01*
Y18138600D02*
X18171500Y18240199D01*
X18273100D01*
X18222301Y18138600D01*
Y17638600D02*
X18171500Y17740199D01*
X18273100D01*
X18222301Y17638600D01*
X17972301Y18638600D02*
X17921500Y18740199D01*
X18023100D01*
X17972301Y18638600D01*
Y18138600D02*
X17921500Y18240199D01*
X18023100D01*
X17972301Y18138600D01*
Y17888600D02*
X17921500Y17990199D01*
X18023100D01*
X17972301Y17888600D01*
Y17638600D02*
X17921500Y17740199D01*
X18023100D01*
X17972301Y17638600D01*
X17722301Y20638600D02*
X17671500Y20740199D01*
X17773100D01*
X17722301Y20638600D01*
Y18888600D02*
X17671500Y18990199D01*
X17773100D01*
X17722301Y18888600D01*
Y18638600D02*
X17671500Y18740199D01*
X17773100D01*
X17722301Y18638600D01*
Y17888600D02*
X17671500Y17990199D01*
X17773100D01*
X17722301Y17888600D01*
Y17638600D02*
X17671500Y17740199D01*
X17773100D01*
X17722301Y17638600D01*
X17472301Y21138600D02*
X17421500Y21240199D01*
X17523100D01*
X17472301Y21138600D01*
Y19638600D02*
X17421500Y19740199D01*
X17523100D01*
X17472301Y19638600D01*
Y19388600D02*
X17421500Y19490199D01*
X17523100D01*
X17472301Y19388600D01*
Y18888600D02*
X17421500Y18990199D01*
X17523100D01*
X17472301Y18888600D01*
Y18638600D02*
X17421500Y18740199D01*
X17523100D01*
X17472301Y18638600D01*
Y17888600D02*
X17421500Y17990199D01*
X17523100D01*
X17472301Y17888600D01*
X17222301Y21138600D02*
X17171500Y21240199D01*
X17273100D01*
X17222301Y21138600D01*
Y20888600D02*
X17171500Y20990199D01*
X17273100D01*
X17222301Y20888600D01*
Y19638600D02*
X17171500Y19740199D01*
X17273100D01*
X17222301Y19638600D01*
Y19388600D02*
X17171500Y19490199D01*
X17273100D01*
X17222301Y19388600D01*
Y18888600D02*
X17171500Y18990199D01*
X17273100D01*
X17222301Y18888600D01*
Y18638600D02*
X17171500Y18740199D01*
X17273100D01*
X17222301Y18638600D01*
Y18138600D02*
X17171500Y18240199D01*
X17273100D01*
X17222301Y18138600D01*
X16972301Y21138600D02*
X16921500Y21240199D01*
X17023100D01*
X16972301Y21138600D01*
Y20888600D02*
X16921500Y20990199D01*
X17023100D01*
X16972301Y20888600D01*
Y19888600D02*
X16921500Y19990199D01*
X17023100D01*
X16972301Y19888600D01*
Y19638600D02*
X16921500Y19740199D01*
X17023100D01*
X16972301Y19638600D01*
Y19388600D02*
X16921500Y19490199D01*
X17023100D01*
X16972301Y19388600D01*
Y18638600D02*
X16921500Y18740199D01*
X17023100D01*
X16972301Y18638600D01*
Y18138600D02*
X16921500Y18240199D01*
X17023100D01*
X16972301Y18138600D01*
X16722301Y21138600D02*
X16671500Y21240199D01*
X16773100D01*
X16722301Y21138600D01*
Y19888600D02*
X16671500Y19990199D01*
X16773100D01*
X16722301Y19888600D01*
Y19638600D02*
X16671500Y19740199D01*
X16773100D01*
X16722301Y19638600D01*
Y19388600D02*
X16671500Y19490199D01*
X16773100D01*
X16722301Y19388600D01*
Y18388600D02*
X16671500Y18490199D01*
X16773100D01*
X16722301Y18388600D01*
Y18138600D02*
X16671500Y18240199D01*
X16773100D01*
X16722301Y18138600D01*
X16472301Y21138600D02*
X16421500Y21240199D01*
X16523100D01*
X16472301Y21138600D01*
Y20888600D02*
X16421500Y20990199D01*
X16523100D01*
X16472301Y20888600D01*
Y19888600D02*
X16421500Y19990199D01*
X16523100D01*
X16472301Y19888600D01*
Y19638600D02*
X16421500Y19740199D01*
X16523100D01*
X16472301Y19638600D01*
Y19388600D02*
X16421500Y19490199D01*
X16523100D01*
X16472301Y19388600D01*
Y18638600D02*
X16421500Y18740199D01*
X16523100D01*
X16472301Y18638600D01*
Y18388600D02*
X16421500Y18490199D01*
X16523100D01*
X16472301Y18388600D01*
Y18138600D02*
X16421500Y18240199D01*
X16523100D01*
X16472301Y18138600D01*
Y17888600D02*
X16421500Y17990199D01*
X16523100D01*
X16472301Y17888600D01*
X16222301Y21138600D02*
X16171500Y21240199D01*
X16273100D01*
X16222301Y21138600D01*
Y20888600D02*
X16171500Y20990199D01*
X16273100D01*
X16222301Y20888600D01*
Y19888600D02*
X16171500Y19990199D01*
X16273100D01*
X16222301Y19888600D01*
Y19638600D02*
X16171500Y19740199D01*
X16273100D01*
X16222301Y19638600D01*
Y19388600D02*
X16171500Y19490199D01*
X16273100D01*
X16222301Y19388600D01*
Y18638600D02*
X16171500Y18740199D01*
X16273100D01*
X16222301Y18638600D01*
Y18388600D02*
X16171500Y18490199D01*
X16273100D01*
X16222301Y18388600D01*
Y18138600D02*
X16171500Y18240199D01*
X16273100D01*
X16222301Y18138600D01*
Y17888600D02*
X16171500Y17990199D01*
X16273100D01*
X16222301Y17888600D01*
Y17638600D02*
X16171500Y17740199D01*
X16273100D01*
X16222301Y17638600D01*
X15972301Y20888600D02*
X15921500Y20990199D01*
X16023100D01*
X15972301Y20888600D01*
Y20138600D02*
X15921500Y20240199D01*
X16023100D01*
X15972301Y20138600D01*
Y19888600D02*
X15921500Y19990199D01*
X16023100D01*
X15972301Y19888600D01*
Y19638600D02*
X15921500Y19740199D01*
X16023100D01*
X15972301Y19638600D01*
Y19138600D02*
X15921500Y19240199D01*
X16023100D01*
X15972301Y19138600D01*
Y18888600D02*
X15921500Y18990199D01*
X16023100D01*
X15972301Y18888600D01*
Y18638600D02*
X15921500Y18740199D01*
X16023100D01*
X15972301Y18638600D01*
Y18388600D02*
X15921500Y18490199D01*
X16023100D01*
X15972301Y18388600D01*
Y18138600D02*
X15921500Y18240199D01*
X16023100D01*
X15972301Y18138600D01*
Y17888600D02*
X15921500Y17990199D01*
X16023100D01*
X15972301Y17888600D01*
Y17638600D02*
X15921500Y17740199D01*
X16023100D01*
X15972301Y17638600D01*
X15722301Y19888600D02*
X15671500Y19990199D01*
X15773100D01*
X15722301Y19888600D01*
Y19638600D02*
X15671500Y19740199D01*
X15773100D01*
X15722301Y19638600D01*
Y19138600D02*
X15671500Y19240199D01*
X15773100D01*
X15722301Y19138600D01*
Y18888600D02*
X15671500Y18990199D01*
X15773100D01*
X15722301Y18888600D01*
Y18638600D02*
X15671500Y18740199D01*
X15773100D01*
X15722301Y18638600D01*
Y18388600D02*
X15671500Y18490199D01*
X15773100D01*
X15722301Y18388600D01*
Y18138600D02*
X15671500Y18240199D01*
X15773100D01*
X15722301Y18138600D01*
Y17888600D02*
X15671500Y17990199D01*
X15773100D01*
X15722301Y17888600D01*
Y17638600D02*
X15671500Y17740199D01*
X15773100D01*
X15722301Y17638600D01*
X15472301Y20888600D02*
X15421500Y20990199D01*
X15523100D01*
X15472301Y20888600D01*
Y20638600D02*
X15421500Y20740199D01*
X15523100D01*
X15472301Y20638600D01*
Y20388600D02*
X15421500Y20490199D01*
X15523100D01*
X15472301Y20388600D01*
Y20138600D02*
X15421500Y20240199D01*
X15523100D01*
X15472301Y20138600D01*
Y19888600D02*
X15421500Y19990199D01*
X15523100D01*
X15472301Y19888600D01*
Y19638600D02*
X15421500Y19740199D01*
X15523100D01*
X15472301Y19638600D01*
Y19388600D02*
X15421500Y19490199D01*
X15523100D01*
X15472301Y19388600D01*
Y18638600D02*
X15421500Y18740199D01*
X15523100D01*
X15472301Y18638600D01*
Y18388600D02*
X15421500Y18490199D01*
X15523100D01*
X15472301Y18388600D01*
Y18138600D02*
X15421500Y18240199D01*
X15523100D01*
X15472301Y18138600D01*
Y17888600D02*
X15421500Y17990199D01*
X15523100D01*
X15472301Y17888600D01*
Y17638600D02*
X15421500Y17740199D01*
X15523100D01*
X15472301Y17638600D01*
X15222301Y21138600D02*
X15171500Y21240199D01*
X15273100D01*
X15222301Y21138600D01*
Y20888600D02*
X15171500Y20990199D01*
X15273100D01*
X15222301Y20888600D01*
Y20638600D02*
X15171500Y20740199D01*
X15273100D01*
X15222301Y20638600D01*
Y20388600D02*
X15171500Y20490199D01*
X15273100D01*
X15222301Y20388600D01*
Y20138600D02*
X15171500Y20240199D01*
X15273100D01*
X15222301Y20138600D01*
Y19888600D02*
X15171500Y19990199D01*
X15273100D01*
X15222301Y19888600D01*
Y19638600D02*
X15171500Y19740199D01*
X15273100D01*
X15222301Y19638600D01*
Y19388600D02*
X15171500Y19490199D01*
X15273100D01*
X15222301Y19388600D01*
Y18638600D02*
X15171500Y18740199D01*
X15273100D01*
X15222301Y18638600D01*
Y18388600D02*
X15171500Y18490199D01*
X15273100D01*
X15222301Y18388600D01*
Y18138600D02*
X15171500Y18240199D01*
X15273100D01*
X15222301Y18138600D01*
Y17888600D02*
X15171500Y17990199D01*
X15273100D01*
X15222301Y17888600D01*
Y17638600D02*
X15171500Y17740199D01*
X15273100D01*
X15222301Y17638600D01*
X14972301Y21138600D02*
X14921500Y21240199D01*
X15023100D01*
X14972301Y21138600D01*
Y20888600D02*
X14921500Y20990199D01*
X15023100D01*
X14972301Y20888600D01*
Y20638600D02*
X14921500Y20740199D01*
X15023100D01*
X14972301Y20638600D01*
Y20388600D02*
X14921500Y20490199D01*
X15023100D01*
X14972301Y20388600D01*
Y20138600D02*
X14921500Y20240199D01*
X15023100D01*
X14972301Y20138600D01*
Y19888600D02*
X14921500Y19990199D01*
X15023100D01*
X14972301Y19888600D01*
Y19388600D02*
X14921500Y19490199D01*
X15023100D01*
X14972301Y19388600D01*
Y18138600D02*
X14921500Y18240199D01*
X15023100D01*
X14972301Y18138600D01*
Y17888600D02*
X14921500Y17990199D01*
X15023100D01*
X14972301Y17888600D01*
Y17638600D02*
X14921500Y17740199D01*
X15023100D01*
X14972301Y17638600D01*
X14722301Y21138600D02*
X14671500Y21240199D01*
X14773100D01*
X14722301Y21138600D01*
Y20888600D02*
X14671500Y20990199D01*
X14773100D01*
X14722301Y20888600D01*
Y20638600D02*
X14671500Y20740199D01*
X14773100D01*
X14722301Y20638600D01*
Y20388600D02*
X14671500Y20490199D01*
X14773100D01*
X14722301Y20388600D01*
Y20138600D02*
X14671500Y20240199D01*
X14773100D01*
X14722301Y20138600D01*
Y19888600D02*
X14671500Y19990199D01*
X14773100D01*
X14722301Y19888600D01*
Y18638600D02*
X14671500Y18740199D01*
X14773100D01*
X14722301Y18638600D01*
Y17888600D02*
X14671500Y17990199D01*
X14773100D01*
X14722301Y17888600D01*
Y17638600D02*
X14671500Y17740199D01*
X14773100D01*
X14722301Y17638600D01*
X14472301Y21138600D02*
X14421500Y21240199D01*
X14523100D01*
X14472301Y21138600D01*
Y20888600D02*
X14421500Y20990199D01*
X14523100D01*
X14472301Y20888600D01*
Y20638600D02*
X14421500Y20740199D01*
X14523100D01*
X14472301Y20638600D01*
Y20388600D02*
X14421500Y20490199D01*
X14523100D01*
X14472301Y20388600D01*
Y20138600D02*
X14421500Y20240199D01*
X14523100D01*
X14472301Y20138600D01*
Y19888600D02*
X14421500Y19990199D01*
X14523100D01*
X14472301Y19888600D01*
Y19388600D02*
X14421500Y19490199D01*
X14523100D01*
X14472301Y19388600D01*
Y19138600D02*
X14421500Y19240199D01*
X14523100D01*
X14472301Y19138600D01*
Y18888600D02*
X14421500Y18990199D01*
X14523100D01*
X14472301Y18888600D01*
Y18638600D02*
X14421500Y18740199D01*
X14523100D01*
X14472301Y18638600D01*
Y18138600D02*
X14421500Y18240199D01*
X14523100D01*
X14472301Y18138600D01*
Y17888600D02*
X14421500Y17990199D01*
X14523100D01*
X14472301Y17888600D01*
Y17638600D02*
X14421500Y17740199D01*
X14523100D01*
X14472301Y17638600D01*
X15397099Y18983200D02*
X15346300Y19084801D01*
X15447900D01*
X15397099Y18983200D01*
X16915309Y18361736D02*
X16864510Y18463336D01*
X16966109D01*
X16915309Y18361736D01*
X17013597Y18460023D02*
X16962798Y18561624D01*
X17064397D01*
X17013597Y18460023D01*
X14698599Y19120300D02*
X14647800Y19221899D01*
X14749400D01*
X14698599Y19120300D01*
X15232001D02*
X15181200Y19221899D01*
X15282800D01*
X15232001Y19120300D01*
X14698599Y18919701D02*
X14647800Y19021300D01*
X14749400D01*
X14698599Y18919701D01*
X15155800D02*
X15105000Y19021300D01*
X15206599D01*
X15155800Y18919701D01*
X8029600Y22884846D02*
Y22986446D01*
X8131200D01*
Y22884846D01*
X8029600D01*
Y23974545D02*
Y24076146D01*
X8131200D01*
Y23974545D01*
X8029600D01*
X12901700Y25639099D02*
X12850900Y25740701D01*
X12952499D01*
X12901700Y25639099D01*
Y24889101D02*
X12850900Y24990700D01*
X12952499D01*
X12901700Y24889101D01*
Y24639101D02*
X12850900Y24740700D01*
X12952499D01*
X12901700Y24639101D01*
Y24389101D02*
X12850900Y24490700D01*
X12952499D01*
X12901700Y24389101D01*
Y24139101D02*
X12850900Y24240700D01*
X12952499D01*
X12901700Y24139101D01*
Y23889101D02*
X12850900Y23990700D01*
X12952499D01*
X12901700Y23889101D01*
Y23639101D02*
X12850900Y23740700D01*
X12952499D01*
X12901700Y23639101D01*
Y23389101D02*
X12850900Y23490700D01*
X12952499D01*
X12901700Y23389101D01*
Y23139101D02*
X12850900Y23240700D01*
X12952499D01*
X12901700Y23139101D01*
Y22889101D02*
X12850900Y22990700D01*
X12952499D01*
X12901700Y22889101D01*
Y22639101D02*
X12850900Y22740700D01*
X12952499D01*
X12901700Y22639101D01*
Y22389101D02*
X12850900Y22490700D01*
X12952499D01*
X12901700Y22389101D01*
Y22139101D02*
X12850900Y22240700D01*
X12952499D01*
X12901700Y22139101D01*
X12651700Y25639099D02*
X12600900Y25740701D01*
X12702500D01*
X12651700Y25639099D01*
Y25389101D02*
X12600900Y25490700D01*
X12702500D01*
X12651700Y25389101D01*
Y25139101D02*
X12600900Y25240700D01*
X12702500D01*
X12651700Y25139101D01*
Y24889101D02*
X12600900Y24990700D01*
X12702500D01*
X12651700Y24889101D01*
Y24639101D02*
X12600900Y24740700D01*
X12702500D01*
X12651700Y24639101D01*
Y24389101D02*
X12600900Y24490700D01*
X12702500D01*
X12651700Y24389101D01*
Y24139101D02*
X12600900Y24240700D01*
X12702500D01*
X12651700Y24139101D01*
Y23889101D02*
X12600900Y23990700D01*
X12702500D01*
X12651700Y23889101D01*
Y23639101D02*
X12600900Y23740700D01*
X12702500D01*
X12651700Y23639101D01*
Y23389101D02*
X12600900Y23490700D01*
X12702500D01*
X12651700Y23389101D01*
Y23139101D02*
X12600900Y23240700D01*
X12702500D01*
X12651700Y23139101D01*
Y22889101D02*
X12600900Y22990700D01*
X12702500D01*
X12651700Y22889101D01*
Y22639101D02*
X12600900Y22740700D01*
X12702500D01*
X12651700Y22639101D01*
Y22139101D02*
X12600900Y22240700D01*
X12702500D01*
X12651700Y22139101D01*
X12401700Y25639099D02*
X12350900Y25740701D01*
X12452500D01*
X12401700Y25639099D01*
Y25389101D02*
X12350900Y25490700D01*
X12452500D01*
X12401700Y25389101D01*
Y25139101D02*
X12350900Y25240700D01*
X12452500D01*
X12401700Y25139101D01*
Y24889101D02*
X12350900Y24990700D01*
X12452500D01*
X12401700Y24889101D01*
Y24139101D02*
X12350900Y24240700D01*
X12452500D01*
X12401700Y24139101D01*
Y23889101D02*
X12350900Y23990700D01*
X12452500D01*
X12401700Y23889101D01*
Y22139101D02*
X12350900Y22240700D01*
X12452500D01*
X12401700Y22139101D01*
X12151700Y25389101D02*
X12100900Y25490700D01*
X12202500D01*
X12151700Y25389101D01*
Y25139101D02*
X12100900Y25240700D01*
X12202500D01*
X12151700Y25139101D01*
Y24889101D02*
X12100900Y24990700D01*
X12202500D01*
X12151700Y24889101D01*
Y24139101D02*
X12100900Y24240700D01*
X12202500D01*
X12151700Y24139101D01*
Y23889101D02*
X12100900Y23990700D01*
X12202500D01*
X12151700Y23889101D01*
Y23139101D02*
X12100900Y23240700D01*
X12202500D01*
X12151700Y23139101D01*
Y22889101D02*
X12100900Y22990700D01*
X12202500D01*
X12151700Y22889101D01*
Y22639101D02*
X12100900Y22740700D01*
X12202500D01*
X12151700Y22639101D01*
Y22139101D02*
X12100900Y22240700D01*
X12202500D01*
X12151700Y22139101D01*
X11901700Y25389101D02*
X11850900Y25490700D01*
X11952500D01*
X11901700Y25389101D01*
Y25139101D02*
X11850900Y25240700D01*
X11952500D01*
X11901700Y25139101D01*
Y24889101D02*
X11850900Y24990700D01*
X11952500D01*
X11901700Y24889101D01*
Y24639101D02*
X11850900Y24740700D01*
X11952500D01*
X11901700Y24639101D01*
Y24389101D02*
X11850900Y24490700D01*
X11952500D01*
X11901700Y24389101D01*
Y24139101D02*
X11850900Y24240700D01*
X11952500D01*
X11901700Y24139101D01*
Y23889101D02*
X11850900Y23990700D01*
X11952500D01*
X11901700Y23889101D01*
Y23639101D02*
X11850900Y23740700D01*
X11952500D01*
X11901700Y23639101D01*
Y23389101D02*
X11850900Y23490700D01*
X11952500D01*
X11901700Y23389101D01*
Y23139101D02*
X11850900Y23240700D01*
X11952500D01*
X11901700Y23139101D01*
Y22889101D02*
X11850900Y22990700D01*
X11952500D01*
X11901700Y22889101D01*
Y22639101D02*
X11850900Y22740700D01*
X11952500D01*
X11901700Y22639101D01*
Y22139101D02*
X11850900Y22240700D01*
X11952500D01*
X11901700Y22139101D01*
X11651700Y24389101D02*
X11600900Y24490700D01*
X11702500D01*
X11651700Y24389101D01*
Y23889101D02*
X11600900Y23990700D01*
X11702500D01*
X11651700Y23889101D01*
Y23389101D02*
X11600900Y23490700D01*
X11702500D01*
X11651700Y23389101D01*
Y23139101D02*
X11600900Y23240700D01*
X11702500D01*
X11651700Y23139101D01*
Y22889101D02*
X11600900Y22990700D01*
X11702500D01*
X11651700Y22889101D01*
Y22639101D02*
X11600900Y22740700D01*
X11702500D01*
X11651700Y22639101D01*
Y22139101D02*
X11600900Y22240700D01*
X11702500D01*
X11651700Y22139101D01*
X11401700Y23139101D02*
X11350900Y23240700D01*
X11452500D01*
X11401700Y23139101D01*
Y22639101D02*
X11350900Y22740700D01*
X11452500D01*
X11401700Y22639101D01*
Y22389101D02*
X11350900Y22490700D01*
X11452500D01*
X11401700Y22389101D01*
Y22139101D02*
X11350900Y22240700D01*
X11452500D01*
X11401700Y22139101D01*
X11151700Y25139101D02*
X11100900Y25240700D01*
X11202500D01*
X11151700Y25139101D01*
Y23389101D02*
X11100900Y23490700D01*
X11202500D01*
X11151700Y23389101D01*
Y23139101D02*
X11100900Y23240700D01*
X11202500D01*
X11151700Y23139101D01*
Y22389101D02*
X11100900Y22490700D01*
X11202500D01*
X11151700Y22389101D01*
Y22139101D02*
X11100900Y22240700D01*
X11202500D01*
X11151700Y22139101D01*
X10901700Y25639099D02*
X10850900Y25740701D01*
X10952500D01*
X10901700Y25639099D01*
Y24139101D02*
X10850900Y24240700D01*
X10952500D01*
X10901700Y24139101D01*
Y23889101D02*
X10850900Y23990700D01*
X10952500D01*
X10901700Y23889101D01*
Y23389101D02*
X10850900Y23490700D01*
X10952500D01*
X10901700Y23389101D01*
Y23139101D02*
X10850900Y23240700D01*
X10952500D01*
X10901700Y23139101D01*
Y22389101D02*
X10850900Y22490700D01*
X10952500D01*
X10901700Y22389101D01*
X10651700Y25639099D02*
X10600900Y25740701D01*
X10702500D01*
X10651700Y25639099D01*
Y25389101D02*
X10600900Y25490700D01*
X10702500D01*
X10651700Y25389101D01*
Y24139101D02*
X10600900Y24240700D01*
X10702500D01*
X10651700Y24139101D01*
Y23889101D02*
X10600900Y23990700D01*
X10702500D01*
X10651700Y23889101D01*
Y23389101D02*
X10600900Y23490700D01*
X10702500D01*
X10651700Y23389101D01*
Y23139101D02*
X10600900Y23240700D01*
X10702500D01*
X10651700Y23139101D01*
Y22639101D02*
X10600900Y22740700D01*
X10702500D01*
X10651700Y22639101D01*
X10401700Y25639099D02*
X10350900Y25740701D01*
X10452500D01*
X10401700Y25639099D01*
Y25389101D02*
X10350900Y25490700D01*
X10452500D01*
X10401700Y25389101D01*
Y24389101D02*
X10350900Y24490700D01*
X10452500D01*
X10401700Y24389101D01*
Y24139101D02*
X10350900Y24240700D01*
X10452500D01*
X10401700Y24139101D01*
Y23889101D02*
X10350900Y23990700D01*
X10452500D01*
X10401700Y23889101D01*
Y23139101D02*
X10350900Y23240700D01*
X10452500D01*
X10401700Y23139101D01*
Y22639101D02*
X10350900Y22740700D01*
X10452500D01*
X10401700Y22639101D01*
X10151700Y25639099D02*
X10100900Y25740701D01*
X10202500D01*
X10151700Y25639099D01*
Y24389101D02*
X10100900Y24490700D01*
X10202500D01*
X10151700Y24389101D01*
Y24139101D02*
X10100900Y24240700D01*
X10202500D01*
X10151700Y24139101D01*
Y23889101D02*
X10100900Y23990700D01*
X10202500D01*
X10151700Y23889101D01*
Y22889101D02*
X10100900Y22990700D01*
X10202500D01*
X10151700Y22889101D01*
Y22639101D02*
X10100900Y22740700D01*
X10202500D01*
X10151700Y22639101D01*
X9901700Y25639099D02*
X9850900Y25740701D01*
X9952500D01*
X9901700Y25639099D01*
Y25389101D02*
X9850900Y25490700D01*
X9952500D01*
X9901700Y25389101D01*
Y24389101D02*
X9850900Y24490700D01*
X9952500D01*
X9901700Y24389101D01*
Y24139101D02*
X9850900Y24240700D01*
X9952500D01*
X9901700Y24139101D01*
Y23889101D02*
X9850900Y23990700D01*
X9952500D01*
X9901700Y23889101D01*
Y23139101D02*
X9850900Y23240700D01*
X9952500D01*
X9901700Y23139101D01*
Y22889101D02*
X9850900Y22990700D01*
X9952500D01*
X9901700Y22889101D01*
Y22639101D02*
X9850900Y22740700D01*
X9952500D01*
X9901700Y22639101D01*
Y22389101D02*
X9850900Y22490700D01*
X9952500D01*
X9901700Y22389101D01*
X9651700Y25639099D02*
X9600900Y25740701D01*
X9702500D01*
X9651700Y25639099D01*
Y25389101D02*
X9600900Y25490700D01*
X9702500D01*
X9651700Y25389101D01*
Y24389101D02*
X9600900Y24490700D01*
X9702500D01*
X9651700Y24389101D01*
Y24139101D02*
X9600900Y24240700D01*
X9702500D01*
X9651700Y24139101D01*
Y23889101D02*
X9600900Y23990700D01*
X9702500D01*
X9651700Y23889101D01*
Y23139101D02*
X9600900Y23240700D01*
X9702500D01*
X9651700Y23139101D01*
Y22889101D02*
X9600900Y22990700D01*
X9702500D01*
X9651700Y22889101D01*
Y22639101D02*
X9600900Y22740700D01*
X9702500D01*
X9651700Y22639101D01*
Y22389101D02*
X9600900Y22490700D01*
X9702500D01*
X9651700Y22389101D01*
Y22139101D02*
X9600900Y22240700D01*
X9702500D01*
X9651700Y22139101D01*
X9401700Y25389101D02*
X9350900Y25490700D01*
X9452500D01*
X9401700Y25389101D01*
Y24639101D02*
X9350900Y24740700D01*
X9452500D01*
X9401700Y24639101D01*
Y24389101D02*
X9350900Y24490700D01*
X9452500D01*
X9401700Y24389101D01*
Y24139101D02*
X9350900Y24240700D01*
X9452500D01*
X9401700Y24139101D01*
Y23639101D02*
X9350900Y23740700D01*
X9452500D01*
X9401700Y23639101D01*
Y23389101D02*
X9350900Y23490700D01*
X9452500D01*
X9401700Y23389101D01*
Y23139101D02*
X9350900Y23240700D01*
X9452500D01*
X9401700Y23139101D01*
Y22889101D02*
X9350900Y22990700D01*
X9452500D01*
X9401700Y22889101D01*
Y22639101D02*
X9350900Y22740700D01*
X9452500D01*
X9401700Y22639101D01*
Y22389101D02*
X9350900Y22490700D01*
X9452500D01*
X9401700Y22389101D01*
Y22139101D02*
X9350900Y22240700D01*
X9452500D01*
X9401700Y22139101D01*
X9151700Y24389101D02*
X9100900Y24490700D01*
X9202500D01*
X9151700Y24389101D01*
Y24139101D02*
X9100900Y24240700D01*
X9202500D01*
X9151700Y24139101D01*
Y23639101D02*
X9100900Y23740700D01*
X9202500D01*
X9151700Y23639101D01*
Y23389101D02*
X9100900Y23490700D01*
X9202500D01*
X9151700Y23389101D01*
Y23139101D02*
X9100900Y23240700D01*
X9202500D01*
X9151700Y23139101D01*
Y22889101D02*
X9100900Y22990700D01*
X9202500D01*
X9151700Y22889101D01*
Y22639101D02*
X9100900Y22740700D01*
X9202500D01*
X9151700Y22639101D01*
Y22389101D02*
X9100900Y22490700D01*
X9202500D01*
X9151700Y22389101D01*
Y22139101D02*
X9100900Y22240700D01*
X9202500D01*
X9151700Y22139101D01*
X8901700Y25389101D02*
X8850900Y25490700D01*
X8952500D01*
X8901700Y25389101D01*
Y25139101D02*
X8850900Y25240700D01*
X8952500D01*
X8901700Y25139101D01*
Y24889101D02*
X8850900Y24990700D01*
X8952500D01*
X8901700Y24889101D01*
Y24639101D02*
X8850900Y24740700D01*
X8952500D01*
X8901700Y24639101D01*
Y24389101D02*
X8850900Y24490700D01*
X8952500D01*
X8901700Y24389101D01*
Y24139101D02*
X8850900Y24240700D01*
X8952500D01*
X8901700Y24139101D01*
Y23889101D02*
X8850900Y23990700D01*
X8952500D01*
X8901700Y23889101D01*
Y23139101D02*
X8850900Y23240700D01*
X8952500D01*
X8901700Y23139101D01*
Y22889101D02*
X8850900Y22990700D01*
X8952500D01*
X8901700Y22889101D01*
Y22639101D02*
X8850900Y22740700D01*
X8952500D01*
X8901700Y22639101D01*
Y22389101D02*
X8850900Y22490700D01*
X8952500D01*
X8901700Y22389101D01*
Y22139101D02*
X8850900Y22240700D01*
X8952500D01*
X8901700Y22139101D01*
X8651700Y25639099D02*
X8600900Y25740701D01*
X8702500D01*
X8651700Y25639099D01*
Y25389101D02*
X8600900Y25490700D01*
X8702500D01*
X8651700Y25389101D01*
Y25139101D02*
X8600900Y25240700D01*
X8702500D01*
X8651700Y25139101D01*
Y24889101D02*
X8600900Y24990700D01*
X8702500D01*
X8651700Y24889101D01*
Y24639101D02*
X8600900Y24740700D01*
X8702500D01*
X8651700Y24639101D01*
Y24389101D02*
X8600900Y24490700D01*
X8702500D01*
X8651700Y24389101D01*
Y24139101D02*
X8600900Y24240700D01*
X8702500D01*
X8651700Y24139101D01*
Y23889101D02*
X8600900Y23990700D01*
X8702500D01*
X8651700Y23889101D01*
Y23139101D02*
X8600900Y23240700D01*
X8702500D01*
X8651700Y23139101D01*
Y22889101D02*
X8600900Y22990700D01*
X8702500D01*
X8651700Y22889101D01*
Y22639101D02*
X8600900Y22740700D01*
X8702500D01*
X8651700Y22639101D01*
Y22389101D02*
X8600900Y22490700D01*
X8702500D01*
X8651700Y22389101D01*
Y22139101D02*
X8600900Y22240700D01*
X8702500D01*
X8651700Y22139101D01*
X8401700Y25639099D02*
X8350900Y25740701D01*
X8452500D01*
X8401700Y25639099D01*
Y25389101D02*
X8350900Y25490700D01*
X8452500D01*
X8401700Y25389101D01*
Y25139101D02*
X8350900Y25240700D01*
X8452500D01*
X8401700Y25139101D01*
Y24889101D02*
X8350900Y24990700D01*
X8452500D01*
X8401700Y24889101D01*
Y24639101D02*
X8350900Y24740700D01*
X8452500D01*
X8401700Y24639101D01*
Y24389101D02*
X8350900Y24490700D01*
X8452500D01*
X8401700Y24389101D01*
Y23889101D02*
X8350900Y23990700D01*
X8452500D01*
X8401700Y23889101D01*
Y22639101D02*
X8350900Y22740700D01*
X8452500D01*
X8401700Y22639101D01*
Y22389101D02*
X8350900Y22490700D01*
X8452500D01*
X8401700Y22389101D01*
Y22139101D02*
X8350900Y22240700D01*
X8452500D01*
X8401700Y22139101D01*
X8151700Y25639099D02*
X8100900Y25740701D01*
X8202500D01*
X8151700Y25639099D01*
Y25389101D02*
X8100900Y25490700D01*
X8202500D01*
X8151700Y25389101D01*
Y25139101D02*
X8100900Y25240700D01*
X8202500D01*
X8151700Y25139101D01*
Y24889101D02*
X8100900Y24990700D01*
X8202500D01*
X8151700Y24889101D01*
Y24639101D02*
X8100900Y24740700D01*
X8202500D01*
X8151700Y24639101D01*
Y24389101D02*
X8100900Y24490700D01*
X8202500D01*
X8151700Y24389101D01*
Y23139101D02*
X8100900Y23240700D01*
X8202500D01*
X8151700Y23139101D01*
Y22389101D02*
X8100900Y22490700D01*
X8202500D01*
X8151700Y22389101D01*
Y22139101D02*
X8100900Y22240700D01*
X8202500D01*
X8151700Y22139101D01*
X7901700Y25639099D02*
X7850900Y25740701D01*
X7952500D01*
X7901700Y25639099D01*
Y25389101D02*
X7850900Y25490700D01*
X7952500D01*
X7901700Y25389101D01*
Y25139101D02*
X7850900Y25240700D01*
X7952500D01*
X7901700Y25139101D01*
Y24889101D02*
X7850900Y24990700D01*
X7952500D01*
X7901700Y24889101D01*
Y24639101D02*
X7850900Y24740700D01*
X7952500D01*
X7901700Y24639101D01*
Y24389101D02*
X7850900Y24490700D01*
X7952500D01*
X7901700Y24389101D01*
Y23889101D02*
X7850900Y23990700D01*
X7952500D01*
X7901700Y23889101D01*
Y23639101D02*
X7850900Y23740700D01*
X7952500D01*
X7901700Y23639101D01*
Y23389101D02*
X7850900Y23490700D01*
X7952500D01*
X7901700Y23389101D01*
Y23139101D02*
X7850900Y23240700D01*
X7952500D01*
X7901700Y23139101D01*
Y22639101D02*
X7850900Y22740700D01*
X7952500D01*
X7901700Y22639101D01*
Y22389101D02*
X7850900Y22490700D01*
X7952500D01*
X7901700Y22389101D01*
Y22139101D02*
X7850900Y22240700D01*
X7952500D01*
X7901700Y22139101D01*
X8826500Y23483701D02*
X8775700Y23585300D01*
X8877300D01*
X8826500Y23483701D01*
X10344709Y22862236D02*
X10293909Y22963837D01*
X10395509D01*
X10344709Y22862236D01*
X10442997Y22960524D02*
X10392197Y23062125D01*
X10493797D01*
X10442997Y22960524D01*
X8128000Y23620799D02*
X8077200Y23722400D01*
X8178800D01*
X8128000Y23620799D01*
X8661400D02*
X8610600Y23722400D01*
X8712200D01*
X8661400Y23620799D01*
X8128000Y23420200D02*
X8077200Y23521800D01*
X8178800D01*
X8128000Y23420200D01*
X8585200D02*
X8534400Y23521800D01*
X8636000D01*
X8585200Y23420200D01*
X14600200Y22884846D02*
Y22986446D01*
X14701801D01*
Y22884846D01*
X14600200D01*
Y23974545D02*
Y24076146D01*
X14701801D01*
Y23974545D01*
X14600200D01*
X19472301Y25639099D02*
X19421500Y25740701D01*
X19523100D01*
X19472301Y25639099D01*
Y24889101D02*
X19421500Y24990700D01*
X19523100D01*
X19472301Y24889101D01*
Y24639101D02*
X19421500Y24740700D01*
X19523100D01*
X19472301Y24639101D01*
Y24389101D02*
X19421500Y24490700D01*
X19523100D01*
X19472301Y24389101D01*
Y24139101D02*
X19421500Y24240700D01*
X19523100D01*
X19472301Y24139101D01*
Y23889101D02*
X19421500Y23990700D01*
X19523100D01*
X19472301Y23889101D01*
Y23639101D02*
X19421500Y23740700D01*
X19523100D01*
X19472301Y23639101D01*
Y23389101D02*
X19421500Y23490700D01*
X19523100D01*
X19472301Y23389101D01*
Y23139101D02*
X19421500Y23240700D01*
X19523100D01*
X19472301Y23139101D01*
Y22889101D02*
X19421500Y22990700D01*
X19523100D01*
X19472301Y22889101D01*
Y22639101D02*
X19421500Y22740700D01*
X19523100D01*
X19472301Y22639101D01*
Y22389101D02*
X19421500Y22490700D01*
X19523100D01*
X19472301Y22389101D01*
Y22139101D02*
X19421500Y22240700D01*
X19523100D01*
X19472301Y22139101D01*
X19222301Y25639099D02*
X19171500Y25740701D01*
X19273100D01*
X19222301Y25639099D01*
Y25389101D02*
X19171500Y25490700D01*
X19273100D01*
X19222301Y25389101D01*
Y25139101D02*
X19171500Y25240700D01*
X19273100D01*
X19222301Y25139101D01*
Y24889101D02*
X19171500Y24990700D01*
X19273100D01*
X19222301Y24889101D01*
Y24639101D02*
X19171500Y24740700D01*
X19273100D01*
X19222301Y24639101D01*
Y24389101D02*
X19171500Y24490700D01*
X19273100D01*
X19222301Y24389101D01*
Y24139101D02*
X19171500Y24240700D01*
X19273100D01*
X19222301Y24139101D01*
Y23889101D02*
X19171500Y23990700D01*
X19273100D01*
X19222301Y23889101D01*
Y23639101D02*
X19171500Y23740700D01*
X19273100D01*
X19222301Y23639101D01*
Y23389101D02*
X19171500Y23490700D01*
X19273100D01*
X19222301Y23389101D01*
Y23139101D02*
X19171500Y23240700D01*
X19273100D01*
X19222301Y23139101D01*
Y22889101D02*
X19171500Y22990700D01*
X19273100D01*
X19222301Y22889101D01*
Y22639101D02*
X19171500Y22740700D01*
X19273100D01*
X19222301Y22639101D01*
Y22139101D02*
X19171500Y22240700D01*
X19273100D01*
X19222301Y22139101D01*
X18972301Y25639099D02*
X18921500Y25740701D01*
X19023100D01*
X18972301Y25639099D01*
Y25389101D02*
X18921500Y25490700D01*
X19023100D01*
X18972301Y25389101D01*
Y25139101D02*
X18921500Y25240700D01*
X19023100D01*
X18972301Y25139101D01*
Y24889101D02*
X18921500Y24990700D01*
X19023100D01*
X18972301Y24889101D01*
Y24139101D02*
X18921500Y24240700D01*
X19023100D01*
X18972301Y24139101D01*
Y23889101D02*
X18921500Y23990700D01*
X19023100D01*
X18972301Y23889101D01*
Y22139101D02*
X18921500Y22240700D01*
X19023100D01*
X18972301Y22139101D01*
X18722301Y25389101D02*
X18671500Y25490700D01*
X18773100D01*
X18722301Y25389101D01*
Y25139101D02*
X18671500Y25240700D01*
X18773100D01*
X18722301Y25139101D01*
Y24889101D02*
X18671500Y24990700D01*
X18773100D01*
X18722301Y24889101D01*
Y24139101D02*
X18671500Y24240700D01*
X18773100D01*
X18722301Y24139101D01*
Y23889101D02*
X18671500Y23990700D01*
X18773100D01*
X18722301Y23889101D01*
Y23139101D02*
X18671500Y23240700D01*
X18773100D01*
X18722301Y23139101D01*
Y22889101D02*
X18671500Y22990700D01*
X18773100D01*
X18722301Y22889101D01*
Y22639101D02*
X18671500Y22740700D01*
X18773100D01*
X18722301Y22639101D01*
Y22139101D02*
X18671500Y22240700D01*
X18773100D01*
X18722301Y22139101D01*
X18472301Y25389101D02*
X18421500Y25490700D01*
X18523100D01*
X18472301Y25389101D01*
Y25139101D02*
X18421500Y25240700D01*
X18523100D01*
X18472301Y25139101D01*
Y24889101D02*
X18421500Y24990700D01*
X18523100D01*
X18472301Y24889101D01*
Y24639101D02*
X18421500Y24740700D01*
X18523100D01*
X18472301Y24639101D01*
Y24389101D02*
X18421500Y24490700D01*
X18523100D01*
X18472301Y24389101D01*
Y24139101D02*
X18421500Y24240700D01*
X18523100D01*
X18472301Y24139101D01*
Y23889101D02*
X18421500Y23990700D01*
X18523100D01*
X18472301Y23889101D01*
Y23639101D02*
X18421500Y23740700D01*
X18523100D01*
X18472301Y23639101D01*
Y23389101D02*
X18421500Y23490700D01*
X18523100D01*
X18472301Y23389101D01*
Y23139101D02*
X18421500Y23240700D01*
X18523100D01*
X18472301Y23139101D01*
Y22889101D02*
X18421500Y22990700D01*
X18523100D01*
X18472301Y22889101D01*
Y22639101D02*
X18421500Y22740700D01*
X18523100D01*
X18472301Y22639101D01*
Y22139101D02*
X18421500Y22240700D01*
X18523100D01*
X18472301Y22139101D01*
X18222301Y24389101D02*
X18171500Y24490700D01*
X18273100D01*
X18222301Y24389101D01*
Y23889101D02*
X18171500Y23990700D01*
X18273100D01*
X18222301Y23889101D01*
Y23389101D02*
X18171500Y23490700D01*
X18273100D01*
X18222301Y23389101D01*
Y23139101D02*
X18171500Y23240700D01*
X18273100D01*
X18222301Y23139101D01*
Y22889101D02*
X18171500Y22990700D01*
X18273100D01*
X18222301Y22889101D01*
Y22639101D02*
X18171500Y22740700D01*
X18273100D01*
X18222301Y22639101D01*
Y22139101D02*
X18171500Y22240700D01*
X18273100D01*
X18222301Y22139101D01*
X17972301Y23139101D02*
X17921500Y23240700D01*
X18023100D01*
X17972301Y23139101D01*
Y22639101D02*
X17921500Y22740700D01*
X18023100D01*
X17972301Y22639101D01*
Y22389101D02*
X17921500Y22490700D01*
X18023100D01*
X17972301Y22389101D01*
Y22139101D02*
X17921500Y22240700D01*
X18023100D01*
X17972301Y22139101D01*
X17722301Y25139101D02*
X17671500Y25240700D01*
X17773100D01*
X17722301Y25139101D01*
Y23389101D02*
X17671500Y23490700D01*
X17773100D01*
X17722301Y23389101D01*
Y23139101D02*
X17671500Y23240700D01*
X17773100D01*
X17722301Y23139101D01*
Y22389101D02*
X17671500Y22490700D01*
X17773100D01*
X17722301Y22389101D01*
Y22139101D02*
X17671500Y22240700D01*
X17773100D01*
X17722301Y22139101D01*
X17472301Y25639099D02*
X17421500Y25740701D01*
X17523100D01*
X17472301Y25639099D01*
Y24139101D02*
X17421500Y24240700D01*
X17523100D01*
X17472301Y24139101D01*
Y23889101D02*
X17421500Y23990700D01*
X17523100D01*
X17472301Y23889101D01*
Y23389101D02*
X17421500Y23490700D01*
X17523100D01*
X17472301Y23389101D01*
Y23139101D02*
X17421500Y23240700D01*
X17523100D01*
X17472301Y23139101D01*
Y22389101D02*
X17421500Y22490700D01*
X17523100D01*
X17472301Y22389101D01*
X17222301Y25639099D02*
X17171500Y25740701D01*
X17273100D01*
X17222301Y25639099D01*
Y25389101D02*
X17171500Y25490700D01*
X17273100D01*
X17222301Y25389101D01*
Y24139101D02*
X17171500Y24240700D01*
X17273100D01*
X17222301Y24139101D01*
Y23889101D02*
X17171500Y23990700D01*
X17273100D01*
X17222301Y23889101D01*
Y23389101D02*
X17171500Y23490700D01*
X17273100D01*
X17222301Y23389101D01*
Y23139101D02*
X17171500Y23240700D01*
X17273100D01*
X17222301Y23139101D01*
Y22639101D02*
X17171500Y22740700D01*
X17273100D01*
X17222301Y22639101D01*
X16972301Y25639099D02*
X16921500Y25740701D01*
X17023100D01*
X16972301Y25639099D01*
Y25389101D02*
X16921500Y25490700D01*
X17023100D01*
X16972301Y25389101D01*
Y24389101D02*
X16921500Y24490700D01*
X17023100D01*
X16972301Y24389101D01*
Y24139101D02*
X16921500Y24240700D01*
X17023100D01*
X16972301Y24139101D01*
Y23889101D02*
X16921500Y23990700D01*
X17023100D01*
X16972301Y23889101D01*
Y23139101D02*
X16921500Y23240700D01*
X17023100D01*
X16972301Y23139101D01*
Y22639101D02*
X16921500Y22740700D01*
X17023100D01*
X16972301Y22639101D01*
X16722301Y25639099D02*
X16671500Y25740701D01*
X16773100D01*
X16722301Y25639099D01*
Y24389101D02*
X16671500Y24490700D01*
X16773100D01*
X16722301Y24389101D01*
Y24139101D02*
X16671500Y24240700D01*
X16773100D01*
X16722301Y24139101D01*
Y23889101D02*
X16671500Y23990700D01*
X16773100D01*
X16722301Y23889101D01*
Y22889101D02*
X16671500Y22990700D01*
X16773100D01*
X16722301Y22889101D01*
Y22639101D02*
X16671500Y22740700D01*
X16773100D01*
X16722301Y22639101D01*
X16472301Y25639099D02*
X16421500Y25740701D01*
X16523100D01*
X16472301Y25639099D01*
Y25389101D02*
X16421500Y25490700D01*
X16523100D01*
X16472301Y25389101D01*
Y24389101D02*
X16421500Y24490700D01*
X16523100D01*
X16472301Y24389101D01*
Y24139101D02*
X16421500Y24240700D01*
X16523100D01*
X16472301Y24139101D01*
Y23889101D02*
X16421500Y23990700D01*
X16523100D01*
X16472301Y23889101D01*
Y23139101D02*
X16421500Y23240700D01*
X16523100D01*
X16472301Y23139101D01*
Y22889101D02*
X16421500Y22990700D01*
X16523100D01*
X16472301Y22889101D01*
Y22639101D02*
X16421500Y22740700D01*
X16523100D01*
X16472301Y22639101D01*
Y22389101D02*
X16421500Y22490700D01*
X16523100D01*
X16472301Y22389101D01*
X16222301Y25639099D02*
X16171500Y25740701D01*
X16273100D01*
X16222301Y25639099D01*
Y25389101D02*
X16171500Y25490700D01*
X16273100D01*
X16222301Y25389101D01*
Y24389101D02*
X16171500Y24490700D01*
X16273100D01*
X16222301Y24389101D01*
Y24139101D02*
X16171500Y24240700D01*
X16273100D01*
X16222301Y24139101D01*
Y23889101D02*
X16171500Y23990700D01*
X16273100D01*
X16222301Y23889101D01*
Y23139101D02*
X16171500Y23240700D01*
X16273100D01*
X16222301Y23139101D01*
Y22889101D02*
X16171500Y22990700D01*
X16273100D01*
X16222301Y22889101D01*
Y22639101D02*
X16171500Y22740700D01*
X16273100D01*
X16222301Y22639101D01*
Y22389101D02*
X16171500Y22490700D01*
X16273100D01*
X16222301Y22389101D01*
Y22139101D02*
X16171500Y22240700D01*
X16273100D01*
X16222301Y22139101D01*
X15972301Y25389101D02*
X15921500Y25490700D01*
X16023100D01*
X15972301Y25389101D01*
Y24639101D02*
X15921500Y24740700D01*
X16023100D01*
X15972301Y24639101D01*
Y24389101D02*
X15921500Y24490700D01*
X16023100D01*
X15972301Y24389101D01*
Y24139101D02*
X15921500Y24240700D01*
X16023100D01*
X15972301Y24139101D01*
Y23639101D02*
X15921500Y23740700D01*
X16023100D01*
X15972301Y23639101D01*
Y23389101D02*
X15921500Y23490700D01*
X16023100D01*
X15972301Y23389101D01*
Y23139101D02*
X15921500Y23240700D01*
X16023100D01*
X15972301Y23139101D01*
Y22889101D02*
X15921500Y22990700D01*
X16023100D01*
X15972301Y22889101D01*
Y22639101D02*
X15921500Y22740700D01*
X16023100D01*
X15972301Y22639101D01*
Y22389101D02*
X15921500Y22490700D01*
X16023100D01*
X15972301Y22389101D01*
Y22139101D02*
X15921500Y22240700D01*
X16023100D01*
X15972301Y22139101D01*
X15722301Y24389101D02*
X15671500Y24490700D01*
X15773100D01*
X15722301Y24389101D01*
Y24139101D02*
X15671500Y24240700D01*
X15773100D01*
X15722301Y24139101D01*
Y23639101D02*
X15671500Y23740700D01*
X15773100D01*
X15722301Y23639101D01*
Y23389101D02*
X15671500Y23490700D01*
X15773100D01*
X15722301Y23389101D01*
Y23139101D02*
X15671500Y23240700D01*
X15773100D01*
X15722301Y23139101D01*
Y22889101D02*
X15671500Y22990700D01*
X15773100D01*
X15722301Y22889101D01*
Y22639101D02*
X15671500Y22740700D01*
X15773100D01*
X15722301Y22639101D01*
Y22389101D02*
X15671500Y22490700D01*
X15773100D01*
X15722301Y22389101D01*
Y22139101D02*
X15671500Y22240700D01*
X15773100D01*
X15722301Y22139101D01*
X15472301Y25389101D02*
X15421500Y25490700D01*
X15523100D01*
X15472301Y25389101D01*
Y25139101D02*
X15421500Y25240700D01*
X15523100D01*
X15472301Y25139101D01*
Y24889101D02*
X15421500Y24990700D01*
X15523100D01*
X15472301Y24889101D01*
Y24639101D02*
X15421500Y24740700D01*
X15523100D01*
X15472301Y24639101D01*
Y24389101D02*
X15421500Y24490700D01*
X15523100D01*
X15472301Y24389101D01*
Y24139101D02*
X15421500Y24240700D01*
X15523100D01*
X15472301Y24139101D01*
Y23889101D02*
X15421500Y23990700D01*
X15523100D01*
X15472301Y23889101D01*
Y23139101D02*
X15421500Y23240700D01*
X15523100D01*
X15472301Y23139101D01*
Y22889101D02*
X15421500Y22990700D01*
X15523100D01*
X15472301Y22889101D01*
Y22639101D02*
X15421500Y22740700D01*
X15523100D01*
X15472301Y22639101D01*
Y22389101D02*
X15421500Y22490700D01*
X15523100D01*
X15472301Y22389101D01*
Y22139101D02*
X15421500Y22240700D01*
X15523100D01*
X15472301Y22139101D01*
X15222301Y25639099D02*
X15171500Y25740701D01*
X15273100D01*
X15222301Y25639099D01*
Y25389101D02*
X15171500Y25490700D01*
X15273100D01*
X15222301Y25389101D01*
Y25139101D02*
X15171500Y25240700D01*
X15273100D01*
X15222301Y25139101D01*
Y24889101D02*
X15171500Y24990700D01*
X15273100D01*
X15222301Y24889101D01*
Y24639101D02*
X15171500Y24740700D01*
X15273100D01*
X15222301Y24639101D01*
Y24389101D02*
X15171500Y24490700D01*
X15273100D01*
X15222301Y24389101D01*
Y24139101D02*
X15171500Y24240700D01*
X15273100D01*
X15222301Y24139101D01*
Y23889101D02*
X15171500Y23990700D01*
X15273100D01*
X15222301Y23889101D01*
Y23139101D02*
X15171500Y23240700D01*
X15273100D01*
X15222301Y23139101D01*
Y22889101D02*
X15171500Y22990700D01*
X15273100D01*
X15222301Y22889101D01*
Y22639101D02*
X15171500Y22740700D01*
X15273100D01*
X15222301Y22639101D01*
Y22389101D02*
X15171500Y22490700D01*
X15273100D01*
X15222301Y22389101D01*
Y22139101D02*
X15171500Y22240700D01*
X15273100D01*
X15222301Y22139101D01*
X14972301Y25639099D02*
X14921500Y25740701D01*
X15023100D01*
X14972301Y25639099D01*
Y25389101D02*
X14921500Y25490700D01*
X15023100D01*
X14972301Y25389101D01*
Y25139101D02*
X14921500Y25240700D01*
X15023100D01*
X14972301Y25139101D01*
Y24889101D02*
X14921500Y24990700D01*
X15023100D01*
X14972301Y24889101D01*
Y24639101D02*
X14921500Y24740700D01*
X15023100D01*
X14972301Y24639101D01*
Y24389101D02*
X14921500Y24490700D01*
X15023100D01*
X14972301Y24389101D01*
Y23889101D02*
X14921500Y23990700D01*
X15023100D01*
X14972301Y23889101D01*
Y22639101D02*
X14921500Y22740700D01*
X15023100D01*
X14972301Y22639101D01*
Y22389101D02*
X14921500Y22490700D01*
X15023100D01*
X14972301Y22389101D01*
Y22139101D02*
X14921500Y22240700D01*
X15023100D01*
X14972301Y22139101D01*
X14722301Y25639099D02*
X14671500Y25740701D01*
X14773100D01*
X14722301Y25639099D01*
Y25389101D02*
X14671500Y25490700D01*
X14773100D01*
X14722301Y25389101D01*
Y25139101D02*
X14671500Y25240700D01*
X14773100D01*
X14722301Y25139101D01*
Y24889101D02*
X14671500Y24990700D01*
X14773100D01*
X14722301Y24889101D01*
Y24639101D02*
X14671500Y24740700D01*
X14773100D01*
X14722301Y24639101D01*
Y24389101D02*
X14671500Y24490700D01*
X14773100D01*
X14722301Y24389101D01*
Y23139101D02*
X14671500Y23240700D01*
X14773100D01*
X14722301Y23139101D01*
Y22389101D02*
X14671500Y22490700D01*
X14773100D01*
X14722301Y22389101D01*
Y22139101D02*
X14671500Y22240700D01*
X14773100D01*
X14722301Y22139101D01*
X14472301Y25639099D02*
X14421500Y25740701D01*
X14523100D01*
X14472301Y25639099D01*
Y25389101D02*
X14421500Y25490700D01*
X14523100D01*
X14472301Y25389101D01*
Y25139101D02*
X14421500Y25240700D01*
X14523100D01*
X14472301Y25139101D01*
Y24889101D02*
X14421500Y24990700D01*
X14523100D01*
X14472301Y24889101D01*
Y24639101D02*
X14421500Y24740700D01*
X14523100D01*
X14472301Y24639101D01*
Y24389101D02*
X14421500Y24490700D01*
X14523100D01*
X14472301Y24389101D01*
Y23889101D02*
X14421500Y23990700D01*
X14523100D01*
X14472301Y23889101D01*
Y23639101D02*
X14421500Y23740700D01*
X14523100D01*
X14472301Y23639101D01*
Y23389101D02*
X14421500Y23490700D01*
X14523100D01*
X14472301Y23389101D01*
Y23139101D02*
X14421500Y23240700D01*
X14523100D01*
X14472301Y23139101D01*
Y22639101D02*
X14421500Y22740700D01*
X14523100D01*
X14472301Y22639101D01*
Y22389101D02*
X14421500Y22490700D01*
X14523100D01*
X14472301Y22389101D01*
Y22139101D02*
X14421500Y22240700D01*
X14523100D01*
X14472301Y22139101D01*
X15397099Y23483701D02*
X15346300Y23585300D01*
X15447900D01*
X15397099Y23483701D01*
X16915309Y22862236D02*
X16864510Y22963837D01*
X16966109D01*
X16915309Y22862236D01*
X17013597Y22960524D02*
X16962798Y23062125D01*
X17064397D01*
X17013597Y22960524D01*
X14698599Y23620799D02*
X14647800Y23722400D01*
X14749400D01*
X14698599Y23620799D01*
X15232001D02*
X15181200Y23722400D01*
X15282800D01*
X15232001Y23620799D01*
X14698599Y23420200D02*
X14647800Y23521800D01*
X14749400D01*
X14698599Y23420200D01*
X15155800D02*
X15105000Y23521800D01*
X15206599D01*
X15155800Y23420200D01*
X8029600Y27385345D02*
Y27486945D01*
X8131200D01*
Y27385345D01*
X8029600D01*
Y28475046D02*
Y28576645D01*
X8131200D01*
Y28475046D01*
X8029600D01*
X12901700Y30139600D02*
X12850900Y30241199D01*
X12952499D01*
X12901700Y30139600D01*
Y29389600D02*
X12850900Y29491199D01*
X12952499D01*
X12901700Y29389600D01*
Y29139600D02*
X12850900Y29241199D01*
X12952499D01*
X12901700Y29139600D01*
Y28889600D02*
X12850900Y28991199D01*
X12952499D01*
X12901700Y28889600D01*
Y28639600D02*
X12850900Y28741199D01*
X12952499D01*
X12901700Y28639600D01*
Y28389600D02*
X12850900Y28491199D01*
X12952499D01*
X12901700Y28389600D01*
Y28139600D02*
X12850900Y28241199D01*
X12952499D01*
X12901700Y28139600D01*
Y27889600D02*
X12850900Y27991199D01*
X12952499D01*
X12901700Y27889600D01*
Y27639600D02*
X12850900Y27741199D01*
X12952499D01*
X12901700Y27639600D01*
Y27389600D02*
X12850900Y27491199D01*
X12952499D01*
X12901700Y27389600D01*
Y27139600D02*
X12850900Y27241199D01*
X12952499D01*
X12901700Y27139600D01*
Y26889600D02*
X12850900Y26991199D01*
X12952499D01*
X12901700Y26889600D01*
Y26639600D02*
X12850900Y26741199D01*
X12952499D01*
X12901700Y26639600D01*
X12651700Y30139600D02*
X12600900Y30241199D01*
X12702500D01*
X12651700Y30139600D01*
Y29889600D02*
X12600900Y29991199D01*
X12702500D01*
X12651700Y29889600D01*
Y29639600D02*
X12600900Y29741199D01*
X12702500D01*
X12651700Y29639600D01*
Y29389600D02*
X12600900Y29491199D01*
X12702500D01*
X12651700Y29389600D01*
Y29139600D02*
X12600900Y29241199D01*
X12702500D01*
X12651700Y29139600D01*
Y28889600D02*
X12600900Y28991199D01*
X12702500D01*
X12651700Y28889600D01*
Y28639600D02*
X12600900Y28741199D01*
X12702500D01*
X12651700Y28639600D01*
Y28389600D02*
X12600900Y28491199D01*
X12702500D01*
X12651700Y28389600D01*
Y28139600D02*
X12600900Y28241199D01*
X12702500D01*
X12651700Y28139600D01*
Y27889600D02*
X12600900Y27991199D01*
X12702500D01*
X12651700Y27889600D01*
Y27639600D02*
X12600900Y27741199D01*
X12702500D01*
X12651700Y27639600D01*
Y27389600D02*
X12600900Y27491199D01*
X12702500D01*
X12651700Y27389600D01*
Y27139600D02*
X12600900Y27241199D01*
X12702500D01*
X12651700Y27139600D01*
Y26639600D02*
X12600900Y26741199D01*
X12702500D01*
X12651700Y26639600D01*
X12401700Y30139600D02*
X12350900Y30241199D01*
X12452500D01*
X12401700Y30139600D01*
Y29889600D02*
X12350900Y29991199D01*
X12452500D01*
X12401700Y29889600D01*
Y29639600D02*
X12350900Y29741199D01*
X12452500D01*
X12401700Y29639600D01*
Y29389600D02*
X12350900Y29491199D01*
X12452500D01*
X12401700Y29389600D01*
Y28639600D02*
X12350900Y28741199D01*
X12452500D01*
X12401700Y28639600D01*
Y28389600D02*
X12350900Y28491199D01*
X12452500D01*
X12401700Y28389600D01*
Y26639600D02*
X12350900Y26741199D01*
X12452500D01*
X12401700Y26639600D01*
X12151700Y29889600D02*
X12100900Y29991199D01*
X12202500D01*
X12151700Y29889600D01*
Y29639600D02*
X12100900Y29741199D01*
X12202500D01*
X12151700Y29639600D01*
Y29389600D02*
X12100900Y29491199D01*
X12202500D01*
X12151700Y29389600D01*
Y28639600D02*
X12100900Y28741199D01*
X12202500D01*
X12151700Y28639600D01*
Y28389600D02*
X12100900Y28491199D01*
X12202500D01*
X12151700Y28389600D01*
Y27639600D02*
X12100900Y27741199D01*
X12202500D01*
X12151700Y27639600D01*
Y27389600D02*
X12100900Y27491199D01*
X12202500D01*
X12151700Y27389600D01*
Y27139600D02*
X12100900Y27241199D01*
X12202500D01*
X12151700Y27139600D01*
Y26639600D02*
X12100900Y26741199D01*
X12202500D01*
X12151700Y26639600D01*
X11901700Y29889600D02*
X11850900Y29991199D01*
X11952500D01*
X11901700Y29889600D01*
Y29639600D02*
X11850900Y29741199D01*
X11952500D01*
X11901700Y29639600D01*
Y29389600D02*
X11850900Y29491199D01*
X11952500D01*
X11901700Y29389600D01*
Y29139600D02*
X11850900Y29241199D01*
X11952500D01*
X11901700Y29139600D01*
Y28889600D02*
X11850900Y28991199D01*
X11952500D01*
X11901700Y28889600D01*
Y28639600D02*
X11850900Y28741199D01*
X11952500D01*
X11901700Y28639600D01*
Y28389600D02*
X11850900Y28491199D01*
X11952500D01*
X11901700Y28389600D01*
Y28139600D02*
X11850900Y28241199D01*
X11952500D01*
X11901700Y28139600D01*
Y27889600D02*
X11850900Y27991199D01*
X11952500D01*
X11901700Y27889600D01*
Y27639600D02*
X11850900Y27741199D01*
X11952500D01*
X11901700Y27639600D01*
Y27389600D02*
X11850900Y27491199D01*
X11952500D01*
X11901700Y27389600D01*
Y27139600D02*
X11850900Y27241199D01*
X11952500D01*
X11901700Y27139600D01*
Y26639600D02*
X11850900Y26741199D01*
X11952500D01*
X11901700Y26639600D01*
X11651700Y28889600D02*
X11600900Y28991199D01*
X11702500D01*
X11651700Y28889600D01*
Y28389600D02*
X11600900Y28491199D01*
X11702500D01*
X11651700Y28389600D01*
Y27889600D02*
X11600900Y27991199D01*
X11702500D01*
X11651700Y27889600D01*
Y27639600D02*
X11600900Y27741199D01*
X11702500D01*
X11651700Y27639600D01*
Y27389600D02*
X11600900Y27491199D01*
X11702500D01*
X11651700Y27389600D01*
Y27139600D02*
X11600900Y27241199D01*
X11702500D01*
X11651700Y27139600D01*
Y26639600D02*
X11600900Y26741199D01*
X11702500D01*
X11651700Y26639600D01*
X11401700Y27639600D02*
X11350900Y27741199D01*
X11452500D01*
X11401700Y27639600D01*
Y27139600D02*
X11350900Y27241199D01*
X11452500D01*
X11401700Y27139600D01*
Y26889600D02*
X11350900Y26991199D01*
X11452500D01*
X11401700Y26889600D01*
Y26639600D02*
X11350900Y26741199D01*
X11452500D01*
X11401700Y26639600D01*
X11151700Y29639600D02*
X11100900Y29741199D01*
X11202500D01*
X11151700Y29639600D01*
Y27889600D02*
X11100900Y27991199D01*
X11202500D01*
X11151700Y27889600D01*
Y27639600D02*
X11100900Y27741199D01*
X11202500D01*
X11151700Y27639600D01*
Y26889600D02*
X11100900Y26991199D01*
X11202500D01*
X11151700Y26889600D01*
Y26639600D02*
X11100900Y26741199D01*
X11202500D01*
X11151700Y26639600D01*
X10901700Y30139600D02*
X10850900Y30241199D01*
X10952500D01*
X10901700Y30139600D01*
Y28639600D02*
X10850900Y28741199D01*
X10952500D01*
X10901700Y28639600D01*
Y28389600D02*
X10850900Y28491199D01*
X10952500D01*
X10901700Y28389600D01*
Y27889600D02*
X10850900Y27991199D01*
X10952500D01*
X10901700Y27889600D01*
Y27639600D02*
X10850900Y27741199D01*
X10952500D01*
X10901700Y27639600D01*
Y26889600D02*
X10850900Y26991199D01*
X10952500D01*
X10901700Y26889600D01*
X10651700Y30139600D02*
X10600900Y30241199D01*
X10702500D01*
X10651700Y30139600D01*
Y29889600D02*
X10600900Y29991199D01*
X10702500D01*
X10651700Y29889600D01*
Y28639600D02*
X10600900Y28741199D01*
X10702500D01*
X10651700Y28639600D01*
Y28389600D02*
X10600900Y28491199D01*
X10702500D01*
X10651700Y28389600D01*
Y27889600D02*
X10600900Y27991199D01*
X10702500D01*
X10651700Y27889600D01*
Y27639600D02*
X10600900Y27741199D01*
X10702500D01*
X10651700Y27639600D01*
Y27139600D02*
X10600900Y27241199D01*
X10702500D01*
X10651700Y27139600D01*
X10401700Y30139600D02*
X10350900Y30241199D01*
X10452500D01*
X10401700Y30139600D01*
Y29889600D02*
X10350900Y29991199D01*
X10452500D01*
X10401700Y29889600D01*
Y28889600D02*
X10350900Y28991199D01*
X10452500D01*
X10401700Y28889600D01*
Y28639600D02*
X10350900Y28741199D01*
X10452500D01*
X10401700Y28639600D01*
Y28389600D02*
X10350900Y28491199D01*
X10452500D01*
X10401700Y28389600D01*
Y27639600D02*
X10350900Y27741199D01*
X10452500D01*
X10401700Y27639600D01*
Y27139600D02*
X10350900Y27241199D01*
X10452500D01*
X10401700Y27139600D01*
X10151700Y30139600D02*
X10100900Y30241199D01*
X10202500D01*
X10151700Y30139600D01*
Y28889600D02*
X10100900Y28991199D01*
X10202500D01*
X10151700Y28889600D01*
Y28639600D02*
X10100900Y28741199D01*
X10202500D01*
X10151700Y28639600D01*
Y28389600D02*
X10100900Y28491199D01*
X10202500D01*
X10151700Y28389600D01*
Y27389600D02*
X10100900Y27491199D01*
X10202500D01*
X10151700Y27389600D01*
Y27139600D02*
X10100900Y27241199D01*
X10202500D01*
X10151700Y27139600D01*
X9901700Y30139600D02*
X9850900Y30241199D01*
X9952500D01*
X9901700Y30139600D01*
Y29889600D02*
X9850900Y29991199D01*
X9952500D01*
X9901700Y29889600D01*
Y28889600D02*
X9850900Y28991199D01*
X9952500D01*
X9901700Y28889600D01*
Y28639600D02*
X9850900Y28741199D01*
X9952500D01*
X9901700Y28639600D01*
Y28389600D02*
X9850900Y28491199D01*
X9952500D01*
X9901700Y28389600D01*
Y27639600D02*
X9850900Y27741199D01*
X9952500D01*
X9901700Y27639600D01*
Y27389600D02*
X9850900Y27491199D01*
X9952500D01*
X9901700Y27389600D01*
Y27139600D02*
X9850900Y27241199D01*
X9952500D01*
X9901700Y27139600D01*
Y26889600D02*
X9850900Y26991199D01*
X9952500D01*
X9901700Y26889600D01*
X9651700Y30139600D02*
X9600900Y30241199D01*
X9702500D01*
X9651700Y30139600D01*
Y29889600D02*
X9600900Y29991199D01*
X9702500D01*
X9651700Y29889600D01*
Y28889600D02*
X9600900Y28991199D01*
X9702500D01*
X9651700Y28889600D01*
Y28639600D02*
X9600900Y28741199D01*
X9702500D01*
X9651700Y28639600D01*
Y28389600D02*
X9600900Y28491199D01*
X9702500D01*
X9651700Y28389600D01*
Y27639600D02*
X9600900Y27741199D01*
X9702500D01*
X9651700Y27639600D01*
Y27389600D02*
X9600900Y27491199D01*
X9702500D01*
X9651700Y27389600D01*
Y27139600D02*
X9600900Y27241199D01*
X9702500D01*
X9651700Y27139600D01*
Y26889600D02*
X9600900Y26991199D01*
X9702500D01*
X9651700Y26889600D01*
Y26639600D02*
X9600900Y26741199D01*
X9702500D01*
X9651700Y26639600D01*
X9401700Y29889600D02*
X9350900Y29991199D01*
X9452500D01*
X9401700Y29889600D01*
Y29139600D02*
X9350900Y29241199D01*
X9452500D01*
X9401700Y29139600D01*
Y28889600D02*
X9350900Y28991199D01*
X9452500D01*
X9401700Y28889600D01*
Y28639600D02*
X9350900Y28741199D01*
X9452500D01*
X9401700Y28639600D01*
Y28139600D02*
X9350900Y28241199D01*
X9452500D01*
X9401700Y28139600D01*
Y27889600D02*
X9350900Y27991199D01*
X9452500D01*
X9401700Y27889600D01*
Y27639600D02*
X9350900Y27741199D01*
X9452500D01*
X9401700Y27639600D01*
Y27389600D02*
X9350900Y27491199D01*
X9452500D01*
X9401700Y27389600D01*
Y27139600D02*
X9350900Y27241199D01*
X9452500D01*
X9401700Y27139600D01*
Y26889600D02*
X9350900Y26991199D01*
X9452500D01*
X9401700Y26889600D01*
Y26639600D02*
X9350900Y26741199D01*
X9452500D01*
X9401700Y26639600D01*
X9151700Y28889600D02*
X9100900Y28991199D01*
X9202500D01*
X9151700Y28889600D01*
Y28639600D02*
X9100900Y28741199D01*
X9202500D01*
X9151700Y28639600D01*
Y28139600D02*
X9100900Y28241199D01*
X9202500D01*
X9151700Y28139600D01*
Y27889600D02*
X9100900Y27991199D01*
X9202500D01*
X9151700Y27889600D01*
Y27639600D02*
X9100900Y27741199D01*
X9202500D01*
X9151700Y27639600D01*
Y27389600D02*
X9100900Y27491199D01*
X9202500D01*
X9151700Y27389600D01*
Y27139600D02*
X9100900Y27241199D01*
X9202500D01*
X9151700Y27139600D01*
Y26889600D02*
X9100900Y26991199D01*
X9202500D01*
X9151700Y26889600D01*
Y26639600D02*
X9100900Y26741199D01*
X9202500D01*
X9151700Y26639600D01*
X8901700Y29889600D02*
X8850900Y29991199D01*
X8952500D01*
X8901700Y29889600D01*
Y29639600D02*
X8850900Y29741199D01*
X8952500D01*
X8901700Y29639600D01*
Y29389600D02*
X8850900Y29491199D01*
X8952500D01*
X8901700Y29389600D01*
Y29139600D02*
X8850900Y29241199D01*
X8952500D01*
X8901700Y29139600D01*
Y28889600D02*
X8850900Y28991199D01*
X8952500D01*
X8901700Y28889600D01*
Y28639600D02*
X8850900Y28741199D01*
X8952500D01*
X8901700Y28639600D01*
Y28389600D02*
X8850900Y28491199D01*
X8952500D01*
X8901700Y28389600D01*
Y27639600D02*
X8850900Y27741199D01*
X8952500D01*
X8901700Y27639600D01*
Y27389600D02*
X8850900Y27491199D01*
X8952500D01*
X8901700Y27389600D01*
Y27139600D02*
X8850900Y27241199D01*
X8952500D01*
X8901700Y27139600D01*
Y26889600D02*
X8850900Y26991199D01*
X8952500D01*
X8901700Y26889600D01*
Y26639600D02*
X8850900Y26741199D01*
X8952500D01*
X8901700Y26639600D01*
X8651700Y30139600D02*
X8600900Y30241199D01*
X8702500D01*
X8651700Y30139600D01*
Y29889600D02*
X8600900Y29991199D01*
X8702500D01*
X8651700Y29889600D01*
Y29639600D02*
X8600900Y29741199D01*
X8702500D01*
X8651700Y29639600D01*
Y29389600D02*
X8600900Y29491199D01*
X8702500D01*
X8651700Y29389600D01*
Y29139600D02*
X8600900Y29241199D01*
X8702500D01*
X8651700Y29139600D01*
Y28889600D02*
X8600900Y28991199D01*
X8702500D01*
X8651700Y28889600D01*
Y28639600D02*
X8600900Y28741199D01*
X8702500D01*
X8651700Y28639600D01*
Y28389600D02*
X8600900Y28491199D01*
X8702500D01*
X8651700Y28389600D01*
Y27639600D02*
X8600900Y27741199D01*
X8702500D01*
X8651700Y27639600D01*
Y27389600D02*
X8600900Y27491199D01*
X8702500D01*
X8651700Y27389600D01*
Y27139600D02*
X8600900Y27241199D01*
X8702500D01*
X8651700Y27139600D01*
Y26889600D02*
X8600900Y26991199D01*
X8702500D01*
X8651700Y26889600D01*
Y26639600D02*
X8600900Y26741199D01*
X8702500D01*
X8651700Y26639600D01*
X8401700Y30139600D02*
X8350900Y30241199D01*
X8452500D01*
X8401700Y30139600D01*
Y29889600D02*
X8350900Y29991199D01*
X8452500D01*
X8401700Y29889600D01*
Y29639600D02*
X8350900Y29741199D01*
X8452500D01*
X8401700Y29639600D01*
Y29389600D02*
X8350900Y29491199D01*
X8452500D01*
X8401700Y29389600D01*
Y29139600D02*
X8350900Y29241199D01*
X8452500D01*
X8401700Y29139600D01*
Y28889600D02*
X8350900Y28991199D01*
X8452500D01*
X8401700Y28889600D01*
Y28389600D02*
X8350900Y28491199D01*
X8452500D01*
X8401700Y28389600D01*
Y27139600D02*
X8350900Y27241199D01*
X8452500D01*
X8401700Y27139600D01*
Y26889600D02*
X8350900Y26991199D01*
X8452500D01*
X8401700Y26889600D01*
Y26639600D02*
X8350900Y26741199D01*
X8452500D01*
X8401700Y26639600D01*
X8151700Y30139600D02*
X8100900Y30241199D01*
X8202500D01*
X8151700Y30139600D01*
Y29889600D02*
X8100900Y29991199D01*
X8202500D01*
X8151700Y29889600D01*
Y29639600D02*
X8100900Y29741199D01*
X8202500D01*
X8151700Y29639600D01*
Y29389600D02*
X8100900Y29491199D01*
X8202500D01*
X8151700Y29389600D01*
Y29139600D02*
X8100900Y29241199D01*
X8202500D01*
X8151700Y29139600D01*
Y28889600D02*
X8100900Y28991199D01*
X8202500D01*
X8151700Y28889600D01*
Y27639600D02*
X8100900Y27741199D01*
X8202500D01*
X8151700Y27639600D01*
Y26889600D02*
X8100900Y26991199D01*
X8202500D01*
X8151700Y26889600D01*
Y26639600D02*
X8100900Y26741199D01*
X8202500D01*
X8151700Y26639600D01*
X7901700Y30139600D02*
X7850900Y30241199D01*
X7952500D01*
X7901700Y30139600D01*
Y29889600D02*
X7850900Y29991199D01*
X7952500D01*
X7901700Y29889600D01*
Y29639600D02*
X7850900Y29741199D01*
X7952500D01*
X7901700Y29639600D01*
Y29389600D02*
X7850900Y29491199D01*
X7952500D01*
X7901700Y29389600D01*
Y29139600D02*
X7850900Y29241199D01*
X7952500D01*
X7901700Y29139600D01*
Y28889600D02*
X7850900Y28991199D01*
X7952500D01*
X7901700Y28889600D01*
Y28389600D02*
X7850900Y28491199D01*
X7952500D01*
X7901700Y28389600D01*
Y28139600D02*
X7850900Y28241199D01*
X7952500D01*
X7901700Y28139600D01*
Y27889600D02*
X7850900Y27991199D01*
X7952500D01*
X7901700Y27889600D01*
Y27639600D02*
X7850900Y27741199D01*
X7952500D01*
X7901700Y27639600D01*
Y27139600D02*
X7850900Y27241199D01*
X7952500D01*
X7901700Y27139600D01*
Y26889600D02*
X7850900Y26991199D01*
X7952500D01*
X7901700Y26889600D01*
Y26639600D02*
X7850900Y26741199D01*
X7952500D01*
X7901700Y26639600D01*
X8826500Y27984201D02*
X8775700Y28085800D01*
X8877300D01*
X8826500Y27984201D01*
X10344709Y27362735D02*
X10293909Y27464337D01*
X10395509D01*
X10344709Y27362735D01*
X10442997Y27461023D02*
X10392197Y27562625D01*
X10493797D01*
X10442997Y27461023D01*
X8128000Y28121301D02*
X8077200Y28222900D01*
X8178800D01*
X8128000Y28121301D01*
X8661400D02*
X8610600Y28222900D01*
X8712200D01*
X8661400Y28121301D01*
X8128000Y27920700D02*
X8077200Y28022299D01*
X8178800D01*
X8128000Y27920700D01*
X8585200D02*
X8534400Y28022299D01*
X8636000D01*
X8585200Y27920700D01*
X14600200Y27385345D02*
Y27486945D01*
X14701801D01*
Y27385345D01*
X14600200D01*
Y28475046D02*
Y28576645D01*
X14701801D01*
Y28475046D01*
X14600200D01*
X19472301Y30139600D02*
X19421500Y30241199D01*
X19523100D01*
X19472301Y30139600D01*
Y29389600D02*
X19421500Y29491199D01*
X19523100D01*
X19472301Y29389600D01*
Y29139600D02*
X19421500Y29241199D01*
X19523100D01*
X19472301Y29139600D01*
Y28889600D02*
X19421500Y28991199D01*
X19523100D01*
X19472301Y28889600D01*
Y28639600D02*
X19421500Y28741199D01*
X19523100D01*
X19472301Y28639600D01*
Y28389600D02*
X19421500Y28491199D01*
X19523100D01*
X19472301Y28389600D01*
Y28139600D02*
X19421500Y28241199D01*
X19523100D01*
X19472301Y28139600D01*
Y27889600D02*
X19421500Y27991199D01*
X19523100D01*
X19472301Y27889600D01*
Y27639600D02*
X19421500Y27741199D01*
X19523100D01*
X19472301Y27639600D01*
Y27389600D02*
X19421500Y27491199D01*
X19523100D01*
X19472301Y27389600D01*
Y27139600D02*
X19421500Y27241199D01*
X19523100D01*
X19472301Y27139600D01*
Y26889600D02*
X19421500Y26991199D01*
X19523100D01*
X19472301Y26889600D01*
Y26639600D02*
X19421500Y26741199D01*
X19523100D01*
X19472301Y26639600D01*
X19222301Y30139600D02*
X19171500Y30241199D01*
X19273100D01*
X19222301Y30139600D01*
Y29889600D02*
X19171500Y29991199D01*
X19273100D01*
X19222301Y29889600D01*
Y29639600D02*
X19171500Y29741199D01*
X19273100D01*
X19222301Y29639600D01*
Y29389600D02*
X19171500Y29491199D01*
X19273100D01*
X19222301Y29389600D01*
Y29139600D02*
X19171500Y29241199D01*
X19273100D01*
X19222301Y29139600D01*
Y28889600D02*
X19171500Y28991199D01*
X19273100D01*
X19222301Y28889600D01*
Y28639600D02*
X19171500Y28741199D01*
X19273100D01*
X19222301Y28639600D01*
Y28389600D02*
X19171500Y28491199D01*
X19273100D01*
X19222301Y28389600D01*
Y28139600D02*
X19171500Y28241199D01*
X19273100D01*
X19222301Y28139600D01*
Y27889600D02*
X19171500Y27991199D01*
X19273100D01*
X19222301Y27889600D01*
Y27639600D02*
X19171500Y27741199D01*
X19273100D01*
X19222301Y27639600D01*
Y27389600D02*
X19171500Y27491199D01*
X19273100D01*
X19222301Y27389600D01*
Y27139600D02*
X19171500Y27241199D01*
X19273100D01*
X19222301Y27139600D01*
Y26639600D02*
X19171500Y26741199D01*
X19273100D01*
X19222301Y26639600D01*
X18972301Y30139600D02*
X18921500Y30241199D01*
X19023100D01*
X18972301Y30139600D01*
Y29889600D02*
X18921500Y29991199D01*
X19023100D01*
X18972301Y29889600D01*
Y29639600D02*
X18921500Y29741199D01*
X19023100D01*
X18972301Y29639600D01*
Y29389600D02*
X18921500Y29491199D01*
X19023100D01*
X18972301Y29389600D01*
Y28639600D02*
X18921500Y28741199D01*
X19023100D01*
X18972301Y28639600D01*
Y28389600D02*
X18921500Y28491199D01*
X19023100D01*
X18972301Y28389600D01*
Y26639600D02*
X18921500Y26741199D01*
X19023100D01*
X18972301Y26639600D01*
X18722301Y29889600D02*
X18671500Y29991199D01*
X18773100D01*
X18722301Y29889600D01*
Y29639600D02*
X18671500Y29741199D01*
X18773100D01*
X18722301Y29639600D01*
Y29389600D02*
X18671500Y29491199D01*
X18773100D01*
X18722301Y29389600D01*
Y28639600D02*
X18671500Y28741199D01*
X18773100D01*
X18722301Y28639600D01*
Y28389600D02*
X18671500Y28491199D01*
X18773100D01*
X18722301Y28389600D01*
Y27639600D02*
X18671500Y27741199D01*
X18773100D01*
X18722301Y27639600D01*
Y27389600D02*
X18671500Y27491199D01*
X18773100D01*
X18722301Y27389600D01*
Y27139600D02*
X18671500Y27241199D01*
X18773100D01*
X18722301Y27139600D01*
Y26639600D02*
X18671500Y26741199D01*
X18773100D01*
X18722301Y26639600D01*
X18472301Y29889600D02*
X18421500Y29991199D01*
X18523100D01*
X18472301Y29889600D01*
Y29639600D02*
X18421500Y29741199D01*
X18523100D01*
X18472301Y29639600D01*
Y29389600D02*
X18421500Y29491199D01*
X18523100D01*
X18472301Y29389600D01*
Y29139600D02*
X18421500Y29241199D01*
X18523100D01*
X18472301Y29139600D01*
Y28889600D02*
X18421500Y28991199D01*
X18523100D01*
X18472301Y28889600D01*
Y28639600D02*
X18421500Y28741199D01*
X18523100D01*
X18472301Y28639600D01*
Y28389600D02*
X18421500Y28491199D01*
X18523100D01*
X18472301Y28389600D01*
Y28139600D02*
X18421500Y28241199D01*
X18523100D01*
X18472301Y28139600D01*
Y27889600D02*
X18421500Y27991199D01*
X18523100D01*
X18472301Y27889600D01*
Y27639600D02*
X18421500Y27741199D01*
X18523100D01*
X18472301Y27639600D01*
Y27389600D02*
X18421500Y27491199D01*
X18523100D01*
X18472301Y27389600D01*
Y27139600D02*
X18421500Y27241199D01*
X18523100D01*
X18472301Y27139600D01*
Y26639600D02*
X18421500Y26741199D01*
X18523100D01*
X18472301Y26639600D01*
X18222301Y28889600D02*
X18171500Y28991199D01*
X18273100D01*
X18222301Y28889600D01*
Y28389600D02*
X18171500Y28491199D01*
X18273100D01*
X18222301Y28389600D01*
Y27889600D02*
X18171500Y27991199D01*
X18273100D01*
X18222301Y27889600D01*
Y27639600D02*
X18171500Y27741199D01*
X18273100D01*
X18222301Y27639600D01*
Y27389600D02*
X18171500Y27491199D01*
X18273100D01*
X18222301Y27389600D01*
Y27139600D02*
X18171500Y27241199D01*
X18273100D01*
X18222301Y27139600D01*
Y26639600D02*
X18171500Y26741199D01*
X18273100D01*
X18222301Y26639600D01*
X17972301Y27639600D02*
X17921500Y27741199D01*
X18023100D01*
X17972301Y27639600D01*
Y27139600D02*
X17921500Y27241199D01*
X18023100D01*
X17972301Y27139600D01*
Y26889600D02*
X17921500Y26991199D01*
X18023100D01*
X17972301Y26889600D01*
Y26639600D02*
X17921500Y26741199D01*
X18023100D01*
X17972301Y26639600D01*
X17722301Y29639600D02*
X17671500Y29741199D01*
X17773100D01*
X17722301Y29639600D01*
Y27889600D02*
X17671500Y27991199D01*
X17773100D01*
X17722301Y27889600D01*
Y27639600D02*
X17671500Y27741199D01*
X17773100D01*
X17722301Y27639600D01*
Y26889600D02*
X17671500Y26991199D01*
X17773100D01*
X17722301Y26889600D01*
Y26639600D02*
X17671500Y26741199D01*
X17773100D01*
X17722301Y26639600D01*
X17472301Y30139600D02*
X17421500Y30241199D01*
X17523100D01*
X17472301Y30139600D01*
Y28639600D02*
X17421500Y28741199D01*
X17523100D01*
X17472301Y28639600D01*
Y28389600D02*
X17421500Y28491199D01*
X17523100D01*
X17472301Y28389600D01*
Y27889600D02*
X17421500Y27991199D01*
X17523100D01*
X17472301Y27889600D01*
Y27639600D02*
X17421500Y27741199D01*
X17523100D01*
X17472301Y27639600D01*
Y26889600D02*
X17421500Y26991199D01*
X17523100D01*
X17472301Y26889600D01*
X17222301Y30139600D02*
X17171500Y30241199D01*
X17273100D01*
X17222301Y30139600D01*
Y29889600D02*
X17171500Y29991199D01*
X17273100D01*
X17222301Y29889600D01*
Y28639600D02*
X17171500Y28741199D01*
X17273100D01*
X17222301Y28639600D01*
Y28389600D02*
X17171500Y28491199D01*
X17273100D01*
X17222301Y28389600D01*
Y27889600D02*
X17171500Y27991199D01*
X17273100D01*
X17222301Y27889600D01*
Y27639600D02*
X17171500Y27741199D01*
X17273100D01*
X17222301Y27639600D01*
Y27139600D02*
X17171500Y27241199D01*
X17273100D01*
X17222301Y27139600D01*
X16972301Y30139600D02*
X16921500Y30241199D01*
X17023100D01*
X16972301Y30139600D01*
Y29889600D02*
X16921500Y29991199D01*
X17023100D01*
X16972301Y29889600D01*
Y28889600D02*
X16921500Y28991199D01*
X17023100D01*
X16972301Y28889600D01*
Y28639600D02*
X16921500Y28741199D01*
X17023100D01*
X16972301Y28639600D01*
Y28389600D02*
X16921500Y28491199D01*
X17023100D01*
X16972301Y28389600D01*
Y27639600D02*
X16921500Y27741199D01*
X17023100D01*
X16972301Y27639600D01*
Y27139600D02*
X16921500Y27241199D01*
X17023100D01*
X16972301Y27139600D01*
X16722301Y30139600D02*
X16671500Y30241199D01*
X16773100D01*
X16722301Y30139600D01*
Y28889600D02*
X16671500Y28991199D01*
X16773100D01*
X16722301Y28889600D01*
Y28639600D02*
X16671500Y28741199D01*
X16773100D01*
X16722301Y28639600D01*
Y28389600D02*
X16671500Y28491199D01*
X16773100D01*
X16722301Y28389600D01*
Y27389600D02*
X16671500Y27491199D01*
X16773100D01*
X16722301Y27389600D01*
Y27139600D02*
X16671500Y27241199D01*
X16773100D01*
X16722301Y27139600D01*
X16472301Y30139600D02*
X16421500Y30241199D01*
X16523100D01*
X16472301Y30139600D01*
Y29889600D02*
X16421500Y29991199D01*
X16523100D01*
X16472301Y29889600D01*
Y28889600D02*
X16421500Y28991199D01*
X16523100D01*
X16472301Y28889600D01*
Y28639600D02*
X16421500Y28741199D01*
X16523100D01*
X16472301Y28639600D01*
Y28389600D02*
X16421500Y28491199D01*
X16523100D01*
X16472301Y28389600D01*
Y27639600D02*
X16421500Y27741199D01*
X16523100D01*
X16472301Y27639600D01*
Y27389600D02*
X16421500Y27491199D01*
X16523100D01*
X16472301Y27389600D01*
Y27139600D02*
X16421500Y27241199D01*
X16523100D01*
X16472301Y27139600D01*
Y26889600D02*
X16421500Y26991199D01*
X16523100D01*
X16472301Y26889600D01*
X16222301Y30139600D02*
X16171500Y30241199D01*
X16273100D01*
X16222301Y30139600D01*
Y29889600D02*
X16171500Y29991199D01*
X16273100D01*
X16222301Y29889600D01*
Y28889600D02*
X16171500Y28991199D01*
X16273100D01*
X16222301Y28889600D01*
Y28639600D02*
X16171500Y28741199D01*
X16273100D01*
X16222301Y28639600D01*
Y28389600D02*
X16171500Y28491199D01*
X16273100D01*
X16222301Y28389600D01*
Y27639600D02*
X16171500Y27741199D01*
X16273100D01*
X16222301Y27639600D01*
Y27389600D02*
X16171500Y27491199D01*
X16273100D01*
X16222301Y27389600D01*
Y27139600D02*
X16171500Y27241199D01*
X16273100D01*
X16222301Y27139600D01*
Y26889600D02*
X16171500Y26991199D01*
X16273100D01*
X16222301Y26889600D01*
Y26639600D02*
X16171500Y26741199D01*
X16273100D01*
X16222301Y26639600D01*
X15972301Y29889600D02*
X15921500Y29991199D01*
X16023100D01*
X15972301Y29889600D01*
Y29139600D02*
X15921500Y29241199D01*
X16023100D01*
X15972301Y29139600D01*
Y28889600D02*
X15921500Y28991199D01*
X16023100D01*
X15972301Y28889600D01*
Y28639600D02*
X15921500Y28741199D01*
X16023100D01*
X15972301Y28639600D01*
Y28139600D02*
X15921500Y28241199D01*
X16023100D01*
X15972301Y28139600D01*
Y27889600D02*
X15921500Y27991199D01*
X16023100D01*
X15972301Y27889600D01*
Y27639600D02*
X15921500Y27741199D01*
X16023100D01*
X15972301Y27639600D01*
Y27389600D02*
X15921500Y27491199D01*
X16023100D01*
X15972301Y27389600D01*
Y27139600D02*
X15921500Y27241199D01*
X16023100D01*
X15972301Y27139600D01*
Y26889600D02*
X15921500Y26991199D01*
X16023100D01*
X15972301Y26889600D01*
Y26639600D02*
X15921500Y26741199D01*
X16023100D01*
X15972301Y26639600D01*
X15722301Y28889600D02*
X15671500Y28991199D01*
X15773100D01*
X15722301Y28889600D01*
Y28639600D02*
X15671500Y28741199D01*
X15773100D01*
X15722301Y28639600D01*
Y28139600D02*
X15671500Y28241199D01*
X15773100D01*
X15722301Y28139600D01*
Y27889600D02*
X15671500Y27991199D01*
X15773100D01*
X15722301Y27889600D01*
Y27639600D02*
X15671500Y27741199D01*
X15773100D01*
X15722301Y27639600D01*
Y27389600D02*
X15671500Y27491199D01*
X15773100D01*
X15722301Y27389600D01*
Y27139600D02*
X15671500Y27241199D01*
X15773100D01*
X15722301Y27139600D01*
Y26889600D02*
X15671500Y26991199D01*
X15773100D01*
X15722301Y26889600D01*
Y26639600D02*
X15671500Y26741199D01*
X15773100D01*
X15722301Y26639600D01*
X15472301Y29889600D02*
X15421500Y29991199D01*
X15523100D01*
X15472301Y29889600D01*
Y29639600D02*
X15421500Y29741199D01*
X15523100D01*
X15472301Y29639600D01*
Y29389600D02*
X15421500Y29491199D01*
X15523100D01*
X15472301Y29389600D01*
Y29139600D02*
X15421500Y29241199D01*
X15523100D01*
X15472301Y29139600D01*
Y28889600D02*
X15421500Y28991199D01*
X15523100D01*
X15472301Y28889600D01*
Y28639600D02*
X15421500Y28741199D01*
X15523100D01*
X15472301Y28639600D01*
Y28389600D02*
X15421500Y28491199D01*
X15523100D01*
X15472301Y28389600D01*
Y27639600D02*
X15421500Y27741199D01*
X15523100D01*
X15472301Y27639600D01*
Y27389600D02*
X15421500Y27491199D01*
X15523100D01*
X15472301Y27389600D01*
Y27139600D02*
X15421500Y27241199D01*
X15523100D01*
X15472301Y27139600D01*
Y26889600D02*
X15421500Y26991199D01*
X15523100D01*
X15472301Y26889600D01*
Y26639600D02*
X15421500Y26741199D01*
X15523100D01*
X15472301Y26639600D01*
X15222301Y30139600D02*
X15171500Y30241199D01*
X15273100D01*
X15222301Y30139600D01*
Y29889600D02*
X15171500Y29991199D01*
X15273100D01*
X15222301Y29889600D01*
Y29639600D02*
X15171500Y29741199D01*
X15273100D01*
X15222301Y29639600D01*
Y29389600D02*
X15171500Y29491199D01*
X15273100D01*
X15222301Y29389600D01*
Y29139600D02*
X15171500Y29241199D01*
X15273100D01*
X15222301Y29139600D01*
Y28889600D02*
X15171500Y28991199D01*
X15273100D01*
X15222301Y28889600D01*
Y28639600D02*
X15171500Y28741199D01*
X15273100D01*
X15222301Y28639600D01*
Y28389600D02*
X15171500Y28491199D01*
X15273100D01*
X15222301Y28389600D01*
Y27639600D02*
X15171500Y27741199D01*
X15273100D01*
X15222301Y27639600D01*
Y27389600D02*
X15171500Y27491199D01*
X15273100D01*
X15222301Y27389600D01*
Y27139600D02*
X15171500Y27241199D01*
X15273100D01*
X15222301Y27139600D01*
Y26889600D02*
X15171500Y26991199D01*
X15273100D01*
X15222301Y26889600D01*
Y26639600D02*
X15171500Y26741199D01*
X15273100D01*
X15222301Y26639600D01*
X14972301Y30139600D02*
X14921500Y30241199D01*
X15023100D01*
X14972301Y30139600D01*
Y29889600D02*
X14921500Y29991199D01*
X15023100D01*
X14972301Y29889600D01*
Y29639600D02*
X14921500Y29741199D01*
X15023100D01*
X14972301Y29639600D01*
Y29389600D02*
X14921500Y29491199D01*
X15023100D01*
X14972301Y29389600D01*
Y29139600D02*
X14921500Y29241199D01*
X15023100D01*
X14972301Y29139600D01*
Y28889600D02*
X14921500Y28991199D01*
X15023100D01*
X14972301Y28889600D01*
Y28389600D02*
X14921500Y28491199D01*
X15023100D01*
X14972301Y28389600D01*
Y27139600D02*
X14921500Y27241199D01*
X15023100D01*
X14972301Y27139600D01*
Y26889600D02*
X14921500Y26991199D01*
X15023100D01*
X14972301Y26889600D01*
Y26639600D02*
X14921500Y26741199D01*
X15023100D01*
X14972301Y26639600D01*
X14722301Y30139600D02*
X14671500Y30241199D01*
X14773100D01*
X14722301Y30139600D01*
Y29889600D02*
X14671500Y29991199D01*
X14773100D01*
X14722301Y29889600D01*
Y29639600D02*
X14671500Y29741199D01*
X14773100D01*
X14722301Y29639600D01*
Y29389600D02*
X14671500Y29491199D01*
X14773100D01*
X14722301Y29389600D01*
Y29139600D02*
X14671500Y29241199D01*
X14773100D01*
X14722301Y29139600D01*
Y28889600D02*
X14671500Y28991199D01*
X14773100D01*
X14722301Y28889600D01*
Y27639600D02*
X14671500Y27741199D01*
X14773100D01*
X14722301Y27639600D01*
Y26889600D02*
X14671500Y26991199D01*
X14773100D01*
X14722301Y26889600D01*
Y26639600D02*
X14671500Y26741199D01*
X14773100D01*
X14722301Y26639600D01*
X14472301Y30139600D02*
X14421500Y30241199D01*
X14523100D01*
X14472301Y30139600D01*
Y29889600D02*
X14421500Y29991199D01*
X14523100D01*
X14472301Y29889600D01*
Y29639600D02*
X14421500Y29741199D01*
X14523100D01*
X14472301Y29639600D01*
Y29389600D02*
X14421500Y29491199D01*
X14523100D01*
X14472301Y29389600D01*
Y29139600D02*
X14421500Y29241199D01*
X14523100D01*
X14472301Y29139600D01*
Y28889600D02*
X14421500Y28991199D01*
X14523100D01*
X14472301Y28889600D01*
Y28389600D02*
X14421500Y28491199D01*
X14523100D01*
X14472301Y28389600D01*
Y28139600D02*
X14421500Y28241199D01*
X14523100D01*
X14472301Y28139600D01*
Y27889600D02*
X14421500Y27991199D01*
X14523100D01*
X14472301Y27889600D01*
Y27639600D02*
X14421500Y27741199D01*
X14523100D01*
X14472301Y27639600D01*
Y27139600D02*
X14421500Y27241199D01*
X14523100D01*
X14472301Y27139600D01*
Y26889600D02*
X14421500Y26991199D01*
X14523100D01*
X14472301Y26889600D01*
Y26639600D02*
X14421500Y26741199D01*
X14523100D01*
X14472301Y26639600D01*
X15397099Y27984201D02*
X15346300Y28085800D01*
X15447900D01*
X15397099Y27984201D01*
X16915309Y27362735D02*
X16864510Y27464337D01*
X16966109D01*
X16915309Y27362735D01*
X17013597Y27461023D02*
X16962798Y27562625D01*
X17064397D01*
X17013597Y27461023D01*
X14698599Y28121301D02*
X14647800Y28222900D01*
X14749400D01*
X14698599Y28121301D01*
X15232001D02*
X15181200Y28222900D01*
X15282800D01*
X15232001Y28121301D01*
X14698599Y27920700D02*
X14647800Y28022299D01*
X14749400D01*
X14698599Y27920700D01*
X15155800D02*
X15105000Y28022299D01*
X15206599D01*
X15155800Y27920700D01*
D61*
X11328400Y12293600D02*
G03*
X11328400Y12293600I-50800J0D01*
G01*
X11582400D02*
G03*
X11582400Y12293600I-50800J0D01*
G01*
X9078900D02*
G03*
X9078900Y12293600I-50800J0D01*
G01*
X9332900D02*
G03*
X9332900Y12293600I-50800J0D01*
G01*
X17899001D02*
G03*
X17899001Y12293600I-50800J0D01*
G01*
X18153000D02*
G03*
X18153000Y12293600I-50800J0D01*
G01*
X15649500D02*
G03*
X15649500Y12293600I-50800J0D01*
G01*
X15903500D02*
G03*
X15903500Y12293600I-50800J0D01*
G01*
X11328400Y16794099D02*
G03*
X11328400Y16794099I-50800J0D01*
G01*
X11582400D02*
G03*
X11582400Y16794099I-50800J0D01*
G01*
X9078900D02*
G03*
X9078900Y16794099I-50800J0D01*
G01*
X9332900D02*
G03*
X9332900Y16794099I-50800J0D01*
G01*
X17899001D02*
G03*
X17899001Y16794099I-50800J0D01*
G01*
X18153000D02*
G03*
X18153000Y16794099I-50800J0D01*
G01*
X15649500D02*
G03*
X15649500Y16794099I-50800J0D01*
G01*
X15903500D02*
G03*
X15903500Y16794099I-50800J0D01*
G01*
X11328400Y21294600D02*
G03*
X11328400Y21294600I-50800J0D01*
G01*
X11582400D02*
G03*
X11582400Y21294600I-50800J0D01*
G01*
X9078900D02*
G03*
X9078900Y21294600I-50800J0D01*
G01*
X9332900D02*
G03*
X9332900Y21294600I-50800J0D01*
G01*
X17899001D02*
G03*
X17899001Y21294600I-50800J0D01*
G01*
X18153000D02*
G03*
X18153000Y21294600I-50800J0D01*
G01*
X15649500D02*
G03*
X15649500Y21294600I-50800J0D01*
G01*
X15903500D02*
G03*
X15903500Y21294600I-50800J0D01*
G01*
X11328400Y25795099D02*
G03*
X11328400Y25795099I-50800J0D01*
G01*
X11582400D02*
G03*
X11582400Y25795099I-50800J0D01*
G01*
X9078900D02*
G03*
X9078900Y25795099I-50800J0D01*
G01*
X9332900D02*
G03*
X9332900Y25795099I-50800J0D01*
G01*
X17899001D02*
G03*
X17899001Y25795099I-50800J0D01*
G01*
X18153000D02*
G03*
X18153000Y25795099I-50800J0D01*
G01*
X15649500D02*
G03*
X15649500Y25795099I-50800J0D01*
G01*
X15903500D02*
G03*
X15903500Y25795099I-50800J0D01*
G01*
X11328400Y30295599D02*
G03*
X11328400Y30295599I-50800J0D01*
G01*
X11582400D02*
G03*
X11582400Y30295599I-50800J0D01*
G01*
X9078900D02*
G03*
X9078900Y30295599I-50800J0D01*
G01*
X9332900D02*
G03*
X9332900Y30295599I-50800J0D01*
G01*
X17899001D02*
G03*
X17899001Y30295599I-50800J0D01*
G01*
X18153000D02*
G03*
X18153000Y30295599I-50800J0D01*
G01*
X15649500D02*
G03*
X15649500Y30295599I-50800J0D01*
G01*
X15903500D02*
G03*
X15903500Y30295599I-50800J0D01*
G01*
%TF.MD5,5ae6856eaccb815b1ef9bcaef1101319*%
M02*
