%TF.GenerationSoftware,Altium Limited,Altium Designer,23.9.2 (47)*%
G04 Layer_Physical_Order=2*
G04 Layer_Color=16711680*
%FSLAX45Y45*%
%MOMM*%
%TF.SameCoordinates,AD479AB8-1AF9-481E-9C01-A3E3F564F201*%
%TF.FilePolarity,Positive*%
%TF.FileFunction,Copper,L2,Bot,Signal*%
%TF.Part,CustomerPanel*%
G01*
G75*
%TA.AperFunction,SMDPad,CuDef*%
%ADD10C,3.00000*%
%ADD11R,6.00000X1.00000*%
%ADD16R,1.50000X1.40000*%
%TA.AperFunction,Conductor*%
%ADD20C,0.25000*%
%ADD23C,0.24200*%
%TA.AperFunction,ComponentPad*%
%ADD25C,1.75000*%
%ADD26C,1.50000*%
%ADD27R,1.50000X1.50000*%
%TA.AperFunction,ViaPad*%
%ADD28C,0.50000*%
G36*
X19552969Y29355801D02*
X19554675Y29347217D01*
X19559538Y29339938D01*
X19566817Y29335077D01*
X19575400Y29333368D01*
X20150310D01*
X20251469Y29232208D01*
Y26837790D01*
X20143959Y26730280D01*
X19581750D01*
X19573166Y26728574D01*
X19565889Y26723712D01*
X19559538Y26717361D01*
X19554675Y26710083D01*
X19552969Y26701501D01*
Y26571091D01*
X19540709Y26558832D01*
X17491556D01*
X17488527Y26605035D01*
X17475108Y26672495D01*
X17453000Y26737625D01*
X17422578Y26799313D01*
X17384366Y26856503D01*
X17339015Y26908215D01*
X17287302Y26953568D01*
X17230113Y26991779D01*
X17168425Y27022198D01*
X17103294Y27044308D01*
X17035834Y27057727D01*
X16967200Y27062225D01*
X16898566Y27057727D01*
X16831107Y27044308D01*
X16765974Y27022198D01*
X16704288Y26991779D01*
X16647098Y26953568D01*
X16595386Y26908215D01*
X16550034Y26856503D01*
X16511823Y26799313D01*
X16481400Y26737625D01*
X16459291Y26672495D01*
X16445872Y26605035D01*
X16442844Y26558832D01*
X14237991D01*
X14225731Y26571091D01*
Y28911301D01*
Y30514468D01*
X19552969D01*
Y29355801D01*
D02*
G37*
G36*
X12982368D02*
X12984076Y29347217D01*
X12988939Y29339938D01*
X12996216Y29335077D01*
X13004800Y29333368D01*
X13579709D01*
X13680869Y29232208D01*
Y26837790D01*
X13573360Y26730280D01*
X13011150D01*
X13002567Y26728574D01*
X12995290Y26723712D01*
X12988939Y26717361D01*
X12984076Y26710083D01*
X12982368Y26701501D01*
Y26571091D01*
X12970110Y26558832D01*
X10920956D01*
X10917927Y26605035D01*
X10904509Y26672495D01*
X10882400Y26737625D01*
X10851978Y26799313D01*
X10813766Y26856503D01*
X10768415Y26908215D01*
X10716702Y26953568D01*
X10659513Y26991779D01*
X10597825Y27022198D01*
X10532694Y27044308D01*
X10465234Y27057727D01*
X10396600Y27062225D01*
X10327966Y27057727D01*
X10260506Y27044308D01*
X10195375Y27022198D01*
X10133687Y26991779D01*
X10076498Y26953568D01*
X10024785Y26908215D01*
X9979434Y26856503D01*
X9941222Y26799313D01*
X9910800Y26737625D01*
X9888691Y26672495D01*
X9875273Y26605035D01*
X9872244Y26558832D01*
X7667391D01*
X7655131Y26571091D01*
Y28911301D01*
Y30514468D01*
X12982368D01*
Y29355801D01*
D02*
G37*
G36*
X19552969Y24855299D02*
X19554675Y24846716D01*
X19559538Y24839439D01*
X19566817Y24834576D01*
X19575400Y24832869D01*
X20150310D01*
X20251469Y24731709D01*
Y22337291D01*
X20143959Y22229781D01*
X19581750D01*
X19573166Y22228075D01*
X19565889Y22223212D01*
X19559538Y22216861D01*
X19554675Y22209584D01*
X19552969Y22200999D01*
Y22070592D01*
X19540709Y22058331D01*
X17491556D01*
X17488527Y22104533D01*
X17475108Y22171994D01*
X17453000Y22237125D01*
X17422578Y22298813D01*
X17384366Y22356003D01*
X17339015Y22407715D01*
X17287302Y22453065D01*
X17230113Y22491278D01*
X17168425Y22521700D01*
X17103294Y22543810D01*
X17035834Y22557227D01*
X16967200Y22561726D01*
X16898566Y22557227D01*
X16831107Y22543810D01*
X16765974Y22521700D01*
X16704288Y22491278D01*
X16647098Y22453065D01*
X16595386Y22407715D01*
X16550034Y22356003D01*
X16511823Y22298813D01*
X16481400Y22237125D01*
X16459291Y22171994D01*
X16445872Y22104533D01*
X16442844Y22058331D01*
X14237991D01*
X14225731Y22070592D01*
Y24410800D01*
Y26013968D01*
X19552969D01*
Y24855299D01*
D02*
G37*
G36*
X12982368D02*
X12984076Y24846716D01*
X12988939Y24839439D01*
X12996216Y24834576D01*
X13004800Y24832869D01*
X13579709D01*
X13680869Y24731709D01*
Y22337291D01*
X13573360Y22229781D01*
X13011150D01*
X13002567Y22228075D01*
X12995290Y22223212D01*
X12988939Y22216861D01*
X12984076Y22209584D01*
X12982368Y22200999D01*
Y22070592D01*
X12970110Y22058331D01*
X10920956D01*
X10917927Y22104533D01*
X10904509Y22171994D01*
X10882400Y22237125D01*
X10851978Y22298813D01*
X10813766Y22356003D01*
X10768415Y22407715D01*
X10716702Y22453065D01*
X10659513Y22491278D01*
X10597825Y22521700D01*
X10532694Y22543810D01*
X10465234Y22557227D01*
X10396600Y22561726D01*
X10327966Y22557227D01*
X10260506Y22543810D01*
X10195375Y22521700D01*
X10133687Y22491278D01*
X10076498Y22453065D01*
X10024785Y22407715D01*
X9979434Y22356003D01*
X9941222Y22298813D01*
X9910800Y22237125D01*
X9888691Y22171994D01*
X9875273Y22104533D01*
X9872244Y22058331D01*
X7667391D01*
X7655131Y22070592D01*
Y24410800D01*
Y26013968D01*
X12982368D01*
Y24855299D01*
D02*
G37*
G36*
X19552969Y20354800D02*
X19554675Y20346216D01*
X19559538Y20338939D01*
X19566817Y20334076D01*
X19575400Y20332368D01*
X20150310D01*
X20251469Y20231209D01*
Y17836790D01*
X20143959Y17729282D01*
X19581750D01*
X19573166Y17727574D01*
X19565889Y17722711D01*
X19559538Y17716360D01*
X19554675Y17709084D01*
X19552969Y17700500D01*
Y17570091D01*
X19540709Y17557831D01*
X17491556D01*
X17488527Y17604034D01*
X17475108Y17671494D01*
X17453000Y17736626D01*
X17422578Y17798312D01*
X17384366Y17855502D01*
X17339015Y17907214D01*
X17287302Y17952567D01*
X17230113Y17990778D01*
X17168425Y18021201D01*
X17103294Y18043309D01*
X17035834Y18056728D01*
X16967200Y18061226D01*
X16898566Y18056728D01*
X16831107Y18043309D01*
X16765974Y18021201D01*
X16704288Y17990778D01*
X16647098Y17952567D01*
X16595386Y17907214D01*
X16550034Y17855502D01*
X16511823Y17798312D01*
X16481400Y17736626D01*
X16459291Y17671494D01*
X16445872Y17604034D01*
X16442844Y17557831D01*
X14237991D01*
X14225731Y17570091D01*
Y19910300D01*
Y21513469D01*
X19552969D01*
Y20354800D01*
D02*
G37*
G36*
X12982368D02*
X12984076Y20346216D01*
X12988939Y20338939D01*
X12996216Y20334076D01*
X13004800Y20332368D01*
X13579709D01*
X13680869Y20231209D01*
Y17836790D01*
X13573360Y17729282D01*
X13011150D01*
X13002567Y17727574D01*
X12995290Y17722711D01*
X12988939Y17716360D01*
X12984076Y17709084D01*
X12982368Y17700500D01*
Y17570091D01*
X12970110Y17557831D01*
X10920956D01*
X10917927Y17604034D01*
X10904509Y17671494D01*
X10882400Y17736626D01*
X10851978Y17798312D01*
X10813766Y17855502D01*
X10768415Y17907214D01*
X10716702Y17952567D01*
X10659513Y17990778D01*
X10597825Y18021201D01*
X10532694Y18043309D01*
X10465234Y18056728D01*
X10396600Y18061226D01*
X10327966Y18056728D01*
X10260506Y18043309D01*
X10195375Y18021201D01*
X10133687Y17990778D01*
X10076498Y17952567D01*
X10024785Y17907214D01*
X9979434Y17855502D01*
X9941222Y17798312D01*
X9910800Y17736626D01*
X9888691Y17671494D01*
X9875273Y17604034D01*
X9872244Y17557831D01*
X7667391D01*
X7655131Y17570091D01*
Y19910300D01*
Y21513469D01*
X12982368D01*
Y20354800D01*
D02*
G37*
G36*
X19552969Y15854300D02*
X19554675Y15845715D01*
X19559538Y15838438D01*
X19566817Y15833575D01*
X19575400Y15831870D01*
X20150310D01*
X20251469Y15730708D01*
Y13336292D01*
X20143959Y13228781D01*
X19581750D01*
X19573166Y13227074D01*
X19565889Y13222211D01*
X19559538Y13215862D01*
X19554675Y13208585D01*
X19552969Y13200000D01*
Y13069591D01*
X19540709Y13057330D01*
X17491556D01*
X17488527Y13103534D01*
X17475108Y13170995D01*
X17453000Y13236125D01*
X17422578Y13297813D01*
X17384366Y13355003D01*
X17339015Y13406715D01*
X17287302Y13452066D01*
X17230113Y13490279D01*
X17168425Y13520700D01*
X17103294Y13542809D01*
X17035834Y13556227D01*
X16967200Y13560725D01*
X16898566Y13556227D01*
X16831107Y13542809D01*
X16765974Y13520700D01*
X16704288Y13490279D01*
X16647098Y13452066D01*
X16595386Y13406715D01*
X16550034Y13355003D01*
X16511823Y13297813D01*
X16481400Y13236125D01*
X16459291Y13170995D01*
X16445872Y13103534D01*
X16442844Y13057330D01*
X14237991D01*
X14225731Y13069591D01*
Y15409801D01*
Y17012968D01*
X19552969D01*
Y15854300D01*
D02*
G37*
G36*
X12982368D02*
X12984076Y15845715D01*
X12988939Y15838438D01*
X12996216Y15833575D01*
X13004800Y15831870D01*
X13579709D01*
X13680869Y15730708D01*
Y13336292D01*
X13573360Y13228781D01*
X13011150D01*
X13002567Y13227074D01*
X12995290Y13222211D01*
X12988939Y13215862D01*
X12984076Y13208585D01*
X12982368Y13200000D01*
Y13069591D01*
X12970110Y13057330D01*
X10920956D01*
X10917927Y13103534D01*
X10904509Y13170995D01*
X10882400Y13236125D01*
X10851978Y13297813D01*
X10813766Y13355003D01*
X10768415Y13406715D01*
X10716702Y13452066D01*
X10659513Y13490279D01*
X10597825Y13520700D01*
X10532694Y13542809D01*
X10465234Y13556227D01*
X10396600Y13560725D01*
X10327966Y13556227D01*
X10260506Y13542809D01*
X10195375Y13520700D01*
X10133687Y13490279D01*
X10076498Y13452066D01*
X10024785Y13406715D01*
X9979434Y13355003D01*
X9941222Y13297813D01*
X9910800Y13236125D01*
X9888691Y13170995D01*
X9875273Y13103534D01*
X9872244Y13057330D01*
X7667391D01*
X7655131Y13069591D01*
Y15409801D01*
Y17012968D01*
X12982368D01*
Y15854300D01*
D02*
G37*
G36*
X19552969Y11353800D02*
X19554675Y11345216D01*
X19559538Y11337939D01*
X19566817Y11333076D01*
X19575400Y11331369D01*
X20150310D01*
X20251469Y11230209D01*
Y8835791D01*
X20143959Y8728281D01*
X19581750D01*
X19573166Y8726574D01*
X19565889Y8721711D01*
X19559538Y8715361D01*
X19554675Y8708084D01*
X19552969Y8699500D01*
Y8569091D01*
X19540709Y8556831D01*
X17491556D01*
X17488527Y8603034D01*
X17475108Y8670494D01*
X17453000Y8735625D01*
X17422578Y8797313D01*
X17384366Y8854502D01*
X17339015Y8906215D01*
X17287302Y8951566D01*
X17230113Y8989778D01*
X17168425Y9020200D01*
X17103294Y9042309D01*
X17035834Y9055727D01*
X16967200Y9060226D01*
X16898566Y9055727D01*
X16831107Y9042309D01*
X16765974Y9020200D01*
X16704288Y8989778D01*
X16647098Y8951566D01*
X16595386Y8906215D01*
X16550034Y8854502D01*
X16511823Y8797313D01*
X16481400Y8735625D01*
X16459291Y8670494D01*
X16445872Y8603034D01*
X16442844Y8556831D01*
X14237991D01*
X14225731Y8569091D01*
Y10909300D01*
Y12512469D01*
X19552969D01*
Y11353800D01*
D02*
G37*
G36*
X12982368D02*
X12984076Y11345216D01*
X12988939Y11337939D01*
X12996216Y11333076D01*
X13004800Y11331369D01*
X13579709D01*
X13680869Y11230209D01*
Y8835791D01*
X13573360Y8728281D01*
X13011150D01*
X13002567Y8726574D01*
X12995290Y8721711D01*
X12988939Y8715361D01*
X12984076Y8708084D01*
X12982368Y8699500D01*
Y8569091D01*
X12970110Y8556831D01*
X10920956D01*
X10917927Y8603034D01*
X10904509Y8670494D01*
X10882400Y8735625D01*
X10851978Y8797313D01*
X10813766Y8854502D01*
X10768415Y8906215D01*
X10716702Y8951566D01*
X10659513Y8989778D01*
X10597825Y9020200D01*
X10532694Y9042309D01*
X10465234Y9055727D01*
X10396600Y9060226D01*
X10327966Y9055727D01*
X10260506Y9042309D01*
X10195375Y9020200D01*
X10133687Y8989778D01*
X10076498Y8951566D01*
X10024785Y8906215D01*
X9979434Y8854502D01*
X9941222Y8797313D01*
X9910800Y8735625D01*
X9888691Y8670494D01*
X9875273Y8603034D01*
X9872244Y8556831D01*
X7667391D01*
X7655131Y8569091D01*
Y10909300D01*
Y12512469D01*
X12982368D01*
Y11353800D01*
D02*
G37*
%LPC*%
G36*
X18202600Y30395999D02*
X18114900D01*
Y30308301D01*
X18202600D01*
Y30395999D01*
D02*
G37*
G36*
X15611919D02*
X15611400D01*
Y30308301D01*
X15699100D01*
Y30308817D01*
X15692258Y30334354D01*
X15679041Y30357248D01*
X15660347Y30375940D01*
X15637453Y30389157D01*
X15611919Y30395999D01*
D02*
G37*
G36*
X15586000D02*
X15585481D01*
X15559947Y30389157D01*
X15537053Y30375940D01*
X15518359Y30357248D01*
X15505142Y30334354D01*
X15498300Y30308817D01*
Y30308301D01*
X15586000D01*
Y30395999D01*
D02*
G37*
G36*
X18089500D02*
X18001801D01*
Y30308301D01*
X18089500D01*
Y30395999D01*
D02*
G37*
G36*
X17859654Y30382599D02*
X17836746D01*
X17814619Y30376672D01*
X17794781Y30365216D01*
X17778583Y30349020D01*
X17767130Y30329181D01*
X17761200Y30307053D01*
Y30284146D01*
X17767130Y30262018D01*
X17778583Y30242181D01*
X17794781Y30225983D01*
X17814619Y30214529D01*
X17836746Y30208600D01*
X17859654D01*
X17881781Y30214529D01*
X17901619Y30225983D01*
X17917818Y30242181D01*
X17929271Y30262018D01*
X17935201Y30284146D01*
Y30307053D01*
X17929271Y30329181D01*
X17917818Y30349020D01*
X17901619Y30365216D01*
X17881781Y30376672D01*
X17859654Y30382599D01*
D02*
G37*
G36*
X15939700D02*
X15765700D01*
Y30208600D01*
X15939700D01*
Y30382599D01*
D02*
G37*
G36*
X18202600Y30282901D02*
X18114900D01*
Y30195200D01*
X18202600D01*
Y30282901D01*
D02*
G37*
G36*
X18089500D02*
X18001801D01*
Y30195200D01*
X18089500D01*
Y30282901D01*
D02*
G37*
G36*
X15699100D02*
X15611400D01*
Y30195200D01*
X15611919D01*
X15637453Y30202042D01*
X15660347Y30215259D01*
X15679041Y30233954D01*
X15692258Y30256848D01*
X15699100Y30282382D01*
Y30282901D01*
D02*
G37*
G36*
X15586000D02*
X15498300D01*
Y30282382D01*
X15505142Y30256848D01*
X15518359Y30233954D01*
X15537053Y30215259D01*
X15559947Y30202042D01*
X15585481Y30195200D01*
X15586000D01*
Y30282901D01*
D02*
G37*
G36*
X20167500Y29253400D02*
X19854800D01*
Y29190701D01*
X20167500D01*
Y29253400D01*
D02*
G37*
G36*
X19829401D02*
X19516701D01*
Y29190701D01*
X19829401D01*
Y29253400D01*
D02*
G37*
G36*
X20167500Y29165302D02*
X19854800D01*
Y29102600D01*
X20167500D01*
Y29165302D01*
D02*
G37*
G36*
X19829401D02*
X19516701D01*
Y29102600D01*
X19829401D01*
Y29165302D01*
D02*
G37*
G36*
X20167500Y28999399D02*
X19854800D01*
Y28936700D01*
X20167500D01*
Y28999399D01*
D02*
G37*
G36*
X19829401D02*
X19516701D01*
Y28936700D01*
X19829401D01*
Y28999399D01*
D02*
G37*
G36*
X20167500Y28911301D02*
X19854800D01*
Y28848599D01*
X20167500D01*
Y28911301D01*
D02*
G37*
G36*
X19829401D02*
X19516701D01*
Y28848599D01*
X19829401D01*
Y28911301D01*
D02*
G37*
G36*
X20167500Y28745401D02*
X19854800D01*
Y28682700D01*
X20167500D01*
Y28745401D01*
D02*
G37*
G36*
X19829401D02*
X19516701D01*
Y28682700D01*
X19829401D01*
Y28745401D01*
D02*
G37*
G36*
X20167500Y28657300D02*
X19854800D01*
Y28594601D01*
X20167500D01*
Y28657300D01*
D02*
G37*
G36*
X19829401D02*
X19516701D01*
Y28594601D01*
X19829401D01*
Y28657300D01*
D02*
G37*
G36*
X20167500Y28491400D02*
X19854800D01*
Y28428699D01*
X20167500D01*
Y28491400D01*
D02*
G37*
G36*
X19829401D02*
X19516701D01*
Y28428699D01*
X19829401D01*
Y28491400D01*
D02*
G37*
G36*
X14664099Y28625345D02*
X14637901D01*
X14612595Y28618564D01*
X14589906Y28605466D01*
X14571381Y28586938D01*
X14558281Y28564252D01*
X14551500Y28538943D01*
Y28512747D01*
X14558281Y28487439D01*
X14571381Y28464752D01*
X14589906Y28446225D01*
X14612595Y28433127D01*
X14637901Y28426346D01*
X14664099D01*
X14689404Y28433127D01*
X14712094Y28446225D01*
X14730620Y28464752D01*
X14743719Y28487439D01*
X14750500Y28512747D01*
Y28538943D01*
X14743719Y28564252D01*
X14730620Y28586938D01*
X14712094Y28605466D01*
X14689404Y28618564D01*
X14664099Y28625345D01*
D02*
G37*
G36*
X20167500Y28403299D02*
X19854800D01*
Y28340601D01*
X20167500D01*
Y28403299D01*
D02*
G37*
G36*
X19829401D02*
X19516701D01*
Y28340601D01*
X19829401D01*
Y28403299D01*
D02*
G37*
G36*
X20167500Y28237399D02*
X19854800D01*
Y28174701D01*
X20167500D01*
Y28237399D01*
D02*
G37*
G36*
X19829401D02*
X19516701D01*
Y28174701D01*
X19829401D01*
Y28237399D01*
D02*
G37*
G36*
X15191299Y28237781D02*
X14739301D01*
X14729739Y28235880D01*
X14721637Y28230463D01*
X14700273Y28209100D01*
X14691240D01*
X14677641Y28203467D01*
X14667233Y28193060D01*
X14661600Y28179459D01*
Y28164740D01*
X14667233Y28151141D01*
X14677641Y28140732D01*
X14691240Y28135101D01*
X14705960D01*
X14719559Y28140732D01*
X14729967Y28151141D01*
X14735600Y28164740D01*
Y28173773D01*
X14749648Y28187820D01*
X15180952D01*
X15195000Y28173773D01*
Y28164740D01*
X15200633Y28151141D01*
X15211041Y28140732D01*
X15224640Y28135101D01*
X15239360D01*
X15252959Y28140732D01*
X15263367Y28151141D01*
X15269000Y28164740D01*
Y28179459D01*
X15263367Y28193060D01*
X15252959Y28203467D01*
X15239360Y28209100D01*
X15230327D01*
X15208963Y28230463D01*
X15200861Y28235880D01*
X15191299Y28237781D01*
D02*
G37*
G36*
X20167500Y28149301D02*
X19854800D01*
Y28086600D01*
X20167500D01*
Y28149301D01*
D02*
G37*
G36*
X19829401D02*
X19516701D01*
Y28086600D01*
X19829401D01*
Y28149301D01*
D02*
G37*
G36*
X15404460Y28072000D02*
X15389740D01*
X15376141Y28066367D01*
X15365733Y28055960D01*
X15360100Y28042361D01*
Y28027640D01*
X15365733Y28014041D01*
X15376141Y28003632D01*
X15389740Y27998001D01*
X15404460D01*
X15418059Y28003632D01*
X15428467Y28014041D01*
X15434100Y28027640D01*
Y28042361D01*
X15428467Y28055960D01*
X15418059Y28066367D01*
X15404460Y28072000D01*
D02*
G37*
G36*
X15163161Y28008499D02*
X15148441D01*
X15134840Y28002866D01*
X15128455Y27996481D01*
X14725946D01*
X14719559Y28002866D01*
X14705960Y28008499D01*
X14691240D01*
X14677641Y28002866D01*
X14667233Y27992459D01*
X14661600Y27978860D01*
Y27964139D01*
X14667233Y27950540D01*
X14677641Y27940134D01*
X14691240Y27934500D01*
X14705960D01*
X14719559Y27940134D01*
X14725946Y27946521D01*
X15128455D01*
X15134840Y27940134D01*
X15148441Y27934500D01*
X15163161D01*
X15176759Y27940134D01*
X15187167Y27950540D01*
X15192799Y27964139D01*
Y27978860D01*
X15187167Y27992459D01*
X15176759Y28002866D01*
X15163161Y28008499D01*
D02*
G37*
G36*
X20167500Y27983401D02*
X19854800D01*
Y27920700D01*
X20167500D01*
Y27983401D01*
D02*
G37*
G36*
X19829401D02*
X19516701D01*
Y27920700D01*
X19829401D01*
Y27983401D01*
D02*
G37*
G36*
X20167500Y27895300D02*
X19854800D01*
Y27832599D01*
X20167500D01*
Y27895300D01*
D02*
G37*
G36*
X19829401D02*
X19516701D01*
Y27832599D01*
X19829401D01*
Y27895300D01*
D02*
G37*
G36*
X19103600Y27721701D02*
X18929601D01*
Y27584174D01*
X18929311Y27582721D01*
X18065379D01*
X18055977Y27580853D01*
X18048006Y27575525D01*
X17966211Y27493732D01*
X17960884Y27485760D01*
X17959013Y27476355D01*
Y27428943D01*
X17833157D01*
Y27579709D01*
X17831288Y27589114D01*
X17825961Y27597086D01*
X17804346Y27618701D01*
X17796375Y27624026D01*
X17786971Y27625897D01*
X17581401D01*
X17571999Y27624026D01*
X17564026Y27618701D01*
X17542410Y27597086D01*
X17537083Y27589114D01*
X17535213Y27579709D01*
Y27239752D01*
X17409358D01*
Y27593564D01*
X17407487Y27602969D01*
X17402161Y27610941D01*
X17380545Y27632556D01*
X17372572Y27637881D01*
X17363170Y27639752D01*
X17157600D01*
X17148196Y27637881D01*
X17140227Y27632556D01*
X17118610Y27610941D01*
X17113283Y27602969D01*
X17111414Y27593564D01*
Y27439752D01*
X17048441D01*
Y27499258D01*
X17050597Y27504465D01*
Y27519183D01*
X17044965Y27532782D01*
X17034555Y27543192D01*
X17020956Y27548822D01*
X17006236D01*
X16992638Y27543192D01*
X16982230Y27532782D01*
X16976598Y27519183D01*
Y27504465D01*
X16982230Y27490866D01*
X16992638Y27480457D01*
X16999297Y27477698D01*
Y27440103D01*
X16997945Y27429190D01*
X16987030Y27427835D01*
X16949434D01*
X16946677Y27434494D01*
X16936269Y27444904D01*
X16922668Y27450537D01*
X16907948D01*
X16894350Y27444904D01*
X16883942Y27434494D01*
X16878310Y27420895D01*
Y27406177D01*
X16883942Y27392578D01*
X16894350Y27382169D01*
X16907948Y27376535D01*
X16922668D01*
X16927875Y27378693D01*
X16987598D01*
X17005385Y27360904D01*
X17013356Y27355579D01*
X17022760Y27353708D01*
X17137093D01*
X17146497Y27355579D01*
X17154469Y27360904D01*
X17190260Y27396698D01*
X17195587Y27404669D01*
X17197456Y27414072D01*
Y27553708D01*
X17323312D01*
Y27199896D01*
X17325185Y27190494D01*
X17330510Y27182520D01*
X17352126Y27160904D01*
X17360098Y27155579D01*
X17369501Y27153708D01*
X17575070D01*
X17584473Y27155579D01*
X17592445Y27160904D01*
X17614061Y27182520D01*
X17619386Y27190494D01*
X17621259Y27199896D01*
Y27539853D01*
X17747115D01*
Y27389087D01*
X17748984Y27379684D01*
X17754311Y27371710D01*
X17775926Y27350095D01*
X17783897Y27344769D01*
X17793301Y27342899D01*
X17998871D01*
X18008273Y27344769D01*
X18016246Y27350095D01*
X18037862Y27371710D01*
X18043188Y27379684D01*
X18045058Y27389087D01*
Y27450894D01*
X18090843Y27496677D01*
X18929311D01*
X18929601Y27495224D01*
Y27357700D01*
X19103600D01*
Y27495224D01*
X19103889Y27496677D01*
X19403288D01*
X19408791Y27491174D01*
X19416762Y27485849D01*
X19426166Y27483978D01*
X19792128D01*
Y27462000D01*
X19530099D01*
Y27338000D01*
X20154100D01*
Y27462000D01*
X19841272D01*
Y27494373D01*
X19839401Y27503778D01*
X19834074Y27511749D01*
X19827496Y27518326D01*
X19820737Y27526999D01*
X19827496Y27535672D01*
X19834074Y27542252D01*
X19839401Y27550223D01*
X19841272Y27559625D01*
Y27592001D01*
X20154100D01*
Y27716000D01*
X19530099D01*
Y27592001D01*
X19792128D01*
Y27570023D01*
X19451628D01*
X19446124Y27575525D01*
X19438153Y27580853D01*
X19428751Y27582721D01*
X19103889D01*
X19103600Y27584174D01*
Y27721701D01*
D02*
G37*
G36*
X14664099Y27535645D02*
X14637901D01*
X14612595Y27528864D01*
X14589906Y27515765D01*
X14571381Y27497241D01*
X14558281Y27474551D01*
X14551500Y27449246D01*
Y27423047D01*
X14558281Y27397739D01*
X14571381Y27375052D01*
X14589906Y27356525D01*
X14612595Y27343427D01*
X14637901Y27336646D01*
X14664099D01*
X14689404Y27343427D01*
X14712094Y27356525D01*
X14730620Y27375052D01*
X14743719Y27397739D01*
X14750500Y27423047D01*
Y27449246D01*
X14743719Y27474551D01*
X14730620Y27497241D01*
X14712094Y27515765D01*
X14689404Y27528864D01*
X14664099Y27535645D01*
D02*
G37*
G36*
X20167500Y27221399D02*
X19854800D01*
Y27158701D01*
X20167500D01*
Y27221399D01*
D02*
G37*
G36*
X19829401D02*
X19516701D01*
Y27158701D01*
X19829401D01*
Y27221399D01*
D02*
G37*
G36*
X20167500Y27133301D02*
X19854800D01*
Y27070599D01*
X20167500D01*
Y27133301D01*
D02*
G37*
G36*
X19829401D02*
X19516701D01*
Y27070599D01*
X19829401D01*
Y27133301D01*
D02*
G37*
G36*
X20167500Y26967401D02*
X19854800D01*
Y26904700D01*
X20167500D01*
Y26967401D01*
D02*
G37*
G36*
X19829401D02*
X19516701D01*
Y26904700D01*
X19829401D01*
Y26967401D01*
D02*
G37*
G36*
X20167500Y26879300D02*
X19854800D01*
Y26816599D01*
X20167500D01*
Y26879300D01*
D02*
G37*
G36*
X19829401D02*
X19516701D01*
Y26816599D01*
X19829401D01*
Y26879300D01*
D02*
G37*
G36*
X11632000Y30395999D02*
X11544300D01*
Y30308301D01*
X11632000D01*
Y30395999D01*
D02*
G37*
G36*
X9041318D02*
X9040800D01*
Y30308301D01*
X9128500D01*
Y30308817D01*
X9121658Y30334354D01*
X9108440Y30357248D01*
X9089747Y30375940D01*
X9066853Y30389157D01*
X9041318Y30395999D01*
D02*
G37*
G36*
X9015400D02*
X9014882D01*
X8989347Y30389157D01*
X8966453Y30375940D01*
X8947760Y30357248D01*
X8934542Y30334354D01*
X8927700Y30308817D01*
Y30308301D01*
X9015400D01*
Y30395999D01*
D02*
G37*
G36*
X11518900D02*
X11431200D01*
Y30308301D01*
X11518900D01*
Y30395999D01*
D02*
G37*
G36*
X11289054Y30382599D02*
X11266146D01*
X11244019Y30376672D01*
X11224181Y30365216D01*
X11207983Y30349020D01*
X11196529Y30329181D01*
X11190600Y30307053D01*
Y30284146D01*
X11196529Y30262018D01*
X11207983Y30242181D01*
X11224181Y30225983D01*
X11244019Y30214529D01*
X11266146Y30208600D01*
X11289054D01*
X11311181Y30214529D01*
X11331019Y30225983D01*
X11347217Y30242181D01*
X11358671Y30262018D01*
X11364600Y30284146D01*
Y30307053D01*
X11358671Y30329181D01*
X11347217Y30349020D01*
X11331019Y30365216D01*
X11311181Y30376672D01*
X11289054Y30382599D01*
D02*
G37*
G36*
X9369100D02*
X9195100D01*
Y30208600D01*
X9369100D01*
Y30382599D01*
D02*
G37*
G36*
X11632000Y30282901D02*
X11544300D01*
Y30195200D01*
X11632000D01*
Y30282901D01*
D02*
G37*
G36*
X11518900D02*
X11431200D01*
Y30195200D01*
X11518900D01*
Y30282901D01*
D02*
G37*
G36*
X9128500D02*
X9040800D01*
Y30195200D01*
X9041318D01*
X9066853Y30202042D01*
X9089747Y30215259D01*
X9108440Y30233954D01*
X9121658Y30256848D01*
X9128500Y30282382D01*
Y30282901D01*
D02*
G37*
G36*
X9015400D02*
X8927700D01*
Y30282382D01*
X8934542Y30256848D01*
X8947760Y30233954D01*
X8966453Y30215259D01*
X8989347Y30202042D01*
X9014882Y30195200D01*
X9015400D01*
Y30282901D01*
D02*
G37*
G36*
X13596899Y29253400D02*
X13284200D01*
Y29190701D01*
X13596899D01*
Y29253400D01*
D02*
G37*
G36*
X13258800D02*
X12946100D01*
Y29190701D01*
X13258800D01*
Y29253400D01*
D02*
G37*
G36*
X13596899Y29165302D02*
X13284200D01*
Y29102600D01*
X13596899D01*
Y29165302D01*
D02*
G37*
G36*
X13258800D02*
X12946100D01*
Y29102600D01*
X13258800D01*
Y29165302D01*
D02*
G37*
G36*
X13596899Y28999399D02*
X13284200D01*
Y28936700D01*
X13596899D01*
Y28999399D01*
D02*
G37*
G36*
X13258800D02*
X12946100D01*
Y28936700D01*
X13258800D01*
Y28999399D01*
D02*
G37*
G36*
X13596899Y28911301D02*
X13284200D01*
Y28848599D01*
X13596899D01*
Y28911301D01*
D02*
G37*
G36*
X13258800D02*
X12946100D01*
Y28848599D01*
X13258800D01*
Y28911301D01*
D02*
G37*
G36*
X13596899Y28745401D02*
X13284200D01*
Y28682700D01*
X13596899D01*
Y28745401D01*
D02*
G37*
G36*
X13258800D02*
X12946100D01*
Y28682700D01*
X13258800D01*
Y28745401D01*
D02*
G37*
G36*
X13596899Y28657300D02*
X13284200D01*
Y28594601D01*
X13596899D01*
Y28657300D01*
D02*
G37*
G36*
X13258800D02*
X12946100D01*
Y28594601D01*
X13258800D01*
Y28657300D01*
D02*
G37*
G36*
X13596899Y28491400D02*
X13284200D01*
Y28428699D01*
X13596899D01*
Y28491400D01*
D02*
G37*
G36*
X13258800D02*
X12946100D01*
Y28428699D01*
X13258800D01*
Y28491400D01*
D02*
G37*
G36*
X8093499Y28625345D02*
X8067301D01*
X8041994Y28618564D01*
X8019306Y28605466D01*
X8000780Y28586938D01*
X7987681Y28564252D01*
X7980900Y28538943D01*
Y28512747D01*
X7987681Y28487439D01*
X8000780Y28464752D01*
X8019306Y28446225D01*
X8041994Y28433127D01*
X8067301Y28426346D01*
X8093499D01*
X8118805Y28433127D01*
X8141494Y28446225D01*
X8160019Y28464752D01*
X8173119Y28487439D01*
X8179900Y28512747D01*
Y28538943D01*
X8173119Y28564252D01*
X8160019Y28586938D01*
X8141494Y28605466D01*
X8118805Y28618564D01*
X8093499Y28625345D01*
D02*
G37*
G36*
X13596899Y28403299D02*
X13284200D01*
Y28340601D01*
X13596899D01*
Y28403299D01*
D02*
G37*
G36*
X13258800D02*
X12946100D01*
Y28340601D01*
X13258800D01*
Y28403299D01*
D02*
G37*
G36*
X13596899Y28237399D02*
X13284200D01*
Y28174701D01*
X13596899D01*
Y28237399D01*
D02*
G37*
G36*
X13258800D02*
X12946100D01*
Y28174701D01*
X13258800D01*
Y28237399D01*
D02*
G37*
G36*
X8620700Y28237781D02*
X8168700D01*
X8159140Y28235880D01*
X8151037Y28230463D01*
X8129673Y28209100D01*
X8120640D01*
X8107041Y28203467D01*
X8096633Y28193060D01*
X8091000Y28179459D01*
Y28164740D01*
X8096633Y28151141D01*
X8107041Y28140732D01*
X8120640Y28135101D01*
X8135360D01*
X8148959Y28140732D01*
X8159367Y28151141D01*
X8165000Y28164740D01*
Y28173773D01*
X8179047Y28187820D01*
X8610353D01*
X8624400Y28173773D01*
Y28164740D01*
X8630033Y28151141D01*
X8640441Y28140732D01*
X8654040Y28135101D01*
X8668760D01*
X8682359Y28140732D01*
X8692767Y28151141D01*
X8698400Y28164740D01*
Y28179459D01*
X8692767Y28193060D01*
X8682359Y28203467D01*
X8668760Y28209100D01*
X8659727D01*
X8638363Y28230463D01*
X8630260Y28235880D01*
X8620700Y28237781D01*
D02*
G37*
G36*
X13596899Y28149301D02*
X13284200D01*
Y28086600D01*
X13596899D01*
Y28149301D01*
D02*
G37*
G36*
X13258800D02*
X12946100D01*
Y28086600D01*
X13258800D01*
Y28149301D01*
D02*
G37*
G36*
X8833860Y28072000D02*
X8819140D01*
X8805541Y28066367D01*
X8795133Y28055960D01*
X8789500Y28042361D01*
Y28027640D01*
X8795133Y28014041D01*
X8805541Y28003632D01*
X8819140Y27998001D01*
X8833860D01*
X8847459Y28003632D01*
X8857867Y28014041D01*
X8863500Y28027640D01*
Y28042361D01*
X8857867Y28055960D01*
X8847459Y28066367D01*
X8833860Y28072000D01*
D02*
G37*
G36*
X8592560Y28008499D02*
X8577840D01*
X8564241Y28002866D01*
X8557854Y27996481D01*
X8155346D01*
X8148959Y28002866D01*
X8135360Y28008499D01*
X8120640D01*
X8107041Y28002866D01*
X8096633Y27992459D01*
X8091000Y27978860D01*
Y27964139D01*
X8096633Y27950540D01*
X8107041Y27940134D01*
X8120640Y27934500D01*
X8135360D01*
X8148959Y27940134D01*
X8155346Y27946521D01*
X8557854D01*
X8564241Y27940134D01*
X8577840Y27934500D01*
X8592560D01*
X8606159Y27940134D01*
X8616567Y27950540D01*
X8622200Y27964139D01*
Y27978860D01*
X8616567Y27992459D01*
X8606159Y28002866D01*
X8592560Y28008499D01*
D02*
G37*
G36*
X13596899Y27983401D02*
X13284200D01*
Y27920700D01*
X13596899D01*
Y27983401D01*
D02*
G37*
G36*
X13258800D02*
X12946100D01*
Y27920700D01*
X13258800D01*
Y27983401D01*
D02*
G37*
G36*
X13596899Y27895300D02*
X13284200D01*
Y27832599D01*
X13596899D01*
Y27895300D01*
D02*
G37*
G36*
X13258800D02*
X12946100D01*
Y27832599D01*
X13258800D01*
Y27895300D01*
D02*
G37*
G36*
X12533000Y27721701D02*
X12359000D01*
Y27584174D01*
X12358711Y27582721D01*
X11494780D01*
X11485377Y27580853D01*
X11477405Y27575525D01*
X11395611Y27493732D01*
X11390284Y27485760D01*
X11388414Y27476355D01*
Y27428943D01*
X11262558D01*
Y27579709D01*
X11260688Y27589114D01*
X11255361Y27597086D01*
X11233745Y27618701D01*
X11225774Y27624026D01*
X11216370Y27625897D01*
X11010801D01*
X11001398Y27624026D01*
X10993426Y27618701D01*
X10971810Y27597086D01*
X10966484Y27589114D01*
X10964613Y27579709D01*
Y27239752D01*
X10838758D01*
Y27593564D01*
X10836887Y27602969D01*
X10831561Y27610941D01*
X10809945Y27632556D01*
X10801973Y27637881D01*
X10792570Y27639752D01*
X10587001D01*
X10577597Y27637881D01*
X10569626Y27632556D01*
X10548010Y27610941D01*
X10542683Y27602969D01*
X10540813Y27593564D01*
Y27439752D01*
X10477840D01*
Y27499258D01*
X10479997Y27504465D01*
Y27519183D01*
X10474364Y27532782D01*
X10463955Y27543192D01*
X10450356Y27548822D01*
X10435637D01*
X10422038Y27543192D01*
X10411630Y27532782D01*
X10405997Y27519183D01*
Y27504465D01*
X10411630Y27490866D01*
X10422038Y27480457D01*
X10428696Y27477698D01*
Y27440103D01*
X10427344Y27429190D01*
X10416430Y27427835D01*
X10378834D01*
X10376076Y27434494D01*
X10365668Y27444904D01*
X10352068Y27450537D01*
X10337349D01*
X10323750Y27444904D01*
X10313342Y27434494D01*
X10307709Y27420895D01*
Y27406177D01*
X10313342Y27392578D01*
X10323750Y27382169D01*
X10337349Y27376535D01*
X10352068D01*
X10357274Y27378693D01*
X10416998D01*
X10434785Y27360904D01*
X10442756Y27355579D01*
X10452160Y27353708D01*
X10566493D01*
X10575897Y27355579D01*
X10583869Y27360904D01*
X10619660Y27396698D01*
X10624987Y27404669D01*
X10626857Y27414072D01*
Y27553708D01*
X10752713D01*
Y27199896D01*
X10754584Y27190494D01*
X10759910Y27182520D01*
X10781526Y27160904D01*
X10789498Y27155579D01*
X10798901Y27153708D01*
X11004470D01*
X11013873Y27155579D01*
X11021845Y27160904D01*
X11043461Y27182520D01*
X11048787Y27190494D01*
X11050658Y27199896D01*
Y27539853D01*
X11176514D01*
Y27389087D01*
X11178384Y27379684D01*
X11183711Y27371710D01*
X11205326Y27350095D01*
X11213298Y27344769D01*
X11222701Y27342899D01*
X11428271D01*
X11437674Y27344769D01*
X11445646Y27350095D01*
X11467261Y27371710D01*
X11472588Y27379684D01*
X11474458Y27389087D01*
Y27450894D01*
X11520243Y27496677D01*
X12358711D01*
X12359000Y27495224D01*
Y27357700D01*
X12533000D01*
Y27495224D01*
X12533289Y27496677D01*
X12832687D01*
X12838190Y27491174D01*
X12846162Y27485849D01*
X12855566Y27483978D01*
X13221529D01*
Y27462000D01*
X12959500D01*
Y27338000D01*
X13583501D01*
Y27462000D01*
X13270673D01*
Y27494373D01*
X13268802Y27503778D01*
X13263475Y27511749D01*
X13256897Y27518326D01*
X13250137Y27526999D01*
X13256897Y27535672D01*
X13263475Y27542252D01*
X13268802Y27550223D01*
X13270673Y27559625D01*
Y27592001D01*
X13583501D01*
Y27716000D01*
X12959500D01*
Y27592001D01*
X13221529D01*
Y27570023D01*
X12881029D01*
X12875525Y27575525D01*
X12867554Y27580853D01*
X12858150Y27582721D01*
X12533289D01*
X12533000Y27584174D01*
Y27721701D01*
D02*
G37*
G36*
X8093499Y27535645D02*
X8067301D01*
X8041994Y27528864D01*
X8019306Y27515765D01*
X8000780Y27497241D01*
X7987681Y27474551D01*
X7980900Y27449246D01*
Y27423047D01*
X7987681Y27397739D01*
X8000780Y27375052D01*
X8019306Y27356525D01*
X8041994Y27343427D01*
X8067301Y27336646D01*
X8093499D01*
X8118805Y27343427D01*
X8141494Y27356525D01*
X8160019Y27375052D01*
X8173119Y27397739D01*
X8179900Y27423047D01*
Y27449246D01*
X8173119Y27474551D01*
X8160019Y27497241D01*
X8141494Y27515765D01*
X8118805Y27528864D01*
X8093499Y27535645D01*
D02*
G37*
G36*
X13596899Y27221399D02*
X13284200D01*
Y27158701D01*
X13596899D01*
Y27221399D01*
D02*
G37*
G36*
X13258800D02*
X12946100D01*
Y27158701D01*
X13258800D01*
Y27221399D01*
D02*
G37*
G36*
X13596899Y27133301D02*
X13284200D01*
Y27070599D01*
X13596899D01*
Y27133301D01*
D02*
G37*
G36*
X13258800D02*
X12946100D01*
Y27070599D01*
X13258800D01*
Y27133301D01*
D02*
G37*
G36*
X13596899Y26967401D02*
X13284200D01*
Y26904700D01*
X13596899D01*
Y26967401D01*
D02*
G37*
G36*
X13258800D02*
X12946100D01*
Y26904700D01*
X13258800D01*
Y26967401D01*
D02*
G37*
G36*
X13596899Y26879300D02*
X13284200D01*
Y26816599D01*
X13596899D01*
Y26879300D01*
D02*
G37*
G36*
X13258800D02*
X12946100D01*
Y26816599D01*
X13258800D01*
Y26879300D01*
D02*
G37*
G36*
X18202600Y25895499D02*
X18114900D01*
Y25807800D01*
X18202600D01*
Y25895499D01*
D02*
G37*
G36*
X15611919D02*
X15611400D01*
Y25807800D01*
X15699100D01*
Y25808319D01*
X15692258Y25833853D01*
X15679041Y25856747D01*
X15660347Y25875439D01*
X15637453Y25888657D01*
X15611919Y25895499D01*
D02*
G37*
G36*
X15586000D02*
X15585481D01*
X15559947Y25888657D01*
X15537053Y25875439D01*
X15518359Y25856747D01*
X15505142Y25833853D01*
X15498300Y25808319D01*
Y25807800D01*
X15586000D01*
Y25895499D01*
D02*
G37*
G36*
X18089500D02*
X18001801D01*
Y25807800D01*
X18089500D01*
Y25895499D01*
D02*
G37*
G36*
X17859654Y25882101D02*
X17836746D01*
X17814619Y25876172D01*
X17794781Y25864716D01*
X17778583Y25848520D01*
X17767130Y25828680D01*
X17761200Y25806555D01*
Y25783646D01*
X17767130Y25761520D01*
X17778583Y25741681D01*
X17794781Y25725482D01*
X17814619Y25714029D01*
X17836746Y25708099D01*
X17859654D01*
X17881781Y25714029D01*
X17901619Y25725482D01*
X17917818Y25741681D01*
X17929271Y25761520D01*
X17935201Y25783646D01*
Y25806555D01*
X17929271Y25828680D01*
X17917818Y25848520D01*
X17901619Y25864716D01*
X17881781Y25876172D01*
X17859654Y25882101D01*
D02*
G37*
G36*
X15939700D02*
X15765700D01*
Y25708099D01*
X15939700D01*
Y25882101D01*
D02*
G37*
G36*
X18202600Y25782401D02*
X18114900D01*
Y25694699D01*
X18202600D01*
Y25782401D01*
D02*
G37*
G36*
X18089500D02*
X18001801D01*
Y25694699D01*
X18089500D01*
Y25782401D01*
D02*
G37*
G36*
X15699100D02*
X15611400D01*
Y25694699D01*
X15611919D01*
X15637453Y25701541D01*
X15660347Y25714761D01*
X15679041Y25733453D01*
X15692258Y25756348D01*
X15699100Y25781882D01*
Y25782401D01*
D02*
G37*
G36*
X15586000D02*
X15498300D01*
Y25781882D01*
X15505142Y25756348D01*
X15518359Y25733453D01*
X15537053Y25714761D01*
X15559947Y25701541D01*
X15585481Y25694699D01*
X15586000D01*
Y25782401D01*
D02*
G37*
G36*
X20167500Y24752901D02*
X19854800D01*
Y24690199D01*
X20167500D01*
Y24752901D01*
D02*
G37*
G36*
X19829401D02*
X19516701D01*
Y24690199D01*
X19829401D01*
Y24752901D01*
D02*
G37*
G36*
X20167500Y24664799D02*
X19854800D01*
Y24602100D01*
X20167500D01*
Y24664799D01*
D02*
G37*
G36*
X19829401D02*
X19516701D01*
Y24602100D01*
X19829401D01*
Y24664799D01*
D02*
G37*
G36*
X20167500Y24498900D02*
X19854800D01*
Y24436200D01*
X20167500D01*
Y24498900D01*
D02*
G37*
G36*
X19829401D02*
X19516701D01*
Y24436200D01*
X19829401D01*
Y24498900D01*
D02*
G37*
G36*
X20167500Y24410800D02*
X19854800D01*
Y24348100D01*
X20167500D01*
Y24410800D01*
D02*
G37*
G36*
X19829401D02*
X19516701D01*
Y24348100D01*
X19829401D01*
Y24410800D01*
D02*
G37*
G36*
X20167500Y24244901D02*
X19854800D01*
Y24182201D01*
X20167500D01*
Y24244901D01*
D02*
G37*
G36*
X19829401D02*
X19516701D01*
Y24182201D01*
X19829401D01*
Y24244901D01*
D02*
G37*
G36*
X20167500Y24156799D02*
X19854800D01*
Y24094099D01*
X20167500D01*
Y24156799D01*
D02*
G37*
G36*
X19829401D02*
X19516701D01*
Y24094099D01*
X19829401D01*
Y24156799D01*
D02*
G37*
G36*
X20167500Y23990900D02*
X19854800D01*
Y23928200D01*
X20167500D01*
Y23990900D01*
D02*
G37*
G36*
X19829401D02*
X19516701D01*
Y23928200D01*
X19829401D01*
Y23990900D01*
D02*
G37*
G36*
X14664099Y24124846D02*
X14637901D01*
X14612595Y24118065D01*
X14589906Y24104965D01*
X14571381Y24086440D01*
X14558281Y24063751D01*
X14551500Y24038445D01*
Y24012247D01*
X14558281Y23986940D01*
X14571381Y23964252D01*
X14589906Y23945726D01*
X14612595Y23932626D01*
X14637901Y23925845D01*
X14664099D01*
X14689404Y23932626D01*
X14712094Y23945726D01*
X14730620Y23964252D01*
X14743719Y23986940D01*
X14750500Y24012247D01*
Y24038445D01*
X14743719Y24063751D01*
X14730620Y24086440D01*
X14712094Y24104965D01*
X14689404Y24118065D01*
X14664099Y24124846D01*
D02*
G37*
G36*
X20167500Y23902800D02*
X19854800D01*
Y23840100D01*
X20167500D01*
Y23902800D01*
D02*
G37*
G36*
X19829401D02*
X19516701D01*
Y23840100D01*
X19829401D01*
Y23902800D01*
D02*
G37*
G36*
X20167500Y23736900D02*
X19854800D01*
Y23674200D01*
X20167500D01*
Y23736900D01*
D02*
G37*
G36*
X19829401D02*
X19516701D01*
Y23674200D01*
X19829401D01*
Y23736900D01*
D02*
G37*
G36*
X15191299Y23737280D02*
X14739301D01*
X14729739Y23735378D01*
X14721637Y23729964D01*
X14700273Y23708600D01*
X14691240D01*
X14677641Y23702966D01*
X14667233Y23692558D01*
X14661600Y23678960D01*
Y23664240D01*
X14667233Y23650641D01*
X14677641Y23640233D01*
X14691240Y23634599D01*
X14705960D01*
X14719559Y23640233D01*
X14729967Y23650641D01*
X14735600Y23664240D01*
Y23673273D01*
X14749648Y23687320D01*
X15180952D01*
X15195000Y23673273D01*
Y23664240D01*
X15200633Y23650641D01*
X15211041Y23640233D01*
X15224640Y23634599D01*
X15239360D01*
X15252959Y23640233D01*
X15263367Y23650641D01*
X15269000Y23664240D01*
Y23678960D01*
X15263367Y23692558D01*
X15252959Y23702966D01*
X15239360Y23708600D01*
X15230327D01*
X15208963Y23729964D01*
X15200861Y23735378D01*
X15191299Y23737280D01*
D02*
G37*
G36*
X20167500Y23648801D02*
X19854800D01*
Y23586099D01*
X20167500D01*
Y23648801D01*
D02*
G37*
G36*
X19829401D02*
X19516701D01*
Y23586099D01*
X19829401D01*
Y23648801D01*
D02*
G37*
G36*
X15404460Y23571500D02*
X15389740D01*
X15376141Y23565868D01*
X15365733Y23555460D01*
X15360100Y23541859D01*
Y23527139D01*
X15365733Y23513541D01*
X15376141Y23503133D01*
X15389740Y23497501D01*
X15404460D01*
X15418059Y23503133D01*
X15428467Y23513541D01*
X15434100Y23527139D01*
Y23541859D01*
X15428467Y23555460D01*
X15418059Y23565868D01*
X15404460Y23571500D01*
D02*
G37*
G36*
X15163161Y23508000D02*
X15148441D01*
X15134840Y23502367D01*
X15128455Y23495979D01*
X14725946D01*
X14719559Y23502367D01*
X14705960Y23508000D01*
X14691240D01*
X14677641Y23502367D01*
X14667233Y23491959D01*
X14661600Y23478360D01*
Y23463640D01*
X14667233Y23450041D01*
X14677641Y23439633D01*
X14691240Y23434000D01*
X14705960D01*
X14719559Y23439633D01*
X14725946Y23446021D01*
X15128455D01*
X15134840Y23439633D01*
X15148441Y23434000D01*
X15163161D01*
X15176759Y23439633D01*
X15187167Y23450041D01*
X15192799Y23463640D01*
Y23478360D01*
X15187167Y23491959D01*
X15176759Y23502367D01*
X15163161Y23508000D01*
D02*
G37*
G36*
X20167500Y23482899D02*
X19854800D01*
Y23420200D01*
X20167500D01*
Y23482899D01*
D02*
G37*
G36*
X19829401D02*
X19516701D01*
Y23420200D01*
X19829401D01*
Y23482899D01*
D02*
G37*
G36*
X20167500Y23394800D02*
X19854800D01*
Y23332100D01*
X20167500D01*
Y23394800D01*
D02*
G37*
G36*
X19829401D02*
X19516701D01*
Y23332100D01*
X19829401D01*
Y23394800D01*
D02*
G37*
G36*
X19103600Y23221201D02*
X18929601D01*
Y23083675D01*
X18929311Y23082222D01*
X18065379D01*
X18055977Y23080351D01*
X18048006Y23075024D01*
X17966211Y22993231D01*
X17960884Y22985258D01*
X17959013Y22975856D01*
Y22928442D01*
X17833157D01*
Y23079210D01*
X17831288Y23088612D01*
X17825961Y23096585D01*
X17804346Y23118201D01*
X17796375Y23123528D01*
X17786971Y23125397D01*
X17581401D01*
X17571999Y23123528D01*
X17564026Y23118201D01*
X17542410Y23096585D01*
X17537083Y23088612D01*
X17535213Y23079210D01*
Y22739253D01*
X17409358D01*
Y23093065D01*
X17407487Y23102467D01*
X17402161Y23110440D01*
X17380545Y23132056D01*
X17372572Y23137383D01*
X17363170Y23139253D01*
X17157600D01*
X17148196Y23137383D01*
X17140227Y23132056D01*
X17118610Y23110440D01*
X17113283Y23102467D01*
X17111414Y23093065D01*
Y22939253D01*
X17048441D01*
Y22998758D01*
X17050597Y23003964D01*
Y23018683D01*
X17044965Y23032281D01*
X17034555Y23042691D01*
X17020956Y23048323D01*
X17006236D01*
X16992638Y23042691D01*
X16982230Y23032281D01*
X16976598Y23018683D01*
Y23003964D01*
X16982230Y22990366D01*
X16992638Y22979958D01*
X16999297Y22977199D01*
Y22939603D01*
X16997945Y22928690D01*
X16987030Y22927336D01*
X16949434D01*
X16946677Y22933995D01*
X16936269Y22944403D01*
X16922668Y22950037D01*
X16907948D01*
X16894350Y22944403D01*
X16883942Y22933995D01*
X16878310Y22920395D01*
Y22905676D01*
X16883942Y22892078D01*
X16894350Y22881670D01*
X16907948Y22876036D01*
X16922668D01*
X16927875Y22878192D01*
X16987598D01*
X17005385Y22860405D01*
X17013356Y22855080D01*
X17022760Y22853207D01*
X17137093D01*
X17146497Y22855080D01*
X17154469Y22860405D01*
X17190260Y22896198D01*
X17195587Y22904169D01*
X17197456Y22913573D01*
Y23053207D01*
X17323312D01*
Y22699396D01*
X17325185Y22689993D01*
X17330510Y22682021D01*
X17352126Y22660405D01*
X17360098Y22655080D01*
X17369501Y22653207D01*
X17575070D01*
X17584473Y22655080D01*
X17592445Y22660405D01*
X17614061Y22682021D01*
X17619386Y22689993D01*
X17621259Y22699396D01*
Y23039352D01*
X17747115D01*
Y22888586D01*
X17748984Y22879182D01*
X17754311Y22871211D01*
X17775926Y22849596D01*
X17783897Y22844269D01*
X17793301Y22842398D01*
X17998871D01*
X18008273Y22844269D01*
X18016246Y22849596D01*
X18037862Y22871211D01*
X18043188Y22879182D01*
X18045058Y22888586D01*
Y22950394D01*
X18090843Y22996178D01*
X18929311D01*
X18929601Y22994725D01*
Y22857201D01*
X19103600D01*
Y22994725D01*
X19103889Y22996178D01*
X19403288D01*
X19408791Y22990675D01*
X19416762Y22985349D01*
X19426166Y22983478D01*
X19792128D01*
Y22961501D01*
X19530099D01*
Y22837500D01*
X20154100D01*
Y22961501D01*
X19841272D01*
Y22993874D01*
X19839401Y23003278D01*
X19834074Y23011249D01*
X19827496Y23017827D01*
X19820737Y23026500D01*
X19827496Y23035173D01*
X19834074Y23041751D01*
X19839401Y23049722D01*
X19841272Y23059126D01*
Y23091499D01*
X20154100D01*
Y23215500D01*
X19530099D01*
Y23091499D01*
X19792128D01*
Y23069522D01*
X19451628D01*
X19446124Y23075024D01*
X19438153Y23080351D01*
X19428751Y23082222D01*
X19103889D01*
X19103600Y23083675D01*
Y23221201D01*
D02*
G37*
G36*
X14664099Y23035146D02*
X14637901D01*
X14612595Y23028365D01*
X14589906Y23015265D01*
X14571381Y22996741D01*
X14558281Y22974051D01*
X14551500Y22948746D01*
Y22922546D01*
X14558281Y22897240D01*
X14571381Y22874551D01*
X14589906Y22856026D01*
X14612595Y22842926D01*
X14637901Y22836147D01*
X14664099D01*
X14689404Y22842926D01*
X14712094Y22856026D01*
X14730620Y22874551D01*
X14743719Y22897240D01*
X14750500Y22922546D01*
Y22948746D01*
X14743719Y22974051D01*
X14730620Y22996741D01*
X14712094Y23015265D01*
X14689404Y23028365D01*
X14664099Y23035146D01*
D02*
G37*
G36*
X20167500Y22720900D02*
X19854800D01*
Y22658200D01*
X20167500D01*
Y22720900D01*
D02*
G37*
G36*
X19829401D02*
X19516701D01*
Y22658200D01*
X19829401D01*
Y22720900D01*
D02*
G37*
G36*
X20167500Y22632800D02*
X19854800D01*
Y22570100D01*
X20167500D01*
Y22632800D01*
D02*
G37*
G36*
X19829401D02*
X19516701D01*
Y22570100D01*
X19829401D01*
Y22632800D01*
D02*
G37*
G36*
X20167500Y22466901D02*
X19854800D01*
Y22404201D01*
X20167500D01*
Y22466901D01*
D02*
G37*
G36*
X19829401D02*
X19516701D01*
Y22404201D01*
X19829401D01*
Y22466901D01*
D02*
G37*
G36*
X20167500Y22378799D02*
X19854800D01*
Y22316100D01*
X20167500D01*
Y22378799D01*
D02*
G37*
G36*
X19829401D02*
X19516701D01*
Y22316100D01*
X19829401D01*
Y22378799D01*
D02*
G37*
G36*
X11632000Y25895499D02*
X11544300D01*
Y25807800D01*
X11632000D01*
Y25895499D01*
D02*
G37*
G36*
X9041318D02*
X9040800D01*
Y25807800D01*
X9128500D01*
Y25808319D01*
X9121658Y25833853D01*
X9108440Y25856747D01*
X9089747Y25875439D01*
X9066853Y25888657D01*
X9041318Y25895499D01*
D02*
G37*
G36*
X9015400D02*
X9014882D01*
X8989347Y25888657D01*
X8966453Y25875439D01*
X8947760Y25856747D01*
X8934542Y25833853D01*
X8927700Y25808319D01*
Y25807800D01*
X9015400D01*
Y25895499D01*
D02*
G37*
G36*
X11518900D02*
X11431200D01*
Y25807800D01*
X11518900D01*
Y25895499D01*
D02*
G37*
G36*
X11289054Y25882101D02*
X11266146D01*
X11244019Y25876172D01*
X11224181Y25864716D01*
X11207983Y25848520D01*
X11196529Y25828680D01*
X11190600Y25806555D01*
Y25783646D01*
X11196529Y25761520D01*
X11207983Y25741681D01*
X11224181Y25725482D01*
X11244019Y25714029D01*
X11266146Y25708099D01*
X11289054D01*
X11311181Y25714029D01*
X11331019Y25725482D01*
X11347217Y25741681D01*
X11358671Y25761520D01*
X11364600Y25783646D01*
Y25806555D01*
X11358671Y25828680D01*
X11347217Y25848520D01*
X11331019Y25864716D01*
X11311181Y25876172D01*
X11289054Y25882101D01*
D02*
G37*
G36*
X9369100D02*
X9195100D01*
Y25708099D01*
X9369100D01*
Y25882101D01*
D02*
G37*
G36*
X11632000Y25782401D02*
X11544300D01*
Y25694699D01*
X11632000D01*
Y25782401D01*
D02*
G37*
G36*
X11518900D02*
X11431200D01*
Y25694699D01*
X11518900D01*
Y25782401D01*
D02*
G37*
G36*
X9128500D02*
X9040800D01*
Y25694699D01*
X9041318D01*
X9066853Y25701541D01*
X9089747Y25714761D01*
X9108440Y25733453D01*
X9121658Y25756348D01*
X9128500Y25781882D01*
Y25782401D01*
D02*
G37*
G36*
X9015400D02*
X8927700D01*
Y25781882D01*
X8934542Y25756348D01*
X8947760Y25733453D01*
X8966453Y25714761D01*
X8989347Y25701541D01*
X9014882Y25694699D01*
X9015400D01*
Y25782401D01*
D02*
G37*
G36*
X13596899Y24752901D02*
X13284200D01*
Y24690199D01*
X13596899D01*
Y24752901D01*
D02*
G37*
G36*
X13258800D02*
X12946100D01*
Y24690199D01*
X13258800D01*
Y24752901D01*
D02*
G37*
G36*
X13596899Y24664799D02*
X13284200D01*
Y24602100D01*
X13596899D01*
Y24664799D01*
D02*
G37*
G36*
X13258800D02*
X12946100D01*
Y24602100D01*
X13258800D01*
Y24664799D01*
D02*
G37*
G36*
X13596899Y24498900D02*
X13284200D01*
Y24436200D01*
X13596899D01*
Y24498900D01*
D02*
G37*
G36*
X13258800D02*
X12946100D01*
Y24436200D01*
X13258800D01*
Y24498900D01*
D02*
G37*
G36*
X13596899Y24410800D02*
X13284200D01*
Y24348100D01*
X13596899D01*
Y24410800D01*
D02*
G37*
G36*
X13258800D02*
X12946100D01*
Y24348100D01*
X13258800D01*
Y24410800D01*
D02*
G37*
G36*
X13596899Y24244901D02*
X13284200D01*
Y24182201D01*
X13596899D01*
Y24244901D01*
D02*
G37*
G36*
X13258800D02*
X12946100D01*
Y24182201D01*
X13258800D01*
Y24244901D01*
D02*
G37*
G36*
X13596899Y24156799D02*
X13284200D01*
Y24094099D01*
X13596899D01*
Y24156799D01*
D02*
G37*
G36*
X13258800D02*
X12946100D01*
Y24094099D01*
X13258800D01*
Y24156799D01*
D02*
G37*
G36*
X13596899Y23990900D02*
X13284200D01*
Y23928200D01*
X13596899D01*
Y23990900D01*
D02*
G37*
G36*
X13258800D02*
X12946100D01*
Y23928200D01*
X13258800D01*
Y23990900D01*
D02*
G37*
G36*
X8093499Y24124846D02*
X8067301D01*
X8041994Y24118065D01*
X8019306Y24104965D01*
X8000780Y24086440D01*
X7987681Y24063751D01*
X7980900Y24038445D01*
Y24012247D01*
X7987681Y23986940D01*
X8000780Y23964252D01*
X8019306Y23945726D01*
X8041994Y23932626D01*
X8067301Y23925845D01*
X8093499D01*
X8118805Y23932626D01*
X8141494Y23945726D01*
X8160019Y23964252D01*
X8173119Y23986940D01*
X8179900Y24012247D01*
Y24038445D01*
X8173119Y24063751D01*
X8160019Y24086440D01*
X8141494Y24104965D01*
X8118805Y24118065D01*
X8093499Y24124846D01*
D02*
G37*
G36*
X13596899Y23902800D02*
X13284200D01*
Y23840100D01*
X13596899D01*
Y23902800D01*
D02*
G37*
G36*
X13258800D02*
X12946100D01*
Y23840100D01*
X13258800D01*
Y23902800D01*
D02*
G37*
G36*
X13596899Y23736900D02*
X13284200D01*
Y23674200D01*
X13596899D01*
Y23736900D01*
D02*
G37*
G36*
X13258800D02*
X12946100D01*
Y23674200D01*
X13258800D01*
Y23736900D01*
D02*
G37*
G36*
X8620700Y23737280D02*
X8168700D01*
X8159140Y23735378D01*
X8151037Y23729964D01*
X8129673Y23708600D01*
X8120640D01*
X8107041Y23702966D01*
X8096633Y23692558D01*
X8091000Y23678960D01*
Y23664240D01*
X8096633Y23650641D01*
X8107041Y23640233D01*
X8120640Y23634599D01*
X8135360D01*
X8148959Y23640233D01*
X8159367Y23650641D01*
X8165000Y23664240D01*
Y23673273D01*
X8179047Y23687320D01*
X8610353D01*
X8624400Y23673273D01*
Y23664240D01*
X8630033Y23650641D01*
X8640441Y23640233D01*
X8654040Y23634599D01*
X8668760D01*
X8682359Y23640233D01*
X8692767Y23650641D01*
X8698400Y23664240D01*
Y23678960D01*
X8692767Y23692558D01*
X8682359Y23702966D01*
X8668760Y23708600D01*
X8659727D01*
X8638363Y23729964D01*
X8630260Y23735378D01*
X8620700Y23737280D01*
D02*
G37*
G36*
X13596899Y23648801D02*
X13284200D01*
Y23586099D01*
X13596899D01*
Y23648801D01*
D02*
G37*
G36*
X13258800D02*
X12946100D01*
Y23586099D01*
X13258800D01*
Y23648801D01*
D02*
G37*
G36*
X8833860Y23571500D02*
X8819140D01*
X8805541Y23565868D01*
X8795133Y23555460D01*
X8789500Y23541859D01*
Y23527139D01*
X8795133Y23513541D01*
X8805541Y23503133D01*
X8819140Y23497501D01*
X8833860D01*
X8847459Y23503133D01*
X8857867Y23513541D01*
X8863500Y23527139D01*
Y23541859D01*
X8857867Y23555460D01*
X8847459Y23565868D01*
X8833860Y23571500D01*
D02*
G37*
G36*
X8592560Y23508000D02*
X8577840D01*
X8564241Y23502367D01*
X8557854Y23495979D01*
X8155346D01*
X8148959Y23502367D01*
X8135360Y23508000D01*
X8120640D01*
X8107041Y23502367D01*
X8096633Y23491959D01*
X8091000Y23478360D01*
Y23463640D01*
X8096633Y23450041D01*
X8107041Y23439633D01*
X8120640Y23434000D01*
X8135360D01*
X8148959Y23439633D01*
X8155346Y23446021D01*
X8557854D01*
X8564241Y23439633D01*
X8577840Y23434000D01*
X8592560D01*
X8606159Y23439633D01*
X8616567Y23450041D01*
X8622200Y23463640D01*
Y23478360D01*
X8616567Y23491959D01*
X8606159Y23502367D01*
X8592560Y23508000D01*
D02*
G37*
G36*
X13596899Y23482899D02*
X13284200D01*
Y23420200D01*
X13596899D01*
Y23482899D01*
D02*
G37*
G36*
X13258800D02*
X12946100D01*
Y23420200D01*
X13258800D01*
Y23482899D01*
D02*
G37*
G36*
X13596899Y23394800D02*
X13284200D01*
Y23332100D01*
X13596899D01*
Y23394800D01*
D02*
G37*
G36*
X13258800D02*
X12946100D01*
Y23332100D01*
X13258800D01*
Y23394800D01*
D02*
G37*
G36*
X12533000Y23221201D02*
X12359000D01*
Y23083675D01*
X12358711Y23082222D01*
X11494780D01*
X11485377Y23080351D01*
X11477405Y23075024D01*
X11395611Y22993231D01*
X11390284Y22985258D01*
X11388414Y22975856D01*
Y22928442D01*
X11262558D01*
Y23079210D01*
X11260688Y23088612D01*
X11255361Y23096585D01*
X11233745Y23118201D01*
X11225774Y23123528D01*
X11216370Y23125397D01*
X11010801D01*
X11001398Y23123528D01*
X10993426Y23118201D01*
X10971810Y23096585D01*
X10966484Y23088612D01*
X10964613Y23079210D01*
Y22739253D01*
X10838758D01*
Y23093065D01*
X10836887Y23102467D01*
X10831561Y23110440D01*
X10809945Y23132056D01*
X10801973Y23137383D01*
X10792570Y23139253D01*
X10587001D01*
X10577597Y23137383D01*
X10569626Y23132056D01*
X10548010Y23110440D01*
X10542683Y23102467D01*
X10540813Y23093065D01*
Y22939253D01*
X10477840D01*
Y22998758D01*
X10479997Y23003964D01*
Y23018683D01*
X10474364Y23032281D01*
X10463955Y23042691D01*
X10450356Y23048323D01*
X10435637D01*
X10422038Y23042691D01*
X10411630Y23032281D01*
X10405997Y23018683D01*
Y23003964D01*
X10411630Y22990366D01*
X10422038Y22979958D01*
X10428696Y22977199D01*
Y22939603D01*
X10427344Y22928690D01*
X10416430Y22927336D01*
X10378834D01*
X10376076Y22933995D01*
X10365668Y22944403D01*
X10352068Y22950037D01*
X10337349D01*
X10323750Y22944403D01*
X10313342Y22933995D01*
X10307709Y22920395D01*
Y22905676D01*
X10313342Y22892078D01*
X10323750Y22881670D01*
X10337349Y22876036D01*
X10352068D01*
X10357274Y22878192D01*
X10416998D01*
X10434785Y22860405D01*
X10442756Y22855080D01*
X10452160Y22853207D01*
X10566493D01*
X10575897Y22855080D01*
X10583869Y22860405D01*
X10619660Y22896198D01*
X10624987Y22904169D01*
X10626857Y22913573D01*
Y23053207D01*
X10752713D01*
Y22699396D01*
X10754584Y22689993D01*
X10759910Y22682021D01*
X10781526Y22660405D01*
X10789498Y22655080D01*
X10798901Y22653207D01*
X11004470D01*
X11013873Y22655080D01*
X11021845Y22660405D01*
X11043461Y22682021D01*
X11048787Y22689993D01*
X11050658Y22699396D01*
Y23039352D01*
X11176514D01*
Y22888586D01*
X11178384Y22879182D01*
X11183711Y22871211D01*
X11205326Y22849596D01*
X11213298Y22844269D01*
X11222701Y22842398D01*
X11428271D01*
X11437674Y22844269D01*
X11445646Y22849596D01*
X11467261Y22871211D01*
X11472588Y22879182D01*
X11474458Y22888586D01*
Y22950394D01*
X11520243Y22996178D01*
X12358711D01*
X12359000Y22994725D01*
Y22857201D01*
X12533000D01*
Y22994725D01*
X12533289Y22996178D01*
X12832687D01*
X12838190Y22990675D01*
X12846162Y22985349D01*
X12855566Y22983478D01*
X13221529D01*
Y22961501D01*
X12959500D01*
Y22837500D01*
X13583501D01*
Y22961501D01*
X13270673D01*
Y22993874D01*
X13268802Y23003278D01*
X13263475Y23011249D01*
X13256897Y23017827D01*
X13250137Y23026500D01*
X13256897Y23035173D01*
X13263475Y23041751D01*
X13268802Y23049722D01*
X13270673Y23059126D01*
Y23091499D01*
X13583501D01*
Y23215500D01*
X12959500D01*
Y23091499D01*
X13221529D01*
Y23069522D01*
X12881029D01*
X12875525Y23075024D01*
X12867554Y23080351D01*
X12858150Y23082222D01*
X12533289D01*
X12533000Y23083675D01*
Y23221201D01*
D02*
G37*
G36*
X8093499Y23035146D02*
X8067301D01*
X8041994Y23028365D01*
X8019306Y23015265D01*
X8000780Y22996741D01*
X7987681Y22974051D01*
X7980900Y22948746D01*
Y22922546D01*
X7987681Y22897240D01*
X8000780Y22874551D01*
X8019306Y22856026D01*
X8041994Y22842926D01*
X8067301Y22836147D01*
X8093499D01*
X8118805Y22842926D01*
X8141494Y22856026D01*
X8160019Y22874551D01*
X8173119Y22897240D01*
X8179900Y22922546D01*
Y22948746D01*
X8173119Y22974051D01*
X8160019Y22996741D01*
X8141494Y23015265D01*
X8118805Y23028365D01*
X8093499Y23035146D01*
D02*
G37*
G36*
X13596899Y22720900D02*
X13284200D01*
Y22658200D01*
X13596899D01*
Y22720900D01*
D02*
G37*
G36*
X13258800D02*
X12946100D01*
Y22658200D01*
X13258800D01*
Y22720900D01*
D02*
G37*
G36*
X13596899Y22632800D02*
X13284200D01*
Y22570100D01*
X13596899D01*
Y22632800D01*
D02*
G37*
G36*
X13258800D02*
X12946100D01*
Y22570100D01*
X13258800D01*
Y22632800D01*
D02*
G37*
G36*
X13596899Y22466901D02*
X13284200D01*
Y22404201D01*
X13596899D01*
Y22466901D01*
D02*
G37*
G36*
X13258800D02*
X12946100D01*
Y22404201D01*
X13258800D01*
Y22466901D01*
D02*
G37*
G36*
X13596899Y22378799D02*
X13284200D01*
Y22316100D01*
X13596899D01*
Y22378799D01*
D02*
G37*
G36*
X13258800D02*
X12946100D01*
Y22316100D01*
X13258800D01*
Y22378799D01*
D02*
G37*
G36*
X18202600Y21395000D02*
X18114900D01*
Y21307300D01*
X18202600D01*
Y21395000D01*
D02*
G37*
G36*
X15611919D02*
X15611400D01*
Y21307300D01*
X15699100D01*
Y21307819D01*
X15692258Y21333353D01*
X15679041Y21356247D01*
X15660347Y21374940D01*
X15637453Y21388158D01*
X15611919Y21395000D01*
D02*
G37*
G36*
X15586000D02*
X15585481D01*
X15559947Y21388158D01*
X15537053Y21374940D01*
X15518359Y21356247D01*
X15505142Y21333353D01*
X15498300Y21307819D01*
Y21307300D01*
X15586000D01*
Y21395000D01*
D02*
G37*
G36*
X18089500D02*
X18001801D01*
Y21307300D01*
X18089500D01*
Y21395000D01*
D02*
G37*
G36*
X17859654Y21381599D02*
X17836746D01*
X17814619Y21375671D01*
X17794781Y21364217D01*
X17778583Y21348019D01*
X17767130Y21328181D01*
X17761200Y21306055D01*
Y21283147D01*
X17767130Y21261018D01*
X17778583Y21241180D01*
X17794781Y21224983D01*
X17814619Y21213528D01*
X17836746Y21207600D01*
X17859654D01*
X17881781Y21213528D01*
X17901619Y21224983D01*
X17917818Y21241180D01*
X17929271Y21261018D01*
X17935201Y21283147D01*
Y21306055D01*
X17929271Y21328181D01*
X17917818Y21348019D01*
X17901619Y21364217D01*
X17881781Y21375671D01*
X17859654Y21381599D01*
D02*
G37*
G36*
X15939700D02*
X15765700D01*
Y21207600D01*
X15939700D01*
Y21381599D01*
D02*
G37*
G36*
X18202600Y21281900D02*
X18114900D01*
Y21194200D01*
X18202600D01*
Y21281900D01*
D02*
G37*
G36*
X18089500D02*
X18001801D01*
Y21194200D01*
X18089500D01*
Y21281900D01*
D02*
G37*
G36*
X15699100D02*
X15611400D01*
Y21194200D01*
X15611919D01*
X15637453Y21201042D01*
X15660347Y21214259D01*
X15679041Y21232953D01*
X15692258Y21255847D01*
X15699100Y21281383D01*
Y21281900D01*
D02*
G37*
G36*
X15586000D02*
X15498300D01*
Y21281383D01*
X15505142Y21255847D01*
X15518359Y21232953D01*
X15537053Y21214259D01*
X15559947Y21201042D01*
X15585481Y21194200D01*
X15586000D01*
Y21281900D01*
D02*
G37*
G36*
X20167500Y20252400D02*
X19854800D01*
Y20189700D01*
X20167500D01*
Y20252400D01*
D02*
G37*
G36*
X19829401D02*
X19516701D01*
Y20189700D01*
X19829401D01*
Y20252400D01*
D02*
G37*
G36*
X20167500Y20164301D02*
X19854800D01*
Y20101601D01*
X20167500D01*
Y20164301D01*
D02*
G37*
G36*
X19829401D02*
X19516701D01*
Y20101601D01*
X19829401D01*
Y20164301D01*
D02*
G37*
G36*
X20167500Y19998399D02*
X19854800D01*
Y19935699D01*
X20167500D01*
Y19998399D01*
D02*
G37*
G36*
X19829401D02*
X19516701D01*
Y19935699D01*
X19829401D01*
Y19998399D01*
D02*
G37*
G36*
X20167500Y19910300D02*
X19854800D01*
Y19847600D01*
X20167500D01*
Y19910300D01*
D02*
G37*
G36*
X19829401D02*
X19516701D01*
Y19847600D01*
X19829401D01*
Y19910300D01*
D02*
G37*
G36*
X20167500Y19744400D02*
X19854800D01*
Y19681700D01*
X20167500D01*
Y19744400D01*
D02*
G37*
G36*
X19829401D02*
X19516701D01*
Y19681700D01*
X19829401D01*
Y19744400D01*
D02*
G37*
G36*
X20167500Y19656300D02*
X19854800D01*
Y19593600D01*
X20167500D01*
Y19656300D01*
D02*
G37*
G36*
X19829401D02*
X19516701D01*
Y19593600D01*
X19829401D01*
Y19656300D01*
D02*
G37*
G36*
X20167500Y19490401D02*
X19854800D01*
Y19427699D01*
X20167500D01*
Y19490401D01*
D02*
G37*
G36*
X19829401D02*
X19516701D01*
Y19427699D01*
X19829401D01*
Y19490401D01*
D02*
G37*
G36*
X14664099Y19624345D02*
X14637901D01*
X14612595Y19617564D01*
X14589906Y19604465D01*
X14571381Y19585941D01*
X14558281Y19563251D01*
X14551500Y19537946D01*
Y19511746D01*
X14558281Y19486440D01*
X14571381Y19463751D01*
X14589906Y19445226D01*
X14612595Y19432126D01*
X14637901Y19425346D01*
X14664099D01*
X14689404Y19432126D01*
X14712094Y19445226D01*
X14730620Y19463751D01*
X14743719Y19486440D01*
X14750500Y19511746D01*
Y19537946D01*
X14743719Y19563251D01*
X14730620Y19585941D01*
X14712094Y19604465D01*
X14689404Y19617564D01*
X14664099Y19624345D01*
D02*
G37*
G36*
X20167500Y19402299D02*
X19854800D01*
Y19339600D01*
X20167500D01*
Y19402299D01*
D02*
G37*
G36*
X19829401D02*
X19516701D01*
Y19339600D01*
X19829401D01*
Y19402299D01*
D02*
G37*
G36*
X20167500Y19236400D02*
X19854800D01*
Y19173700D01*
X20167500D01*
Y19236400D01*
D02*
G37*
G36*
X19829401D02*
X19516701D01*
Y19173700D01*
X19829401D01*
Y19236400D01*
D02*
G37*
G36*
X15191299Y19236780D02*
X14739301D01*
X14729739Y19234879D01*
X14721637Y19229463D01*
X14700273Y19208099D01*
X14691240D01*
X14677641Y19202467D01*
X14667233Y19192059D01*
X14661600Y19178461D01*
Y19163741D01*
X14667233Y19150140D01*
X14677641Y19139732D01*
X14691240Y19134100D01*
X14705960D01*
X14719559Y19139732D01*
X14729967Y19150140D01*
X14735600Y19163741D01*
Y19172774D01*
X14749648Y19186819D01*
X15180952D01*
X15195000Y19172774D01*
Y19163741D01*
X15200633Y19150140D01*
X15211041Y19139732D01*
X15224640Y19134100D01*
X15239360D01*
X15252959Y19139732D01*
X15263367Y19150140D01*
X15269000Y19163741D01*
Y19178461D01*
X15263367Y19192059D01*
X15252959Y19202467D01*
X15239360Y19208099D01*
X15230327D01*
X15208963Y19229463D01*
X15200861Y19234879D01*
X15191299Y19236780D01*
D02*
G37*
G36*
X20167500Y19148300D02*
X19854800D01*
Y19085600D01*
X20167500D01*
Y19148300D01*
D02*
G37*
G36*
X19829401D02*
X19516701D01*
Y19085600D01*
X19829401D01*
Y19148300D01*
D02*
G37*
G36*
X15404460Y19071001D02*
X15389740D01*
X15376141Y19065367D01*
X15365733Y19054959D01*
X15360100Y19041360D01*
Y19026640D01*
X15365733Y19013042D01*
X15376141Y19002634D01*
X15389740Y18997000D01*
X15404460D01*
X15418059Y19002634D01*
X15428467Y19013042D01*
X15434100Y19026640D01*
Y19041360D01*
X15428467Y19054959D01*
X15418059Y19065367D01*
X15404460Y19071001D01*
D02*
G37*
G36*
X15163161Y19007500D02*
X15148441D01*
X15134840Y19001868D01*
X15128455Y18995480D01*
X14725946D01*
X14719559Y19001868D01*
X14705960Y19007500D01*
X14691240D01*
X14677641Y19001868D01*
X14667233Y18991460D01*
X14661600Y18977859D01*
Y18963139D01*
X14667233Y18949541D01*
X14677641Y18939133D01*
X14691240Y18933501D01*
X14705960D01*
X14719559Y18939133D01*
X14725946Y18945520D01*
X15128455D01*
X15134840Y18939133D01*
X15148441Y18933501D01*
X15163161D01*
X15176759Y18939133D01*
X15187167Y18949541D01*
X15192799Y18963139D01*
Y18977859D01*
X15187167Y18991460D01*
X15176759Y19001868D01*
X15163161Y19007500D01*
D02*
G37*
G36*
X20167500Y18982401D02*
X19854800D01*
Y18919701D01*
X20167500D01*
Y18982401D01*
D02*
G37*
G36*
X19829401D02*
X19516701D01*
Y18919701D01*
X19829401D01*
Y18982401D01*
D02*
G37*
G36*
X20167500Y18894299D02*
X19854800D01*
Y18831599D01*
X20167500D01*
Y18894299D01*
D02*
G37*
G36*
X19829401D02*
X19516701D01*
Y18831599D01*
X19829401D01*
Y18894299D01*
D02*
G37*
G36*
X19103600Y18720700D02*
X18929601D01*
Y18583176D01*
X18929311Y18581721D01*
X18065379D01*
X18055977Y18579852D01*
X18048006Y18574525D01*
X17966211Y18492731D01*
X17960884Y18484760D01*
X17959013Y18475356D01*
Y18427943D01*
X17833157D01*
Y18578709D01*
X17831288Y18588113D01*
X17825961Y18596085D01*
X17804346Y18617700D01*
X17796375Y18623027D01*
X17786971Y18624896D01*
X17581401D01*
X17571999Y18623027D01*
X17564026Y18617700D01*
X17542410Y18596085D01*
X17537083Y18588113D01*
X17535213Y18578709D01*
Y18238753D01*
X17409358D01*
Y18592564D01*
X17407487Y18601968D01*
X17402161Y18609940D01*
X17380545Y18631557D01*
X17372572Y18636882D01*
X17363170Y18638753D01*
X17157600D01*
X17148196Y18636882D01*
X17140227Y18631557D01*
X17118610Y18609940D01*
X17113283Y18601968D01*
X17111414Y18592564D01*
Y18438753D01*
X17048441D01*
Y18498257D01*
X17050597Y18503464D01*
Y18518182D01*
X17044965Y18531783D01*
X17034555Y18542191D01*
X17020956Y18547823D01*
X17006236D01*
X16992638Y18542191D01*
X16982230Y18531783D01*
X16976598Y18518182D01*
Y18503464D01*
X16982230Y18489865D01*
X16992638Y18479457D01*
X16999297Y18476698D01*
Y18439102D01*
X16997945Y18428189D01*
X16987030Y18426836D01*
X16949434D01*
X16946677Y18433495D01*
X16936269Y18443903D01*
X16922668Y18449536D01*
X16907948D01*
X16894350Y18443903D01*
X16883942Y18433495D01*
X16878310Y18419894D01*
Y18405176D01*
X16883942Y18391577D01*
X16894350Y18381169D01*
X16907948Y18375536D01*
X16922668D01*
X16927875Y18377692D01*
X16987598D01*
X17005385Y18359904D01*
X17013356Y18354579D01*
X17022760Y18352708D01*
X17137093D01*
X17146497Y18354579D01*
X17154469Y18359904D01*
X17190260Y18395697D01*
X17195587Y18403670D01*
X17197456Y18413072D01*
Y18552708D01*
X17323312D01*
Y18198895D01*
X17325185Y18189493D01*
X17330510Y18181522D01*
X17352126Y18159904D01*
X17360098Y18154579D01*
X17369501Y18152708D01*
X17575070D01*
X17584473Y18154579D01*
X17592445Y18159904D01*
X17614061Y18181522D01*
X17619386Y18189493D01*
X17621259Y18198895D01*
Y18538853D01*
X17747115D01*
Y18388086D01*
X17748984Y18378683D01*
X17754311Y18370711D01*
X17775926Y18349095D01*
X17783897Y18343768D01*
X17793301Y18341898D01*
X17998871D01*
X18008273Y18343768D01*
X18016246Y18349095D01*
X18037862Y18370711D01*
X18043188Y18378683D01*
X18045058Y18388086D01*
Y18449895D01*
X18090843Y18495679D01*
X18929311D01*
X18929601Y18494225D01*
Y18356700D01*
X19103600D01*
Y18494225D01*
X19103889Y18495679D01*
X19403288D01*
X19408791Y18490175D01*
X19416762Y18484848D01*
X19426166Y18482977D01*
X19792128D01*
Y18461000D01*
X19530099D01*
Y18337000D01*
X20154100D01*
Y18461000D01*
X19841272D01*
Y18493375D01*
X19839401Y18502777D01*
X19834074Y18510748D01*
X19827496Y18517326D01*
X19820737Y18525999D01*
X19827496Y18534673D01*
X19834074Y18541251D01*
X19839401Y18549223D01*
X19841272Y18558626D01*
Y18591000D01*
X20154100D01*
Y18714999D01*
X19530099D01*
Y18591000D01*
X19792128D01*
Y18569022D01*
X19451628D01*
X19446124Y18574525D01*
X19438153Y18579852D01*
X19428751Y18581721D01*
X19103889D01*
X19103600Y18583176D01*
Y18720700D01*
D02*
G37*
G36*
X14664099Y18534645D02*
X14637901D01*
X14612595Y18527866D01*
X14589906Y18514764D01*
X14571381Y18496240D01*
X14558281Y18473550D01*
X14551500Y18448245D01*
Y18422046D01*
X14558281Y18396741D01*
X14571381Y18374051D01*
X14589906Y18355527D01*
X14612595Y18342426D01*
X14637901Y18335646D01*
X14664099D01*
X14689404Y18342426D01*
X14712094Y18355527D01*
X14730620Y18374051D01*
X14743719Y18396741D01*
X14750500Y18422046D01*
Y18448245D01*
X14743719Y18473550D01*
X14730620Y18496240D01*
X14712094Y18514764D01*
X14689404Y18527866D01*
X14664099Y18534645D01*
D02*
G37*
G36*
X20167500Y18220399D02*
X19854800D01*
Y18157700D01*
X20167500D01*
Y18220399D01*
D02*
G37*
G36*
X19829401D02*
X19516701D01*
Y18157700D01*
X19829401D01*
Y18220399D01*
D02*
G37*
G36*
X20167500Y18132300D02*
X19854800D01*
Y18069600D01*
X20167500D01*
Y18132300D01*
D02*
G37*
G36*
X19829401D02*
X19516701D01*
Y18069600D01*
X19829401D01*
Y18132300D01*
D02*
G37*
G36*
X20167500Y17966400D02*
X19854800D01*
Y17903700D01*
X20167500D01*
Y17966400D01*
D02*
G37*
G36*
X19829401D02*
X19516701D01*
Y17903700D01*
X19829401D01*
Y17966400D01*
D02*
G37*
G36*
X20167500Y17878300D02*
X19854800D01*
Y17815601D01*
X20167500D01*
Y17878300D01*
D02*
G37*
G36*
X19829401D02*
X19516701D01*
Y17815601D01*
X19829401D01*
Y17878300D01*
D02*
G37*
G36*
X11632000Y21395000D02*
X11544300D01*
Y21307300D01*
X11632000D01*
Y21395000D01*
D02*
G37*
G36*
X9041318D02*
X9040800D01*
Y21307300D01*
X9128500D01*
Y21307819D01*
X9121658Y21333353D01*
X9108440Y21356247D01*
X9089747Y21374940D01*
X9066853Y21388158D01*
X9041318Y21395000D01*
D02*
G37*
G36*
X9015400D02*
X9014882D01*
X8989347Y21388158D01*
X8966453Y21374940D01*
X8947760Y21356247D01*
X8934542Y21333353D01*
X8927700Y21307819D01*
Y21307300D01*
X9015400D01*
Y21395000D01*
D02*
G37*
G36*
X11518900D02*
X11431200D01*
Y21307300D01*
X11518900D01*
Y21395000D01*
D02*
G37*
G36*
X11289054Y21381599D02*
X11266146D01*
X11244019Y21375671D01*
X11224181Y21364217D01*
X11207983Y21348019D01*
X11196529Y21328181D01*
X11190600Y21306055D01*
Y21283147D01*
X11196529Y21261018D01*
X11207983Y21241180D01*
X11224181Y21224983D01*
X11244019Y21213528D01*
X11266146Y21207600D01*
X11289054D01*
X11311181Y21213528D01*
X11331019Y21224983D01*
X11347217Y21241180D01*
X11358671Y21261018D01*
X11364600Y21283147D01*
Y21306055D01*
X11358671Y21328181D01*
X11347217Y21348019D01*
X11331019Y21364217D01*
X11311181Y21375671D01*
X11289054Y21381599D01*
D02*
G37*
G36*
X9369100D02*
X9195100D01*
Y21207600D01*
X9369100D01*
Y21381599D01*
D02*
G37*
G36*
X11632000Y21281900D02*
X11544300D01*
Y21194200D01*
X11632000D01*
Y21281900D01*
D02*
G37*
G36*
X11518900D02*
X11431200D01*
Y21194200D01*
X11518900D01*
Y21281900D01*
D02*
G37*
G36*
X9128500D02*
X9040800D01*
Y21194200D01*
X9041318D01*
X9066853Y21201042D01*
X9089747Y21214259D01*
X9108440Y21232953D01*
X9121658Y21255847D01*
X9128500Y21281383D01*
Y21281900D01*
D02*
G37*
G36*
X9015400D02*
X8927700D01*
Y21281383D01*
X8934542Y21255847D01*
X8947760Y21232953D01*
X8966453Y21214259D01*
X8989347Y21201042D01*
X9014882Y21194200D01*
X9015400D01*
Y21281900D01*
D02*
G37*
G36*
X13596899Y20252400D02*
X13284200D01*
Y20189700D01*
X13596899D01*
Y20252400D01*
D02*
G37*
G36*
X13258800D02*
X12946100D01*
Y20189700D01*
X13258800D01*
Y20252400D01*
D02*
G37*
G36*
X13596899Y20164301D02*
X13284200D01*
Y20101601D01*
X13596899D01*
Y20164301D01*
D02*
G37*
G36*
X13258800D02*
X12946100D01*
Y20101601D01*
X13258800D01*
Y20164301D01*
D02*
G37*
G36*
X13596899Y19998399D02*
X13284200D01*
Y19935699D01*
X13596899D01*
Y19998399D01*
D02*
G37*
G36*
X13258800D02*
X12946100D01*
Y19935699D01*
X13258800D01*
Y19998399D01*
D02*
G37*
G36*
X13596899Y19910300D02*
X13284200D01*
Y19847600D01*
X13596899D01*
Y19910300D01*
D02*
G37*
G36*
X13258800D02*
X12946100D01*
Y19847600D01*
X13258800D01*
Y19910300D01*
D02*
G37*
G36*
X13596899Y19744400D02*
X13284200D01*
Y19681700D01*
X13596899D01*
Y19744400D01*
D02*
G37*
G36*
X13258800D02*
X12946100D01*
Y19681700D01*
X13258800D01*
Y19744400D01*
D02*
G37*
G36*
X13596899Y19656300D02*
X13284200D01*
Y19593600D01*
X13596899D01*
Y19656300D01*
D02*
G37*
G36*
X13258800D02*
X12946100D01*
Y19593600D01*
X13258800D01*
Y19656300D01*
D02*
G37*
G36*
X13596899Y19490401D02*
X13284200D01*
Y19427699D01*
X13596899D01*
Y19490401D01*
D02*
G37*
G36*
X13258800D02*
X12946100D01*
Y19427699D01*
X13258800D01*
Y19490401D01*
D02*
G37*
G36*
X8093499Y19624345D02*
X8067301D01*
X8041994Y19617564D01*
X8019306Y19604465D01*
X8000780Y19585941D01*
X7987681Y19563251D01*
X7980900Y19537946D01*
Y19511746D01*
X7987681Y19486440D01*
X8000780Y19463751D01*
X8019306Y19445226D01*
X8041994Y19432126D01*
X8067301Y19425346D01*
X8093499D01*
X8118805Y19432126D01*
X8141494Y19445226D01*
X8160019Y19463751D01*
X8173119Y19486440D01*
X8179900Y19511746D01*
Y19537946D01*
X8173119Y19563251D01*
X8160019Y19585941D01*
X8141494Y19604465D01*
X8118805Y19617564D01*
X8093499Y19624345D01*
D02*
G37*
G36*
X13596899Y19402299D02*
X13284200D01*
Y19339600D01*
X13596899D01*
Y19402299D01*
D02*
G37*
G36*
X13258800D02*
X12946100D01*
Y19339600D01*
X13258800D01*
Y19402299D01*
D02*
G37*
G36*
X13596899Y19236400D02*
X13284200D01*
Y19173700D01*
X13596899D01*
Y19236400D01*
D02*
G37*
G36*
X13258800D02*
X12946100D01*
Y19173700D01*
X13258800D01*
Y19236400D01*
D02*
G37*
G36*
X8620700Y19236780D02*
X8168700D01*
X8159140Y19234879D01*
X8151037Y19229463D01*
X8129673Y19208099D01*
X8120640D01*
X8107041Y19202467D01*
X8096633Y19192059D01*
X8091000Y19178461D01*
Y19163741D01*
X8096633Y19150140D01*
X8107041Y19139732D01*
X8120640Y19134100D01*
X8135360D01*
X8148959Y19139732D01*
X8159367Y19150140D01*
X8165000Y19163741D01*
Y19172774D01*
X8179047Y19186819D01*
X8610353D01*
X8624400Y19172774D01*
Y19163741D01*
X8630033Y19150140D01*
X8640441Y19139732D01*
X8654040Y19134100D01*
X8668760D01*
X8682359Y19139732D01*
X8692767Y19150140D01*
X8698400Y19163741D01*
Y19178461D01*
X8692767Y19192059D01*
X8682359Y19202467D01*
X8668760Y19208099D01*
X8659727D01*
X8638363Y19229463D01*
X8630260Y19234879D01*
X8620700Y19236780D01*
D02*
G37*
G36*
X13596899Y19148300D02*
X13284200D01*
Y19085600D01*
X13596899D01*
Y19148300D01*
D02*
G37*
G36*
X13258800D02*
X12946100D01*
Y19085600D01*
X13258800D01*
Y19148300D01*
D02*
G37*
G36*
X8833860Y19071001D02*
X8819140D01*
X8805541Y19065367D01*
X8795133Y19054959D01*
X8789500Y19041360D01*
Y19026640D01*
X8795133Y19013042D01*
X8805541Y19002634D01*
X8819140Y18997000D01*
X8833860D01*
X8847459Y19002634D01*
X8857867Y19013042D01*
X8863500Y19026640D01*
Y19041360D01*
X8857867Y19054959D01*
X8847459Y19065367D01*
X8833860Y19071001D01*
D02*
G37*
G36*
X8592560Y19007500D02*
X8577840D01*
X8564241Y19001868D01*
X8557854Y18995480D01*
X8155346D01*
X8148959Y19001868D01*
X8135360Y19007500D01*
X8120640D01*
X8107041Y19001868D01*
X8096633Y18991460D01*
X8091000Y18977859D01*
Y18963139D01*
X8096633Y18949541D01*
X8107041Y18939133D01*
X8120640Y18933501D01*
X8135360D01*
X8148959Y18939133D01*
X8155346Y18945520D01*
X8557854D01*
X8564241Y18939133D01*
X8577840Y18933501D01*
X8592560D01*
X8606159Y18939133D01*
X8616567Y18949541D01*
X8622200Y18963139D01*
Y18977859D01*
X8616567Y18991460D01*
X8606159Y19001868D01*
X8592560Y19007500D01*
D02*
G37*
G36*
X13596899Y18982401D02*
X13284200D01*
Y18919701D01*
X13596899D01*
Y18982401D01*
D02*
G37*
G36*
X13258800D02*
X12946100D01*
Y18919701D01*
X13258800D01*
Y18982401D01*
D02*
G37*
G36*
X13596899Y18894299D02*
X13284200D01*
Y18831599D01*
X13596899D01*
Y18894299D01*
D02*
G37*
G36*
X13258800D02*
X12946100D01*
Y18831599D01*
X13258800D01*
Y18894299D01*
D02*
G37*
G36*
X12533000Y18720700D02*
X12359000D01*
Y18583176D01*
X12358711Y18581721D01*
X11494780D01*
X11485377Y18579852D01*
X11477405Y18574525D01*
X11395611Y18492731D01*
X11390284Y18484760D01*
X11388414Y18475356D01*
Y18427943D01*
X11262558D01*
Y18578709D01*
X11260688Y18588113D01*
X11255361Y18596085D01*
X11233745Y18617700D01*
X11225774Y18623027D01*
X11216370Y18624896D01*
X11010801D01*
X11001398Y18623027D01*
X10993426Y18617700D01*
X10971810Y18596085D01*
X10966484Y18588113D01*
X10964613Y18578709D01*
Y18238753D01*
X10838758D01*
Y18592564D01*
X10836887Y18601968D01*
X10831561Y18609940D01*
X10809945Y18631557D01*
X10801973Y18636882D01*
X10792570Y18638753D01*
X10587001D01*
X10577597Y18636882D01*
X10569626Y18631557D01*
X10548010Y18609940D01*
X10542683Y18601968D01*
X10540813Y18592564D01*
Y18438753D01*
X10477840D01*
Y18498257D01*
X10479997Y18503464D01*
Y18518182D01*
X10474364Y18531783D01*
X10463955Y18542191D01*
X10450356Y18547823D01*
X10435637D01*
X10422038Y18542191D01*
X10411630Y18531783D01*
X10405997Y18518182D01*
Y18503464D01*
X10411630Y18489865D01*
X10422038Y18479457D01*
X10428696Y18476698D01*
Y18439102D01*
X10427344Y18428189D01*
X10416430Y18426836D01*
X10378834D01*
X10376076Y18433495D01*
X10365668Y18443903D01*
X10352068Y18449536D01*
X10337349D01*
X10323750Y18443903D01*
X10313342Y18433495D01*
X10307709Y18419894D01*
Y18405176D01*
X10313342Y18391577D01*
X10323750Y18381169D01*
X10337349Y18375536D01*
X10352068D01*
X10357274Y18377692D01*
X10416998D01*
X10434785Y18359904D01*
X10442756Y18354579D01*
X10452160Y18352708D01*
X10566493D01*
X10575897Y18354579D01*
X10583869Y18359904D01*
X10619660Y18395697D01*
X10624987Y18403670D01*
X10626857Y18413072D01*
Y18552708D01*
X10752713D01*
Y18198895D01*
X10754584Y18189493D01*
X10759910Y18181522D01*
X10781526Y18159904D01*
X10789498Y18154579D01*
X10798901Y18152708D01*
X11004470D01*
X11013873Y18154579D01*
X11021845Y18159904D01*
X11043461Y18181522D01*
X11048787Y18189493D01*
X11050658Y18198895D01*
Y18538853D01*
X11176514D01*
Y18388086D01*
X11178384Y18378683D01*
X11183711Y18370711D01*
X11205326Y18349095D01*
X11213298Y18343768D01*
X11222701Y18341898D01*
X11428271D01*
X11437674Y18343768D01*
X11445646Y18349095D01*
X11467261Y18370711D01*
X11472588Y18378683D01*
X11474458Y18388086D01*
Y18449895D01*
X11520243Y18495679D01*
X12358711D01*
X12359000Y18494225D01*
Y18356700D01*
X12533000D01*
Y18494225D01*
X12533289Y18495679D01*
X12832687D01*
X12838190Y18490175D01*
X12846162Y18484848D01*
X12855566Y18482977D01*
X13221529D01*
Y18461000D01*
X12959500D01*
Y18337000D01*
X13583501D01*
Y18461000D01*
X13270673D01*
Y18493375D01*
X13268802Y18502777D01*
X13263475Y18510748D01*
X13256897Y18517326D01*
X13250137Y18525999D01*
X13256897Y18534673D01*
X13263475Y18541251D01*
X13268802Y18549223D01*
X13270673Y18558626D01*
Y18591000D01*
X13583501D01*
Y18714999D01*
X12959500D01*
Y18591000D01*
X13221529D01*
Y18569022D01*
X12881029D01*
X12875525Y18574525D01*
X12867554Y18579852D01*
X12858150Y18581721D01*
X12533289D01*
X12533000Y18583176D01*
Y18720700D01*
D02*
G37*
G36*
X8093499Y18534645D02*
X8067301D01*
X8041994Y18527866D01*
X8019306Y18514764D01*
X8000780Y18496240D01*
X7987681Y18473550D01*
X7980900Y18448245D01*
Y18422046D01*
X7987681Y18396741D01*
X8000780Y18374051D01*
X8019306Y18355527D01*
X8041994Y18342426D01*
X8067301Y18335646D01*
X8093499D01*
X8118805Y18342426D01*
X8141494Y18355527D01*
X8160019Y18374051D01*
X8173119Y18396741D01*
X8179900Y18422046D01*
Y18448245D01*
X8173119Y18473550D01*
X8160019Y18496240D01*
X8141494Y18514764D01*
X8118805Y18527866D01*
X8093499Y18534645D01*
D02*
G37*
G36*
X13596899Y18220399D02*
X13284200D01*
Y18157700D01*
X13596899D01*
Y18220399D01*
D02*
G37*
G36*
X13258800D02*
X12946100D01*
Y18157700D01*
X13258800D01*
Y18220399D01*
D02*
G37*
G36*
X13596899Y18132300D02*
X13284200D01*
Y18069600D01*
X13596899D01*
Y18132300D01*
D02*
G37*
G36*
X13258800D02*
X12946100D01*
Y18069600D01*
X13258800D01*
Y18132300D01*
D02*
G37*
G36*
X13596899Y17966400D02*
X13284200D01*
Y17903700D01*
X13596899D01*
Y17966400D01*
D02*
G37*
G36*
X13258800D02*
X12946100D01*
Y17903700D01*
X13258800D01*
Y17966400D01*
D02*
G37*
G36*
X13596899Y17878300D02*
X13284200D01*
Y17815601D01*
X13596899D01*
Y17878300D01*
D02*
G37*
G36*
X13258800D02*
X12946100D01*
Y17815601D01*
X13258800D01*
Y17878300D01*
D02*
G37*
G36*
X18202600Y16894501D02*
X18114900D01*
Y16806799D01*
X18202600D01*
Y16894501D01*
D02*
G37*
G36*
X15611919D02*
X15611400D01*
Y16806799D01*
X15699100D01*
Y16807318D01*
X15692258Y16832854D01*
X15679041Y16855746D01*
X15660347Y16874440D01*
X15637453Y16887659D01*
X15611919Y16894501D01*
D02*
G37*
G36*
X15586000D02*
X15585481D01*
X15559947Y16887659D01*
X15537053Y16874440D01*
X15518359Y16855746D01*
X15505142Y16832854D01*
X15498300Y16807318D01*
Y16806799D01*
X15586000D01*
Y16894501D01*
D02*
G37*
G36*
X18089500D02*
X18001801D01*
Y16806799D01*
X18089500D01*
Y16894501D01*
D02*
G37*
G36*
X17859654Y16881100D02*
X17836746D01*
X17814619Y16875171D01*
X17794781Y16863718D01*
X17778583Y16847519D01*
X17767130Y16827681D01*
X17761200Y16805554D01*
Y16782646D01*
X17767130Y16760519D01*
X17778583Y16740681D01*
X17794781Y16724483D01*
X17814619Y16713029D01*
X17836746Y16707100D01*
X17859654D01*
X17881781Y16713029D01*
X17901619Y16724483D01*
X17917818Y16740681D01*
X17929271Y16760519D01*
X17935201Y16782646D01*
Y16805554D01*
X17929271Y16827681D01*
X17917818Y16847519D01*
X17901619Y16863718D01*
X17881781Y16875171D01*
X17859654Y16881100D01*
D02*
G37*
G36*
X15939700D02*
X15765700D01*
Y16707100D01*
X15939700D01*
Y16881100D01*
D02*
G37*
G36*
X18202600Y16781400D02*
X18114900D01*
Y16693700D01*
X18202600D01*
Y16781400D01*
D02*
G37*
G36*
X18089500D02*
X18001801D01*
Y16693700D01*
X18089500D01*
Y16781400D01*
D02*
G37*
G36*
X15699100D02*
X15611400D01*
Y16693700D01*
X15611919D01*
X15637453Y16700542D01*
X15660347Y16713760D01*
X15679041Y16732452D01*
X15692258Y16755347D01*
X15699100Y16780882D01*
Y16781400D01*
D02*
G37*
G36*
X15586000D02*
X15498300D01*
Y16780882D01*
X15505142Y16755347D01*
X15518359Y16732452D01*
X15537053Y16713760D01*
X15559947Y16700542D01*
X15585481Y16693700D01*
X15586000D01*
Y16781400D01*
D02*
G37*
G36*
X20167500Y15751900D02*
X19854800D01*
Y15689200D01*
X20167500D01*
Y15751900D01*
D02*
G37*
G36*
X19829401D02*
X19516701D01*
Y15689200D01*
X19829401D01*
Y15751900D01*
D02*
G37*
G36*
X20167500Y15663800D02*
X19854800D01*
Y15601100D01*
X20167500D01*
Y15663800D01*
D02*
G37*
G36*
X19829401D02*
X19516701D01*
Y15601100D01*
X19829401D01*
Y15663800D01*
D02*
G37*
G36*
X20167500Y15497900D02*
X19854800D01*
Y15435201D01*
X20167500D01*
Y15497900D01*
D02*
G37*
G36*
X19829401D02*
X19516701D01*
Y15435201D01*
X19829401D01*
Y15497900D01*
D02*
G37*
G36*
X20167500Y15409801D02*
X19854800D01*
Y15347099D01*
X20167500D01*
Y15409801D01*
D02*
G37*
G36*
X19829401D02*
X19516701D01*
Y15347099D01*
X19829401D01*
Y15409801D01*
D02*
G37*
G36*
X20167500Y15243900D02*
X19854800D01*
Y15181200D01*
X20167500D01*
Y15243900D01*
D02*
G37*
G36*
X19829401D02*
X19516701D01*
Y15181200D01*
X19829401D01*
Y15243900D01*
D02*
G37*
G36*
X20167500Y15155800D02*
X19854800D01*
Y15093100D01*
X20167500D01*
Y15155800D01*
D02*
G37*
G36*
X19829401D02*
X19516701D01*
Y15093100D01*
X19829401D01*
Y15155800D01*
D02*
G37*
G36*
X20167500Y14989900D02*
X19854800D01*
Y14927200D01*
X20167500D01*
Y14989900D01*
D02*
G37*
G36*
X19829401D02*
X19516701D01*
Y14927200D01*
X19829401D01*
Y14989900D01*
D02*
G37*
G36*
X14664099Y15123846D02*
X14637901D01*
X14612595Y15117065D01*
X14589906Y15103966D01*
X14571381Y15085440D01*
X14558281Y15062750D01*
X14551500Y15037445D01*
Y15011246D01*
X14558281Y14985941D01*
X14571381Y14963251D01*
X14589906Y14944727D01*
X14612595Y14931625D01*
X14637901Y14924846D01*
X14664099D01*
X14689404Y14931625D01*
X14712094Y14944727D01*
X14730620Y14963251D01*
X14743719Y14985941D01*
X14750500Y15011246D01*
Y15037445D01*
X14743719Y15062750D01*
X14730620Y15085440D01*
X14712094Y15103966D01*
X14689404Y15117065D01*
X14664099Y15123846D01*
D02*
G37*
G36*
X20167500Y14901801D02*
X19854800D01*
Y14839101D01*
X20167500D01*
Y14901801D01*
D02*
G37*
G36*
X19829401D02*
X19516701D01*
Y14839101D01*
X19829401D01*
Y14901801D01*
D02*
G37*
G36*
X20167500Y14735899D02*
X19854800D01*
Y14673199D01*
X20167500D01*
Y14735899D01*
D02*
G37*
G36*
X19829401D02*
X19516701D01*
Y14673199D01*
X19829401D01*
Y14735899D01*
D02*
G37*
G36*
X15191299Y14736279D02*
X14739301D01*
X14729739Y14734378D01*
X14721637Y14728963D01*
X14700273Y14707600D01*
X14691240D01*
X14677641Y14701967D01*
X14667233Y14691559D01*
X14661600Y14677960D01*
Y14663240D01*
X14667233Y14649641D01*
X14677641Y14639233D01*
X14691240Y14633600D01*
X14705960D01*
X14719559Y14639233D01*
X14729967Y14649641D01*
X14735600Y14663240D01*
Y14672273D01*
X14749648Y14686320D01*
X15180952D01*
X15195000Y14672273D01*
Y14663240D01*
X15200633Y14649641D01*
X15211041Y14639233D01*
X15224640Y14633600D01*
X15239360D01*
X15252959Y14639233D01*
X15263367Y14649641D01*
X15269000Y14663240D01*
Y14677960D01*
X15263367Y14691559D01*
X15252959Y14701967D01*
X15239360Y14707600D01*
X15230327D01*
X15208963Y14728963D01*
X15200861Y14734378D01*
X15191299Y14736279D01*
D02*
G37*
G36*
X20167500Y14647800D02*
X19854800D01*
Y14585100D01*
X20167500D01*
Y14647800D01*
D02*
G37*
G36*
X19829401D02*
X19516701D01*
Y14585100D01*
X19829401D01*
Y14647800D01*
D02*
G37*
G36*
X15404460Y14570500D02*
X15389740D01*
X15376141Y14564867D01*
X15365733Y14554459D01*
X15360100Y14540860D01*
Y14526140D01*
X15365733Y14512541D01*
X15376141Y14502133D01*
X15389740Y14496500D01*
X15404460D01*
X15418059Y14502133D01*
X15428467Y14512541D01*
X15434100Y14526140D01*
Y14540860D01*
X15428467Y14554459D01*
X15418059Y14564867D01*
X15404460Y14570500D01*
D02*
G37*
G36*
X15163161Y14507001D02*
X15148441D01*
X15134840Y14501367D01*
X15128455Y14494980D01*
X14725946D01*
X14719559Y14501367D01*
X14705960Y14507001D01*
X14691240D01*
X14677641Y14501367D01*
X14667233Y14490959D01*
X14661600Y14477361D01*
Y14462640D01*
X14667233Y14449042D01*
X14677641Y14438634D01*
X14691240Y14433000D01*
X14705960D01*
X14719559Y14438634D01*
X14725946Y14445020D01*
X15128455D01*
X15134840Y14438634D01*
X15148441Y14433000D01*
X15163161D01*
X15176759Y14438634D01*
X15187167Y14449042D01*
X15192799Y14462640D01*
Y14477361D01*
X15187167Y14490959D01*
X15176759Y14501367D01*
X15163161Y14507001D01*
D02*
G37*
G36*
X20167500Y14481900D02*
X19854800D01*
Y14419200D01*
X20167500D01*
Y14481900D01*
D02*
G37*
G36*
X19829401D02*
X19516701D01*
Y14419200D01*
X19829401D01*
Y14481900D01*
D02*
G37*
G36*
X20167500Y14393800D02*
X19854800D01*
Y14331100D01*
X20167500D01*
Y14393800D01*
D02*
G37*
G36*
X19829401D02*
X19516701D01*
Y14331100D01*
X19829401D01*
Y14393800D01*
D02*
G37*
G36*
X19103600Y14220200D02*
X18929601D01*
Y14082675D01*
X18929311Y14081223D01*
X18065379D01*
X18055977Y14079352D01*
X18048006Y14074025D01*
X17966211Y13992232D01*
X17960884Y13984259D01*
X17959013Y13974857D01*
Y13927443D01*
X17833157D01*
Y14078210D01*
X17831288Y14087613D01*
X17825961Y14095586D01*
X17804346Y14117200D01*
X17796375Y14122527D01*
X17786971Y14124397D01*
X17581401D01*
X17571999Y14122527D01*
X17564026Y14117200D01*
X17542410Y14095586D01*
X17537083Y14087613D01*
X17535213Y14078210D01*
Y13738252D01*
X17409358D01*
Y14092065D01*
X17407487Y14101468D01*
X17402161Y14109441D01*
X17380545Y14131056D01*
X17372572Y14136382D01*
X17363170Y14138252D01*
X17157600D01*
X17148196Y14136382D01*
X17140227Y14131056D01*
X17118610Y14109441D01*
X17113283Y14101468D01*
X17111414Y14092065D01*
Y13938252D01*
X17048441D01*
Y13997758D01*
X17050597Y14002963D01*
Y14017683D01*
X17044965Y14031282D01*
X17034555Y14041690D01*
X17020956Y14047324D01*
X17006236D01*
X16992638Y14041690D01*
X16982230Y14031282D01*
X16976598Y14017683D01*
Y14002963D01*
X16982230Y13989365D01*
X16992638Y13978957D01*
X16999297Y13976199D01*
Y13938602D01*
X16997945Y13927689D01*
X16987030Y13926337D01*
X16949434D01*
X16946677Y13932994D01*
X16936269Y13943404D01*
X16922668Y13949036D01*
X16907948D01*
X16894350Y13943404D01*
X16883942Y13932994D01*
X16878310Y13919395D01*
Y13904675D01*
X16883942Y13891077D01*
X16894350Y13880669D01*
X16907948Y13875037D01*
X16922668D01*
X16927875Y13877193D01*
X16987598D01*
X17005385Y13859406D01*
X17013356Y13854079D01*
X17022760Y13852208D01*
X17137093D01*
X17146497Y13854079D01*
X17154469Y13859406D01*
X17190260Y13895197D01*
X17195587Y13903169D01*
X17197456Y13912572D01*
Y14052208D01*
X17323312D01*
Y13698396D01*
X17325185Y13688992D01*
X17330510Y13681021D01*
X17352126Y13659406D01*
X17360098Y13654079D01*
X17369501Y13652208D01*
X17575070D01*
X17584473Y13654079D01*
X17592445Y13659406D01*
X17614061Y13681021D01*
X17619386Y13688992D01*
X17621259Y13698396D01*
Y14038353D01*
X17747115D01*
Y13887585D01*
X17748984Y13878183D01*
X17754311Y13870210D01*
X17775926Y13848595D01*
X17783897Y13843268D01*
X17793301Y13841399D01*
X17998871D01*
X18008273Y13843268D01*
X18016246Y13848595D01*
X18037862Y13870210D01*
X18043188Y13878183D01*
X18045058Y13887585D01*
Y13949393D01*
X18090843Y13995178D01*
X18929311D01*
X18929601Y13993726D01*
Y13856200D01*
X19103600D01*
Y13993726D01*
X19103889Y13995178D01*
X19403288D01*
X19408791Y13989674D01*
X19416762Y13984348D01*
X19426166Y13982478D01*
X19792128D01*
Y13960500D01*
X19530099D01*
Y13836501D01*
X20154100D01*
Y13960500D01*
X19841272D01*
Y13992874D01*
X19839401Y14002277D01*
X19834074Y14010249D01*
X19827496Y14016827D01*
X19820737Y14025500D01*
X19827496Y14034174D01*
X19834074Y14040752D01*
X19839401Y14048723D01*
X19841272Y14058125D01*
Y14090500D01*
X20154100D01*
Y14214500D01*
X19530099D01*
Y14090500D01*
X19792128D01*
Y14068523D01*
X19451628D01*
X19446124Y14074025D01*
X19438153Y14079352D01*
X19428751Y14081223D01*
X19103889D01*
X19103600Y14082675D01*
Y14220200D01*
D02*
G37*
G36*
X14664099Y14034145D02*
X14637901D01*
X14612595Y14027365D01*
X14589906Y14014265D01*
X14571381Y13995740D01*
X14558281Y13973051D01*
X14551500Y13947745D01*
Y13921545D01*
X14558281Y13896240D01*
X14571381Y13873550D01*
X14589906Y13855026D01*
X14612595Y13841927D01*
X14637901Y13835146D01*
X14664099D01*
X14689404Y13841927D01*
X14712094Y13855026D01*
X14730620Y13873550D01*
X14743719Y13896240D01*
X14750500Y13921545D01*
Y13947745D01*
X14743719Y13973051D01*
X14730620Y13995740D01*
X14712094Y14014265D01*
X14689404Y14027365D01*
X14664099Y14034145D01*
D02*
G37*
G36*
X20167500Y13719901D02*
X19854800D01*
Y13657201D01*
X20167500D01*
Y13719901D01*
D02*
G37*
G36*
X19829401D02*
X19516701D01*
Y13657201D01*
X19829401D01*
Y13719901D01*
D02*
G37*
G36*
X20167500Y13631799D02*
X19854800D01*
Y13569099D01*
X20167500D01*
Y13631799D01*
D02*
G37*
G36*
X19829401D02*
X19516701D01*
Y13569099D01*
X19829401D01*
Y13631799D01*
D02*
G37*
G36*
X20167500Y13465900D02*
X19854800D01*
Y13403200D01*
X20167500D01*
Y13465900D01*
D02*
G37*
G36*
X19829401D02*
X19516701D01*
Y13403200D01*
X19829401D01*
Y13465900D01*
D02*
G37*
G36*
X20167500Y13377800D02*
X19854800D01*
Y13315100D01*
X20167500D01*
Y13377800D01*
D02*
G37*
G36*
X19829401D02*
X19516701D01*
Y13315100D01*
X19829401D01*
Y13377800D01*
D02*
G37*
G36*
X11632000Y16894501D02*
X11544300D01*
Y16806799D01*
X11632000D01*
Y16894501D01*
D02*
G37*
G36*
X9041318D02*
X9040800D01*
Y16806799D01*
X9128500D01*
Y16807318D01*
X9121658Y16832854D01*
X9108440Y16855746D01*
X9089747Y16874440D01*
X9066853Y16887659D01*
X9041318Y16894501D01*
D02*
G37*
G36*
X9015400D02*
X9014882D01*
X8989347Y16887659D01*
X8966453Y16874440D01*
X8947760Y16855746D01*
X8934542Y16832854D01*
X8927700Y16807318D01*
Y16806799D01*
X9015400D01*
Y16894501D01*
D02*
G37*
G36*
X11518900D02*
X11431200D01*
Y16806799D01*
X11518900D01*
Y16894501D01*
D02*
G37*
G36*
X11289054Y16881100D02*
X11266146D01*
X11244019Y16875171D01*
X11224181Y16863718D01*
X11207983Y16847519D01*
X11196529Y16827681D01*
X11190600Y16805554D01*
Y16782646D01*
X11196529Y16760519D01*
X11207983Y16740681D01*
X11224181Y16724483D01*
X11244019Y16713029D01*
X11266146Y16707100D01*
X11289054D01*
X11311181Y16713029D01*
X11331019Y16724483D01*
X11347217Y16740681D01*
X11358671Y16760519D01*
X11364600Y16782646D01*
Y16805554D01*
X11358671Y16827681D01*
X11347217Y16847519D01*
X11331019Y16863718D01*
X11311181Y16875171D01*
X11289054Y16881100D01*
D02*
G37*
G36*
X9369100D02*
X9195100D01*
Y16707100D01*
X9369100D01*
Y16881100D01*
D02*
G37*
G36*
X11632000Y16781400D02*
X11544300D01*
Y16693700D01*
X11632000D01*
Y16781400D01*
D02*
G37*
G36*
X11518900D02*
X11431200D01*
Y16693700D01*
X11518900D01*
Y16781400D01*
D02*
G37*
G36*
X9128500D02*
X9040800D01*
Y16693700D01*
X9041318D01*
X9066853Y16700542D01*
X9089747Y16713760D01*
X9108440Y16732452D01*
X9121658Y16755347D01*
X9128500Y16780882D01*
Y16781400D01*
D02*
G37*
G36*
X9015400D02*
X8927700D01*
Y16780882D01*
X8934542Y16755347D01*
X8947760Y16732452D01*
X8966453Y16713760D01*
X8989347Y16700542D01*
X9014882Y16693700D01*
X9015400D01*
Y16781400D01*
D02*
G37*
G36*
X13596899Y15751900D02*
X13284200D01*
Y15689200D01*
X13596899D01*
Y15751900D01*
D02*
G37*
G36*
X13258800D02*
X12946100D01*
Y15689200D01*
X13258800D01*
Y15751900D01*
D02*
G37*
G36*
X13596899Y15663800D02*
X13284200D01*
Y15601100D01*
X13596899D01*
Y15663800D01*
D02*
G37*
G36*
X13258800D02*
X12946100D01*
Y15601100D01*
X13258800D01*
Y15663800D01*
D02*
G37*
G36*
X13596899Y15497900D02*
X13284200D01*
Y15435201D01*
X13596899D01*
Y15497900D01*
D02*
G37*
G36*
X13258800D02*
X12946100D01*
Y15435201D01*
X13258800D01*
Y15497900D01*
D02*
G37*
G36*
X13596899Y15409801D02*
X13284200D01*
Y15347099D01*
X13596899D01*
Y15409801D01*
D02*
G37*
G36*
X13258800D02*
X12946100D01*
Y15347099D01*
X13258800D01*
Y15409801D01*
D02*
G37*
G36*
X13596899Y15243900D02*
X13284200D01*
Y15181200D01*
X13596899D01*
Y15243900D01*
D02*
G37*
G36*
X13258800D02*
X12946100D01*
Y15181200D01*
X13258800D01*
Y15243900D01*
D02*
G37*
G36*
X13596899Y15155800D02*
X13284200D01*
Y15093100D01*
X13596899D01*
Y15155800D01*
D02*
G37*
G36*
X13258800D02*
X12946100D01*
Y15093100D01*
X13258800D01*
Y15155800D01*
D02*
G37*
G36*
X13596899Y14989900D02*
X13284200D01*
Y14927200D01*
X13596899D01*
Y14989900D01*
D02*
G37*
G36*
X13258800D02*
X12946100D01*
Y14927200D01*
X13258800D01*
Y14989900D01*
D02*
G37*
G36*
X8093499Y15123846D02*
X8067301D01*
X8041994Y15117065D01*
X8019306Y15103966D01*
X8000780Y15085440D01*
X7987681Y15062750D01*
X7980900Y15037445D01*
Y15011246D01*
X7987681Y14985941D01*
X8000780Y14963251D01*
X8019306Y14944727D01*
X8041994Y14931625D01*
X8067301Y14924846D01*
X8093499D01*
X8118805Y14931625D01*
X8141494Y14944727D01*
X8160019Y14963251D01*
X8173119Y14985941D01*
X8179900Y15011246D01*
Y15037445D01*
X8173119Y15062750D01*
X8160019Y15085440D01*
X8141494Y15103966D01*
X8118805Y15117065D01*
X8093499Y15123846D01*
D02*
G37*
G36*
X13596899Y14901801D02*
X13284200D01*
Y14839101D01*
X13596899D01*
Y14901801D01*
D02*
G37*
G36*
X13258800D02*
X12946100D01*
Y14839101D01*
X13258800D01*
Y14901801D01*
D02*
G37*
G36*
X13596899Y14735899D02*
X13284200D01*
Y14673199D01*
X13596899D01*
Y14735899D01*
D02*
G37*
G36*
X13258800D02*
X12946100D01*
Y14673199D01*
X13258800D01*
Y14735899D01*
D02*
G37*
G36*
X8620700Y14736279D02*
X8168700D01*
X8159140Y14734378D01*
X8151037Y14728963D01*
X8129673Y14707600D01*
X8120640D01*
X8107041Y14701967D01*
X8096633Y14691559D01*
X8091000Y14677960D01*
Y14663240D01*
X8096633Y14649641D01*
X8107041Y14639233D01*
X8120640Y14633600D01*
X8135360D01*
X8148959Y14639233D01*
X8159367Y14649641D01*
X8165000Y14663240D01*
Y14672273D01*
X8179047Y14686320D01*
X8610353D01*
X8624400Y14672273D01*
Y14663240D01*
X8630033Y14649641D01*
X8640441Y14639233D01*
X8654040Y14633600D01*
X8668760D01*
X8682359Y14639233D01*
X8692767Y14649641D01*
X8698400Y14663240D01*
Y14677960D01*
X8692767Y14691559D01*
X8682359Y14701967D01*
X8668760Y14707600D01*
X8659727D01*
X8638363Y14728963D01*
X8630260Y14734378D01*
X8620700Y14736279D01*
D02*
G37*
G36*
X13596899Y14647800D02*
X13284200D01*
Y14585100D01*
X13596899D01*
Y14647800D01*
D02*
G37*
G36*
X13258800D02*
X12946100D01*
Y14585100D01*
X13258800D01*
Y14647800D01*
D02*
G37*
G36*
X8833860Y14570500D02*
X8819140D01*
X8805541Y14564867D01*
X8795133Y14554459D01*
X8789500Y14540860D01*
Y14526140D01*
X8795133Y14512541D01*
X8805541Y14502133D01*
X8819140Y14496500D01*
X8833860D01*
X8847459Y14502133D01*
X8857867Y14512541D01*
X8863500Y14526140D01*
Y14540860D01*
X8857867Y14554459D01*
X8847459Y14564867D01*
X8833860Y14570500D01*
D02*
G37*
G36*
X8592560Y14507001D02*
X8577840D01*
X8564241Y14501367D01*
X8557854Y14494980D01*
X8155346D01*
X8148959Y14501367D01*
X8135360Y14507001D01*
X8120640D01*
X8107041Y14501367D01*
X8096633Y14490959D01*
X8091000Y14477361D01*
Y14462640D01*
X8096633Y14449042D01*
X8107041Y14438634D01*
X8120640Y14433000D01*
X8135360D01*
X8148959Y14438634D01*
X8155346Y14445020D01*
X8557854D01*
X8564241Y14438634D01*
X8577840Y14433000D01*
X8592560D01*
X8606159Y14438634D01*
X8616567Y14449042D01*
X8622200Y14462640D01*
Y14477361D01*
X8616567Y14490959D01*
X8606159Y14501367D01*
X8592560Y14507001D01*
D02*
G37*
G36*
X13596899Y14481900D02*
X13284200D01*
Y14419200D01*
X13596899D01*
Y14481900D01*
D02*
G37*
G36*
X13258800D02*
X12946100D01*
Y14419200D01*
X13258800D01*
Y14481900D01*
D02*
G37*
G36*
X13596899Y14393800D02*
X13284200D01*
Y14331100D01*
X13596899D01*
Y14393800D01*
D02*
G37*
G36*
X13258800D02*
X12946100D01*
Y14331100D01*
X13258800D01*
Y14393800D01*
D02*
G37*
G36*
X12533000Y14220200D02*
X12359000D01*
Y14082675D01*
X12358711Y14081223D01*
X11494780D01*
X11485377Y14079352D01*
X11477405Y14074025D01*
X11395611Y13992232D01*
X11390284Y13984259D01*
X11388414Y13974857D01*
Y13927443D01*
X11262558D01*
Y14078210D01*
X11260688Y14087613D01*
X11255361Y14095586D01*
X11233745Y14117200D01*
X11225774Y14122527D01*
X11216370Y14124397D01*
X11010801D01*
X11001398Y14122527D01*
X10993426Y14117200D01*
X10971810Y14095586D01*
X10966484Y14087613D01*
X10964613Y14078210D01*
Y13738252D01*
X10838758D01*
Y14092065D01*
X10836887Y14101468D01*
X10831561Y14109441D01*
X10809945Y14131056D01*
X10801973Y14136382D01*
X10792570Y14138252D01*
X10587001D01*
X10577597Y14136382D01*
X10569626Y14131056D01*
X10548010Y14109441D01*
X10542683Y14101468D01*
X10540813Y14092065D01*
Y13938252D01*
X10477840D01*
Y13997758D01*
X10479997Y14002963D01*
Y14017683D01*
X10474364Y14031282D01*
X10463955Y14041690D01*
X10450356Y14047324D01*
X10435637D01*
X10422038Y14041690D01*
X10411630Y14031282D01*
X10405997Y14017683D01*
Y14002963D01*
X10411630Y13989365D01*
X10422038Y13978957D01*
X10428696Y13976199D01*
Y13938602D01*
X10427344Y13927689D01*
X10416430Y13926337D01*
X10378834D01*
X10376076Y13932994D01*
X10365668Y13943404D01*
X10352068Y13949036D01*
X10337349D01*
X10323750Y13943404D01*
X10313342Y13932994D01*
X10307709Y13919395D01*
Y13904675D01*
X10313342Y13891077D01*
X10323750Y13880669D01*
X10337349Y13875037D01*
X10352068D01*
X10357274Y13877193D01*
X10416998D01*
X10434785Y13859406D01*
X10442756Y13854079D01*
X10452160Y13852208D01*
X10566493D01*
X10575897Y13854079D01*
X10583869Y13859406D01*
X10619660Y13895197D01*
X10624987Y13903169D01*
X10626857Y13912572D01*
Y14052208D01*
X10752713D01*
Y13698396D01*
X10754584Y13688992D01*
X10759910Y13681021D01*
X10781526Y13659406D01*
X10789498Y13654079D01*
X10798901Y13652208D01*
X11004470D01*
X11013873Y13654079D01*
X11021845Y13659406D01*
X11043461Y13681021D01*
X11048787Y13688992D01*
X11050658Y13698396D01*
Y14038353D01*
X11176514D01*
Y13887585D01*
X11178384Y13878183D01*
X11183711Y13870210D01*
X11205326Y13848595D01*
X11213298Y13843268D01*
X11222701Y13841399D01*
X11428271D01*
X11437674Y13843268D01*
X11445646Y13848595D01*
X11467261Y13870210D01*
X11472588Y13878183D01*
X11474458Y13887585D01*
Y13949393D01*
X11520243Y13995178D01*
X12358711D01*
X12359000Y13993726D01*
Y13856200D01*
X12533000D01*
Y13993726D01*
X12533289Y13995178D01*
X12832687D01*
X12838190Y13989674D01*
X12846162Y13984348D01*
X12855566Y13982478D01*
X13221529D01*
Y13960500D01*
X12959500D01*
Y13836501D01*
X13583501D01*
Y13960500D01*
X13270673D01*
Y13992874D01*
X13268802Y14002277D01*
X13263475Y14010249D01*
X13256897Y14016827D01*
X13250137Y14025500D01*
X13256897Y14034174D01*
X13263475Y14040752D01*
X13268802Y14048723D01*
X13270673Y14058125D01*
Y14090500D01*
X13583501D01*
Y14214500D01*
X12959500D01*
Y14090500D01*
X13221529D01*
Y14068523D01*
X12881029D01*
X12875525Y14074025D01*
X12867554Y14079352D01*
X12858150Y14081223D01*
X12533289D01*
X12533000Y14082675D01*
Y14220200D01*
D02*
G37*
G36*
X8093499Y14034145D02*
X8067301D01*
X8041994Y14027365D01*
X8019306Y14014265D01*
X8000780Y13995740D01*
X7987681Y13973051D01*
X7980900Y13947745D01*
Y13921545D01*
X7987681Y13896240D01*
X8000780Y13873550D01*
X8019306Y13855026D01*
X8041994Y13841927D01*
X8067301Y13835146D01*
X8093499D01*
X8118805Y13841927D01*
X8141494Y13855026D01*
X8160019Y13873550D01*
X8173119Y13896240D01*
X8179900Y13921545D01*
Y13947745D01*
X8173119Y13973051D01*
X8160019Y13995740D01*
X8141494Y14014265D01*
X8118805Y14027365D01*
X8093499Y14034145D01*
D02*
G37*
G36*
X13596899Y13719901D02*
X13284200D01*
Y13657201D01*
X13596899D01*
Y13719901D01*
D02*
G37*
G36*
X13258800D02*
X12946100D01*
Y13657201D01*
X13258800D01*
Y13719901D01*
D02*
G37*
G36*
X13596899Y13631799D02*
X13284200D01*
Y13569099D01*
X13596899D01*
Y13631799D01*
D02*
G37*
G36*
X13258800D02*
X12946100D01*
Y13569099D01*
X13258800D01*
Y13631799D01*
D02*
G37*
G36*
X13596899Y13465900D02*
X13284200D01*
Y13403200D01*
X13596899D01*
Y13465900D01*
D02*
G37*
G36*
X13258800D02*
X12946100D01*
Y13403200D01*
X13258800D01*
Y13465900D01*
D02*
G37*
G36*
X13596899Y13377800D02*
X13284200D01*
Y13315100D01*
X13596899D01*
Y13377800D01*
D02*
G37*
G36*
X13258800D02*
X12946100D01*
Y13315100D01*
X13258800D01*
Y13377800D01*
D02*
G37*
G36*
X18202600Y12394000D02*
X18114900D01*
Y12306300D01*
X18202600D01*
Y12394000D01*
D02*
G37*
G36*
X15611919D02*
X15611400D01*
Y12306300D01*
X15699100D01*
Y12306818D01*
X15692258Y12332353D01*
X15679041Y12355247D01*
X15660347Y12373940D01*
X15637453Y12387158D01*
X15611919Y12394000D01*
D02*
G37*
G36*
X15586000D02*
X15585481D01*
X15559947Y12387158D01*
X15537053Y12373940D01*
X15518359Y12355247D01*
X15505142Y12332353D01*
X15498300Y12306818D01*
Y12306300D01*
X15586000D01*
Y12394000D01*
D02*
G37*
G36*
X18089500D02*
X18001801D01*
Y12306300D01*
X18089500D01*
Y12394000D01*
D02*
G37*
G36*
X17859654Y12380600D02*
X17836746D01*
X17814619Y12374671D01*
X17794781Y12363217D01*
X17778583Y12347019D01*
X17767130Y12327181D01*
X17761200Y12305054D01*
Y12282146D01*
X17767130Y12260019D01*
X17778583Y12240181D01*
X17794781Y12223983D01*
X17814619Y12212529D01*
X17836746Y12206600D01*
X17859654D01*
X17881781Y12212529D01*
X17901619Y12223983D01*
X17917818Y12240181D01*
X17929271Y12260019D01*
X17935201Y12282146D01*
Y12305054D01*
X17929271Y12327181D01*
X17917818Y12347019D01*
X17901619Y12363217D01*
X17881781Y12374671D01*
X17859654Y12380600D01*
D02*
G37*
G36*
X15939700D02*
X15765700D01*
Y12206600D01*
X15939700D01*
Y12380600D01*
D02*
G37*
G36*
X18202600Y12280900D02*
X18114900D01*
Y12193200D01*
X18202600D01*
Y12280900D01*
D02*
G37*
G36*
X18089500D02*
X18001801D01*
Y12193200D01*
X18089500D01*
Y12280900D01*
D02*
G37*
G36*
X15699100D02*
X15611400D01*
Y12193200D01*
X15611919D01*
X15637453Y12200042D01*
X15660347Y12213260D01*
X15679041Y12231953D01*
X15692258Y12254847D01*
X15699100Y12280382D01*
Y12280900D01*
D02*
G37*
G36*
X15586000D02*
X15498300D01*
Y12280382D01*
X15505142Y12254847D01*
X15518359Y12231953D01*
X15537053Y12213260D01*
X15559947Y12200042D01*
X15585481Y12193200D01*
X15586000D01*
Y12280900D01*
D02*
G37*
G36*
X20167500Y11251400D02*
X19854800D01*
Y11188700D01*
X20167500D01*
Y11251400D01*
D02*
G37*
G36*
X19829401D02*
X19516701D01*
Y11188700D01*
X19829401D01*
Y11251400D01*
D02*
G37*
G36*
X20167500Y11163300D02*
X19854800D01*
Y11100600D01*
X20167500D01*
Y11163300D01*
D02*
G37*
G36*
X19829401D02*
X19516701D01*
Y11100600D01*
X19829401D01*
Y11163300D01*
D02*
G37*
G36*
X20167500Y10997400D02*
X19854800D01*
Y10934700D01*
X20167500D01*
Y10997400D01*
D02*
G37*
G36*
X19829401D02*
X19516701D01*
Y10934700D01*
X19829401D01*
Y10997400D01*
D02*
G37*
G36*
X20167500Y10909300D02*
X19854800D01*
Y10846600D01*
X20167500D01*
Y10909300D01*
D02*
G37*
G36*
X19829401D02*
X19516701D01*
Y10846600D01*
X19829401D01*
Y10909300D01*
D02*
G37*
G36*
X20167500Y10743400D02*
X19854800D01*
Y10680700D01*
X20167500D01*
Y10743400D01*
D02*
G37*
G36*
X19829401D02*
X19516701D01*
Y10680700D01*
X19829401D01*
Y10743400D01*
D02*
G37*
G36*
X20167500Y10655300D02*
X19854800D01*
Y10592600D01*
X20167500D01*
Y10655300D01*
D02*
G37*
G36*
X19829401D02*
X19516701D01*
Y10592600D01*
X19829401D01*
Y10655300D01*
D02*
G37*
G36*
X20167500Y10489400D02*
X19854800D01*
Y10426700D01*
X20167500D01*
Y10489400D01*
D02*
G37*
G36*
X19829401D02*
X19516701D01*
Y10426700D01*
X19829401D01*
Y10489400D01*
D02*
G37*
G36*
X14664099Y10623346D02*
X14637901D01*
X14612595Y10616565D01*
X14589906Y10603465D01*
X14571381Y10584940D01*
X14558281Y10562251D01*
X14551500Y10536945D01*
Y10510746D01*
X14558281Y10485440D01*
X14571381Y10462751D01*
X14589906Y10444226D01*
X14612595Y10431126D01*
X14637901Y10424346D01*
X14664099D01*
X14689404Y10431126D01*
X14712094Y10444226D01*
X14730620Y10462751D01*
X14743719Y10485440D01*
X14750500Y10510746D01*
Y10536945D01*
X14743719Y10562251D01*
X14730620Y10584940D01*
X14712094Y10603465D01*
X14689404Y10616565D01*
X14664099Y10623346D01*
D02*
G37*
G36*
X20167500Y10401300D02*
X19854800D01*
Y10338600D01*
X20167500D01*
Y10401300D01*
D02*
G37*
G36*
X19829401D02*
X19516701D01*
Y10338600D01*
X19829401D01*
Y10401300D01*
D02*
G37*
G36*
X20167500Y10235400D02*
X19854800D01*
Y10172700D01*
X20167500D01*
Y10235400D01*
D02*
G37*
G36*
X19829401D02*
X19516701D01*
Y10172700D01*
X19829401D01*
Y10235400D01*
D02*
G37*
G36*
X15191299Y10235780D02*
X14739301D01*
X14729739Y10233878D01*
X14721637Y10228463D01*
X14700273Y10207100D01*
X14691240D01*
X14677641Y10201467D01*
X14667233Y10191059D01*
X14661600Y10177460D01*
Y10162740D01*
X14667233Y10149141D01*
X14677641Y10138733D01*
X14691240Y10133100D01*
X14705960D01*
X14719559Y10138733D01*
X14729967Y10149141D01*
X14735600Y10162740D01*
Y10171773D01*
X14749648Y10185820D01*
X15180952D01*
X15195000Y10171773D01*
Y10162740D01*
X15200633Y10149141D01*
X15211041Y10138733D01*
X15224640Y10133100D01*
X15239360D01*
X15252959Y10138733D01*
X15263367Y10149141D01*
X15269000Y10162740D01*
Y10177460D01*
X15263367Y10191059D01*
X15252959Y10201467D01*
X15239360Y10207100D01*
X15230327D01*
X15208963Y10228463D01*
X15200861Y10233878D01*
X15191299Y10235780D01*
D02*
G37*
G36*
X20167500Y10147300D02*
X19854800D01*
Y10084600D01*
X20167500D01*
Y10147300D01*
D02*
G37*
G36*
X19829401D02*
X19516701D01*
Y10084600D01*
X19829401D01*
Y10147300D01*
D02*
G37*
G36*
X15404460Y10070000D02*
X15389740D01*
X15376141Y10064367D01*
X15365733Y10053959D01*
X15360100Y10040360D01*
Y10025640D01*
X15365733Y10012041D01*
X15376141Y10001633D01*
X15389740Y9996000D01*
X15404460D01*
X15418059Y10001633D01*
X15428467Y10012041D01*
X15434100Y10025640D01*
Y10040360D01*
X15428467Y10053959D01*
X15418059Y10064367D01*
X15404460Y10070000D01*
D02*
G37*
G36*
X15163161Y10006500D02*
X15148441D01*
X15134840Y10000867D01*
X15128455Y9994480D01*
X14725946D01*
X14719559Y10000867D01*
X14705960Y10006500D01*
X14691240D01*
X14677641Y10000867D01*
X14667233Y9990459D01*
X14661600Y9976860D01*
Y9962140D01*
X14667233Y9948541D01*
X14677641Y9938133D01*
X14691240Y9932500D01*
X14705960D01*
X14719559Y9938133D01*
X14725946Y9944520D01*
X15128455D01*
X15134840Y9938133D01*
X15148441Y9932500D01*
X15163161D01*
X15176759Y9938133D01*
X15187167Y9948541D01*
X15192799Y9962140D01*
Y9976860D01*
X15187167Y9990459D01*
X15176759Y10000867D01*
X15163161Y10006500D01*
D02*
G37*
G36*
X20167500Y9981400D02*
X19854800D01*
Y9918700D01*
X20167500D01*
Y9981400D01*
D02*
G37*
G36*
X19829401D02*
X19516701D01*
Y9918700D01*
X19829401D01*
Y9981400D01*
D02*
G37*
G36*
X20167500Y9893300D02*
X19854800D01*
Y9830600D01*
X20167500D01*
Y9893300D01*
D02*
G37*
G36*
X19829401D02*
X19516701D01*
Y9830600D01*
X19829401D01*
Y9893300D01*
D02*
G37*
G36*
X19103600Y9719700D02*
X18929601D01*
Y9582175D01*
X18929311Y9580722D01*
X18065379D01*
X18055977Y9578852D01*
X18048006Y9573525D01*
X17966211Y9491731D01*
X17960884Y9483759D01*
X17959013Y9474356D01*
Y9426943D01*
X17833157D01*
Y9577710D01*
X17831288Y9587113D01*
X17825961Y9595085D01*
X17804346Y9616700D01*
X17796375Y9622027D01*
X17786971Y9623897D01*
X17581401D01*
X17571999Y9622027D01*
X17564026Y9616700D01*
X17542410Y9595085D01*
X17537083Y9587113D01*
X17535213Y9577710D01*
Y9237753D01*
X17409358D01*
Y9591565D01*
X17407487Y9600968D01*
X17402161Y9608940D01*
X17380545Y9630556D01*
X17372572Y9635882D01*
X17363170Y9637753D01*
X17157600D01*
X17148196Y9635882D01*
X17140227Y9630556D01*
X17118610Y9608940D01*
X17113283Y9600968D01*
X17111414Y9591565D01*
Y9437753D01*
X17048441D01*
Y9497258D01*
X17050597Y9502464D01*
Y9517183D01*
X17044965Y9530782D01*
X17034555Y9541190D01*
X17020956Y9546823D01*
X17006236D01*
X16992638Y9541190D01*
X16982230Y9530782D01*
X16976598Y9517183D01*
Y9502464D01*
X16982230Y9488865D01*
X16992638Y9478457D01*
X16999297Y9475699D01*
Y9438102D01*
X16997945Y9427189D01*
X16987030Y9425836D01*
X16949434D01*
X16946677Y9432494D01*
X16936269Y9442903D01*
X16922668Y9448536D01*
X16907948D01*
X16894350Y9442903D01*
X16883942Y9432494D01*
X16878310Y9418895D01*
Y9404176D01*
X16883942Y9390577D01*
X16894350Y9380169D01*
X16907948Y9374536D01*
X16922668D01*
X16927875Y9376692D01*
X16987598D01*
X17005385Y9358905D01*
X17013356Y9353579D01*
X17022760Y9351708D01*
X17137093D01*
X17146497Y9353579D01*
X17154469Y9358905D01*
X17190260Y9394697D01*
X17195587Y9402669D01*
X17197456Y9412072D01*
Y9551708D01*
X17323312D01*
Y9197896D01*
X17325185Y9188493D01*
X17330510Y9180521D01*
X17352126Y9158905D01*
X17360098Y9153579D01*
X17369501Y9151708D01*
X17575070D01*
X17584473Y9153579D01*
X17592445Y9158905D01*
X17614061Y9180521D01*
X17619386Y9188493D01*
X17621259Y9197896D01*
Y9537853D01*
X17747115D01*
Y9387086D01*
X17748984Y9377683D01*
X17754311Y9369711D01*
X17775926Y9348095D01*
X17783897Y9342768D01*
X17793301Y9340898D01*
X17998871D01*
X18008273Y9342768D01*
X18016246Y9348095D01*
X18037862Y9369711D01*
X18043188Y9377683D01*
X18045058Y9387086D01*
Y9448893D01*
X18090843Y9494678D01*
X18929311D01*
X18929601Y9493225D01*
Y9355700D01*
X19103600D01*
Y9493225D01*
X19103889Y9494678D01*
X19403288D01*
X19408791Y9489175D01*
X19416762Y9483848D01*
X19426166Y9481978D01*
X19792128D01*
Y9460000D01*
X19530099D01*
Y9336000D01*
X20154100D01*
Y9460000D01*
X19841272D01*
Y9492374D01*
X19839401Y9501777D01*
X19834074Y9509749D01*
X19827496Y9516327D01*
X19820737Y9525000D01*
X19827496Y9533673D01*
X19834074Y9540251D01*
X19839401Y9548223D01*
X19841272Y9557626D01*
Y9590000D01*
X20154100D01*
Y9714000D01*
X19530099D01*
Y9590000D01*
X19792128D01*
Y9568022D01*
X19451628D01*
X19446124Y9573525D01*
X19438153Y9578852D01*
X19428751Y9580722D01*
X19103889D01*
X19103600Y9582175D01*
Y9719700D01*
D02*
G37*
G36*
X14664099Y9533645D02*
X14637901D01*
X14612595Y9526865D01*
X14589906Y9513765D01*
X14571381Y9495240D01*
X14558281Y9472551D01*
X14551500Y9447245D01*
Y9421046D01*
X14558281Y9395740D01*
X14571381Y9373051D01*
X14589906Y9354526D01*
X14612595Y9341426D01*
X14637901Y9334646D01*
X14664099D01*
X14689404Y9341426D01*
X14712094Y9354526D01*
X14730620Y9373051D01*
X14743719Y9395740D01*
X14750500Y9421046D01*
Y9447245D01*
X14743719Y9472551D01*
X14730620Y9495240D01*
X14712094Y9513765D01*
X14689404Y9526865D01*
X14664099Y9533645D01*
D02*
G37*
G36*
X20167500Y9219400D02*
X19854800D01*
Y9156700D01*
X20167500D01*
Y9219400D01*
D02*
G37*
G36*
X19829401D02*
X19516701D01*
Y9156700D01*
X19829401D01*
Y9219400D01*
D02*
G37*
G36*
X20167500Y9131300D02*
X19854800D01*
Y9068600D01*
X20167500D01*
Y9131300D01*
D02*
G37*
G36*
X19829401D02*
X19516701D01*
Y9068600D01*
X19829401D01*
Y9131300D01*
D02*
G37*
G36*
X20167500Y8965400D02*
X19854800D01*
Y8902700D01*
X20167500D01*
Y8965400D01*
D02*
G37*
G36*
X19829401D02*
X19516701D01*
Y8902700D01*
X19829401D01*
Y8965400D01*
D02*
G37*
G36*
X20167500Y8877300D02*
X19854800D01*
Y8814600D01*
X20167500D01*
Y8877300D01*
D02*
G37*
G36*
X19829401D02*
X19516701D01*
Y8814600D01*
X19829401D01*
Y8877300D01*
D02*
G37*
G36*
X11632000Y12394000D02*
X11544300D01*
Y12306300D01*
X11632000D01*
Y12394000D01*
D02*
G37*
G36*
X9041318D02*
X9040800D01*
Y12306300D01*
X9128500D01*
Y12306818D01*
X9121658Y12332353D01*
X9108440Y12355247D01*
X9089747Y12373940D01*
X9066853Y12387158D01*
X9041318Y12394000D01*
D02*
G37*
G36*
X9015400D02*
X9014882D01*
X8989347Y12387158D01*
X8966453Y12373940D01*
X8947760Y12355247D01*
X8934542Y12332353D01*
X8927700Y12306818D01*
Y12306300D01*
X9015400D01*
Y12394000D01*
D02*
G37*
G36*
X11518900D02*
X11431200D01*
Y12306300D01*
X11518900D01*
Y12394000D01*
D02*
G37*
G36*
X11289054Y12380600D02*
X11266146D01*
X11244019Y12374671D01*
X11224181Y12363217D01*
X11207983Y12347019D01*
X11196529Y12327181D01*
X11190600Y12305054D01*
Y12282146D01*
X11196529Y12260019D01*
X11207983Y12240181D01*
X11224181Y12223983D01*
X11244019Y12212529D01*
X11266146Y12206600D01*
X11289054D01*
X11311181Y12212529D01*
X11331019Y12223983D01*
X11347217Y12240181D01*
X11358671Y12260019D01*
X11364600Y12282146D01*
Y12305054D01*
X11358671Y12327181D01*
X11347217Y12347019D01*
X11331019Y12363217D01*
X11311181Y12374671D01*
X11289054Y12380600D01*
D02*
G37*
G36*
X9369100D02*
X9195100D01*
Y12206600D01*
X9369100D01*
Y12380600D01*
D02*
G37*
G36*
X11632000Y12280900D02*
X11544300D01*
Y12193200D01*
X11632000D01*
Y12280900D01*
D02*
G37*
G36*
X11518900D02*
X11431200D01*
Y12193200D01*
X11518900D01*
Y12280900D01*
D02*
G37*
G36*
X9128500D02*
X9040800D01*
Y12193200D01*
X9041318D01*
X9066853Y12200042D01*
X9089747Y12213260D01*
X9108440Y12231953D01*
X9121658Y12254847D01*
X9128500Y12280382D01*
Y12280900D01*
D02*
G37*
G36*
X9015400D02*
X8927700D01*
Y12280382D01*
X8934542Y12254847D01*
X8947760Y12231953D01*
X8966453Y12213260D01*
X8989347Y12200042D01*
X9014882Y12193200D01*
X9015400D01*
Y12280900D01*
D02*
G37*
G36*
X13596899Y11251400D02*
X13284200D01*
Y11188700D01*
X13596899D01*
Y11251400D01*
D02*
G37*
G36*
X13258800D02*
X12946100D01*
Y11188700D01*
X13258800D01*
Y11251400D01*
D02*
G37*
G36*
X13596899Y11163300D02*
X13284200D01*
Y11100600D01*
X13596899D01*
Y11163300D01*
D02*
G37*
G36*
X13258800D02*
X12946100D01*
Y11100600D01*
X13258800D01*
Y11163300D01*
D02*
G37*
G36*
X13596899Y10997400D02*
X13284200D01*
Y10934700D01*
X13596899D01*
Y10997400D01*
D02*
G37*
G36*
X13258800D02*
X12946100D01*
Y10934700D01*
X13258800D01*
Y10997400D01*
D02*
G37*
G36*
X13596899Y10909300D02*
X13284200D01*
Y10846600D01*
X13596899D01*
Y10909300D01*
D02*
G37*
G36*
X13258800D02*
X12946100D01*
Y10846600D01*
X13258800D01*
Y10909300D01*
D02*
G37*
G36*
X13596899Y10743400D02*
X13284200D01*
Y10680700D01*
X13596899D01*
Y10743400D01*
D02*
G37*
G36*
X13258800D02*
X12946100D01*
Y10680700D01*
X13258800D01*
Y10743400D01*
D02*
G37*
G36*
X13596899Y10655300D02*
X13284200D01*
Y10592600D01*
X13596899D01*
Y10655300D01*
D02*
G37*
G36*
X13258800D02*
X12946100D01*
Y10592600D01*
X13258800D01*
Y10655300D01*
D02*
G37*
G36*
X13596899Y10489400D02*
X13284200D01*
Y10426700D01*
X13596899D01*
Y10489400D01*
D02*
G37*
G36*
X13258800D02*
X12946100D01*
Y10426700D01*
X13258800D01*
Y10489400D01*
D02*
G37*
G36*
X8093499Y10623346D02*
X8067301D01*
X8041994Y10616565D01*
X8019306Y10603465D01*
X8000780Y10584940D01*
X7987681Y10562251D01*
X7980900Y10536945D01*
Y10510746D01*
X7987681Y10485440D01*
X8000780Y10462751D01*
X8019306Y10444226D01*
X8041994Y10431126D01*
X8067301Y10424346D01*
X8093499D01*
X8118805Y10431126D01*
X8141494Y10444226D01*
X8160019Y10462751D01*
X8173119Y10485440D01*
X8179900Y10510746D01*
Y10536945D01*
X8173119Y10562251D01*
X8160019Y10584940D01*
X8141494Y10603465D01*
X8118805Y10616565D01*
X8093499Y10623346D01*
D02*
G37*
G36*
X13596899Y10401300D02*
X13284200D01*
Y10338600D01*
X13596899D01*
Y10401300D01*
D02*
G37*
G36*
X13258800D02*
X12946100D01*
Y10338600D01*
X13258800D01*
Y10401300D01*
D02*
G37*
G36*
X13596899Y10235400D02*
X13284200D01*
Y10172700D01*
X13596899D01*
Y10235400D01*
D02*
G37*
G36*
X13258800D02*
X12946100D01*
Y10172700D01*
X13258800D01*
Y10235400D01*
D02*
G37*
G36*
X8620700Y10235780D02*
X8168700D01*
X8159140Y10233878D01*
X8151037Y10228463D01*
X8129673Y10207100D01*
X8120640D01*
X8107041Y10201467D01*
X8096633Y10191059D01*
X8091000Y10177460D01*
Y10162740D01*
X8096633Y10149141D01*
X8107041Y10138733D01*
X8120640Y10133100D01*
X8135360D01*
X8148959Y10138733D01*
X8159367Y10149141D01*
X8165000Y10162740D01*
Y10171773D01*
X8179047Y10185820D01*
X8610353D01*
X8624400Y10171773D01*
Y10162740D01*
X8630033Y10149141D01*
X8640441Y10138733D01*
X8654040Y10133100D01*
X8668760D01*
X8682359Y10138733D01*
X8692767Y10149141D01*
X8698400Y10162740D01*
Y10177460D01*
X8692767Y10191059D01*
X8682359Y10201467D01*
X8668760Y10207100D01*
X8659727D01*
X8638363Y10228463D01*
X8630260Y10233878D01*
X8620700Y10235780D01*
D02*
G37*
G36*
X13596899Y10147300D02*
X13284200D01*
Y10084600D01*
X13596899D01*
Y10147300D01*
D02*
G37*
G36*
X13258800D02*
X12946100D01*
Y10084600D01*
X13258800D01*
Y10147300D01*
D02*
G37*
G36*
X8833860Y10070000D02*
X8819140D01*
X8805541Y10064367D01*
X8795133Y10053959D01*
X8789500Y10040360D01*
Y10025640D01*
X8795133Y10012041D01*
X8805541Y10001633D01*
X8819140Y9996000D01*
X8833860D01*
X8847459Y10001633D01*
X8857867Y10012041D01*
X8863500Y10025640D01*
Y10040360D01*
X8857867Y10053959D01*
X8847459Y10064367D01*
X8833860Y10070000D01*
D02*
G37*
G36*
X8592560Y10006500D02*
X8577840D01*
X8564241Y10000867D01*
X8557854Y9994480D01*
X8155346D01*
X8148959Y10000867D01*
X8135360Y10006500D01*
X8120640D01*
X8107041Y10000867D01*
X8096633Y9990459D01*
X8091000Y9976860D01*
Y9962140D01*
X8096633Y9948541D01*
X8107041Y9938133D01*
X8120640Y9932500D01*
X8135360D01*
X8148959Y9938133D01*
X8155346Y9944520D01*
X8557854D01*
X8564241Y9938133D01*
X8577840Y9932500D01*
X8592560D01*
X8606159Y9938133D01*
X8616567Y9948541D01*
X8622200Y9962140D01*
Y9976860D01*
X8616567Y9990459D01*
X8606159Y10000867D01*
X8592560Y10006500D01*
D02*
G37*
G36*
X13596899Y9981400D02*
X13284200D01*
Y9918700D01*
X13596899D01*
Y9981400D01*
D02*
G37*
G36*
X13258800D02*
X12946100D01*
Y9918700D01*
X13258800D01*
Y9981400D01*
D02*
G37*
G36*
X13596899Y9893300D02*
X13284200D01*
Y9830600D01*
X13596899D01*
Y9893300D01*
D02*
G37*
G36*
X13258800D02*
X12946100D01*
Y9830600D01*
X13258800D01*
Y9893300D01*
D02*
G37*
G36*
X12533000Y9719700D02*
X12359000D01*
Y9582175D01*
X12358711Y9580722D01*
X11494780D01*
X11485377Y9578852D01*
X11477405Y9573525D01*
X11395611Y9491731D01*
X11390284Y9483759D01*
X11388414Y9474356D01*
Y9426943D01*
X11262558D01*
Y9577710D01*
X11260688Y9587113D01*
X11255361Y9595085D01*
X11233745Y9616700D01*
X11225774Y9622027D01*
X11216370Y9623897D01*
X11010801D01*
X11001398Y9622027D01*
X10993426Y9616700D01*
X10971810Y9595085D01*
X10966484Y9587113D01*
X10964613Y9577710D01*
Y9237753D01*
X10838758D01*
Y9591565D01*
X10836887Y9600968D01*
X10831561Y9608940D01*
X10809945Y9630556D01*
X10801973Y9635882D01*
X10792570Y9637753D01*
X10587001D01*
X10577597Y9635882D01*
X10569626Y9630556D01*
X10548010Y9608940D01*
X10542683Y9600968D01*
X10540813Y9591565D01*
Y9437753D01*
X10477840D01*
Y9497258D01*
X10479997Y9502464D01*
Y9517183D01*
X10474364Y9530782D01*
X10463955Y9541190D01*
X10450356Y9546823D01*
X10435637D01*
X10422038Y9541190D01*
X10411630Y9530782D01*
X10405997Y9517183D01*
Y9502464D01*
X10411630Y9488865D01*
X10422038Y9478457D01*
X10428696Y9475699D01*
Y9438102D01*
X10427344Y9427189D01*
X10416430Y9425836D01*
X10378834D01*
X10376076Y9432494D01*
X10365668Y9442903D01*
X10352068Y9448536D01*
X10337349D01*
X10323750Y9442903D01*
X10313342Y9432494D01*
X10307709Y9418895D01*
Y9404176D01*
X10313342Y9390577D01*
X10323750Y9380169D01*
X10337349Y9374536D01*
X10352068D01*
X10357274Y9376692D01*
X10416998D01*
X10434785Y9358905D01*
X10442756Y9353579D01*
X10452160Y9351708D01*
X10566493D01*
X10575897Y9353579D01*
X10583869Y9358905D01*
X10619660Y9394697D01*
X10624987Y9402669D01*
X10626857Y9412072D01*
Y9551708D01*
X10752713D01*
Y9197896D01*
X10754584Y9188493D01*
X10759910Y9180521D01*
X10781526Y9158905D01*
X10789498Y9153579D01*
X10798901Y9151708D01*
X11004470D01*
X11013873Y9153579D01*
X11021845Y9158905D01*
X11043461Y9180521D01*
X11048787Y9188493D01*
X11050658Y9197896D01*
Y9537853D01*
X11176514D01*
Y9387086D01*
X11178384Y9377683D01*
X11183711Y9369711D01*
X11205326Y9348095D01*
X11213298Y9342768D01*
X11222701Y9340898D01*
X11428271D01*
X11437674Y9342768D01*
X11445646Y9348095D01*
X11467261Y9369711D01*
X11472588Y9377683D01*
X11474458Y9387086D01*
Y9448893D01*
X11520243Y9494678D01*
X12358711D01*
X12359000Y9493225D01*
Y9355700D01*
X12533000D01*
Y9493225D01*
X12533289Y9494678D01*
X12832687D01*
X12838190Y9489175D01*
X12846162Y9483848D01*
X12855566Y9481978D01*
X13221529D01*
Y9460000D01*
X12959500D01*
Y9336000D01*
X13583501D01*
Y9460000D01*
X13270673D01*
Y9492374D01*
X13268802Y9501777D01*
X13263475Y9509749D01*
X13256897Y9516327D01*
X13250137Y9525000D01*
X13256897Y9533673D01*
X13263475Y9540251D01*
X13268802Y9548223D01*
X13270673Y9557626D01*
Y9590000D01*
X13583501D01*
Y9714000D01*
X12959500D01*
Y9590000D01*
X13221529D01*
Y9568022D01*
X12881029D01*
X12875525Y9573525D01*
X12867554Y9578852D01*
X12858150Y9580722D01*
X12533289D01*
X12533000Y9582175D01*
Y9719700D01*
D02*
G37*
G36*
X8093499Y9533645D02*
X8067301D01*
X8041994Y9526865D01*
X8019306Y9513765D01*
X8000780Y9495240D01*
X7987681Y9472551D01*
X7980900Y9447245D01*
Y9421046D01*
X7987681Y9395740D01*
X8000780Y9373051D01*
X8019306Y9354526D01*
X8041994Y9341426D01*
X8067301Y9334646D01*
X8093499D01*
X8118805Y9341426D01*
X8141494Y9354526D01*
X8160019Y9373051D01*
X8173119Y9395740D01*
X8179900Y9421046D01*
Y9447245D01*
X8173119Y9472551D01*
X8160019Y9495240D01*
X8141494Y9513765D01*
X8118805Y9526865D01*
X8093499Y9533645D01*
D02*
G37*
G36*
X13596899Y9219400D02*
X13284200D01*
Y9156700D01*
X13596899D01*
Y9219400D01*
D02*
G37*
G36*
X13258800D02*
X12946100D01*
Y9156700D01*
X13258800D01*
Y9219400D01*
D02*
G37*
G36*
X13596899Y9131300D02*
X13284200D01*
Y9068600D01*
X13596899D01*
Y9131300D01*
D02*
G37*
G36*
X13258800D02*
X12946100D01*
Y9068600D01*
X13258800D01*
Y9131300D01*
D02*
G37*
G36*
X13596899Y8965400D02*
X13284200D01*
Y8902700D01*
X13596899D01*
Y8965400D01*
D02*
G37*
G36*
X13258800D02*
X12946100D01*
Y8902700D01*
X13258800D01*
Y8965400D01*
D02*
G37*
G36*
X13596899Y8877300D02*
X13284200D01*
Y8814600D01*
X13596899D01*
Y8877300D01*
D02*
G37*
G36*
X13258800D02*
X12946100D01*
Y8814600D01*
X13258800D01*
Y8877300D01*
D02*
G37*
%LPD*%
D10*
X20948286Y30797501D02*
D03*
Y7696200D02*
D03*
X7213600D02*
D03*
D11*
X13271500Y10160000D02*
D03*
Y9906000D02*
D03*
Y9652000D02*
D03*
Y9398000D02*
D03*
Y9144000D02*
D03*
Y8890000D02*
D03*
Y11176000D02*
D03*
Y10922000D02*
D03*
Y10668000D02*
D03*
Y10414000D02*
D03*
X19842101Y10160000D02*
D03*
Y9906000D02*
D03*
Y9652000D02*
D03*
Y9398000D02*
D03*
Y9144000D02*
D03*
Y8890000D02*
D03*
Y11176000D02*
D03*
Y10922000D02*
D03*
Y10668000D02*
D03*
Y10414000D02*
D03*
X13271500Y14660500D02*
D03*
Y14406500D02*
D03*
Y14152499D02*
D03*
Y13898500D02*
D03*
Y13644501D02*
D03*
Y13390500D02*
D03*
Y15676500D02*
D03*
Y15422501D02*
D03*
Y15168500D02*
D03*
Y14914500D02*
D03*
X19842101Y14660500D02*
D03*
Y14406500D02*
D03*
Y14152499D02*
D03*
Y13898500D02*
D03*
Y13644501D02*
D03*
Y13390500D02*
D03*
Y15676500D02*
D03*
Y15422501D02*
D03*
Y15168500D02*
D03*
Y14914500D02*
D03*
X13271500Y19161000D02*
D03*
Y18907001D02*
D03*
Y18653000D02*
D03*
Y18399001D02*
D03*
Y18145000D02*
D03*
Y17891000D02*
D03*
Y20177000D02*
D03*
Y19923000D02*
D03*
Y19669000D02*
D03*
Y19414999D02*
D03*
X19842101Y19161000D02*
D03*
Y18907001D02*
D03*
Y18653000D02*
D03*
Y18399001D02*
D03*
Y18145000D02*
D03*
Y17891000D02*
D03*
Y20177000D02*
D03*
Y19923000D02*
D03*
Y19669000D02*
D03*
Y19414999D02*
D03*
X13271500Y23661501D02*
D03*
Y23407500D02*
D03*
Y23153500D02*
D03*
Y22899500D02*
D03*
Y22645500D02*
D03*
Y22391499D02*
D03*
Y24677499D02*
D03*
Y24423500D02*
D03*
Y24169501D02*
D03*
Y23915500D02*
D03*
X19842101Y23661501D02*
D03*
Y23407500D02*
D03*
Y23153500D02*
D03*
Y22899500D02*
D03*
Y22645500D02*
D03*
Y22391499D02*
D03*
Y24677499D02*
D03*
Y24423500D02*
D03*
Y24169501D02*
D03*
Y23915500D02*
D03*
X13271500Y28162000D02*
D03*
Y27907999D02*
D03*
Y27654001D02*
D03*
Y27400000D02*
D03*
Y27145999D02*
D03*
Y26892001D02*
D03*
Y29178000D02*
D03*
Y28923999D02*
D03*
Y28670001D02*
D03*
Y28416000D02*
D03*
X19842101Y28162000D02*
D03*
Y27907999D02*
D03*
Y27654001D02*
D03*
Y27400000D02*
D03*
Y27145999D02*
D03*
Y26892001D02*
D03*
Y29178000D02*
D03*
Y28923999D02*
D03*
Y28670001D02*
D03*
Y28416000D02*
D03*
D16*
X12446000Y9637700D02*
D03*
Y9437700D02*
D03*
X19016600Y9637700D02*
D03*
Y9437700D02*
D03*
X12446000Y14138200D02*
D03*
Y13938200D02*
D03*
X19016600Y14138200D02*
D03*
Y13938200D02*
D03*
X12446000Y18638699D02*
D03*
Y18438699D02*
D03*
X19016600Y18638699D02*
D03*
Y18438699D02*
D03*
X12446000Y23139200D02*
D03*
Y22939200D02*
D03*
X19016600Y23139200D02*
D03*
Y22939200D02*
D03*
X12446000Y27639700D02*
D03*
Y27439700D02*
D03*
X19016600Y27639700D02*
D03*
Y27439700D02*
D03*
D20*
X8128000Y10170100D02*
X8168700Y10210800D01*
X8620700D02*
X8661400Y10170100D01*
X8168700Y10210800D02*
X8620700D01*
X8127474Y9969500D02*
X8585200D01*
X14698599Y10170100D02*
X14739301Y10210800D01*
X15191299D02*
X15232001Y10170100D01*
X14739301Y10210800D02*
X15191299D01*
X14698074Y9969500D02*
X15155800D01*
X8128000Y14670599D02*
X8168700Y14711301D01*
X8620700D02*
X8661400Y14670599D01*
X8168700Y14711301D02*
X8620700D01*
X8127474Y14470000D02*
X8585200D01*
X14698599Y14670599D02*
X14739301Y14711301D01*
X15191299D02*
X15232001Y14670599D01*
X14739301Y14711301D02*
X15191299D01*
X14698074Y14470000D02*
X15155800D01*
X8128000Y19171100D02*
X8168700Y19211800D01*
X8620700D02*
X8661400Y19171100D01*
X8168700Y19211800D02*
X8620700D01*
X8127474Y18970500D02*
X8585200D01*
X14698599Y19171100D02*
X14739301Y19211800D01*
X15191299D02*
X15232001Y19171100D01*
X14739301Y19211800D02*
X15191299D01*
X14698074Y18970500D02*
X15155800D01*
X8128000Y23671600D02*
X8168700Y23712300D01*
X8620700D02*
X8661400Y23671600D01*
X8168700Y23712300D02*
X8620700D01*
X8127474Y23471001D02*
X8585200D01*
X14698599Y23671600D02*
X14739301Y23712300D01*
X15191299D02*
X15232001Y23671600D01*
X14739301Y23712300D02*
X15191299D01*
X14698074Y23471001D02*
X15155800D01*
X8128000Y28172101D02*
X8168700Y28212799D01*
X8620700D02*
X8661400Y28172101D01*
X8168700Y28212799D02*
X8620700D01*
X8127474Y27971500D02*
X8585200D01*
X14698599Y28172101D02*
X14739301Y28212799D01*
X15191299D02*
X15232001Y28172101D01*
X14739301Y28212799D02*
X15191299D01*
X14698074Y27971500D02*
X15155800D01*
D23*
X11510065Y9519250D02*
X11569700D01*
X11449886Y9459072D02*
X11510065Y9519250D01*
X11449886Y9387086D02*
Y9459072D01*
X11428271Y9365470D02*
X11449886Y9387086D01*
X11222701Y9365470D02*
X11428271D01*
X11201086Y9387086D02*
X11222701Y9365470D01*
X11201086Y9387086D02*
Y9562425D01*
X11026086D02*
X11201086D01*
X11026086Y9197896D02*
Y9562425D01*
X11004470Y9176280D02*
X11026086Y9197896D01*
X10798901Y9176280D02*
X11004470D01*
X10777285Y9197896D02*
X10798901Y9176280D01*
X10777285Y9197896D02*
Y9576281D01*
X10602285D02*
X10777285D01*
X10602285Y9412072D02*
Y9576281D01*
X10566493Y9376280D02*
X10602285Y9412072D01*
X10528300Y9376280D02*
X10566493D01*
X11494780Y9556150D02*
X11569700D01*
X11412986Y9474356D02*
X11494780Y9556150D01*
X11412986Y9402370D02*
Y9474356D01*
X11237986Y9402370D02*
X11412986D01*
X11237986D02*
Y9577710D01*
X11216370Y9599325D02*
X11237986Y9577710D01*
X11010801Y9599325D02*
X11216370D01*
X10989186Y9577710D02*
X11010801Y9599325D01*
X10989186Y9213180D02*
Y9577710D01*
X10814185Y9213180D02*
X10989186D01*
X10814185D02*
Y9591565D01*
X10792570Y9613181D02*
X10814185Y9591565D01*
X10587001Y9613181D02*
X10792570D01*
X10565385Y9591565D02*
X10587001Y9613181D01*
X10565385Y9427356D02*
Y9591565D01*
X10551209Y9413181D02*
X10565385Y9427356D01*
X10528300Y9413181D02*
X10551209D01*
X11569700Y9519250D02*
X12368924D01*
X10452160Y9376280D02*
X10528300D01*
X11569700Y9556150D02*
X12368924D01*
X10467444Y9413181D02*
X10528300D01*
X12383100Y9495600D02*
X12441000Y9437700D01*
X12383100Y9495600D02*
Y9505074D01*
X12368924Y9519250D02*
X12383100Y9505074D01*
X12441000Y9437700D02*
X12446000D01*
X10344709Y9411536D02*
X10354980Y9401264D01*
X10427176D01*
X10452160Y9376280D01*
X12441000Y9637700D02*
X12446000D01*
X12383100Y9579800D02*
X12441000Y9637700D01*
X12383100Y9570326D02*
Y9579800D01*
X12368924Y9556150D02*
X12383100Y9570326D01*
X10442997Y9509824D02*
X10453268Y9499552D01*
Y9427357D02*
Y9499552D01*
Y9427357D02*
X10467444Y9413181D01*
X12842867Y9519250D02*
X12855566Y9506550D01*
X12451000Y9437700D02*
X12508900Y9495600D01*
Y9505074D01*
X12523076Y9519250D02*
X12842867D01*
X13246100Y9626600D02*
X13271500Y9652000D01*
X12508900Y9505074D02*
X12523076Y9519250D01*
X12855566Y9506550D02*
X13231924D01*
X13246100Y9492374D01*
X12508900Y9570326D02*
Y9579800D01*
Y9570326D02*
X12523076Y9556150D01*
X12858150D02*
X12870850Y9543450D01*
X12523076Y9556150D02*
X12858150D01*
X13246100Y9423400D02*
X13271500Y9398000D01*
X13246100Y9557626D02*
Y9626600D01*
X12446000Y9637700D02*
X12451000D01*
X12508900Y9579800D01*
X12446000Y9437700D02*
X12451000D01*
X13231924Y9543450D02*
X13246100Y9557626D01*
X12870850Y9543450D02*
X13231924D01*
X13246100Y9423400D02*
Y9492374D01*
X18080666Y9519250D02*
X18140300D01*
X18020486Y9459072D02*
X18080666Y9519250D01*
X18020486Y9387086D02*
Y9459072D01*
X17998871Y9365470D02*
X18020486Y9387086D01*
X17793301Y9365470D02*
X17998871D01*
X17771686Y9387086D02*
X17793301Y9365470D01*
X17771686Y9387086D02*
Y9562425D01*
X17596686D02*
X17771686D01*
X17596686Y9197896D02*
Y9562425D01*
X17575070Y9176280D02*
X17596686Y9197896D01*
X17369501Y9176280D02*
X17575070D01*
X17347885Y9197896D02*
X17369501Y9176280D01*
X17347885Y9197896D02*
Y9576281D01*
X17172885D02*
X17347885D01*
X17172885Y9412072D02*
Y9576281D01*
X17137093Y9376280D02*
X17172885Y9412072D01*
X17098900Y9376280D02*
X17137093D01*
X18065379Y9556150D02*
X18140300D01*
X17983586Y9474356D02*
X18065379Y9556150D01*
X17983586Y9402370D02*
Y9474356D01*
X17808586Y9402370D02*
X17983586D01*
X17808586D02*
Y9577710D01*
X17786971Y9599325D02*
X17808586Y9577710D01*
X17581401Y9599325D02*
X17786971D01*
X17559785Y9577710D02*
X17581401Y9599325D01*
X17559785Y9213180D02*
Y9577710D01*
X17384785Y9213180D02*
X17559785D01*
X17384785D02*
Y9591565D01*
X17363170Y9613181D02*
X17384785Y9591565D01*
X17157600Y9613181D02*
X17363170D01*
X17135985Y9591565D02*
X17157600Y9613181D01*
X17135985Y9427356D02*
Y9591565D01*
X17121809Y9413181D02*
X17135985Y9427356D01*
X17098900Y9413181D02*
X17121809D01*
X18140300Y9519250D02*
X18939523D01*
X17022760Y9376280D02*
X17098900D01*
X18140300Y9556150D02*
X18939523D01*
X17038045Y9413181D02*
X17098900D01*
X18953700Y9495600D02*
X19011600Y9437700D01*
X18953700Y9495600D02*
Y9505074D01*
X18939523Y9519250D02*
X18953700Y9505074D01*
X19011600Y9437700D02*
X19016600D01*
X16915309Y9411536D02*
X16925580Y9401264D01*
X16997775D01*
X17022760Y9376280D01*
X19011600Y9637700D02*
X19016600D01*
X18953700Y9579800D02*
X19011600Y9637700D01*
X18953700Y9570326D02*
Y9579800D01*
X18939523Y9556150D02*
X18953700Y9570326D01*
X17013597Y9509824D02*
X17023868Y9499552D01*
Y9427357D02*
Y9499552D01*
Y9427357D02*
X17038045Y9413181D01*
X19413466Y9519250D02*
X19426166Y9506550D01*
X19021600Y9437700D02*
X19079500Y9495600D01*
Y9505074D01*
X19093677Y9519250D02*
X19413466D01*
X19816701Y9626600D02*
X19842101Y9652000D01*
X19079500Y9505074D02*
X19093677Y9519250D01*
X19426166Y9506550D02*
X19802524D01*
X19816701Y9492374D01*
X19079500Y9570326D02*
Y9579800D01*
Y9570326D02*
X19093677Y9556150D01*
X19428751D02*
X19441451Y9543450D01*
X19093677Y9556150D02*
X19428751D01*
X19816701Y9423400D02*
X19842101Y9398000D01*
X19816701Y9557626D02*
Y9626600D01*
X19016600Y9637700D02*
X19021600D01*
X19079500Y9579800D01*
X19016600Y9437700D02*
X19021600D01*
X19802524Y9543450D02*
X19816701Y9557626D01*
X19441451Y9543450D02*
X19802524D01*
X19816701Y9423400D02*
Y9492374D01*
X11510065Y14019749D02*
X11569700D01*
X11449886Y13959572D02*
X11510065Y14019749D01*
X11449886Y13887585D02*
Y13959572D01*
X11428271Y13865970D02*
X11449886Y13887585D01*
X11222701Y13865970D02*
X11428271D01*
X11201086Y13887585D02*
X11222701Y13865970D01*
X11201086Y13887585D02*
Y14062926D01*
X11026086D02*
X11201086D01*
X11026086Y13698396D02*
Y14062926D01*
X11004470Y13676781D02*
X11026086Y13698396D01*
X10798901Y13676781D02*
X11004470D01*
X10777285Y13698396D02*
X10798901Y13676781D01*
X10777285Y13698396D02*
Y14076781D01*
X10602285D02*
X10777285D01*
X10602285Y13912572D02*
Y14076781D01*
X10566493Y13876781D02*
X10602285Y13912572D01*
X10528300Y13876781D02*
X10566493D01*
X11494780Y14056650D02*
X11569700D01*
X11412986Y13974857D02*
X11494780Y14056650D01*
X11412986Y13902870D02*
Y13974857D01*
X11237986Y13902870D02*
X11412986D01*
X11237986D02*
Y14078210D01*
X11216370Y14099825D02*
X11237986Y14078210D01*
X11010801Y14099825D02*
X11216370D01*
X10989186Y14078210D02*
X11010801Y14099825D01*
X10989186Y13713680D02*
Y14078210D01*
X10814185Y13713680D02*
X10989186D01*
X10814185D02*
Y14092065D01*
X10792570Y14113681D02*
X10814185Y14092065D01*
X10587001Y14113681D02*
X10792570D01*
X10565385Y14092065D02*
X10587001Y14113681D01*
X10565385Y13927856D02*
Y14092065D01*
X10551209Y13913681D02*
X10565385Y13927856D01*
X10528300Y13913681D02*
X10551209D01*
X11569700Y14019749D02*
X12368924D01*
X10452160Y13876781D02*
X10528300D01*
X11569700Y14056650D02*
X12368924D01*
X10467444Y13913681D02*
X10528300D01*
X12383100Y13996100D02*
X12441000Y13938200D01*
X12383100Y13996100D02*
Y14005574D01*
X12368924Y14019749D02*
X12383100Y14005574D01*
X12441000Y13938200D02*
X12446000D01*
X10344709Y13912036D02*
X10354980Y13901764D01*
X10427176D01*
X10452160Y13876781D01*
X12441000Y14138200D02*
X12446000D01*
X12383100Y14080299D02*
X12441000Y14138200D01*
X12383100Y14070827D02*
Y14080299D01*
X12368924Y14056650D02*
X12383100Y14070827D01*
X10442997Y14010324D02*
X10453268Y14000052D01*
Y13927856D02*
Y14000052D01*
Y13927856D02*
X10467444Y13913681D01*
X12842867Y14019749D02*
X12855566Y14007050D01*
X12451000Y13938200D02*
X12508900Y13996100D01*
Y14005574D01*
X12523076Y14019749D02*
X12842867D01*
X13246100Y14127100D02*
X13271500Y14152499D01*
X12508900Y14005574D02*
X12523076Y14019749D01*
X12855566Y14007050D02*
X13231924D01*
X13246100Y13992874D01*
X12508900Y14070827D02*
Y14080299D01*
Y14070827D02*
X12523076Y14056650D01*
X12858150D02*
X12870850Y14043950D01*
X12523076Y14056650D02*
X12858150D01*
X13246100Y13923900D02*
X13271500Y13898500D01*
X13246100Y14058125D02*
Y14127100D01*
X12446000Y14138200D02*
X12451000D01*
X12508900Y14080299D01*
X12446000Y13938200D02*
X12451000D01*
X13231924Y14043950D02*
X13246100Y14058125D01*
X12870850Y14043950D02*
X13231924D01*
X13246100Y13923900D02*
Y13992874D01*
X18080666Y14019749D02*
X18140300D01*
X18020486Y13959572D02*
X18080666Y14019749D01*
X18020486Y13887585D02*
Y13959572D01*
X17998871Y13865970D02*
X18020486Y13887585D01*
X17793301Y13865970D02*
X17998871D01*
X17771686Y13887585D02*
X17793301Y13865970D01*
X17771686Y13887585D02*
Y14062926D01*
X17596686D02*
X17771686D01*
X17596686Y13698396D02*
Y14062926D01*
X17575070Y13676781D02*
X17596686Y13698396D01*
X17369501Y13676781D02*
X17575070D01*
X17347885Y13698396D02*
X17369501Y13676781D01*
X17347885Y13698396D02*
Y14076781D01*
X17172885D02*
X17347885D01*
X17172885Y13912572D02*
Y14076781D01*
X17137093Y13876781D02*
X17172885Y13912572D01*
X17098900Y13876781D02*
X17137093D01*
X18065379Y14056650D02*
X18140300D01*
X17983586Y13974857D02*
X18065379Y14056650D01*
X17983586Y13902870D02*
Y13974857D01*
X17808586Y13902870D02*
X17983586D01*
X17808586D02*
Y14078210D01*
X17786971Y14099825D02*
X17808586Y14078210D01*
X17581401Y14099825D02*
X17786971D01*
X17559785Y14078210D02*
X17581401Y14099825D01*
X17559785Y13713680D02*
Y14078210D01*
X17384785Y13713680D02*
X17559785D01*
X17384785D02*
Y14092065D01*
X17363170Y14113681D02*
X17384785Y14092065D01*
X17157600Y14113681D02*
X17363170D01*
X17135985Y14092065D02*
X17157600Y14113681D01*
X17135985Y13927856D02*
Y14092065D01*
X17121809Y13913681D02*
X17135985Y13927856D01*
X17098900Y13913681D02*
X17121809D01*
X18140300Y14019749D02*
X18939523D01*
X17022760Y13876781D02*
X17098900D01*
X18140300Y14056650D02*
X18939523D01*
X17038045Y13913681D02*
X17098900D01*
X18953700Y13996100D02*
X19011600Y13938200D01*
X18953700Y13996100D02*
Y14005574D01*
X18939523Y14019749D02*
X18953700Y14005574D01*
X19011600Y13938200D02*
X19016600D01*
X16915309Y13912036D02*
X16925580Y13901764D01*
X16997775D01*
X17022760Y13876781D01*
X19011600Y14138200D02*
X19016600D01*
X18953700Y14080299D02*
X19011600Y14138200D01*
X18953700Y14070827D02*
Y14080299D01*
X18939523Y14056650D02*
X18953700Y14070827D01*
X17013597Y14010324D02*
X17023868Y14000052D01*
Y13927856D02*
Y14000052D01*
Y13927856D02*
X17038045Y13913681D01*
X19413466Y14019749D02*
X19426166Y14007050D01*
X19021600Y13938200D02*
X19079500Y13996100D01*
Y14005574D01*
X19093677Y14019749D02*
X19413466D01*
X19816701Y14127100D02*
X19842101Y14152499D01*
X19079500Y14005574D02*
X19093677Y14019749D01*
X19426166Y14007050D02*
X19802524D01*
X19816701Y13992874D01*
X19079500Y14070827D02*
Y14080299D01*
Y14070827D02*
X19093677Y14056650D01*
X19428751D02*
X19441451Y14043950D01*
X19093677Y14056650D02*
X19428751D01*
X19816701Y13923900D02*
X19842101Y13898500D01*
X19816701Y14058125D02*
Y14127100D01*
X19016600Y14138200D02*
X19021600D01*
X19079500Y14080299D01*
X19016600Y13938200D02*
X19021600D01*
X19802524Y14043950D02*
X19816701Y14058125D01*
X19441451Y14043950D02*
X19802524D01*
X19816701Y13923900D02*
Y13992874D01*
X11510065Y18520250D02*
X11569700D01*
X11449886Y18460072D02*
X11510065Y18520250D01*
X11449886Y18388086D02*
Y18460072D01*
X11428271Y18366470D02*
X11449886Y18388086D01*
X11222701Y18366470D02*
X11428271D01*
X11201086Y18388086D02*
X11222701Y18366470D01*
X11201086Y18388086D02*
Y18563425D01*
X11026086D02*
X11201086D01*
X11026086Y18198895D02*
Y18563425D01*
X11004470Y18177280D02*
X11026086Y18198895D01*
X10798901Y18177280D02*
X11004470D01*
X10777285Y18198895D02*
X10798901Y18177280D01*
X10777285Y18198895D02*
Y18577281D01*
X10602285D02*
X10777285D01*
X10602285Y18413072D02*
Y18577281D01*
X10566493Y18377280D02*
X10602285Y18413072D01*
X10528300Y18377280D02*
X10566493D01*
X11494780Y18557150D02*
X11569700D01*
X11412986Y18475356D02*
X11494780Y18557150D01*
X11412986Y18403371D02*
Y18475356D01*
X11237986Y18403371D02*
X11412986D01*
X11237986D02*
Y18578709D01*
X11216370Y18600325D02*
X11237986Y18578709D01*
X11010801Y18600325D02*
X11216370D01*
X10989186Y18578709D02*
X11010801Y18600325D01*
X10989186Y18214180D02*
Y18578709D01*
X10814185Y18214180D02*
X10989186D01*
X10814185D02*
Y18592564D01*
X10792570Y18614182D02*
X10814185Y18592564D01*
X10587001Y18614182D02*
X10792570D01*
X10565385Y18592564D02*
X10587001Y18614182D01*
X10565385Y18428355D02*
Y18592564D01*
X10551209Y18414182D02*
X10565385Y18428355D01*
X10528300Y18414182D02*
X10551209D01*
X11569700Y18520250D02*
X12368924D01*
X10452160Y18377280D02*
X10528300D01*
X11569700Y18557150D02*
X12368924D01*
X10467444Y18414182D02*
X10528300D01*
X12383100Y18496600D02*
X12441000Y18438699D01*
X12383100Y18496600D02*
Y18506075D01*
X12368924Y18520250D02*
X12383100Y18506075D01*
X12441000Y18438699D02*
X12446000D01*
X10344709Y18412537D02*
X10354980Y18402264D01*
X10427176D01*
X10452160Y18377280D01*
X12441000Y18638699D02*
X12446000D01*
X12383100Y18580800D02*
X12441000Y18638699D01*
X12383100Y18571326D02*
Y18580800D01*
X12368924Y18557150D02*
X12383100Y18571326D01*
X10442997Y18510825D02*
X10453268Y18500552D01*
Y18428357D02*
Y18500552D01*
Y18428357D02*
X10467444Y18414182D01*
X12842867Y18520250D02*
X12855566Y18507550D01*
X12451000Y18438699D02*
X12508900Y18496600D01*
Y18506075D01*
X12523076Y18520250D02*
X12842867D01*
X13246100Y18627600D02*
X13271500Y18653000D01*
X12508900Y18506075D02*
X12523076Y18520250D01*
X12855566Y18507550D02*
X13231924D01*
X13246100Y18493375D01*
X12508900Y18571326D02*
Y18580800D01*
Y18571326D02*
X12523076Y18557150D01*
X12858150D02*
X12870850Y18544450D01*
X12523076Y18557150D02*
X12858150D01*
X13246100Y18424400D02*
X13271500Y18399001D01*
X13246100Y18558626D02*
Y18627600D01*
X12446000Y18638699D02*
X12451000D01*
X12508900Y18580800D01*
X12446000Y18438699D02*
X12451000D01*
X13231924Y18544450D02*
X13246100Y18558626D01*
X12870850Y18544450D02*
X13231924D01*
X13246100Y18424400D02*
Y18493375D01*
X18080666Y18520250D02*
X18140300D01*
X18020486Y18460072D02*
X18080666Y18520250D01*
X18020486Y18388086D02*
Y18460072D01*
X17998871Y18366470D02*
X18020486Y18388086D01*
X17793301Y18366470D02*
X17998871D01*
X17771686Y18388086D02*
X17793301Y18366470D01*
X17771686Y18388086D02*
Y18563425D01*
X17596686D02*
X17771686D01*
X17596686Y18198895D02*
Y18563425D01*
X17575070Y18177280D02*
X17596686Y18198895D01*
X17369501Y18177280D02*
X17575070D01*
X17347885Y18198895D02*
X17369501Y18177280D01*
X17347885Y18198895D02*
Y18577281D01*
X17172885D02*
X17347885D01*
X17172885Y18413072D02*
Y18577281D01*
X17137093Y18377280D02*
X17172885Y18413072D01*
X17098900Y18377280D02*
X17137093D01*
X18065379Y18557150D02*
X18140300D01*
X17983586Y18475356D02*
X18065379Y18557150D01*
X17983586Y18403371D02*
Y18475356D01*
X17808586Y18403371D02*
X17983586D01*
X17808586D02*
Y18578709D01*
X17786971Y18600325D02*
X17808586Y18578709D01*
X17581401Y18600325D02*
X17786971D01*
X17559785Y18578709D02*
X17581401Y18600325D01*
X17559785Y18214180D02*
Y18578709D01*
X17384785Y18214180D02*
X17559785D01*
X17384785D02*
Y18592564D01*
X17363170Y18614182D02*
X17384785Y18592564D01*
X17157600Y18614182D02*
X17363170D01*
X17135985Y18592564D02*
X17157600Y18614182D01*
X17135985Y18428355D02*
Y18592564D01*
X17121809Y18414182D02*
X17135985Y18428355D01*
X17098900Y18414182D02*
X17121809D01*
X18140300Y18520250D02*
X18939523D01*
X17022760Y18377280D02*
X17098900D01*
X18140300Y18557150D02*
X18939523D01*
X17038045Y18414182D02*
X17098900D01*
X18953700Y18496600D02*
X19011600Y18438699D01*
X18953700Y18496600D02*
Y18506075D01*
X18939523Y18520250D02*
X18953700Y18506075D01*
X19011600Y18438699D02*
X19016600D01*
X16915309Y18412537D02*
X16925580Y18402264D01*
X16997775D01*
X17022760Y18377280D01*
X19011600Y18638699D02*
X19016600D01*
X18953700Y18580800D02*
X19011600Y18638699D01*
X18953700Y18571326D02*
Y18580800D01*
X18939523Y18557150D02*
X18953700Y18571326D01*
X17013597Y18510825D02*
X17023868Y18500552D01*
Y18428357D02*
Y18500552D01*
Y18428357D02*
X17038045Y18414182D01*
X19413466Y18520250D02*
X19426166Y18507550D01*
X19021600Y18438699D02*
X19079500Y18496600D01*
Y18506075D01*
X19093677Y18520250D02*
X19413466D01*
X19816701Y18627600D02*
X19842101Y18653000D01*
X19079500Y18506075D02*
X19093677Y18520250D01*
X19426166Y18507550D02*
X19802524D01*
X19816701Y18493375D01*
X19079500Y18571326D02*
Y18580800D01*
Y18571326D02*
X19093677Y18557150D01*
X19428751D02*
X19441451Y18544450D01*
X19093677Y18557150D02*
X19428751D01*
X19816701Y18424400D02*
X19842101Y18399001D01*
X19816701Y18558626D02*
Y18627600D01*
X19016600Y18638699D02*
X19021600D01*
X19079500Y18580800D01*
X19016600Y18438699D02*
X19021600D01*
X19802524Y18544450D02*
X19816701Y18558626D01*
X19441451Y18544450D02*
X19802524D01*
X19816701Y18424400D02*
Y18493375D01*
X11510065Y23020750D02*
X11569700D01*
X11449886Y22960571D02*
X11510065Y23020750D01*
X11449886Y22888586D02*
Y22960571D01*
X11428271Y22866969D02*
X11449886Y22888586D01*
X11222701Y22866969D02*
X11428271D01*
X11201086Y22888586D02*
X11222701Y22866969D01*
X11201086Y22888586D02*
Y23063925D01*
X11026086D02*
X11201086D01*
X11026086Y22699396D02*
Y23063925D01*
X11004470Y22677780D02*
X11026086Y22699396D01*
X10798901Y22677780D02*
X11004470D01*
X10777285Y22699396D02*
X10798901Y22677780D01*
X10777285Y22699396D02*
Y23077782D01*
X10602285D02*
X10777285D01*
X10602285Y22913573D02*
Y23077782D01*
X10566493Y22877782D02*
X10602285Y22913573D01*
X10528300Y22877782D02*
X10566493D01*
X11494780Y23057651D02*
X11569700D01*
X11412986Y22975856D02*
X11494780Y23057651D01*
X11412986Y22903870D02*
Y22975856D01*
X11237986Y22903870D02*
X11412986D01*
X11237986D02*
Y23079210D01*
X11216370Y23100826D02*
X11237986Y23079210D01*
X11010801Y23100826D02*
X11216370D01*
X10989186Y23079210D02*
X11010801Y23100826D01*
X10989186Y22714680D02*
Y23079210D01*
X10814185Y22714680D02*
X10989186D01*
X10814185D02*
Y23093065D01*
X10792570Y23114680D02*
X10814185Y23093065D01*
X10587001Y23114680D02*
X10792570D01*
X10565385Y23093065D02*
X10587001Y23114680D01*
X10565385Y22928856D02*
Y23093065D01*
X10551209Y22914680D02*
X10565385Y22928856D01*
X10528300Y22914680D02*
X10551209D01*
X11569700Y23020750D02*
X12368924D01*
X10452160Y22877782D02*
X10528300D01*
X11569700Y23057651D02*
X12368924D01*
X10467444Y22914680D02*
X10528300D01*
X12383100Y22997099D02*
X12441000Y22939200D01*
X12383100Y22997099D02*
Y23006573D01*
X12368924Y23020750D02*
X12383100Y23006573D01*
X12441000Y22939200D02*
X12446000D01*
X10344709Y22913036D02*
X10354980Y22902763D01*
X10427176D01*
X10452160Y22877782D01*
X12441000Y23139200D02*
X12446000D01*
X12383100Y23081300D02*
X12441000Y23139200D01*
X12383100Y23071826D02*
Y23081300D01*
X12368924Y23057651D02*
X12383100Y23071826D01*
X10442997Y23011324D02*
X10453268Y23001051D01*
Y22928857D02*
Y23001051D01*
Y22928857D02*
X10467444Y22914680D01*
X12842867Y23020750D02*
X12855566Y23008051D01*
X12451000Y22939200D02*
X12508900Y22997099D01*
Y23006573D01*
X12523076Y23020750D02*
X12842867D01*
X13246100Y23128101D02*
X13271500Y23153500D01*
X12508900Y23006573D02*
X12523076Y23020750D01*
X12855566Y23008051D02*
X13231924D01*
X13246100Y22993874D01*
X12508900Y23071826D02*
Y23081300D01*
Y23071826D02*
X12523076Y23057651D01*
X12858150D02*
X12870850Y23044949D01*
X12523076Y23057651D02*
X12858150D01*
X13246100Y22924899D02*
X13271500Y22899500D01*
X13246100Y23059126D02*
Y23128101D01*
X12446000Y23139200D02*
X12451000D01*
X12508900Y23081300D01*
X12446000Y22939200D02*
X12451000D01*
X13231924Y23044949D02*
X13246100Y23059126D01*
X12870850Y23044949D02*
X13231924D01*
X13246100Y22924899D02*
Y22993874D01*
X18080666Y23020750D02*
X18140300D01*
X18020486Y22960571D02*
X18080666Y23020750D01*
X18020486Y22888586D02*
Y22960571D01*
X17998871Y22866969D02*
X18020486Y22888586D01*
X17793301Y22866969D02*
X17998871D01*
X17771686Y22888586D02*
X17793301Y22866969D01*
X17771686Y22888586D02*
Y23063925D01*
X17596686D02*
X17771686D01*
X17596686Y22699396D02*
Y23063925D01*
X17575070Y22677780D02*
X17596686Y22699396D01*
X17369501Y22677780D02*
X17575070D01*
X17347885Y22699396D02*
X17369501Y22677780D01*
X17347885Y22699396D02*
Y23077782D01*
X17172885D02*
X17347885D01*
X17172885Y22913573D02*
Y23077782D01*
X17137093Y22877782D02*
X17172885Y22913573D01*
X17098900Y22877782D02*
X17137093D01*
X18065379Y23057651D02*
X18140300D01*
X17983586Y22975856D02*
X18065379Y23057651D01*
X17983586Y22903870D02*
Y22975856D01*
X17808586Y22903870D02*
X17983586D01*
X17808586D02*
Y23079210D01*
X17786971Y23100826D02*
X17808586Y23079210D01*
X17581401Y23100826D02*
X17786971D01*
X17559785Y23079210D02*
X17581401Y23100826D01*
X17559785Y22714680D02*
Y23079210D01*
X17384785Y22714680D02*
X17559785D01*
X17384785D02*
Y23093065D01*
X17363170Y23114680D02*
X17384785Y23093065D01*
X17157600Y23114680D02*
X17363170D01*
X17135985Y23093065D02*
X17157600Y23114680D01*
X17135985Y22928856D02*
Y23093065D01*
X17121809Y22914680D02*
X17135985Y22928856D01*
X17098900Y22914680D02*
X17121809D01*
X18140300Y23020750D02*
X18939523D01*
X17022760Y22877782D02*
X17098900D01*
X18140300Y23057651D02*
X18939523D01*
X17038045Y22914680D02*
X17098900D01*
X18953700Y22997099D02*
X19011600Y22939200D01*
X18953700Y22997099D02*
Y23006573D01*
X18939523Y23020750D02*
X18953700Y23006573D01*
X19011600Y22939200D02*
X19016600D01*
X16915309Y22913036D02*
X16925580Y22902763D01*
X16997775D01*
X17022760Y22877782D01*
X19011600Y23139200D02*
X19016600D01*
X18953700Y23081300D02*
X19011600Y23139200D01*
X18953700Y23071826D02*
Y23081300D01*
X18939523Y23057651D02*
X18953700Y23071826D01*
X17013597Y23011324D02*
X17023868Y23001051D01*
Y22928857D02*
Y23001051D01*
Y22928857D02*
X17038045Y22914680D01*
X19413466Y23020750D02*
X19426166Y23008051D01*
X19021600Y22939200D02*
X19079500Y22997099D01*
Y23006573D01*
X19093677Y23020750D02*
X19413466D01*
X19816701Y23128101D02*
X19842101Y23153500D01*
X19079500Y23006573D02*
X19093677Y23020750D01*
X19426166Y23008051D02*
X19802524D01*
X19816701Y22993874D01*
X19079500Y23071826D02*
Y23081300D01*
Y23071826D02*
X19093677Y23057651D01*
X19428751D02*
X19441451Y23044949D01*
X19093677Y23057651D02*
X19428751D01*
X19816701Y22924899D02*
X19842101Y22899500D01*
X19816701Y23059126D02*
Y23128101D01*
X19016600Y23139200D02*
X19021600D01*
X19079500Y23081300D01*
X19016600Y22939200D02*
X19021600D01*
X19802524Y23044949D02*
X19816701Y23059126D01*
X19441451Y23044949D02*
X19802524D01*
X19816701Y22924899D02*
Y22993874D01*
X11510065Y27521249D02*
X11569700D01*
X11449886Y27461072D02*
X11510065Y27521249D01*
X11449886Y27389087D02*
Y27461072D01*
X11428271Y27367471D02*
X11449886Y27389087D01*
X11222701Y27367471D02*
X11428271D01*
X11201086Y27389087D02*
X11222701Y27367471D01*
X11201086Y27389087D02*
Y27564426D01*
X11026086D02*
X11201086D01*
X11026086Y27199896D02*
Y27564426D01*
X11004470Y27178281D02*
X11026086Y27199896D01*
X10798901Y27178281D02*
X11004470D01*
X10777285Y27199896D02*
X10798901Y27178281D01*
X10777285Y27199896D02*
Y27578281D01*
X10602285D02*
X10777285D01*
X10602285Y27414072D02*
Y27578281D01*
X10566493Y27378281D02*
X10602285Y27414072D01*
X10528300Y27378281D02*
X10566493D01*
X11494780Y27558151D02*
X11569700D01*
X11412986Y27476355D02*
X11494780Y27558151D01*
X11412986Y27404370D02*
Y27476355D01*
X11237986Y27404370D02*
X11412986D01*
X11237986D02*
Y27579709D01*
X11216370Y27601324D02*
X11237986Y27579709D01*
X11010801Y27601324D02*
X11216370D01*
X10989186Y27579709D02*
X11010801Y27601324D01*
X10989186Y27215182D02*
Y27579709D01*
X10814185Y27215182D02*
X10989186D01*
X10814185D02*
Y27593564D01*
X10792570Y27615182D02*
X10814185Y27593564D01*
X10587001Y27615182D02*
X10792570D01*
X10565385Y27593564D02*
X10587001Y27615182D01*
X10565385Y27429355D02*
Y27593564D01*
X10551209Y27415182D02*
X10565385Y27429355D01*
X10528300Y27415182D02*
X10551209D01*
X11569700Y27521249D02*
X12368924D01*
X10452160Y27378281D02*
X10528300D01*
X11569700Y27558151D02*
X12368924D01*
X10467444Y27415182D02*
X10528300D01*
X12383100Y27497601D02*
X12441000Y27439700D01*
X12383100Y27497601D02*
Y27507074D01*
X12368924Y27521249D02*
X12383100Y27507074D01*
X12441000Y27439700D02*
X12446000D01*
X10344709Y27413535D02*
X10354980Y27403265D01*
X10427176D01*
X10452160Y27378281D01*
X12441000Y27639700D02*
X12446000D01*
X12383100Y27581799D02*
X12441000Y27639700D01*
X12383100Y27572327D02*
Y27581799D01*
X12368924Y27558151D02*
X12383100Y27572327D01*
X10442997Y27511823D02*
X10453268Y27501553D01*
Y27429358D02*
Y27501553D01*
Y27429358D02*
X10467444Y27415182D01*
X12842867Y27521249D02*
X12855566Y27508551D01*
X12451000Y27439700D02*
X12508900Y27497601D01*
Y27507074D01*
X12523076Y27521249D02*
X12842867D01*
X13246100Y27628601D02*
X13271500Y27654001D01*
X12508900Y27507074D02*
X12523076Y27521249D01*
X12855566Y27508551D02*
X13231924D01*
X13246100Y27494373D01*
X12508900Y27572327D02*
Y27581799D01*
Y27572327D02*
X12523076Y27558151D01*
X12858150D02*
X12870850Y27545450D01*
X12523076Y27558151D02*
X12858150D01*
X13246100Y27425400D02*
X13271500Y27400000D01*
X13246100Y27559625D02*
Y27628601D01*
X12446000Y27639700D02*
X12451000D01*
X12508900Y27581799D01*
X12446000Y27439700D02*
X12451000D01*
X13231924Y27545450D02*
X13246100Y27559625D01*
X12870850Y27545450D02*
X13231924D01*
X13246100Y27425400D02*
Y27494373D01*
X18080666Y27521249D02*
X18140300D01*
X18020486Y27461072D02*
X18080666Y27521249D01*
X18020486Y27389087D02*
Y27461072D01*
X17998871Y27367471D02*
X18020486Y27389087D01*
X17793301Y27367471D02*
X17998871D01*
X17771686Y27389087D02*
X17793301Y27367471D01*
X17771686Y27389087D02*
Y27564426D01*
X17596686D02*
X17771686D01*
X17596686Y27199896D02*
Y27564426D01*
X17575070Y27178281D02*
X17596686Y27199896D01*
X17369501Y27178281D02*
X17575070D01*
X17347885Y27199896D02*
X17369501Y27178281D01*
X17347885Y27199896D02*
Y27578281D01*
X17172885D02*
X17347885D01*
X17172885Y27414072D02*
Y27578281D01*
X17137093Y27378281D02*
X17172885Y27414072D01*
X17098900Y27378281D02*
X17137093D01*
X18065379Y27558151D02*
X18140300D01*
X17983586Y27476355D02*
X18065379Y27558151D01*
X17983586Y27404370D02*
Y27476355D01*
X17808586Y27404370D02*
X17983586D01*
X17808586D02*
Y27579709D01*
X17786971Y27601324D02*
X17808586Y27579709D01*
X17581401Y27601324D02*
X17786971D01*
X17559785Y27579709D02*
X17581401Y27601324D01*
X17559785Y27215182D02*
Y27579709D01*
X17384785Y27215182D02*
X17559785D01*
X17384785D02*
Y27593564D01*
X17363170Y27615182D02*
X17384785Y27593564D01*
X17157600Y27615182D02*
X17363170D01*
X17135985Y27593564D02*
X17157600Y27615182D01*
X17135985Y27429355D02*
Y27593564D01*
X17121809Y27415182D02*
X17135985Y27429355D01*
X17098900Y27415182D02*
X17121809D01*
X18140300Y27521249D02*
X18939523D01*
X17022760Y27378281D02*
X17098900D01*
X18140300Y27558151D02*
X18939523D01*
X17038045Y27415182D02*
X17098900D01*
X18953700Y27497601D02*
X19011600Y27439700D01*
X18953700Y27497601D02*
Y27507074D01*
X18939523Y27521249D02*
X18953700Y27507074D01*
X19011600Y27439700D02*
X19016600D01*
X16915309Y27413535D02*
X16925580Y27403265D01*
X16997775D01*
X17022760Y27378281D01*
X19011600Y27639700D02*
X19016600D01*
X18953700Y27581799D02*
X19011600Y27639700D01*
X18953700Y27572327D02*
Y27581799D01*
X18939523Y27558151D02*
X18953700Y27572327D01*
X17013597Y27511823D02*
X17023868Y27501553D01*
Y27429358D02*
Y27501553D01*
Y27429358D02*
X17038045Y27415182D01*
X19413466Y27521249D02*
X19426166Y27508551D01*
X19021600Y27439700D02*
X19079500Y27497601D01*
Y27507074D01*
X19093677Y27521249D02*
X19413466D01*
X19816701Y27628601D02*
X19842101Y27654001D01*
X19079500Y27507074D02*
X19093677Y27521249D01*
X19426166Y27508551D02*
X19802524D01*
X19816701Y27494373D01*
X19079500Y27572327D02*
Y27581799D01*
Y27572327D02*
X19093677Y27558151D01*
X19428751D02*
X19441451Y27545450D01*
X19093677Y27558151D02*
X19428751D01*
X19816701Y27425400D02*
X19842101Y27400000D01*
X19816701Y27559625D02*
Y27628601D01*
X19016600Y27639700D02*
X19021600D01*
X19079500Y27581799D01*
X19016600Y27439700D02*
X19021600D01*
X19802524Y27545450D02*
X19816701Y27559625D01*
X19441451Y27545450D02*
X19802524D01*
X19816701Y27425400D02*
Y27494373D01*
D25*
X8080400Y9434145D02*
D03*
Y10523846D02*
D03*
X14650999Y9434145D02*
D03*
Y10523846D02*
D03*
X8080400Y13934645D02*
D03*
Y15024345D02*
D03*
X14650999Y13934645D02*
D03*
Y15024345D02*
D03*
X8080400Y18435146D02*
D03*
Y19524846D02*
D03*
X14650999Y18435146D02*
D03*
Y19524846D02*
D03*
X8080400Y22935646D02*
D03*
Y24025346D02*
D03*
X14650999Y22935646D02*
D03*
Y24025346D02*
D03*
X8080400Y27436145D02*
D03*
Y28525845D02*
D03*
X14650999Y27436145D02*
D03*
Y28525845D02*
D03*
D26*
X11277600Y12293600D02*
D03*
X9028100D02*
D03*
X17848199D02*
D03*
X15598700D02*
D03*
X11277600Y16794099D02*
D03*
X9028100D02*
D03*
X17848199D02*
D03*
X15598700D02*
D03*
X11277600Y21294600D02*
D03*
X9028100D02*
D03*
X17848199D02*
D03*
X15598700D02*
D03*
X11277600Y25795099D02*
D03*
X9028100D02*
D03*
X17848199D02*
D03*
X15598700D02*
D03*
X11277600Y30295599D02*
D03*
X9028100D02*
D03*
X17848199D02*
D03*
X15598700D02*
D03*
D27*
X11531600Y12293600D02*
D03*
X9282100D02*
D03*
X18102200D02*
D03*
X15852699D02*
D03*
X11531600Y16794099D02*
D03*
X9282100D02*
D03*
X18102200D02*
D03*
X15852699D02*
D03*
X11531600Y21294600D02*
D03*
X9282100D02*
D03*
X18102200D02*
D03*
X15852699D02*
D03*
X11531600Y25795099D02*
D03*
X9282100D02*
D03*
X18102200D02*
D03*
X15852699D02*
D03*
X11531600Y30295599D02*
D03*
X9282100D02*
D03*
X18102200D02*
D03*
X15852699D02*
D03*
D28*
X12901700Y12188400D02*
D03*
Y11438400D02*
D03*
Y11188400D02*
D03*
Y10938400D02*
D03*
Y10688400D02*
D03*
Y10438400D02*
D03*
Y10188400D02*
D03*
Y9938400D02*
D03*
Y9688400D02*
D03*
Y9438400D02*
D03*
Y9188400D02*
D03*
Y8938400D02*
D03*
Y8688400D02*
D03*
X12651700Y12188400D02*
D03*
Y11938400D02*
D03*
Y11688400D02*
D03*
Y11438400D02*
D03*
Y11188400D02*
D03*
Y10938400D02*
D03*
Y10688400D02*
D03*
Y10438400D02*
D03*
Y10188400D02*
D03*
Y9938400D02*
D03*
Y9688400D02*
D03*
Y9438400D02*
D03*
Y9188400D02*
D03*
Y8688400D02*
D03*
X12401700Y12188400D02*
D03*
Y11938400D02*
D03*
Y11688400D02*
D03*
Y11438400D02*
D03*
Y10688400D02*
D03*
Y10438400D02*
D03*
Y8688400D02*
D03*
X12151700Y11938400D02*
D03*
Y11688400D02*
D03*
Y11438400D02*
D03*
Y10688400D02*
D03*
Y10438400D02*
D03*
Y9688400D02*
D03*
Y9438400D02*
D03*
Y9188400D02*
D03*
Y8688400D02*
D03*
X11901700Y11938400D02*
D03*
Y11688400D02*
D03*
Y11438400D02*
D03*
Y11188400D02*
D03*
Y10938400D02*
D03*
Y10688400D02*
D03*
Y10438400D02*
D03*
Y10188400D02*
D03*
Y9938400D02*
D03*
Y9688400D02*
D03*
Y9438400D02*
D03*
Y9188400D02*
D03*
Y8688400D02*
D03*
X11651700Y10938400D02*
D03*
Y10438400D02*
D03*
Y9938400D02*
D03*
Y9688400D02*
D03*
Y9438400D02*
D03*
Y9188400D02*
D03*
Y8688400D02*
D03*
X11401700Y9688400D02*
D03*
Y9188400D02*
D03*
Y8938400D02*
D03*
Y8688400D02*
D03*
X11151700Y11688400D02*
D03*
Y9938400D02*
D03*
Y9688400D02*
D03*
Y8938400D02*
D03*
Y8688400D02*
D03*
X10901700Y12188400D02*
D03*
Y10688400D02*
D03*
Y10438400D02*
D03*
Y9938400D02*
D03*
Y9688400D02*
D03*
Y8938400D02*
D03*
X10651700Y12188400D02*
D03*
Y11938400D02*
D03*
Y10688400D02*
D03*
Y10438400D02*
D03*
Y9938400D02*
D03*
Y9688400D02*
D03*
Y9188400D02*
D03*
X10401700Y12188400D02*
D03*
Y11938400D02*
D03*
Y10938400D02*
D03*
Y10688400D02*
D03*
Y10438400D02*
D03*
Y9688400D02*
D03*
Y9188400D02*
D03*
X10151700Y12188400D02*
D03*
Y10938400D02*
D03*
Y10688400D02*
D03*
Y10438400D02*
D03*
Y9438400D02*
D03*
Y9188400D02*
D03*
X9901700Y12188400D02*
D03*
Y11938400D02*
D03*
Y10938400D02*
D03*
Y10688400D02*
D03*
Y10438400D02*
D03*
Y9688400D02*
D03*
Y9438400D02*
D03*
Y9188400D02*
D03*
Y8938400D02*
D03*
X9651700Y12188400D02*
D03*
Y11938400D02*
D03*
Y10938400D02*
D03*
Y10688400D02*
D03*
Y10438400D02*
D03*
Y9688400D02*
D03*
Y9438400D02*
D03*
Y9188400D02*
D03*
Y8938400D02*
D03*
Y8688400D02*
D03*
X9401700Y11938400D02*
D03*
Y11188400D02*
D03*
Y10938400D02*
D03*
Y10688400D02*
D03*
Y10188400D02*
D03*
Y9938400D02*
D03*
Y9688400D02*
D03*
Y9438400D02*
D03*
Y9188400D02*
D03*
Y8938400D02*
D03*
Y8688400D02*
D03*
X9151700Y10938400D02*
D03*
Y10688400D02*
D03*
Y10188400D02*
D03*
Y9938400D02*
D03*
Y9688400D02*
D03*
Y9438400D02*
D03*
Y9188400D02*
D03*
Y8938400D02*
D03*
Y8688400D02*
D03*
X8901700Y11938400D02*
D03*
Y11688400D02*
D03*
Y11438400D02*
D03*
Y11188400D02*
D03*
Y10938400D02*
D03*
Y10688400D02*
D03*
Y10438400D02*
D03*
Y9688400D02*
D03*
Y9438400D02*
D03*
Y9188400D02*
D03*
Y8938400D02*
D03*
Y8688400D02*
D03*
X8651700Y12188400D02*
D03*
Y11938400D02*
D03*
Y11688400D02*
D03*
Y11438400D02*
D03*
Y11188400D02*
D03*
Y10938400D02*
D03*
Y10688400D02*
D03*
Y10438400D02*
D03*
Y9688400D02*
D03*
Y9438400D02*
D03*
Y9188400D02*
D03*
Y8938400D02*
D03*
Y8688400D02*
D03*
X8401700Y12188400D02*
D03*
Y11938400D02*
D03*
Y11688400D02*
D03*
Y11438400D02*
D03*
Y11188400D02*
D03*
Y10938400D02*
D03*
Y10438400D02*
D03*
Y9188400D02*
D03*
Y8938400D02*
D03*
Y8688400D02*
D03*
X8151700Y12188400D02*
D03*
Y11938400D02*
D03*
Y11688400D02*
D03*
Y11438400D02*
D03*
Y11188400D02*
D03*
Y10938400D02*
D03*
Y9688400D02*
D03*
Y8938400D02*
D03*
Y8688400D02*
D03*
X7901700Y12188400D02*
D03*
Y11938400D02*
D03*
Y11688400D02*
D03*
Y11438400D02*
D03*
Y11188400D02*
D03*
Y10938400D02*
D03*
Y10438400D02*
D03*
Y10188400D02*
D03*
Y9938400D02*
D03*
Y9688400D02*
D03*
Y9188400D02*
D03*
Y8938400D02*
D03*
Y8688400D02*
D03*
X8826500Y10033000D02*
D03*
X10344709Y9411536D02*
D03*
X10442997Y9509824D02*
D03*
X8128000Y10170100D02*
D03*
X8661400D02*
D03*
X8128000Y9969500D02*
D03*
X8585200D02*
D03*
X19472301Y12188400D02*
D03*
Y11438400D02*
D03*
Y11188400D02*
D03*
Y10938400D02*
D03*
Y10688400D02*
D03*
Y10438400D02*
D03*
Y10188400D02*
D03*
Y9938400D02*
D03*
Y9688400D02*
D03*
Y9438400D02*
D03*
Y9188400D02*
D03*
Y8938400D02*
D03*
Y8688400D02*
D03*
X19222301Y12188400D02*
D03*
Y11938400D02*
D03*
Y11688400D02*
D03*
Y11438400D02*
D03*
Y11188400D02*
D03*
Y10938400D02*
D03*
Y10688400D02*
D03*
Y10438400D02*
D03*
Y10188400D02*
D03*
Y9938400D02*
D03*
Y9688400D02*
D03*
Y9438400D02*
D03*
Y9188400D02*
D03*
Y8688400D02*
D03*
X18972301Y12188400D02*
D03*
Y11938400D02*
D03*
Y11688400D02*
D03*
Y11438400D02*
D03*
Y10688400D02*
D03*
Y10438400D02*
D03*
Y8688400D02*
D03*
X18722301Y11938400D02*
D03*
Y11688400D02*
D03*
Y11438400D02*
D03*
Y10688400D02*
D03*
Y10438400D02*
D03*
Y9688400D02*
D03*
Y9438400D02*
D03*
Y9188400D02*
D03*
Y8688400D02*
D03*
X18472301Y11938400D02*
D03*
Y11688400D02*
D03*
Y11438400D02*
D03*
Y11188400D02*
D03*
Y10938400D02*
D03*
Y10688400D02*
D03*
Y10438400D02*
D03*
Y10188400D02*
D03*
Y9938400D02*
D03*
Y9688400D02*
D03*
Y9438400D02*
D03*
Y9188400D02*
D03*
Y8688400D02*
D03*
X18222301Y10938400D02*
D03*
Y10438400D02*
D03*
Y9938400D02*
D03*
Y9688400D02*
D03*
Y9438400D02*
D03*
Y9188400D02*
D03*
Y8688400D02*
D03*
X17972301Y9688400D02*
D03*
Y9188400D02*
D03*
Y8938400D02*
D03*
Y8688400D02*
D03*
X17722301Y11688400D02*
D03*
Y9938400D02*
D03*
Y9688400D02*
D03*
Y8938400D02*
D03*
Y8688400D02*
D03*
X17472301Y12188400D02*
D03*
Y10688400D02*
D03*
Y10438400D02*
D03*
Y9938400D02*
D03*
Y9688400D02*
D03*
Y8938400D02*
D03*
X17222301Y12188400D02*
D03*
Y11938400D02*
D03*
Y10688400D02*
D03*
Y10438400D02*
D03*
Y9938400D02*
D03*
Y9688400D02*
D03*
Y9188400D02*
D03*
X16972301Y12188400D02*
D03*
Y11938400D02*
D03*
Y10938400D02*
D03*
Y10688400D02*
D03*
Y10438400D02*
D03*
Y9688400D02*
D03*
Y9188400D02*
D03*
X16722301Y12188400D02*
D03*
Y10938400D02*
D03*
Y10688400D02*
D03*
Y10438400D02*
D03*
Y9438400D02*
D03*
Y9188400D02*
D03*
X16472301Y12188400D02*
D03*
Y11938400D02*
D03*
Y10938400D02*
D03*
Y10688400D02*
D03*
Y10438400D02*
D03*
Y9688400D02*
D03*
Y9438400D02*
D03*
Y9188400D02*
D03*
Y8938400D02*
D03*
X16222301Y12188400D02*
D03*
Y11938400D02*
D03*
Y10938400D02*
D03*
Y10688400D02*
D03*
Y10438400D02*
D03*
Y9688400D02*
D03*
Y9438400D02*
D03*
Y9188400D02*
D03*
Y8938400D02*
D03*
Y8688400D02*
D03*
X15972301Y11938400D02*
D03*
Y11188400D02*
D03*
Y10938400D02*
D03*
Y10688400D02*
D03*
Y10188400D02*
D03*
Y9938400D02*
D03*
Y9688400D02*
D03*
Y9438400D02*
D03*
Y9188400D02*
D03*
Y8938400D02*
D03*
Y8688400D02*
D03*
X15722301Y10938400D02*
D03*
Y10688400D02*
D03*
Y10188400D02*
D03*
Y9938400D02*
D03*
Y9688400D02*
D03*
Y9438400D02*
D03*
Y9188400D02*
D03*
Y8938400D02*
D03*
Y8688400D02*
D03*
X15472301Y11938400D02*
D03*
Y11688400D02*
D03*
Y11438400D02*
D03*
Y11188400D02*
D03*
Y10938400D02*
D03*
Y10688400D02*
D03*
Y10438400D02*
D03*
Y9688400D02*
D03*
Y9438400D02*
D03*
Y9188400D02*
D03*
Y8938400D02*
D03*
Y8688400D02*
D03*
X15222301Y12188400D02*
D03*
Y11938400D02*
D03*
Y11688400D02*
D03*
Y11438400D02*
D03*
Y11188400D02*
D03*
Y10938400D02*
D03*
Y10688400D02*
D03*
Y10438400D02*
D03*
Y9688400D02*
D03*
Y9438400D02*
D03*
Y9188400D02*
D03*
Y8938400D02*
D03*
Y8688400D02*
D03*
X14972301Y12188400D02*
D03*
Y11938400D02*
D03*
Y11688400D02*
D03*
Y11438400D02*
D03*
Y11188400D02*
D03*
Y10938400D02*
D03*
Y10438400D02*
D03*
Y9188400D02*
D03*
Y8938400D02*
D03*
Y8688400D02*
D03*
X14722301Y12188400D02*
D03*
Y11938400D02*
D03*
Y11688400D02*
D03*
Y11438400D02*
D03*
Y11188400D02*
D03*
Y10938400D02*
D03*
Y9688400D02*
D03*
Y8938400D02*
D03*
Y8688400D02*
D03*
X14472301Y12188400D02*
D03*
Y11938400D02*
D03*
Y11688400D02*
D03*
Y11438400D02*
D03*
Y11188400D02*
D03*
Y10938400D02*
D03*
Y10438400D02*
D03*
Y10188400D02*
D03*
Y9938400D02*
D03*
Y9688400D02*
D03*
Y9188400D02*
D03*
Y8938400D02*
D03*
Y8688400D02*
D03*
X15397099Y10033000D02*
D03*
X16915309Y9411536D02*
D03*
X17013597Y9509824D02*
D03*
X14698599Y10170100D02*
D03*
X15232001D02*
D03*
X14698599Y9969500D02*
D03*
X15155800D02*
D03*
X12901700Y16688901D02*
D03*
Y15938901D02*
D03*
Y15688901D02*
D03*
Y15438901D02*
D03*
Y15188901D02*
D03*
Y14938901D02*
D03*
Y14688901D02*
D03*
Y14438901D02*
D03*
Y14188901D02*
D03*
Y13938901D02*
D03*
Y13688901D02*
D03*
Y13438901D02*
D03*
Y13188901D02*
D03*
X12651700Y16688901D02*
D03*
Y16438901D02*
D03*
Y16188901D02*
D03*
Y15938901D02*
D03*
Y15688901D02*
D03*
Y15438901D02*
D03*
Y15188901D02*
D03*
Y14938901D02*
D03*
Y14688901D02*
D03*
Y14438901D02*
D03*
Y14188901D02*
D03*
Y13938901D02*
D03*
Y13688901D02*
D03*
Y13188901D02*
D03*
X12401700Y16688901D02*
D03*
Y16438901D02*
D03*
Y16188901D02*
D03*
Y15938901D02*
D03*
Y15188901D02*
D03*
Y14938901D02*
D03*
Y13188901D02*
D03*
X12151700Y16438901D02*
D03*
Y16188901D02*
D03*
Y15938901D02*
D03*
Y15188901D02*
D03*
Y14938901D02*
D03*
Y14188901D02*
D03*
Y13938901D02*
D03*
Y13688901D02*
D03*
Y13188901D02*
D03*
X11901700Y16438901D02*
D03*
Y16188901D02*
D03*
Y15938901D02*
D03*
Y15688901D02*
D03*
Y15438901D02*
D03*
Y15188901D02*
D03*
Y14938901D02*
D03*
Y14688901D02*
D03*
Y14438901D02*
D03*
Y14188901D02*
D03*
Y13938901D02*
D03*
Y13688901D02*
D03*
Y13188901D02*
D03*
X11651700Y15438901D02*
D03*
Y14938901D02*
D03*
Y14438901D02*
D03*
Y14188901D02*
D03*
Y13938901D02*
D03*
Y13688901D02*
D03*
Y13188901D02*
D03*
X11401700Y14188901D02*
D03*
Y13688901D02*
D03*
Y13438901D02*
D03*
Y13188901D02*
D03*
X11151700Y16188901D02*
D03*
Y14438901D02*
D03*
Y14188901D02*
D03*
Y13438901D02*
D03*
Y13188901D02*
D03*
X10901700Y16688901D02*
D03*
Y15188901D02*
D03*
Y14938901D02*
D03*
Y14438901D02*
D03*
Y14188901D02*
D03*
Y13438901D02*
D03*
X10651700Y16688901D02*
D03*
Y16438901D02*
D03*
Y15188901D02*
D03*
Y14938901D02*
D03*
Y14438901D02*
D03*
Y14188901D02*
D03*
Y13688901D02*
D03*
X10401700Y16688901D02*
D03*
Y16438901D02*
D03*
Y15438901D02*
D03*
Y15188901D02*
D03*
Y14938901D02*
D03*
Y14188901D02*
D03*
Y13688901D02*
D03*
X10151700Y16688901D02*
D03*
Y15438901D02*
D03*
Y15188901D02*
D03*
Y14938901D02*
D03*
Y13938901D02*
D03*
Y13688901D02*
D03*
X9901700Y16688901D02*
D03*
Y16438901D02*
D03*
Y15438901D02*
D03*
Y15188901D02*
D03*
Y14938901D02*
D03*
Y14188901D02*
D03*
Y13938901D02*
D03*
Y13688901D02*
D03*
Y13438901D02*
D03*
X9651700Y16688901D02*
D03*
Y16438901D02*
D03*
Y15438901D02*
D03*
Y15188901D02*
D03*
Y14938901D02*
D03*
Y14188901D02*
D03*
Y13938901D02*
D03*
Y13688901D02*
D03*
Y13438901D02*
D03*
Y13188901D02*
D03*
X9401700Y16438901D02*
D03*
Y15688901D02*
D03*
Y15438901D02*
D03*
Y15188901D02*
D03*
Y14688901D02*
D03*
Y14438901D02*
D03*
Y14188901D02*
D03*
Y13938901D02*
D03*
Y13688901D02*
D03*
Y13438901D02*
D03*
Y13188901D02*
D03*
X9151700Y15438901D02*
D03*
Y15188901D02*
D03*
Y14688901D02*
D03*
Y14438901D02*
D03*
Y14188901D02*
D03*
Y13938901D02*
D03*
Y13688901D02*
D03*
Y13438901D02*
D03*
Y13188901D02*
D03*
X8901700Y16438901D02*
D03*
Y16188901D02*
D03*
Y15938901D02*
D03*
Y15688901D02*
D03*
Y15438901D02*
D03*
Y15188901D02*
D03*
Y14938901D02*
D03*
Y14188901D02*
D03*
Y13938901D02*
D03*
Y13688901D02*
D03*
Y13438901D02*
D03*
Y13188901D02*
D03*
X8651700Y16688901D02*
D03*
Y16438901D02*
D03*
Y16188901D02*
D03*
Y15938901D02*
D03*
Y15688901D02*
D03*
Y15438901D02*
D03*
Y15188901D02*
D03*
Y14938901D02*
D03*
Y14188901D02*
D03*
Y13938901D02*
D03*
Y13688901D02*
D03*
Y13438901D02*
D03*
Y13188901D02*
D03*
X8401700Y16688901D02*
D03*
Y16438901D02*
D03*
Y16188901D02*
D03*
Y15938901D02*
D03*
Y15688901D02*
D03*
Y15438901D02*
D03*
Y14938901D02*
D03*
Y13688901D02*
D03*
Y13438901D02*
D03*
Y13188901D02*
D03*
X8151700Y16688901D02*
D03*
Y16438901D02*
D03*
Y16188901D02*
D03*
Y15938901D02*
D03*
Y15688901D02*
D03*
Y15438901D02*
D03*
Y14188901D02*
D03*
Y13438901D02*
D03*
Y13188901D02*
D03*
X7901700Y16688901D02*
D03*
Y16438901D02*
D03*
Y16188901D02*
D03*
Y15938901D02*
D03*
Y15688901D02*
D03*
Y15438901D02*
D03*
Y14938901D02*
D03*
Y14688901D02*
D03*
Y14438901D02*
D03*
Y14188901D02*
D03*
Y13688901D02*
D03*
Y13438901D02*
D03*
Y13188901D02*
D03*
X8826500Y14533501D02*
D03*
X10344709Y13912036D02*
D03*
X10442997Y14010324D02*
D03*
X8128000Y14670599D02*
D03*
X8661400D02*
D03*
X8128000Y14470000D02*
D03*
X8585200D02*
D03*
X19472301Y16688901D02*
D03*
Y15938901D02*
D03*
Y15688901D02*
D03*
Y15438901D02*
D03*
Y15188901D02*
D03*
Y14938901D02*
D03*
Y14688901D02*
D03*
Y14438901D02*
D03*
Y14188901D02*
D03*
Y13938901D02*
D03*
Y13688901D02*
D03*
Y13438901D02*
D03*
Y13188901D02*
D03*
X19222301Y16688901D02*
D03*
Y16438901D02*
D03*
Y16188901D02*
D03*
Y15938901D02*
D03*
Y15688901D02*
D03*
Y15438901D02*
D03*
Y15188901D02*
D03*
Y14938901D02*
D03*
Y14688901D02*
D03*
Y14438901D02*
D03*
Y14188901D02*
D03*
Y13938901D02*
D03*
Y13688901D02*
D03*
Y13188901D02*
D03*
X18972301Y16688901D02*
D03*
Y16438901D02*
D03*
Y16188901D02*
D03*
Y15938901D02*
D03*
Y15188901D02*
D03*
Y14938901D02*
D03*
Y13188901D02*
D03*
X18722301Y16438901D02*
D03*
Y16188901D02*
D03*
Y15938901D02*
D03*
Y15188901D02*
D03*
Y14938901D02*
D03*
Y14188901D02*
D03*
Y13938901D02*
D03*
Y13688901D02*
D03*
Y13188901D02*
D03*
X18472301Y16438901D02*
D03*
Y16188901D02*
D03*
Y15938901D02*
D03*
Y15688901D02*
D03*
Y15438901D02*
D03*
Y15188901D02*
D03*
Y14938901D02*
D03*
Y14688901D02*
D03*
Y14438901D02*
D03*
Y14188901D02*
D03*
Y13938901D02*
D03*
Y13688901D02*
D03*
Y13188901D02*
D03*
X18222301Y15438901D02*
D03*
Y14938901D02*
D03*
Y14438901D02*
D03*
Y14188901D02*
D03*
Y13938901D02*
D03*
Y13688901D02*
D03*
Y13188901D02*
D03*
X17972301Y14188901D02*
D03*
Y13688901D02*
D03*
Y13438901D02*
D03*
Y13188901D02*
D03*
X17722301Y16188901D02*
D03*
Y14438901D02*
D03*
Y14188901D02*
D03*
Y13438901D02*
D03*
Y13188901D02*
D03*
X17472301Y16688901D02*
D03*
Y15188901D02*
D03*
Y14938901D02*
D03*
Y14438901D02*
D03*
Y14188901D02*
D03*
Y13438901D02*
D03*
X17222301Y16688901D02*
D03*
Y16438901D02*
D03*
Y15188901D02*
D03*
Y14938901D02*
D03*
Y14438901D02*
D03*
Y14188901D02*
D03*
Y13688901D02*
D03*
X16972301Y16688901D02*
D03*
Y16438901D02*
D03*
Y15438901D02*
D03*
Y15188901D02*
D03*
Y14938901D02*
D03*
Y14188901D02*
D03*
Y13688901D02*
D03*
X16722301Y16688901D02*
D03*
Y15438901D02*
D03*
Y15188901D02*
D03*
Y14938901D02*
D03*
Y13938901D02*
D03*
Y13688901D02*
D03*
X16472301Y16688901D02*
D03*
Y16438901D02*
D03*
Y15438901D02*
D03*
Y15188901D02*
D03*
Y14938901D02*
D03*
Y14188901D02*
D03*
Y13938901D02*
D03*
Y13688901D02*
D03*
Y13438901D02*
D03*
X16222301Y16688901D02*
D03*
Y16438901D02*
D03*
Y15438901D02*
D03*
Y15188901D02*
D03*
Y14938901D02*
D03*
Y14188901D02*
D03*
Y13938901D02*
D03*
Y13688901D02*
D03*
Y13438901D02*
D03*
Y13188901D02*
D03*
X15972301Y16438901D02*
D03*
Y15688901D02*
D03*
Y15438901D02*
D03*
Y15188901D02*
D03*
Y14688901D02*
D03*
Y14438901D02*
D03*
Y14188901D02*
D03*
Y13938901D02*
D03*
Y13688901D02*
D03*
Y13438901D02*
D03*
Y13188901D02*
D03*
X15722301Y15438901D02*
D03*
Y15188901D02*
D03*
Y14688901D02*
D03*
Y14438901D02*
D03*
Y14188901D02*
D03*
Y13938901D02*
D03*
Y13688901D02*
D03*
Y13438901D02*
D03*
Y13188901D02*
D03*
X15472301Y16438901D02*
D03*
Y16188901D02*
D03*
Y15938901D02*
D03*
Y15688901D02*
D03*
Y15438901D02*
D03*
Y15188901D02*
D03*
Y14938901D02*
D03*
Y14188901D02*
D03*
Y13938901D02*
D03*
Y13688901D02*
D03*
Y13438901D02*
D03*
Y13188901D02*
D03*
X15222301Y16688901D02*
D03*
Y16438901D02*
D03*
Y16188901D02*
D03*
Y15938901D02*
D03*
Y15688901D02*
D03*
Y15438901D02*
D03*
Y15188901D02*
D03*
Y14938901D02*
D03*
Y14188901D02*
D03*
Y13938901D02*
D03*
Y13688901D02*
D03*
Y13438901D02*
D03*
Y13188901D02*
D03*
X14972301Y16688901D02*
D03*
Y16438901D02*
D03*
Y16188901D02*
D03*
Y15938901D02*
D03*
Y15688901D02*
D03*
Y15438901D02*
D03*
Y14938901D02*
D03*
Y13688901D02*
D03*
Y13438901D02*
D03*
Y13188901D02*
D03*
X14722301Y16688901D02*
D03*
Y16438901D02*
D03*
Y16188901D02*
D03*
Y15938901D02*
D03*
Y15688901D02*
D03*
Y15438901D02*
D03*
Y14188901D02*
D03*
Y13438901D02*
D03*
Y13188901D02*
D03*
X14472301Y16688901D02*
D03*
Y16438901D02*
D03*
Y16188901D02*
D03*
Y15938901D02*
D03*
Y15688901D02*
D03*
Y15438901D02*
D03*
Y14938901D02*
D03*
Y14688901D02*
D03*
Y14438901D02*
D03*
Y14188901D02*
D03*
Y13688901D02*
D03*
Y13438901D02*
D03*
Y13188901D02*
D03*
X15397099Y14533501D02*
D03*
X16915309Y13912036D02*
D03*
X17013597Y14010324D02*
D03*
X14698599Y14670599D02*
D03*
X15232001D02*
D03*
X14698599Y14470000D02*
D03*
X15155800D02*
D03*
X12901700Y21189400D02*
D03*
Y20439400D02*
D03*
Y20189400D02*
D03*
Y19939400D02*
D03*
Y19689400D02*
D03*
Y19439400D02*
D03*
Y19189400D02*
D03*
Y18939400D02*
D03*
Y18689400D02*
D03*
Y18439400D02*
D03*
Y18189400D02*
D03*
Y17939400D02*
D03*
Y17689400D02*
D03*
X12651700Y21189400D02*
D03*
Y20939400D02*
D03*
Y20689400D02*
D03*
Y20439400D02*
D03*
Y20189400D02*
D03*
Y19939400D02*
D03*
Y19689400D02*
D03*
Y19439400D02*
D03*
Y19189400D02*
D03*
Y18939400D02*
D03*
Y18689400D02*
D03*
Y18439400D02*
D03*
Y18189400D02*
D03*
Y17689400D02*
D03*
X12401700Y21189400D02*
D03*
Y20939400D02*
D03*
Y20689400D02*
D03*
Y20439400D02*
D03*
Y19689400D02*
D03*
Y19439400D02*
D03*
Y17689400D02*
D03*
X12151700Y20939400D02*
D03*
Y20689400D02*
D03*
Y20439400D02*
D03*
Y19689400D02*
D03*
Y19439400D02*
D03*
Y18689400D02*
D03*
Y18439400D02*
D03*
Y18189400D02*
D03*
Y17689400D02*
D03*
X11901700Y20939400D02*
D03*
Y20689400D02*
D03*
Y20439400D02*
D03*
Y20189400D02*
D03*
Y19939400D02*
D03*
Y19689400D02*
D03*
Y19439400D02*
D03*
Y19189400D02*
D03*
Y18939400D02*
D03*
Y18689400D02*
D03*
Y18439400D02*
D03*
Y18189400D02*
D03*
Y17689400D02*
D03*
X11651700Y19939400D02*
D03*
Y19439400D02*
D03*
Y18939400D02*
D03*
Y18689400D02*
D03*
Y18439400D02*
D03*
Y18189400D02*
D03*
Y17689400D02*
D03*
X11401700Y18689400D02*
D03*
Y18189400D02*
D03*
Y17939400D02*
D03*
Y17689400D02*
D03*
X11151700Y20689400D02*
D03*
Y18939400D02*
D03*
Y18689400D02*
D03*
Y17939400D02*
D03*
Y17689400D02*
D03*
X10901700Y21189400D02*
D03*
Y19689400D02*
D03*
Y19439400D02*
D03*
Y18939400D02*
D03*
Y18689400D02*
D03*
Y17939400D02*
D03*
X10651700Y21189400D02*
D03*
Y20939400D02*
D03*
Y19689400D02*
D03*
Y19439400D02*
D03*
Y18939400D02*
D03*
Y18689400D02*
D03*
Y18189400D02*
D03*
X10401700Y21189400D02*
D03*
Y20939400D02*
D03*
Y19939400D02*
D03*
Y19689400D02*
D03*
Y19439400D02*
D03*
Y18689400D02*
D03*
Y18189400D02*
D03*
X10151700Y21189400D02*
D03*
Y19939400D02*
D03*
Y19689400D02*
D03*
Y19439400D02*
D03*
Y18439400D02*
D03*
Y18189400D02*
D03*
X9901700Y21189400D02*
D03*
Y20939400D02*
D03*
Y19939400D02*
D03*
Y19689400D02*
D03*
Y19439400D02*
D03*
Y18689400D02*
D03*
Y18439400D02*
D03*
Y18189400D02*
D03*
Y17939400D02*
D03*
X9651700Y21189400D02*
D03*
Y20939400D02*
D03*
Y19939400D02*
D03*
Y19689400D02*
D03*
Y19439400D02*
D03*
Y18689400D02*
D03*
Y18439400D02*
D03*
Y18189400D02*
D03*
Y17939400D02*
D03*
Y17689400D02*
D03*
X9401700Y20939400D02*
D03*
Y20189400D02*
D03*
Y19939400D02*
D03*
Y19689400D02*
D03*
Y19189400D02*
D03*
Y18939400D02*
D03*
Y18689400D02*
D03*
Y18439400D02*
D03*
Y18189400D02*
D03*
Y17939400D02*
D03*
Y17689400D02*
D03*
X9151700Y19939400D02*
D03*
Y19689400D02*
D03*
Y19189400D02*
D03*
Y18939400D02*
D03*
Y18689400D02*
D03*
Y18439400D02*
D03*
Y18189400D02*
D03*
Y17939400D02*
D03*
Y17689400D02*
D03*
X8901700Y20939400D02*
D03*
Y20689400D02*
D03*
Y20439400D02*
D03*
Y20189400D02*
D03*
Y19939400D02*
D03*
Y19689400D02*
D03*
Y19439400D02*
D03*
Y18689400D02*
D03*
Y18439400D02*
D03*
Y18189400D02*
D03*
Y17939400D02*
D03*
Y17689400D02*
D03*
X8651700Y21189400D02*
D03*
Y20939400D02*
D03*
Y20689400D02*
D03*
Y20439400D02*
D03*
Y20189400D02*
D03*
Y19939400D02*
D03*
Y19689400D02*
D03*
Y19439400D02*
D03*
Y18689400D02*
D03*
Y18439400D02*
D03*
Y18189400D02*
D03*
Y17939400D02*
D03*
Y17689400D02*
D03*
X8401700Y21189400D02*
D03*
Y20939400D02*
D03*
Y20689400D02*
D03*
Y20439400D02*
D03*
Y20189400D02*
D03*
Y19939400D02*
D03*
Y19439400D02*
D03*
Y18189400D02*
D03*
Y17939400D02*
D03*
Y17689400D02*
D03*
X8151700Y21189400D02*
D03*
Y20939400D02*
D03*
Y20689400D02*
D03*
Y20439400D02*
D03*
Y20189400D02*
D03*
Y19939400D02*
D03*
Y18689400D02*
D03*
Y17939400D02*
D03*
Y17689400D02*
D03*
X7901700Y21189400D02*
D03*
Y20939400D02*
D03*
Y20689400D02*
D03*
Y20439400D02*
D03*
Y20189400D02*
D03*
Y19939400D02*
D03*
Y19439400D02*
D03*
Y19189400D02*
D03*
Y18939400D02*
D03*
Y18689400D02*
D03*
Y18189400D02*
D03*
Y17939400D02*
D03*
Y17689400D02*
D03*
X8826500Y19034000D02*
D03*
X10344709Y18412537D02*
D03*
X10442997Y18510825D02*
D03*
X8128000Y19171100D02*
D03*
X8661400D02*
D03*
X8128000Y18970500D02*
D03*
X8585200D02*
D03*
X19472301Y21189400D02*
D03*
Y20439400D02*
D03*
Y20189400D02*
D03*
Y19939400D02*
D03*
Y19689400D02*
D03*
Y19439400D02*
D03*
Y19189400D02*
D03*
Y18939400D02*
D03*
Y18689400D02*
D03*
Y18439400D02*
D03*
Y18189400D02*
D03*
Y17939400D02*
D03*
Y17689400D02*
D03*
X19222301Y21189400D02*
D03*
Y20939400D02*
D03*
Y20689400D02*
D03*
Y20439400D02*
D03*
Y20189400D02*
D03*
Y19939400D02*
D03*
Y19689400D02*
D03*
Y19439400D02*
D03*
Y19189400D02*
D03*
Y18939400D02*
D03*
Y18689400D02*
D03*
Y18439400D02*
D03*
Y18189400D02*
D03*
Y17689400D02*
D03*
X18972301Y21189400D02*
D03*
Y20939400D02*
D03*
Y20689400D02*
D03*
Y20439400D02*
D03*
Y19689400D02*
D03*
Y19439400D02*
D03*
Y17689400D02*
D03*
X18722301Y20939400D02*
D03*
Y20689400D02*
D03*
Y20439400D02*
D03*
Y19689400D02*
D03*
Y19439400D02*
D03*
Y18689400D02*
D03*
Y18439400D02*
D03*
Y18189400D02*
D03*
Y17689400D02*
D03*
X18472301Y20939400D02*
D03*
Y20689400D02*
D03*
Y20439400D02*
D03*
Y20189400D02*
D03*
Y19939400D02*
D03*
Y19689400D02*
D03*
Y19439400D02*
D03*
Y19189400D02*
D03*
Y18939400D02*
D03*
Y18689400D02*
D03*
Y18439400D02*
D03*
Y18189400D02*
D03*
Y17689400D02*
D03*
X18222301Y19939400D02*
D03*
Y19439400D02*
D03*
Y18939400D02*
D03*
Y18689400D02*
D03*
Y18439400D02*
D03*
Y18189400D02*
D03*
Y17689400D02*
D03*
X17972301Y18689400D02*
D03*
Y18189400D02*
D03*
Y17939400D02*
D03*
Y17689400D02*
D03*
X17722301Y20689400D02*
D03*
Y18939400D02*
D03*
Y18689400D02*
D03*
Y17939400D02*
D03*
Y17689400D02*
D03*
X17472301Y21189400D02*
D03*
Y19689400D02*
D03*
Y19439400D02*
D03*
Y18939400D02*
D03*
Y18689400D02*
D03*
Y17939400D02*
D03*
X17222301Y21189400D02*
D03*
Y20939400D02*
D03*
Y19689400D02*
D03*
Y19439400D02*
D03*
Y18939400D02*
D03*
Y18689400D02*
D03*
Y18189400D02*
D03*
X16972301Y21189400D02*
D03*
Y20939400D02*
D03*
Y19939400D02*
D03*
Y19689400D02*
D03*
Y19439400D02*
D03*
Y18689400D02*
D03*
Y18189400D02*
D03*
X16722301Y21189400D02*
D03*
Y19939400D02*
D03*
Y19689400D02*
D03*
Y19439400D02*
D03*
Y18439400D02*
D03*
Y18189400D02*
D03*
X16472301Y21189400D02*
D03*
Y20939400D02*
D03*
Y19939400D02*
D03*
Y19689400D02*
D03*
Y19439400D02*
D03*
Y18689400D02*
D03*
Y18439400D02*
D03*
Y18189400D02*
D03*
Y17939400D02*
D03*
X16222301Y21189400D02*
D03*
Y20939400D02*
D03*
Y19939400D02*
D03*
Y19689400D02*
D03*
Y19439400D02*
D03*
Y18689400D02*
D03*
Y18439400D02*
D03*
Y18189400D02*
D03*
Y17939400D02*
D03*
Y17689400D02*
D03*
X15972301Y20939400D02*
D03*
Y20189400D02*
D03*
Y19939400D02*
D03*
Y19689400D02*
D03*
Y19189400D02*
D03*
Y18939400D02*
D03*
Y18689400D02*
D03*
Y18439400D02*
D03*
Y18189400D02*
D03*
Y17939400D02*
D03*
Y17689400D02*
D03*
X15722301Y19939400D02*
D03*
Y19689400D02*
D03*
Y19189400D02*
D03*
Y18939400D02*
D03*
Y18689400D02*
D03*
Y18439400D02*
D03*
Y18189400D02*
D03*
Y17939400D02*
D03*
Y17689400D02*
D03*
X15472301Y20939400D02*
D03*
Y20689400D02*
D03*
Y20439400D02*
D03*
Y20189400D02*
D03*
Y19939400D02*
D03*
Y19689400D02*
D03*
Y19439400D02*
D03*
Y18689400D02*
D03*
Y18439400D02*
D03*
Y18189400D02*
D03*
Y17939400D02*
D03*
Y17689400D02*
D03*
X15222301Y21189400D02*
D03*
Y20939400D02*
D03*
Y20689400D02*
D03*
Y20439400D02*
D03*
Y20189400D02*
D03*
Y19939400D02*
D03*
Y19689400D02*
D03*
Y19439400D02*
D03*
Y18689400D02*
D03*
Y18439400D02*
D03*
Y18189400D02*
D03*
Y17939400D02*
D03*
Y17689400D02*
D03*
X14972301Y21189400D02*
D03*
Y20939400D02*
D03*
Y20689400D02*
D03*
Y20439400D02*
D03*
Y20189400D02*
D03*
Y19939400D02*
D03*
Y19439400D02*
D03*
Y18189400D02*
D03*
Y17939400D02*
D03*
Y17689400D02*
D03*
X14722301Y21189400D02*
D03*
Y20939400D02*
D03*
Y20689400D02*
D03*
Y20439400D02*
D03*
Y20189400D02*
D03*
Y19939400D02*
D03*
Y18689400D02*
D03*
Y17939400D02*
D03*
Y17689400D02*
D03*
X14472301Y21189400D02*
D03*
Y20939400D02*
D03*
Y20689400D02*
D03*
Y20439400D02*
D03*
Y20189400D02*
D03*
Y19939400D02*
D03*
Y19439400D02*
D03*
Y19189400D02*
D03*
Y18939400D02*
D03*
Y18689400D02*
D03*
Y18189400D02*
D03*
Y17939400D02*
D03*
Y17689400D02*
D03*
X15397099Y19034000D02*
D03*
X16915309Y18412537D02*
D03*
X17013597Y18510825D02*
D03*
X14698599Y19171100D02*
D03*
X15232001D02*
D03*
X14698599Y18970500D02*
D03*
X15155800D02*
D03*
X12901700Y25689899D02*
D03*
Y24939900D02*
D03*
Y24689900D02*
D03*
Y24439900D02*
D03*
Y24189900D02*
D03*
Y23939900D02*
D03*
Y23689900D02*
D03*
Y23439900D02*
D03*
Y23189900D02*
D03*
Y22939900D02*
D03*
Y22689900D02*
D03*
Y22439900D02*
D03*
Y22189900D02*
D03*
X12651700Y25689899D02*
D03*
Y25439900D02*
D03*
Y25189900D02*
D03*
Y24939900D02*
D03*
Y24689900D02*
D03*
Y24439900D02*
D03*
Y24189900D02*
D03*
Y23939900D02*
D03*
Y23689900D02*
D03*
Y23439900D02*
D03*
Y23189900D02*
D03*
Y22939900D02*
D03*
Y22689900D02*
D03*
Y22189900D02*
D03*
X12401700Y25689899D02*
D03*
Y25439900D02*
D03*
Y25189900D02*
D03*
Y24939900D02*
D03*
Y24189900D02*
D03*
Y23939900D02*
D03*
Y22189900D02*
D03*
X12151700Y25439900D02*
D03*
Y25189900D02*
D03*
Y24939900D02*
D03*
Y24189900D02*
D03*
Y23939900D02*
D03*
Y23189900D02*
D03*
Y22939900D02*
D03*
Y22689900D02*
D03*
Y22189900D02*
D03*
X11901700Y25439900D02*
D03*
Y25189900D02*
D03*
Y24939900D02*
D03*
Y24689900D02*
D03*
Y24439900D02*
D03*
Y24189900D02*
D03*
Y23939900D02*
D03*
Y23689900D02*
D03*
Y23439900D02*
D03*
Y23189900D02*
D03*
Y22939900D02*
D03*
Y22689900D02*
D03*
Y22189900D02*
D03*
X11651700Y24439900D02*
D03*
Y23939900D02*
D03*
Y23439900D02*
D03*
Y23189900D02*
D03*
Y22939900D02*
D03*
Y22689900D02*
D03*
Y22189900D02*
D03*
X11401700Y23189900D02*
D03*
Y22689900D02*
D03*
Y22439900D02*
D03*
Y22189900D02*
D03*
X11151700Y25189900D02*
D03*
Y23439900D02*
D03*
Y23189900D02*
D03*
Y22439900D02*
D03*
Y22189900D02*
D03*
X10901700Y25689899D02*
D03*
Y24189900D02*
D03*
Y23939900D02*
D03*
Y23439900D02*
D03*
Y23189900D02*
D03*
Y22439900D02*
D03*
X10651700Y25689899D02*
D03*
Y25439900D02*
D03*
Y24189900D02*
D03*
Y23939900D02*
D03*
Y23439900D02*
D03*
Y23189900D02*
D03*
Y22689900D02*
D03*
X10401700Y25689899D02*
D03*
Y25439900D02*
D03*
Y24439900D02*
D03*
Y24189900D02*
D03*
Y23939900D02*
D03*
Y23189900D02*
D03*
Y22689900D02*
D03*
X10151700Y25689899D02*
D03*
Y24439900D02*
D03*
Y24189900D02*
D03*
Y23939900D02*
D03*
Y22939900D02*
D03*
Y22689900D02*
D03*
X9901700Y25689899D02*
D03*
Y25439900D02*
D03*
Y24439900D02*
D03*
Y24189900D02*
D03*
Y23939900D02*
D03*
Y23189900D02*
D03*
Y22939900D02*
D03*
Y22689900D02*
D03*
Y22439900D02*
D03*
X9651700Y25689899D02*
D03*
Y25439900D02*
D03*
Y24439900D02*
D03*
Y24189900D02*
D03*
Y23939900D02*
D03*
Y23189900D02*
D03*
Y22939900D02*
D03*
Y22689900D02*
D03*
Y22439900D02*
D03*
Y22189900D02*
D03*
X9401700Y25439900D02*
D03*
Y24689900D02*
D03*
Y24439900D02*
D03*
Y24189900D02*
D03*
Y23689900D02*
D03*
Y23439900D02*
D03*
Y23189900D02*
D03*
Y22939900D02*
D03*
Y22689900D02*
D03*
Y22439900D02*
D03*
Y22189900D02*
D03*
X9151700Y24439900D02*
D03*
Y24189900D02*
D03*
Y23689900D02*
D03*
Y23439900D02*
D03*
Y23189900D02*
D03*
Y22939900D02*
D03*
Y22689900D02*
D03*
Y22439900D02*
D03*
Y22189900D02*
D03*
X8901700Y25439900D02*
D03*
Y25189900D02*
D03*
Y24939900D02*
D03*
Y24689900D02*
D03*
Y24439900D02*
D03*
Y24189900D02*
D03*
Y23939900D02*
D03*
Y23189900D02*
D03*
Y22939900D02*
D03*
Y22689900D02*
D03*
Y22439900D02*
D03*
Y22189900D02*
D03*
X8651700Y25689899D02*
D03*
Y25439900D02*
D03*
Y25189900D02*
D03*
Y24939900D02*
D03*
Y24689900D02*
D03*
Y24439900D02*
D03*
Y24189900D02*
D03*
Y23939900D02*
D03*
Y23189900D02*
D03*
Y22939900D02*
D03*
Y22689900D02*
D03*
Y22439900D02*
D03*
Y22189900D02*
D03*
X8401700Y25689899D02*
D03*
Y25439900D02*
D03*
Y25189900D02*
D03*
Y24939900D02*
D03*
Y24689900D02*
D03*
Y24439900D02*
D03*
Y23939900D02*
D03*
Y22689900D02*
D03*
Y22439900D02*
D03*
Y22189900D02*
D03*
X8151700Y25689899D02*
D03*
Y25439900D02*
D03*
Y25189900D02*
D03*
Y24939900D02*
D03*
Y24689900D02*
D03*
Y24439900D02*
D03*
Y23189900D02*
D03*
Y22439900D02*
D03*
Y22189900D02*
D03*
X7901700Y25689899D02*
D03*
Y25439900D02*
D03*
Y25189900D02*
D03*
Y24939900D02*
D03*
Y24689900D02*
D03*
Y24439900D02*
D03*
Y23939900D02*
D03*
Y23689900D02*
D03*
Y23439900D02*
D03*
Y23189900D02*
D03*
Y22689900D02*
D03*
Y22439900D02*
D03*
Y22189900D02*
D03*
X8826500Y23534500D02*
D03*
X10344709Y22913036D02*
D03*
X10442997Y23011324D02*
D03*
X8128000Y23671600D02*
D03*
X8661400D02*
D03*
X8128000Y23471001D02*
D03*
X8585200D02*
D03*
X19472301Y25689899D02*
D03*
Y24939900D02*
D03*
Y24689900D02*
D03*
Y24439900D02*
D03*
Y24189900D02*
D03*
Y23939900D02*
D03*
Y23689900D02*
D03*
Y23439900D02*
D03*
Y23189900D02*
D03*
Y22939900D02*
D03*
Y22689900D02*
D03*
Y22439900D02*
D03*
Y22189900D02*
D03*
X19222301Y25689899D02*
D03*
Y25439900D02*
D03*
Y25189900D02*
D03*
Y24939900D02*
D03*
Y24689900D02*
D03*
Y24439900D02*
D03*
Y24189900D02*
D03*
Y23939900D02*
D03*
Y23689900D02*
D03*
Y23439900D02*
D03*
Y23189900D02*
D03*
Y22939900D02*
D03*
Y22689900D02*
D03*
Y22189900D02*
D03*
X18972301Y25689899D02*
D03*
Y25439900D02*
D03*
Y25189900D02*
D03*
Y24939900D02*
D03*
Y24189900D02*
D03*
Y23939900D02*
D03*
Y22189900D02*
D03*
X18722301Y25439900D02*
D03*
Y25189900D02*
D03*
Y24939900D02*
D03*
Y24189900D02*
D03*
Y23939900D02*
D03*
Y23189900D02*
D03*
Y22939900D02*
D03*
Y22689900D02*
D03*
Y22189900D02*
D03*
X18472301Y25439900D02*
D03*
Y25189900D02*
D03*
Y24939900D02*
D03*
Y24689900D02*
D03*
Y24439900D02*
D03*
Y24189900D02*
D03*
Y23939900D02*
D03*
Y23689900D02*
D03*
Y23439900D02*
D03*
Y23189900D02*
D03*
Y22939900D02*
D03*
Y22689900D02*
D03*
Y22189900D02*
D03*
X18222301Y24439900D02*
D03*
Y23939900D02*
D03*
Y23439900D02*
D03*
Y23189900D02*
D03*
Y22939900D02*
D03*
Y22689900D02*
D03*
Y22189900D02*
D03*
X17972301Y23189900D02*
D03*
Y22689900D02*
D03*
Y22439900D02*
D03*
Y22189900D02*
D03*
X17722301Y25189900D02*
D03*
Y23439900D02*
D03*
Y23189900D02*
D03*
Y22439900D02*
D03*
Y22189900D02*
D03*
X17472301Y25689899D02*
D03*
Y24189900D02*
D03*
Y23939900D02*
D03*
Y23439900D02*
D03*
Y23189900D02*
D03*
Y22439900D02*
D03*
X17222301Y25689899D02*
D03*
Y25439900D02*
D03*
Y24189900D02*
D03*
Y23939900D02*
D03*
Y23439900D02*
D03*
Y23189900D02*
D03*
Y22689900D02*
D03*
X16972301Y25689899D02*
D03*
Y25439900D02*
D03*
Y24439900D02*
D03*
Y24189900D02*
D03*
Y23939900D02*
D03*
Y23189900D02*
D03*
Y22689900D02*
D03*
X16722301Y25689899D02*
D03*
Y24439900D02*
D03*
Y24189900D02*
D03*
Y23939900D02*
D03*
Y22939900D02*
D03*
Y22689900D02*
D03*
X16472301Y25689899D02*
D03*
Y25439900D02*
D03*
Y24439900D02*
D03*
Y24189900D02*
D03*
Y23939900D02*
D03*
Y23189900D02*
D03*
Y22939900D02*
D03*
Y22689900D02*
D03*
Y22439900D02*
D03*
X16222301Y25689899D02*
D03*
Y25439900D02*
D03*
Y24439900D02*
D03*
Y24189900D02*
D03*
Y23939900D02*
D03*
Y23189900D02*
D03*
Y22939900D02*
D03*
Y22689900D02*
D03*
Y22439900D02*
D03*
Y22189900D02*
D03*
X15972301Y25439900D02*
D03*
Y24689900D02*
D03*
Y24439900D02*
D03*
Y24189900D02*
D03*
Y23689900D02*
D03*
Y23439900D02*
D03*
Y23189900D02*
D03*
Y22939900D02*
D03*
Y22689900D02*
D03*
Y22439900D02*
D03*
Y22189900D02*
D03*
X15722301Y24439900D02*
D03*
Y24189900D02*
D03*
Y23689900D02*
D03*
Y23439900D02*
D03*
Y23189900D02*
D03*
Y22939900D02*
D03*
Y22689900D02*
D03*
Y22439900D02*
D03*
Y22189900D02*
D03*
X15472301Y25439900D02*
D03*
Y25189900D02*
D03*
Y24939900D02*
D03*
Y24689900D02*
D03*
Y24439900D02*
D03*
Y24189900D02*
D03*
Y23939900D02*
D03*
Y23189900D02*
D03*
Y22939900D02*
D03*
Y22689900D02*
D03*
Y22439900D02*
D03*
Y22189900D02*
D03*
X15222301Y25689899D02*
D03*
Y25439900D02*
D03*
Y25189900D02*
D03*
Y24939900D02*
D03*
Y24689900D02*
D03*
Y24439900D02*
D03*
Y24189900D02*
D03*
Y23939900D02*
D03*
Y23189900D02*
D03*
Y22939900D02*
D03*
Y22689900D02*
D03*
Y22439900D02*
D03*
Y22189900D02*
D03*
X14972301Y25689899D02*
D03*
Y25439900D02*
D03*
Y25189900D02*
D03*
Y24939900D02*
D03*
Y24689900D02*
D03*
Y24439900D02*
D03*
Y23939900D02*
D03*
Y22689900D02*
D03*
Y22439900D02*
D03*
Y22189900D02*
D03*
X14722301Y25689899D02*
D03*
Y25439900D02*
D03*
Y25189900D02*
D03*
Y24939900D02*
D03*
Y24689900D02*
D03*
Y24439900D02*
D03*
Y23189900D02*
D03*
Y22439900D02*
D03*
Y22189900D02*
D03*
X14472301Y25689899D02*
D03*
Y25439900D02*
D03*
Y25189900D02*
D03*
Y24939900D02*
D03*
Y24689900D02*
D03*
Y24439900D02*
D03*
Y23939900D02*
D03*
Y23689900D02*
D03*
Y23439900D02*
D03*
Y23189900D02*
D03*
Y22689900D02*
D03*
Y22439900D02*
D03*
Y22189900D02*
D03*
X15397099Y23534500D02*
D03*
X16915309Y22913036D02*
D03*
X17013597Y23011324D02*
D03*
X14698599Y23671600D02*
D03*
X15232001D02*
D03*
X14698599Y23471001D02*
D03*
X15155800D02*
D03*
X12901700Y30190399D02*
D03*
Y29440399D02*
D03*
Y29190399D02*
D03*
Y28940399D02*
D03*
Y28690399D02*
D03*
Y28440399D02*
D03*
Y28190399D02*
D03*
Y27940399D02*
D03*
Y27690399D02*
D03*
Y27440399D02*
D03*
Y27190399D02*
D03*
Y26940399D02*
D03*
Y26690399D02*
D03*
X12651700Y30190399D02*
D03*
Y29940399D02*
D03*
Y29690399D02*
D03*
Y29440399D02*
D03*
Y29190399D02*
D03*
Y28940399D02*
D03*
Y28690399D02*
D03*
Y28440399D02*
D03*
Y28190399D02*
D03*
Y27940399D02*
D03*
Y27690399D02*
D03*
Y27440399D02*
D03*
Y27190399D02*
D03*
Y26690399D02*
D03*
X12401700Y30190399D02*
D03*
Y29940399D02*
D03*
Y29690399D02*
D03*
Y29440399D02*
D03*
Y28690399D02*
D03*
Y28440399D02*
D03*
Y26690399D02*
D03*
X12151700Y29940399D02*
D03*
Y29690399D02*
D03*
Y29440399D02*
D03*
Y28690399D02*
D03*
Y28440399D02*
D03*
Y27690399D02*
D03*
Y27440399D02*
D03*
Y27190399D02*
D03*
Y26690399D02*
D03*
X11901700Y29940399D02*
D03*
Y29690399D02*
D03*
Y29440399D02*
D03*
Y29190399D02*
D03*
Y28940399D02*
D03*
Y28690399D02*
D03*
Y28440399D02*
D03*
Y28190399D02*
D03*
Y27940399D02*
D03*
Y27690399D02*
D03*
Y27440399D02*
D03*
Y27190399D02*
D03*
Y26690399D02*
D03*
X11651700Y28940399D02*
D03*
Y28440399D02*
D03*
Y27940399D02*
D03*
Y27690399D02*
D03*
Y27440399D02*
D03*
Y27190399D02*
D03*
Y26690399D02*
D03*
X11401700Y27690399D02*
D03*
Y27190399D02*
D03*
Y26940399D02*
D03*
Y26690399D02*
D03*
X11151700Y29690399D02*
D03*
Y27940399D02*
D03*
Y27690399D02*
D03*
Y26940399D02*
D03*
Y26690399D02*
D03*
X10901700Y30190399D02*
D03*
Y28690399D02*
D03*
Y28440399D02*
D03*
Y27940399D02*
D03*
Y27690399D02*
D03*
Y26940399D02*
D03*
X10651700Y30190399D02*
D03*
Y29940399D02*
D03*
Y28690399D02*
D03*
Y28440399D02*
D03*
Y27940399D02*
D03*
Y27690399D02*
D03*
Y27190399D02*
D03*
X10401700Y30190399D02*
D03*
Y29940399D02*
D03*
Y28940399D02*
D03*
Y28690399D02*
D03*
Y28440399D02*
D03*
Y27690399D02*
D03*
Y27190399D02*
D03*
X10151700Y30190399D02*
D03*
Y28940399D02*
D03*
Y28690399D02*
D03*
Y28440399D02*
D03*
Y27440399D02*
D03*
Y27190399D02*
D03*
X9901700Y30190399D02*
D03*
Y29940399D02*
D03*
Y28940399D02*
D03*
Y28690399D02*
D03*
Y28440399D02*
D03*
Y27690399D02*
D03*
Y27440399D02*
D03*
Y27190399D02*
D03*
Y26940399D02*
D03*
X9651700Y30190399D02*
D03*
Y29940399D02*
D03*
Y28940399D02*
D03*
Y28690399D02*
D03*
Y28440399D02*
D03*
Y27690399D02*
D03*
Y27440399D02*
D03*
Y27190399D02*
D03*
Y26940399D02*
D03*
Y26690399D02*
D03*
X9401700Y29940399D02*
D03*
Y29190399D02*
D03*
Y28940399D02*
D03*
Y28690399D02*
D03*
Y28190399D02*
D03*
Y27940399D02*
D03*
Y27690399D02*
D03*
Y27440399D02*
D03*
Y27190399D02*
D03*
Y26940399D02*
D03*
Y26690399D02*
D03*
X9151700Y28940399D02*
D03*
Y28690399D02*
D03*
Y28190399D02*
D03*
Y27940399D02*
D03*
Y27690399D02*
D03*
Y27440399D02*
D03*
Y27190399D02*
D03*
Y26940399D02*
D03*
Y26690399D02*
D03*
X8901700Y29940399D02*
D03*
Y29690399D02*
D03*
Y29440399D02*
D03*
Y29190399D02*
D03*
Y28940399D02*
D03*
Y28690399D02*
D03*
Y28440399D02*
D03*
Y27690399D02*
D03*
Y27440399D02*
D03*
Y27190399D02*
D03*
Y26940399D02*
D03*
Y26690399D02*
D03*
X8651700Y30190399D02*
D03*
Y29940399D02*
D03*
Y29690399D02*
D03*
Y29440399D02*
D03*
Y29190399D02*
D03*
Y28940399D02*
D03*
Y28690399D02*
D03*
Y28440399D02*
D03*
Y27690399D02*
D03*
Y27440399D02*
D03*
Y27190399D02*
D03*
Y26940399D02*
D03*
Y26690399D02*
D03*
X8401700Y30190399D02*
D03*
Y29940399D02*
D03*
Y29690399D02*
D03*
Y29440399D02*
D03*
Y29190399D02*
D03*
Y28940399D02*
D03*
Y28440399D02*
D03*
Y27190399D02*
D03*
Y26940399D02*
D03*
Y26690399D02*
D03*
X8151700Y30190399D02*
D03*
Y29940399D02*
D03*
Y29690399D02*
D03*
Y29440399D02*
D03*
Y29190399D02*
D03*
Y28940399D02*
D03*
Y27690399D02*
D03*
Y26940399D02*
D03*
Y26690399D02*
D03*
X7901700Y30190399D02*
D03*
Y29940399D02*
D03*
Y29690399D02*
D03*
Y29440399D02*
D03*
Y29190399D02*
D03*
Y28940399D02*
D03*
Y28440399D02*
D03*
Y28190399D02*
D03*
Y27940399D02*
D03*
Y27690399D02*
D03*
Y27190399D02*
D03*
Y26940399D02*
D03*
Y26690399D02*
D03*
X8826500Y28035001D02*
D03*
X10344709Y27413535D02*
D03*
X10442997Y27511823D02*
D03*
X8128000Y28172101D02*
D03*
X8661400D02*
D03*
X8128000Y27971500D02*
D03*
X8585200D02*
D03*
X19472301Y30190399D02*
D03*
Y29440399D02*
D03*
Y29190399D02*
D03*
Y28940399D02*
D03*
Y28690399D02*
D03*
Y28440399D02*
D03*
Y28190399D02*
D03*
Y27940399D02*
D03*
Y27690399D02*
D03*
Y27440399D02*
D03*
Y27190399D02*
D03*
Y26940399D02*
D03*
Y26690399D02*
D03*
X19222301Y30190399D02*
D03*
Y29940399D02*
D03*
Y29690399D02*
D03*
Y29440399D02*
D03*
Y29190399D02*
D03*
Y28940399D02*
D03*
Y28690399D02*
D03*
Y28440399D02*
D03*
Y28190399D02*
D03*
Y27940399D02*
D03*
Y27690399D02*
D03*
Y27440399D02*
D03*
Y27190399D02*
D03*
Y26690399D02*
D03*
X18972301Y30190399D02*
D03*
Y29940399D02*
D03*
Y29690399D02*
D03*
Y29440399D02*
D03*
Y28690399D02*
D03*
Y28440399D02*
D03*
Y26690399D02*
D03*
X18722301Y29940399D02*
D03*
Y29690399D02*
D03*
Y29440399D02*
D03*
Y28690399D02*
D03*
Y28440399D02*
D03*
Y27690399D02*
D03*
Y27440399D02*
D03*
Y27190399D02*
D03*
Y26690399D02*
D03*
X18472301Y29940399D02*
D03*
Y29690399D02*
D03*
Y29440399D02*
D03*
Y29190399D02*
D03*
Y28940399D02*
D03*
Y28690399D02*
D03*
Y28440399D02*
D03*
Y28190399D02*
D03*
Y27940399D02*
D03*
Y27690399D02*
D03*
Y27440399D02*
D03*
Y27190399D02*
D03*
Y26690399D02*
D03*
X18222301Y28940399D02*
D03*
Y28440399D02*
D03*
Y27940399D02*
D03*
Y27690399D02*
D03*
Y27440399D02*
D03*
Y27190399D02*
D03*
Y26690399D02*
D03*
X17972301Y27690399D02*
D03*
Y27190399D02*
D03*
Y26940399D02*
D03*
Y26690399D02*
D03*
X17722301Y29690399D02*
D03*
Y27940399D02*
D03*
Y27690399D02*
D03*
Y26940399D02*
D03*
Y26690399D02*
D03*
X17472301Y30190399D02*
D03*
Y28690399D02*
D03*
Y28440399D02*
D03*
Y27940399D02*
D03*
Y27690399D02*
D03*
Y26940399D02*
D03*
X17222301Y30190399D02*
D03*
Y29940399D02*
D03*
Y28690399D02*
D03*
Y28440399D02*
D03*
Y27940399D02*
D03*
Y27690399D02*
D03*
Y27190399D02*
D03*
X16972301Y30190399D02*
D03*
Y29940399D02*
D03*
Y28940399D02*
D03*
Y28690399D02*
D03*
Y28440399D02*
D03*
Y27690399D02*
D03*
Y27190399D02*
D03*
X16722301Y30190399D02*
D03*
Y28940399D02*
D03*
Y28690399D02*
D03*
Y28440399D02*
D03*
Y27440399D02*
D03*
Y27190399D02*
D03*
X16472301Y30190399D02*
D03*
Y29940399D02*
D03*
Y28940399D02*
D03*
Y28690399D02*
D03*
Y28440399D02*
D03*
Y27690399D02*
D03*
Y27440399D02*
D03*
Y27190399D02*
D03*
Y26940399D02*
D03*
X16222301Y30190399D02*
D03*
Y29940399D02*
D03*
Y28940399D02*
D03*
Y28690399D02*
D03*
Y28440399D02*
D03*
Y27690399D02*
D03*
Y27440399D02*
D03*
Y27190399D02*
D03*
Y26940399D02*
D03*
Y26690399D02*
D03*
X15972301Y29940399D02*
D03*
Y29190399D02*
D03*
Y28940399D02*
D03*
Y28690399D02*
D03*
Y28190399D02*
D03*
Y27940399D02*
D03*
Y27690399D02*
D03*
Y27440399D02*
D03*
Y27190399D02*
D03*
Y26940399D02*
D03*
Y26690399D02*
D03*
X15722301Y28940399D02*
D03*
Y28690399D02*
D03*
Y28190399D02*
D03*
Y27940399D02*
D03*
Y27690399D02*
D03*
Y27440399D02*
D03*
Y27190399D02*
D03*
Y26940399D02*
D03*
Y26690399D02*
D03*
X15472301Y29940399D02*
D03*
Y29690399D02*
D03*
Y29440399D02*
D03*
Y29190399D02*
D03*
Y28940399D02*
D03*
Y28690399D02*
D03*
Y28440399D02*
D03*
Y27690399D02*
D03*
Y27440399D02*
D03*
Y27190399D02*
D03*
Y26940399D02*
D03*
Y26690399D02*
D03*
X15222301Y30190399D02*
D03*
Y29940399D02*
D03*
Y29690399D02*
D03*
Y29440399D02*
D03*
Y29190399D02*
D03*
Y28940399D02*
D03*
Y28690399D02*
D03*
Y28440399D02*
D03*
Y27690399D02*
D03*
Y27440399D02*
D03*
Y27190399D02*
D03*
Y26940399D02*
D03*
Y26690399D02*
D03*
X14972301Y30190399D02*
D03*
Y29940399D02*
D03*
Y29690399D02*
D03*
Y29440399D02*
D03*
Y29190399D02*
D03*
Y28940399D02*
D03*
Y28440399D02*
D03*
Y27190399D02*
D03*
Y26940399D02*
D03*
Y26690399D02*
D03*
X14722301Y30190399D02*
D03*
Y29940399D02*
D03*
Y29690399D02*
D03*
Y29440399D02*
D03*
Y29190399D02*
D03*
Y28940399D02*
D03*
Y27690399D02*
D03*
Y26940399D02*
D03*
Y26690399D02*
D03*
X14472301Y30190399D02*
D03*
Y29940399D02*
D03*
Y29690399D02*
D03*
Y29440399D02*
D03*
Y29190399D02*
D03*
Y28940399D02*
D03*
Y28440399D02*
D03*
Y28190399D02*
D03*
Y27940399D02*
D03*
Y27690399D02*
D03*
Y27190399D02*
D03*
Y26940399D02*
D03*
Y26690399D02*
D03*
X15397099Y28035001D02*
D03*
X16915309Y27413535D02*
D03*
X17013597Y27511823D02*
D03*
X14698599Y28172101D02*
D03*
X15232001D02*
D03*
X14698599Y27971500D02*
D03*
X15155800D02*
D03*
%TF.MD5,f1ba806019256ef283faa334d5c44c06*%
M02*
