%TF.GenerationSoftware,Altium Limited,Altium Designer,23.9.2 (47)*%
G04 Layer_Color=8388736*
%FSLAX45Y45*%
%MOMM*%
%TF.SameCoordinates,AD479AB8-1AF9-481E-9C01-A3E3F564F201*%
%TF.FilePolarity,Negative*%
%TF.FileFunction,Soldermask,Top*%
%TF.Part,CustomerPanel*%
G01*
G75*
%TA.AperFunction,SMDPad,CuDef*%
%ADD34C,3.20320*%
%ADD35R,6.20320X1.20320*%
%TA.AperFunction,BGAPad,CuDef*%
%ADD36R,1.00320X1.00320*%
%TA.AperFunction,ConnectorPad*%
%ADD37R,2.90320X1.40320*%
%TA.AperFunction,SMDPad,CuDef*%
%ADD38R,6.93420X6.70560*%
%ADD39R,1.09220X1.42240*%
%ADD40R,1.70320X1.60320*%
%ADD41R,1.60320X1.70320*%
G04:AMPARAMS|DCode=42|XSize=1.7732mm|YSize=0.6132mm|CornerRadius=0.15285mm|HoleSize=0mm|Usage=FLASHONLY|Rotation=180.000|XOffset=0mm|YOffset=0mm|HoleType=Round|Shape=RoundedRectangle|*
%AMROUNDEDRECTD42*
21,1,1.77320,0.30750,0,0,180.0*
21,1,1.46750,0.61320,0,0,180.0*
1,1,0.30570,-0.73375,0.15375*
1,1,0.30570,0.73375,0.15375*
1,1,0.30570,0.73375,-0.15375*
1,1,0.30570,-0.73375,-0.15375*
%
%ADD42ROUNDEDRECTD42*%
%TA.AperFunction,Conductor*%
%ADD43C,0.64200*%
%ADD44C,0.78100*%
%TA.AperFunction,ComponentPad*%
%ADD45C,1.95320*%
%ADD46C,1.70320*%
%ADD47R,1.70320X1.70320*%
D34*
X20948286Y30797501D02*
D03*
Y7696200D02*
D03*
X7213600D02*
D03*
D35*
X13271500Y11176000D02*
D03*
Y10922000D02*
D03*
Y10668000D02*
D03*
Y10414000D02*
D03*
Y10160000D02*
D03*
Y9906000D02*
D03*
Y9652000D02*
D03*
Y9398000D02*
D03*
Y9144000D02*
D03*
Y8890000D02*
D03*
X19842101Y11176000D02*
D03*
Y10922000D02*
D03*
Y10668000D02*
D03*
Y10414000D02*
D03*
Y10160000D02*
D03*
Y9906000D02*
D03*
Y9652000D02*
D03*
Y9398000D02*
D03*
Y9144000D02*
D03*
Y8890000D02*
D03*
X13271500Y15676500D02*
D03*
Y15422501D02*
D03*
Y15168500D02*
D03*
Y14914500D02*
D03*
Y14660500D02*
D03*
Y14406500D02*
D03*
Y14152499D02*
D03*
Y13898500D02*
D03*
Y13644501D02*
D03*
Y13390500D02*
D03*
X19842101Y15676500D02*
D03*
Y15422501D02*
D03*
Y15168500D02*
D03*
Y14914500D02*
D03*
Y14660500D02*
D03*
Y14406500D02*
D03*
Y14152499D02*
D03*
Y13898500D02*
D03*
Y13644501D02*
D03*
Y13390500D02*
D03*
X13271500Y20177000D02*
D03*
Y19923000D02*
D03*
Y19669000D02*
D03*
Y19414999D02*
D03*
Y19161000D02*
D03*
Y18907001D02*
D03*
Y18653000D02*
D03*
Y18399001D02*
D03*
Y18145000D02*
D03*
Y17891000D02*
D03*
X19842101Y20177000D02*
D03*
Y19923000D02*
D03*
Y19669000D02*
D03*
Y19414999D02*
D03*
Y19161000D02*
D03*
Y18907001D02*
D03*
Y18653000D02*
D03*
Y18399001D02*
D03*
Y18145000D02*
D03*
Y17891000D02*
D03*
X13271500Y24677499D02*
D03*
Y24423500D02*
D03*
Y24169501D02*
D03*
Y23915500D02*
D03*
Y23661501D02*
D03*
Y23407500D02*
D03*
Y23153500D02*
D03*
Y22899500D02*
D03*
Y22645500D02*
D03*
Y22391499D02*
D03*
X19842101Y24677499D02*
D03*
Y24423500D02*
D03*
Y24169501D02*
D03*
Y23915500D02*
D03*
Y23661501D02*
D03*
Y23407500D02*
D03*
Y23153500D02*
D03*
Y22899500D02*
D03*
Y22645500D02*
D03*
Y22391499D02*
D03*
X13271500Y29178000D02*
D03*
Y28923999D02*
D03*
Y28670001D02*
D03*
Y28416000D02*
D03*
Y28162000D02*
D03*
Y27907999D02*
D03*
Y27654001D02*
D03*
Y27400000D02*
D03*
Y27145999D02*
D03*
Y26892001D02*
D03*
X19842101Y29178000D02*
D03*
Y28923999D02*
D03*
Y28670001D02*
D03*
Y28416000D02*
D03*
Y28162000D02*
D03*
Y27907999D02*
D03*
Y27654001D02*
D03*
Y27400000D02*
D03*
Y27145999D02*
D03*
Y26892001D02*
D03*
D36*
X8405669Y10290146D02*
D03*
Y10160000D02*
D03*
X8408644Y10033000D02*
D03*
Y9909146D02*
D03*
X8407400Y9782146D02*
D03*
Y9655146D02*
D03*
X8280400Y10290146D02*
D03*
Y10160000D02*
D03*
Y10033000D02*
D03*
Y9909146D02*
D03*
Y9782146D02*
D03*
Y9655146D02*
D03*
X14976270Y10290146D02*
D03*
Y10160000D02*
D03*
X14979243Y10033000D02*
D03*
Y9909146D02*
D03*
X14978000Y9782146D02*
D03*
Y9655146D02*
D03*
X14850999Y10290146D02*
D03*
Y10160000D02*
D03*
Y10033000D02*
D03*
Y9909146D02*
D03*
Y9782146D02*
D03*
Y9655146D02*
D03*
X8405669Y14790646D02*
D03*
Y14660500D02*
D03*
X8408644Y14533501D02*
D03*
Y14409647D02*
D03*
X8407400Y14282646D02*
D03*
Y14155646D02*
D03*
X8280400Y14790646D02*
D03*
Y14660500D02*
D03*
Y14533501D02*
D03*
Y14409647D02*
D03*
Y14282646D02*
D03*
Y14155646D02*
D03*
X14976270Y14790646D02*
D03*
Y14660500D02*
D03*
X14979243Y14533501D02*
D03*
Y14409647D02*
D03*
X14978000Y14282646D02*
D03*
Y14155646D02*
D03*
X14850999Y14790646D02*
D03*
Y14660500D02*
D03*
Y14533501D02*
D03*
Y14409647D02*
D03*
Y14282646D02*
D03*
Y14155646D02*
D03*
X8405669Y19291145D02*
D03*
Y19161000D02*
D03*
X8408644Y19034000D02*
D03*
Y18910146D02*
D03*
X8407400Y18783147D02*
D03*
Y18656146D02*
D03*
X8280400Y19291145D02*
D03*
Y19161000D02*
D03*
Y19034000D02*
D03*
Y18910146D02*
D03*
Y18783147D02*
D03*
Y18656146D02*
D03*
X14976270Y19291145D02*
D03*
Y19161000D02*
D03*
X14979243Y19034000D02*
D03*
Y18910146D02*
D03*
X14978000Y18783147D02*
D03*
Y18656146D02*
D03*
X14850999Y19291145D02*
D03*
Y19161000D02*
D03*
Y19034000D02*
D03*
Y18910146D02*
D03*
Y18783147D02*
D03*
Y18656146D02*
D03*
X8405669Y23791646D02*
D03*
Y23661501D02*
D03*
X8408644Y23534500D02*
D03*
Y23410646D02*
D03*
X8407400Y23283646D02*
D03*
Y23156647D02*
D03*
X8280400Y23791646D02*
D03*
Y23661501D02*
D03*
Y23534500D02*
D03*
Y23410646D02*
D03*
Y23283646D02*
D03*
Y23156647D02*
D03*
X14976270Y23791646D02*
D03*
Y23661501D02*
D03*
X14979243Y23534500D02*
D03*
Y23410646D02*
D03*
X14978000Y23283646D02*
D03*
Y23156647D02*
D03*
X14850999Y23791646D02*
D03*
Y23661501D02*
D03*
Y23534500D02*
D03*
Y23410646D02*
D03*
Y23283646D02*
D03*
Y23156647D02*
D03*
X8405669Y28292145D02*
D03*
Y28162000D02*
D03*
X8408644Y28035001D02*
D03*
Y27911145D02*
D03*
X8407400Y27784146D02*
D03*
Y27657147D02*
D03*
X8280400Y28292145D02*
D03*
Y28162000D02*
D03*
Y28035001D02*
D03*
Y27911145D02*
D03*
Y27784146D02*
D03*
Y27657147D02*
D03*
X14976270Y28292145D02*
D03*
Y28162000D02*
D03*
X14979243Y28035001D02*
D03*
Y27911145D02*
D03*
X14978000Y27784146D02*
D03*
Y27657147D02*
D03*
X14850999Y28292145D02*
D03*
Y28162000D02*
D03*
Y28035001D02*
D03*
Y27911145D02*
D03*
Y27784146D02*
D03*
Y27657147D02*
D03*
D37*
X8325900Y10556846D02*
D03*
X7835900D02*
D03*
X8325900Y9401146D02*
D03*
X7835900D02*
D03*
X14896500Y10556846D02*
D03*
X14406500D02*
D03*
X14896500Y9401146D02*
D03*
X14406500D02*
D03*
X8325900Y15057346D02*
D03*
X7835900D02*
D03*
X8325900Y13901646D02*
D03*
X7835900D02*
D03*
X14896500Y15057346D02*
D03*
X14406500D02*
D03*
X14896500Y13901646D02*
D03*
X14406500D02*
D03*
X8325900Y19557846D02*
D03*
X7835900D02*
D03*
X8325900Y18402145D02*
D03*
X7835900D02*
D03*
X14896500Y19557846D02*
D03*
X14406500D02*
D03*
X14896500Y18402145D02*
D03*
X14406500D02*
D03*
X8325900Y24058347D02*
D03*
X7835900D02*
D03*
X8325900Y22902646D02*
D03*
X7835900D02*
D03*
X14896500Y24058347D02*
D03*
X14406500D02*
D03*
X14896500Y22902646D02*
D03*
X14406500D02*
D03*
X8325900Y28558847D02*
D03*
X7835900D02*
D03*
X8325900Y27403146D02*
D03*
X7835900D02*
D03*
X14896500Y28558847D02*
D03*
X14406500D02*
D03*
X14896500Y27403146D02*
D03*
X14406500D02*
D03*
D38*
X10477500Y11508740D02*
D03*
X17048100D02*
D03*
X10477500Y16009241D02*
D03*
X17048100D02*
D03*
X10477500Y20509740D02*
D03*
X17048100D02*
D03*
X10477500Y25010240D02*
D03*
X17048100D02*
D03*
X10477500Y29510739D02*
D03*
X17048100D02*
D03*
D39*
X10706100Y10843260D02*
D03*
X10248900D02*
D03*
X17276700D02*
D03*
X16819501D02*
D03*
X10706100Y15343761D02*
D03*
X10248900D02*
D03*
X17276700D02*
D03*
X16819501D02*
D03*
X10706100Y19844260D02*
D03*
X10248900D02*
D03*
X17276700D02*
D03*
X16819501D02*
D03*
X10706100Y24344760D02*
D03*
X10248900D02*
D03*
X17276700D02*
D03*
X16819501D02*
D03*
X10706100Y28845261D02*
D03*
X10248900D02*
D03*
X17276700D02*
D03*
X16819501D02*
D03*
D40*
X9956800Y11720500D02*
D03*
Y11520500D02*
D03*
X9626600Y11720500D02*
D03*
Y11520500D02*
D03*
X12446000Y8891600D02*
D03*
Y9091600D02*
D03*
Y10145700D02*
D03*
Y9945700D02*
D03*
Y10949000D02*
D03*
Y11149000D02*
D03*
X16527400Y11720500D02*
D03*
Y11520500D02*
D03*
X16197200Y11720500D02*
D03*
Y11520500D02*
D03*
X19016600Y8891600D02*
D03*
Y9091600D02*
D03*
Y10145700D02*
D03*
Y9945700D02*
D03*
Y10949000D02*
D03*
Y11149000D02*
D03*
X9956800Y16221001D02*
D03*
Y16021001D02*
D03*
X9626600Y16221001D02*
D03*
Y16021001D02*
D03*
X12446000Y13392101D02*
D03*
Y13592101D02*
D03*
Y14646201D02*
D03*
Y14446201D02*
D03*
Y15449500D02*
D03*
Y15649500D02*
D03*
X16527400Y16221001D02*
D03*
Y16021001D02*
D03*
X16197200Y16221001D02*
D03*
Y16021001D02*
D03*
X19016600Y13392101D02*
D03*
Y13592101D02*
D03*
Y14646201D02*
D03*
Y14446201D02*
D03*
Y15449500D02*
D03*
Y15649500D02*
D03*
X9956800Y20721500D02*
D03*
Y20521500D02*
D03*
X9626600Y20721500D02*
D03*
Y20521500D02*
D03*
X12446000Y17892599D02*
D03*
Y18092599D02*
D03*
Y19146700D02*
D03*
Y18946700D02*
D03*
Y19950000D02*
D03*
Y20150000D02*
D03*
X16527400Y20721500D02*
D03*
Y20521500D02*
D03*
X16197200Y20721500D02*
D03*
Y20521500D02*
D03*
X19016600Y17892599D02*
D03*
Y18092599D02*
D03*
Y19146700D02*
D03*
Y18946700D02*
D03*
Y19950000D02*
D03*
Y20150000D02*
D03*
X9956800Y25222000D02*
D03*
Y25022000D02*
D03*
X9626600Y25222000D02*
D03*
Y25022000D02*
D03*
X12446000Y22393100D02*
D03*
Y22593100D02*
D03*
Y23647200D02*
D03*
Y23447200D02*
D03*
Y24450500D02*
D03*
Y24650500D02*
D03*
X16527400Y25222000D02*
D03*
Y25022000D02*
D03*
X16197200Y25222000D02*
D03*
Y25022000D02*
D03*
X19016600Y22393100D02*
D03*
Y22593100D02*
D03*
Y23647200D02*
D03*
Y23447200D02*
D03*
Y24450500D02*
D03*
Y24650500D02*
D03*
X9956800Y29722501D02*
D03*
Y29522501D02*
D03*
X9626600Y29722501D02*
D03*
Y29522501D02*
D03*
X12446000Y26893600D02*
D03*
Y27093600D02*
D03*
Y28147699D02*
D03*
Y27947699D02*
D03*
Y28951001D02*
D03*
Y29151001D02*
D03*
X16527400Y29722501D02*
D03*
Y29522501D02*
D03*
X16197200Y29722501D02*
D03*
Y29522501D02*
D03*
X19016600Y26893600D02*
D03*
Y27093600D02*
D03*
Y28147699D02*
D03*
Y27947699D02*
D03*
Y28951001D02*
D03*
Y29151001D02*
D03*
D41*
X9082100Y11720500D02*
D03*
X9282100D02*
D03*
X9082100Y11379200D02*
D03*
X9282100D02*
D03*
X11179200Y10858500D02*
D03*
X11379200D02*
D03*
Y11188700D02*
D03*
X11179200D02*
D03*
X11188700Y11506200D02*
D03*
X11388700D02*
D03*
X11188700Y11836400D02*
D03*
X11388700D02*
D03*
X15652699Y11720500D02*
D03*
X15852699D02*
D03*
X15652699Y11379200D02*
D03*
X15852699D02*
D03*
X17749800Y10858500D02*
D03*
X17949800D02*
D03*
Y11188700D02*
D03*
X17749800D02*
D03*
X17759300Y11506200D02*
D03*
X17959300D02*
D03*
X17759300Y11836400D02*
D03*
X17959300D02*
D03*
X9082100Y16221001D02*
D03*
X9282100D02*
D03*
X9082100Y15879700D02*
D03*
X9282100D02*
D03*
X11179200Y15359000D02*
D03*
X11379200D02*
D03*
Y15689200D02*
D03*
X11179200D02*
D03*
X11188700Y16006700D02*
D03*
X11388700D02*
D03*
X11188700Y16336900D02*
D03*
X11388700D02*
D03*
X15652699Y16221001D02*
D03*
X15852699D02*
D03*
X15652699Y15879700D02*
D03*
X15852699D02*
D03*
X17749800Y15359000D02*
D03*
X17949800D02*
D03*
Y15689200D02*
D03*
X17749800D02*
D03*
X17759300Y16006700D02*
D03*
X17959300D02*
D03*
X17759300Y16336900D02*
D03*
X17959300D02*
D03*
X9082100Y20721500D02*
D03*
X9282100D02*
D03*
X9082100Y20380200D02*
D03*
X9282100D02*
D03*
X11179200Y19859500D02*
D03*
X11379200D02*
D03*
Y20189700D02*
D03*
X11179200D02*
D03*
X11188700Y20507201D02*
D03*
X11388700D02*
D03*
X11188700Y20837399D02*
D03*
X11388700D02*
D03*
X15652699Y20721500D02*
D03*
X15852699D02*
D03*
X15652699Y20380200D02*
D03*
X15852699D02*
D03*
X17749800Y19859500D02*
D03*
X17949800D02*
D03*
Y20189700D02*
D03*
X17749800D02*
D03*
X17759300Y20507201D02*
D03*
X17959300D02*
D03*
X17759300Y20837399D02*
D03*
X17959300D02*
D03*
X9082100Y25222000D02*
D03*
X9282100D02*
D03*
X9082100Y24880701D02*
D03*
X9282100D02*
D03*
X11179200Y24360001D02*
D03*
X11379200D02*
D03*
Y24690199D02*
D03*
X11179200D02*
D03*
X11188700Y25007700D02*
D03*
X11388700D02*
D03*
X11188700Y25337900D02*
D03*
X11388700D02*
D03*
X15652699Y25222000D02*
D03*
X15852699D02*
D03*
X15652699Y24880701D02*
D03*
X15852699D02*
D03*
X17749800Y24360001D02*
D03*
X17949800D02*
D03*
Y24690199D02*
D03*
X17749800D02*
D03*
X17759300Y25007700D02*
D03*
X17959300D02*
D03*
X17759300Y25337900D02*
D03*
X17959300D02*
D03*
X9082100Y29722501D02*
D03*
X9282100D02*
D03*
X9082100Y29381201D02*
D03*
X9282100D02*
D03*
X11179200Y28860501D02*
D03*
X11379200D02*
D03*
Y29190701D02*
D03*
X11179200D02*
D03*
X11188700Y29508200D02*
D03*
X11388700D02*
D03*
X11188700Y29838400D02*
D03*
X11388700D02*
D03*
X15652699Y29722501D02*
D03*
X15852699D02*
D03*
X15652699Y29381201D02*
D03*
X15852699D02*
D03*
X17749800Y28860501D02*
D03*
X17949800D02*
D03*
Y29190701D02*
D03*
X17749800D02*
D03*
X17759300Y29508200D02*
D03*
X17959300D02*
D03*
X17759300Y29838400D02*
D03*
X17959300D02*
D03*
D42*
X9022100Y9975100D02*
D03*
Y10040100D02*
D03*
X9596100Y10235100D02*
D03*
Y10170100D02*
D03*
Y10105100D02*
D03*
Y10040100D02*
D03*
Y9975100D02*
D03*
Y9910100D02*
D03*
Y9845100D02*
D03*
Y9780100D02*
D03*
X9022100Y10235100D02*
D03*
Y10170100D02*
D03*
Y10105100D02*
D03*
Y9910100D02*
D03*
Y9845100D02*
D03*
Y9780100D02*
D03*
X15592700Y9975100D02*
D03*
Y10040100D02*
D03*
X16166701Y10235100D02*
D03*
Y10170100D02*
D03*
Y10105100D02*
D03*
Y10040100D02*
D03*
Y9975100D02*
D03*
Y9910100D02*
D03*
Y9845100D02*
D03*
Y9780100D02*
D03*
X15592700Y10235100D02*
D03*
Y10170100D02*
D03*
Y10105100D02*
D03*
Y9910100D02*
D03*
Y9845100D02*
D03*
Y9780100D02*
D03*
X9022100Y14475600D02*
D03*
Y14540601D02*
D03*
X9596100Y14735600D02*
D03*
Y14670599D02*
D03*
Y14605600D02*
D03*
Y14540601D02*
D03*
Y14475600D02*
D03*
Y14410600D02*
D03*
Y14345599D02*
D03*
Y14280600D02*
D03*
X9022100Y14735600D02*
D03*
Y14670599D02*
D03*
Y14605600D02*
D03*
Y14410600D02*
D03*
Y14345599D02*
D03*
Y14280600D02*
D03*
X15592700Y14475600D02*
D03*
Y14540601D02*
D03*
X16166701Y14735600D02*
D03*
Y14670599D02*
D03*
Y14605600D02*
D03*
Y14540601D02*
D03*
Y14475600D02*
D03*
Y14410600D02*
D03*
Y14345599D02*
D03*
Y14280600D02*
D03*
X15592700Y14735600D02*
D03*
Y14670599D02*
D03*
Y14605600D02*
D03*
Y14410600D02*
D03*
Y14345599D02*
D03*
Y14280600D02*
D03*
X9022100Y18976100D02*
D03*
Y19041100D02*
D03*
X9596100Y19236099D02*
D03*
Y19171100D02*
D03*
Y19106100D02*
D03*
Y19041100D02*
D03*
Y18976100D02*
D03*
Y18911099D02*
D03*
Y18846100D02*
D03*
Y18781100D02*
D03*
X9022100Y19236099D02*
D03*
Y19171100D02*
D03*
Y19106100D02*
D03*
Y18911099D02*
D03*
Y18846100D02*
D03*
Y18781100D02*
D03*
X15592700Y18976100D02*
D03*
Y19041100D02*
D03*
X16166701Y19236099D02*
D03*
Y19171100D02*
D03*
Y19106100D02*
D03*
Y19041100D02*
D03*
Y18976100D02*
D03*
Y18911099D02*
D03*
Y18846100D02*
D03*
Y18781100D02*
D03*
X15592700Y19236099D02*
D03*
Y19171100D02*
D03*
Y19106100D02*
D03*
Y18911099D02*
D03*
Y18846100D02*
D03*
Y18781100D02*
D03*
X9022100Y23476601D02*
D03*
Y23541600D02*
D03*
X9596100Y23736600D02*
D03*
Y23671600D02*
D03*
Y23606599D02*
D03*
Y23541600D02*
D03*
Y23476601D02*
D03*
Y23411600D02*
D03*
Y23346600D02*
D03*
Y23281599D02*
D03*
X9022100Y23736600D02*
D03*
Y23671600D02*
D03*
Y23606599D02*
D03*
Y23411600D02*
D03*
Y23346600D02*
D03*
Y23281599D02*
D03*
X15592700Y23476601D02*
D03*
Y23541600D02*
D03*
X16166701Y23736600D02*
D03*
Y23671600D02*
D03*
Y23606599D02*
D03*
Y23541600D02*
D03*
Y23476601D02*
D03*
Y23411600D02*
D03*
Y23346600D02*
D03*
Y23281599D02*
D03*
X15592700Y23736600D02*
D03*
Y23671600D02*
D03*
Y23606599D02*
D03*
Y23411600D02*
D03*
Y23346600D02*
D03*
Y23281599D02*
D03*
X9022100Y27977100D02*
D03*
Y28042099D02*
D03*
X9596100Y28237100D02*
D03*
Y28172101D02*
D03*
Y28107101D02*
D03*
Y28042099D02*
D03*
Y27977100D02*
D03*
Y27912100D02*
D03*
Y27847101D02*
D03*
Y27782101D02*
D03*
X9022100Y28237100D02*
D03*
Y28172101D02*
D03*
Y28107101D02*
D03*
Y27912100D02*
D03*
Y27847101D02*
D03*
Y27782101D02*
D03*
X15592700Y27977100D02*
D03*
Y28042099D02*
D03*
X16166701Y28237100D02*
D03*
Y28172101D02*
D03*
Y28107101D02*
D03*
Y28042099D02*
D03*
Y27977100D02*
D03*
Y27912100D02*
D03*
Y27847101D02*
D03*
Y27782101D02*
D03*
X15592700Y28237100D02*
D03*
Y28172101D02*
D03*
Y28107101D02*
D03*
Y27912100D02*
D03*
Y27847101D02*
D03*
Y27782101D02*
D03*
D43*
X10524242Y9950242D02*
X10610609Y9863875D01*
X10630657D01*
X10653983Y9887201D01*
X10684552D01*
X10829911Y9741841D01*
Y9711273D02*
Y9741841D01*
X10655140Y9536502D02*
X10829911Y9711273D01*
X10655140Y9536502D02*
X10778884Y9412758D01*
X11046442Y9680316D01*
X11077011D01*
X11222370Y9534957D01*
Y9504388D02*
Y9534957D01*
X10954812Y9236830D02*
X11222370Y9504388D01*
X10954812Y9236830D02*
X11078556Y9113086D01*
X11194669Y9229199D01*
X11245285D01*
X11272292Y9202192D01*
X10498150Y9924150D02*
Y9924150D01*
X10498150D01*
X10595325Y9826975D01*
X10645942D01*
X10669267Y9850301D01*
X10793011Y9726557D01*
X10618240Y9551786D02*
X10793011Y9726557D01*
X10618240Y9521217D02*
Y9551786D01*
Y9521217D02*
X10763600Y9375858D01*
X10794168D01*
X11061727Y9643416D01*
X11185470Y9519672D01*
X10917912Y9252114D02*
X11185470Y9519672D01*
X10917912Y9221545D02*
Y9252114D01*
Y9221545D02*
X11063271Y9076186D01*
X11093840D01*
X11209953Y9192299D01*
X11230001D01*
X11246200Y9176100D01*
X11246200Y9176100D02*
X11246200Y9176100D01*
X10513434Y9961050D02*
X10524242Y9950242D01*
X11272292Y9202192D02*
X11464434Y9010050D01*
X11246200Y9176100D02*
X11449150Y8973150D01*
X12219478Y10027250D02*
X12340568D01*
X12183686Y10063042D02*
X12219478Y10027250D01*
X12183686Y10063042D02*
Y10092716D01*
X12008686D02*
X12183686D01*
X12008686Y9848865D02*
Y10092716D01*
X11987071Y9827250D02*
X12008686Y9848865D01*
X11781501Y9827250D02*
X11987071D01*
X11759886Y9848865D02*
X11781501Y9827250D01*
X11759886Y9848865D02*
Y10227250D01*
X11584886D02*
X11759886D01*
X11584886Y9848865D02*
Y10227250D01*
X11563270Y9827250D02*
X11584886Y9848865D01*
X11357701Y9827250D02*
X11563270D01*
X11336085Y9848865D02*
X11357701Y9827250D01*
X11336085Y9848865D02*
Y10227250D01*
X11161085D02*
X11336085D01*
X11161085Y10063042D02*
Y10227250D01*
X11125293Y10027250D02*
X11161085Y10063042D01*
X11087100Y10027250D02*
X11125293D01*
X12234762Y10064150D02*
X12340568D01*
X12220586Y10078326D02*
X12234762Y10064150D01*
X12220586Y10078326D02*
Y10108001D01*
X12198971Y10129617D02*
X12220586Y10108001D01*
X11993402Y10129617D02*
X12198971D01*
X11971786Y10108001D02*
X11993402Y10129617D01*
X11971786Y9864150D02*
Y10108001D01*
X11796786Y9864150D02*
X11971786D01*
X11796786D02*
Y10242535D01*
X11775170Y10264150D02*
X11796786Y10242535D01*
X11569601Y10264150D02*
X11775170D01*
X11547986Y10242535D02*
X11569601Y10264150D01*
X11547986Y9864150D02*
Y10242535D01*
X11372985Y9864150D02*
X11547986D01*
X11372985D02*
Y10242535D01*
X11351370Y10264150D02*
X11372985Y10242535D01*
X11145801Y10264150D02*
X11351370D01*
X11124185Y10242535D02*
X11145801Y10264150D01*
X11124185Y10078326D02*
Y10242535D01*
X11110009Y10064150D02*
X11124185Y10078326D01*
X11087100Y10064150D02*
X11110009D01*
X12340568Y10027250D02*
X12368924D01*
X11016050D02*
X11087100D01*
X12340568Y10064150D02*
X12368924D01*
X11031335D02*
X11087100D01*
X11004435Y10091050D02*
X11031335Y10064150D01*
X10967091Y10267309D02*
X11080109Y10380326D01*
Y10400374D01*
X10988877Y10491605D02*
X11080109Y10400374D01*
X10988877Y10491605D02*
Y10522174D01*
X11134237Y10667533D01*
X11164805D01*
X11164805D02*
X11407482Y10424856D01*
X11531226Y10548600D01*
X11405089Y10674737D02*
X11531226Y10548600D01*
X11405089Y10674737D02*
Y10705305D01*
X11550449Y10850665D01*
X11581017D01*
X11707154Y10724528D01*
X11830898Y10848272D01*
X11714784Y10964385D02*
X11830898Y10848272D01*
X11714784Y10964385D02*
Y11015002D01*
X11741792Y11042009D01*
X10993183Y10241216D02*
X10993183D01*
X10993183D02*
X11117009Y10365042D01*
Y10415658D01*
X11025778Y10506889D02*
X11117009Y10415658D01*
X11025778Y10506889D02*
X11149521Y10630633D01*
X11149521D01*
X11392198Y10387956D01*
X11422766D01*
X11519347Y10484536D01*
X11568126Y10533316D01*
Y10563884D01*
X11441989Y10690021D02*
X11568126Y10563884D01*
X11441989Y10690021D02*
X11565733Y10813765D01*
X11691870Y10687628D01*
X11722438D01*
X11867798Y10832988D01*
Y10863556D01*
X11751684Y10979670D02*
X11867798Y10863556D01*
X11751684Y10979670D02*
Y10999717D01*
X11767883Y11015916D01*
X11767884D01*
X10920833Y10221050D02*
X10967091Y10267309D01*
X11741792Y11042009D02*
X11767233Y11067450D01*
X10936117Y10184150D02*
X10993183Y10241216D01*
X11767884Y11015916D02*
X11782517Y11030550D01*
X12368924D01*
X11767233Y11067450D02*
X12368924D01*
X10989150Y10054150D02*
X11016050Y10027250D01*
X9676676Y10054150D02*
X10989150D01*
X9676676Y10091050D02*
X11004435D01*
X10034290Y9794150D02*
X10334438Y9494003D01*
X9676676Y9794150D02*
X10034290D01*
X10049575Y9831050D02*
X10360530Y9520095D01*
X9676676Y9831050D02*
X10049575D01*
X10334438Y9421807D02*
X10344709Y9411536D01*
X10334438Y9421807D02*
Y9494003D01*
X9604500Y9788500D02*
X9671026D01*
X9596100Y9780100D02*
X9604500Y9788500D01*
X10360530Y9520095D02*
X10432725D01*
X10442997Y9509824D01*
X9596100Y9845100D02*
X9604500Y9836700D01*
X9671026D01*
X9676676Y9831050D01*
X9671026Y9788500D02*
X9676676Y9794150D01*
Y9924150D02*
X10498150D01*
X9676676Y9961050D02*
X10513434D01*
X12368924Y8973150D02*
X12383100Y8958974D01*
Y8949500D02*
Y8958974D01*
Y8949500D02*
X12441000Y8891600D01*
X12446000D01*
X9671026Y9918500D02*
X9676676Y9924150D01*
X9596100Y9910100D02*
X9604500Y9918500D01*
X9671026D01*
X11449150Y8973150D02*
X12368924D01*
X12441000Y9091600D02*
X12446000D01*
X12383100Y9033700D02*
X12441000Y9091600D01*
X12383100Y9024226D02*
Y9033700D01*
X12368924Y9010050D02*
X12383100Y9024226D01*
X9671026Y9966700D02*
X9676676Y9961050D01*
X9596100Y9975100D02*
X9604500Y9966700D01*
X9671026D01*
X11464434Y9010050D02*
X12368924D01*
X12446000Y9091600D02*
X12451000D01*
X12508900Y9024226D02*
Y9033700D01*
X12451000Y9091600D02*
X12508900Y9033700D01*
Y9024226D02*
X12523076Y9010050D01*
X12823814D01*
X12849216Y9035450D01*
X13206525D02*
X13220700Y9049626D01*
X12849216Y9035450D02*
X13206525D01*
X13258600Y9144000D02*
X13271500D01*
X12446000Y8891600D02*
X12451000D01*
X12508900Y8958974D02*
X12523076Y8973150D01*
X12839101D01*
X12864500Y8998550D01*
X12508900Y8949500D02*
Y8958974D01*
X13220700Y8927900D02*
X13258600Y8890000D01*
X12451000Y8891600D02*
X12508900Y8949500D01*
X13258600Y8890000D02*
X13271500D01*
X13220700Y9106100D02*
X13258600Y9144000D01*
X13220700Y9049626D02*
Y9106100D01*
X13206525Y8998550D02*
X13220700Y8984374D01*
Y8927900D02*
Y8984374D01*
X12864500Y8998550D02*
X13206525D01*
X12383100Y10003600D02*
X12441000Y9945700D01*
X12368924Y10027250D02*
X12383100Y10013074D01*
Y10003600D02*
Y10013074D01*
X12441000Y9945700D02*
X12446000D01*
X9671026Y10048500D02*
X9676676Y10054150D01*
X9596100Y10040100D02*
X9604500Y10048500D01*
X9671026D01*
X12441000Y10145700D02*
X12446000D01*
X12383100Y10087800D02*
X12441000Y10145700D01*
X12368924Y10064150D02*
X12383100Y10078326D01*
Y10087800D01*
X9671026Y10096700D02*
X9676676Y10091050D01*
X9596100Y10105100D02*
X9604500Y10096700D01*
X9671026D01*
X13246100Y9931400D02*
X13271500Y9906000D01*
X13231924Y10014550D02*
X13246100Y10000374D01*
Y9931400D02*
Y10000374D01*
X12842867Y10027250D02*
X12855566Y10014550D01*
X13231924D01*
X12523076Y10027250D02*
X12842867D01*
X12446000Y9945700D02*
X12451000D01*
X13246100Y10134600D02*
X13271500Y10160000D01*
X12508900Y10078326D02*
Y10087800D01*
Y10078326D02*
X12523076Y10064150D01*
X12858150D01*
X12451000Y9945700D02*
X12508900Y10003600D01*
X12446000Y10145700D02*
X12451000D01*
X12508900Y10087800D01*
X13231924Y10051450D02*
X13246100Y10065626D01*
X12858150Y10064150D02*
X12870850Y10051450D01*
X13246100Y10065626D02*
Y10134600D01*
X12870850Y10051450D02*
X13231924D01*
X12508900Y10003600D02*
Y10013074D01*
X12523076Y10027250D01*
X12383100Y11006900D02*
X12441000Y10949000D01*
X12446000D01*
X12383100Y11006900D02*
Y11016374D01*
X12368924Y11030550D02*
X12383100Y11016374D01*
X9676676Y10184150D02*
X10936117D01*
X9671026Y10178500D02*
X9676676Y10184150D01*
X9596100Y10170100D02*
X9604500Y10178500D01*
X9671026D01*
X12441000Y11149000D02*
X12446000D01*
X12383100Y11091100D02*
X12441000Y11149000D01*
X12383100Y11081626D02*
Y11091100D01*
X12368924Y11067450D02*
X12383100Y11081626D01*
X9596100Y10235100D02*
X9604500Y10226700D01*
X9671026D01*
X9676676Y10221050D02*
X10920833D01*
X9671026Y10226700D02*
X9676676Y10221050D01*
X12446000Y11149000D02*
X12451000D01*
X12508900Y11091100D01*
Y11081626D02*
Y11091100D01*
Y11081626D02*
X12523076Y11067450D01*
X13257324Y11030550D02*
X13271500Y11016374D01*
X12523076Y11030550D02*
X13257324D01*
X13271500Y11081626D02*
Y11176000D01*
Y10922000D02*
Y11016374D01*
X12451000Y10949000D02*
X12508900Y11006900D01*
Y11016374D01*
X12523076Y11030550D01*
X12446000Y10949000D02*
X12451000D01*
X13257324Y11067450D02*
X13271500Y11081626D01*
X12523076Y11067450D02*
X13257324D01*
X17094843Y9950242D02*
X17181209Y9863875D01*
X17201257D01*
X17224583Y9887201D01*
X17255151D01*
X17400511Y9741841D01*
Y9711273D02*
Y9741841D01*
X17225740Y9536502D02*
X17400511Y9711273D01*
X17225740Y9536502D02*
X17349484Y9412758D01*
X17617043Y9680316D01*
X17647610D01*
X17792970Y9534957D01*
Y9504388D02*
Y9534957D01*
X17525412Y9236830D02*
X17792970Y9504388D01*
X17525412Y9236830D02*
X17649156Y9113086D01*
X17765269Y9229199D01*
X17815884D01*
X17842892Y9202192D01*
X17068750Y9924150D02*
Y9924150D01*
X17068750D01*
X17165926Y9826975D01*
X17216542D01*
X17239867Y9850301D01*
X17363611Y9726557D01*
X17188840Y9551786D02*
X17363611Y9726557D01*
X17188840Y9521217D02*
Y9551786D01*
Y9521217D02*
X17334200Y9375858D01*
X17364767D01*
X17632327Y9643416D01*
X17756070Y9519672D01*
X17488512Y9252114D02*
X17756070Y9519672D01*
X17488512Y9221545D02*
Y9252114D01*
Y9221545D02*
X17633871Y9076186D01*
X17664439D01*
X17780553Y9192299D01*
X17800601D01*
X17816800Y9176100D01*
X17816800Y9176100D02*
X17816800Y9176100D01*
X17084035Y9961050D02*
X17094843Y9950242D01*
X17842892Y9202192D02*
X18035034Y9010050D01*
X17816800Y9176100D02*
X18019749Y8973150D01*
X18790079Y10027250D02*
X18911168D01*
X18754286Y10063042D02*
X18790079Y10027250D01*
X18754286Y10063042D02*
Y10092716D01*
X18579286D02*
X18754286D01*
X18579286Y9848865D02*
Y10092716D01*
X18557671Y9827250D02*
X18579286Y9848865D01*
X18352101Y9827250D02*
X18557671D01*
X18330486Y9848865D02*
X18352101Y9827250D01*
X18330486Y9848865D02*
Y10227250D01*
X18155486D02*
X18330486D01*
X18155486Y9848865D02*
Y10227250D01*
X18133870Y9827250D02*
X18155486Y9848865D01*
X17928300Y9827250D02*
X18133870D01*
X17906685Y9848865D02*
X17928300Y9827250D01*
X17906685Y9848865D02*
Y10227250D01*
X17731685D02*
X17906685D01*
X17731685Y10063042D02*
Y10227250D01*
X17695892Y10027250D02*
X17731685Y10063042D01*
X17657700Y10027250D02*
X17695892D01*
X18805362Y10064150D02*
X18911168D01*
X18791187Y10078326D02*
X18805362Y10064150D01*
X18791187Y10078326D02*
Y10108001D01*
X18769571Y10129617D02*
X18791187Y10108001D01*
X18564001Y10129617D02*
X18769571D01*
X18542386Y10108001D02*
X18564001Y10129617D01*
X18542386Y9864150D02*
Y10108001D01*
X18367386Y9864150D02*
X18542386D01*
X18367386D02*
Y10242535D01*
X18345770Y10264150D02*
X18367386Y10242535D01*
X18140201Y10264150D02*
X18345770D01*
X18118587Y10242535D02*
X18140201Y10264150D01*
X18118587Y9864150D02*
Y10242535D01*
X17943585Y9864150D02*
X18118587D01*
X17943585D02*
Y10242535D01*
X17921970Y10264150D02*
X17943585Y10242535D01*
X17716402Y10264150D02*
X17921970D01*
X17694785Y10242535D02*
X17716402Y10264150D01*
X17694785Y10078326D02*
Y10242535D01*
X17680609Y10064150D02*
X17694785Y10078326D01*
X17657700Y10064150D02*
X17680609D01*
X18911168Y10027250D02*
X18939523D01*
X17586650D02*
X17657700D01*
X18911168Y10064150D02*
X18939523D01*
X17601935D02*
X17657700D01*
X17575035Y10091050D02*
X17601935Y10064150D01*
X17537691Y10267309D02*
X17650710Y10380326D01*
Y10400374D01*
X17559477Y10491605D02*
X17650710Y10400374D01*
X17559477Y10491605D02*
Y10522174D01*
X17704837Y10667533D01*
X17735405D01*
X17735405D02*
X17978082Y10424856D01*
X18101826Y10548600D01*
X17975690Y10674737D02*
X18101826Y10548600D01*
X17975690Y10674737D02*
Y10705305D01*
X18121049Y10850665D01*
X18151617D01*
X18277754Y10724528D01*
X18401498Y10848272D01*
X18285384Y10964385D02*
X18401498Y10848272D01*
X18285384Y10964385D02*
Y11015002D01*
X18312392Y11042009D01*
X17563783Y10241216D02*
X17563783D01*
X17563783D02*
X17687608Y10365042D01*
Y10415658D01*
X17596378Y10506889D02*
X17687608Y10415658D01*
X17596378Y10506889D02*
X17720120Y10630633D01*
X17720120D01*
X17962798Y10387956D01*
X17993365D01*
X18089948Y10484536D01*
X18138725Y10533316D01*
Y10563884D01*
X18012589Y10690021D02*
X18138725Y10563884D01*
X18012589Y10690021D02*
X18136333Y10813765D01*
X18262469Y10687628D01*
X18293037D01*
X18438399Y10832988D01*
Y10863556D01*
X18322284Y10979670D02*
X18438399Y10863556D01*
X18322284Y10979670D02*
Y10999717D01*
X18338484Y11015916D01*
X18338484D01*
X17491434Y10221050D02*
X17537691Y10267309D01*
X18312392Y11042009D02*
X18337833Y11067450D01*
X17506717Y10184150D02*
X17563783Y10241216D01*
X18338484Y11015916D02*
X18353117Y11030550D01*
X18939523D01*
X18337833Y11067450D02*
X18939523D01*
X17559750Y10054150D02*
X17586650Y10027250D01*
X16247276Y10054150D02*
X17559750D01*
X16247276Y10091050D02*
X17575035D01*
X16604890Y9794150D02*
X16905038Y9494003D01*
X16247276Y9794150D02*
X16604890D01*
X16620175Y9831050D02*
X16931129Y9520095D01*
X16247276Y9831050D02*
X16620175D01*
X16905038Y9421807D02*
X16915309Y9411536D01*
X16905038Y9421807D02*
Y9494003D01*
X16175101Y9788500D02*
X16241626D01*
X16166701Y9780100D02*
X16175101Y9788500D01*
X16931129Y9520095D02*
X17003325D01*
X17013597Y9509824D01*
X16166701Y9845100D02*
X16175101Y9836700D01*
X16241626D01*
X16247276Y9831050D01*
X16241626Y9788500D02*
X16247276Y9794150D01*
Y9924150D02*
X17068750D01*
X16247276Y9961050D02*
X17084035D01*
X18939523Y8973150D02*
X18953700Y8958974D01*
Y8949500D02*
Y8958974D01*
Y8949500D02*
X19011600Y8891600D01*
X19016600D01*
X16241626Y9918500D02*
X16247276Y9924150D01*
X16166701Y9910100D02*
X16175101Y9918500D01*
X16241626D01*
X18019749Y8973150D02*
X18939523D01*
X19011600Y9091600D02*
X19016600D01*
X18953700Y9033700D02*
X19011600Y9091600D01*
X18953700Y9024226D02*
Y9033700D01*
X18939523Y9010050D02*
X18953700Y9024226D01*
X16241626Y9966700D02*
X16247276Y9961050D01*
X16166701Y9975100D02*
X16175101Y9966700D01*
X16241626D01*
X18035034Y9010050D02*
X18939523D01*
X19016600Y9091600D02*
X19021600D01*
X19079500Y9024226D02*
Y9033700D01*
X19021600Y9091600D02*
X19079500Y9033700D01*
Y9024226D02*
X19093677Y9010050D01*
X19394415D01*
X19419815Y9035450D01*
X19777124D02*
X19791299Y9049626D01*
X19419815Y9035450D02*
X19777124D01*
X19829201Y9144000D02*
X19842101D01*
X19016600Y8891600D02*
X19021600D01*
X19079500Y8958974D02*
X19093677Y8973150D01*
X19409700D01*
X19435100Y8998550D01*
X19079500Y8949500D02*
Y8958974D01*
X19791299Y8927900D02*
X19829201Y8890000D01*
X19021600Y8891600D02*
X19079500Y8949500D01*
X19829201Y8890000D02*
X19842101D01*
X19791299Y9106100D02*
X19829201Y9144000D01*
X19791299Y9049626D02*
Y9106100D01*
X19777124Y8998550D02*
X19791299Y8984374D01*
Y8927900D02*
Y8984374D01*
X19435100Y8998550D02*
X19777124D01*
X18953700Y10003600D02*
X19011600Y9945700D01*
X18939523Y10027250D02*
X18953700Y10013074D01*
Y10003600D02*
Y10013074D01*
X19011600Y9945700D02*
X19016600D01*
X16241626Y10048500D02*
X16247276Y10054150D01*
X16166701Y10040100D02*
X16175101Y10048500D01*
X16241626D01*
X19011600Y10145700D02*
X19016600D01*
X18953700Y10087800D02*
X19011600Y10145700D01*
X18939523Y10064150D02*
X18953700Y10078326D01*
Y10087800D01*
X16241626Y10096700D02*
X16247276Y10091050D01*
X16166701Y10105100D02*
X16175101Y10096700D01*
X16241626D01*
X19816701Y9931400D02*
X19842101Y9906000D01*
X19802524Y10014550D02*
X19816701Y10000374D01*
Y9931400D02*
Y10000374D01*
X19413466Y10027250D02*
X19426166Y10014550D01*
X19802524D01*
X19093677Y10027250D02*
X19413466D01*
X19016600Y9945700D02*
X19021600D01*
X19816701Y10134600D02*
X19842101Y10160000D01*
X19079500Y10078326D02*
Y10087800D01*
Y10078326D02*
X19093677Y10064150D01*
X19428751D01*
X19021600Y9945700D02*
X19079500Y10003600D01*
X19016600Y10145700D02*
X19021600D01*
X19079500Y10087800D01*
X19802524Y10051450D02*
X19816701Y10065626D01*
X19428751Y10064150D02*
X19441451Y10051450D01*
X19816701Y10065626D02*
Y10134600D01*
X19441451Y10051450D02*
X19802524D01*
X19079500Y10003600D02*
Y10013074D01*
X19093677Y10027250D01*
X18953700Y11006900D02*
X19011600Y10949000D01*
X19016600D01*
X18953700Y11006900D02*
Y11016374D01*
X18939523Y11030550D02*
X18953700Y11016374D01*
X16247276Y10184150D02*
X17506717D01*
X16241626Y10178500D02*
X16247276Y10184150D01*
X16166701Y10170100D02*
X16175101Y10178500D01*
X16241626D01*
X19011600Y11149000D02*
X19016600D01*
X18953700Y11091100D02*
X19011600Y11149000D01*
X18953700Y11081626D02*
Y11091100D01*
X18939523Y11067450D02*
X18953700Y11081626D01*
X16166701Y10235100D02*
X16175101Y10226700D01*
X16241626D01*
X16247276Y10221050D02*
X17491434D01*
X16241626Y10226700D02*
X16247276Y10221050D01*
X19016600Y11149000D02*
X19021600D01*
X19079500Y11091100D01*
Y11081626D02*
Y11091100D01*
Y11081626D02*
X19093677Y11067450D01*
X19827924Y11030550D02*
X19842101Y11016374D01*
X19093677Y11030550D02*
X19827924D01*
X19842101Y11081626D02*
Y11176000D01*
Y10922000D02*
Y11016374D01*
X19021600Y10949000D02*
X19079500Y11006900D01*
Y11016374D01*
X19093677Y11030550D01*
X19016600Y10949000D02*
X19021600D01*
X19827924Y11067450D02*
X19842101Y11081626D01*
X19093677Y11067450D02*
X19827924D01*
X10524242Y14450742D02*
X10610609Y14364375D01*
X10630657D01*
X10653983Y14387701D01*
X10684552D01*
X10829911Y14242342D01*
Y14211774D02*
Y14242342D01*
X10655140Y14037003D02*
X10829911Y14211774D01*
X10655140Y14037003D02*
X10778884Y13913258D01*
X11046442Y14180817D01*
X11077011D01*
X11222370Y14035457D01*
Y14004887D02*
Y14035457D01*
X10954812Y13737331D02*
X11222370Y14004887D01*
X10954812Y13737331D02*
X11078556Y13613586D01*
X11194669Y13729700D01*
X11245285D01*
X11272292Y13702692D01*
X10498150Y14424651D02*
Y14424651D01*
X10498150D01*
X10595325Y14327475D01*
X10645942D01*
X10669267Y14350801D01*
X10793011Y14227057D01*
X10618240Y14052286D02*
X10793011Y14227057D01*
X10618240Y14021716D02*
Y14052286D01*
Y14021716D02*
X10763600Y13876358D01*
X10794168D01*
X11061727Y14143916D01*
X11185470Y14020172D01*
X10917912Y13752614D02*
X11185470Y14020172D01*
X10917912Y13722044D02*
Y13752614D01*
Y13722044D02*
X11063271Y13576686D01*
X11093840D01*
X11209953Y13692799D01*
X11230001D01*
X11246200Y13676601D01*
X11246200Y13676601D02*
X11246200Y13676601D01*
X10513434Y14461549D02*
X10524242Y14450742D01*
X11272292Y13702692D02*
X11464434Y13510550D01*
X11246200Y13676601D02*
X11449150Y13473650D01*
X12219478Y14527750D02*
X12340568D01*
X12183686Y14563542D02*
X12219478Y14527750D01*
X12183686Y14563542D02*
Y14593216D01*
X12008686D02*
X12183686D01*
X12008686Y14349367D02*
Y14593216D01*
X11987071Y14327750D02*
X12008686Y14349367D01*
X11781501Y14327750D02*
X11987071D01*
X11759886Y14349367D02*
X11781501Y14327750D01*
X11759886Y14349367D02*
Y14727750D01*
X11584886D02*
X11759886D01*
X11584886Y14349367D02*
Y14727750D01*
X11563270Y14327750D02*
X11584886Y14349367D01*
X11357701Y14327750D02*
X11563270D01*
X11336085Y14349367D02*
X11357701Y14327750D01*
X11336085Y14349367D02*
Y14727750D01*
X11161085D02*
X11336085D01*
X11161085Y14563542D02*
Y14727750D01*
X11125293Y14527750D02*
X11161085Y14563542D01*
X11087100Y14527750D02*
X11125293D01*
X12234762Y14564650D02*
X12340568D01*
X12220586Y14578825D02*
X12234762Y14564650D01*
X12220586Y14578825D02*
Y14608501D01*
X12198971Y14630116D02*
X12220586Y14608501D01*
X11993402Y14630116D02*
X12198971D01*
X11971786Y14608501D02*
X11993402Y14630116D01*
X11971786Y14364650D02*
Y14608501D01*
X11796786Y14364650D02*
X11971786D01*
X11796786D02*
Y14743034D01*
X11775170Y14764650D02*
X11796786Y14743034D01*
X11569601Y14764650D02*
X11775170D01*
X11547986Y14743034D02*
X11569601Y14764650D01*
X11547986Y14364650D02*
Y14743034D01*
X11372985Y14364650D02*
X11547986D01*
X11372985D02*
Y14743034D01*
X11351370Y14764650D02*
X11372985Y14743034D01*
X11145801Y14764650D02*
X11351370D01*
X11124185Y14743034D02*
X11145801Y14764650D01*
X11124185Y14578825D02*
Y14743034D01*
X11110009Y14564650D02*
X11124185Y14578825D01*
X11087100Y14564650D02*
X11110009D01*
X12340568Y14527750D02*
X12368924D01*
X11016050D02*
X11087100D01*
X12340568Y14564650D02*
X12368924D01*
X11031335D02*
X11087100D01*
X11004435Y14591550D02*
X11031335Y14564650D01*
X10967091Y14767809D02*
X11080109Y14880826D01*
Y14900874D01*
X10988877Y14992105D02*
X11080109Y14900874D01*
X10988877Y14992105D02*
Y15022675D01*
X11134237Y15168033D01*
X11164805D01*
X11164805D02*
X11407482Y14925356D01*
X11531226Y15049100D01*
X11405089Y15175237D02*
X11531226Y15049100D01*
X11405089Y15175237D02*
Y15205806D01*
X11550449Y15351164D01*
X11581017D01*
X11707154Y15225027D01*
X11830898Y15348772D01*
X11714784Y15464886D02*
X11830898Y15348772D01*
X11714784Y15464886D02*
Y15515501D01*
X11741792Y15542509D01*
X10993183Y14741716D02*
X10993183D01*
X10993183D02*
X11117009Y14865543D01*
Y14916158D01*
X11025778Y15007388D02*
X11117009Y14916158D01*
X11025778Y15007388D02*
X11149521Y15131133D01*
X11149521D01*
X11392198Y14888457D01*
X11422766D01*
X11519347Y14985036D01*
X11568126Y15033817D01*
Y15064384D01*
X11441989Y15190521D02*
X11568126Y15064384D01*
X11441989Y15190521D02*
X11565733Y15314265D01*
X11691870Y15188129D01*
X11722438D01*
X11867798Y15333488D01*
Y15364056D01*
X11751684Y15480170D02*
X11867798Y15364056D01*
X11751684Y15480170D02*
Y15500217D01*
X11767883Y15516417D01*
X11767884D01*
X10920833Y14721550D02*
X10967091Y14767809D01*
X11741792Y15542509D02*
X11767233Y15567950D01*
X10936117Y14684650D02*
X10993183Y14741716D01*
X11767884Y15516417D02*
X11782517Y15531050D01*
X12368924D01*
X11767233Y15567950D02*
X12368924D01*
X10989150Y14554649D02*
X11016050Y14527750D01*
X9676676Y14554649D02*
X10989150D01*
X9676676Y14591550D02*
X11004435D01*
X10034290Y14294650D02*
X10334438Y13994502D01*
X9676676Y14294650D02*
X10034290D01*
X10049575Y14331551D02*
X10360530Y14020595D01*
X9676676Y14331551D02*
X10049575D01*
X10334438Y13922307D02*
X10344709Y13912036D01*
X10334438Y13922307D02*
Y13994502D01*
X9604500Y14289000D02*
X9671026D01*
X9596100Y14280600D02*
X9604500Y14289000D01*
X10360530Y14020595D02*
X10432725D01*
X10442997Y14010324D01*
X9596100Y14345599D02*
X9604500Y14337199D01*
X9671026D01*
X9676676Y14331551D01*
X9671026Y14289000D02*
X9676676Y14294650D01*
Y14424651D02*
X10498150D01*
X9676676Y14461549D02*
X10513434D01*
X12368924Y13473650D02*
X12383100Y13459474D01*
Y13450000D02*
Y13459474D01*
Y13450000D02*
X12441000Y13392101D01*
X12446000D01*
X9671026Y14419000D02*
X9676676Y14424651D01*
X9596100Y14410600D02*
X9604500Y14419000D01*
X9671026D01*
X11449150Y13473650D02*
X12368924D01*
X12441000Y13592101D02*
X12446000D01*
X12383100Y13534200D02*
X12441000Y13592101D01*
X12383100Y13524725D02*
Y13534200D01*
X12368924Y13510550D02*
X12383100Y13524725D01*
X9671026Y14467200D02*
X9676676Y14461549D01*
X9596100Y14475600D02*
X9604500Y14467200D01*
X9671026D01*
X11464434Y13510550D02*
X12368924D01*
X12446000Y13592101D02*
X12451000D01*
X12508900Y13524725D02*
Y13534200D01*
X12451000Y13592101D02*
X12508900Y13534200D01*
Y13524725D02*
X12523076Y13510550D01*
X12823814D01*
X12849216Y13535950D01*
X13206525D02*
X13220700Y13550127D01*
X12849216Y13535950D02*
X13206525D01*
X13258600Y13644501D02*
X13271500D01*
X12446000Y13392101D02*
X12451000D01*
X12508900Y13459474D02*
X12523076Y13473650D01*
X12839101D01*
X12864500Y13499049D01*
X12508900Y13450000D02*
Y13459474D01*
X13220700Y13428400D02*
X13258600Y13390500D01*
X12451000Y13392101D02*
X12508900Y13450000D01*
X13258600Y13390500D02*
X13271500D01*
X13220700Y13606599D02*
X13258600Y13644501D01*
X13220700Y13550127D02*
Y13606599D01*
X13206525Y13499049D02*
X13220700Y13484874D01*
Y13428400D02*
Y13484874D01*
X12864500Y13499049D02*
X13206525D01*
X12383100Y14504100D02*
X12441000Y14446201D01*
X12368924Y14527750D02*
X12383100Y14513574D01*
Y14504100D02*
Y14513574D01*
X12441000Y14446201D02*
X12446000D01*
X9671026Y14549001D02*
X9676676Y14554649D01*
X9596100Y14540601D02*
X9604500Y14549001D01*
X9671026D01*
X12441000Y14646201D02*
X12446000D01*
X12383100Y14588300D02*
X12441000Y14646201D01*
X12368924Y14564650D02*
X12383100Y14578825D01*
Y14588300D01*
X9671026Y14597200D02*
X9676676Y14591550D01*
X9596100Y14605600D02*
X9604500Y14597200D01*
X9671026D01*
X13246100Y14431900D02*
X13271500Y14406500D01*
X13231924Y14515050D02*
X13246100Y14500874D01*
Y14431900D02*
Y14500874D01*
X12842867Y14527750D02*
X12855566Y14515050D01*
X13231924D01*
X12523076Y14527750D02*
X12842867D01*
X12446000Y14446201D02*
X12451000D01*
X13246100Y14635100D02*
X13271500Y14660500D01*
X12508900Y14578825D02*
Y14588300D01*
Y14578825D02*
X12523076Y14564650D01*
X12858150D01*
X12451000Y14446201D02*
X12508900Y14504100D01*
X12446000Y14646201D02*
X12451000D01*
X12508900Y14588300D01*
X13231924Y14551950D02*
X13246100Y14566125D01*
X12858150Y14564650D02*
X12870850Y14551950D01*
X13246100Y14566125D02*
Y14635100D01*
X12870850Y14551950D02*
X13231924D01*
X12508900Y14504100D02*
Y14513574D01*
X12523076Y14527750D01*
X12383100Y15507401D02*
X12441000Y15449500D01*
X12446000D01*
X12383100Y15507401D02*
Y15516875D01*
X12368924Y15531050D02*
X12383100Y15516875D01*
X9676676Y14684650D02*
X10936117D01*
X9671026Y14678999D02*
X9676676Y14684650D01*
X9596100Y14670599D02*
X9604500Y14678999D01*
X9671026D01*
X12441000Y15649500D02*
X12446000D01*
X12383100Y15591600D02*
X12441000Y15649500D01*
X12383100Y15582126D02*
Y15591600D01*
X12368924Y15567950D02*
X12383100Y15582126D01*
X9596100Y14735600D02*
X9604500Y14727200D01*
X9671026D01*
X9676676Y14721550D02*
X10920833D01*
X9671026Y14727200D02*
X9676676Y14721550D01*
X12446000Y15649500D02*
X12451000D01*
X12508900Y15591600D01*
Y15582126D02*
Y15591600D01*
Y15582126D02*
X12523076Y15567950D01*
X13257324Y15531050D02*
X13271500Y15516875D01*
X12523076Y15531050D02*
X13257324D01*
X13271500Y15582126D02*
Y15676500D01*
Y15422501D02*
Y15516875D01*
X12451000Y15449500D02*
X12508900Y15507401D01*
Y15516875D01*
X12523076Y15531050D01*
X12446000Y15449500D02*
X12451000D01*
X13257324Y15567950D02*
X13271500Y15582126D01*
X12523076Y15567950D02*
X13257324D01*
X17094843Y14450742D02*
X17181209Y14364375D01*
X17201257D01*
X17224583Y14387701D01*
X17255151D01*
X17400511Y14242342D01*
Y14211774D02*
Y14242342D01*
X17225740Y14037003D02*
X17400511Y14211774D01*
X17225740Y14037003D02*
X17349484Y13913258D01*
X17617043Y14180817D01*
X17647610D01*
X17792970Y14035457D01*
Y14004887D02*
Y14035457D01*
X17525412Y13737331D02*
X17792970Y14004887D01*
X17525412Y13737331D02*
X17649156Y13613586D01*
X17765269Y13729700D01*
X17815884D01*
X17842892Y13702692D01*
X17068750Y14424651D02*
Y14424651D01*
X17068750D01*
X17165926Y14327475D01*
X17216542D01*
X17239867Y14350801D01*
X17363611Y14227057D01*
X17188840Y14052286D02*
X17363611Y14227057D01*
X17188840Y14021716D02*
Y14052286D01*
Y14021716D02*
X17334200Y13876358D01*
X17364767D01*
X17632327Y14143916D01*
X17756070Y14020172D01*
X17488512Y13752614D02*
X17756070Y14020172D01*
X17488512Y13722044D02*
Y13752614D01*
Y13722044D02*
X17633871Y13576686D01*
X17664439D01*
X17780553Y13692799D01*
X17800601D01*
X17816800Y13676601D01*
X17816800Y13676601D02*
X17816800Y13676601D01*
X17084035Y14461549D02*
X17094843Y14450742D01*
X17842892Y13702692D02*
X18035034Y13510550D01*
X17816800Y13676601D02*
X18019749Y13473650D01*
X18790079Y14527750D02*
X18911168D01*
X18754286Y14563542D02*
X18790079Y14527750D01*
X18754286Y14563542D02*
Y14593216D01*
X18579286D02*
X18754286D01*
X18579286Y14349367D02*
Y14593216D01*
X18557671Y14327750D02*
X18579286Y14349367D01*
X18352101Y14327750D02*
X18557671D01*
X18330486Y14349367D02*
X18352101Y14327750D01*
X18330486Y14349367D02*
Y14727750D01*
X18155486D02*
X18330486D01*
X18155486Y14349367D02*
Y14727750D01*
X18133870Y14327750D02*
X18155486Y14349367D01*
X17928300Y14327750D02*
X18133870D01*
X17906685Y14349367D02*
X17928300Y14327750D01*
X17906685Y14349367D02*
Y14727750D01*
X17731685D02*
X17906685D01*
X17731685Y14563542D02*
Y14727750D01*
X17695892Y14527750D02*
X17731685Y14563542D01*
X17657700Y14527750D02*
X17695892D01*
X18805362Y14564650D02*
X18911168D01*
X18791187Y14578825D02*
X18805362Y14564650D01*
X18791187Y14578825D02*
Y14608501D01*
X18769571Y14630116D02*
X18791187Y14608501D01*
X18564001Y14630116D02*
X18769571D01*
X18542386Y14608501D02*
X18564001Y14630116D01*
X18542386Y14364650D02*
Y14608501D01*
X18367386Y14364650D02*
X18542386D01*
X18367386D02*
Y14743034D01*
X18345770Y14764650D02*
X18367386Y14743034D01*
X18140201Y14764650D02*
X18345770D01*
X18118587Y14743034D02*
X18140201Y14764650D01*
X18118587Y14364650D02*
Y14743034D01*
X17943585Y14364650D02*
X18118587D01*
X17943585D02*
Y14743034D01*
X17921970Y14764650D02*
X17943585Y14743034D01*
X17716402Y14764650D02*
X17921970D01*
X17694785Y14743034D02*
X17716402Y14764650D01*
X17694785Y14578825D02*
Y14743034D01*
X17680609Y14564650D02*
X17694785Y14578825D01*
X17657700Y14564650D02*
X17680609D01*
X18911168Y14527750D02*
X18939523D01*
X17586650D02*
X17657700D01*
X18911168Y14564650D02*
X18939523D01*
X17601935D02*
X17657700D01*
X17575035Y14591550D02*
X17601935Y14564650D01*
X17537691Y14767809D02*
X17650710Y14880826D01*
Y14900874D01*
X17559477Y14992105D02*
X17650710Y14900874D01*
X17559477Y14992105D02*
Y15022675D01*
X17704837Y15168033D01*
X17735405D01*
X17735405D02*
X17978082Y14925356D01*
X18101826Y15049100D01*
X17975690Y15175237D02*
X18101826Y15049100D01*
X17975690Y15175237D02*
Y15205806D01*
X18121049Y15351164D01*
X18151617D01*
X18277754Y15225027D01*
X18401498Y15348772D01*
X18285384Y15464886D02*
X18401498Y15348772D01*
X18285384Y15464886D02*
Y15515501D01*
X18312392Y15542509D01*
X17563783Y14741716D02*
X17563783D01*
X17563783D02*
X17687608Y14865543D01*
Y14916158D01*
X17596378Y15007388D02*
X17687608Y14916158D01*
X17596378Y15007388D02*
X17720120Y15131133D01*
X17720120D01*
X17962798Y14888457D01*
X17993365D01*
X18089948Y14985036D01*
X18138725Y15033817D01*
Y15064384D01*
X18012589Y15190521D02*
X18138725Y15064384D01*
X18012589Y15190521D02*
X18136333Y15314265D01*
X18262469Y15188129D01*
X18293037D01*
X18438399Y15333488D01*
Y15364056D01*
X18322284Y15480170D02*
X18438399Y15364056D01*
X18322284Y15480170D02*
Y15500217D01*
X18338484Y15516417D01*
X18338484D01*
X17491434Y14721550D02*
X17537691Y14767809D01*
X18312392Y15542509D02*
X18337833Y15567950D01*
X17506717Y14684650D02*
X17563783Y14741716D01*
X18338484Y15516417D02*
X18353117Y15531050D01*
X18939523D01*
X18337833Y15567950D02*
X18939523D01*
X17559750Y14554649D02*
X17586650Y14527750D01*
X16247276Y14554649D02*
X17559750D01*
X16247276Y14591550D02*
X17575035D01*
X16604890Y14294650D02*
X16905038Y13994502D01*
X16247276Y14294650D02*
X16604890D01*
X16620175Y14331551D02*
X16931129Y14020595D01*
X16247276Y14331551D02*
X16620175D01*
X16905038Y13922307D02*
X16915309Y13912036D01*
X16905038Y13922307D02*
Y13994502D01*
X16175101Y14289000D02*
X16241626D01*
X16166701Y14280600D02*
X16175101Y14289000D01*
X16931129Y14020595D02*
X17003325D01*
X17013597Y14010324D01*
X16166701Y14345599D02*
X16175101Y14337199D01*
X16241626D01*
X16247276Y14331551D01*
X16241626Y14289000D02*
X16247276Y14294650D01*
Y14424651D02*
X17068750D01*
X16247276Y14461549D02*
X17084035D01*
X18939523Y13473650D02*
X18953700Y13459474D01*
Y13450000D02*
Y13459474D01*
Y13450000D02*
X19011600Y13392101D01*
X19016600D01*
X16241626Y14419000D02*
X16247276Y14424651D01*
X16166701Y14410600D02*
X16175101Y14419000D01*
X16241626D01*
X18019749Y13473650D02*
X18939523D01*
X19011600Y13592101D02*
X19016600D01*
X18953700Y13534200D02*
X19011600Y13592101D01*
X18953700Y13524725D02*
Y13534200D01*
X18939523Y13510550D02*
X18953700Y13524725D01*
X16241626Y14467200D02*
X16247276Y14461549D01*
X16166701Y14475600D02*
X16175101Y14467200D01*
X16241626D01*
X18035034Y13510550D02*
X18939523D01*
X19016600Y13592101D02*
X19021600D01*
X19079500Y13524725D02*
Y13534200D01*
X19021600Y13592101D02*
X19079500Y13534200D01*
Y13524725D02*
X19093677Y13510550D01*
X19394415D01*
X19419815Y13535950D01*
X19777124D02*
X19791299Y13550127D01*
X19419815Y13535950D02*
X19777124D01*
X19829201Y13644501D02*
X19842101D01*
X19016600Y13392101D02*
X19021600D01*
X19079500Y13459474D02*
X19093677Y13473650D01*
X19409700D01*
X19435100Y13499049D01*
X19079500Y13450000D02*
Y13459474D01*
X19791299Y13428400D02*
X19829201Y13390500D01*
X19021600Y13392101D02*
X19079500Y13450000D01*
X19829201Y13390500D02*
X19842101D01*
X19791299Y13606599D02*
X19829201Y13644501D01*
X19791299Y13550127D02*
Y13606599D01*
X19777124Y13499049D02*
X19791299Y13484874D01*
Y13428400D02*
Y13484874D01*
X19435100Y13499049D02*
X19777124D01*
X18953700Y14504100D02*
X19011600Y14446201D01*
X18939523Y14527750D02*
X18953700Y14513574D01*
Y14504100D02*
Y14513574D01*
X19011600Y14446201D02*
X19016600D01*
X16241626Y14549001D02*
X16247276Y14554649D01*
X16166701Y14540601D02*
X16175101Y14549001D01*
X16241626D01*
X19011600Y14646201D02*
X19016600D01*
X18953700Y14588300D02*
X19011600Y14646201D01*
X18939523Y14564650D02*
X18953700Y14578825D01*
Y14588300D01*
X16241626Y14597200D02*
X16247276Y14591550D01*
X16166701Y14605600D02*
X16175101Y14597200D01*
X16241626D01*
X19816701Y14431900D02*
X19842101Y14406500D01*
X19802524Y14515050D02*
X19816701Y14500874D01*
Y14431900D02*
Y14500874D01*
X19413466Y14527750D02*
X19426166Y14515050D01*
X19802524D01*
X19093677Y14527750D02*
X19413466D01*
X19016600Y14446201D02*
X19021600D01*
X19816701Y14635100D02*
X19842101Y14660500D01*
X19079500Y14578825D02*
Y14588300D01*
Y14578825D02*
X19093677Y14564650D01*
X19428751D01*
X19021600Y14446201D02*
X19079500Y14504100D01*
X19016600Y14646201D02*
X19021600D01*
X19079500Y14588300D01*
X19802524Y14551950D02*
X19816701Y14566125D01*
X19428751Y14564650D02*
X19441451Y14551950D01*
X19816701Y14566125D02*
Y14635100D01*
X19441451Y14551950D02*
X19802524D01*
X19079500Y14504100D02*
Y14513574D01*
X19093677Y14527750D01*
X18953700Y15507401D02*
X19011600Y15449500D01*
X19016600D01*
X18953700Y15507401D02*
Y15516875D01*
X18939523Y15531050D02*
X18953700Y15516875D01*
X16247276Y14684650D02*
X17506717D01*
X16241626Y14678999D02*
X16247276Y14684650D01*
X16166701Y14670599D02*
X16175101Y14678999D01*
X16241626D01*
X19011600Y15649500D02*
X19016600D01*
X18953700Y15591600D02*
X19011600Y15649500D01*
X18953700Y15582126D02*
Y15591600D01*
X18939523Y15567950D02*
X18953700Y15582126D01*
X16166701Y14735600D02*
X16175101Y14727200D01*
X16241626D01*
X16247276Y14721550D02*
X17491434D01*
X16241626Y14727200D02*
X16247276Y14721550D01*
X19016600Y15649500D02*
X19021600D01*
X19079500Y15591600D01*
Y15582126D02*
Y15591600D01*
Y15582126D02*
X19093677Y15567950D01*
X19827924Y15531050D02*
X19842101Y15516875D01*
X19093677Y15531050D02*
X19827924D01*
X19842101Y15582126D02*
Y15676500D01*
Y15422501D02*
Y15516875D01*
X19021600Y15449500D02*
X19079500Y15507401D01*
Y15516875D01*
X19093677Y15531050D01*
X19016600Y15449500D02*
X19021600D01*
X19827924Y15567950D02*
X19842101Y15582126D01*
X19093677Y15567950D02*
X19827924D01*
X10524242Y18951242D02*
X10610609Y18864874D01*
X10630657D01*
X10653983Y18888200D01*
X10684552D01*
X10829911Y18742841D01*
Y18712273D02*
Y18742841D01*
X10655140Y18537502D02*
X10829911Y18712273D01*
X10655140Y18537502D02*
X10778884Y18413757D01*
X11046442Y18681316D01*
X11077011D01*
X11222370Y18535957D01*
Y18505388D02*
Y18535957D01*
X10954812Y18237830D02*
X11222370Y18505388D01*
X10954812Y18237830D02*
X11078556Y18114085D01*
X11194669Y18230199D01*
X11245285D01*
X11272292Y18203192D01*
X10498150Y18925150D02*
Y18925150D01*
X10498150D01*
X10595325Y18827975D01*
X10645942D01*
X10669267Y18851302D01*
X10793011Y18727557D01*
X10618240Y18552786D02*
X10793011Y18727557D01*
X10618240Y18522217D02*
Y18552786D01*
Y18522217D02*
X10763600Y18376859D01*
X10794168D01*
X11061727Y18644415D01*
X11185470Y18520673D01*
X10917912Y18253114D02*
X11185470Y18520673D01*
X10917912Y18222545D02*
Y18253114D01*
Y18222545D02*
X11063271Y18077187D01*
X11093840D01*
X11209953Y18193298D01*
X11230001D01*
X11246200Y18177100D01*
X11246200Y18177100D02*
X11246200Y18177100D01*
X10513434Y18962050D02*
X10524242Y18951242D01*
X11272292Y18203192D02*
X11464434Y18011050D01*
X11246200Y18177100D02*
X11449150Y17974150D01*
X12219478Y19028250D02*
X12340568D01*
X12183686Y19064043D02*
X12219478Y19028250D01*
X12183686Y19064043D02*
Y19093716D01*
X12008686D02*
X12183686D01*
X12008686Y18849866D02*
Y19093716D01*
X11987071Y18828250D02*
X12008686Y18849866D01*
X11781501Y18828250D02*
X11987071D01*
X11759886Y18849866D02*
X11781501Y18828250D01*
X11759886Y18849866D02*
Y19228250D01*
X11584886D02*
X11759886D01*
X11584886Y18849866D02*
Y19228250D01*
X11563270Y18828250D02*
X11584886Y18849866D01*
X11357701Y18828250D02*
X11563270D01*
X11336085Y18849866D02*
X11357701Y18828250D01*
X11336085Y18849866D02*
Y19228250D01*
X11161085D02*
X11336085D01*
X11161085Y19064043D02*
Y19228250D01*
X11125293Y19028250D02*
X11161085Y19064043D01*
X11087100Y19028250D02*
X11125293D01*
X12234762Y19065150D02*
X12340568D01*
X12220586Y19079326D02*
X12234762Y19065150D01*
X12220586Y19079326D02*
Y19109001D01*
X12198971Y19130617D02*
X12220586Y19109001D01*
X11993402Y19130617D02*
X12198971D01*
X11971786Y19109001D02*
X11993402Y19130617D01*
X11971786Y18865150D02*
Y19109001D01*
X11796786Y18865150D02*
X11971786D01*
X11796786D02*
Y19243535D01*
X11775170Y19265150D02*
X11796786Y19243535D01*
X11569601Y19265150D02*
X11775170D01*
X11547986Y19243535D02*
X11569601Y19265150D01*
X11547986Y18865150D02*
Y19243535D01*
X11372985Y18865150D02*
X11547986D01*
X11372985D02*
Y19243535D01*
X11351370Y19265150D02*
X11372985Y19243535D01*
X11145801Y19265150D02*
X11351370D01*
X11124185Y19243535D02*
X11145801Y19265150D01*
X11124185Y19079326D02*
Y19243535D01*
X11110009Y19065150D02*
X11124185Y19079326D01*
X11087100Y19065150D02*
X11110009D01*
X12340568Y19028250D02*
X12368924D01*
X11016050D02*
X11087100D01*
X12340568Y19065150D02*
X12368924D01*
X11031335D02*
X11087100D01*
X11004435Y19092050D02*
X11031335Y19065150D01*
X10967091Y19268309D02*
X11080109Y19381326D01*
Y19401373D01*
X10988877Y19492606D02*
X11080109Y19401373D01*
X10988877Y19492606D02*
Y19523174D01*
X11134237Y19668533D01*
X11164805D01*
X11164805D02*
X11407482Y19425858D01*
X11531226Y19549600D01*
X11405089Y19675737D02*
X11531226Y19549600D01*
X11405089Y19675737D02*
Y19706306D01*
X11550449Y19851665D01*
X11581017D01*
X11707154Y19725528D01*
X11830898Y19849272D01*
X11714784Y19965385D02*
X11830898Y19849272D01*
X11714784Y19965385D02*
Y20016002D01*
X11741792Y20043008D01*
X10993183Y19242216D02*
X10993183D01*
X10993183D02*
X11117009Y19366042D01*
Y19416658D01*
X11025778Y19507889D02*
X11117009Y19416658D01*
X11025778Y19507889D02*
X11149521Y19631633D01*
X11149521D01*
X11392198Y19388956D01*
X11422766D01*
X11519347Y19485536D01*
X11568126Y19534315D01*
Y19564883D01*
X11441989Y19691022D02*
X11568126Y19564883D01*
X11441989Y19691022D02*
X11565733Y19814764D01*
X11691870Y19688628D01*
X11722438D01*
X11867798Y19833987D01*
Y19864555D01*
X11751684Y19980670D02*
X11867798Y19864555D01*
X11751684Y19980670D02*
Y20000717D01*
X11767883Y20016917D01*
X11767884D01*
X10920833Y19222050D02*
X10967091Y19268309D01*
X11741792Y20043008D02*
X11767233Y20068449D01*
X10936117Y19185150D02*
X10993183Y19242216D01*
X11767884Y20016917D02*
X11782517Y20031551D01*
X12368924D01*
X11767233Y20068449D02*
X12368924D01*
X10989150Y19055150D02*
X11016050Y19028250D01*
X9676676Y19055150D02*
X10989150D01*
X9676676Y19092050D02*
X11004435D01*
X10034290Y18795151D02*
X10334438Y18495003D01*
X9676676Y18795151D02*
X10034290D01*
X10049575Y18832050D02*
X10360530Y18521095D01*
X9676676Y18832050D02*
X10049575D01*
X10334438Y18422807D02*
X10344709Y18412537D01*
X10334438Y18422807D02*
Y18495003D01*
X9604500Y18789500D02*
X9671026D01*
X9596100Y18781100D02*
X9604500Y18789500D01*
X10360530Y18521095D02*
X10432725D01*
X10442997Y18510825D01*
X9596100Y18846100D02*
X9604500Y18837700D01*
X9671026D01*
X9676676Y18832050D01*
X9671026Y18789500D02*
X9676676Y18795151D01*
Y18925150D02*
X10498150D01*
X9676676Y18962050D02*
X10513434D01*
X12368924Y17974150D02*
X12383100Y17959975D01*
Y17950500D02*
Y17959975D01*
Y17950500D02*
X12441000Y17892599D01*
X12446000D01*
X9671026Y18919501D02*
X9676676Y18925150D01*
X9596100Y18911099D02*
X9604500Y18919501D01*
X9671026D01*
X11449150Y17974150D02*
X12368924D01*
X12441000Y18092599D02*
X12446000D01*
X12383100Y18034700D02*
X12441000Y18092599D01*
X12383100Y18025226D02*
Y18034700D01*
X12368924Y18011050D02*
X12383100Y18025226D01*
X9671026Y18967700D02*
X9676676Y18962050D01*
X9596100Y18976100D02*
X9604500Y18967700D01*
X9671026D01*
X11464434Y18011050D02*
X12368924D01*
X12446000Y18092599D02*
X12451000D01*
X12508900Y18025226D02*
Y18034700D01*
X12451000Y18092599D02*
X12508900Y18034700D01*
Y18025226D02*
X12523076Y18011050D01*
X12823814D01*
X12849216Y18036450D01*
X13206525D02*
X13220700Y18050626D01*
X12849216Y18036450D02*
X13206525D01*
X13258600Y18145000D02*
X13271500D01*
X12446000Y17892599D02*
X12451000D01*
X12508900Y17959975D02*
X12523076Y17974150D01*
X12839101D01*
X12864500Y17999550D01*
X12508900Y17950500D02*
Y17959975D01*
X13220700Y17928900D02*
X13258600Y17891000D01*
X12451000Y17892599D02*
X12508900Y17950500D01*
X13258600Y17891000D02*
X13271500D01*
X13220700Y18107100D02*
X13258600Y18145000D01*
X13220700Y18050626D02*
Y18107100D01*
X13206525Y17999550D02*
X13220700Y17985374D01*
Y17928900D02*
Y17985374D01*
X12864500Y17999550D02*
X13206525D01*
X12383100Y19004601D02*
X12441000Y18946700D01*
X12368924Y19028250D02*
X12383100Y19014075D01*
Y19004601D02*
Y19014075D01*
X12441000Y18946700D02*
X12446000D01*
X9671026Y19049500D02*
X9676676Y19055150D01*
X9596100Y19041100D02*
X9604500Y19049500D01*
X9671026D01*
X12441000Y19146700D02*
X12446000D01*
X12383100Y19088800D02*
X12441000Y19146700D01*
X12368924Y19065150D02*
X12383100Y19079326D01*
Y19088800D01*
X9671026Y19097701D02*
X9676676Y19092050D01*
X9596100Y19106100D02*
X9604500Y19097701D01*
X9671026D01*
X13246100Y18932401D02*
X13271500Y18907001D01*
X13231924Y19015550D02*
X13246100Y19001373D01*
Y18932401D02*
Y19001373D01*
X12842867Y19028250D02*
X12855566Y19015550D01*
X13231924D01*
X12523076Y19028250D02*
X12842867D01*
X12446000Y18946700D02*
X12451000D01*
X13246100Y19135600D02*
X13271500Y19161000D01*
X12508900Y19079326D02*
Y19088800D01*
Y19079326D02*
X12523076Y19065150D01*
X12858150D01*
X12451000Y18946700D02*
X12508900Y19004601D01*
X12446000Y19146700D02*
X12451000D01*
X12508900Y19088800D01*
X13231924Y19052451D02*
X13246100Y19066626D01*
X12858150Y19065150D02*
X12870850Y19052451D01*
X13246100Y19066626D02*
Y19135600D01*
X12870850Y19052451D02*
X13231924D01*
X12508900Y19004601D02*
Y19014075D01*
X12523076Y19028250D01*
X12383100Y20007899D02*
X12441000Y19950000D01*
X12446000D01*
X12383100Y20007899D02*
Y20017374D01*
X12368924Y20031551D02*
X12383100Y20017374D01*
X9676676Y19185150D02*
X10936117D01*
X9671026Y19179500D02*
X9676676Y19185150D01*
X9596100Y19171100D02*
X9604500Y19179500D01*
X9671026D01*
X12441000Y20150000D02*
X12446000D01*
X12383100Y20092101D02*
X12441000Y20150000D01*
X12383100Y20082626D02*
Y20092101D01*
X12368924Y20068449D02*
X12383100Y20082626D01*
X9596100Y19236099D02*
X9604500Y19227699D01*
X9671026D01*
X9676676Y19222050D02*
X10920833D01*
X9671026Y19227699D02*
X9676676Y19222050D01*
X12446000Y20150000D02*
X12451000D01*
X12508900Y20092101D01*
Y20082626D02*
Y20092101D01*
Y20082626D02*
X12523076Y20068449D01*
X13257324Y20031551D02*
X13271500Y20017374D01*
X12523076Y20031551D02*
X13257324D01*
X13271500Y20082626D02*
Y20177000D01*
Y19923000D02*
Y20017374D01*
X12451000Y19950000D02*
X12508900Y20007899D01*
Y20017374D01*
X12523076Y20031551D01*
X12446000Y19950000D02*
X12451000D01*
X13257324Y20068449D02*
X13271500Y20082626D01*
X12523076Y20068449D02*
X13257324D01*
X17094843Y18951242D02*
X17181209Y18864874D01*
X17201257D01*
X17224583Y18888200D01*
X17255151D01*
X17400511Y18742841D01*
Y18712273D02*
Y18742841D01*
X17225740Y18537502D02*
X17400511Y18712273D01*
X17225740Y18537502D02*
X17349484Y18413757D01*
X17617043Y18681316D01*
X17647610D01*
X17792970Y18535957D01*
Y18505388D02*
Y18535957D01*
X17525412Y18237830D02*
X17792970Y18505388D01*
X17525412Y18237830D02*
X17649156Y18114085D01*
X17765269Y18230199D01*
X17815884D01*
X17842892Y18203192D01*
X17068750Y18925150D02*
Y18925150D01*
X17068750D01*
X17165926Y18827975D01*
X17216542D01*
X17239867Y18851302D01*
X17363611Y18727557D01*
X17188840Y18552786D02*
X17363611Y18727557D01*
X17188840Y18522217D02*
Y18552786D01*
Y18522217D02*
X17334200Y18376859D01*
X17364767D01*
X17632327Y18644415D01*
X17756070Y18520673D01*
X17488512Y18253114D02*
X17756070Y18520673D01*
X17488512Y18222545D02*
Y18253114D01*
Y18222545D02*
X17633871Y18077187D01*
X17664439D01*
X17780553Y18193298D01*
X17800601D01*
X17816800Y18177100D01*
X17816800Y18177100D02*
X17816800Y18177100D01*
X17084035Y18962050D02*
X17094843Y18951242D01*
X17842892Y18203192D02*
X18035034Y18011050D01*
X17816800Y18177100D02*
X18019749Y17974150D01*
X18790079Y19028250D02*
X18911168D01*
X18754286Y19064043D02*
X18790079Y19028250D01*
X18754286Y19064043D02*
Y19093716D01*
X18579286D02*
X18754286D01*
X18579286Y18849866D02*
Y19093716D01*
X18557671Y18828250D02*
X18579286Y18849866D01*
X18352101Y18828250D02*
X18557671D01*
X18330486Y18849866D02*
X18352101Y18828250D01*
X18330486Y18849866D02*
Y19228250D01*
X18155486D02*
X18330486D01*
X18155486Y18849866D02*
Y19228250D01*
X18133870Y18828250D02*
X18155486Y18849866D01*
X17928300Y18828250D02*
X18133870D01*
X17906685Y18849866D02*
X17928300Y18828250D01*
X17906685Y18849866D02*
Y19228250D01*
X17731685D02*
X17906685D01*
X17731685Y19064043D02*
Y19228250D01*
X17695892Y19028250D02*
X17731685Y19064043D01*
X17657700Y19028250D02*
X17695892D01*
X18805362Y19065150D02*
X18911168D01*
X18791187Y19079326D02*
X18805362Y19065150D01*
X18791187Y19079326D02*
Y19109001D01*
X18769571Y19130617D02*
X18791187Y19109001D01*
X18564001Y19130617D02*
X18769571D01*
X18542386Y19109001D02*
X18564001Y19130617D01*
X18542386Y18865150D02*
Y19109001D01*
X18367386Y18865150D02*
X18542386D01*
X18367386D02*
Y19243535D01*
X18345770Y19265150D02*
X18367386Y19243535D01*
X18140201Y19265150D02*
X18345770D01*
X18118587Y19243535D02*
X18140201Y19265150D01*
X18118587Y18865150D02*
Y19243535D01*
X17943585Y18865150D02*
X18118587D01*
X17943585D02*
Y19243535D01*
X17921970Y19265150D02*
X17943585Y19243535D01*
X17716402Y19265150D02*
X17921970D01*
X17694785Y19243535D02*
X17716402Y19265150D01*
X17694785Y19079326D02*
Y19243535D01*
X17680609Y19065150D02*
X17694785Y19079326D01*
X17657700Y19065150D02*
X17680609D01*
X18911168Y19028250D02*
X18939523D01*
X17586650D02*
X17657700D01*
X18911168Y19065150D02*
X18939523D01*
X17601935D02*
X17657700D01*
X17575035Y19092050D02*
X17601935Y19065150D01*
X17537691Y19268309D02*
X17650710Y19381326D01*
Y19401373D01*
X17559477Y19492606D02*
X17650710Y19401373D01*
X17559477Y19492606D02*
Y19523174D01*
X17704837Y19668533D01*
X17735405D01*
X17735405D02*
X17978082Y19425858D01*
X18101826Y19549600D01*
X17975690Y19675737D02*
X18101826Y19549600D01*
X17975690Y19675737D02*
Y19706306D01*
X18121049Y19851665D01*
X18151617D01*
X18277754Y19725528D01*
X18401498Y19849272D01*
X18285384Y19965385D02*
X18401498Y19849272D01*
X18285384Y19965385D02*
Y20016002D01*
X18312392Y20043008D01*
X17563783Y19242216D02*
X17563783D01*
X17563783D02*
X17687608Y19366042D01*
Y19416658D01*
X17596378Y19507889D02*
X17687608Y19416658D01*
X17596378Y19507889D02*
X17720120Y19631633D01*
X17720120D01*
X17962798Y19388956D01*
X17993365D01*
X18089948Y19485536D01*
X18138725Y19534315D01*
Y19564883D01*
X18012589Y19691022D02*
X18138725Y19564883D01*
X18012589Y19691022D02*
X18136333Y19814764D01*
X18262469Y19688628D01*
X18293037D01*
X18438399Y19833987D01*
Y19864555D01*
X18322284Y19980670D02*
X18438399Y19864555D01*
X18322284Y19980670D02*
Y20000717D01*
X18338484Y20016917D01*
X18338484D01*
X17491434Y19222050D02*
X17537691Y19268309D01*
X18312392Y20043008D02*
X18337833Y20068449D01*
X17506717Y19185150D02*
X17563783Y19242216D01*
X18338484Y20016917D02*
X18353117Y20031551D01*
X18939523D01*
X18337833Y20068449D02*
X18939523D01*
X17559750Y19055150D02*
X17586650Y19028250D01*
X16247276Y19055150D02*
X17559750D01*
X16247276Y19092050D02*
X17575035D01*
X16604890Y18795151D02*
X16905038Y18495003D01*
X16247276Y18795151D02*
X16604890D01*
X16620175Y18832050D02*
X16931129Y18521095D01*
X16247276Y18832050D02*
X16620175D01*
X16905038Y18422807D02*
X16915309Y18412537D01*
X16905038Y18422807D02*
Y18495003D01*
X16175101Y18789500D02*
X16241626D01*
X16166701Y18781100D02*
X16175101Y18789500D01*
X16931129Y18521095D02*
X17003325D01*
X17013597Y18510825D01*
X16166701Y18846100D02*
X16175101Y18837700D01*
X16241626D01*
X16247276Y18832050D01*
X16241626Y18789500D02*
X16247276Y18795151D01*
Y18925150D02*
X17068750D01*
X16247276Y18962050D02*
X17084035D01*
X18939523Y17974150D02*
X18953700Y17959975D01*
Y17950500D02*
Y17959975D01*
Y17950500D02*
X19011600Y17892599D01*
X19016600D01*
X16241626Y18919501D02*
X16247276Y18925150D01*
X16166701Y18911099D02*
X16175101Y18919501D01*
X16241626D01*
X18019749Y17974150D02*
X18939523D01*
X19011600Y18092599D02*
X19016600D01*
X18953700Y18034700D02*
X19011600Y18092599D01*
X18953700Y18025226D02*
Y18034700D01*
X18939523Y18011050D02*
X18953700Y18025226D01*
X16241626Y18967700D02*
X16247276Y18962050D01*
X16166701Y18976100D02*
X16175101Y18967700D01*
X16241626D01*
X18035034Y18011050D02*
X18939523D01*
X19016600Y18092599D02*
X19021600D01*
X19079500Y18025226D02*
Y18034700D01*
X19021600Y18092599D02*
X19079500Y18034700D01*
Y18025226D02*
X19093677Y18011050D01*
X19394415D01*
X19419815Y18036450D01*
X19777124D02*
X19791299Y18050626D01*
X19419815Y18036450D02*
X19777124D01*
X19829201Y18145000D02*
X19842101D01*
X19016600Y17892599D02*
X19021600D01*
X19079500Y17959975D02*
X19093677Y17974150D01*
X19409700D01*
X19435100Y17999550D01*
X19079500Y17950500D02*
Y17959975D01*
X19791299Y17928900D02*
X19829201Y17891000D01*
X19021600Y17892599D02*
X19079500Y17950500D01*
X19829201Y17891000D02*
X19842101D01*
X19791299Y18107100D02*
X19829201Y18145000D01*
X19791299Y18050626D02*
Y18107100D01*
X19777124Y17999550D02*
X19791299Y17985374D01*
Y17928900D02*
Y17985374D01*
X19435100Y17999550D02*
X19777124D01*
X18953700Y19004601D02*
X19011600Y18946700D01*
X18939523Y19028250D02*
X18953700Y19014075D01*
Y19004601D02*
Y19014075D01*
X19011600Y18946700D02*
X19016600D01*
X16241626Y19049500D02*
X16247276Y19055150D01*
X16166701Y19041100D02*
X16175101Y19049500D01*
X16241626D01*
X19011600Y19146700D02*
X19016600D01*
X18953700Y19088800D02*
X19011600Y19146700D01*
X18939523Y19065150D02*
X18953700Y19079326D01*
Y19088800D01*
X16241626Y19097701D02*
X16247276Y19092050D01*
X16166701Y19106100D02*
X16175101Y19097701D01*
X16241626D01*
X19816701Y18932401D02*
X19842101Y18907001D01*
X19802524Y19015550D02*
X19816701Y19001373D01*
Y18932401D02*
Y19001373D01*
X19413466Y19028250D02*
X19426166Y19015550D01*
X19802524D01*
X19093677Y19028250D02*
X19413466D01*
X19016600Y18946700D02*
X19021600D01*
X19816701Y19135600D02*
X19842101Y19161000D01*
X19079500Y19079326D02*
Y19088800D01*
Y19079326D02*
X19093677Y19065150D01*
X19428751D01*
X19021600Y18946700D02*
X19079500Y19004601D01*
X19016600Y19146700D02*
X19021600D01*
X19079500Y19088800D01*
X19802524Y19052451D02*
X19816701Y19066626D01*
X19428751Y19065150D02*
X19441451Y19052451D01*
X19816701Y19066626D02*
Y19135600D01*
X19441451Y19052451D02*
X19802524D01*
X19079500Y19004601D02*
Y19014075D01*
X19093677Y19028250D01*
X18953700Y20007899D02*
X19011600Y19950000D01*
X19016600D01*
X18953700Y20007899D02*
Y20017374D01*
X18939523Y20031551D02*
X18953700Y20017374D01*
X16247276Y19185150D02*
X17506717D01*
X16241626Y19179500D02*
X16247276Y19185150D01*
X16166701Y19171100D02*
X16175101Y19179500D01*
X16241626D01*
X19011600Y20150000D02*
X19016600D01*
X18953700Y20092101D02*
X19011600Y20150000D01*
X18953700Y20082626D02*
Y20092101D01*
X18939523Y20068449D02*
X18953700Y20082626D01*
X16166701Y19236099D02*
X16175101Y19227699D01*
X16241626D01*
X16247276Y19222050D02*
X17491434D01*
X16241626Y19227699D02*
X16247276Y19222050D01*
X19016600Y20150000D02*
X19021600D01*
X19079500Y20092101D01*
Y20082626D02*
Y20092101D01*
Y20082626D02*
X19093677Y20068449D01*
X19827924Y20031551D02*
X19842101Y20017374D01*
X19093677Y20031551D02*
X19827924D01*
X19842101Y20082626D02*
Y20177000D01*
Y19923000D02*
Y20017374D01*
X19021600Y19950000D02*
X19079500Y20007899D01*
Y20017374D01*
X19093677Y20031551D01*
X19016600Y19950000D02*
X19021600D01*
X19827924Y20068449D02*
X19842101Y20082626D01*
X19093677Y20068449D02*
X19827924D01*
X10524242Y23451743D02*
X10610609Y23365375D01*
X10630657D01*
X10653983Y23388701D01*
X10684552D01*
X10829911Y23243341D01*
Y23212773D02*
Y23243341D01*
X10655140Y23038002D02*
X10829911Y23212773D01*
X10655140Y23038002D02*
X10778884Y22914258D01*
X11046442Y23181816D01*
X11077011D01*
X11222370Y23036456D01*
Y23005888D02*
Y23036456D01*
X10954812Y22738330D02*
X11222370Y23005888D01*
X10954812Y22738330D02*
X11078556Y22614586D01*
X11194669Y22730699D01*
X11245285D01*
X11272292Y22703693D01*
X10498150Y23425650D02*
Y23425650D01*
X10498150D01*
X10595325Y23328474D01*
X10645942D01*
X10669267Y23351801D01*
X10793011Y23228056D01*
X10618240Y23053287D02*
X10793011Y23228056D01*
X10618240Y23022717D02*
Y23053287D01*
Y23022717D02*
X10763600Y22877357D01*
X10794168D01*
X11061727Y23144916D01*
X11185470Y23021172D01*
X10917912Y22753613D02*
X11185470Y23021172D01*
X10917912Y22723045D02*
Y22753613D01*
Y22723045D02*
X11063271Y22577686D01*
X11093840D01*
X11209953Y22693799D01*
X11230001D01*
X11246200Y22677600D01*
X11246200Y22677600D02*
X11246200Y22677600D01*
X10513434Y23462550D02*
X10524242Y23451743D01*
X11272292Y22703693D02*
X11464434Y22511549D01*
X11246200Y22677600D02*
X11449150Y22474651D01*
X12219478Y23528751D02*
X12340568D01*
X12183686Y23564542D02*
X12219478Y23528751D01*
X12183686Y23564542D02*
Y23594215D01*
X12008686D02*
X12183686D01*
X12008686Y23350366D02*
Y23594215D01*
X11987071Y23328751D02*
X12008686Y23350366D01*
X11781501Y23328751D02*
X11987071D01*
X11759886Y23350366D02*
X11781501Y23328751D01*
X11759886Y23350366D02*
Y23728751D01*
X11584886D02*
X11759886D01*
X11584886Y23350366D02*
Y23728751D01*
X11563270Y23328751D02*
X11584886Y23350366D01*
X11357701Y23328751D02*
X11563270D01*
X11336085Y23350366D02*
X11357701Y23328751D01*
X11336085Y23350366D02*
Y23728751D01*
X11161085D02*
X11336085D01*
X11161085Y23564542D02*
Y23728751D01*
X11125293Y23528751D02*
X11161085Y23564542D01*
X11087100Y23528751D02*
X11125293D01*
X12234762Y23565649D02*
X12340568D01*
X12220586Y23579826D02*
X12234762Y23565649D01*
X12220586Y23579826D02*
Y23609502D01*
X12198971Y23631117D02*
X12220586Y23609502D01*
X11993402Y23631117D02*
X12198971D01*
X11971786Y23609502D02*
X11993402Y23631117D01*
X11971786Y23365649D02*
Y23609502D01*
X11796786Y23365649D02*
X11971786D01*
X11796786D02*
Y23744035D01*
X11775170Y23765649D02*
X11796786Y23744035D01*
X11569601Y23765649D02*
X11775170D01*
X11547986Y23744035D02*
X11569601Y23765649D01*
X11547986Y23365649D02*
Y23744035D01*
X11372985Y23365649D02*
X11547986D01*
X11372985D02*
Y23744035D01*
X11351370Y23765649D02*
X11372985Y23744035D01*
X11145801Y23765649D02*
X11351370D01*
X11124185Y23744035D02*
X11145801Y23765649D01*
X11124185Y23579826D02*
Y23744035D01*
X11110009Y23565649D02*
X11124185Y23579826D01*
X11087100Y23565649D02*
X11110009D01*
X12340568Y23528751D02*
X12368924D01*
X11016050D02*
X11087100D01*
X12340568Y23565649D02*
X12368924D01*
X11031335D02*
X11087100D01*
X11004435Y23592551D02*
X11031335Y23565649D01*
X10967091Y23768810D02*
X11080109Y23881825D01*
Y23901874D01*
X10988877Y23993105D02*
X11080109Y23901874D01*
X10988877Y23993105D02*
Y24023674D01*
X11134237Y24169032D01*
X11164805D01*
X11164805D02*
X11407482Y23926357D01*
X11531226Y24050101D01*
X11405089Y24176237D02*
X11531226Y24050101D01*
X11405089Y24176237D02*
Y24206805D01*
X11550449Y24352165D01*
X11581017D01*
X11707154Y24226028D01*
X11830898Y24349773D01*
X11714784Y24465886D02*
X11830898Y24349773D01*
X11714784Y24465886D02*
Y24516502D01*
X11741792Y24543509D01*
X10993183Y23742715D02*
X10993183D01*
X10993183D02*
X11117009Y23866542D01*
Y23917159D01*
X11025778Y24008389D02*
X11117009Y23917159D01*
X11025778Y24008389D02*
X11149521Y24132133D01*
X11149521D01*
X11392198Y23889456D01*
X11422766D01*
X11519347Y23986037D01*
X11568126Y24034816D01*
Y24065384D01*
X11441989Y24191521D02*
X11568126Y24065384D01*
X11441989Y24191521D02*
X11565733Y24315265D01*
X11691870Y24189128D01*
X11722438D01*
X11867798Y24334488D01*
Y24365056D01*
X11751684Y24481171D02*
X11867798Y24365056D01*
X11751684Y24481171D02*
Y24501218D01*
X11767883Y24517416D01*
X11767884D01*
X10920833Y23722549D02*
X10967091Y23768810D01*
X11741792Y24543509D02*
X11767233Y24568950D01*
X10936117Y23685651D02*
X10993183Y23742715D01*
X11767884Y24517416D02*
X11782517Y24532050D01*
X12368924D01*
X11767233Y24568950D02*
X12368924D01*
X10989150Y23555650D02*
X11016050Y23528751D01*
X9676676Y23555650D02*
X10989150D01*
X9676676Y23592551D02*
X11004435D01*
X10034290Y23295650D02*
X10334438Y22995503D01*
X9676676Y23295650D02*
X10034290D01*
X10049575Y23332550D02*
X10360530Y23021594D01*
X9676676Y23332550D02*
X10049575D01*
X10334438Y22923306D02*
X10344709Y22913036D01*
X10334438Y22923306D02*
Y22995503D01*
X9604500Y23289999D02*
X9671026D01*
X9596100Y23281599D02*
X9604500Y23289999D01*
X10360530Y23021594D02*
X10432725D01*
X10442997Y23011324D01*
X9596100Y23346600D02*
X9604500Y23338200D01*
X9671026D01*
X9676676Y23332550D01*
X9671026Y23289999D02*
X9676676Y23295650D01*
Y23425650D02*
X10498150D01*
X9676676Y23462550D02*
X10513434D01*
X12368924Y22474651D02*
X12383100Y22460474D01*
Y22450999D02*
Y22460474D01*
Y22450999D02*
X12441000Y22393100D01*
X12446000D01*
X9671026Y23420000D02*
X9676676Y23425650D01*
X9596100Y23411600D02*
X9604500Y23420000D01*
X9671026D01*
X11449150Y22474651D02*
X12368924D01*
X12441000Y22593100D02*
X12446000D01*
X12383100Y22535201D02*
X12441000Y22593100D01*
X12383100Y22525726D02*
Y22535201D01*
X12368924Y22511549D02*
X12383100Y22525726D01*
X9671026Y23468201D02*
X9676676Y23462550D01*
X9596100Y23476601D02*
X9604500Y23468201D01*
X9671026D01*
X11464434Y22511549D02*
X12368924D01*
X12446000Y22593100D02*
X12451000D01*
X12508900Y22525726D02*
Y22535201D01*
X12451000Y22593100D02*
X12508900Y22535201D01*
Y22525726D02*
X12523076Y22511549D01*
X12823814D01*
X12849216Y22536951D01*
X13206525D02*
X13220700Y22551126D01*
X12849216Y22536951D02*
X13206525D01*
X13258600Y22645500D02*
X13271500D01*
X12446000Y22393100D02*
X12451000D01*
X12508900Y22460474D02*
X12523076Y22474651D01*
X12839101D01*
X12864500Y22500050D01*
X12508900Y22450999D02*
Y22460474D01*
X13220700Y22429401D02*
X13258600Y22391499D01*
X12451000Y22393100D02*
X12508900Y22450999D01*
X13258600Y22391499D02*
X13271500D01*
X13220700Y22607600D02*
X13258600Y22645500D01*
X13220700Y22551126D02*
Y22607600D01*
X13206525Y22500050D02*
X13220700Y22485873D01*
Y22429401D02*
Y22485873D01*
X12864500Y22500050D02*
X13206525D01*
X12383100Y23505099D02*
X12441000Y23447200D01*
X12368924Y23528751D02*
X12383100Y23514574D01*
Y23505099D02*
Y23514574D01*
X12441000Y23447200D02*
X12446000D01*
X9671026Y23550000D02*
X9676676Y23555650D01*
X9596100Y23541600D02*
X9604500Y23550000D01*
X9671026D01*
X12441000Y23647200D02*
X12446000D01*
X12383100Y23589301D02*
X12441000Y23647200D01*
X12368924Y23565649D02*
X12383100Y23579826D01*
Y23589301D01*
X9671026Y23598199D02*
X9676676Y23592551D01*
X9596100Y23606599D02*
X9604500Y23598199D01*
X9671026D01*
X13246100Y23432899D02*
X13271500Y23407500D01*
X13231924Y23516051D02*
X13246100Y23501874D01*
Y23432899D02*
Y23501874D01*
X12842867Y23528751D02*
X12855566Y23516051D01*
X13231924D01*
X12523076Y23528751D02*
X12842867D01*
X12446000Y23447200D02*
X12451000D01*
X13246100Y23636099D02*
X13271500Y23661501D01*
X12508900Y23579826D02*
Y23589301D01*
Y23579826D02*
X12523076Y23565649D01*
X12858150D01*
X12451000Y23447200D02*
X12508900Y23505099D01*
X12446000Y23647200D02*
X12451000D01*
X12508900Y23589301D01*
X13231924Y23552950D02*
X13246100Y23567126D01*
X12858150Y23565649D02*
X12870850Y23552950D01*
X13246100Y23567126D02*
Y23636099D01*
X12870850Y23552950D02*
X13231924D01*
X12508900Y23505099D02*
Y23514574D01*
X12523076Y23528751D01*
X12383100Y24508400D02*
X12441000Y24450500D01*
X12446000D01*
X12383100Y24508400D02*
Y24517874D01*
X12368924Y24532050D02*
X12383100Y24517874D01*
X9676676Y23685651D02*
X10936117D01*
X9671026Y23680000D02*
X9676676Y23685651D01*
X9596100Y23671600D02*
X9604500Y23680000D01*
X9671026D01*
X12441000Y24650500D02*
X12446000D01*
X12383100Y24592599D02*
X12441000Y24650500D01*
X12383100Y24583125D02*
Y24592599D01*
X12368924Y24568950D02*
X12383100Y24583125D01*
X9596100Y23736600D02*
X9604500Y23728200D01*
X9671026D01*
X9676676Y23722549D02*
X10920833D01*
X9671026Y23728200D02*
X9676676Y23722549D01*
X12446000Y24650500D02*
X12451000D01*
X12508900Y24592599D01*
Y24583125D02*
Y24592599D01*
Y24583125D02*
X12523076Y24568950D01*
X13257324Y24532050D02*
X13271500Y24517874D01*
X12523076Y24532050D02*
X13257324D01*
X13271500Y24583125D02*
Y24677499D01*
Y24423500D02*
Y24517874D01*
X12451000Y24450500D02*
X12508900Y24508400D01*
Y24517874D01*
X12523076Y24532050D01*
X12446000Y24450500D02*
X12451000D01*
X13257324Y24568950D02*
X13271500Y24583125D01*
X12523076Y24568950D02*
X13257324D01*
X17094843Y23451743D02*
X17181209Y23365375D01*
X17201257D01*
X17224583Y23388701D01*
X17255151D01*
X17400511Y23243341D01*
Y23212773D02*
Y23243341D01*
X17225740Y23038002D02*
X17400511Y23212773D01*
X17225740Y23038002D02*
X17349484Y22914258D01*
X17617043Y23181816D01*
X17647610D01*
X17792970Y23036456D01*
Y23005888D02*
Y23036456D01*
X17525412Y22738330D02*
X17792970Y23005888D01*
X17525412Y22738330D02*
X17649156Y22614586D01*
X17765269Y22730699D01*
X17815884D01*
X17842892Y22703693D01*
X17068750Y23425650D02*
Y23425650D01*
X17068750D01*
X17165926Y23328474D01*
X17216542D01*
X17239867Y23351801D01*
X17363611Y23228056D01*
X17188840Y23053287D02*
X17363611Y23228056D01*
X17188840Y23022717D02*
Y23053287D01*
Y23022717D02*
X17334200Y22877357D01*
X17364767D01*
X17632327Y23144916D01*
X17756070Y23021172D01*
X17488512Y22753613D02*
X17756070Y23021172D01*
X17488512Y22723045D02*
Y22753613D01*
Y22723045D02*
X17633871Y22577686D01*
X17664439D01*
X17780553Y22693799D01*
X17800601D01*
X17816800Y22677600D01*
X17816800Y22677600D02*
X17816800Y22677600D01*
X17084035Y23462550D02*
X17094843Y23451743D01*
X17842892Y22703693D02*
X18035034Y22511549D01*
X17816800Y22677600D02*
X18019749Y22474651D01*
X18790079Y23528751D02*
X18911168D01*
X18754286Y23564542D02*
X18790079Y23528751D01*
X18754286Y23564542D02*
Y23594215D01*
X18579286D02*
X18754286D01*
X18579286Y23350366D02*
Y23594215D01*
X18557671Y23328751D02*
X18579286Y23350366D01*
X18352101Y23328751D02*
X18557671D01*
X18330486Y23350366D02*
X18352101Y23328751D01*
X18330486Y23350366D02*
Y23728751D01*
X18155486D02*
X18330486D01*
X18155486Y23350366D02*
Y23728751D01*
X18133870Y23328751D02*
X18155486Y23350366D01*
X17928300Y23328751D02*
X18133870D01*
X17906685Y23350366D02*
X17928300Y23328751D01*
X17906685Y23350366D02*
Y23728751D01*
X17731685D02*
X17906685D01*
X17731685Y23564542D02*
Y23728751D01*
X17695892Y23528751D02*
X17731685Y23564542D01*
X17657700Y23528751D02*
X17695892D01*
X18805362Y23565649D02*
X18911168D01*
X18791187Y23579826D02*
X18805362Y23565649D01*
X18791187Y23579826D02*
Y23609502D01*
X18769571Y23631117D02*
X18791187Y23609502D01*
X18564001Y23631117D02*
X18769571D01*
X18542386Y23609502D02*
X18564001Y23631117D01*
X18542386Y23365649D02*
Y23609502D01*
X18367386Y23365649D02*
X18542386D01*
X18367386D02*
Y23744035D01*
X18345770Y23765649D02*
X18367386Y23744035D01*
X18140201Y23765649D02*
X18345770D01*
X18118587Y23744035D02*
X18140201Y23765649D01*
X18118587Y23365649D02*
Y23744035D01*
X17943585Y23365649D02*
X18118587D01*
X17943585D02*
Y23744035D01*
X17921970Y23765649D02*
X17943585Y23744035D01*
X17716402Y23765649D02*
X17921970D01*
X17694785Y23744035D02*
X17716402Y23765649D01*
X17694785Y23579826D02*
Y23744035D01*
X17680609Y23565649D02*
X17694785Y23579826D01*
X17657700Y23565649D02*
X17680609D01*
X18911168Y23528751D02*
X18939523D01*
X17586650D02*
X17657700D01*
X18911168Y23565649D02*
X18939523D01*
X17601935D02*
X17657700D01*
X17575035Y23592551D02*
X17601935Y23565649D01*
X17537691Y23768810D02*
X17650710Y23881825D01*
Y23901874D01*
X17559477Y23993105D02*
X17650710Y23901874D01*
X17559477Y23993105D02*
Y24023674D01*
X17704837Y24169032D01*
X17735405D01*
X17735405D02*
X17978082Y23926357D01*
X18101826Y24050101D01*
X17975690Y24176237D02*
X18101826Y24050101D01*
X17975690Y24176237D02*
Y24206805D01*
X18121049Y24352165D01*
X18151617D01*
X18277754Y24226028D01*
X18401498Y24349773D01*
X18285384Y24465886D02*
X18401498Y24349773D01*
X18285384Y24465886D02*
Y24516502D01*
X18312392Y24543509D01*
X17563783Y23742715D02*
X17563783D01*
X17563783D02*
X17687608Y23866542D01*
Y23917159D01*
X17596378Y24008389D02*
X17687608Y23917159D01*
X17596378Y24008389D02*
X17720120Y24132133D01*
X17720120D01*
X17962798Y23889456D01*
X17993365D01*
X18089948Y23986037D01*
X18138725Y24034816D01*
Y24065384D01*
X18012589Y24191521D02*
X18138725Y24065384D01*
X18012589Y24191521D02*
X18136333Y24315265D01*
X18262469Y24189128D01*
X18293037D01*
X18438399Y24334488D01*
Y24365056D01*
X18322284Y24481171D02*
X18438399Y24365056D01*
X18322284Y24481171D02*
Y24501218D01*
X18338484Y24517416D01*
X18338484D01*
X17491434Y23722549D02*
X17537691Y23768810D01*
X18312392Y24543509D02*
X18337833Y24568950D01*
X17506717Y23685651D02*
X17563783Y23742715D01*
X18338484Y24517416D02*
X18353117Y24532050D01*
X18939523D01*
X18337833Y24568950D02*
X18939523D01*
X17559750Y23555650D02*
X17586650Y23528751D01*
X16247276Y23555650D02*
X17559750D01*
X16247276Y23592551D02*
X17575035D01*
X16604890Y23295650D02*
X16905038Y22995503D01*
X16247276Y23295650D02*
X16604890D01*
X16620175Y23332550D02*
X16931129Y23021594D01*
X16247276Y23332550D02*
X16620175D01*
X16905038Y22923306D02*
X16915309Y22913036D01*
X16905038Y22923306D02*
Y22995503D01*
X16175101Y23289999D02*
X16241626D01*
X16166701Y23281599D02*
X16175101Y23289999D01*
X16931129Y23021594D02*
X17003325D01*
X17013597Y23011324D01*
X16166701Y23346600D02*
X16175101Y23338200D01*
X16241626D01*
X16247276Y23332550D01*
X16241626Y23289999D02*
X16247276Y23295650D01*
Y23425650D02*
X17068750D01*
X16247276Y23462550D02*
X17084035D01*
X18939523Y22474651D02*
X18953700Y22460474D01*
Y22450999D02*
Y22460474D01*
Y22450999D02*
X19011600Y22393100D01*
X19016600D01*
X16241626Y23420000D02*
X16247276Y23425650D01*
X16166701Y23411600D02*
X16175101Y23420000D01*
X16241626D01*
X18019749Y22474651D02*
X18939523D01*
X19011600Y22593100D02*
X19016600D01*
X18953700Y22535201D02*
X19011600Y22593100D01*
X18953700Y22525726D02*
Y22535201D01*
X18939523Y22511549D02*
X18953700Y22525726D01*
X16241626Y23468201D02*
X16247276Y23462550D01*
X16166701Y23476601D02*
X16175101Y23468201D01*
X16241626D01*
X18035034Y22511549D02*
X18939523D01*
X19016600Y22593100D02*
X19021600D01*
X19079500Y22525726D02*
Y22535201D01*
X19021600Y22593100D02*
X19079500Y22535201D01*
Y22525726D02*
X19093677Y22511549D01*
X19394415D01*
X19419815Y22536951D01*
X19777124D02*
X19791299Y22551126D01*
X19419815Y22536951D02*
X19777124D01*
X19829201Y22645500D02*
X19842101D01*
X19016600Y22393100D02*
X19021600D01*
X19079500Y22460474D02*
X19093677Y22474651D01*
X19409700D01*
X19435100Y22500050D01*
X19079500Y22450999D02*
Y22460474D01*
X19791299Y22429401D02*
X19829201Y22391499D01*
X19021600Y22393100D02*
X19079500Y22450999D01*
X19829201Y22391499D02*
X19842101D01*
X19791299Y22607600D02*
X19829201Y22645500D01*
X19791299Y22551126D02*
Y22607600D01*
X19777124Y22500050D02*
X19791299Y22485873D01*
Y22429401D02*
Y22485873D01*
X19435100Y22500050D02*
X19777124D01*
X18953700Y23505099D02*
X19011600Y23447200D01*
X18939523Y23528751D02*
X18953700Y23514574D01*
Y23505099D02*
Y23514574D01*
X19011600Y23447200D02*
X19016600D01*
X16241626Y23550000D02*
X16247276Y23555650D01*
X16166701Y23541600D02*
X16175101Y23550000D01*
X16241626D01*
X19011600Y23647200D02*
X19016600D01*
X18953700Y23589301D02*
X19011600Y23647200D01*
X18939523Y23565649D02*
X18953700Y23579826D01*
Y23589301D01*
X16241626Y23598199D02*
X16247276Y23592551D01*
X16166701Y23606599D02*
X16175101Y23598199D01*
X16241626D01*
X19816701Y23432899D02*
X19842101Y23407500D01*
X19802524Y23516051D02*
X19816701Y23501874D01*
Y23432899D02*
Y23501874D01*
X19413466Y23528751D02*
X19426166Y23516051D01*
X19802524D01*
X19093677Y23528751D02*
X19413466D01*
X19016600Y23447200D02*
X19021600D01*
X19816701Y23636099D02*
X19842101Y23661501D01*
X19079500Y23579826D02*
Y23589301D01*
Y23579826D02*
X19093677Y23565649D01*
X19428751D01*
X19021600Y23447200D02*
X19079500Y23505099D01*
X19016600Y23647200D02*
X19021600D01*
X19079500Y23589301D01*
X19802524Y23552950D02*
X19816701Y23567126D01*
X19428751Y23565649D02*
X19441451Y23552950D01*
X19816701Y23567126D02*
Y23636099D01*
X19441451Y23552950D02*
X19802524D01*
X19079500Y23505099D02*
Y23514574D01*
X19093677Y23528751D01*
X18953700Y24508400D02*
X19011600Y24450500D01*
X19016600D01*
X18953700Y24508400D02*
Y24517874D01*
X18939523Y24532050D02*
X18953700Y24517874D01*
X16247276Y23685651D02*
X17506717D01*
X16241626Y23680000D02*
X16247276Y23685651D01*
X16166701Y23671600D02*
X16175101Y23680000D01*
X16241626D01*
X19011600Y24650500D02*
X19016600D01*
X18953700Y24592599D02*
X19011600Y24650500D01*
X18953700Y24583125D02*
Y24592599D01*
X18939523Y24568950D02*
X18953700Y24583125D01*
X16166701Y23736600D02*
X16175101Y23728200D01*
X16241626D01*
X16247276Y23722549D02*
X17491434D01*
X16241626Y23728200D02*
X16247276Y23722549D01*
X19016600Y24650500D02*
X19021600D01*
X19079500Y24592599D01*
Y24583125D02*
Y24592599D01*
Y24583125D02*
X19093677Y24568950D01*
X19827924Y24532050D02*
X19842101Y24517874D01*
X19093677Y24532050D02*
X19827924D01*
X19842101Y24583125D02*
Y24677499D01*
Y24423500D02*
Y24517874D01*
X19021600Y24450500D02*
X19079500Y24508400D01*
Y24517874D01*
X19093677Y24532050D01*
X19016600Y24450500D02*
X19021600D01*
X19827924Y24568950D02*
X19842101Y24583125D01*
X19093677Y24568950D02*
X19827924D01*
X10524242Y27952243D02*
X10610609Y27865875D01*
X10630657D01*
X10653983Y27889200D01*
X10684552D01*
X10829911Y27743842D01*
Y27713272D02*
Y27743842D01*
X10655140Y27538501D02*
X10829911Y27713272D01*
X10655140Y27538501D02*
X10778884Y27414758D01*
X11046442Y27682315D01*
X11077011D01*
X11222370Y27536957D01*
Y27506387D02*
Y27536957D01*
X10954812Y27238831D02*
X11222370Y27506387D01*
X10954812Y27238831D02*
X11078556Y27115085D01*
X11194669Y27231198D01*
X11245285D01*
X11272292Y27204193D01*
X10498150Y27926151D02*
Y27926151D01*
X10498150D01*
X10595325Y27828976D01*
X10645942D01*
X10669267Y27852301D01*
X10793011Y27728558D01*
X10618240Y27553787D02*
X10793011Y27728558D01*
X10618240Y27523218D02*
Y27553787D01*
Y27523218D02*
X10763600Y27377859D01*
X10794168D01*
X11061727Y27645416D01*
X11185470Y27521671D01*
X10917912Y27254114D02*
X11185470Y27521671D01*
X10917912Y27223547D02*
Y27254114D01*
Y27223547D02*
X11063271Y27078186D01*
X11093840D01*
X11209953Y27194299D01*
X11230001D01*
X11246200Y27178101D01*
X11246200Y27178101D02*
X11246200Y27178101D01*
X10513434Y27963049D02*
X10524242Y27952243D01*
X11272292Y27204193D02*
X11464434Y27012051D01*
X11246200Y27178101D02*
X11449150Y26975150D01*
X12219478Y28029251D02*
X12340568D01*
X12183686Y28065042D02*
X12219478Y28029251D01*
X12183686Y28065042D02*
Y28094717D01*
X12008686D02*
X12183686D01*
X12008686Y27850867D02*
Y28094717D01*
X11987071Y27829251D02*
X12008686Y27850867D01*
X11781501Y27829251D02*
X11987071D01*
X11759886Y27850867D02*
X11781501Y27829251D01*
X11759886Y27850867D02*
Y28229251D01*
X11584886D02*
X11759886D01*
X11584886Y27850867D02*
Y28229251D01*
X11563270Y27829251D02*
X11584886Y27850867D01*
X11357701Y27829251D02*
X11563270D01*
X11336085Y27850867D02*
X11357701Y27829251D01*
X11336085Y27850867D02*
Y28229251D01*
X11161085D02*
X11336085D01*
X11161085Y28065042D02*
Y28229251D01*
X11125293Y28029251D02*
X11161085Y28065042D01*
X11087100Y28029251D02*
X11125293D01*
X12234762Y28066150D02*
X12340568D01*
X12220586Y28080325D02*
X12234762Y28066150D01*
X12220586Y28080325D02*
Y28110001D01*
X12198971Y28131616D02*
X12220586Y28110001D01*
X11993402Y28131616D02*
X12198971D01*
X11971786Y28110001D02*
X11993402Y28131616D01*
X11971786Y27866150D02*
Y28110001D01*
X11796786Y27866150D02*
X11971786D01*
X11796786D02*
Y28244534D01*
X11775170Y28266150D02*
X11796786Y28244534D01*
X11569601Y28266150D02*
X11775170D01*
X11547986Y28244534D02*
X11569601Y28266150D01*
X11547986Y27866150D02*
Y28244534D01*
X11372985Y27866150D02*
X11547986D01*
X11372985D02*
Y28244534D01*
X11351370Y28266150D02*
X11372985Y28244534D01*
X11145801Y28266150D02*
X11351370D01*
X11124185Y28244534D02*
X11145801Y28266150D01*
X11124185Y28080325D02*
Y28244534D01*
X11110009Y28066150D02*
X11124185Y28080325D01*
X11087100Y28066150D02*
X11110009D01*
X12340568Y28029251D02*
X12368924D01*
X11016050D02*
X11087100D01*
X12340568Y28066150D02*
X12368924D01*
X11031335D02*
X11087100D01*
X11004435Y28093051D02*
X11031335Y28066150D01*
X10967091Y28269308D02*
X11080109Y28382327D01*
Y28402374D01*
X10988877Y28493604D02*
X11080109Y28402374D01*
X10988877Y28493604D02*
Y28524173D01*
X11134237Y28669534D01*
X11164805D01*
X11164805D02*
X11407482Y28426859D01*
X11531226Y28550601D01*
X11405089Y28676736D02*
X11531226Y28550601D01*
X11405089Y28676736D02*
Y28707306D01*
X11550449Y28852664D01*
X11581017D01*
X11707154Y28726529D01*
X11830898Y28850272D01*
X11714784Y28966385D02*
X11830898Y28850272D01*
X11714784Y28966385D02*
Y29017001D01*
X11741792Y29044009D01*
X10993183Y28243216D02*
X10993183D01*
X10993183D02*
X11117009Y28367041D01*
Y28417657D01*
X11025778Y28508890D02*
X11117009Y28417657D01*
X11025778Y28508890D02*
X11149521Y28632632D01*
X11149521D01*
X11392198Y28389957D01*
X11422766D01*
X11519347Y28486536D01*
X11568126Y28535315D01*
Y28565884D01*
X11441989Y28692020D02*
X11568126Y28565884D01*
X11441989Y28692020D02*
X11565733Y28815765D01*
X11691870Y28689627D01*
X11722438D01*
X11867798Y28834988D01*
Y28865555D01*
X11751684Y28981671D02*
X11867798Y28865555D01*
X11751684Y28981671D02*
Y29001718D01*
X11767883Y29017917D01*
X11767884D01*
X10920833Y28223050D02*
X10967091Y28269308D01*
X11741792Y29044009D02*
X11767233Y29069449D01*
X10936117Y28186151D02*
X10993183Y28243216D01*
X11767884Y29017917D02*
X11782517Y29032550D01*
X12368924D01*
X11767233Y29069449D02*
X12368924D01*
X10989150Y28056149D02*
X11016050Y28029251D01*
X9676676Y28056149D02*
X10989150D01*
X9676676Y28093051D02*
X11004435D01*
X10034290Y27796149D02*
X10334438Y27496002D01*
X9676676Y27796149D02*
X10034290D01*
X10049575Y27833051D02*
X10360530Y27522095D01*
X9676676Y27833051D02*
X10049575D01*
X10334438Y27423807D02*
X10344709Y27413535D01*
X10334438Y27423807D02*
Y27496002D01*
X9604500Y27790500D02*
X9671026D01*
X9596100Y27782101D02*
X9604500Y27790500D01*
X10360530Y27522095D02*
X10432725D01*
X10442997Y27511823D01*
X9596100Y27847101D02*
X9604500Y27838699D01*
X9671026D01*
X9676676Y27833051D01*
X9671026Y27790500D02*
X9676676Y27796149D01*
Y27926151D02*
X10498150D01*
X9676676Y27963049D02*
X10513434D01*
X12368924Y26975150D02*
X12383100Y26960974D01*
Y26951501D02*
Y26960974D01*
Y26951501D02*
X12441000Y26893600D01*
X12446000D01*
X9671026Y27920499D02*
X9676676Y27926151D01*
X9596100Y27912100D02*
X9604500Y27920499D01*
X9671026D01*
X11449150Y26975150D02*
X12368924D01*
X12441000Y27093600D02*
X12446000D01*
X12383100Y27035699D02*
X12441000Y27093600D01*
X12383100Y27026227D02*
Y27035699D01*
X12368924Y27012051D02*
X12383100Y27026227D01*
X9671026Y27968701D02*
X9676676Y27963049D01*
X9596100Y27977100D02*
X9604500Y27968701D01*
X9671026D01*
X11464434Y27012051D02*
X12368924D01*
X12446000Y27093600D02*
X12451000D01*
X12508900Y27026227D02*
Y27035699D01*
X12451000Y27093600D02*
X12508900Y27035699D01*
Y27026227D02*
X12523076Y27012051D01*
X12823814D01*
X12849216Y27037451D01*
X13206525D02*
X13220700Y27051627D01*
X12849216Y27037451D02*
X13206525D01*
X13258600Y27145999D02*
X13271500D01*
X12446000Y26893600D02*
X12451000D01*
X12508900Y26960974D02*
X12523076Y26975150D01*
X12839101D01*
X12864500Y27000549D01*
X12508900Y26951501D02*
Y26960974D01*
X13220700Y26929901D02*
X13258600Y26892001D01*
X12451000Y26893600D02*
X12508900Y26951501D01*
X13258600Y26892001D02*
X13271500D01*
X13220700Y27108099D02*
X13258600Y27145999D01*
X13220700Y27051627D02*
Y27108099D01*
X13206525Y27000549D02*
X13220700Y26986374D01*
Y26929901D02*
Y26986374D01*
X12864500Y27000549D02*
X13206525D01*
X12383100Y28005600D02*
X12441000Y27947699D01*
X12368924Y28029251D02*
X12383100Y28015073D01*
Y28005600D02*
Y28015073D01*
X12441000Y27947699D02*
X12446000D01*
X9671026Y28050500D02*
X9676676Y28056149D01*
X9596100Y28042099D02*
X9604500Y28050500D01*
X9671026D01*
X12441000Y28147699D02*
X12446000D01*
X12383100Y28089801D02*
X12441000Y28147699D01*
X12368924Y28066150D02*
X12383100Y28080325D01*
Y28089801D01*
X9671026Y28098700D02*
X9676676Y28093051D01*
X9596100Y28107101D02*
X9604500Y28098700D01*
X9671026D01*
X13246100Y27933401D02*
X13271500Y27907999D01*
X13231924Y28016550D02*
X13246100Y28002374D01*
Y27933401D02*
Y28002374D01*
X12842867Y28029251D02*
X12855566Y28016550D01*
X13231924D01*
X12523076Y28029251D02*
X12842867D01*
X12446000Y27947699D02*
X12451000D01*
X13246100Y28136600D02*
X13271500Y28162000D01*
X12508900Y28080325D02*
Y28089801D01*
Y28080325D02*
X12523076Y28066150D01*
X12858150D01*
X12451000Y27947699D02*
X12508900Y28005600D01*
X12446000Y28147699D02*
X12451000D01*
X12508900Y28089801D01*
X13231924Y28053448D02*
X13246100Y28067627D01*
X12858150Y28066150D02*
X12870850Y28053448D01*
X13246100Y28067627D02*
Y28136600D01*
X12870850Y28053448D02*
X13231924D01*
X12508900Y28005600D02*
Y28015073D01*
X12523076Y28029251D01*
X12383100Y29008899D02*
X12441000Y28951001D01*
X12446000D01*
X12383100Y29008899D02*
Y29018375D01*
X12368924Y29032550D02*
X12383100Y29018375D01*
X9676676Y28186151D02*
X10936117D01*
X9671026Y28180499D02*
X9676676Y28186151D01*
X9596100Y28172101D02*
X9604500Y28180499D01*
X9671026D01*
X12441000Y29151001D02*
X12446000D01*
X12383100Y29093100D02*
X12441000Y29151001D01*
X12383100Y29083627D02*
Y29093100D01*
X12368924Y29069449D02*
X12383100Y29083627D01*
X9596100Y28237100D02*
X9604500Y28228699D01*
X9671026D01*
X9676676Y28223050D02*
X10920833D01*
X9671026Y28228699D02*
X9676676Y28223050D01*
X12446000Y29151001D02*
X12451000D01*
X12508900Y29093100D01*
Y29083627D02*
Y29093100D01*
Y29083627D02*
X12523076Y29069449D01*
X13257324Y29032550D02*
X13271500Y29018375D01*
X12523076Y29032550D02*
X13257324D01*
X13271500Y29083627D02*
Y29178000D01*
Y28923999D02*
Y29018375D01*
X12451000Y28951001D02*
X12508900Y29008899D01*
Y29018375D01*
X12523076Y29032550D01*
X12446000Y28951001D02*
X12451000D01*
X13257324Y29069449D02*
X13271500Y29083627D01*
X12523076Y29069449D02*
X13257324D01*
X17094843Y27952243D02*
X17181209Y27865875D01*
X17201257D01*
X17224583Y27889200D01*
X17255151D01*
X17400511Y27743842D01*
Y27713272D02*
Y27743842D01*
X17225740Y27538501D02*
X17400511Y27713272D01*
X17225740Y27538501D02*
X17349484Y27414758D01*
X17617043Y27682315D01*
X17647610D01*
X17792970Y27536957D01*
Y27506387D02*
Y27536957D01*
X17525412Y27238831D02*
X17792970Y27506387D01*
X17525412Y27238831D02*
X17649156Y27115085D01*
X17765269Y27231198D01*
X17815884D01*
X17842892Y27204193D01*
X17068750Y27926151D02*
Y27926151D01*
X17068750D01*
X17165926Y27828976D01*
X17216542D01*
X17239867Y27852301D01*
X17363611Y27728558D01*
X17188840Y27553787D02*
X17363611Y27728558D01*
X17188840Y27523218D02*
Y27553787D01*
Y27523218D02*
X17334200Y27377859D01*
X17364767D01*
X17632327Y27645416D01*
X17756070Y27521671D01*
X17488512Y27254114D02*
X17756070Y27521671D01*
X17488512Y27223547D02*
Y27254114D01*
Y27223547D02*
X17633871Y27078186D01*
X17664439D01*
X17780553Y27194299D01*
X17800601D01*
X17816800Y27178101D01*
X17816800Y27178101D02*
X17816800Y27178101D01*
X17084035Y27963049D02*
X17094843Y27952243D01*
X17842892Y27204193D02*
X18035034Y27012051D01*
X17816800Y27178101D02*
X18019749Y26975150D01*
X18790079Y28029251D02*
X18911168D01*
X18754286Y28065042D02*
X18790079Y28029251D01*
X18754286Y28065042D02*
Y28094717D01*
X18579286D02*
X18754286D01*
X18579286Y27850867D02*
Y28094717D01*
X18557671Y27829251D02*
X18579286Y27850867D01*
X18352101Y27829251D02*
X18557671D01*
X18330486Y27850867D02*
X18352101Y27829251D01*
X18330486Y27850867D02*
Y28229251D01*
X18155486D02*
X18330486D01*
X18155486Y27850867D02*
Y28229251D01*
X18133870Y27829251D02*
X18155486Y27850867D01*
X17928300Y27829251D02*
X18133870D01*
X17906685Y27850867D02*
X17928300Y27829251D01*
X17906685Y27850867D02*
Y28229251D01*
X17731685D02*
X17906685D01*
X17731685Y28065042D02*
Y28229251D01*
X17695892Y28029251D02*
X17731685Y28065042D01*
X17657700Y28029251D02*
X17695892D01*
X18805362Y28066150D02*
X18911168D01*
X18791187Y28080325D02*
X18805362Y28066150D01*
X18791187Y28080325D02*
Y28110001D01*
X18769571Y28131616D02*
X18791187Y28110001D01*
X18564001Y28131616D02*
X18769571D01*
X18542386Y28110001D02*
X18564001Y28131616D01*
X18542386Y27866150D02*
Y28110001D01*
X18367386Y27866150D02*
X18542386D01*
X18367386D02*
Y28244534D01*
X18345770Y28266150D02*
X18367386Y28244534D01*
X18140201Y28266150D02*
X18345770D01*
X18118587Y28244534D02*
X18140201Y28266150D01*
X18118587Y27866150D02*
Y28244534D01*
X17943585Y27866150D02*
X18118587D01*
X17943585D02*
Y28244534D01*
X17921970Y28266150D02*
X17943585Y28244534D01*
X17716402Y28266150D02*
X17921970D01*
X17694785Y28244534D02*
X17716402Y28266150D01*
X17694785Y28080325D02*
Y28244534D01*
X17680609Y28066150D02*
X17694785Y28080325D01*
X17657700Y28066150D02*
X17680609D01*
X18911168Y28029251D02*
X18939523D01*
X17586650D02*
X17657700D01*
X18911168Y28066150D02*
X18939523D01*
X17601935D02*
X17657700D01*
X17575035Y28093051D02*
X17601935Y28066150D01*
X17537691Y28269308D02*
X17650710Y28382327D01*
Y28402374D01*
X17559477Y28493604D02*
X17650710Y28402374D01*
X17559477Y28493604D02*
Y28524173D01*
X17704837Y28669534D01*
X17735405D01*
X17735405D02*
X17978082Y28426859D01*
X18101826Y28550601D01*
X17975690Y28676736D02*
X18101826Y28550601D01*
X17975690Y28676736D02*
Y28707306D01*
X18121049Y28852664D01*
X18151617D01*
X18277754Y28726529D01*
X18401498Y28850272D01*
X18285384Y28966385D02*
X18401498Y28850272D01*
X18285384Y28966385D02*
Y29017001D01*
X18312392Y29044009D01*
X17563783Y28243216D02*
X17563783D01*
X17563783D02*
X17687608Y28367041D01*
Y28417657D01*
X17596378Y28508890D02*
X17687608Y28417657D01*
X17596378Y28508890D02*
X17720120Y28632632D01*
X17720120D01*
X17962798Y28389957D01*
X17993365D01*
X18089948Y28486536D01*
X18138725Y28535315D01*
Y28565884D01*
X18012589Y28692020D02*
X18138725Y28565884D01*
X18012589Y28692020D02*
X18136333Y28815765D01*
X18262469Y28689627D01*
X18293037D01*
X18438399Y28834988D01*
Y28865555D01*
X18322284Y28981671D02*
X18438399Y28865555D01*
X18322284Y28981671D02*
Y29001718D01*
X18338484Y29017917D01*
X18338484D01*
X17491434Y28223050D02*
X17537691Y28269308D01*
X18312392Y29044009D02*
X18337833Y29069449D01*
X17506717Y28186151D02*
X17563783Y28243216D01*
X18338484Y29017917D02*
X18353117Y29032550D01*
X18939523D01*
X18337833Y29069449D02*
X18939523D01*
X17559750Y28056149D02*
X17586650Y28029251D01*
X16247276Y28056149D02*
X17559750D01*
X16247276Y28093051D02*
X17575035D01*
X16604890Y27796149D02*
X16905038Y27496002D01*
X16247276Y27796149D02*
X16604890D01*
X16620175Y27833051D02*
X16931129Y27522095D01*
X16247276Y27833051D02*
X16620175D01*
X16905038Y27423807D02*
X16915309Y27413535D01*
X16905038Y27423807D02*
Y27496002D01*
X16175101Y27790500D02*
X16241626D01*
X16166701Y27782101D02*
X16175101Y27790500D01*
X16931129Y27522095D02*
X17003325D01*
X17013597Y27511823D01*
X16166701Y27847101D02*
X16175101Y27838699D01*
X16241626D01*
X16247276Y27833051D01*
X16241626Y27790500D02*
X16247276Y27796149D01*
Y27926151D02*
X17068750D01*
X16247276Y27963049D02*
X17084035D01*
X18939523Y26975150D02*
X18953700Y26960974D01*
Y26951501D02*
Y26960974D01*
Y26951501D02*
X19011600Y26893600D01*
X19016600D01*
X16241626Y27920499D02*
X16247276Y27926151D01*
X16166701Y27912100D02*
X16175101Y27920499D01*
X16241626D01*
X18019749Y26975150D02*
X18939523D01*
X19011600Y27093600D02*
X19016600D01*
X18953700Y27035699D02*
X19011600Y27093600D01*
X18953700Y27026227D02*
Y27035699D01*
X18939523Y27012051D02*
X18953700Y27026227D01*
X16241626Y27968701D02*
X16247276Y27963049D01*
X16166701Y27977100D02*
X16175101Y27968701D01*
X16241626D01*
X18035034Y27012051D02*
X18939523D01*
X19016600Y27093600D02*
X19021600D01*
X19079500Y27026227D02*
Y27035699D01*
X19021600Y27093600D02*
X19079500Y27035699D01*
Y27026227D02*
X19093677Y27012051D01*
X19394415D01*
X19419815Y27037451D01*
X19777124D02*
X19791299Y27051627D01*
X19419815Y27037451D02*
X19777124D01*
X19829201Y27145999D02*
X19842101D01*
X19016600Y26893600D02*
X19021600D01*
X19079500Y26960974D02*
X19093677Y26975150D01*
X19409700D01*
X19435100Y27000549D01*
X19079500Y26951501D02*
Y26960974D01*
X19791299Y26929901D02*
X19829201Y26892001D01*
X19021600Y26893600D02*
X19079500Y26951501D01*
X19829201Y26892001D02*
X19842101D01*
X19791299Y27108099D02*
X19829201Y27145999D01*
X19791299Y27051627D02*
Y27108099D01*
X19777124Y27000549D02*
X19791299Y26986374D01*
Y26929901D02*
Y26986374D01*
X19435100Y27000549D02*
X19777124D01*
X18953700Y28005600D02*
X19011600Y27947699D01*
X18939523Y28029251D02*
X18953700Y28015073D01*
Y28005600D02*
Y28015073D01*
X19011600Y27947699D02*
X19016600D01*
X16241626Y28050500D02*
X16247276Y28056149D01*
X16166701Y28042099D02*
X16175101Y28050500D01*
X16241626D01*
X19011600Y28147699D02*
X19016600D01*
X18953700Y28089801D02*
X19011600Y28147699D01*
X18939523Y28066150D02*
X18953700Y28080325D01*
Y28089801D01*
X16241626Y28098700D02*
X16247276Y28093051D01*
X16166701Y28107101D02*
X16175101Y28098700D01*
X16241626D01*
X19816701Y27933401D02*
X19842101Y27907999D01*
X19802524Y28016550D02*
X19816701Y28002374D01*
Y27933401D02*
Y28002374D01*
X19413466Y28029251D02*
X19426166Y28016550D01*
X19802524D01*
X19093677Y28029251D02*
X19413466D01*
X19016600Y27947699D02*
X19021600D01*
X19816701Y28136600D02*
X19842101Y28162000D01*
X19079500Y28080325D02*
Y28089801D01*
Y28080325D02*
X19093677Y28066150D01*
X19428751D01*
X19021600Y27947699D02*
X19079500Y28005600D01*
X19016600Y28147699D02*
X19021600D01*
X19079500Y28089801D01*
X19802524Y28053448D02*
X19816701Y28067627D01*
X19428751Y28066150D02*
X19441451Y28053448D01*
X19816701Y28067627D02*
Y28136600D01*
X19441451Y28053448D02*
X19802524D01*
X19079500Y28005600D02*
Y28015073D01*
X19093677Y28029251D01*
X18953700Y29008899D02*
X19011600Y28951001D01*
X19016600D01*
X18953700Y29008899D02*
Y29018375D01*
X18939523Y29032550D02*
X18953700Y29018375D01*
X16247276Y28186151D02*
X17506717D01*
X16241626Y28180499D02*
X16247276Y28186151D01*
X16166701Y28172101D02*
X16175101Y28180499D01*
X16241626D01*
X19011600Y29151001D02*
X19016600D01*
X18953700Y29093100D02*
X19011600Y29151001D01*
X18953700Y29083627D02*
Y29093100D01*
X18939523Y29069449D02*
X18953700Y29083627D01*
X16166701Y28237100D02*
X16175101Y28228699D01*
X16241626D01*
X16247276Y28223050D02*
X17491434D01*
X16241626Y28228699D02*
X16247276Y28223050D01*
X19016600Y29151001D02*
X19021600D01*
X19079500Y29093100D01*
Y29083627D02*
Y29093100D01*
Y29083627D02*
X19093677Y29069449D01*
X19827924Y29032550D02*
X19842101Y29018375D01*
X19093677Y29032550D02*
X19827924D01*
X19842101Y29083627D02*
Y29178000D01*
Y28923999D02*
Y29018375D01*
X19021600Y28951001D02*
X19079500Y29008899D01*
Y29018375D01*
X19093677Y29032550D01*
X19016600Y28951001D02*
X19021600D01*
X19827924Y29069449D02*
X19842101Y29083627D01*
X19093677Y29069449D02*
X19827924D01*
D44*
X13031918Y10922000D02*
X13271500D01*
X13031918Y11176000D02*
X13271500D01*
X19602518Y10922000D02*
X19842101D01*
X19602518Y11176000D02*
X19842101D01*
X13031918Y15422501D02*
X13271500D01*
X13031918Y15676500D02*
X13271500D01*
X19602518Y15422501D02*
X19842101D01*
X19602518Y15676500D02*
X19842101D01*
X13031918Y19923000D02*
X13271500D01*
X13031918Y20177000D02*
X13271500D01*
X19602518Y19923000D02*
X19842101D01*
X19602518Y20177000D02*
X19842101D01*
X13031918Y24423500D02*
X13271500D01*
X13031918Y24677499D02*
X13271500D01*
X19602518Y24423500D02*
X19842101D01*
X19602518Y24677499D02*
X19842101D01*
X13031918Y28923999D02*
X13271500D01*
X13031918Y29178000D02*
X13271500D01*
X19602518Y28923999D02*
X19842101D01*
X19602518Y29178000D02*
X19842101D01*
D45*
X8080400Y9434145D02*
D03*
Y10523846D02*
D03*
X14650999Y9434145D02*
D03*
Y10523846D02*
D03*
X8080400Y13934645D02*
D03*
Y15024345D02*
D03*
X14650999Y13934645D02*
D03*
Y15024345D02*
D03*
X8080400Y18435146D02*
D03*
Y19524846D02*
D03*
X14650999Y18435146D02*
D03*
Y19524846D02*
D03*
X8080400Y22935646D02*
D03*
Y24025346D02*
D03*
X14650999Y22935646D02*
D03*
Y24025346D02*
D03*
X8080400Y27436145D02*
D03*
Y28525845D02*
D03*
X14650999Y27436145D02*
D03*
Y28525845D02*
D03*
D46*
X11277600Y12293600D02*
D03*
X9028100D02*
D03*
X17848199D02*
D03*
X15598700D02*
D03*
X11277600Y16794099D02*
D03*
X9028100D02*
D03*
X17848199D02*
D03*
X15598700D02*
D03*
X11277600Y21294600D02*
D03*
X9028100D02*
D03*
X17848199D02*
D03*
X15598700D02*
D03*
X11277600Y25795099D02*
D03*
X9028100D02*
D03*
X17848199D02*
D03*
X15598700D02*
D03*
X11277600Y30295599D02*
D03*
X9028100D02*
D03*
X17848199D02*
D03*
X15598700D02*
D03*
D47*
X11531600Y12293600D02*
D03*
X9282100D02*
D03*
X18102200D02*
D03*
X15852699D02*
D03*
X11531600Y16794099D02*
D03*
X9282100D02*
D03*
X18102200D02*
D03*
X15852699D02*
D03*
X11531600Y21294600D02*
D03*
X9282100D02*
D03*
X18102200D02*
D03*
X15852699D02*
D03*
X11531600Y25795099D02*
D03*
X9282100D02*
D03*
X18102200D02*
D03*
X15852699D02*
D03*
X11531600Y30295599D02*
D03*
X9282100D02*
D03*
X18102200D02*
D03*
X15852699D02*
D03*
%TF.MD5,546ee73bf7d01ad25170ee725260e313*%
M02*
