%TF.GenerationSoftware,Altium Limited,Altium Designer,23.9.2 (47)*%
G04 Layer_Color=65535*
%FSLAX45Y45*%
%MOMM*%
%TF.SameCoordinates,AD479AB8-1AF9-481E-9C01-A3E3F564F201*%
%TF.FilePolarity,Positive*%
%TF.FileFunction,Legend,Top*%
%TF.Part,CustomerPanel*%
G01*
G75*
%TA.AperFunction,NonConductor*%
%ADD48C,0.20000*%
%ADD49C,0.50000*%
%ADD50C,0.12700*%
%ADD51C,0.25400*%
D48*
X9738100Y9780100D02*
G03*
X9738100Y9780100I-10000J0D01*
G01*
X9891800Y11620500D02*
X10021800D01*
X9561600D02*
X9691600D01*
X9182100Y11655500D02*
Y11785500D01*
Y11314200D02*
Y11444200D01*
X12381000Y8991600D02*
X12511000D01*
X12381000Y10045700D02*
X12511000D01*
X12381000Y11049000D02*
X12511000D01*
X11279200Y10793500D02*
Y10923500D01*
Y11123700D02*
Y11253700D01*
X11288700Y11441200D02*
Y11571200D01*
Y11771400D02*
Y11901400D01*
X11150600Y12166600D02*
X11658600D01*
Y12420600D01*
X11150600D02*
X11658600D01*
X11150600Y12166600D02*
Y12420600D01*
X8901100Y12166600D02*
X9409100D01*
Y12420600D01*
X8901100D02*
X9409100D01*
X8901100Y12166600D02*
Y12420600D01*
X16308701Y9780100D02*
G03*
X16308701Y9780100I-10000J0D01*
G01*
X16462399Y11620500D02*
X16592400D01*
X16132201D02*
X16262199D01*
X15752699Y11655500D02*
Y11785500D01*
Y11314200D02*
Y11444200D01*
X18951601Y8991600D02*
X19081599D01*
X18951601Y10045700D02*
X19081599D01*
X18951601Y11049000D02*
X19081599D01*
X17849800Y10793500D02*
Y10923500D01*
Y11123700D02*
Y11253700D01*
X17859300Y11441200D02*
Y11571200D01*
Y11771400D02*
Y11901400D01*
X17721201Y12166600D02*
X18229201D01*
Y12420600D01*
X17721201D02*
X18229201D01*
X17721201Y12166600D02*
Y12420600D01*
X15471700Y12166600D02*
X15979700D01*
Y12420600D01*
X15471700D02*
X15979700D01*
X15471700Y12166600D02*
Y12420600D01*
X9738100Y14280600D02*
G03*
X9738100Y14280600I-10000J0D01*
G01*
X9891800Y16121001D02*
X10021800D01*
X9561600D02*
X9691600D01*
X9182100Y16156000D02*
Y16286000D01*
Y15814700D02*
Y15944701D01*
X12381000Y13492101D02*
X12511000D01*
X12381000Y14546201D02*
X12511000D01*
X12381000Y15549500D02*
X12511000D01*
X11279200Y15294000D02*
Y15424001D01*
Y15624200D02*
Y15754201D01*
X11288700Y15941701D02*
Y16071700D01*
Y16271899D02*
Y16401900D01*
X11150600Y16667101D02*
X11658600D01*
Y16921100D01*
X11150600D02*
X11658600D01*
X11150600Y16667101D02*
Y16921100D01*
X8901100Y16667101D02*
X9409100D01*
Y16921100D01*
X8901100D02*
X9409100D01*
X8901100Y16667101D02*
Y16921100D01*
X16308701Y14280600D02*
G03*
X16308701Y14280600I-10000J0D01*
G01*
X16462399Y16121001D02*
X16592400D01*
X16132201D02*
X16262199D01*
X15752699Y16156000D02*
Y16286000D01*
Y15814700D02*
Y15944701D01*
X18951601Y13492101D02*
X19081599D01*
X18951601Y14546201D02*
X19081599D01*
X18951601Y15549500D02*
X19081599D01*
X17849800Y15294000D02*
Y15424001D01*
Y15624200D02*
Y15754201D01*
X17859300Y15941701D02*
Y16071700D01*
Y16271899D02*
Y16401900D01*
X17721201Y16667101D02*
X18229201D01*
Y16921100D01*
X17721201D02*
X18229201D01*
X17721201Y16667101D02*
Y16921100D01*
X15471700Y16667101D02*
X15979700D01*
Y16921100D01*
X15471700D02*
X15979700D01*
X15471700Y16667101D02*
Y16921100D01*
X9738100Y18781100D02*
G03*
X9738100Y18781100I-10000J0D01*
G01*
X9891800Y20621500D02*
X10021800D01*
X9561600D02*
X9691600D01*
X9182100Y20656500D02*
Y20786501D01*
Y20315199D02*
Y20445200D01*
X12381000Y17992599D02*
X12511000D01*
X12381000Y19046700D02*
X12511000D01*
X12381000Y20050000D02*
X12511000D01*
X11279200Y19794501D02*
Y19924500D01*
Y20124699D02*
Y20254700D01*
X11288700Y20442200D02*
Y20572200D01*
Y20772400D02*
Y20902400D01*
X11150600Y21167599D02*
X11658600D01*
Y21421600D01*
X11150600D02*
X11658600D01*
X11150600Y21167599D02*
Y21421600D01*
X8901100Y21167599D02*
X9409100D01*
Y21421600D01*
X8901100D02*
X9409100D01*
X8901100Y21167599D02*
Y21421600D01*
X16308701Y18781100D02*
G03*
X16308701Y18781100I-10000J0D01*
G01*
X16462399Y20621500D02*
X16592400D01*
X16132201D02*
X16262199D01*
X15752699Y20656500D02*
Y20786501D01*
Y20315199D02*
Y20445200D01*
X18951601Y17992599D02*
X19081599D01*
X18951601Y19046700D02*
X19081599D01*
X18951601Y20050000D02*
X19081599D01*
X17849800Y19794501D02*
Y19924500D01*
Y20124699D02*
Y20254700D01*
X17859300Y20442200D02*
Y20572200D01*
Y20772400D02*
Y20902400D01*
X17721201Y21167599D02*
X18229201D01*
Y21421600D01*
X17721201D02*
X18229201D01*
X17721201Y21167599D02*
Y21421600D01*
X15471700Y21167599D02*
X15979700D01*
Y21421600D01*
X15471700D02*
X15979700D01*
X15471700Y21167599D02*
Y21421600D01*
X9738100Y23281599D02*
G03*
X9738100Y23281599I-10000J0D01*
G01*
X9891800Y25122000D02*
X10021800D01*
X9561600D02*
X9691600D01*
X9182100Y25157001D02*
Y25287000D01*
Y24815700D02*
Y24945700D01*
X12381000Y22493100D02*
X12511000D01*
X12381000Y23547200D02*
X12511000D01*
X12381000Y24550500D02*
X12511000D01*
X11279200Y24295000D02*
Y24425000D01*
Y24625200D02*
Y24755200D01*
X11288700Y24942700D02*
Y25072701D01*
Y25272900D02*
Y25402901D01*
X11150600Y25668100D02*
X11658600D01*
Y25922101D01*
X11150600D02*
X11658600D01*
X11150600Y25668100D02*
Y25922101D01*
X8901100Y25668100D02*
X9409100D01*
Y25922101D01*
X8901100D02*
X9409100D01*
X8901100Y25668100D02*
Y25922101D01*
X16308701Y23281599D02*
G03*
X16308701Y23281599I-10000J0D01*
G01*
X16462399Y25122000D02*
X16592400D01*
X16132201D02*
X16262199D01*
X15752699Y25157001D02*
Y25287000D01*
Y24815700D02*
Y24945700D01*
X18951601Y22493100D02*
X19081599D01*
X18951601Y23547200D02*
X19081599D01*
X18951601Y24550500D02*
X19081599D01*
X17849800Y24295000D02*
Y24425000D01*
Y24625200D02*
Y24755200D01*
X17859300Y24942700D02*
Y25072701D01*
Y25272900D02*
Y25402901D01*
X17721201Y25668100D02*
X18229201D01*
Y25922101D01*
X17721201D02*
X18229201D01*
X17721201Y25668100D02*
Y25922101D01*
X15471700Y25668100D02*
X15979700D01*
Y25922101D01*
X15471700D02*
X15979700D01*
X15471700Y25668100D02*
Y25922101D01*
X9738100Y27782101D02*
G03*
X9738100Y27782101I-10000J0D01*
G01*
X9891800Y29622501D02*
X10021800D01*
X9561600D02*
X9691600D01*
X9182100Y29657501D02*
Y29787500D01*
Y29316199D02*
Y29446201D01*
X12381000Y26993600D02*
X12511000D01*
X12381000Y28047699D02*
X12511000D01*
X12381000Y29051001D02*
X12511000D01*
X11279200Y28795499D02*
Y28925500D01*
Y29125699D02*
Y29255701D01*
X11288700Y29443201D02*
Y29573199D01*
Y29773401D02*
Y29903400D01*
X11150600Y30168600D02*
X11658600D01*
Y30422601D01*
X11150600D02*
X11658600D01*
X11150600Y30168600D02*
Y30422601D01*
X8901100Y30168600D02*
X9409100D01*
Y30422601D01*
X8901100D02*
X9409100D01*
X8901100Y30168600D02*
Y30422601D01*
X16308701Y27782101D02*
G03*
X16308701Y27782101I-10000J0D01*
G01*
X16462399Y29622501D02*
X16592400D01*
X16132201D02*
X16262199D01*
X15752699Y29657501D02*
Y29787500D01*
Y29316199D02*
Y29446201D01*
X18951601Y26993600D02*
X19081599D01*
X18951601Y28047699D02*
X19081599D01*
X18951601Y29051001D02*
X19081599D01*
X17849800Y28795499D02*
Y28925500D01*
Y29125699D02*
Y29255701D01*
X17859300Y29443201D02*
Y29573199D01*
Y29773401D02*
Y29903400D01*
X17721201Y30168600D02*
X18229201D01*
Y30422601D01*
X17721201D02*
X18229201D01*
X17721201Y30168600D02*
Y30422601D01*
X15471700Y30168600D02*
X15979700D01*
Y30422601D01*
X15471700D02*
X15979700D01*
X15471700Y30168600D02*
Y30422601D01*
D49*
X12788900Y11480800D02*
X12966701D01*
X12788900Y8572500D02*
Y11480800D01*
Y8572500D02*
X12966701D01*
Y8737600D01*
Y11315700D02*
Y11480800D01*
Y11315700D02*
X13576300D01*
X13665199Y11226800D01*
Y9131300D02*
Y11226800D01*
Y8839200D02*
Y9131300D01*
X13563600Y8737600D02*
X13665199Y8839200D01*
X12966701Y8737600D02*
X13563600D01*
X8131175Y10772746D02*
X8191500D01*
X8039100Y10671146D02*
Y10772746D01*
X8131175D01*
X8191500Y10658446D02*
Y10772746D01*
X8039100Y9185246D02*
Y9299546D01*
Y9185246D02*
X8191500D01*
Y9299546D01*
X7658100Y10658446D02*
X8509000D01*
Y9299546D02*
Y10658446D01*
X7658100Y9299546D02*
X8509000D01*
X7658100D02*
Y10658446D01*
X19359500Y11480800D02*
X19537300D01*
X19359500Y8572500D02*
Y11480800D01*
Y8572500D02*
X19537300D01*
Y8737600D01*
Y11315700D02*
Y11480800D01*
Y11315700D02*
X20146899D01*
X20235800Y11226800D01*
Y9131300D02*
Y11226800D01*
Y8839200D02*
Y9131300D01*
X20134200Y8737600D02*
X20235800Y8839200D01*
X19537300Y8737600D02*
X20134200D01*
X14701775Y10772746D02*
X14762100D01*
X14609700Y10671146D02*
Y10772746D01*
X14701775D01*
X14762100Y10658446D02*
Y10772746D01*
X14609700Y9185246D02*
Y9299546D01*
Y9185246D02*
X14762100D01*
Y9299546D01*
X14228700Y10658446D02*
X15079601D01*
Y9299546D02*
Y10658446D01*
X14228700Y9299546D02*
X15079601D01*
X14228700D02*
Y10658446D01*
X12788900Y15981300D02*
X12966701D01*
X12788900Y13073000D02*
Y15981300D01*
Y13073000D02*
X12966701D01*
Y13238100D01*
Y15816200D02*
Y15981300D01*
Y15816200D02*
X13576300D01*
X13665199Y15727299D01*
Y13631799D02*
Y15727299D01*
Y13339700D02*
Y13631799D01*
X13563600Y13238100D02*
X13665199Y13339700D01*
X12966701Y13238100D02*
X13563600D01*
X8131175Y15273245D02*
X8191500D01*
X8039100Y15171646D02*
Y15273245D01*
X8131175D01*
X8191500Y15158946D02*
Y15273245D01*
X8039100Y13685745D02*
Y13800046D01*
Y13685745D02*
X8191500D01*
Y13800046D01*
X7658100Y15158946D02*
X8509000D01*
Y13800046D02*
Y15158946D01*
X7658100Y13800046D02*
X8509000D01*
X7658100D02*
Y15158946D01*
X19359500Y15981300D02*
X19537300D01*
X19359500Y13073000D02*
Y15981300D01*
Y13073000D02*
X19537300D01*
Y13238100D01*
Y15816200D02*
Y15981300D01*
Y15816200D02*
X20146899D01*
X20235800Y15727299D01*
Y13631799D02*
Y15727299D01*
Y13339700D02*
Y13631799D01*
X20134200Y13238100D02*
X20235800Y13339700D01*
X19537300Y13238100D02*
X20134200D01*
X14701775Y15273245D02*
X14762100D01*
X14609700Y15171646D02*
Y15273245D01*
X14701775D01*
X14762100Y15158946D02*
Y15273245D01*
X14609700Y13685745D02*
Y13800046D01*
Y13685745D02*
X14762100D01*
Y13800046D01*
X14228700Y15158946D02*
X15079601D01*
Y13800046D02*
Y15158946D01*
X14228700Y13800046D02*
X15079601D01*
X14228700D02*
Y15158946D01*
X12788900Y20481799D02*
X12966701D01*
X12788900Y17573500D02*
Y20481799D01*
Y17573500D02*
X12966701D01*
Y17738600D01*
Y20316701D02*
Y20481799D01*
Y20316701D02*
X13576300D01*
X13665199Y20227800D01*
Y18132300D02*
Y20227800D01*
Y17840199D02*
Y18132300D01*
X13563600Y17738600D02*
X13665199Y17840199D01*
X12966701Y17738600D02*
X13563600D01*
X8131175Y19773746D02*
X8191500D01*
X8039100Y19672147D02*
Y19773746D01*
X8131175D01*
X8191500Y19659447D02*
Y19773746D01*
X8039100Y18186246D02*
Y18300546D01*
Y18186246D02*
X8191500D01*
Y18300546D01*
X7658100Y19659447D02*
X8509000D01*
Y18300546D02*
Y19659447D01*
X7658100Y18300546D02*
X8509000D01*
X7658100D02*
Y19659447D01*
X19359500Y20481799D02*
X19537300D01*
X19359500Y17573500D02*
Y20481799D01*
Y17573500D02*
X19537300D01*
Y17738600D01*
Y20316701D02*
Y20481799D01*
Y20316701D02*
X20146899D01*
X20235800Y20227800D01*
Y18132300D02*
Y20227800D01*
Y17840199D02*
Y18132300D01*
X20134200Y17738600D02*
X20235800Y17840199D01*
X19537300Y17738600D02*
X20134200D01*
X14701775Y19773746D02*
X14762100D01*
X14609700Y19672147D02*
Y19773746D01*
X14701775D01*
X14762100Y19659447D02*
Y19773746D01*
X14609700Y18186246D02*
Y18300546D01*
Y18186246D02*
X14762100D01*
Y18300546D01*
X14228700Y19659447D02*
X15079601D01*
Y18300546D02*
Y19659447D01*
X14228700Y18300546D02*
X15079601D01*
X14228700D02*
Y19659447D01*
X12788900Y24982300D02*
X12966701D01*
X12788900Y22074001D02*
Y24982300D01*
Y22074001D02*
X12966701D01*
Y22239101D01*
Y24817200D02*
Y24982300D01*
Y24817200D02*
X13576300D01*
X13665199Y24728300D01*
Y22632800D02*
Y24728300D01*
Y22340700D02*
Y22632800D01*
X13563600Y22239101D02*
X13665199Y22340700D01*
X12966701Y22239101D02*
X13563600D01*
X8131175Y24274246D02*
X8191500D01*
X8039100Y24172646D02*
Y24274246D01*
X8131175D01*
X8191500Y24159946D02*
Y24274246D01*
X8039100Y22686746D02*
Y22801047D01*
Y22686746D02*
X8191500D01*
Y22801047D01*
X7658100Y24159946D02*
X8509000D01*
Y22801047D02*
Y24159946D01*
X7658100Y22801047D02*
X8509000D01*
X7658100D02*
Y24159946D01*
X19359500Y24982300D02*
X19537300D01*
X19359500Y22074001D02*
Y24982300D01*
Y22074001D02*
X19537300D01*
Y22239101D01*
Y24817200D02*
Y24982300D01*
Y24817200D02*
X20146899D01*
X20235800Y24728300D01*
Y22632800D02*
Y24728300D01*
Y22340700D02*
Y22632800D01*
X20134200Y22239101D02*
X20235800Y22340700D01*
X19537300Y22239101D02*
X20134200D01*
X14701775Y24274246D02*
X14762100D01*
X14609700Y24172646D02*
Y24274246D01*
X14701775D01*
X14762100Y24159946D02*
Y24274246D01*
X14609700Y22686746D02*
Y22801047D01*
Y22686746D02*
X14762100D01*
Y22801047D01*
X14228700Y24159946D02*
X15079601D01*
Y22801047D02*
Y24159946D01*
X14228700Y22801047D02*
X15079601D01*
X14228700D02*
Y24159946D01*
X12788900Y29482800D02*
X12966701D01*
X12788900Y26574500D02*
Y29482800D01*
Y26574500D02*
X12966701D01*
Y26739600D01*
Y29317700D02*
Y29482800D01*
Y29317700D02*
X13576300D01*
X13665199Y29228799D01*
Y27133301D02*
Y29228799D01*
Y26841199D02*
Y27133301D01*
X13563600Y26739600D02*
X13665199Y26841199D01*
X12966701Y26739600D02*
X13563600D01*
X8131175Y28774747D02*
X8191500D01*
X8039100Y28673145D02*
Y28774747D01*
X8131175D01*
X8191500Y28660446D02*
Y28774747D01*
X8039100Y27187247D02*
Y27301547D01*
Y27187247D02*
X8191500D01*
Y27301547D01*
X7658100Y28660446D02*
X8509000D01*
Y27301547D02*
Y28660446D01*
X7658100Y27301547D02*
X8509000D01*
X7658100D02*
Y28660446D01*
X19359500Y29482800D02*
X19537300D01*
X19359500Y26574500D02*
Y29482800D01*
Y26574500D02*
X19537300D01*
Y26739600D01*
Y29317700D02*
Y29482800D01*
Y29317700D02*
X20146899D01*
X20235800Y29228799D01*
Y27133301D02*
Y29228799D01*
Y26841199D02*
Y27133301D01*
X20134200Y26739600D02*
X20235800Y26841199D01*
X19537300Y26739600D02*
X20134200D01*
X14701775Y28774747D02*
X14762100D01*
X14609700Y28673145D02*
Y28774747D01*
X14701775D01*
X14762100Y28660446D02*
Y28774747D01*
X14609700Y27187247D02*
Y27301547D01*
Y27187247D02*
X14762100D01*
Y27301547D01*
X14228700Y28660446D02*
X15079601D01*
Y27301547D02*
Y28660446D01*
X14228700Y27301547D02*
X15079601D01*
X14228700D02*
Y28660446D01*
D50*
X9132600Y10257600D02*
X9485600D01*
X9132600Y9757600D02*
X9485600D01*
X15703200Y10257600D02*
X16056200D01*
X15703200Y9757600D02*
X16056200D01*
X9132600Y14758099D02*
X9485600D01*
X9132600Y14258099D02*
X9485600D01*
X15703200Y14758099D02*
X16056200D01*
X15703200Y14258099D02*
X16056200D01*
X9132600Y19258600D02*
X9485600D01*
X9132600Y18758600D02*
X9485600D01*
X15703200Y19258600D02*
X16056200D01*
X15703200Y18758600D02*
X16056200D01*
X9132600Y23759100D02*
X9485600D01*
X9132600Y23259100D02*
X9485600D01*
X15703200Y23759100D02*
X16056200D01*
X15703200Y23259100D02*
X16056200D01*
X9132600Y28259601D02*
X9485600D01*
X9132600Y27759601D02*
X9485600D01*
X15703200Y28259601D02*
X16056200D01*
X15703200Y27759601D02*
X16056200D01*
D51*
X12903185Y11899867D02*
X12928577Y11925259D01*
Y11976042D01*
X12903185Y12001434D01*
X12801617D01*
X12776225Y11976042D01*
Y11925259D01*
X12801617Y11899867D01*
X12776225Y11849083D02*
X12928577D01*
X12776225Y11747516D01*
X12928577D01*
X12776225Y11620557D02*
X12928577D01*
X12852400Y11696733D01*
Y11595165D01*
X7708917Y10896633D02*
X7683525Y10871241D01*
Y10820458D01*
X7708917Y10795066D01*
X7810483D01*
X7835875Y10820458D01*
Y10871241D01*
X7810483Y10896633D01*
X7835875Y10947417D02*
X7683525D01*
X7835875Y11048984D01*
X7683525D01*
X7708917Y11099767D02*
X7683525Y11125159D01*
Y11175943D01*
X7708917Y11201334D01*
X7734308D01*
X7759700Y11175943D01*
Y11150551D01*
Y11175943D01*
X7785092Y11201334D01*
X7810483D01*
X7835875Y11175943D01*
Y11125159D01*
X7810483Y11099767D01*
X10147333Y12064975D02*
Y11938017D01*
X10172725Y11912625D01*
X10223508D01*
X10248900Y11938017D01*
Y12064975D01*
X10299684Y11912625D02*
X10350467D01*
X10325076D01*
Y12064975D01*
X10299684Y12039583D01*
X9918717Y11277600D02*
X9893325Y11252208D01*
Y11201425D01*
X9918717Y11176033D01*
X10020283D01*
X10045675Y11201425D01*
Y11252208D01*
X10020283Y11277600D01*
X10045675Y11328384D02*
Y11379167D01*
Y11353776D01*
X9893325D01*
X9918717Y11328384D01*
X9563117Y11188708D02*
X9537725Y11163317D01*
Y11112533D01*
X9563117Y11087141D01*
X9664683D01*
X9690075Y11112533D01*
Y11163317D01*
X9664683Y11188708D01*
X9690075Y11341059D02*
Y11239492D01*
X9588508Y11341059D01*
X9563117D01*
X9537725Y11315667D01*
Y11264884D01*
X9563117Y11239492D01*
X9055141Y12039575D02*
Y11887225D01*
X9131317D01*
X9156708Y11912617D01*
Y12014183D01*
X9131317Y12039575D01*
X9055141D01*
X9309059Y11887225D02*
X9207492D01*
X9309059Y11988792D01*
Y12014183D01*
X9283667Y12039575D01*
X9232884D01*
X9207492Y12014183D01*
X9055141Y11099825D02*
Y11252175D01*
X9131317D01*
X9156708Y11226783D01*
Y11176000D01*
X9131317Y11150608D01*
X9055141D01*
X9105925D02*
X9156708Y11099825D01*
X9309059D02*
X9207492D01*
X9309059Y11201392D01*
Y11226783D01*
X9283667Y11252175D01*
X9232884D01*
X9207492Y11226783D01*
X9169441Y10464775D02*
Y10337817D01*
X9194833Y10312425D01*
X9245617D01*
X9271008Y10337817D01*
Y10464775D01*
X9423359Y10312425D02*
X9321792D01*
X9423359Y10413992D01*
Y10439383D01*
X9397967Y10464775D01*
X9347184D01*
X9321792Y10439383D01*
X12306275Y8890041D02*
X12153925D01*
Y8966217D01*
X12179317Y8991608D01*
X12230100D01*
X12255492Y8966217D01*
Y8890041D01*
Y8940825D02*
X12306275Y8991608D01*
X12153925Y9143959D02*
X12179317Y9093175D01*
X12230100Y9042392D01*
X12280883D01*
X12306275Y9067784D01*
Y9118567D01*
X12280883Y9143959D01*
X12255492D01*
X12230100Y9118567D01*
Y9042392D01*
X12293575Y9918741D02*
X12141225D01*
Y9994917D01*
X12166617Y10020308D01*
X12217400D01*
X12242792Y9994917D01*
Y9918741D01*
Y9969525D02*
X12293575Y10020308D01*
Y10147267D02*
X12141225D01*
X12217400Y10071092D01*
Y10172659D01*
X12318975Y10909341D02*
X12166625D01*
Y10985517D01*
X12192017Y11010908D01*
X12242800D01*
X12268192Y10985517D01*
Y10909341D01*
Y10960125D02*
X12318975Y11010908D01*
X12192017Y11061692D02*
X12166625Y11087084D01*
Y11137867D01*
X12192017Y11163259D01*
X12217408D01*
X12242800Y11137867D01*
Y11112475D01*
Y11137867D01*
X12268192Y11163259D01*
X12293583D01*
X12318975Y11137867D01*
Y11087084D01*
X12293583Y11061692D01*
X10906768Y10894043D02*
X10881377Y10919435D01*
X10830593D01*
X10805201Y10894043D01*
Y10792477D01*
X10830593Y10767085D01*
X10881377D01*
X10906768Y10792477D01*
X11033727Y10767085D02*
Y10919435D01*
X10957552Y10843260D01*
X11059119D01*
X11626309Y11239184D02*
X11600917Y11264576D01*
X11550133D01*
X11524741Y11239184D01*
Y11137617D01*
X11550133Y11112225D01*
X11600917D01*
X11626309Y11137617D01*
X11677092Y11239184D02*
X11702484Y11264576D01*
X11753268D01*
X11778659Y11239184D01*
Y11213792D01*
X11753268Y11188400D01*
X11727876D01*
X11753268D01*
X11778659Y11163008D01*
Y11137617D01*
X11753268Y11112225D01*
X11702484D01*
X11677092Y11137617D01*
X11544333Y11595075D02*
Y11442725D01*
X11620508D01*
X11645900Y11468117D01*
Y11569683D01*
X11620508Y11595075D01*
X11544333D01*
X11696684Y11442725D02*
X11747467D01*
X11722076D01*
Y11595075D01*
X11696684Y11569683D01*
X11531633Y11772925D02*
Y11925275D01*
X11607808D01*
X11633200Y11899883D01*
Y11849100D01*
X11607808Y11823708D01*
X11531633D01*
X11582417D02*
X11633200Y11772925D01*
X11683984D02*
X11734767D01*
X11709376D01*
Y11925275D01*
X11683984Y11899883D01*
X11849125Y12344383D02*
X11823733Y12369775D01*
X11772950D01*
X11747558Y12344383D01*
Y12242817D01*
X11772950Y12217425D01*
X11823733D01*
X11849125Y12242817D01*
X11899908Y12217425D02*
Y12369775D01*
X12001476Y12217425D01*
Y12369775D01*
X12052259Y12217425D02*
X12103043D01*
X12077651D01*
Y12369775D01*
X12052259Y12344383D01*
X8509033Y12369783D02*
X8483641Y12395175D01*
X8432858D01*
X8407466Y12369783D01*
Y12268217D01*
X8432858Y12242825D01*
X8483641D01*
X8509033Y12268217D01*
X8559817Y12242825D02*
Y12395175D01*
X8661384Y12242825D01*
Y12395175D01*
X8813734Y12242825D02*
X8712167D01*
X8813734Y12344392D01*
Y12369783D01*
X8788343Y12395175D01*
X8737559D01*
X8712167Y12369783D01*
X19473784Y11899867D02*
X19499176Y11925259D01*
Y11976042D01*
X19473784Y12001434D01*
X19372217D01*
X19346825Y11976042D01*
Y11925259D01*
X19372217Y11899867D01*
X19346825Y11849083D02*
X19499176D01*
X19346825Y11747516D01*
X19499176D01*
X19346825Y11620557D02*
X19499176D01*
X19423000Y11696733D01*
Y11595165D01*
X14279517Y10896633D02*
X14254124Y10871241D01*
Y10820458D01*
X14279517Y10795066D01*
X14381084D01*
X14406474Y10820458D01*
Y10871241D01*
X14381084Y10896633D01*
X14406474Y10947417D02*
X14254124D01*
X14406474Y11048984D01*
X14254124D01*
X14279517Y11099767D02*
X14254124Y11125159D01*
Y11175943D01*
X14279517Y11201334D01*
X14304909D01*
X14330299Y11175943D01*
Y11150551D01*
Y11175943D01*
X14355692Y11201334D01*
X14381084D01*
X14406474Y11175943D01*
Y11125159D01*
X14381084Y11099767D01*
X16717934Y12064975D02*
Y11938017D01*
X16743324Y11912625D01*
X16794109D01*
X16819501Y11938017D01*
Y12064975D01*
X16870284Y11912625D02*
X16921066D01*
X16895676D01*
Y12064975D01*
X16870284Y12039583D01*
X16489317Y11277600D02*
X16463925Y11252208D01*
Y11201425D01*
X16489317Y11176033D01*
X16590884D01*
X16616275Y11201425D01*
Y11252208D01*
X16590884Y11277600D01*
X16616275Y11328384D02*
Y11379167D01*
Y11353776D01*
X16463925D01*
X16489317Y11328384D01*
X16133717Y11188708D02*
X16108325Y11163317D01*
Y11112533D01*
X16133717Y11087141D01*
X16235284D01*
X16260675Y11112533D01*
Y11163317D01*
X16235284Y11188708D01*
X16260675Y11341059D02*
Y11239492D01*
X16159108Y11341059D01*
X16133717D01*
X16108325Y11315667D01*
Y11264884D01*
X16133717Y11239492D01*
X15625742Y12039575D02*
Y11887225D01*
X15701917D01*
X15727309Y11912617D01*
Y12014183D01*
X15701917Y12039575D01*
X15625742D01*
X15879659Y11887225D02*
X15778091D01*
X15879659Y11988792D01*
Y12014183D01*
X15854266Y12039575D01*
X15803484D01*
X15778091Y12014183D01*
X15625742Y11099825D02*
Y11252175D01*
X15701917D01*
X15727309Y11226783D01*
Y11176000D01*
X15701917Y11150608D01*
X15625742D01*
X15676524D02*
X15727309Y11099825D01*
X15879659D02*
X15778091D01*
X15879659Y11201392D01*
Y11226783D01*
X15854266Y11252175D01*
X15803484D01*
X15778091Y11226783D01*
X15740041Y10464775D02*
Y10337817D01*
X15765433Y10312425D01*
X15816217D01*
X15841608Y10337817D01*
Y10464775D01*
X15993959Y10312425D02*
X15892392D01*
X15993959Y10413992D01*
Y10439383D01*
X15968567Y10464775D01*
X15917784D01*
X15892392Y10439383D01*
X18876875Y8890041D02*
X18724525D01*
Y8966217D01*
X18749918Y8991608D01*
X18800700D01*
X18826093Y8966217D01*
Y8890041D01*
Y8940825D02*
X18876875Y8991608D01*
X18724525Y9143959D02*
X18749918Y9093175D01*
X18800700Y9042392D01*
X18851485D01*
X18876875Y9067784D01*
Y9118567D01*
X18851485Y9143959D01*
X18826093D01*
X18800700Y9118567D01*
Y9042392D01*
X18864175Y9918741D02*
X18711826D01*
Y9994917D01*
X18737218Y10020308D01*
X18788000D01*
X18813393Y9994917D01*
Y9918741D01*
Y9969525D02*
X18864175Y10020308D01*
Y10147267D02*
X18711826D01*
X18788000Y10071092D01*
Y10172659D01*
X18889575Y10909341D02*
X18737225D01*
Y10985517D01*
X18762617Y11010908D01*
X18813400D01*
X18838792Y10985517D01*
Y10909341D01*
Y10960125D02*
X18889575Y11010908D01*
X18762617Y11061692D02*
X18737225Y11087084D01*
Y11137867D01*
X18762617Y11163259D01*
X18788008D01*
X18813400Y11137867D01*
Y11112475D01*
Y11137867D01*
X18838792Y11163259D01*
X18864185D01*
X18889575Y11137867D01*
Y11087084D01*
X18864185Y11061692D01*
X17477368Y10894043D02*
X17451978Y10919435D01*
X17401193D01*
X17375801Y10894043D01*
Y10792477D01*
X17401193Y10767085D01*
X17451978D01*
X17477368Y10792477D01*
X17604327Y10767085D02*
Y10919435D01*
X17528152Y10843260D01*
X17629720D01*
X18196909Y11239184D02*
X18171516Y11264576D01*
X18120734D01*
X18095341Y11239184D01*
Y11137617D01*
X18120734Y11112225D01*
X18171516D01*
X18196909Y11137617D01*
X18247691Y11239184D02*
X18273083Y11264576D01*
X18323868D01*
X18349258Y11239184D01*
Y11213792D01*
X18323868Y11188400D01*
X18298476D01*
X18323868D01*
X18349258Y11163008D01*
Y11137617D01*
X18323868Y11112225D01*
X18273083D01*
X18247691Y11137617D01*
X18114932Y11595075D02*
Y11442725D01*
X18191109D01*
X18216499Y11468117D01*
Y11569683D01*
X18191109Y11595075D01*
X18114932D01*
X18267284Y11442725D02*
X18318066D01*
X18292676D01*
Y11595075D01*
X18267284Y11569683D01*
X18102232Y11772925D02*
Y11925275D01*
X18178407D01*
X18203799Y11899883D01*
Y11849100D01*
X18178407Y11823708D01*
X18102232D01*
X18153017D02*
X18203799Y11772925D01*
X18254584D02*
X18305367D01*
X18279976D01*
Y11925275D01*
X18254584Y11899883D01*
X18419725Y12344383D02*
X18394333Y12369775D01*
X18343550D01*
X18318158Y12344383D01*
Y12242817D01*
X18343550Y12217425D01*
X18394333D01*
X18419725Y12242817D01*
X18470508Y12217425D02*
Y12369775D01*
X18572076Y12217425D01*
Y12369775D01*
X18622859Y12217425D02*
X18673643D01*
X18648251D01*
Y12369775D01*
X18622859Y12344383D01*
X15079633Y12369783D02*
X15054240Y12395175D01*
X15003458D01*
X14978065Y12369783D01*
Y12268217D01*
X15003458Y12242825D01*
X15054240D01*
X15079633Y12268217D01*
X15130417Y12242825D02*
Y12395175D01*
X15231984Y12242825D01*
Y12395175D01*
X15384334Y12242825D02*
X15282767D01*
X15384334Y12344392D01*
Y12369783D01*
X15358943Y12395175D01*
X15308159D01*
X15282767Y12369783D01*
X12903185Y16400368D02*
X12928577Y16425758D01*
Y16476543D01*
X12903185Y16501933D01*
X12801617D01*
X12776225Y16476543D01*
Y16425758D01*
X12801617Y16400368D01*
X12776225Y16349583D02*
X12928577D01*
X12776225Y16248016D01*
X12928577D01*
X12776225Y16121057D02*
X12928577D01*
X12852400Y16197234D01*
Y16095665D01*
X7708917Y15397133D02*
X7683525Y15371741D01*
Y15320958D01*
X7708917Y15295566D01*
X7810483D01*
X7835875Y15320958D01*
Y15371741D01*
X7810483Y15397133D01*
X7835875Y15447917D02*
X7683525D01*
X7835875Y15549484D01*
X7683525D01*
X7708917Y15600267D02*
X7683525Y15625659D01*
Y15676443D01*
X7708917Y15701834D01*
X7734308D01*
X7759700Y15676443D01*
Y15651051D01*
Y15676443D01*
X7785092Y15701834D01*
X7810483D01*
X7835875Y15676443D01*
Y15625659D01*
X7810483Y15600267D01*
X10147333Y16565475D02*
Y16438518D01*
X10172725Y16413126D01*
X10223508D01*
X10248900Y16438518D01*
Y16565475D01*
X10299684Y16413126D02*
X10350467D01*
X10325076D01*
Y16565475D01*
X10299684Y16540083D01*
X9918717Y15778101D02*
X9893325Y15752708D01*
Y15701926D01*
X9918717Y15676534D01*
X10020283D01*
X10045675Y15701926D01*
Y15752708D01*
X10020283Y15778101D01*
X10045675Y15828883D02*
Y15879668D01*
Y15854276D01*
X9893325D01*
X9918717Y15828883D01*
X9563117Y15689207D02*
X9537725Y15663817D01*
Y15613033D01*
X9563117Y15587640D01*
X9664683D01*
X9690075Y15613033D01*
Y15663817D01*
X9664683Y15689207D01*
X9690075Y15841559D02*
Y15739992D01*
X9588508Y15841559D01*
X9563117D01*
X9537725Y15816167D01*
Y15765384D01*
X9563117Y15739992D01*
X9055141Y16540076D02*
Y16387724D01*
X9131317D01*
X9156708Y16413116D01*
Y16514684D01*
X9131317Y16540076D01*
X9055141D01*
X9309059Y16387724D02*
X9207492D01*
X9309059Y16489291D01*
Y16514684D01*
X9283667Y16540076D01*
X9232884D01*
X9207492Y16514684D01*
X9055141Y15600325D02*
Y15752675D01*
X9131317D01*
X9156708Y15727284D01*
Y15676500D01*
X9131317Y15651108D01*
X9055141D01*
X9105925D02*
X9156708Y15600325D01*
X9309059D02*
X9207492D01*
X9309059Y15701892D01*
Y15727284D01*
X9283667Y15752675D01*
X9232884D01*
X9207492Y15727284D01*
X9169441Y14965276D02*
Y14838316D01*
X9194833Y14812926D01*
X9245617D01*
X9271008Y14838316D01*
Y14965276D01*
X9423359Y14812926D02*
X9321792D01*
X9423359Y14914491D01*
Y14939883D01*
X9397967Y14965276D01*
X9347184D01*
X9321792Y14939883D01*
X12306275Y13390541D02*
X12153925D01*
Y13466718D01*
X12179317Y13492108D01*
X12230100D01*
X12255492Y13466718D01*
Y13390541D01*
Y13441325D02*
X12306275Y13492108D01*
X12153925Y13644460D02*
X12179317Y13593675D01*
X12230100Y13542892D01*
X12280883D01*
X12306275Y13568285D01*
Y13619067D01*
X12280883Y13644460D01*
X12255492D01*
X12230100Y13619067D01*
Y13542892D01*
X12293575Y14419241D02*
X12141225D01*
Y14495416D01*
X12166617Y14520808D01*
X12217400D01*
X12242792Y14495416D01*
Y14419241D01*
Y14470026D02*
X12293575Y14520808D01*
Y14647768D02*
X12141225D01*
X12217400Y14571593D01*
Y14673158D01*
X12318975Y15409840D02*
X12166625D01*
Y15486017D01*
X12192017Y15511407D01*
X12242800D01*
X12268192Y15486017D01*
Y15409840D01*
Y15460625D02*
X12318975Y15511407D01*
X12192017Y15562192D02*
X12166625Y15587584D01*
Y15638367D01*
X12192017Y15663759D01*
X12217408D01*
X12242800Y15638367D01*
Y15612975D01*
Y15638367D01*
X12268192Y15663759D01*
X12293583D01*
X12318975Y15638367D01*
Y15587584D01*
X12293583Y15562192D01*
X10906768Y15394543D02*
X10881377Y15419936D01*
X10830593D01*
X10805201Y15394543D01*
Y15292976D01*
X10830593Y15267586D01*
X10881377D01*
X10906768Y15292976D01*
X11033727Y15267586D02*
Y15419936D01*
X10957552Y15343761D01*
X11059119D01*
X11626309Y15739684D02*
X11600917Y15765076D01*
X11550133D01*
X11524741Y15739684D01*
Y15638116D01*
X11550133Y15612724D01*
X11600917D01*
X11626309Y15638116D01*
X11677092Y15739684D02*
X11702484Y15765076D01*
X11753268D01*
X11778659Y15739684D01*
Y15714291D01*
X11753268Y15688901D01*
X11727876D01*
X11753268D01*
X11778659Y15663509D01*
Y15638116D01*
X11753268Y15612724D01*
X11702484D01*
X11677092Y15638116D01*
X11544333Y16095575D02*
Y15943225D01*
X11620508D01*
X11645900Y15968617D01*
Y16070184D01*
X11620508Y16095575D01*
X11544333D01*
X11696684Y15943225D02*
X11747467D01*
X11722076D01*
Y16095575D01*
X11696684Y16070184D01*
X11531633Y16273425D02*
Y16425775D01*
X11607808D01*
X11633200Y16400385D01*
Y16349600D01*
X11607808Y16324208D01*
X11531633D01*
X11582417D02*
X11633200Y16273425D01*
X11683984D02*
X11734767D01*
X11709376D01*
Y16425775D01*
X11683984Y16400385D01*
X11849125Y16844884D02*
X11823733Y16870274D01*
X11772950D01*
X11747558Y16844884D01*
Y16743317D01*
X11772950Y16717924D01*
X11823733D01*
X11849125Y16743317D01*
X11899908Y16717924D02*
Y16870274D01*
X12001476Y16717924D01*
Y16870274D01*
X12052259Y16717924D02*
X12103043D01*
X12077651D01*
Y16870274D01*
X12052259Y16844884D01*
X8509033Y16870284D02*
X8483641Y16895676D01*
X8432858D01*
X8407466Y16870284D01*
Y16768716D01*
X8432858Y16743324D01*
X8483641D01*
X8509033Y16768716D01*
X8559817Y16743324D02*
Y16895676D01*
X8661384Y16743324D01*
Y16895676D01*
X8813734Y16743324D02*
X8712167D01*
X8813734Y16844891D01*
Y16870284D01*
X8788343Y16895676D01*
X8737559D01*
X8712167Y16870284D01*
X19473784Y16400368D02*
X19499176Y16425758D01*
Y16476543D01*
X19473784Y16501933D01*
X19372217D01*
X19346825Y16476543D01*
Y16425758D01*
X19372217Y16400368D01*
X19346825Y16349583D02*
X19499176D01*
X19346825Y16248016D01*
X19499176D01*
X19346825Y16121057D02*
X19499176D01*
X19423000Y16197234D01*
Y16095665D01*
X14279517Y15397133D02*
X14254124Y15371741D01*
Y15320958D01*
X14279517Y15295566D01*
X14381084D01*
X14406474Y15320958D01*
Y15371741D01*
X14381084Y15397133D01*
X14406474Y15447917D02*
X14254124D01*
X14406474Y15549484D01*
X14254124D01*
X14279517Y15600267D02*
X14254124Y15625659D01*
Y15676443D01*
X14279517Y15701834D01*
X14304909D01*
X14330299Y15676443D01*
Y15651051D01*
Y15676443D01*
X14355692Y15701834D01*
X14381084D01*
X14406474Y15676443D01*
Y15625659D01*
X14381084Y15600267D01*
X16717934Y16565475D02*
Y16438518D01*
X16743324Y16413126D01*
X16794109D01*
X16819501Y16438518D01*
Y16565475D01*
X16870284Y16413126D02*
X16921066D01*
X16895676D01*
Y16565475D01*
X16870284Y16540083D01*
X16489317Y15778101D02*
X16463925Y15752708D01*
Y15701926D01*
X16489317Y15676534D01*
X16590884D01*
X16616275Y15701926D01*
Y15752708D01*
X16590884Y15778101D01*
X16616275Y15828883D02*
Y15879668D01*
Y15854276D01*
X16463925D01*
X16489317Y15828883D01*
X16133717Y15689207D02*
X16108325Y15663817D01*
Y15613033D01*
X16133717Y15587640D01*
X16235284D01*
X16260675Y15613033D01*
Y15663817D01*
X16235284Y15689207D01*
X16260675Y15841559D02*
Y15739992D01*
X16159108Y15841559D01*
X16133717D01*
X16108325Y15816167D01*
Y15765384D01*
X16133717Y15739992D01*
X15625742Y16540076D02*
Y16387724D01*
X15701917D01*
X15727309Y16413116D01*
Y16514684D01*
X15701917Y16540076D01*
X15625742D01*
X15879659Y16387724D02*
X15778091D01*
X15879659Y16489291D01*
Y16514684D01*
X15854266Y16540076D01*
X15803484D01*
X15778091Y16514684D01*
X15625742Y15600325D02*
Y15752675D01*
X15701917D01*
X15727309Y15727284D01*
Y15676500D01*
X15701917Y15651108D01*
X15625742D01*
X15676524D02*
X15727309Y15600325D01*
X15879659D02*
X15778091D01*
X15879659Y15701892D01*
Y15727284D01*
X15854266Y15752675D01*
X15803484D01*
X15778091Y15727284D01*
X15740041Y14965276D02*
Y14838316D01*
X15765433Y14812926D01*
X15816217D01*
X15841608Y14838316D01*
Y14965276D01*
X15993959Y14812926D02*
X15892392D01*
X15993959Y14914491D01*
Y14939883D01*
X15968567Y14965276D01*
X15917784D01*
X15892392Y14939883D01*
X18876875Y13390541D02*
X18724525D01*
Y13466718D01*
X18749918Y13492108D01*
X18800700D01*
X18826093Y13466718D01*
Y13390541D01*
Y13441325D02*
X18876875Y13492108D01*
X18724525Y13644460D02*
X18749918Y13593675D01*
X18800700Y13542892D01*
X18851485D01*
X18876875Y13568285D01*
Y13619067D01*
X18851485Y13644460D01*
X18826093D01*
X18800700Y13619067D01*
Y13542892D01*
X18864175Y14419241D02*
X18711826D01*
Y14495416D01*
X18737218Y14520808D01*
X18788000D01*
X18813393Y14495416D01*
Y14419241D01*
Y14470026D02*
X18864175Y14520808D01*
Y14647768D02*
X18711826D01*
X18788000Y14571593D01*
Y14673158D01*
X18889575Y15409840D02*
X18737225D01*
Y15486017D01*
X18762617Y15511407D01*
X18813400D01*
X18838792Y15486017D01*
Y15409840D01*
Y15460625D02*
X18889575Y15511407D01*
X18762617Y15562192D02*
X18737225Y15587584D01*
Y15638367D01*
X18762617Y15663759D01*
X18788008D01*
X18813400Y15638367D01*
Y15612975D01*
Y15638367D01*
X18838792Y15663759D01*
X18864185D01*
X18889575Y15638367D01*
Y15587584D01*
X18864185Y15562192D01*
X17477368Y15394543D02*
X17451978Y15419936D01*
X17401193D01*
X17375801Y15394543D01*
Y15292976D01*
X17401193Y15267586D01*
X17451978D01*
X17477368Y15292976D01*
X17604327Y15267586D02*
Y15419936D01*
X17528152Y15343761D01*
X17629720D01*
X18196909Y15739684D02*
X18171516Y15765076D01*
X18120734D01*
X18095341Y15739684D01*
Y15638116D01*
X18120734Y15612724D01*
X18171516D01*
X18196909Y15638116D01*
X18247691Y15739684D02*
X18273083Y15765076D01*
X18323868D01*
X18349258Y15739684D01*
Y15714291D01*
X18323868Y15688901D01*
X18298476D01*
X18323868D01*
X18349258Y15663509D01*
Y15638116D01*
X18323868Y15612724D01*
X18273083D01*
X18247691Y15638116D01*
X18114932Y16095575D02*
Y15943225D01*
X18191109D01*
X18216499Y15968617D01*
Y16070184D01*
X18191109Y16095575D01*
X18114932D01*
X18267284Y15943225D02*
X18318066D01*
X18292676D01*
Y16095575D01*
X18267284Y16070184D01*
X18102232Y16273425D02*
Y16425775D01*
X18178407D01*
X18203799Y16400385D01*
Y16349600D01*
X18178407Y16324208D01*
X18102232D01*
X18153017D02*
X18203799Y16273425D01*
X18254584D02*
X18305367D01*
X18279976D01*
Y16425775D01*
X18254584Y16400385D01*
X18419725Y16844884D02*
X18394333Y16870274D01*
X18343550D01*
X18318158Y16844884D01*
Y16743317D01*
X18343550Y16717924D01*
X18394333D01*
X18419725Y16743317D01*
X18470508Y16717924D02*
Y16870274D01*
X18572076Y16717924D01*
Y16870274D01*
X18622859Y16717924D02*
X18673643D01*
X18648251D01*
Y16870274D01*
X18622859Y16844884D01*
X15079633Y16870284D02*
X15054240Y16895676D01*
X15003458D01*
X14978065Y16870284D01*
Y16768716D01*
X15003458Y16743324D01*
X15054240D01*
X15079633Y16768716D01*
X15130417Y16743324D02*
Y16895676D01*
X15231984Y16743324D01*
Y16895676D01*
X15384334Y16743324D02*
X15282767D01*
X15384334Y16844891D01*
Y16870284D01*
X15358943Y16895676D01*
X15308159D01*
X15282767Y16870284D01*
X12903185Y20900867D02*
X12928577Y20926259D01*
Y20977042D01*
X12903185Y21002434D01*
X12801617D01*
X12776225Y20977042D01*
Y20926259D01*
X12801617Y20900867D01*
X12776225Y20850082D02*
X12928577D01*
X12776225Y20748515D01*
X12928577D01*
X12776225Y20621558D02*
X12928577D01*
X12852400Y20697733D01*
Y20596165D01*
X7708917Y19897633D02*
X7683525Y19872241D01*
Y19821458D01*
X7708917Y19796066D01*
X7810483D01*
X7835875Y19821458D01*
Y19872241D01*
X7810483Y19897633D01*
X7835875Y19948418D02*
X7683525D01*
X7835875Y20049985D01*
X7683525D01*
X7708917Y20100768D02*
X7683525Y20126160D01*
Y20176942D01*
X7708917Y20202335D01*
X7734308D01*
X7759700Y20176942D01*
Y20151550D01*
Y20176942D01*
X7785092Y20202335D01*
X7810483D01*
X7835875Y20176942D01*
Y20126160D01*
X7810483Y20100768D01*
X10147333Y21065974D02*
Y20939017D01*
X10172725Y20913625D01*
X10223508D01*
X10248900Y20939017D01*
Y21065974D01*
X10299684Y20913625D02*
X10350467D01*
X10325076D01*
Y21065974D01*
X10299684Y21040584D01*
X9918717Y20278600D02*
X9893325Y20253207D01*
Y20202425D01*
X9918717Y20177032D01*
X10020283D01*
X10045675Y20202425D01*
Y20253207D01*
X10020283Y20278600D01*
X10045675Y20329384D02*
Y20380167D01*
Y20354776D01*
X9893325D01*
X9918717Y20329384D01*
X9563117Y20189708D02*
X9537725Y20164317D01*
Y20113533D01*
X9563117Y20088141D01*
X9664683D01*
X9690075Y20113533D01*
Y20164317D01*
X9664683Y20189708D01*
X9690075Y20342059D02*
Y20240492D01*
X9588508Y20342059D01*
X9563117D01*
X9537725Y20316667D01*
Y20265884D01*
X9563117Y20240492D01*
X9055141Y21040575D02*
Y20888225D01*
X9131317D01*
X9156708Y20913617D01*
Y21015184D01*
X9131317Y21040575D01*
X9055141D01*
X9309059Y20888225D02*
X9207492D01*
X9309059Y20989792D01*
Y21015184D01*
X9283667Y21040575D01*
X9232884D01*
X9207492Y21015184D01*
X9055141Y20100826D02*
Y20253175D01*
X9131317D01*
X9156708Y20227785D01*
Y20177000D01*
X9131317Y20151608D01*
X9055141D01*
X9105925D02*
X9156708Y20100826D01*
X9309059D02*
X9207492D01*
X9309059Y20202393D01*
Y20227785D01*
X9283667Y20253175D01*
X9232884D01*
X9207492Y20227785D01*
X9169441Y19465775D02*
Y19338817D01*
X9194833Y19313425D01*
X9245617D01*
X9271008Y19338817D01*
Y19465775D01*
X9423359Y19313425D02*
X9321792D01*
X9423359Y19414992D01*
Y19440384D01*
X9397967Y19465775D01*
X9347184D01*
X9321792Y19440384D01*
X12306275Y17891042D02*
X12153925D01*
Y17967216D01*
X12179317Y17992609D01*
X12230100D01*
X12255492Y17967216D01*
Y17891042D01*
Y17941824D02*
X12306275Y17992609D01*
X12153925Y18144958D02*
X12179317Y18094176D01*
X12230100Y18043391D01*
X12280883D01*
X12306275Y18068784D01*
Y18119566D01*
X12280883Y18144958D01*
X12255492D01*
X12230100Y18119566D01*
Y18043391D01*
X12293575Y18919740D02*
X12141225D01*
Y18995917D01*
X12166617Y19021307D01*
X12217400D01*
X12242792Y18995917D01*
Y18919740D01*
Y18970525D02*
X12293575Y19021307D01*
Y19148267D02*
X12141225D01*
X12217400Y19072092D01*
Y19173659D01*
X12318975Y19910341D02*
X12166625D01*
Y19986517D01*
X12192017Y20011908D01*
X12242800D01*
X12268192Y19986517D01*
Y19910341D01*
Y19961125D02*
X12318975Y20011908D01*
X12192017Y20062692D02*
X12166625Y20088084D01*
Y20138867D01*
X12192017Y20164259D01*
X12217408D01*
X12242800Y20138867D01*
Y20113475D01*
Y20138867D01*
X12268192Y20164259D01*
X12293583D01*
X12318975Y20138867D01*
Y20088084D01*
X12293583Y20062692D01*
X10906768Y19895044D02*
X10881377Y19920435D01*
X10830593D01*
X10805201Y19895044D01*
Y19793477D01*
X10830593Y19768085D01*
X10881377D01*
X10906768Y19793477D01*
X11033727Y19768085D02*
Y19920435D01*
X10957552Y19844260D01*
X11059119D01*
X11626309Y20240184D02*
X11600917Y20265576D01*
X11550133D01*
X11524741Y20240184D01*
Y20138617D01*
X11550133Y20113225D01*
X11600917D01*
X11626309Y20138617D01*
X11677092Y20240184D02*
X11702484Y20265576D01*
X11753268D01*
X11778659Y20240184D01*
Y20214792D01*
X11753268Y20189400D01*
X11727876D01*
X11753268D01*
X11778659Y20164008D01*
Y20138617D01*
X11753268Y20113225D01*
X11702484D01*
X11677092Y20138617D01*
X11544333Y20596075D02*
Y20443726D01*
X11620508D01*
X11645900Y20469118D01*
Y20570683D01*
X11620508Y20596075D01*
X11544333D01*
X11696684Y20443726D02*
X11747467D01*
X11722076D01*
Y20596075D01*
X11696684Y20570683D01*
X11531633Y20773924D02*
Y20926276D01*
X11607808D01*
X11633200Y20900883D01*
Y20850101D01*
X11607808Y20824709D01*
X11531633D01*
X11582417D02*
X11633200Y20773924D01*
X11683984D02*
X11734767D01*
X11709376D01*
Y20926276D01*
X11683984Y20900883D01*
X11849125Y21345384D02*
X11823733Y21370775D01*
X11772950D01*
X11747558Y21345384D01*
Y21243817D01*
X11772950Y21218425D01*
X11823733D01*
X11849125Y21243817D01*
X11899908Y21218425D02*
Y21370775D01*
X12001476Y21218425D01*
Y21370775D01*
X12052259Y21218425D02*
X12103043D01*
X12077651D01*
Y21370775D01*
X12052259Y21345384D01*
X8509033Y21370784D02*
X8483641Y21396175D01*
X8432858D01*
X8407466Y21370784D01*
Y21269217D01*
X8432858Y21243825D01*
X8483641D01*
X8509033Y21269217D01*
X8559817Y21243825D02*
Y21396175D01*
X8661384Y21243825D01*
Y21396175D01*
X8813734Y21243825D02*
X8712167D01*
X8813734Y21345392D01*
Y21370784D01*
X8788343Y21396175D01*
X8737559D01*
X8712167Y21370784D01*
X19473784Y20900867D02*
X19499176Y20926259D01*
Y20977042D01*
X19473784Y21002434D01*
X19372217D01*
X19346825Y20977042D01*
Y20926259D01*
X19372217Y20900867D01*
X19346825Y20850082D02*
X19499176D01*
X19346825Y20748515D01*
X19499176D01*
X19346825Y20621558D02*
X19499176D01*
X19423000Y20697733D01*
Y20596165D01*
X14279517Y19897633D02*
X14254124Y19872241D01*
Y19821458D01*
X14279517Y19796066D01*
X14381084D01*
X14406474Y19821458D01*
Y19872241D01*
X14381084Y19897633D01*
X14406474Y19948418D02*
X14254124D01*
X14406474Y20049985D01*
X14254124D01*
X14279517Y20100768D02*
X14254124Y20126160D01*
Y20176942D01*
X14279517Y20202335D01*
X14304909D01*
X14330299Y20176942D01*
Y20151550D01*
Y20176942D01*
X14355692Y20202335D01*
X14381084D01*
X14406474Y20176942D01*
Y20126160D01*
X14381084Y20100768D01*
X16717934Y21065974D02*
Y20939017D01*
X16743324Y20913625D01*
X16794109D01*
X16819501Y20939017D01*
Y21065974D01*
X16870284Y20913625D02*
X16921066D01*
X16895676D01*
Y21065974D01*
X16870284Y21040584D01*
X16489317Y20278600D02*
X16463925Y20253207D01*
Y20202425D01*
X16489317Y20177032D01*
X16590884D01*
X16616275Y20202425D01*
Y20253207D01*
X16590884Y20278600D01*
X16616275Y20329384D02*
Y20380167D01*
Y20354776D01*
X16463925D01*
X16489317Y20329384D01*
X16133717Y20189708D02*
X16108325Y20164317D01*
Y20113533D01*
X16133717Y20088141D01*
X16235284D01*
X16260675Y20113533D01*
Y20164317D01*
X16235284Y20189708D01*
X16260675Y20342059D02*
Y20240492D01*
X16159108Y20342059D01*
X16133717D01*
X16108325Y20316667D01*
Y20265884D01*
X16133717Y20240492D01*
X15625742Y21040575D02*
Y20888225D01*
X15701917D01*
X15727309Y20913617D01*
Y21015184D01*
X15701917Y21040575D01*
X15625742D01*
X15879659Y20888225D02*
X15778091D01*
X15879659Y20989792D01*
Y21015184D01*
X15854266Y21040575D01*
X15803484D01*
X15778091Y21015184D01*
X15625742Y20100826D02*
Y20253175D01*
X15701917D01*
X15727309Y20227785D01*
Y20177000D01*
X15701917Y20151608D01*
X15625742D01*
X15676524D02*
X15727309Y20100826D01*
X15879659D02*
X15778091D01*
X15879659Y20202393D01*
Y20227785D01*
X15854266Y20253175D01*
X15803484D01*
X15778091Y20227785D01*
X15740041Y19465775D02*
Y19338817D01*
X15765433Y19313425D01*
X15816217D01*
X15841608Y19338817D01*
Y19465775D01*
X15993959Y19313425D02*
X15892392D01*
X15993959Y19414992D01*
Y19440384D01*
X15968567Y19465775D01*
X15917784D01*
X15892392Y19440384D01*
X18876875Y17891042D02*
X18724525D01*
Y17967216D01*
X18749918Y17992609D01*
X18800700D01*
X18826093Y17967216D01*
Y17891042D01*
Y17941824D02*
X18876875Y17992609D01*
X18724525Y18144958D02*
X18749918Y18094176D01*
X18800700Y18043391D01*
X18851485D01*
X18876875Y18068784D01*
Y18119566D01*
X18851485Y18144958D01*
X18826093D01*
X18800700Y18119566D01*
Y18043391D01*
X18864175Y18919740D02*
X18711826D01*
Y18995917D01*
X18737218Y19021307D01*
X18788000D01*
X18813393Y18995917D01*
Y18919740D01*
Y18970525D02*
X18864175Y19021307D01*
Y19148267D02*
X18711826D01*
X18788000Y19072092D01*
Y19173659D01*
X18889575Y19910341D02*
X18737225D01*
Y19986517D01*
X18762617Y20011908D01*
X18813400D01*
X18838792Y19986517D01*
Y19910341D01*
Y19961125D02*
X18889575Y20011908D01*
X18762617Y20062692D02*
X18737225Y20088084D01*
Y20138867D01*
X18762617Y20164259D01*
X18788008D01*
X18813400Y20138867D01*
Y20113475D01*
Y20138867D01*
X18838792Y20164259D01*
X18864185D01*
X18889575Y20138867D01*
Y20088084D01*
X18864185Y20062692D01*
X17477368Y19895044D02*
X17451978Y19920435D01*
X17401193D01*
X17375801Y19895044D01*
Y19793477D01*
X17401193Y19768085D01*
X17451978D01*
X17477368Y19793477D01*
X17604327Y19768085D02*
Y19920435D01*
X17528152Y19844260D01*
X17629720D01*
X18196909Y20240184D02*
X18171516Y20265576D01*
X18120734D01*
X18095341Y20240184D01*
Y20138617D01*
X18120734Y20113225D01*
X18171516D01*
X18196909Y20138617D01*
X18247691Y20240184D02*
X18273083Y20265576D01*
X18323868D01*
X18349258Y20240184D01*
Y20214792D01*
X18323868Y20189400D01*
X18298476D01*
X18323868D01*
X18349258Y20164008D01*
Y20138617D01*
X18323868Y20113225D01*
X18273083D01*
X18247691Y20138617D01*
X18114932Y20596075D02*
Y20443726D01*
X18191109D01*
X18216499Y20469118D01*
Y20570683D01*
X18191109Y20596075D01*
X18114932D01*
X18267284Y20443726D02*
X18318066D01*
X18292676D01*
Y20596075D01*
X18267284Y20570683D01*
X18102232Y20773924D02*
Y20926276D01*
X18178407D01*
X18203799Y20900883D01*
Y20850101D01*
X18178407Y20824709D01*
X18102232D01*
X18153017D02*
X18203799Y20773924D01*
X18254584D02*
X18305367D01*
X18279976D01*
Y20926276D01*
X18254584Y20900883D01*
X18419725Y21345384D02*
X18394333Y21370775D01*
X18343550D01*
X18318158Y21345384D01*
Y21243817D01*
X18343550Y21218425D01*
X18394333D01*
X18419725Y21243817D01*
X18470508Y21218425D02*
Y21370775D01*
X18572076Y21218425D01*
Y21370775D01*
X18622859Y21218425D02*
X18673643D01*
X18648251D01*
Y21370775D01*
X18622859Y21345384D01*
X15079633Y21370784D02*
X15054240Y21396175D01*
X15003458D01*
X14978065Y21370784D01*
Y21269217D01*
X15003458Y21243825D01*
X15054240D01*
X15079633Y21269217D01*
X15130417Y21243825D02*
Y21396175D01*
X15231984Y21243825D01*
Y21396175D01*
X15384334Y21243825D02*
X15282767D01*
X15384334Y21345392D01*
Y21370784D01*
X15358943Y21396175D01*
X15308159D01*
X15282767Y21370784D01*
X12903185Y25401367D02*
X12928577Y25426759D01*
Y25477542D01*
X12903185Y25502934D01*
X12801617D01*
X12776225Y25477542D01*
Y25426759D01*
X12801617Y25401367D01*
X12776225Y25350583D02*
X12928577D01*
X12776225Y25249016D01*
X12928577D01*
X12776225Y25122057D02*
X12928577D01*
X12852400Y25198233D01*
Y25096664D01*
X7708917Y24398132D02*
X7683525Y24372742D01*
Y24321957D01*
X7708917Y24296565D01*
X7810483D01*
X7835875Y24321957D01*
Y24372742D01*
X7810483Y24398132D01*
X7835875Y24448917D02*
X7683525D01*
X7835875Y24550484D01*
X7683525D01*
X7708917Y24601266D02*
X7683525Y24626659D01*
Y24677443D01*
X7708917Y24702835D01*
X7734308D01*
X7759700Y24677443D01*
Y24652051D01*
Y24677443D01*
X7785092Y24702835D01*
X7810483D01*
X7835875Y24677443D01*
Y24626659D01*
X7810483Y24601266D01*
X10147333Y25566475D02*
Y25439517D01*
X10172725Y25414125D01*
X10223508D01*
X10248900Y25439517D01*
Y25566475D01*
X10299684Y25414125D02*
X10350467D01*
X10325076D01*
Y25566475D01*
X10299684Y25541084D01*
X9918717Y24779100D02*
X9893325Y24753708D01*
Y24702925D01*
X9918717Y24677533D01*
X10020283D01*
X10045675Y24702925D01*
Y24753708D01*
X10020283Y24779100D01*
X10045675Y24829884D02*
Y24880667D01*
Y24855276D01*
X9893325D01*
X9918717Y24829884D01*
X9563117Y24690208D02*
X9537725Y24664816D01*
Y24614034D01*
X9563117Y24588641D01*
X9664683D01*
X9690075Y24614034D01*
Y24664816D01*
X9664683Y24690208D01*
X9690075Y24842558D02*
Y24740993D01*
X9588508Y24842558D01*
X9563117D01*
X9537725Y24817168D01*
Y24766383D01*
X9563117Y24740993D01*
X9055141Y25541075D02*
Y25388725D01*
X9131317D01*
X9156708Y25414117D01*
Y25515685D01*
X9131317Y25541075D01*
X9055141D01*
X9309059Y25388725D02*
X9207492D01*
X9309059Y25490292D01*
Y25515685D01*
X9283667Y25541075D01*
X9232884D01*
X9207492Y25515685D01*
X9055141Y24601324D02*
Y24753674D01*
X9131317D01*
X9156708Y24728284D01*
Y24677499D01*
X9131317Y24652107D01*
X9055141D01*
X9105925D02*
X9156708Y24601324D01*
X9309059D02*
X9207492D01*
X9309059Y24702892D01*
Y24728284D01*
X9283667Y24753674D01*
X9232884D01*
X9207492Y24728284D01*
X9169441Y23966275D02*
Y23839317D01*
X9194833Y23813925D01*
X9245617D01*
X9271008Y23839317D01*
Y23966275D01*
X9423359Y23813925D02*
X9321792D01*
X9423359Y23915492D01*
Y23940884D01*
X9397967Y23966275D01*
X9347184D01*
X9321792Y23940884D01*
X12306275Y22391541D02*
X12153925D01*
Y22467717D01*
X12179317Y22493108D01*
X12230100D01*
X12255492Y22467717D01*
Y22391541D01*
Y22442325D02*
X12306275Y22493108D01*
X12153925Y22645459D02*
X12179317Y22594675D01*
X12230100Y22543892D01*
X12280883D01*
X12306275Y22569284D01*
Y22620067D01*
X12280883Y22645459D01*
X12255492D01*
X12230100Y22620067D01*
Y22543892D01*
X12293575Y23420241D02*
X12141225D01*
Y23496417D01*
X12166617Y23521808D01*
X12217400D01*
X12242792Y23496417D01*
Y23420241D01*
Y23471025D02*
X12293575Y23521808D01*
Y23648767D02*
X12141225D01*
X12217400Y23572592D01*
Y23674159D01*
X12318975Y24410841D02*
X12166625D01*
Y24487016D01*
X12192017Y24512408D01*
X12242800D01*
X12268192Y24487016D01*
Y24410841D01*
Y24461626D02*
X12318975Y24512408D01*
X12192017Y24563193D02*
X12166625Y24588583D01*
Y24639368D01*
X12192017Y24664758D01*
X12217408D01*
X12242800Y24639368D01*
Y24613976D01*
Y24639368D01*
X12268192Y24664758D01*
X12293583D01*
X12318975Y24639368D01*
Y24588583D01*
X12293583Y24563193D01*
X10906768Y24395544D02*
X10881377Y24420935D01*
X10830593D01*
X10805201Y24395544D01*
Y24293977D01*
X10830593Y24268585D01*
X10881377D01*
X10906768Y24293977D01*
X11033727Y24268585D02*
Y24420935D01*
X10957552Y24344760D01*
X11059119D01*
X11626309Y24740685D02*
X11600917Y24766077D01*
X11550133D01*
X11524741Y24740685D01*
Y24639117D01*
X11550133Y24613725D01*
X11600917D01*
X11626309Y24639117D01*
X11677092Y24740685D02*
X11702484Y24766077D01*
X11753268D01*
X11778659Y24740685D01*
Y24715292D01*
X11753268Y24689900D01*
X11727876D01*
X11753268D01*
X11778659Y24664508D01*
Y24639117D01*
X11753268Y24613725D01*
X11702484D01*
X11677092Y24639117D01*
X11544333Y25096574D02*
Y24944225D01*
X11620508D01*
X11645900Y24969617D01*
Y25071184D01*
X11620508Y25096574D01*
X11544333D01*
X11696684Y24944225D02*
X11747467D01*
X11722076D01*
Y25096574D01*
X11696684Y25071184D01*
X11531633Y25274425D02*
Y25426775D01*
X11607808D01*
X11633200Y25401384D01*
Y25350600D01*
X11607808Y25325208D01*
X11531633D01*
X11582417D02*
X11633200Y25274425D01*
X11683984D02*
X11734767D01*
X11709376D01*
Y25426775D01*
X11683984Y25401384D01*
X11849125Y25845883D02*
X11823733Y25871274D01*
X11772950D01*
X11747558Y25845883D01*
Y25744318D01*
X11772950Y25718924D01*
X11823733D01*
X11849125Y25744318D01*
X11899908Y25718924D02*
Y25871274D01*
X12001476Y25718924D01*
Y25871274D01*
X12052259Y25718924D02*
X12103043D01*
X12077651D01*
Y25871274D01*
X12052259Y25845883D01*
X8509033Y25871283D02*
X8483641Y25896674D01*
X8432858D01*
X8407466Y25871283D01*
Y25769717D01*
X8432858Y25744324D01*
X8483641D01*
X8509033Y25769717D01*
X8559817Y25744324D02*
Y25896674D01*
X8661384Y25744324D01*
Y25896674D01*
X8813734Y25744324D02*
X8712167D01*
X8813734Y25845892D01*
Y25871283D01*
X8788343Y25896674D01*
X8737559D01*
X8712167Y25871283D01*
X19473784Y25401367D02*
X19499176Y25426759D01*
Y25477542D01*
X19473784Y25502934D01*
X19372217D01*
X19346825Y25477542D01*
Y25426759D01*
X19372217Y25401367D01*
X19346825Y25350583D02*
X19499176D01*
X19346825Y25249016D01*
X19499176D01*
X19346825Y25122057D02*
X19499176D01*
X19423000Y25198233D01*
Y25096664D01*
X14279517Y24398132D02*
X14254124Y24372742D01*
Y24321957D01*
X14279517Y24296565D01*
X14381084D01*
X14406474Y24321957D01*
Y24372742D01*
X14381084Y24398132D01*
X14406474Y24448917D02*
X14254124D01*
X14406474Y24550484D01*
X14254124D01*
X14279517Y24601266D02*
X14254124Y24626659D01*
Y24677443D01*
X14279517Y24702835D01*
X14304909D01*
X14330299Y24677443D01*
Y24652051D01*
Y24677443D01*
X14355692Y24702835D01*
X14381084D01*
X14406474Y24677443D01*
Y24626659D01*
X14381084Y24601266D01*
X16717934Y25566475D02*
Y25439517D01*
X16743324Y25414125D01*
X16794109D01*
X16819501Y25439517D01*
Y25566475D01*
X16870284Y25414125D02*
X16921066D01*
X16895676D01*
Y25566475D01*
X16870284Y25541084D01*
X16489317Y24779100D02*
X16463925Y24753708D01*
Y24702925D01*
X16489317Y24677533D01*
X16590884D01*
X16616275Y24702925D01*
Y24753708D01*
X16590884Y24779100D01*
X16616275Y24829884D02*
Y24880667D01*
Y24855276D01*
X16463925D01*
X16489317Y24829884D01*
X16133717Y24690208D02*
X16108325Y24664816D01*
Y24614034D01*
X16133717Y24588641D01*
X16235284D01*
X16260675Y24614034D01*
Y24664816D01*
X16235284Y24690208D01*
X16260675Y24842558D02*
Y24740993D01*
X16159108Y24842558D01*
X16133717D01*
X16108325Y24817168D01*
Y24766383D01*
X16133717Y24740993D01*
X15625742Y25541075D02*
Y25388725D01*
X15701917D01*
X15727309Y25414117D01*
Y25515685D01*
X15701917Y25541075D01*
X15625742D01*
X15879659Y25388725D02*
X15778091D01*
X15879659Y25490292D01*
Y25515685D01*
X15854266Y25541075D01*
X15803484D01*
X15778091Y25515685D01*
X15625742Y24601324D02*
Y24753674D01*
X15701917D01*
X15727309Y24728284D01*
Y24677499D01*
X15701917Y24652107D01*
X15625742D01*
X15676524D02*
X15727309Y24601324D01*
X15879659D02*
X15778091D01*
X15879659Y24702892D01*
Y24728284D01*
X15854266Y24753674D01*
X15803484D01*
X15778091Y24728284D01*
X15740041Y23966275D02*
Y23839317D01*
X15765433Y23813925D01*
X15816217D01*
X15841608Y23839317D01*
Y23966275D01*
X15993959Y23813925D02*
X15892392D01*
X15993959Y23915492D01*
Y23940884D01*
X15968567Y23966275D01*
X15917784D01*
X15892392Y23940884D01*
X18876875Y22391541D02*
X18724525D01*
Y22467717D01*
X18749918Y22493108D01*
X18800700D01*
X18826093Y22467717D01*
Y22391541D01*
Y22442325D02*
X18876875Y22493108D01*
X18724525Y22645459D02*
X18749918Y22594675D01*
X18800700Y22543892D01*
X18851485D01*
X18876875Y22569284D01*
Y22620067D01*
X18851485Y22645459D01*
X18826093D01*
X18800700Y22620067D01*
Y22543892D01*
X18864175Y23420241D02*
X18711826D01*
Y23496417D01*
X18737218Y23521808D01*
X18788000D01*
X18813393Y23496417D01*
Y23420241D01*
Y23471025D02*
X18864175Y23521808D01*
Y23648767D02*
X18711826D01*
X18788000Y23572592D01*
Y23674159D01*
X18889575Y24410841D02*
X18737225D01*
Y24487016D01*
X18762617Y24512408D01*
X18813400D01*
X18838792Y24487016D01*
Y24410841D01*
Y24461626D02*
X18889575Y24512408D01*
X18762617Y24563193D02*
X18737225Y24588583D01*
Y24639368D01*
X18762617Y24664758D01*
X18788008D01*
X18813400Y24639368D01*
Y24613976D01*
Y24639368D01*
X18838792Y24664758D01*
X18864185D01*
X18889575Y24639368D01*
Y24588583D01*
X18864185Y24563193D01*
X17477368Y24395544D02*
X17451978Y24420935D01*
X17401193D01*
X17375801Y24395544D01*
Y24293977D01*
X17401193Y24268585D01*
X17451978D01*
X17477368Y24293977D01*
X17604327Y24268585D02*
Y24420935D01*
X17528152Y24344760D01*
X17629720D01*
X18196909Y24740685D02*
X18171516Y24766077D01*
X18120734D01*
X18095341Y24740685D01*
Y24639117D01*
X18120734Y24613725D01*
X18171516D01*
X18196909Y24639117D01*
X18247691Y24740685D02*
X18273083Y24766077D01*
X18323868D01*
X18349258Y24740685D01*
Y24715292D01*
X18323868Y24689900D01*
X18298476D01*
X18323868D01*
X18349258Y24664508D01*
Y24639117D01*
X18323868Y24613725D01*
X18273083D01*
X18247691Y24639117D01*
X18114932Y25096574D02*
Y24944225D01*
X18191109D01*
X18216499Y24969617D01*
Y25071184D01*
X18191109Y25096574D01*
X18114932D01*
X18267284Y24944225D02*
X18318066D01*
X18292676D01*
Y25096574D01*
X18267284Y25071184D01*
X18102232Y25274425D02*
Y25426775D01*
X18178407D01*
X18203799Y25401384D01*
Y25350600D01*
X18178407Y25325208D01*
X18102232D01*
X18153017D02*
X18203799Y25274425D01*
X18254584D02*
X18305367D01*
X18279976D01*
Y25426775D01*
X18254584Y25401384D01*
X18419725Y25845883D02*
X18394333Y25871274D01*
X18343550D01*
X18318158Y25845883D01*
Y25744318D01*
X18343550Y25718924D01*
X18394333D01*
X18419725Y25744318D01*
X18470508Y25718924D02*
Y25871274D01*
X18572076Y25718924D01*
Y25871274D01*
X18622859Y25718924D02*
X18673643D01*
X18648251D01*
Y25871274D01*
X18622859Y25845883D01*
X15079633Y25871283D02*
X15054240Y25896674D01*
X15003458D01*
X14978065Y25871283D01*
Y25769717D01*
X15003458Y25744324D01*
X15054240D01*
X15079633Y25769717D01*
X15130417Y25744324D02*
Y25896674D01*
X15231984Y25744324D01*
Y25896674D01*
X15384334Y25744324D02*
X15282767D01*
X15384334Y25845892D01*
Y25871283D01*
X15358943Y25896674D01*
X15308159D01*
X15282767Y25871283D01*
X12903185Y29901868D02*
X12928577Y29927258D01*
Y29978043D01*
X12903185Y30003433D01*
X12801617D01*
X12776225Y29978043D01*
Y29927258D01*
X12801617Y29901868D01*
X12776225Y29851083D02*
X12928577D01*
X12776225Y29749515D01*
X12928577D01*
X12776225Y29622556D02*
X12928577D01*
X12852400Y29698734D01*
Y29597165D01*
X7708917Y28898633D02*
X7683525Y28873242D01*
Y28822458D01*
X7708917Y28797067D01*
X7810483D01*
X7835875Y28822458D01*
Y28873242D01*
X7810483Y28898633D01*
X7835875Y28949417D02*
X7683525D01*
X7835875Y29050983D01*
X7683525D01*
X7708917Y29101767D02*
X7683525Y29127158D01*
Y29177942D01*
X7708917Y29203336D01*
X7734308D01*
X7759700Y29177942D01*
Y29152551D01*
Y29177942D01*
X7785092Y29203336D01*
X7810483D01*
X7835875Y29177942D01*
Y29127158D01*
X7810483Y29101767D01*
X10147333Y30066974D02*
Y29940018D01*
X10172725Y29914624D01*
X10223508D01*
X10248900Y29940018D01*
Y30066974D01*
X10299684Y29914624D02*
X10350467D01*
X10325076D01*
Y30066974D01*
X10299684Y30041583D01*
X9918717Y29279599D02*
X9893325Y29254208D01*
Y29203424D01*
X9918717Y29178033D01*
X10020283D01*
X10045675Y29203424D01*
Y29254208D01*
X10020283Y29279599D01*
X10045675Y29330383D02*
Y29381168D01*
Y29355777D01*
X9893325D01*
X9918717Y29330383D01*
X9563117Y29190707D02*
X9537725Y29165317D01*
Y29114532D01*
X9563117Y29089142D01*
X9664683D01*
X9690075Y29114532D01*
Y29165317D01*
X9664683Y29190707D01*
X9690075Y29343060D02*
Y29241492D01*
X9588508Y29343060D01*
X9563117D01*
X9537725Y29317667D01*
Y29266885D01*
X9563117Y29241492D01*
X9055141Y30041574D02*
Y29889224D01*
X9131317D01*
X9156708Y29914618D01*
Y30016183D01*
X9131317Y30041574D01*
X9055141D01*
X9309059Y29889224D02*
X9207492D01*
X9309059Y29990793D01*
Y30016183D01*
X9283667Y30041574D01*
X9232884D01*
X9207492Y30016183D01*
X9055141Y29101825D02*
Y29254175D01*
X9131317D01*
X9156708Y29228784D01*
Y29178000D01*
X9131317Y29152609D01*
X9055141D01*
X9105925D02*
X9156708Y29101825D01*
X9309059D02*
X9207492D01*
X9309059Y29203391D01*
Y29228784D01*
X9283667Y29254175D01*
X9232884D01*
X9207492Y29228784D01*
X9169441Y28466776D02*
Y28339816D01*
X9194833Y28314426D01*
X9245617D01*
X9271008Y28339816D01*
Y28466776D01*
X9423359Y28314426D02*
X9321792D01*
X9423359Y28415991D01*
Y28441385D01*
X9397967Y28466776D01*
X9347184D01*
X9321792Y28441385D01*
X12306275Y26892041D02*
X12153925D01*
Y26968216D01*
X12179317Y26993607D01*
X12230100D01*
X12255492Y26968216D01*
Y26892041D01*
Y26942825D02*
X12306275Y26993607D01*
X12153925Y27145959D02*
X12179317Y27095175D01*
X12230100Y27044391D01*
X12280883D01*
X12306275Y27069785D01*
Y27120566D01*
X12280883Y27145959D01*
X12255492D01*
X12230100Y27120566D01*
Y27044391D01*
X12293575Y27920740D02*
X12141225D01*
Y27996918D01*
X12166617Y28022308D01*
X12217400D01*
X12242792Y27996918D01*
Y27920740D01*
Y27971524D02*
X12293575Y28022308D01*
Y28149268D02*
X12141225D01*
X12217400Y28073093D01*
Y28174658D01*
X12318975Y28911340D02*
X12166625D01*
Y28987518D01*
X12192017Y29012909D01*
X12242800D01*
X12268192Y28987518D01*
Y28911340D01*
Y28962125D02*
X12318975Y29012909D01*
X12192017Y29063693D02*
X12166625Y29089084D01*
Y29139868D01*
X12192017Y29165259D01*
X12217408D01*
X12242800Y29139868D01*
Y29114474D01*
Y29139868D01*
X12268192Y29165259D01*
X12293583D01*
X12318975Y29139868D01*
Y29089084D01*
X12293583Y29063693D01*
X10906768Y28896045D02*
X10881377Y28921436D01*
X10830593D01*
X10805201Y28896045D01*
Y28794476D01*
X10830593Y28769086D01*
X10881377D01*
X10906768Y28794476D01*
X11033727Y28769086D02*
Y28921436D01*
X10957552Y28845261D01*
X11059119D01*
X11626309Y29241183D02*
X11600917Y29266577D01*
X11550133D01*
X11524741Y29241183D01*
Y29139618D01*
X11550133Y29114224D01*
X11600917D01*
X11626309Y29139618D01*
X11677092Y29241183D02*
X11702484Y29266577D01*
X11753268D01*
X11778659Y29241183D01*
Y29215793D01*
X11753268Y29190399D01*
X11727876D01*
X11753268D01*
X11778659Y29165009D01*
Y29139618D01*
X11753268Y29114224D01*
X11702484D01*
X11677092Y29139618D01*
X11544333Y29597076D02*
Y29444724D01*
X11620508D01*
X11645900Y29470117D01*
Y29571683D01*
X11620508Y29597076D01*
X11544333D01*
X11696684Y29444724D02*
X11747467D01*
X11722076D01*
Y29597076D01*
X11696684Y29571683D01*
X11531633Y29774924D02*
Y29927274D01*
X11607808D01*
X11633200Y29901883D01*
Y29851099D01*
X11607808Y29825708D01*
X11531633D01*
X11582417D02*
X11633200Y29774924D01*
X11683984D02*
X11734767D01*
X11709376D01*
Y29927274D01*
X11683984Y29901883D01*
X11849125Y30346384D02*
X11823733Y30371774D01*
X11772950D01*
X11747558Y30346384D01*
Y30244818D01*
X11772950Y30219424D01*
X11823733D01*
X11849125Y30244818D01*
X11899908Y30219424D02*
Y30371774D01*
X12001476Y30219424D01*
Y30371774D01*
X12052259Y30219424D02*
X12103043D01*
X12077651D01*
Y30371774D01*
X12052259Y30346384D01*
X8509033Y30371783D02*
X8483641Y30397174D01*
X8432858D01*
X8407466Y30371783D01*
Y30270218D01*
X8432858Y30244824D01*
X8483641D01*
X8509033Y30270218D01*
X8559817Y30244824D02*
Y30397174D01*
X8661384Y30244824D01*
Y30397174D01*
X8813734Y30244824D02*
X8712167D01*
X8813734Y30346393D01*
Y30371783D01*
X8788343Y30397174D01*
X8737559D01*
X8712167Y30371783D01*
X19473784Y29901868D02*
X19499176Y29927258D01*
Y29978043D01*
X19473784Y30003433D01*
X19372217D01*
X19346825Y29978043D01*
Y29927258D01*
X19372217Y29901868D01*
X19346825Y29851083D02*
X19499176D01*
X19346825Y29749515D01*
X19499176D01*
X19346825Y29622556D02*
X19499176D01*
X19423000Y29698734D01*
Y29597165D01*
X14279517Y28898633D02*
X14254124Y28873242D01*
Y28822458D01*
X14279517Y28797067D01*
X14381084D01*
X14406474Y28822458D01*
Y28873242D01*
X14381084Y28898633D01*
X14406474Y28949417D02*
X14254124D01*
X14406474Y29050983D01*
X14254124D01*
X14279517Y29101767D02*
X14254124Y29127158D01*
Y29177942D01*
X14279517Y29203336D01*
X14304909D01*
X14330299Y29177942D01*
Y29152551D01*
Y29177942D01*
X14355692Y29203336D01*
X14381084D01*
X14406474Y29177942D01*
Y29127158D01*
X14381084Y29101767D01*
X16717934Y30066974D02*
Y29940018D01*
X16743324Y29914624D01*
X16794109D01*
X16819501Y29940018D01*
Y30066974D01*
X16870284Y29914624D02*
X16921066D01*
X16895676D01*
Y30066974D01*
X16870284Y30041583D01*
X16489317Y29279599D02*
X16463925Y29254208D01*
Y29203424D01*
X16489317Y29178033D01*
X16590884D01*
X16616275Y29203424D01*
Y29254208D01*
X16590884Y29279599D01*
X16616275Y29330383D02*
Y29381168D01*
Y29355777D01*
X16463925D01*
X16489317Y29330383D01*
X16133717Y29190707D02*
X16108325Y29165317D01*
Y29114532D01*
X16133717Y29089142D01*
X16235284D01*
X16260675Y29114532D01*
Y29165317D01*
X16235284Y29190707D01*
X16260675Y29343060D02*
Y29241492D01*
X16159108Y29343060D01*
X16133717D01*
X16108325Y29317667D01*
Y29266885D01*
X16133717Y29241492D01*
X15625742Y30041574D02*
Y29889224D01*
X15701917D01*
X15727309Y29914618D01*
Y30016183D01*
X15701917Y30041574D01*
X15625742D01*
X15879659Y29889224D02*
X15778091D01*
X15879659Y29990793D01*
Y30016183D01*
X15854266Y30041574D01*
X15803484D01*
X15778091Y30016183D01*
X15625742Y29101825D02*
Y29254175D01*
X15701917D01*
X15727309Y29228784D01*
Y29178000D01*
X15701917Y29152609D01*
X15625742D01*
X15676524D02*
X15727309Y29101825D01*
X15879659D02*
X15778091D01*
X15879659Y29203391D01*
Y29228784D01*
X15854266Y29254175D01*
X15803484D01*
X15778091Y29228784D01*
X15740041Y28466776D02*
Y28339816D01*
X15765433Y28314426D01*
X15816217D01*
X15841608Y28339816D01*
Y28466776D01*
X15993959Y28314426D02*
X15892392D01*
X15993959Y28415991D01*
Y28441385D01*
X15968567Y28466776D01*
X15917784D01*
X15892392Y28441385D01*
X18876875Y26892041D02*
X18724525D01*
Y26968216D01*
X18749918Y26993607D01*
X18800700D01*
X18826093Y26968216D01*
Y26892041D01*
Y26942825D02*
X18876875Y26993607D01*
X18724525Y27145959D02*
X18749918Y27095175D01*
X18800700Y27044391D01*
X18851485D01*
X18876875Y27069785D01*
Y27120566D01*
X18851485Y27145959D01*
X18826093D01*
X18800700Y27120566D01*
Y27044391D01*
X18864175Y27920740D02*
X18711826D01*
Y27996918D01*
X18737218Y28022308D01*
X18788000D01*
X18813393Y27996918D01*
Y27920740D01*
Y27971524D02*
X18864175Y28022308D01*
Y28149268D02*
X18711826D01*
X18788000Y28073093D01*
Y28174658D01*
X18889575Y28911340D02*
X18737225D01*
Y28987518D01*
X18762617Y29012909D01*
X18813400D01*
X18838792Y28987518D01*
Y28911340D01*
Y28962125D02*
X18889575Y29012909D01*
X18762617Y29063693D02*
X18737225Y29089084D01*
Y29139868D01*
X18762617Y29165259D01*
X18788008D01*
X18813400Y29139868D01*
Y29114474D01*
Y29139868D01*
X18838792Y29165259D01*
X18864185D01*
X18889575Y29139868D01*
Y29089084D01*
X18864185Y29063693D01*
X17477368Y28896045D02*
X17451978Y28921436D01*
X17401193D01*
X17375801Y28896045D01*
Y28794476D01*
X17401193Y28769086D01*
X17451978D01*
X17477368Y28794476D01*
X17604327Y28769086D02*
Y28921436D01*
X17528152Y28845261D01*
X17629720D01*
X18196909Y29241183D02*
X18171516Y29266577D01*
X18120734D01*
X18095341Y29241183D01*
Y29139618D01*
X18120734Y29114224D01*
X18171516D01*
X18196909Y29139618D01*
X18247691Y29241183D02*
X18273083Y29266577D01*
X18323868D01*
X18349258Y29241183D01*
Y29215793D01*
X18323868Y29190399D01*
X18298476D01*
X18323868D01*
X18349258Y29165009D01*
Y29139618D01*
X18323868Y29114224D01*
X18273083D01*
X18247691Y29139618D01*
X18114932Y29597076D02*
Y29444724D01*
X18191109D01*
X18216499Y29470117D01*
Y29571683D01*
X18191109Y29597076D01*
X18114932D01*
X18267284Y29444724D02*
X18318066D01*
X18292676D01*
Y29597076D01*
X18267284Y29571683D01*
X18102232Y29774924D02*
Y29927274D01*
X18178407D01*
X18203799Y29901883D01*
Y29851099D01*
X18178407Y29825708D01*
X18102232D01*
X18153017D02*
X18203799Y29774924D01*
X18254584D02*
X18305367D01*
X18279976D01*
Y29927274D01*
X18254584Y29901883D01*
X18419725Y30346384D02*
X18394333Y30371774D01*
X18343550D01*
X18318158Y30346384D01*
Y30244818D01*
X18343550Y30219424D01*
X18394333D01*
X18419725Y30244818D01*
X18470508Y30219424D02*
Y30371774D01*
X18572076Y30219424D01*
Y30371774D01*
X18622859Y30219424D02*
X18673643D01*
X18648251D01*
Y30371774D01*
X18622859Y30346384D01*
X15079633Y30371783D02*
X15054240Y30397174D01*
X15003458D01*
X14978065Y30371783D01*
Y30270218D01*
X15003458Y30244824D01*
X15054240D01*
X15079633Y30270218D01*
X15130417Y30244824D02*
Y30397174D01*
X15231984Y30244824D01*
Y30397174D01*
X15384334Y30244824D02*
X15282767D01*
X15384334Y30346393D01*
Y30371783D01*
X15358943Y30397174D01*
X15308159D01*
X15282767Y30371783D01*
%TF.MD5,c1ba672012277532cae84d3fe347e620*%
M02*
