%TF.GenerationSoftware,Altium Limited,Altium Designer,23.9.2 (47)*%
G04 Layer_Color=32768*
%FSLAX45Y45*%
%MOMM*%
%TF.SameCoordinates,AD479AB8-1AF9-481E-9C01-A3E3F564F201*%
%TF.FilePolarity,Positive*%
%TF.FileFunction,Other,Mechanical_15*%
%TF.Part,CustomerPanel*%
G01*
G75*
%TA.AperFunction,NonConductor*%
%ADD54C,0.10000*%
%ADD55C,0.05000*%
D54*
X9906800Y11620500D02*
X10006800D01*
X9956800Y11570500D02*
Y11670500D01*
X10081800Y11400500D02*
Y11840500D01*
X9831800Y11400500D02*
Y11840500D01*
X10081800D01*
X9831800Y11400500D02*
X10081800D01*
X9576600Y11620500D02*
X9676600D01*
X9626600Y11570500D02*
Y11670500D01*
X9751600Y11400500D02*
Y11840500D01*
X9501600Y11400500D02*
Y11840500D01*
X9751600D01*
X9501600Y11400500D02*
X9751600D01*
X9182100Y11670500D02*
Y11770500D01*
X9132100Y11720500D02*
X9232100D01*
X8962100Y11845500D02*
X9402100D01*
X8962100Y11595500D02*
X9402100D01*
X8962100D02*
Y11845500D01*
X9402100Y11595500D02*
Y11845500D01*
X9182100Y11329200D02*
Y11429200D01*
X9132100Y11379200D02*
X9232100D01*
X8962100Y11504200D02*
X9402100D01*
X8962100Y11254200D02*
X9402100D01*
X8962100D02*
Y11504200D01*
X9402100Y11254200D02*
Y11504200D01*
X12396000Y8991600D02*
X12496000D01*
X12446000Y8941600D02*
Y9041600D01*
X12321000Y8771600D02*
Y9211600D01*
X12571000Y8771600D02*
Y9211600D01*
X12321000Y8771600D02*
X12571000D01*
X12321000Y9211600D02*
X12571000D01*
X12396000Y10045700D02*
X12496000D01*
X12446000Y9995700D02*
Y10095700D01*
X12571000Y9825700D02*
Y10265700D01*
X12321000Y9825700D02*
Y10265700D01*
X12571000D01*
X12321000Y9825700D02*
X12571000D01*
X12396000Y11049000D02*
X12496000D01*
X12446000Y10999000D02*
Y11099000D01*
X12321000Y10829000D02*
Y11269000D01*
X12571000Y10829000D02*
Y11269000D01*
X12321000Y10829000D02*
X12571000D01*
X12321000Y11269000D02*
X12571000D01*
X11279200Y10808500D02*
Y10908500D01*
X11229200Y10858500D02*
X11329200D01*
X11059200Y10983500D02*
X11499200D01*
X11059200Y10733500D02*
X11499200D01*
X11059200D02*
Y10983500D01*
X11499200Y10733500D02*
Y10983500D01*
Y11063700D02*
Y11313700D01*
X11059200Y11063700D02*
Y11313700D01*
Y11063700D02*
X11499200D01*
X11059200Y11313700D02*
X11499200D01*
X11229200Y11188700D02*
X11329200D01*
X11279200Y11138700D02*
Y11238700D01*
X11068700Y11381200D02*
Y11631200D01*
X11508700Y11381200D02*
Y11631200D01*
X11068700D02*
X11508700D01*
X11068700Y11381200D02*
X11508700D01*
X11238700Y11506200D02*
X11338700D01*
X11288700Y11456200D02*
Y11556200D01*
X11068700Y11711400D02*
Y11961400D01*
X11508700Y11711400D02*
Y11961400D01*
X11068700D02*
X11508700D01*
X11068700Y11711400D02*
X11508700D01*
X11238700Y11836400D02*
X11338700D01*
X11288700Y11786400D02*
Y11886400D01*
X12396000Y9537700D02*
X12496000D01*
X12446000Y9487700D02*
Y9587700D01*
X12321000Y9317700D02*
Y9757700D01*
X12571000Y9317700D02*
Y9757700D01*
X12321000D02*
X12571000D01*
X12321000Y9317700D02*
X12571000D01*
X16477400Y11620500D02*
X16577400D01*
X16527400Y11570500D02*
Y11670500D01*
X16652400Y11400500D02*
Y11840500D01*
X16402400Y11400500D02*
Y11840500D01*
X16652400D01*
X16402400Y11400500D02*
X16652400D01*
X16147200Y11620500D02*
X16247200D01*
X16197200Y11570500D02*
Y11670500D01*
X16322200Y11400500D02*
Y11840500D01*
X16072200Y11400500D02*
Y11840500D01*
X16322200D01*
X16072200Y11400500D02*
X16322200D01*
X15752699Y11670500D02*
Y11770500D01*
X15702699Y11720500D02*
X15802699D01*
X15532700Y11845500D02*
X15972701D01*
X15532700Y11595500D02*
X15972701D01*
X15532700D02*
Y11845500D01*
X15972701Y11595500D02*
Y11845500D01*
X15752699Y11329200D02*
Y11429200D01*
X15702699Y11379200D02*
X15802699D01*
X15532700Y11504200D02*
X15972701D01*
X15532700Y11254200D02*
X15972701D01*
X15532700D02*
Y11504200D01*
X15972701Y11254200D02*
Y11504200D01*
X18966600Y8991600D02*
X19066600D01*
X19016600Y8941600D02*
Y9041600D01*
X18891600Y8771600D02*
Y9211600D01*
X19141600Y8771600D02*
Y9211600D01*
X18891600Y8771600D02*
X19141600D01*
X18891600Y9211600D02*
X19141600D01*
X18966600Y10045700D02*
X19066600D01*
X19016600Y9995700D02*
Y10095700D01*
X19141600Y9825700D02*
Y10265700D01*
X18891600Y9825700D02*
Y10265700D01*
X19141600D01*
X18891600Y9825700D02*
X19141600D01*
X18966600Y11049000D02*
X19066600D01*
X19016600Y10999000D02*
Y11099000D01*
X18891600Y10829000D02*
Y11269000D01*
X19141600Y10829000D02*
Y11269000D01*
X18891600Y10829000D02*
X19141600D01*
X18891600Y11269000D02*
X19141600D01*
X17849800Y10808500D02*
Y10908500D01*
X17799800Y10858500D02*
X17899800D01*
X17629800Y10983500D02*
X18069800D01*
X17629800Y10733500D02*
X18069800D01*
X17629800D02*
Y10983500D01*
X18069800Y10733500D02*
Y10983500D01*
Y11063700D02*
Y11313700D01*
X17629800Y11063700D02*
Y11313700D01*
Y11063700D02*
X18069800D01*
X17629800Y11313700D02*
X18069800D01*
X17799800Y11188700D02*
X17899800D01*
X17849800Y11138700D02*
Y11238700D01*
X17639301Y11381200D02*
Y11631200D01*
X18079300Y11381200D02*
Y11631200D01*
X17639301D02*
X18079300D01*
X17639301Y11381200D02*
X18079300D01*
X17809300Y11506200D02*
X17909300D01*
X17859300Y11456200D02*
Y11556200D01*
X17639301Y11711400D02*
Y11961400D01*
X18079300Y11711400D02*
Y11961400D01*
X17639301D02*
X18079300D01*
X17639301Y11711400D02*
X18079300D01*
X17809300Y11836400D02*
X17909300D01*
X17859300Y11786400D02*
Y11886400D01*
X18966600Y9537700D02*
X19066600D01*
X19016600Y9487700D02*
Y9587700D01*
X18891600Y9317700D02*
Y9757700D01*
X19141600Y9317700D02*
Y9757700D01*
X18891600D02*
X19141600D01*
X18891600Y9317700D02*
X19141600D01*
X9906800Y16121001D02*
X10006800D01*
X9956800Y16071001D02*
Y16171001D01*
X10081800Y15900999D02*
Y16341000D01*
X9831800Y15900999D02*
Y16341000D01*
X10081800D01*
X9831800Y15900999D02*
X10081800D01*
X9576600Y16121001D02*
X9676600D01*
X9626600Y16071001D02*
Y16171001D01*
X9751600Y15900999D02*
Y16341000D01*
X9501600Y15900999D02*
Y16341000D01*
X9751600D01*
X9501600Y15900999D02*
X9751600D01*
X9182100Y16171001D02*
Y16271001D01*
X9132100Y16221001D02*
X9232100D01*
X8962100Y16346001D02*
X9402100D01*
X8962100Y16096001D02*
X9402100D01*
X8962100D02*
Y16346001D01*
X9402100Y16096001D02*
Y16346001D01*
X9182100Y15829700D02*
Y15929700D01*
X9132100Y15879700D02*
X9232100D01*
X8962100Y16004700D02*
X9402100D01*
X8962100Y15754700D02*
X9402100D01*
X8962100D02*
Y16004700D01*
X9402100Y15754700D02*
Y16004700D01*
X12396000Y13492101D02*
X12496000D01*
X12446000Y13442101D02*
Y13542101D01*
X12321000Y13272099D02*
Y13712100D01*
X12571000Y13272099D02*
Y13712100D01*
X12321000Y13272099D02*
X12571000D01*
X12321000Y13712100D02*
X12571000D01*
X12396000Y14546201D02*
X12496000D01*
X12446000Y14496201D02*
Y14596201D01*
X12571000Y14326199D02*
Y14766200D01*
X12321000Y14326199D02*
Y14766200D01*
X12571000D01*
X12321000Y14326199D02*
X12571000D01*
X12396000Y15549500D02*
X12496000D01*
X12446000Y15499500D02*
Y15599500D01*
X12321000Y15329500D02*
Y15769501D01*
X12571000Y15329500D02*
Y15769501D01*
X12321000Y15329500D02*
X12571000D01*
X12321000Y15769501D02*
X12571000D01*
X11279200Y15309000D02*
Y15409000D01*
X11229200Y15359000D02*
X11329200D01*
X11059200Y15484000D02*
X11499200D01*
X11059200Y15234000D02*
X11499200D01*
X11059200D02*
Y15484000D01*
X11499200Y15234000D02*
Y15484000D01*
Y15564200D02*
Y15814200D01*
X11059200Y15564200D02*
Y15814200D01*
Y15564200D02*
X11499200D01*
X11059200Y15814200D02*
X11499200D01*
X11229200Y15689200D02*
X11329200D01*
X11279200Y15639200D02*
Y15739200D01*
X11068700Y15881700D02*
Y16131700D01*
X11508700Y15881700D02*
Y16131700D01*
X11068700D02*
X11508700D01*
X11068700Y15881700D02*
X11508700D01*
X11238700Y16006700D02*
X11338700D01*
X11288700Y15956700D02*
Y16056700D01*
X11068700Y16211900D02*
Y16461900D01*
X11508700Y16211900D02*
Y16461900D01*
X11068700D02*
X11508700D01*
X11068700Y16211900D02*
X11508700D01*
X11238700Y16336900D02*
X11338700D01*
X11288700Y16286900D02*
Y16386900D01*
X12396000Y14038200D02*
X12496000D01*
X12446000Y13988200D02*
Y14088200D01*
X12321000Y13818201D02*
Y14258200D01*
X12571000Y13818201D02*
Y14258200D01*
X12321000D02*
X12571000D01*
X12321000Y13818201D02*
X12571000D01*
X16477400Y16121001D02*
X16577400D01*
X16527400Y16071001D02*
Y16171001D01*
X16652400Y15900999D02*
Y16341000D01*
X16402400Y15900999D02*
Y16341000D01*
X16652400D01*
X16402400Y15900999D02*
X16652400D01*
X16147200Y16121001D02*
X16247200D01*
X16197200Y16071001D02*
Y16171001D01*
X16322200Y15900999D02*
Y16341000D01*
X16072200Y15900999D02*
Y16341000D01*
X16322200D01*
X16072200Y15900999D02*
X16322200D01*
X15752699Y16171001D02*
Y16271001D01*
X15702699Y16221001D02*
X15802699D01*
X15532700Y16346001D02*
X15972701D01*
X15532700Y16096001D02*
X15972701D01*
X15532700D02*
Y16346001D01*
X15972701Y16096001D02*
Y16346001D01*
X15752699Y15829700D02*
Y15929700D01*
X15702699Y15879700D02*
X15802699D01*
X15532700Y16004700D02*
X15972701D01*
X15532700Y15754700D02*
X15972701D01*
X15532700D02*
Y16004700D01*
X15972701Y15754700D02*
Y16004700D01*
X18966600Y13492101D02*
X19066600D01*
X19016600Y13442101D02*
Y13542101D01*
X18891600Y13272099D02*
Y13712100D01*
X19141600Y13272099D02*
Y13712100D01*
X18891600Y13272099D02*
X19141600D01*
X18891600Y13712100D02*
X19141600D01*
X18966600Y14546201D02*
X19066600D01*
X19016600Y14496201D02*
Y14596201D01*
X19141600Y14326199D02*
Y14766200D01*
X18891600Y14326199D02*
Y14766200D01*
X19141600D01*
X18891600Y14326199D02*
X19141600D01*
X18966600Y15549500D02*
X19066600D01*
X19016600Y15499500D02*
Y15599500D01*
X18891600Y15329500D02*
Y15769501D01*
X19141600Y15329500D02*
Y15769501D01*
X18891600Y15329500D02*
X19141600D01*
X18891600Y15769501D02*
X19141600D01*
X17849800Y15309000D02*
Y15409000D01*
X17799800Y15359000D02*
X17899800D01*
X17629800Y15484000D02*
X18069800D01*
X17629800Y15234000D02*
X18069800D01*
X17629800D02*
Y15484000D01*
X18069800Y15234000D02*
Y15484000D01*
Y15564200D02*
Y15814200D01*
X17629800Y15564200D02*
Y15814200D01*
Y15564200D02*
X18069800D01*
X17629800Y15814200D02*
X18069800D01*
X17799800Y15689200D02*
X17899800D01*
X17849800Y15639200D02*
Y15739200D01*
X17639301Y15881700D02*
Y16131700D01*
X18079300Y15881700D02*
Y16131700D01*
X17639301D02*
X18079300D01*
X17639301Y15881700D02*
X18079300D01*
X17809300Y16006700D02*
X17909300D01*
X17859300Y15956700D02*
Y16056700D01*
X17639301Y16211900D02*
Y16461900D01*
X18079300Y16211900D02*
Y16461900D01*
X17639301D02*
X18079300D01*
X17639301Y16211900D02*
X18079300D01*
X17809300Y16336900D02*
X17909300D01*
X17859300Y16286900D02*
Y16386900D01*
X18966600Y14038200D02*
X19066600D01*
X19016600Y13988200D02*
Y14088200D01*
X18891600Y13818201D02*
Y14258200D01*
X19141600Y13818201D02*
Y14258200D01*
X18891600D02*
X19141600D01*
X18891600Y13818201D02*
X19141600D01*
X9906800Y20621500D02*
X10006800D01*
X9956800Y20571500D02*
Y20671500D01*
X10081800Y20401500D02*
Y20841499D01*
X9831800Y20401500D02*
Y20841499D01*
X10081800D01*
X9831800Y20401500D02*
X10081800D01*
X9576600Y20621500D02*
X9676600D01*
X9626600Y20571500D02*
Y20671500D01*
X9751600Y20401500D02*
Y20841499D01*
X9501600Y20401500D02*
Y20841499D01*
X9751600D01*
X9501600Y20401500D02*
X9751600D01*
X9182100Y20671500D02*
Y20771500D01*
X9132100Y20721500D02*
X9232100D01*
X8962100Y20846500D02*
X9402100D01*
X8962100Y20596500D02*
X9402100D01*
X8962100D02*
Y20846500D01*
X9402100Y20596500D02*
Y20846500D01*
X9182100Y20330200D02*
Y20430200D01*
X9132100Y20380200D02*
X9232100D01*
X8962100Y20505200D02*
X9402100D01*
X8962100Y20255200D02*
X9402100D01*
X8962100D02*
Y20505200D01*
X9402100Y20255200D02*
Y20505200D01*
X12396000Y17992599D02*
X12496000D01*
X12446000Y17942599D02*
Y18042599D01*
X12321000Y17772600D02*
Y18212601D01*
X12571000Y17772600D02*
Y18212601D01*
X12321000Y17772600D02*
X12571000D01*
X12321000Y18212601D02*
X12571000D01*
X12396000Y19046700D02*
X12496000D01*
X12446000Y18996700D02*
Y19096700D01*
X12571000Y18826700D02*
Y19266701D01*
X12321000Y18826700D02*
Y19266701D01*
X12571000D01*
X12321000Y18826700D02*
X12571000D01*
X12396000Y20050000D02*
X12496000D01*
X12446000Y20000000D02*
Y20100000D01*
X12321000Y19830000D02*
Y20270000D01*
X12571000Y19830000D02*
Y20270000D01*
X12321000Y19830000D02*
X12571000D01*
X12321000Y20270000D02*
X12571000D01*
X11279200Y19809500D02*
Y19909500D01*
X11229200Y19859500D02*
X11329200D01*
X11059200Y19984500D02*
X11499200D01*
X11059200Y19734500D02*
X11499200D01*
X11059200D02*
Y19984500D01*
X11499200Y19734500D02*
Y19984500D01*
Y20064700D02*
Y20314700D01*
X11059200Y20064700D02*
Y20314700D01*
Y20064700D02*
X11499200D01*
X11059200Y20314700D02*
X11499200D01*
X11229200Y20189700D02*
X11329200D01*
X11279200Y20139700D02*
Y20239700D01*
X11068700Y20382201D02*
Y20632201D01*
X11508700Y20382201D02*
Y20632201D01*
X11068700D02*
X11508700D01*
X11068700Y20382201D02*
X11508700D01*
X11238700Y20507201D02*
X11338700D01*
X11288700Y20457201D02*
Y20557201D01*
X11068700Y20712399D02*
Y20962399D01*
X11508700Y20712399D02*
Y20962399D01*
X11068700D02*
X11508700D01*
X11068700Y20712399D02*
X11508700D01*
X11238700Y20837399D02*
X11338700D01*
X11288700Y20787399D02*
Y20887399D01*
X12396000Y18538699D02*
X12496000D01*
X12446000Y18488699D02*
Y18588699D01*
X12321000Y18318700D02*
Y18758701D01*
X12571000Y18318700D02*
Y18758701D01*
X12321000D02*
X12571000D01*
X12321000Y18318700D02*
X12571000D01*
X16477400Y20621500D02*
X16577400D01*
X16527400Y20571500D02*
Y20671500D01*
X16652400Y20401500D02*
Y20841499D01*
X16402400Y20401500D02*
Y20841499D01*
X16652400D01*
X16402400Y20401500D02*
X16652400D01*
X16147200Y20621500D02*
X16247200D01*
X16197200Y20571500D02*
Y20671500D01*
X16322200Y20401500D02*
Y20841499D01*
X16072200Y20401500D02*
Y20841499D01*
X16322200D01*
X16072200Y20401500D02*
X16322200D01*
X15752699Y20671500D02*
Y20771500D01*
X15702699Y20721500D02*
X15802699D01*
X15532700Y20846500D02*
X15972701D01*
X15532700Y20596500D02*
X15972701D01*
X15532700D02*
Y20846500D01*
X15972701Y20596500D02*
Y20846500D01*
X15752699Y20330200D02*
Y20430200D01*
X15702699Y20380200D02*
X15802699D01*
X15532700Y20505200D02*
X15972701D01*
X15532700Y20255200D02*
X15972701D01*
X15532700D02*
Y20505200D01*
X15972701Y20255200D02*
Y20505200D01*
X18966600Y17992599D02*
X19066600D01*
X19016600Y17942599D02*
Y18042599D01*
X18891600Y17772600D02*
Y18212601D01*
X19141600Y17772600D02*
Y18212601D01*
X18891600Y17772600D02*
X19141600D01*
X18891600Y18212601D02*
X19141600D01*
X18966600Y19046700D02*
X19066600D01*
X19016600Y18996700D02*
Y19096700D01*
X19141600Y18826700D02*
Y19266701D01*
X18891600Y18826700D02*
Y19266701D01*
X19141600D01*
X18891600Y18826700D02*
X19141600D01*
X18966600Y20050000D02*
X19066600D01*
X19016600Y20000000D02*
Y20100000D01*
X18891600Y19830000D02*
Y20270000D01*
X19141600Y19830000D02*
Y20270000D01*
X18891600Y19830000D02*
X19141600D01*
X18891600Y20270000D02*
X19141600D01*
X17849800Y19809500D02*
Y19909500D01*
X17799800Y19859500D02*
X17899800D01*
X17629800Y19984500D02*
X18069800D01*
X17629800Y19734500D02*
X18069800D01*
X17629800D02*
Y19984500D01*
X18069800Y19734500D02*
Y19984500D01*
Y20064700D02*
Y20314700D01*
X17629800Y20064700D02*
Y20314700D01*
Y20064700D02*
X18069800D01*
X17629800Y20314700D02*
X18069800D01*
X17799800Y20189700D02*
X17899800D01*
X17849800Y20139700D02*
Y20239700D01*
X17639301Y20382201D02*
Y20632201D01*
X18079300Y20382201D02*
Y20632201D01*
X17639301D02*
X18079300D01*
X17639301Y20382201D02*
X18079300D01*
X17809300Y20507201D02*
X17909300D01*
X17859300Y20457201D02*
Y20557201D01*
X17639301Y20712399D02*
Y20962399D01*
X18079300Y20712399D02*
Y20962399D01*
X17639301D02*
X18079300D01*
X17639301Y20712399D02*
X18079300D01*
X17809300Y20837399D02*
X17909300D01*
X17859300Y20787399D02*
Y20887399D01*
X18966600Y18538699D02*
X19066600D01*
X19016600Y18488699D02*
Y18588699D01*
X18891600Y18318700D02*
Y18758701D01*
X19141600Y18318700D02*
Y18758701D01*
X18891600D02*
X19141600D01*
X18891600Y18318700D02*
X19141600D01*
X9906800Y25122000D02*
X10006800D01*
X9956800Y25072000D02*
Y25172000D01*
X10081800Y24902000D02*
Y25342000D01*
X9831800Y24902000D02*
Y25342000D01*
X10081800D01*
X9831800Y24902000D02*
X10081800D01*
X9576600Y25122000D02*
X9676600D01*
X9626600Y25072000D02*
Y25172000D01*
X9751600Y24902000D02*
Y25342000D01*
X9501600Y24902000D02*
Y25342000D01*
X9751600D01*
X9501600Y24902000D02*
X9751600D01*
X9182100Y25172000D02*
Y25272000D01*
X9132100Y25222000D02*
X9232100D01*
X8962100Y25347000D02*
X9402100D01*
X8962100Y25097000D02*
X9402100D01*
X8962100D02*
Y25347000D01*
X9402100Y25097000D02*
Y25347000D01*
X9182100Y24830701D02*
Y24930701D01*
X9132100Y24880701D02*
X9232100D01*
X8962100Y25005701D02*
X9402100D01*
X8962100Y24755701D02*
X9402100D01*
X8962100D02*
Y25005701D01*
X9402100Y24755701D02*
Y25005701D01*
X12396000Y22493100D02*
X12496000D01*
X12446000Y22443100D02*
Y22543100D01*
X12321000Y22273100D02*
Y22713100D01*
X12571000Y22273100D02*
Y22713100D01*
X12321000Y22273100D02*
X12571000D01*
X12321000Y22713100D02*
X12571000D01*
X12396000Y23547200D02*
X12496000D01*
X12446000Y23497200D02*
Y23597200D01*
X12571000Y23327200D02*
Y23767200D01*
X12321000Y23327200D02*
Y23767200D01*
X12571000D01*
X12321000Y23327200D02*
X12571000D01*
X12396000Y24550500D02*
X12496000D01*
X12446000Y24500500D02*
Y24600500D01*
X12321000Y24330499D02*
Y24770500D01*
X12571000Y24330499D02*
Y24770500D01*
X12321000Y24330499D02*
X12571000D01*
X12321000Y24770500D02*
X12571000D01*
X11279200Y24310001D02*
Y24410001D01*
X11229200Y24360001D02*
X11329200D01*
X11059200Y24485001D02*
X11499200D01*
X11059200Y24235001D02*
X11499200D01*
X11059200D02*
Y24485001D01*
X11499200Y24235001D02*
Y24485001D01*
Y24565199D02*
Y24815199D01*
X11059200Y24565199D02*
Y24815199D01*
Y24565199D02*
X11499200D01*
X11059200Y24815199D02*
X11499200D01*
X11229200Y24690199D02*
X11329200D01*
X11279200Y24640199D02*
Y24740199D01*
X11068700Y24882700D02*
Y25132700D01*
X11508700Y24882700D02*
Y25132700D01*
X11068700D02*
X11508700D01*
X11068700Y24882700D02*
X11508700D01*
X11238700Y25007700D02*
X11338700D01*
X11288700Y24957700D02*
Y25057700D01*
X11068700Y25212900D02*
Y25462900D01*
X11508700Y25212900D02*
Y25462900D01*
X11068700D02*
X11508700D01*
X11068700Y25212900D02*
X11508700D01*
X11238700Y25337900D02*
X11338700D01*
X11288700Y25287900D02*
Y25387900D01*
X12396000Y23039200D02*
X12496000D01*
X12446000Y22989200D02*
Y23089200D01*
X12321000Y22819200D02*
Y23259200D01*
X12571000Y22819200D02*
Y23259200D01*
X12321000D02*
X12571000D01*
X12321000Y22819200D02*
X12571000D01*
X16477400Y25122000D02*
X16577400D01*
X16527400Y25072000D02*
Y25172000D01*
X16652400Y24902000D02*
Y25342000D01*
X16402400Y24902000D02*
Y25342000D01*
X16652400D01*
X16402400Y24902000D02*
X16652400D01*
X16147200Y25122000D02*
X16247200D01*
X16197200Y25072000D02*
Y25172000D01*
X16322200Y24902000D02*
Y25342000D01*
X16072200Y24902000D02*
Y25342000D01*
X16322200D01*
X16072200Y24902000D02*
X16322200D01*
X15752699Y25172000D02*
Y25272000D01*
X15702699Y25222000D02*
X15802699D01*
X15532700Y25347000D02*
X15972701D01*
X15532700Y25097000D02*
X15972701D01*
X15532700D02*
Y25347000D01*
X15972701Y25097000D02*
Y25347000D01*
X15752699Y24830701D02*
Y24930701D01*
X15702699Y24880701D02*
X15802699D01*
X15532700Y25005701D02*
X15972701D01*
X15532700Y24755701D02*
X15972701D01*
X15532700D02*
Y25005701D01*
X15972701Y24755701D02*
Y25005701D01*
X18966600Y22493100D02*
X19066600D01*
X19016600Y22443100D02*
Y22543100D01*
X18891600Y22273100D02*
Y22713100D01*
X19141600Y22273100D02*
Y22713100D01*
X18891600Y22273100D02*
X19141600D01*
X18891600Y22713100D02*
X19141600D01*
X18966600Y23547200D02*
X19066600D01*
X19016600Y23497200D02*
Y23597200D01*
X19141600Y23327200D02*
Y23767200D01*
X18891600Y23327200D02*
Y23767200D01*
X19141600D01*
X18891600Y23327200D02*
X19141600D01*
X18966600Y24550500D02*
X19066600D01*
X19016600Y24500500D02*
Y24600500D01*
X18891600Y24330499D02*
Y24770500D01*
X19141600Y24330499D02*
Y24770500D01*
X18891600Y24330499D02*
X19141600D01*
X18891600Y24770500D02*
X19141600D01*
X17849800Y24310001D02*
Y24410001D01*
X17799800Y24360001D02*
X17899800D01*
X17629800Y24485001D02*
X18069800D01*
X17629800Y24235001D02*
X18069800D01*
X17629800D02*
Y24485001D01*
X18069800Y24235001D02*
Y24485001D01*
Y24565199D02*
Y24815199D01*
X17629800Y24565199D02*
Y24815199D01*
Y24565199D02*
X18069800D01*
X17629800Y24815199D02*
X18069800D01*
X17799800Y24690199D02*
X17899800D01*
X17849800Y24640199D02*
Y24740199D01*
X17639301Y24882700D02*
Y25132700D01*
X18079300Y24882700D02*
Y25132700D01*
X17639301D02*
X18079300D01*
X17639301Y24882700D02*
X18079300D01*
X17809300Y25007700D02*
X17909300D01*
X17859300Y24957700D02*
Y25057700D01*
X17639301Y25212900D02*
Y25462900D01*
X18079300Y25212900D02*
Y25462900D01*
X17639301D02*
X18079300D01*
X17639301Y25212900D02*
X18079300D01*
X17809300Y25337900D02*
X17909300D01*
X17859300Y25287900D02*
Y25387900D01*
X18966600Y23039200D02*
X19066600D01*
X19016600Y22989200D02*
Y23089200D01*
X18891600Y22819200D02*
Y23259200D01*
X19141600Y22819200D02*
Y23259200D01*
X18891600D02*
X19141600D01*
X18891600Y22819200D02*
X19141600D01*
X9906800Y29622501D02*
X10006800D01*
X9956800Y29572501D02*
Y29672501D01*
X10081800Y29402499D02*
Y29842499D01*
X9831800Y29402499D02*
Y29842499D01*
X10081800D01*
X9831800Y29402499D02*
X10081800D01*
X9576600Y29622501D02*
X9676600D01*
X9626600Y29572501D02*
Y29672501D01*
X9751600Y29402499D02*
Y29842499D01*
X9501600Y29402499D02*
Y29842499D01*
X9751600D01*
X9501600Y29402499D02*
X9751600D01*
X9182100Y29672501D02*
Y29772501D01*
X9132100Y29722501D02*
X9232100D01*
X8962100Y29847501D02*
X9402100D01*
X8962100Y29597501D02*
X9402100D01*
X8962100D02*
Y29847501D01*
X9402100Y29597501D02*
Y29847501D01*
X9182100Y29331201D02*
Y29431201D01*
X9132100Y29381201D02*
X9232100D01*
X8962100Y29506201D02*
X9402100D01*
X8962100Y29256201D02*
X9402100D01*
X8962100D02*
Y29506201D01*
X9402100Y29256201D02*
Y29506201D01*
X12396000Y26993600D02*
X12496000D01*
X12446000Y26943600D02*
Y27043600D01*
X12321000Y26773599D02*
Y27213599D01*
X12571000Y26773599D02*
Y27213599D01*
X12321000Y26773599D02*
X12571000D01*
X12321000Y27213599D02*
X12571000D01*
X12396000Y28047699D02*
X12496000D01*
X12446000Y27997699D02*
Y28097699D01*
X12571000Y27827701D02*
Y28267700D01*
X12321000Y27827701D02*
Y28267700D01*
X12571000D01*
X12321000Y27827701D02*
X12571000D01*
X12396000Y29051001D02*
X12496000D01*
X12446000Y29001001D02*
Y29101001D01*
X12321000Y28831000D02*
Y29270999D01*
X12571000Y28831000D02*
Y29270999D01*
X12321000Y28831000D02*
X12571000D01*
X12321000Y29270999D02*
X12571000D01*
X11279200Y28810501D02*
Y28910501D01*
X11229200Y28860501D02*
X11329200D01*
X11059200Y28985501D02*
X11499200D01*
X11059200Y28735501D02*
X11499200D01*
X11059200D02*
Y28985501D01*
X11499200Y28735501D02*
Y28985501D01*
Y29065701D02*
Y29315701D01*
X11059200Y29065701D02*
Y29315701D01*
Y29065701D02*
X11499200D01*
X11059200Y29315701D02*
X11499200D01*
X11229200Y29190701D02*
X11329200D01*
X11279200Y29140701D02*
Y29240701D01*
X11068700Y29383200D02*
Y29633200D01*
X11508700Y29383200D02*
Y29633200D01*
X11068700D02*
X11508700D01*
X11068700Y29383200D02*
X11508700D01*
X11238700Y29508200D02*
X11338700D01*
X11288700Y29458200D02*
Y29558200D01*
X11068700Y29713400D02*
Y29963400D01*
X11508700Y29713400D02*
Y29963400D01*
X11068700D02*
X11508700D01*
X11068700Y29713400D02*
X11508700D01*
X11238700Y29838400D02*
X11338700D01*
X11288700Y29788400D02*
Y29888400D01*
X12396000Y27539700D02*
X12496000D01*
X12446000Y27489700D02*
Y27589700D01*
X12321000Y27319699D02*
Y27759698D01*
X12571000Y27319699D02*
Y27759698D01*
X12321000D02*
X12571000D01*
X12321000Y27319699D02*
X12571000D01*
X16477400Y29622501D02*
X16577400D01*
X16527400Y29572501D02*
Y29672501D01*
X16652400Y29402499D02*
Y29842499D01*
X16402400Y29402499D02*
Y29842499D01*
X16652400D01*
X16402400Y29402499D02*
X16652400D01*
X16147200Y29622501D02*
X16247200D01*
X16197200Y29572501D02*
Y29672501D01*
X16322200Y29402499D02*
Y29842499D01*
X16072200Y29402499D02*
Y29842499D01*
X16322200D01*
X16072200Y29402499D02*
X16322200D01*
X15752699Y29672501D02*
Y29772501D01*
X15702699Y29722501D02*
X15802699D01*
X15532700Y29847501D02*
X15972701D01*
X15532700Y29597501D02*
X15972701D01*
X15532700D02*
Y29847501D01*
X15972701Y29597501D02*
Y29847501D01*
X15752699Y29331201D02*
Y29431201D01*
X15702699Y29381201D02*
X15802699D01*
X15532700Y29506201D02*
X15972701D01*
X15532700Y29256201D02*
X15972701D01*
X15532700D02*
Y29506201D01*
X15972701Y29256201D02*
Y29506201D01*
X18966600Y26993600D02*
X19066600D01*
X19016600Y26943600D02*
Y27043600D01*
X18891600Y26773599D02*
Y27213599D01*
X19141600Y26773599D02*
Y27213599D01*
X18891600Y26773599D02*
X19141600D01*
X18891600Y27213599D02*
X19141600D01*
X18966600Y28047699D02*
X19066600D01*
X19016600Y27997699D02*
Y28097699D01*
X19141600Y27827701D02*
Y28267700D01*
X18891600Y27827701D02*
Y28267700D01*
X19141600D01*
X18891600Y27827701D02*
X19141600D01*
X18966600Y29051001D02*
X19066600D01*
X19016600Y29001001D02*
Y29101001D01*
X18891600Y28831000D02*
Y29270999D01*
X19141600Y28831000D02*
Y29270999D01*
X18891600Y28831000D02*
X19141600D01*
X18891600Y29270999D02*
X19141600D01*
X17849800Y28810501D02*
Y28910501D01*
X17799800Y28860501D02*
X17899800D01*
X17629800Y28985501D02*
X18069800D01*
X17629800Y28735501D02*
X18069800D01*
X17629800D02*
Y28985501D01*
X18069800Y28735501D02*
Y28985501D01*
Y29065701D02*
Y29315701D01*
X17629800Y29065701D02*
Y29315701D01*
Y29065701D02*
X18069800D01*
X17629800Y29315701D02*
X18069800D01*
X17799800Y29190701D02*
X17899800D01*
X17849800Y29140701D02*
Y29240701D01*
X17639301Y29383200D02*
Y29633200D01*
X18079300Y29383200D02*
Y29633200D01*
X17639301D02*
X18079300D01*
X17639301Y29383200D02*
X18079300D01*
X17809300Y29508200D02*
X17909300D01*
X17859300Y29458200D02*
Y29558200D01*
X17639301Y29713400D02*
Y29963400D01*
X18079300Y29713400D02*
Y29963400D01*
X17639301D02*
X18079300D01*
X17639301Y29713400D02*
X18079300D01*
X17809300Y29838400D02*
X17909300D01*
X17859300Y29788400D02*
Y29888400D01*
X18966600Y27539700D02*
X19066600D01*
X19016600Y27489700D02*
Y27589700D01*
X18891600Y27319699D02*
Y27759698D01*
X19141600Y27319699D02*
Y27759698D01*
X18891600D02*
X19141600D01*
X18891600Y27319699D02*
X19141600D01*
D55*
X8918600Y9732600D02*
Y10282600D01*
X9699600Y9732600D02*
Y10282600D01*
X8918600D02*
X9699600D01*
X8918600Y9732600D02*
X9699600D01*
X15489200D02*
Y10282600D01*
X16270200Y9732600D02*
Y10282600D01*
X15489200D02*
X16270200D01*
X15489200Y9732600D02*
X16270200D01*
X8918600Y14233099D02*
Y14783099D01*
X9699600Y14233099D02*
Y14783099D01*
X8918600D02*
X9699600D01*
X8918600Y14233099D02*
X9699600D01*
X15489200D02*
Y14783099D01*
X16270200Y14233099D02*
Y14783099D01*
X15489200D02*
X16270200D01*
X15489200Y14233099D02*
X16270200D01*
X8918600Y18733600D02*
Y19283600D01*
X9699600Y18733600D02*
Y19283600D01*
X8918600D02*
X9699600D01*
X8918600Y18733600D02*
X9699600D01*
X15489200D02*
Y19283600D01*
X16270200Y18733600D02*
Y19283600D01*
X15489200D02*
X16270200D01*
X15489200Y18733600D02*
X16270200D01*
X8918600Y23234100D02*
Y23784100D01*
X9699600Y23234100D02*
Y23784100D01*
X8918600D02*
X9699600D01*
X8918600Y23234100D02*
X9699600D01*
X15489200D02*
Y23784100D01*
X16270200Y23234100D02*
Y23784100D01*
X15489200D02*
X16270200D01*
X15489200Y23234100D02*
X16270200D01*
X8918600Y27734601D02*
Y28284601D01*
X9699600Y27734601D02*
Y28284601D01*
X8918600D02*
X9699600D01*
X8918600Y27734601D02*
X9699600D01*
X15489200D02*
Y28284601D01*
X16270200Y27734601D02*
Y28284601D01*
X15489200D02*
X16270200D01*
X15489200Y27734601D02*
X16270200D01*
%TF.MD5,7548109aaedfd4b593996c3985105c0b*%
M02*
