%TF.GenerationSoftware,Altium Limited,Altium Designer,23.9.2 (47)*%
G04 Layer_Color=8421504*
%FSLAX45Y45*%
%MOMM*%
%TF.SameCoordinates,AD479AB8-1AF9-481E-9C01-A3E3F564F201*%
%TF.FilePolarity,Positive*%
%TF.FileFunction,Paste,Top*%
%TF.Part,CustomerPanel*%
G01*
G75*
%TA.AperFunction,SMDPad,CuDef*%
%ADD10C,3.00000*%
%ADD11R,6.00000X1.00000*%
%TA.AperFunction,BGAPad,CuDef*%
%ADD12R,0.80000X0.80000*%
%TA.AperFunction,ConnectorPad*%
%ADD13R,2.70000X1.20000*%
%TA.AperFunction,SMDPad,CuDef*%
%ADD14R,6.73100X6.50240*%
%ADD15R,0.88900X1.21920*%
%ADD16R,1.50000X1.40000*%
%ADD17R,1.40000X1.50000*%
G04:AMPARAMS|DCode=18|XSize=1.57mm|YSize=0.41mm|CornerRadius=0.05125mm|HoleSize=0mm|Usage=FLASHONLY|Rotation=180.000|XOffset=0mm|YOffset=0mm|HoleType=Round|Shape=RoundedRectangle|*
%AMROUNDEDRECTD18*
21,1,1.57000,0.30750,0,0,180.0*
21,1,1.46750,0.41000,0,0,180.0*
1,1,0.10250,-0.73375,0.15375*
1,1,0.10250,0.73375,0.15375*
1,1,0.10250,0.73375,-0.15375*
1,1,0.10250,-0.73375,-0.15375*
%
%ADD18ROUNDEDRECTD18*%
D10*
X20948286Y30797501D02*
D03*
Y7696200D02*
D03*
X7213600D02*
D03*
D11*
X13271500Y11176000D02*
D03*
Y10922000D02*
D03*
Y10668000D02*
D03*
Y10414000D02*
D03*
Y10160000D02*
D03*
Y9906000D02*
D03*
Y9652000D02*
D03*
Y9398000D02*
D03*
Y9144000D02*
D03*
Y8890000D02*
D03*
X19842101Y11176000D02*
D03*
Y10922000D02*
D03*
Y10668000D02*
D03*
Y10414000D02*
D03*
Y10160000D02*
D03*
Y9906000D02*
D03*
Y9652000D02*
D03*
Y9398000D02*
D03*
Y9144000D02*
D03*
Y8890000D02*
D03*
X13271500Y15676500D02*
D03*
Y15422501D02*
D03*
Y15168500D02*
D03*
Y14914500D02*
D03*
Y14660500D02*
D03*
Y14406500D02*
D03*
Y14152499D02*
D03*
Y13898500D02*
D03*
Y13644501D02*
D03*
Y13390500D02*
D03*
X19842101Y15676500D02*
D03*
Y15422501D02*
D03*
Y15168500D02*
D03*
Y14914500D02*
D03*
Y14660500D02*
D03*
Y14406500D02*
D03*
Y14152499D02*
D03*
Y13898500D02*
D03*
Y13644501D02*
D03*
Y13390500D02*
D03*
X13271500Y20177000D02*
D03*
Y19923000D02*
D03*
Y19669000D02*
D03*
Y19414999D02*
D03*
Y19161000D02*
D03*
Y18907001D02*
D03*
Y18653000D02*
D03*
Y18399001D02*
D03*
Y18145000D02*
D03*
Y17891000D02*
D03*
X19842101Y20177000D02*
D03*
Y19923000D02*
D03*
Y19669000D02*
D03*
Y19414999D02*
D03*
Y19161000D02*
D03*
Y18907001D02*
D03*
Y18653000D02*
D03*
Y18399001D02*
D03*
Y18145000D02*
D03*
Y17891000D02*
D03*
X13271500Y24677499D02*
D03*
Y24423500D02*
D03*
Y24169501D02*
D03*
Y23915500D02*
D03*
Y23661501D02*
D03*
Y23407500D02*
D03*
Y23153500D02*
D03*
Y22899500D02*
D03*
Y22645500D02*
D03*
Y22391499D02*
D03*
X19842101Y24677499D02*
D03*
Y24423500D02*
D03*
Y24169501D02*
D03*
Y23915500D02*
D03*
Y23661501D02*
D03*
Y23407500D02*
D03*
Y23153500D02*
D03*
Y22899500D02*
D03*
Y22645500D02*
D03*
Y22391499D02*
D03*
X13271500Y29178000D02*
D03*
Y28923999D02*
D03*
Y28670001D02*
D03*
Y28416000D02*
D03*
Y28162000D02*
D03*
Y27907999D02*
D03*
Y27654001D02*
D03*
Y27400000D02*
D03*
Y27145999D02*
D03*
Y26892001D02*
D03*
X19842101Y29178000D02*
D03*
Y28923999D02*
D03*
Y28670001D02*
D03*
Y28416000D02*
D03*
Y28162000D02*
D03*
Y27907999D02*
D03*
Y27654001D02*
D03*
Y27400000D02*
D03*
Y27145999D02*
D03*
Y26892001D02*
D03*
D12*
X8405669Y10290146D02*
D03*
Y10160000D02*
D03*
X8408644Y10033000D02*
D03*
Y9909146D02*
D03*
X8407400Y9782146D02*
D03*
Y9655146D02*
D03*
X8280400Y10290146D02*
D03*
Y10160000D02*
D03*
Y10033000D02*
D03*
Y9909146D02*
D03*
Y9782146D02*
D03*
Y9655146D02*
D03*
X14976270Y10290146D02*
D03*
Y10160000D02*
D03*
X14979243Y10033000D02*
D03*
Y9909146D02*
D03*
X14978000Y9782146D02*
D03*
Y9655146D02*
D03*
X14850999Y10290146D02*
D03*
Y10160000D02*
D03*
Y10033000D02*
D03*
Y9909146D02*
D03*
Y9782146D02*
D03*
Y9655146D02*
D03*
X8405669Y14790646D02*
D03*
Y14660500D02*
D03*
X8408644Y14533501D02*
D03*
Y14409647D02*
D03*
X8407400Y14282646D02*
D03*
Y14155646D02*
D03*
X8280400Y14790646D02*
D03*
Y14660500D02*
D03*
Y14533501D02*
D03*
Y14409647D02*
D03*
Y14282646D02*
D03*
Y14155646D02*
D03*
X14976270Y14790646D02*
D03*
Y14660500D02*
D03*
X14979243Y14533501D02*
D03*
Y14409647D02*
D03*
X14978000Y14282646D02*
D03*
Y14155646D02*
D03*
X14850999Y14790646D02*
D03*
Y14660500D02*
D03*
Y14533501D02*
D03*
Y14409647D02*
D03*
Y14282646D02*
D03*
Y14155646D02*
D03*
X8405669Y19291145D02*
D03*
Y19161000D02*
D03*
X8408644Y19034000D02*
D03*
Y18910146D02*
D03*
X8407400Y18783147D02*
D03*
Y18656146D02*
D03*
X8280400Y19291145D02*
D03*
Y19161000D02*
D03*
Y19034000D02*
D03*
Y18910146D02*
D03*
Y18783147D02*
D03*
Y18656146D02*
D03*
X14976270Y19291145D02*
D03*
Y19161000D02*
D03*
X14979243Y19034000D02*
D03*
Y18910146D02*
D03*
X14978000Y18783147D02*
D03*
Y18656146D02*
D03*
X14850999Y19291145D02*
D03*
Y19161000D02*
D03*
Y19034000D02*
D03*
Y18910146D02*
D03*
Y18783147D02*
D03*
Y18656146D02*
D03*
X8405669Y23791646D02*
D03*
Y23661501D02*
D03*
X8408644Y23534500D02*
D03*
Y23410646D02*
D03*
X8407400Y23283646D02*
D03*
Y23156647D02*
D03*
X8280400Y23791646D02*
D03*
Y23661501D02*
D03*
Y23534500D02*
D03*
Y23410646D02*
D03*
Y23283646D02*
D03*
Y23156647D02*
D03*
X14976270Y23791646D02*
D03*
Y23661501D02*
D03*
X14979243Y23534500D02*
D03*
Y23410646D02*
D03*
X14978000Y23283646D02*
D03*
Y23156647D02*
D03*
X14850999Y23791646D02*
D03*
Y23661501D02*
D03*
Y23534500D02*
D03*
Y23410646D02*
D03*
Y23283646D02*
D03*
Y23156647D02*
D03*
X8405669Y28292145D02*
D03*
Y28162000D02*
D03*
X8408644Y28035001D02*
D03*
Y27911145D02*
D03*
X8407400Y27784146D02*
D03*
Y27657147D02*
D03*
X8280400Y28292145D02*
D03*
Y28162000D02*
D03*
Y28035001D02*
D03*
Y27911145D02*
D03*
Y27784146D02*
D03*
Y27657147D02*
D03*
X14976270Y28292145D02*
D03*
Y28162000D02*
D03*
X14979243Y28035001D02*
D03*
Y27911145D02*
D03*
X14978000Y27784146D02*
D03*
Y27657147D02*
D03*
X14850999Y28292145D02*
D03*
Y28162000D02*
D03*
Y28035001D02*
D03*
Y27911145D02*
D03*
Y27784146D02*
D03*
Y27657147D02*
D03*
D13*
X8325900Y10556846D02*
D03*
X7835900D02*
D03*
X8325900Y9401146D02*
D03*
X7835900D02*
D03*
X14896500Y10556846D02*
D03*
X14406500D02*
D03*
X14896500Y9401146D02*
D03*
X14406500D02*
D03*
X8325900Y15057346D02*
D03*
X7835900D02*
D03*
X8325900Y13901646D02*
D03*
X7835900D02*
D03*
X14896500Y15057346D02*
D03*
X14406500D02*
D03*
X14896500Y13901646D02*
D03*
X14406500D02*
D03*
X8325900Y19557846D02*
D03*
X7835900D02*
D03*
X8325900Y18402145D02*
D03*
X7835900D02*
D03*
X14896500Y19557846D02*
D03*
X14406500D02*
D03*
X14896500Y18402145D02*
D03*
X14406500D02*
D03*
X8325900Y24058347D02*
D03*
X7835900D02*
D03*
X8325900Y22902646D02*
D03*
X7835900D02*
D03*
X14896500Y24058347D02*
D03*
X14406500D02*
D03*
X14896500Y22902646D02*
D03*
X14406500D02*
D03*
X8325900Y28558847D02*
D03*
X7835900D02*
D03*
X8325900Y27403146D02*
D03*
X7835900D02*
D03*
X14896500Y28558847D02*
D03*
X14406500D02*
D03*
X14896500Y27403146D02*
D03*
X14406500D02*
D03*
D14*
X10477500Y11508740D02*
D03*
X17048100D02*
D03*
X10477500Y16009241D02*
D03*
X17048100D02*
D03*
X10477500Y20509740D02*
D03*
X17048100D02*
D03*
X10477500Y25010240D02*
D03*
X17048100D02*
D03*
X10477500Y29510739D02*
D03*
X17048100D02*
D03*
D15*
X10706100Y10843260D02*
D03*
X10248900D02*
D03*
X17276700D02*
D03*
X16819501D02*
D03*
X10706100Y15343761D02*
D03*
X10248900D02*
D03*
X17276700D02*
D03*
X16819501D02*
D03*
X10706100Y19844260D02*
D03*
X10248900D02*
D03*
X17276700D02*
D03*
X16819501D02*
D03*
X10706100Y24344760D02*
D03*
X10248900D02*
D03*
X17276700D02*
D03*
X16819501D02*
D03*
X10706100Y28845261D02*
D03*
X10248900D02*
D03*
X17276700D02*
D03*
X16819501D02*
D03*
D16*
X9956800Y11720500D02*
D03*
Y11520500D02*
D03*
X9626600Y11720500D02*
D03*
Y11520500D02*
D03*
X12446000Y8891600D02*
D03*
Y9091600D02*
D03*
Y10145700D02*
D03*
Y9945700D02*
D03*
Y10949000D02*
D03*
Y11149000D02*
D03*
X16527400Y11720500D02*
D03*
Y11520500D02*
D03*
X16197200Y11720500D02*
D03*
Y11520500D02*
D03*
X19016600Y8891600D02*
D03*
Y9091600D02*
D03*
Y10145700D02*
D03*
Y9945700D02*
D03*
Y10949000D02*
D03*
Y11149000D02*
D03*
X9956800Y16221001D02*
D03*
Y16021001D02*
D03*
X9626600Y16221001D02*
D03*
Y16021001D02*
D03*
X12446000Y13392101D02*
D03*
Y13592101D02*
D03*
Y14646201D02*
D03*
Y14446201D02*
D03*
Y15449500D02*
D03*
Y15649500D02*
D03*
X16527400Y16221001D02*
D03*
Y16021001D02*
D03*
X16197200Y16221001D02*
D03*
Y16021001D02*
D03*
X19016600Y13392101D02*
D03*
Y13592101D02*
D03*
Y14646201D02*
D03*
Y14446201D02*
D03*
Y15449500D02*
D03*
Y15649500D02*
D03*
X9956800Y20721500D02*
D03*
Y20521500D02*
D03*
X9626600Y20721500D02*
D03*
Y20521500D02*
D03*
X12446000Y17892599D02*
D03*
Y18092599D02*
D03*
Y19146700D02*
D03*
Y18946700D02*
D03*
Y19950000D02*
D03*
Y20150000D02*
D03*
X16527400Y20721500D02*
D03*
Y20521500D02*
D03*
X16197200Y20721500D02*
D03*
Y20521500D02*
D03*
X19016600Y17892599D02*
D03*
Y18092599D02*
D03*
Y19146700D02*
D03*
Y18946700D02*
D03*
Y19950000D02*
D03*
Y20150000D02*
D03*
X9956800Y25222000D02*
D03*
Y25022000D02*
D03*
X9626600Y25222000D02*
D03*
Y25022000D02*
D03*
X12446000Y22393100D02*
D03*
Y22593100D02*
D03*
Y23647200D02*
D03*
Y23447200D02*
D03*
Y24450500D02*
D03*
Y24650500D02*
D03*
X16527400Y25222000D02*
D03*
Y25022000D02*
D03*
X16197200Y25222000D02*
D03*
Y25022000D02*
D03*
X19016600Y22393100D02*
D03*
Y22593100D02*
D03*
Y23647200D02*
D03*
Y23447200D02*
D03*
Y24450500D02*
D03*
Y24650500D02*
D03*
X9956800Y29722501D02*
D03*
Y29522501D02*
D03*
X9626600Y29722501D02*
D03*
Y29522501D02*
D03*
X12446000Y26893600D02*
D03*
Y27093600D02*
D03*
Y28147699D02*
D03*
Y27947699D02*
D03*
Y28951001D02*
D03*
Y29151001D02*
D03*
X16527400Y29722501D02*
D03*
Y29522501D02*
D03*
X16197200Y29722501D02*
D03*
Y29522501D02*
D03*
X19016600Y26893600D02*
D03*
Y27093600D02*
D03*
Y28147699D02*
D03*
Y27947699D02*
D03*
Y28951001D02*
D03*
Y29151001D02*
D03*
D17*
X9082100Y11720500D02*
D03*
X9282100D02*
D03*
X9082100Y11379200D02*
D03*
X9282100D02*
D03*
X11179200Y10858500D02*
D03*
X11379200D02*
D03*
Y11188700D02*
D03*
X11179200D02*
D03*
X11188700Y11506200D02*
D03*
X11388700D02*
D03*
X11188700Y11836400D02*
D03*
X11388700D02*
D03*
X15652699Y11720500D02*
D03*
X15852699D02*
D03*
X15652699Y11379200D02*
D03*
X15852699D02*
D03*
X17749800Y10858500D02*
D03*
X17949800D02*
D03*
Y11188700D02*
D03*
X17749800D02*
D03*
X17759300Y11506200D02*
D03*
X17959300D02*
D03*
X17759300Y11836400D02*
D03*
X17959300D02*
D03*
X9082100Y16221001D02*
D03*
X9282100D02*
D03*
X9082100Y15879700D02*
D03*
X9282100D02*
D03*
X11179200Y15359000D02*
D03*
X11379200D02*
D03*
Y15689200D02*
D03*
X11179200D02*
D03*
X11188700Y16006700D02*
D03*
X11388700D02*
D03*
X11188700Y16336900D02*
D03*
X11388700D02*
D03*
X15652699Y16221001D02*
D03*
X15852699D02*
D03*
X15652699Y15879700D02*
D03*
X15852699D02*
D03*
X17749800Y15359000D02*
D03*
X17949800D02*
D03*
Y15689200D02*
D03*
X17749800D02*
D03*
X17759300Y16006700D02*
D03*
X17959300D02*
D03*
X17759300Y16336900D02*
D03*
X17959300D02*
D03*
X9082100Y20721500D02*
D03*
X9282100D02*
D03*
X9082100Y20380200D02*
D03*
X9282100D02*
D03*
X11179200Y19859500D02*
D03*
X11379200D02*
D03*
Y20189700D02*
D03*
X11179200D02*
D03*
X11188700Y20507201D02*
D03*
X11388700D02*
D03*
X11188700Y20837399D02*
D03*
X11388700D02*
D03*
X15652699Y20721500D02*
D03*
X15852699D02*
D03*
X15652699Y20380200D02*
D03*
X15852699D02*
D03*
X17749800Y19859500D02*
D03*
X17949800D02*
D03*
Y20189700D02*
D03*
X17749800D02*
D03*
X17759300Y20507201D02*
D03*
X17959300D02*
D03*
X17759300Y20837399D02*
D03*
X17959300D02*
D03*
X9082100Y25222000D02*
D03*
X9282100D02*
D03*
X9082100Y24880701D02*
D03*
X9282100D02*
D03*
X11179200Y24360001D02*
D03*
X11379200D02*
D03*
Y24690199D02*
D03*
X11179200D02*
D03*
X11188700Y25007700D02*
D03*
X11388700D02*
D03*
X11188700Y25337900D02*
D03*
X11388700D02*
D03*
X15652699Y25222000D02*
D03*
X15852699D02*
D03*
X15652699Y24880701D02*
D03*
X15852699D02*
D03*
X17749800Y24360001D02*
D03*
X17949800D02*
D03*
Y24690199D02*
D03*
X17749800D02*
D03*
X17759300Y25007700D02*
D03*
X17959300D02*
D03*
X17759300Y25337900D02*
D03*
X17959300D02*
D03*
X9082100Y29722501D02*
D03*
X9282100D02*
D03*
X9082100Y29381201D02*
D03*
X9282100D02*
D03*
X11179200Y28860501D02*
D03*
X11379200D02*
D03*
Y29190701D02*
D03*
X11179200D02*
D03*
X11188700Y29508200D02*
D03*
X11388700D02*
D03*
X11188700Y29838400D02*
D03*
X11388700D02*
D03*
X15652699Y29722501D02*
D03*
X15852699D02*
D03*
X15652699Y29381201D02*
D03*
X15852699D02*
D03*
X17749800Y28860501D02*
D03*
X17949800D02*
D03*
Y29190701D02*
D03*
X17749800D02*
D03*
X17759300Y29508200D02*
D03*
X17959300D02*
D03*
X17759300Y29838400D02*
D03*
X17959300D02*
D03*
D18*
X9022100Y9975100D02*
D03*
Y10040100D02*
D03*
X9596100Y10235100D02*
D03*
Y10170100D02*
D03*
Y10105100D02*
D03*
Y10040100D02*
D03*
Y9975100D02*
D03*
Y9910100D02*
D03*
Y9845100D02*
D03*
Y9780100D02*
D03*
X9022100Y10235100D02*
D03*
Y10170100D02*
D03*
Y10105100D02*
D03*
Y9910100D02*
D03*
Y9845100D02*
D03*
Y9780100D02*
D03*
X15592700Y9975100D02*
D03*
Y10040100D02*
D03*
X16166701Y10235100D02*
D03*
Y10170100D02*
D03*
Y10105100D02*
D03*
Y10040100D02*
D03*
Y9975100D02*
D03*
Y9910100D02*
D03*
Y9845100D02*
D03*
Y9780100D02*
D03*
X15592700Y10235100D02*
D03*
Y10170100D02*
D03*
Y10105100D02*
D03*
Y9910100D02*
D03*
Y9845100D02*
D03*
Y9780100D02*
D03*
X9022100Y14475600D02*
D03*
Y14540601D02*
D03*
X9596100Y14735600D02*
D03*
Y14670599D02*
D03*
Y14605600D02*
D03*
Y14540601D02*
D03*
Y14475600D02*
D03*
Y14410600D02*
D03*
Y14345599D02*
D03*
Y14280600D02*
D03*
X9022100Y14735600D02*
D03*
Y14670599D02*
D03*
Y14605600D02*
D03*
Y14410600D02*
D03*
Y14345599D02*
D03*
Y14280600D02*
D03*
X15592700Y14475600D02*
D03*
Y14540601D02*
D03*
X16166701Y14735600D02*
D03*
Y14670599D02*
D03*
Y14605600D02*
D03*
Y14540601D02*
D03*
Y14475600D02*
D03*
Y14410600D02*
D03*
Y14345599D02*
D03*
Y14280600D02*
D03*
X15592700Y14735600D02*
D03*
Y14670599D02*
D03*
Y14605600D02*
D03*
Y14410600D02*
D03*
Y14345599D02*
D03*
Y14280600D02*
D03*
X9022100Y18976100D02*
D03*
Y19041100D02*
D03*
X9596100Y19236099D02*
D03*
Y19171100D02*
D03*
Y19106100D02*
D03*
Y19041100D02*
D03*
Y18976100D02*
D03*
Y18911099D02*
D03*
Y18846100D02*
D03*
Y18781100D02*
D03*
X9022100Y19236099D02*
D03*
Y19171100D02*
D03*
Y19106100D02*
D03*
Y18911099D02*
D03*
Y18846100D02*
D03*
Y18781100D02*
D03*
X15592700Y18976100D02*
D03*
Y19041100D02*
D03*
X16166701Y19236099D02*
D03*
Y19171100D02*
D03*
Y19106100D02*
D03*
Y19041100D02*
D03*
Y18976100D02*
D03*
Y18911099D02*
D03*
Y18846100D02*
D03*
Y18781100D02*
D03*
X15592700Y19236099D02*
D03*
Y19171100D02*
D03*
Y19106100D02*
D03*
Y18911099D02*
D03*
Y18846100D02*
D03*
Y18781100D02*
D03*
X9022100Y23476601D02*
D03*
Y23541600D02*
D03*
X9596100Y23736600D02*
D03*
Y23671600D02*
D03*
Y23606599D02*
D03*
Y23541600D02*
D03*
Y23476601D02*
D03*
Y23411600D02*
D03*
Y23346600D02*
D03*
Y23281599D02*
D03*
X9022100Y23736600D02*
D03*
Y23671600D02*
D03*
Y23606599D02*
D03*
Y23411600D02*
D03*
Y23346600D02*
D03*
Y23281599D02*
D03*
X15592700Y23476601D02*
D03*
Y23541600D02*
D03*
X16166701Y23736600D02*
D03*
Y23671600D02*
D03*
Y23606599D02*
D03*
Y23541600D02*
D03*
Y23476601D02*
D03*
Y23411600D02*
D03*
Y23346600D02*
D03*
Y23281599D02*
D03*
X15592700Y23736600D02*
D03*
Y23671600D02*
D03*
Y23606599D02*
D03*
Y23411600D02*
D03*
Y23346600D02*
D03*
Y23281599D02*
D03*
X9022100Y27977100D02*
D03*
Y28042099D02*
D03*
X9596100Y28237100D02*
D03*
Y28172101D02*
D03*
Y28107101D02*
D03*
Y28042099D02*
D03*
Y27977100D02*
D03*
Y27912100D02*
D03*
Y27847101D02*
D03*
Y27782101D02*
D03*
X9022100Y28237100D02*
D03*
Y28172101D02*
D03*
Y28107101D02*
D03*
Y27912100D02*
D03*
Y27847101D02*
D03*
Y27782101D02*
D03*
X15592700Y27977100D02*
D03*
Y28042099D02*
D03*
X16166701Y28237100D02*
D03*
Y28172101D02*
D03*
Y28107101D02*
D03*
Y28042099D02*
D03*
Y27977100D02*
D03*
Y27912100D02*
D03*
Y27847101D02*
D03*
Y27782101D02*
D03*
X15592700Y28237100D02*
D03*
Y28172101D02*
D03*
Y28107101D02*
D03*
Y27912100D02*
D03*
Y27847101D02*
D03*
Y27782101D02*
D03*
%TF.MD5,c4df60269fba51ed01c728c8440ab2fc*%
M02*
