%TF.GenerationSoftware,Altium Limited,Altium Designer,23.9.2 (47)*%
G04 Layer_Color=16711935*
%FSLAX45Y45*%
%MOMM*%
%TF.SameCoordinates,AD479AB8-1AF9-481E-9C01-A3E3F564F201*%
%TF.FilePolarity,Positive*%
%TF.FileFunction,Keep-out,Top*%
%TF.Part,CustomerPanel*%
G01*
G75*
%TA.AperFunction,NonConductor*%
%ADD48C,0.20000*%
%ADD51C,0.25400*%
D48*
X7658100Y8534400D02*
X9896600D01*
X10896600D02*
X12979401D01*
X7632700Y8559800D02*
X7658100Y8534400D01*
X13004800Y11353800D02*
Y12534900D01*
X7632700D02*
X13004800D01*
X7632700Y10909300D02*
Y12534900D01*
Y8559800D02*
Y10909300D01*
X12979401Y8534400D02*
X13004800Y8559800D01*
Y8699500D01*
X13011150Y8705850D01*
X13582651D01*
X13703300Y8826500D01*
Y11239500D01*
X13589000Y11353800D02*
X13703300Y11239500D01*
X13004800Y11353800D02*
X13589000D01*
X14228700Y8534400D02*
X16467200D01*
X17467200D02*
X19550000D01*
X14203300Y8559800D02*
X14228700Y8534400D01*
X19575400Y11353800D02*
Y12534900D01*
X14203300D02*
X19575400D01*
X14203300Y10909300D02*
Y12534900D01*
Y8559800D02*
Y10909300D01*
X19550000Y8534400D02*
X19575400Y8559800D01*
Y8699500D01*
X19581750Y8705850D01*
X20153250D01*
X20273900Y8826500D01*
Y11239500D01*
X20159599Y11353800D02*
X20273900Y11239500D01*
X19575400Y11353800D02*
X20159599D01*
X7658100Y13034900D02*
X9896600D01*
X10896600D02*
X12979401D01*
X7632700Y13060300D02*
X7658100Y13034900D01*
X13004800Y15854300D02*
Y17035400D01*
X7632700D02*
X13004800D01*
X7632700Y15409801D02*
Y17035400D01*
Y13060300D02*
Y15409801D01*
X12979401Y13034900D02*
X13004800Y13060300D01*
Y13200000D01*
X13011150Y13206351D01*
X13582651D01*
X13703300Y13327000D01*
Y15739999D01*
X13589000Y15854300D02*
X13703300Y15739999D01*
X13004800Y15854300D02*
X13589000D01*
X14228700Y13034900D02*
X16467200D01*
X17467200D02*
X19550000D01*
X14203300Y13060300D02*
X14228700Y13034900D01*
X19575400Y15854300D02*
Y17035400D01*
X14203300D02*
X19575400D01*
X14203300Y15409801D02*
Y17035400D01*
Y13060300D02*
Y15409801D01*
X19550000Y13034900D02*
X19575400Y13060300D01*
Y13200000D01*
X19581750Y13206351D01*
X20153250D01*
X20273900Y13327000D01*
Y15739999D01*
X20159599Y15854300D02*
X20273900Y15739999D01*
X19575400Y15854300D02*
X20159599D01*
X7658100Y17535400D02*
X9896600D01*
X10896600D02*
X12979401D01*
X7632700Y17560800D02*
X7658100Y17535400D01*
X13004800Y20354800D02*
Y21535899D01*
X7632700D02*
X13004800D01*
X7632700Y19910300D02*
Y21535899D01*
Y17560800D02*
Y19910300D01*
X12979401Y17535400D02*
X13004800Y17560800D01*
Y17700500D01*
X13011150Y17706850D01*
X13582651D01*
X13703300Y17827499D01*
Y20240500D01*
X13589000Y20354800D02*
X13703300Y20240500D01*
X13004800Y20354800D02*
X13589000D01*
X14228700Y17535400D02*
X16467200D01*
X17467200D02*
X19550000D01*
X14203300Y17560800D02*
X14228700Y17535400D01*
X19575400Y20354800D02*
Y21535899D01*
X14203300D02*
X19575400D01*
X14203300Y19910300D02*
Y21535899D01*
Y17560800D02*
Y19910300D01*
X19550000Y17535400D02*
X19575400Y17560800D01*
Y17700500D01*
X19581750Y17706850D01*
X20153250D01*
X20273900Y17827499D01*
Y20240500D01*
X20159599Y20354800D02*
X20273900Y20240500D01*
X19575400Y20354800D02*
X20159599D01*
X7658100Y22035899D02*
X9896600D01*
X10896600D02*
X12979401D01*
X7632700Y22061301D02*
X7658100Y22035899D01*
X13004800Y24855299D02*
Y26036401D01*
X7632700D02*
X13004800D01*
X7632700Y24410800D02*
Y26036401D01*
Y22061301D02*
Y24410800D01*
X12979401Y22035899D02*
X13004800Y22061301D01*
Y22200999D01*
X13011150Y22207350D01*
X13582651D01*
X13703300Y22328000D01*
Y24741000D01*
X13589000Y24855299D02*
X13703300Y24741000D01*
X13004800Y24855299D02*
X13589000D01*
X14228700Y22035899D02*
X16467200D01*
X17467200D02*
X19550000D01*
X14203300Y22061301D02*
X14228700Y22035899D01*
X19575400Y24855299D02*
Y26036401D01*
X14203300D02*
X19575400D01*
X14203300Y24410800D02*
Y26036401D01*
Y22061301D02*
Y24410800D01*
X19550000Y22035899D02*
X19575400Y22061301D01*
Y22200999D01*
X19581750Y22207350D01*
X20153250D01*
X20273900Y22328000D01*
Y24741000D01*
X20159599Y24855299D02*
X20273900Y24741000D01*
X19575400Y24855299D02*
X20159599D01*
X7658100Y26536401D02*
X9896600D01*
X10896600D02*
X12979401D01*
X7632700Y26561801D02*
X7658100Y26536401D01*
X13004800Y29355801D02*
Y30536899D01*
X7632700D02*
X13004800D01*
X7632700Y28911301D02*
Y30536899D01*
Y26561801D02*
Y28911301D01*
X12979401Y26536401D02*
X13004800Y26561801D01*
Y26701501D01*
X13011150Y26707849D01*
X13582651D01*
X13703300Y26828500D01*
Y29241501D01*
X13589000Y29355801D02*
X13703300Y29241501D01*
X13004800Y29355801D02*
X13589000D01*
X14228700Y26536401D02*
X16467200D01*
X17467200D02*
X19550000D01*
X14203300Y26561801D02*
X14228700Y26536401D01*
X19575400Y29355801D02*
Y30536899D01*
X14203300D02*
X19575400D01*
X14203300Y28911301D02*
Y30536899D01*
Y26561801D02*
Y28911301D01*
X19550000Y26536401D02*
X19575400Y26561801D01*
Y26701501D01*
X19581750Y26707849D01*
X20153250D01*
X20273900Y26828500D01*
Y29241501D01*
X20159599Y29355801D02*
X20273900Y29241501D01*
X19575400Y29355801D02*
X20159599D01*
D51*
X10896600Y8534400D02*
G03*
X9896600Y8534400I-500000J0D01*
G01*
X17467200D02*
G03*
X16467200Y8534400I-500000J0D01*
G01*
X10896600Y13034900D02*
G03*
X9896600Y13034900I-500000J0D01*
G01*
X17467200D02*
G03*
X16467200Y13034900I-500000J0D01*
G01*
X10896600Y17535400D02*
G03*
X9896600Y17535400I-500000J0D01*
G01*
X17467200D02*
G03*
X16467200Y17535400I-500000J0D01*
G01*
X10896600Y22035899D02*
G03*
X9896600Y22035899I-500000J0D01*
G01*
X17467200D02*
G03*
X16467200Y22035899I-500000J0D01*
G01*
X10896600Y26536401D02*
G03*
X9896600Y26536401I-500000J0D01*
G01*
X17467200D02*
G03*
X16467200Y26536401I-500000J0D01*
G01*
%TF.MD5,232cd05ec9896ca8fc6b4f5d03fc795c*%
M02*
